<?xml version="1.0" encoding="UTF-8" standalone="no"?>
<!DOCTYPE svg PUBLIC "-//W3C//DTD SVG 1.1//EN"
 "http://www.w3.org/Graphics/SVG/1.1/DTD/svg11.dtd">
<!-- Generated by graphviz version 13.1.2 (20250808.2320)
 -->
<!-- Title: Src/Device.cpp Pages: 1 -->
<!--zoomable 308 -->

<svg id="main" version="1.1" xmlns="http://www.w3.org/2000/svg" xmlns:xlink="http://www.w3.org/1999/xlink" xml:space="preserve" onload="init(evt)">

<style type="text/css"><![CDATA[
.node, .edge {opacity: 0.7;}
.node.selected, .edge.selected {opacity: 1;}
.edge:hover path { stroke: red; }
.edge:hover polygon { stroke: red; fill: red; }
]]></style>

<defs>
  <circle id="rim" cx="0" cy="0" r="7"/>
  <circle id="rim2" cx="0" cy="0" r="3.5"/>
  <g id="zoomPlus">
    <use xlink:href="#rim" fill="#404040"><set attributeName="fill" to="#808080" begin="zoomplus.mouseover" end="zoomplus.mouseout"/></use>
    <path d="M-4,0h8M0,-4v8" fill="none" stroke="white" stroke-width="1.5" pointer-events="none"/>
  </g>
  <g id="zoomMin">
    <use xlink:href="#rim" fill="#404040"><set attributeName="fill" to="#808080" begin="zoomminus.mouseover" end="zoomminus.mouseout"/></use>
    <path d="M-4,0h8" fill="none" stroke="white" stroke-width="1.5" pointer-events="none"/>
  </g>
  <g id="arrowUp" transform="translate(30 24)">
    <use xlink:href="#rim"/>
    <path pointer-events="none" fill="none" stroke="white" stroke-width="1.5" d="M0,-3.0v7 M-2.5,-0.5L0,-3.0L2.5,-0.5"/>
  </g>
  <g id="arrowRight" transform="rotate(90) translate(36 -43)">
    <use xlink:href="#rim"/>
    <path pointer-events="none" fill="none" stroke="white" stroke-width="1.5" d="M0,-3.0v7 M-2.5,-0.5L0,-3.0L2.5,-0.5"/>
  </g>
  <g id="arrowDown" transform="rotate(180) translate(-30 -48)">
    <use xlink:href="#rim"/>
    <path pointer-events="none" fill="none" stroke="white" stroke-width="1.5" d="M0,-3.0v7 M-2.5,-0.5L0,-3.0L2.5,-0.5"/>
  </g>
  <g id="arrowLeft" transform="rotate(270) translate(-36 17)">
    <use xlink:href="#rim"/>
    <path pointer-events="none" fill="none" stroke="white" stroke-width="1.5" d="M0,-3.0v7 M-2.5,-0.5L0,-3.0L2.5,-0.5"/>
  </g>
  <g id="resetDef">
    <use xlink:href="#rim2" fill="#404040"><set attributeName="fill" to="#808080" begin="reset.mouseover" end="reset.mouseout"/></use>
  </g>
</defs>
<script type="application/ecmascript">
var viewWidth = 1008;
var viewHeight = 308;
var sectionId = 'dynsection-0';
</script>
<script type="application/ecmascript" xlink:href="svg.min.js"/>
<svg id="graph" class="graph">
<g id="viewport">
<title>Src/Device.cpp</title>
<!-- Node1 -->
<g id="Node000001" class="node">
<title>Node1</title>
<g id="a_Node000001"><a xlink:title="예제 렌더링 장치 운용 소스.">
<polygon fill="#999999" stroke="#666666" points="482.38,-300 398.88,-300 398.88,-280 482.38,-280 482.38,-300"/>
<text xml:space="preserve" text-anchor="middle" x="440.62" y="-286.5" font-family="Helvetica,sans-Serif" font-size="10.00">Src/Device.cpp</text>
</a>
</g>
</g>
<!-- Node2 -->
<g id="Node000002" class="node">
<title>Node2</title>
<g id="a_Node000002"><a xlink:title=" ">
<polygon fill="#e0e0e0" stroke="#999999" points="713.88,-20 651.38,-20 651.38,0 713.88,0 713.88,-20"/>
<text xml:space="preserve" text-anchor="middle" x="682.62" y="-6.5" font-family="Helvetica,sans-Serif" font-size="10.00">windows.h</text>
</a>
</g>
</g>
<!-- Node1&#45;&gt;Node2 -->
<g id="edge1_Node000001_Node000002" class="edge">
<title>Node1&#45;&gt;Node2</title>
<g id="a_edge1_Node000001_Node000002"><a xlink:title=" ">
<path fill="none" stroke="#63b8ff" d="M482.48,-287.83C595.55,-283.56 898.62,-264.15 898.62,-179 898.62,-179 898.62,-179 898.62,-121 898.62,-43.95 788.12,-20.84 725.19,-13.93"/>
<polygon fill="#63b8ff" stroke="#63b8ff" points="725.84,-10.48 715.54,-12.97 725.14,-17.45 725.84,-10.48"/>
</a>
</g>
</g>
<!-- Node3 -->
<g id="Node000003" class="node">
<title>Node3</title>
<g id="a_Node000003"><a xlink:title=" ">
<polygon fill="#e0e0e0" stroke="#999999" points="211.62,-76 165.62,-76 165.62,-56 211.62,-56 211.62,-76"/>
<text xml:space="preserve" text-anchor="middle" x="188.62" y="-62.5" font-family="Helvetica,sans-Serif" font-size="10.00">tchar.h</text>
</a>
</g>
</g>
<!-- Node1&#45;&gt;Node3 -->
<g id="edge2_Node000001_Node000003" class="edge">
<title>Node1&#45;&gt;Node3</title>
<g id="a_edge2_Node000001_Node000003"><a xlink:title=" ">
<path fill="none" stroke="#63b8ff" d="M398.63,-285.16C319.97,-275.44 151.85,-242.17 79.62,-132 58.9,-100.39 114.91,-81.95 154.11,-73.23"/>
<polygon fill="#63b8ff" stroke="#63b8ff" points="154.58,-76.71 163.66,-71.24 153.15,-69.86 154.58,-76.71"/>
</a>
</g>
</g>
<!-- Node4 -->
<g id="Node000004" class="node">
<title>Node4</title>
<g id="a_Node000004"><a xlink:title=" ">
<polygon fill="#e0e0e0" stroke="#999999" points="1000.12,-244 927.12,-244 927.12,-224 1000.12,-224 1000.12,-244"/>
<text xml:space="preserve" text-anchor="middle" x="963.62" y="-230.5" font-family="Helvetica,sans-Serif" font-size="10.00">mmsystem.h</text>
</a>
</g>
</g>
<!-- Node1&#45;&gt;Node4 -->
<g id="edge3_Node000001_Node000004" class="edge">
<title>Node1&#45;&gt;Node4</title>
<g id="a_edge3_Node000001_Node000004"><a xlink:title=" ">
<path fill="none" stroke="#63b8ff" d="M482.74,-286.12C565.4,-280.2 754.59,-265.44 912.62,-244 913.62,-243.87 914.62,-243.72 915.63,-243.58"/>
<polygon fill="#63b8ff" stroke="#63b8ff" points="915.79,-247.1 925.14,-242.12 914.72,-240.18 915.79,-247.1"/>
</a>
</g>
</g>
<!-- Node5 -->
<g id="Node000005" class="node">
<title>Node5</title>
<g id="a_Node000005"><a xlink:title=" ">
<polygon fill="#e0e0e0" stroke="#999999" points="45.25,-76 0,-76 0,-56 45.25,-56 45.25,-76"/>
<text xml:space="preserve" text-anchor="middle" x="22.62" y="-62.5" font-family="Helvetica,sans-Serif" font-size="10.00">stdio.h</text>
</a>
</g>
</g>
<!-- Node1&#45;&gt;Node5 -->
<g id="edge4_Node000001_Node000005" class="edge">
<title>Node1&#45;&gt;Node5</title>
<g id="a_edge4_Node000001_Node000005"><a xlink:title=" ">
<path fill="none" stroke="#63b8ff" d="M398.81,-287.38C346.91,-284.1 256.58,-274.15 185.62,-244 114.19,-213.65 95.9,-195.76 51.62,-132 41.92,-118.03 34.27,-100.28 29.27,-86.87"/>
<polygon fill="#63b8ff" stroke="#63b8ff" points="32.7,-86.08 26.07,-77.82 26.1,-88.42 32.7,-86.08"/>
</a>
</g>
</g>
<!-- Node6 -->
<g id="Node000006" class="node">
<title>Node6</title>
<g id="a_Node000006"><a xlink:href="_device_8h.html" target="_top" xlink:title="예제 렌더링 장치 운용 헤더">
<polygon fill="white" stroke="#666666" points="468.12,-244 413.12,-244 413.12,-224 468.12,-224 468.12,-244"/>
<text xml:space="preserve" text-anchor="middle" x="440.62" y="-230.5" font-family="Helvetica,sans-Serif" font-size="10.00">Device.h</text>
</a>
</g>
</g>
<!-- Node1&#45;&gt;Node6 -->
<g id="edge5_Node000001_Node000006" class="edge">
<title>Node1&#45;&gt;Node6</title>
<g id="a_edge5_Node000001_Node000006"><a xlink:title=" ">
<path fill="none" stroke="#63b8ff" d="M440.62,-279.59C440.62,-273.01 440.62,-263.96 440.62,-255.73"/>
<polygon fill="#63b8ff" stroke="#63b8ff" points="444.13,-255.81 440.63,-245.81 437.13,-255.81 444.13,-255.81"/>
</a>
</g>
</g>
<!-- Node7 -->
<g id="Node000007" class="node">
<title>Node7</title>
<g id="a_Node000007"><a xlink:href="_yena_8h.html" target="_top" xlink:title="\u{2b50} Yena SWR 기본 헤더 파일 (v1.x)">
<polygon fill="white" stroke="#666666" points="463.62,-188 417.62,-188 417.62,-168 463.62,-168 463.62,-188"/>
<text xml:space="preserve" text-anchor="middle" x="440.62" y="-174.5" font-family="Helvetica,sans-Serif" font-size="10.00">Yena.h</text>
</a>
</g>
</g>
<!-- Node6&#45;&gt;Node7 -->
<g id="edge6_Node000006_Node000007" class="edge">
<title>Node6&#45;&gt;Node7</title>
<g id="a_edge6_Node000006_Node000007"><a xlink:title=" ">
<path fill="none" stroke="#63b8ff" d="M440.62,-223.59C440.62,-217.01 440.62,-207.96 440.62,-199.73"/>
<polygon fill="#63b8ff" stroke="#63b8ff" points="444.13,-199.81 440.63,-189.81 437.13,-199.81 444.13,-199.81"/>
</a>
</g>
</g>
<!-- Node7&#45;&gt;Node2 -->
<g id="edge7_Node000007_Node000002" class="edge">
<title>Node7&#45;&gt;Node2</title>
<g id="a_edge7_Node000007_Node000002"><a xlink:title=" ">
<path fill="none" stroke="#63b8ff" d="M463.99,-177.13C527.13,-176.94 698.77,-172.62 733.62,-132 755.62,-106.37 747.52,-86.79 733.62,-56 728.32,-44.25 718.28,-34.35 708.49,-26.84"/>
<polygon fill="#63b8ff" stroke="#63b8ff" points="710.78,-24.17 700.59,-21.28 706.75,-29.9 710.78,-24.17"/>
</a>
</g>
</g>
<!-- Node7&#45;&gt;Node3 -->
<g id="edge8_Node000007_Node000003" class="edge">
<title>Node7&#45;&gt;Node3</title>
<g id="a_edge8_Node000007_Node000003"><a xlink:title=" ">
<path fill="none" stroke="#63b8ff" d="M417.29,-175.27C380.75,-171.73 308.73,-161.32 255.62,-132 234.21,-120.18 214.76,-99.7 202.4,-84.88"/>
<polygon fill="#63b8ff" stroke="#63b8ff" points="205.29,-82.9 196.3,-77.29 199.83,-87.28 205.29,-82.9"/>
</a>
</g>
</g>
<!-- Node7&#45;&gt;Node5 -->
<g id="edge10_Node000007_Node000005" class="edge">
<title>Node7&#45;&gt;Node5</title>
<g id="a_edge10_Node000007_Node000005"><a xlink:title=" ">
<path fill="none" stroke="#63b8ff" d="M417.29,-176.24C347.04,-173.62 138.71,-163.32 79.62,-132 59.8,-121.49 43.69,-101.09 33.72,-85.93"/>
<polygon fill="#63b8ff" stroke="#63b8ff" points="36.88,-84.39 28.62,-77.75 30.94,-88.09 36.88,-84.39"/>
</a>
</g>
</g>
<!-- Node8 -->
<g id="Node000008" class="node">
<title>Node8</title>
<g id="a_Node000008"><a xlink:title=" ">
<polygon fill="#e0e0e0" stroke="#999999" points="275.62,-76 229.62,-76 229.62,-56 275.62,-56 275.62,-76"/>
<text xml:space="preserve" text-anchor="middle" x="252.62" y="-62.5" font-family="Helvetica,sans-Serif" font-size="10.00">math.h</text>
</a>
</g>
</g>
<!-- Node7&#45;&gt;Node8 -->
<g id="edge9_Node000007_Node000008" class="edge">
<title>Node7&#45;&gt;Node8</title>
<g id="a_edge9_Node000007_Node000008"><a xlink:title=" ">
<path fill="none" stroke="#63b8ff" d="M417.23,-177.58C381.04,-177.16 311.49,-170.92 271.62,-132 259.78,-120.44 255.22,-101.94 253.51,-87.63"/>
<polygon fill="#63b8ff" stroke="#63b8ff" points="257.02,-87.61 252.75,-77.92 250.04,-88.16 257.02,-87.61"/>
</a>
</g>
</g>
<!-- Node9 -->
<g id="Node000009" class="node">
<title>Node9</title>
<g id="a_Node000009"><a xlink:title=" ">
<polygon fill="#e0e0e0" stroke="#999999" points="436.62,-132 396.62,-132 396.62,-112 436.62,-112 436.62,-132"/>
<text xml:space="preserve" text-anchor="middle" x="416.62" y="-118.5" font-family="Helvetica,sans-Serif" font-size="10.00">string</text>
</a>
</g>
</g>
<!-- Node7&#45;&gt;Node9 -->
<g id="edge11_Node000007_Node000009" class="edge">
<title>Node7&#45;&gt;Node9</title>
<g id="a_edge11_Node000007_Node000009"><a xlink:title=" ">
<path fill="none" stroke="#63b8ff" d="M436.44,-167.59C433.38,-160.7 429.11,-151.1 425.32,-142.57"/>
<polygon fill="#63b8ff" stroke="#63b8ff" points="428.63,-141.4 421.37,-133.68 422.24,-144.24 428.63,-141.4"/>
</a>
</g>
</g>
<!-- Node10 -->
<g id="Node000010" class="node">
<title>Node10</title>
<g id="a_Node000010"><a xlink:title=" ">
<polygon fill="#e0e0e0" stroke="#999999" points="427.12,-76 384.12,-76 384.12,-56 427.12,-56 427.12,-76"/>
<text xml:space="preserve" text-anchor="middle" x="405.62" y="-62.5" font-family="Helvetica,sans-Serif" font-size="10.00">vector</text>
</a>
</g>
</g>
<!-- Node7&#45;&gt;Node10 -->
<g id="edge12_Node000007_Node000010" class="edge">
<title>Node7&#45;&gt;Node10</title>
<g id="a_edge12_Node000007_Node000010"><a xlink:title=" ">
<path fill="none" stroke="#63b8ff" d="M423,-167.59C410.56,-159.87 394.87,-147.66 387.62,-132 380.79,-117.22 386.69,-99.32 393.51,-86.05"/>
<polygon fill="#63b8ff" stroke="#63b8ff" points="396.49,-87.88 398.44,-77.47 390.42,-84.4 396.49,-87.88"/>
</a>
</g>
</g>
<!-- Node11 -->
<g id="Node000011" class="node">
<title>Node11</title>
<g id="a_Node000011"><a xlink:title=" ">
<polygon fill="#e0e0e0" stroke="#999999" points="500.5,-76 444.75,-76 444.75,-56 500.5,-56 500.5,-76"/>
<text xml:space="preserve" text-anchor="middle" x="472.62" y="-62.5" font-family="Helvetica,sans-Serif" font-size="10.00">algorithm</text>
</a>
</g>
</g>
<!-- Node7&#45;&gt;Node11 -->
<g id="edge13_Node000007_Node000011" class="edge">
<title>Node7&#45;&gt;Node11</title>
<g id="a_edge13_Node000007_Node000011"><a xlink:title=" ">
<path fill="none" stroke="#63b8ff" d="M443.35,-167.62C448.5,-149.92 459.76,-111.24 466.71,-87.32"/>
<polygon fill="#63b8ff" stroke="#63b8ff" points="470.05,-88.39 469.48,-77.81 463.33,-86.43 470.05,-88.39"/>
</a>
</g>
</g>
<!-- Node12 -->
<g id="Node000012" class="node">
<title>Node12</title>
<g id="a_Node000012"><a xlink:href="yn_define_8h.html" target="_top" xlink:title="Yena SW 엔진 기본 정의 문서.">
<polygon fill="white" stroke="#666666" points="844.25,-132 781,-132 781,-112 844.25,-112 844.25,-132"/>
<text xml:space="preserve" text-anchor="middle" x="812.62" y="-118.5" font-family="Helvetica,sans-Serif" font-size="10.00">ynDefine.h</text>
</a>
</g>
</g>
<!-- Node7&#45;&gt;Node12 -->
<g id="edge14_Node000007_Node000012" class="edge">
<title>Node7&#45;&gt;Node12</title>
<g id="a_edge14_Node000007_Node000012"><a xlink:title=" ">
<path fill="none" stroke="#63b8ff" d="M464.02,-174.23C517.66,-167.77 653.63,-150.84 766.62,-132 767.64,-131.83 768.67,-131.66 769.71,-131.48"/>
<polygon fill="#63b8ff" stroke="#63b8ff" points="770.29,-134.93 779.5,-129.7 769.04,-128.04 770.29,-134.93"/>
</a>
</g>
</g>
<!-- Node14 -->
<g id="Node000014" class="node">
<title>Node14</title>
<g id="a_Node000014"><a xlink:href="yn_error_8h.html" target="_top" xlink:title="에러, 예외 및 로그 처리 헤더 파일">
<polygon fill="white" stroke="#666666" points="724.5,-132 668.75,-132 668.75,-112 724.5,-112 724.5,-132"/>
<text xml:space="preserve" text-anchor="middle" x="696.62" y="-118.5" font-family="Helvetica,sans-Serif" font-size="10.00">ynError.h</text>
</a>
</g>
</g>
<!-- Node7&#45;&gt;Node14 -->
<g id="edge17_Node000007_Node000014" class="edge">
<title>Node7&#45;&gt;Node14</title>
<g id="a_edge17_Node000007_Node000014"><a xlink:title=" ">
<path fill="none" stroke="#63b8ff" d="M464.02,-172.48C502.34,-165.01 581.11,-149.41 657.6,-132.39"/>
<polygon fill="#63b8ff" stroke="#63b8ff" points="657.9,-135.91 666.89,-130.31 656.37,-129.08 657.9,-135.91"/>
</a>
</g>
</g>
<!-- Node16 -->
<g id="Node000016" class="node">
<title>Node16</title>
<g id="a_Node000016"><a xlink:href="yn_g_u_i_d_8h.html" target="_top" xlink:title="Yena SWR COM / GUID 헤더">
<polygon fill="white" stroke="#666666" points="340.75,-132 280.5,-132 280.5,-112 340.75,-112 340.75,-132"/>
<text xml:space="preserve" text-anchor="middle" x="310.62" y="-118.5" font-family="Helvetica,sans-Serif" font-size="10.00">ynGUID.h</text>
</a>
</g>
</g>
<!-- Node7&#45;&gt;Node16 -->
<g id="edge19_Node000007_Node000016" class="edge">
<title>Node7&#45;&gt;Node16</title>
<g id="a_edge19_Node000007_Node000016"><a xlink:title=" ">
<path fill="none" stroke="#63b8ff" d="M417.98,-167.59C397.51,-159.09 367.11,-146.46 343.88,-136.81"/>
<polygon fill="#63b8ff" stroke="#63b8ff" points="345.42,-133.66 334.84,-133.06 342.74,-140.13 345.42,-133.66"/>
</a>
</g>
</g>
<!-- Node18 -->
<g id="Node000018" class="node">
<title>Node18</title>
<g id="a_Node000018"><a xlink:href="yn_unknownbase_8h.html" target="_top" xlink:title="Yena SWR COM 기반 헤더 (v2.x)">
<polygon fill="white" stroke="#666666" points="186.12,-132 89.12,-132 89.12,-112 186.12,-112 186.12,-132"/>
<text xml:space="preserve" text-anchor="middle" x="137.62" y="-118.5" font-family="Helvetica,sans-Serif" font-size="10.00">ynUnknownbase.h</text>
</a>
</g>
</g>
<!-- Node7&#45;&gt;Node18 -->
<g id="edge27_Node000007_Node000018" class="edge">
<title>Node7&#45;&gt;Node18</title>
<g id="a_edge27_Node000007_Node000018"><a xlink:title=" ">
<path fill="none" stroke="#63b8ff" d="M417.35,-172.85C370.85,-164.56 265.13,-145.72 197.8,-133.73"/>
<polygon fill="#63b8ff" stroke="#63b8ff" points="198.47,-130.29 188.01,-131.98 197.24,-137.18 198.47,-130.29"/>
</a>
</g>
</g>
<!-- Node19 -->
<g id="Node000019" class="node">
<title>Node19</title>
<g id="a_Node000019"><a xlink:href="ynx9types_8h.html" target="_top" xlink:title="\u{2b50} Yena SW 엔진 자료형 정의 : DX9 (d3d9types.h) 대응">
<polygon fill="white" stroke="#666666" points="648.25,-76 579,-76 579,-56 648.25,-56 648.25,-76"/>
<text xml:space="preserve" text-anchor="middle" x="613.62" y="-62.5" font-family="Helvetica,sans-Serif" font-size="10.00">ynx9types.h</text>
</a>
</g>
</g>
<!-- Node7&#45;&gt;Node19 -->
<g id="edge29_Node000007_Node000019" class="edge">
<title>Node7&#45;&gt;Node19</title>
<g id="a_edge29_Node000007_Node000019"><a xlink:title=" ">
<path fill="none" stroke="#63b8ff" d="M463.79,-171.7C488.63,-165.24 528.44,-152.55 557.62,-132 575.46,-119.44 591.22,-99.98 601.44,-85.62"/>
<polygon fill="#63b8ff" stroke="#63b8ff" points="604.24,-87.72 607,-77.49 598.46,-83.77 604.24,-87.72"/>
</a>
</g>
</g>
<!-- Node20 -->
<g id="Node000020" class="node">
<title>Node20</title>
<g id="a_Node000020"><a xlink:href="ynx9_8h.html" target="_top" xlink:title="\u{2b50} Yena SWR 인터페이스 헤더 : DX9 (d3d9.h) 대응">
<polygon fill="white" stroke="#666666" points="650.25,-132 605,-132 605,-112 650.25,-112 650.25,-132"/>
<text xml:space="preserve" text-anchor="middle" x="627.62" y="-118.5" font-family="Helvetica,sans-Serif" font-size="10.00">ynx9.h</text>
</a>
</g>
</g>
<!-- Node7&#45;&gt;Node20 -->
<g id="edge31_Node000007_Node000020" class="edge">
<title>Node7&#45;&gt;Node20</title>
<g id="a_edge31_Node000007_Node000020"><a xlink:title=" ">
<path fill="none" stroke="#63b8ff" d="M463.93,-170.27C496.58,-160.84 556.15,-143.64 593.72,-132.79"/>
<polygon fill="#63b8ff" stroke="#63b8ff" points="594.52,-136.2 603.16,-130.07 592.58,-129.48 594.52,-136.2"/>
</a>
</g>
</g>
<!-- Node21 -->
<g id="Node000021" class="node">
<title>Node21</title>
<g id="a_Node000021"><a xlink:href="yn_math_8h.html" target="_top" xlink:title="Yena Math Library for DirectX / OpenGL Yens SW Renderer v2.x.">
<polygon fill="white" stroke="#666666" points="548.88,-132 492.38,-132 492.38,-112 548.88,-112 548.88,-132"/>
<text xml:space="preserve" text-anchor="middle" x="520.62" y="-118.5" font-family="Helvetica,sans-Serif" font-size="10.00">ynMath.h</text>
</a>
</g>
</g>
<!-- Node7&#45;&gt;Node21 -->
<g id="edge33_Node000007_Node000021" class="edge">
<title>Node7&#45;&gt;Node21</title>
<g id="a_edge33_Node000007_Node000021"><a xlink:title=" ">
<path fill="none" stroke="#63b8ff" d="M454.56,-167.59C466.3,-159.67 483.36,-148.16 497.19,-138.82"/>
<polygon fill="#63b8ff" stroke="#63b8ff" points="499,-141.82 505.33,-133.33 495.08,-136.02 499,-141.82"/>
</a>
</g>
</g>
<!-- Node12&#45;&gt;Node2 -->
<g id="edge15_Node000012_Node000002" class="edge">
<title>Node12&#45;&gt;Node2</title>
<g id="a_edge15_Node000012_Node000002"><a xlink:title=" ">
<path fill="none" stroke="#63b8ff" d="M822.32,-111.91C835.25,-98.67 855.04,-73.74 841.62,-56 827.63,-37.49 767.82,-24.4 725.69,-17.28"/>
<polygon fill="#63b8ff" stroke="#63b8ff" points="726.26,-13.82 715.82,-15.67 725.13,-20.73 726.26,-13.82"/>
</a>
</g>
</g>
<!-- Node13 -->
<g id="Node000013" class="node">
<title>Node13</title>
<g id="a_Node000013"><a xlink:title=" ">
<polygon fill="#e0e0e0" stroke="#999999" points="832.25,-76 781,-76 781,-56 832.25,-56 832.25,-76"/>
<text xml:space="preserve" text-anchor="middle" x="806.62" y="-62.5" font-family="Helvetica,sans-Serif" font-size="10.00">assert.h</text>
</a>
</g>
</g>
<!-- Node12&#45;&gt;Node13 -->
<g id="edge16_Node000012_Node000013" class="edge">
<title>Node12&#45;&gt;Node13</title>
<g id="a_edge16_Node000012_Node000013"><a xlink:title=" ">
<path fill="none" stroke="#63b8ff" d="M811.58,-111.59C810.85,-105.01 809.84,-95.96 808.93,-87.73"/>
<polygon fill="#63b8ff" stroke="#63b8ff" points="812.41,-87.35 807.83,-77.8 805.45,-88.13 812.41,-87.35"/>
</a>
</g>
</g>
<!-- Node15 -->
<g id="Node000015" class="node">
<title>Node15</title>
<g id="a_Node000015"><a xlink:title=" ">
<polygon fill="#e0e0e0" stroke="#999999" points="724.62,-76 666.62,-76 666.62,-56 724.62,-56 724.62,-76"/>
<text xml:space="preserve" text-anchor="middle" x="695.62" y="-62.5" font-family="Helvetica,sans-Serif" font-size="10.00">exception</text>
</a>
</g>
</g>
<!-- Node14&#45;&gt;Node15 -->
<g id="edge18_Node000014_Node000015" class="edge">
<title>Node14&#45;&gt;Node15</title>
<g id="a_edge18_Node000014_Node000015"><a xlink:title=" ">
<path fill="none" stroke="#63b8ff" d="M696.45,-111.59C696.33,-105.01 696.16,-95.96 696.01,-87.73"/>
<polygon fill="#63b8ff" stroke="#63b8ff" points="699.51,-87.75 695.83,-77.81 692.51,-87.87 699.51,-87.75"/>
</a>
</g>
</g>
<!-- Node16&#45;&gt;Node2 -->
<g id="edge20_Node000016_Node000002" class="edge">
<title>Node16&#45;&gt;Node2</title>
<g id="a_edge20_Node000016_Node000002"><a xlink:title=" ">
<path fill="none" stroke="#63b8ff" d="M316.93,-111.6C327.29,-96.99 349.38,-69.18 375.62,-56 421.15,-33.14 566.97,-19.49 640.05,-13.93"/>
<polygon fill="#63b8ff" stroke="#63b8ff" points="639.9,-17.45 649.61,-13.21 639.38,-10.47 639.9,-17.45"/>
</a>
</g>
</g>
<!-- Node16&#45;&gt;Node3 -->
<g id="edge21_Node000016_Node000003" class="edge">
<title>Node16&#45;&gt;Node3</title>
<g id="a_edge21_Node000016_Node000003"><a xlink:title=" ">
<path fill="none" stroke="#63b8ff" d="M289.37,-111.59C270.34,-103.17 242.15,-90.69 220.42,-81.07"/>
<polygon fill="#63b8ff" stroke="#63b8ff" points="221.99,-77.94 211.43,-77.09 219.15,-84.34 221.99,-77.94"/>
</a>
</g>
</g>
<!-- Node16&#45;&gt;Node5 -->
<g id="edge23_Node000016_Node000005" class="edge">
<title>Node16&#45;&gt;Node5</title>
<g id="a_edge23_Node000016_Node000005"><a xlink:title=" ">
<path fill="none" stroke="#63b8ff" d="M280.08,-115.27C225.88,-105.11 113.3,-84 56.68,-73.39"/>
<polygon fill="#63b8ff" stroke="#63b8ff" points="57.46,-69.97 46.98,-71.57 56.17,-76.85 57.46,-69.97"/>
</a>
</g>
</g>
<!-- Node16&#45;&gt;Node8 -->
<g id="edge22_Node000016_Node000008" class="edge">
<title>Node16&#45;&gt;Node8</title>
<g id="a_edge22_Node000016_Node000008"><a xlink:title=" ">
<path fill="none" stroke="#63b8ff" d="M300.52,-111.59C292.37,-104.01 280.69,-93.13 270.91,-84.02"/>
<polygon fill="#63b8ff" stroke="#63b8ff" points="273.42,-81.58 263.72,-77.33 268.65,-86.71 273.42,-81.58"/>
</a>
</g>
</g>
<!-- Node16&#45;&gt;Node10 -->
<g id="edge24_Node000016_Node000010" class="edge">
<title>Node16&#45;&gt;Node10</title>
<g id="a_edge24_Node000016_Node000010"><a xlink:title=" ">
<path fill="none" stroke="#63b8ff" d="M327.17,-111.59C341.52,-103.44 362.55,-91.48 379.23,-82"/>
<polygon fill="#63b8ff" stroke="#63b8ff" points="380.67,-85.21 387.63,-77.23 377.21,-79.13 380.67,-85.21"/>
</a>
</g>
</g>
<!-- Node16&#45;&gt;Node11 -->
<g id="edge26_Node000016_Node000011" class="edge">
<title>Node16&#45;&gt;Node11</title>
<g id="a_edge26_Node000016_Node000011"><a xlink:title=" ">
<path fill="none" stroke="#63b8ff" d="M338.84,-111.59C365.13,-102.83 404.55,-89.69 433.8,-79.94"/>
<polygon fill="#63b8ff" stroke="#63b8ff" points="434.64,-83.35 443.02,-76.87 432.43,-76.71 434.64,-83.35"/>
</a>
</g>
</g>
<!-- Node17 -->
<g id="Node000017" class="node">
<title>Node17</title>
<g id="a_Node000017"><a xlink:title=" ">
<polygon fill="#e0e0e0" stroke="#999999" points="328,-76 293.25,-76 293.25,-56 328,-56 328,-76"/>
<text xml:space="preserve" text-anchor="middle" x="310.62" y="-62.5" font-family="Helvetica,sans-Serif" font-size="10.00">map</text>
</a>
</g>
</g>
<!-- Node16&#45;&gt;Node17 -->
<g id="edge25_Node000016_Node000017" class="edge">
<title>Node16&#45;&gt;Node17</title>
<g id="a_edge25_Node000016_Node000017"><a xlink:title=" ">
<path fill="none" stroke="#63b8ff" d="M310.62,-111.59C310.62,-105.01 310.62,-95.96 310.62,-87.73"/>
<polygon fill="#63b8ff" stroke="#63b8ff" points="314.13,-87.81 310.63,-77.81 307.13,-87.81 314.13,-87.81"/>
</a>
</g>
</g>
<!-- Node18&#45;&gt;Node2 -->
<g id="edge28_Node000018_Node000002" class="edge">
<title>Node18&#45;&gt;Node2</title>
<g id="a_edge28_Node000018_Node000002"><a xlink:title=" ">
<path fill="none" stroke="#63b8ff" d="M137.32,-111.72C137.39,-97.29 139.88,-69.7 156.62,-56 193.69,-25.66 520.94,-14.87 639.76,-11.92"/>
<polygon fill="#63b8ff" stroke="#63b8ff" points="639.49,-15.43 649.4,-11.69 639.32,-8.43 639.49,-15.43"/>
</a>
</g>
</g>
<!-- Node19&#45;&gt;Node2 -->
<g id="edge30_Node000019_Node000002" class="edge">
<title>Node19&#45;&gt;Node2</title>
<g id="a_edge30_Node000019_Node000002"><a xlink:title=" ">
<path fill="none" stroke="#63b8ff" d="M625.64,-55.59C635.64,-47.77 650.09,-36.46 661.93,-27.19"/>
<polygon fill="#63b8ff" stroke="#63b8ff" points="663.83,-30.15 669.55,-21.23 659.52,-24.64 663.83,-30.15"/>
</a>
</g>
</g>
<!-- Node20&#45;&gt;Node19 -->
<g id="edge32_Node000020_Node000019" class="edge">
<title>Node20&#45;&gt;Node19</title>
<g id="a_edge32_Node000020_Node000019"><a xlink:title=" ">
<path fill="none" stroke="#63b8ff" d="M625.19,-111.59C623.46,-104.93 621.08,-95.75 618.92,-87.44"/>
<polygon fill="#63b8ff" stroke="#63b8ff" points="622.31,-86.56 616.42,-77.76 615.54,-88.32 622.31,-86.56"/>
</a>
</g>
</g>
</g>
</svg>

<g id="navigator" transform="translate(0 0)" fill="#404254">
  <rect fill="#f2f5e9" fill-opacity="0.5" stroke="#606060" stroke-width=".5" x="0" y="0" width="60" height="60"/>
  <use id="zoomplus" xlink:href="#zoomPlus" x="17" y="9" onmousedown="handleZoom(evt,'in')"/>
  <use id="zoomminus" xlink:href="#zoomMin" x="42" y="9" onmousedown="handleZoom(evt,'out')"/>
  <use id="reset" xlink:href="#resetDef" x="30" y="36" onmousedown="handleReset()"/>
   <use id="arrowup" xlink:href="#arrowUp" x="0" y="0" onmousedown="handlePan(0,-1)"/>
  <use id="arrowright" xlink:href="#arrowRight" x="0" y="0" onmousedown="handlePan(1,0)"/>
  <use id="arrowdown" xlink:href="#arrowDown" x="0" y="0" onmousedown="handlePan(0,1)"/>
  <use id="arrowleft" xlink:href="#arrowLeft" x="0" y="0" onmousedown="handlePan(-1,0)"/>
</g>
<svg viewBox="0 0 15 15" width="100%" height="30px" preserveAspectRatio="xMaxYMin meet">
 <g id="arrow_out" transform="scale(0.3 0.3)">
  <a xlink:href="_device_8cpp__incl_org.svg" target="_base">
   <rect id="button" ry="5" rx="5" y="6" x="6" height="38" width="38"
        fill="#f2f5e9" fill-opacity="0.5" stroke="#606060" stroke-width="1.0"/>
   <path id="arrow"
     d="M 11.500037,31.436501 C 11.940474,20.09759 22.043105,11.32322 32.158766,21.979434 L 37.068811,17.246167 C 37.068811,17.246167 37.088388,32 37.088388,32 L 22.160133,31.978069 C 22.160133,31.978069 26.997745,27.140456 26.997745,27.140456 C 18.528582,18.264221 13.291696,25.230495 11.500037,31.436501 z"
     style="fill:#404040;"/>
  </a>
 </g>
</svg>

<style type='text/css'>
<![CDATA[
[data-mouse-over-selected='false'] { opacity: 0.7; }
[data-mouse-over-selected='true']  { opacity: 1.0; }
]]>
</style>
<script type="application/ecmascript"><![CDATA[
document.addEventListener('DOMContentLoaded', (event) => {
  highlightEdges();
  highlightAdjacentNodes();
});
]]></script>
</svg>
