<?xml version="1.0" encoding="UTF-8" standalone="no"?>
<!DOCTYPE svg PUBLIC "-//W3C//DTD SVG 1.1//EN"
 "http://www.w3.org/Graphics/SVG/1.1/DTD/svg11.dtd">
<!-- Generated by graphviz version 13.1.2 (20250808.2320)
 -->
<!-- Title: YenaSetup Pages: 1 -->
<svg width="461pt" height="66pt"
 viewBox="0.00 0.00 461.00 66.00" xmlns="http://www.w3.org/2000/svg" xmlns:xlink="http://www.w3.org/1999/xlink">
<g id="graph0" class="graph" transform="scale(1 1) rotate(0) translate(4 62)">
<title>YenaSetup</title>
<!-- Node1 -->
<g id="Node000001" class="node">
<title>Node1</title>
<g id="a_Node000001"><a xlink:title=" ">
<polygon fill="#999999" stroke="#666666" points="63.25,-39 0,-39 0,-19 63.25,-19 63.25,-39"/>
<text xml:space="preserve" text-anchor="middle" x="31.62" y="-25.5" font-family="Helvetica,sans-Serif" font-size="10.00">YenaSetup</text>
</a>
</g>
</g>
<!-- Node2 -->
<g id="Node000002" class="node">
<title>Node2</title>
<g id="a_Node000002"><a xlink:href="group___yena-_interfaces_gaadd8f307a7460a88e7c4c254bcbe6719.html#gaadd8f307a7460a88e7c4c254bcbe6719" target="_top" xlink:title=" ">
<polygon fill="white" stroke="#666666" points="171.5,-39 99.25,-39 99.25,-19 171.5,-19 171.5,-39"/>
<text xml:space="preserve" text-anchor="middle" x="135.38" y="-25.5" font-family="Helvetica,sans-Serif" font-size="10.00">YenaCreate9</text>
</a>
</g>
</g>
<!-- Node1&#45;&gt;Node2 -->
<g id="edge1_Node000001_Node000002" class="edge">
<title>Node1&#45;&gt;Node2</title>
<g id="a_edge1_Node000001_Node000002"><a xlink:title=" ">
<path fill="none" stroke="#63b8ff" d="M63.71,-29C71.25,-29 79.49,-29 87.59,-29"/>
<polygon fill="#63b8ff" stroke="#63b8ff" points="87.34,-32.5 97.34,-29 87.34,-25.5 87.34,-32.5"/>
</a>
</g>
</g>
<!-- Node3 -->
<g id="Node000003" class="node">
<title>Node3</title>
<g id="a_Node000003"><a xlink:href="class_b3_yena_adf8a3574135e4d16506bc86ee677c7b7.html#adf8a3574135e4d16506bc86ee677c7b7" target="_top" xlink:title=" ">
<polygon fill="white" stroke="#666666" points="327.75,-39 207.5,-39 207.5,-19 327.75,-19 327.75,-39"/>
<text xml:space="preserve" text-anchor="middle" x="267.62" y="-25.5" font-family="Helvetica,sans-Serif" font-size="10.00">B3Yena::QueryInterface</text>
</a>
</g>
</g>
<!-- Node2&#45;&gt;Node3 -->
<g id="edge2_Node000002_Node000003" class="edge">
<title>Node2&#45;&gt;Node3</title>
<g id="a_edge2_Node000002_Node000003"><a xlink:title=" ">
<path fill="none" stroke="#63b8ff" d="M171.97,-29C179.42,-29 187.54,-29 195.77,-29"/>
<polygon fill="#63b8ff" stroke="#63b8ff" points="195.51,-32.5 205.51,-29 195.51,-25.5 195.51,-32.5"/>
</a>
</g>
</g>
<!-- Node4 -->
<g id="Node000004" class="node">
<title>Node4</title>
<g id="a_Node000004"><a xlink:href="class_b3_yena_af4a43b4057eea79e48143c6da0de48ce.html#af4a43b4057eea79e48143c6da0de48ce" target="_top" xlink:title=" ">
<polygon fill="white" stroke="#666666" points="452.5,-58 363.75,-58 363.75,-38 452.5,-38 452.5,-58"/>
<text xml:space="preserve" text-anchor="middle" x="408.12" y="-44.5" font-family="Helvetica,sans-Serif" font-size="10.00">B3Yena::AddRef</text>
</a>
</g>
</g>
<!-- Node3&#45;&gt;Node4 -->
<g id="edge3_Node000003_Node000004" class="edge">
<title>Node3&#45;&gt;Node4</title>
<g id="a_edge3_Node000003_Node000004"><a xlink:title=" ">
<path fill="none" stroke="#63b8ff" d="M328.17,-37.17C336.15,-38.26 344.3,-39.38 352.2,-40.46"/>
<polygon fill="#63b8ff" stroke="#63b8ff" points="351.65,-43.92 362.03,-41.81 352.6,-36.99 351.65,-43.92"/>
</a>
</g>
</g>
<!-- Node5 -->
<g id="Node000005" class="node">
<title>Node5</title>
<g id="a_Node000005"><a xlink:href="group___yena-_c_o_m_ga9e2aa2b3bba79319041923d1db833f2a.html#ga9e2aa2b3bba79319041923d1db833f2a" target="_top" xlink:title=" ">
<polygon fill="white" stroke="#666666" points="444.62,-20 371.62,-20 371.62,0 444.62,0 444.62,-20"/>
<text xml:space="preserve" text-anchor="middle" x="408.12" y="-6.5" font-family="Helvetica,sans-Serif" font-size="10.00">ynIsEqualIID</text>
</a>
</g>
</g>
<!-- Node3&#45;&gt;Node5 -->
<g id="edge4_Node000003_Node000005" class="edge">
<title>Node3&#45;&gt;Node5</title>
<g id="a_edge4_Node000003_Node000005"><a xlink:title=" ">
<path fill="none" stroke="#63b8ff" d="M328.17,-20.83C338.82,-19.37 349.79,-17.87 360.03,-16.46"/>
<polygon fill="#63b8ff" stroke="#63b8ff" points="360.3,-19.96 369.73,-15.13 359.35,-13.02 360.3,-19.96"/>
</a>
</g>
</g>
</g>
</svg>
