<?xml version="1.0" encoding="UTF-8" standalone="no"?>
<!DOCTYPE svg PUBLIC "-//W3C//DTD SVG 1.1//EN"
 "http://www.w3.org/Graphics/SVG/1.1/DTD/svg11.dtd">
<!-- Generated by graphviz version 13.1.2 (20250808.2320)
 -->
<!-- Title: Src/Device.cpp Pages: 1 -->
<svg width="801pt" height="364pt"
 viewBox="0.00 0.00 801.00 364.00" xmlns="http://www.w3.org/2000/svg" xmlns:xlink="http://www.w3.org/1999/xlink">
<g id="graph0" class="graph" transform="scale(1 1) rotate(0) translate(4 360)">
<title>Src/Device.cpp</title>
<!-- Node1 -->
<g id="Node000001" class="node">
<title>Node1</title>
<g id="a_Node000001"><a xlink:title="예제 렌더링 장치 운용 소스.">
<polygon fill="#999999" stroke="#666666" points="266.68,-356 183.18,-356 183.18,-336 266.68,-336 266.68,-356"/>
<text xml:space="preserve" text-anchor="middle" x="224.93" y="-342.5" font-family="Helvetica,sans-Serif" font-size="10.00">Src/Device.cpp</text>
</a>
</g>
</g>
<!-- Node2 -->
<g id="Node000002" class="node">
<title>Node2</title>
<g id="a_Node000002"><a xlink:title=" ">
<polygon fill="#e0e0e0" stroke="#999999" points="670.18,-20 607.68,-20 607.68,0 670.18,0 670.18,-20"/>
<text xml:space="preserve" text-anchor="middle" x="638.93" y="-6.5" font-family="Helvetica,sans-Serif" font-size="10.00">windows.h</text>
</a>
</g>
</g>
<!-- Node1&#45;&gt;Node2 -->
<g id="edge1_Node000001_Node000002" class="edge">
<title>Node1&#45;&gt;Node2</title>
<g id="a_edge1_Node000001_Node000002"><a xlink:title=" ">
<path fill="none" stroke="#63b8ff" d="M267.15,-345.78C398.79,-347.1 792.93,-342.1 792.93,-235 792.93,-235 792.93,-235 792.93,-121 792.93,-87.76 781.13,-77.67 755.93,-56 734.77,-37.81 705.46,-26.55 681.47,-19.85"/>
<polygon fill="#63b8ff" stroke="#63b8ff" points="682.55,-16.51 671.99,-17.38 680.79,-23.28 682.55,-16.51"/>
</a>
</g>
</g>
<!-- Node3 -->
<g id="Node000003" class="node">
<title>Node3</title>
<g id="a_Node000003"><a xlink:title=" ">
<polygon fill="#e0e0e0" stroke="#999999" points="122.93,-132 76.93,-132 76.93,-112 122.93,-112 122.93,-132"/>
<text xml:space="preserve" text-anchor="middle" x="99.93" y="-118.5" font-family="Helvetica,sans-Serif" font-size="10.00">tchar.h</text>
</a>
</g>
</g>
<!-- Node1&#45;&gt;Node3 -->
<g id="edge2_Node000001_Node000003" class="edge">
<title>Node1&#45;&gt;Node3</title>
<g id="a_edge2_Node000001_Node000003"><a xlink:title=" ">
<path fill="none" stroke="#63b8ff" d="M213.12,-335.65C203.02,-327.19 188.63,-313.94 178.93,-300 142.97,-248.34 117.38,-177.69 106.21,-143.37"/>
<polygon fill="#63b8ff" stroke="#63b8ff" points="109.57,-142.39 103.21,-133.92 102.9,-144.51 109.57,-142.39"/>
</a>
</g>
</g>
<!-- Node4 -->
<g id="Node000004" class="node">
<title>Node4</title>
<g id="a_Node000004"><a xlink:title=" ">
<polygon fill="#e0e0e0" stroke="#999999" points="261.43,-300 188.43,-300 188.43,-280 261.43,-280 261.43,-300"/>
<text xml:space="preserve" text-anchor="middle" x="224.93" y="-286.5" font-family="Helvetica,sans-Serif" font-size="10.00">mmsystem.h</text>
</a>
</g>
</g>
<!-- Node1&#45;&gt;Node4 -->
<g id="edge3_Node000001_Node000004" class="edge">
<title>Node1&#45;&gt;Node4</title>
<g id="a_edge3_Node000001_Node000004"><a xlink:title=" ">
<path fill="none" stroke="#63b8ff" d="M224.93,-335.59C224.93,-329.01 224.93,-319.96 224.93,-311.73"/>
<polygon fill="#63b8ff" stroke="#63b8ff" points="228.43,-311.81 224.93,-301.81 221.43,-311.81 228.43,-311.81"/>
</a>
</g>
</g>
<!-- Node5 -->
<g id="Node000005" class="node">
<title>Node5</title>
<g id="a_Node000005"><a xlink:title=" ">
<polygon fill="#e0e0e0" stroke="#999999" points="58.55,-132 13.3,-132 13.3,-112 58.55,-112 58.55,-132"/>
<text xml:space="preserve" text-anchor="middle" x="35.93" y="-118.5" font-family="Helvetica,sans-Serif" font-size="10.00">stdio.h</text>
</a>
</g>
</g>
<!-- Node1&#45;&gt;Node5 -->
<g id="edge4_Node000001_Node000005" class="edge">
<title>Node1&#45;&gt;Node5</title>
<g id="a_edge4_Node000001_Node000005"><a xlink:title=" ">
<path fill="none" stroke="#63b8ff" d="M208.79,-335.58C195.35,-327.27 176.17,-314.27 161.93,-300 111.18,-249.18 66.22,-176.05 46.51,-141.9"/>
<polygon fill="#63b8ff" stroke="#63b8ff" points="49.76,-140.54 41.77,-133.58 43.68,-144 49.76,-140.54"/>
</a>
</g>
</g>
<!-- Node6 -->
<g id="Node000006" class="node">
<title>Node6</title>
<g id="a_Node000006"><a xlink:href="_device_8h.html" target="_top" xlink:title="예제 렌더링 장치 운용 헤더">
<polygon fill="white" stroke="#666666" points="372.43,-300 317.43,-300 317.43,-280 372.43,-280 372.43,-300"/>
<text xml:space="preserve" text-anchor="middle" x="344.93" y="-286.5" font-family="Helvetica,sans-Serif" font-size="10.00">Device.h</text>
</a>
</g>
</g>
<!-- Node1&#45;&gt;Node6 -->
<g id="edge5_Node000001_Node000006" class="edge">
<title>Node1&#45;&gt;Node6</title>
<g id="a_edge5_Node000001_Node000006"><a xlink:title=" ">
<path fill="none" stroke="#63b8ff" d="M245.83,-335.59C264.55,-327.17 292.28,-314.69 313.65,-305.07"/>
<polygon fill="#63b8ff" stroke="#63b8ff" points="314.8,-308.4 322.48,-301.1 311.92,-302.01 314.8,-308.4"/>
</a>
</g>
</g>
<!-- Node7 -->
<g id="Node000007" class="node">
<title>Node7</title>
<g id="a_Node000007"><a xlink:href="_yena_8h.html" target="_top" xlink:title="\u{2b50} Yena SWR 기본 헤더 파일 (v1.x)">
<polygon fill="white" stroke="#666666" points="399.93,-244 353.93,-244 353.93,-224 399.93,-224 399.93,-244"/>
<text xml:space="preserve" text-anchor="middle" x="376.93" y="-230.5" font-family="Helvetica,sans-Serif" font-size="10.00">Yena.h</text>
</a>
</g>
</g>
<!-- Node6&#45;&gt;Node7 -->
<g id="edge6_Node000006_Node000007" class="edge">
<title>Node6&#45;&gt;Node7</title>
<g id="a_edge6_Node000006_Node000007"><a xlink:title=" ">
<path fill="none" stroke="#63b8ff" d="M350.5,-279.59C354.67,-272.55 360.53,-262.67 365.67,-254"/>
<polygon fill="#63b8ff" stroke="#63b8ff" points="368.56,-255.99 370.64,-245.6 362.53,-252.42 368.56,-255.99"/>
</a>
</g>
</g>
<!-- Node7&#45;&gt;Node2 -->
<g id="edge7_Node000007_Node000002" class="edge">
<title>Node7&#45;&gt;Node2</title>
<g id="a_edge7_Node000007_Node000002"><a xlink:title=" ">
<path fill="none" stroke="#63b8ff" d="M400.41,-231.83C476.66,-227.78 713.64,-213.26 735.93,-188 774.74,-144.01 767.5,-105.45 735.93,-56 723.87,-37.12 701.63,-26.04 681.49,-19.6"/>
<polygon fill="#63b8ff" stroke="#63b8ff" points="682.62,-16.29 672.04,-16.9 680.69,-23.02 682.62,-16.29"/>
</a>
</g>
</g>
<!-- Node7&#45;&gt;Node3 -->
<g id="edge8_Node000007_Node000003" class="edge">
<title>Node7&#45;&gt;Node3</title>
<g id="a_edge8_Node000007_Node000003"><a xlink:title=" ">
<path fill="none" stroke="#63b8ff" d="M353.5,-229.56C318.84,-223.91 252.35,-210.95 199.93,-188 170.53,-175.13 140.07,-154.02 120.62,-139.36"/>
<polygon fill="#63b8ff" stroke="#63b8ff" points="122.77,-136.6 112.71,-133.29 118.51,-142.16 122.77,-136.6"/>
</a>
</g>
</g>
<!-- Node7&#45;&gt;Node5 -->
<g id="edge10_Node000007_Node000005" class="edge">
<title>Node7&#45;&gt;Node5</title>
<g id="a_edge10_Node000007_Node000005"><a xlink:title=" ">
<path fill="none" stroke="#63b8ff" d="M353.63,-230.44C312.96,-225.49 226.75,-212.82 157.93,-188 122.13,-175.09 83.88,-153.24 59.95,-138.48"/>
<polygon fill="#63b8ff" stroke="#63b8ff" points="61.93,-135.59 51.6,-133.24 58.21,-141.52 61.93,-135.59"/>
</a>
</g>
</g>
<!-- Node8 -->
<g id="Node000008" class="node">
<title>Node8</title>
<g id="a_Node000008"><a xlink:title=" ">
<polygon fill="#e0e0e0" stroke="#999999" points="186.93,-132 140.93,-132 140.93,-112 186.93,-112 186.93,-132"/>
<text xml:space="preserve" text-anchor="middle" x="163.93" y="-118.5" font-family="Helvetica,sans-Serif" font-size="10.00">math.h</text>
</a>
</g>
</g>
<!-- Node7&#45;&gt;Node8 -->
<g id="edge9_Node000007_Node000008" class="edge">
<title>Node7&#45;&gt;Node8</title>
<g id="a_edge9_Node000007_Node000008"><a xlink:title=" ">
<path fill="none" stroke="#63b8ff" d="M353.62,-229.42C323.39,-224.02 269.82,-211.77 229.93,-188 209.3,-175.71 190.28,-155.65 178.02,-141.06"/>
<polygon fill="#63b8ff" stroke="#63b8ff" points="180.96,-139.13 171.93,-133.57 175.52,-143.54 180.96,-139.13"/>
</a>
</g>
</g>
<!-- Node9 -->
<g id="Node000009" class="node">
<title>Node9</title>
<g id="a_Node000009"><a xlink:title=" ">
<polygon fill="#e0e0e0" stroke="#999999" points="726.93,-188 686.93,-188 686.93,-168 726.93,-168 726.93,-188"/>
<text xml:space="preserve" text-anchor="middle" x="706.93" y="-174.5" font-family="Helvetica,sans-Serif" font-size="10.00">string</text>
</a>
</g>
</g>
<!-- Node7&#45;&gt;Node9 -->
<g id="edge11_Node000007_Node000009" class="edge">
<title>Node7&#45;&gt;Node9</title>
<g id="a_edge11_Node000007_Node000009"><a xlink:title=" ">
<path fill="none" stroke="#63b8ff" d="M400.1,-230.34C450.2,-224.4 572.16,-208.93 672.93,-188 673.75,-187.83 674.59,-187.65 675.44,-187.46"/>
<polygon fill="#63b8ff" stroke="#63b8ff" points="676.14,-190.89 685.04,-185.14 674.5,-184.09 676.14,-190.89"/>
</a>
</g>
</g>
<!-- Node10 -->
<g id="Node000010" class="node">
<title>Node10</title>
<g id="a_Node000010"><a xlink:title=" ">
<polygon fill="#e0e0e0" stroke="#999999" points="338.43,-132 295.43,-132 295.43,-112 338.43,-112 338.43,-132"/>
<text xml:space="preserve" text-anchor="middle" x="316.93" y="-118.5" font-family="Helvetica,sans-Serif" font-size="10.00">vector</text>
</a>
</g>
</g>
<!-- Node7&#45;&gt;Node10 -->
<g id="edge12_Node000007_Node000010" class="edge">
<title>Node7&#45;&gt;Node10</title>
<g id="a_edge12_Node000007_Node000010"><a xlink:title=" ">
<path fill="none" stroke="#63b8ff" d="M371.81,-223.62C362.02,-205.68 340.47,-166.17 327.48,-142.35"/>
<polygon fill="#63b8ff" stroke="#63b8ff" points="330.61,-140.79 322.75,-133.68 324.47,-144.14 330.61,-140.79"/>
</a>
</g>
</g>
<!-- Node11 -->
<g id="Node000011" class="node">
<title>Node11</title>
<g id="a_Node000011"><a xlink:title=" ">
<polygon fill="#e0e0e0" stroke="#999999" points="411.8,-132 356.05,-132 356.05,-112 411.8,-112 411.8,-132"/>
<text xml:space="preserve" text-anchor="middle" x="383.93" y="-118.5" font-family="Helvetica,sans-Serif" font-size="10.00">algorithm</text>
</a>
</g>
</g>
<!-- Node7&#45;&gt;Node11 -->
<g id="edge13_Node000007_Node000011" class="edge">
<title>Node7&#45;&gt;Node11</title>
<g id="a_edge13_Node000007_Node000011"><a xlink:title=" ">
<path fill="none" stroke="#63b8ff" d="M377.52,-223.62C378.64,-206.01 381.09,-167.59 382.61,-143.65"/>
<polygon fill="#63b8ff" stroke="#63b8ff" points="386.09,-144.07 383.23,-133.87 379.11,-143.62 386.09,-144.07"/>
</a>
</g>
</g>
<!-- Node12 -->
<g id="Node000012" class="node">
<title>Node12</title>
<g id="a_Node000012"><a xlink:href="yn_define_8h.html" target="_top" xlink:title="Yena SW 엔진 기본 정의 문서.">
<polygon fill="white" stroke="#666666" points="238.55,-76 175.3,-76 175.3,-56 238.55,-56 238.55,-76"/>
<text xml:space="preserve" text-anchor="middle" x="206.93" y="-62.5" font-family="Helvetica,sans-Serif" font-size="10.00">ynDefine.h</text>
</a>
</g>
</g>
<!-- Node7&#45;&gt;Node12 -->
<g id="edge14_Node000007_Node000012" class="edge">
<title>Node7&#45;&gt;Node12</title>
<g id="a_edge14_Node000007_Node000012"><a xlink:title=" ">
<path fill="none" stroke="#63b8ff" d="M353.73,-231.63C306.49,-228.29 196.24,-217.73 108.93,-188 58.86,-170.95 31.14,-177.35 3.93,-132 -0.65,-124.38 -1.64,-118.93 3.93,-112 23.55,-87.54 110.05,-75.55 163.61,-70.38"/>
<polygon fill="#63b8ff" stroke="#63b8ff" points="163.68,-73.88 173.32,-69.48 163.04,-66.91 163.68,-73.88"/>
</a>
</g>
</g>
<!-- Node14 -->
<g id="Node000014" class="node">
<title>Node14</title>
<g id="a_Node000014"><a xlink:href="yn_error_8h.html" target="_top" xlink:title="에러, 예외 및 로그 처리 헤더 파일">
<polygon fill="white" stroke="#666666" points="460.8,-188 405.05,-188 405.05,-168 460.8,-168 460.8,-188"/>
<text xml:space="preserve" text-anchor="middle" x="432.93" y="-174.5" font-family="Helvetica,sans-Serif" font-size="10.00">ynError.h</text>
</a>
</g>
</g>
<!-- Node7&#45;&gt;Node14 -->
<g id="edge17_Node000007_Node000014" class="edge">
<title>Node7&#45;&gt;Node14</title>
<g id="a_edge17_Node000007_Node000014"><a xlink:title=" ">
<path fill="none" stroke="#63b8ff" d="M386.68,-223.59C394.55,-216.01 405.82,-205.13 415.27,-196.02"/>
<polygon fill="#63b8ff" stroke="#63b8ff" points="417.42,-198.81 422.19,-189.35 412.57,-193.77 417.42,-198.81"/>
</a>
</g>
</g>
<!-- Node16 -->
<g id="Node000016" class="node">
<title>Node16</title>
<g id="a_Node000016"><a xlink:href="yn_g_u_i_d_8h.html" target="_top" xlink:title="Yena SWR COM / GUID 헤더">
<polygon fill="white" stroke="#666666" points="299.05,-188 238.8,-188 238.8,-168 299.05,-168 299.05,-188"/>
<text xml:space="preserve" text-anchor="middle" x="268.93" y="-174.5" font-family="Helvetica,sans-Serif" font-size="10.00">ynGUID.h</text>
</a>
</g>
</g>
<!-- Node7&#45;&gt;Node16 -->
<g id="edge19_Node000007_Node000016" class="edge">
<title>Node7&#45;&gt;Node16</title>
<g id="a_edge19_Node000007_Node000016"><a xlink:title=" ">
<path fill="none" stroke="#63b8ff" d="M358.11,-223.59C341.57,-215.32 317.21,-203.14 298.13,-193.6"/>
<polygon fill="#63b8ff" stroke="#63b8ff" points="299.75,-190.5 289.24,-189.16 296.62,-196.76 299.75,-190.5"/>
</a>
</g>
</g>
<!-- Node18 -->
<g id="Node000018" class="node">
<title>Node18</title>
<g id="a_Node000018"><a xlink:href="yn_unknownbase_8h.html" target="_top" xlink:title="Yena SWR COM 기반 헤더 (v2.x)">
<polygon fill="white" stroke="#666666" points="726.43,-76 629.43,-76 629.43,-56 726.43,-56 726.43,-76"/>
<text xml:space="preserve" text-anchor="middle" x="677.93" y="-62.5" font-family="Helvetica,sans-Serif" font-size="10.00">ynUnknownbase.h</text>
</a>
</g>
</g>
<!-- Node7&#45;&gt;Node18 -->
<g id="edge27_Node000007_Node000018" class="edge">
<title>Node7&#45;&gt;Node18</title>
<g id="a_edge27_Node000007_Node000018"><a xlink:title=" ">
<path fill="none" stroke="#63b8ff" d="M400.27,-232.14C441.76,-229.78 530.17,-220.96 595.93,-188 629.42,-171.21 638.89,-163.66 658.93,-132 667.59,-118.31 672.43,-100.52 675.06,-87.02"/>
<polygon fill="#63b8ff" stroke="#63b8ff" points="678.44,-87.99 676.64,-77.55 671.54,-86.84 678.44,-87.99"/>
</a>
</g>
</g>
<!-- Node19 -->
<g id="Node000019" class="node">
<title>Node19</title>
<g id="a_Node000019"><a xlink:href="ynx9types_8h.html" target="_top" xlink:title="\u{2b50} Yena SW 엔진 자료형 정의 : DX9 (d3d9types.h) 대응">
<polygon fill="white" stroke="#666666" points="649.55,-132 580.3,-132 580.3,-112 649.55,-112 649.55,-132"/>
<text xml:space="preserve" text-anchor="middle" x="614.93" y="-118.5" font-family="Helvetica,sans-Serif" font-size="10.00">ynx9types.h</text>
</a>
</g>
</g>
<!-- Node7&#45;&gt;Node19 -->
<g id="edge29_Node000007_Node000019" class="edge">
<title>Node7&#45;&gt;Node19</title>
<g id="a_edge29_Node000007_Node000019"><a xlink:title=" ">
<path fill="none" stroke="#63b8ff" d="M400.15,-233.03C439.1,-231.98 518.54,-225.04 571.93,-188 588.23,-176.69 599.96,-157.01 607.01,-142.26"/>
<polygon fill="#63b8ff" stroke="#63b8ff" points="610.02,-144.11 610.87,-133.55 603.62,-141.27 610.02,-144.11"/>
</a>
</g>
</g>
<!-- Node20 -->
<g id="Node000020" class="node">
<title>Node20</title>
<g id="a_Node000020"><a xlink:href="ynx9_8h.html" target="_top" xlink:title="\u{2b50} Yena SWR 인터페이스 헤더 : DX9 (d3d9.h) 대응">
<polygon fill="white" stroke="#666666" points="562.55,-188 517.3,-188 517.3,-168 562.55,-168 562.55,-188"/>
<text xml:space="preserve" text-anchor="middle" x="539.93" y="-174.5" font-family="Helvetica,sans-Serif" font-size="10.00">ynx9.h</text>
</a>
</g>
</g>
<!-- Node7&#45;&gt;Node20 -->
<g id="edge31_Node000007_Node000020" class="edge">
<title>Node7&#45;&gt;Node20</title>
<g id="a_edge31_Node000007_Node000020"><a xlink:title=" ">
<path fill="none" stroke="#63b8ff" d="M400.28,-225.26C428.08,-216.05 474.7,-200.61 506.36,-190.12"/>
<polygon fill="#63b8ff" stroke="#63b8ff" points="507.05,-193.58 515.44,-187.11 504.85,-186.93 507.05,-193.58"/>
</a>
</g>
</g>
<!-- Node21 -->
<g id="Node000021" class="node">
<title>Node21</title>
<g id="a_Node000021"><a xlink:href="yn_math_8h.html" target="_top" xlink:title="\u{2b50} Yena 수학 라이브러리 Yena Math Library for DirectX / OpenGL">
<polygon fill="white" stroke="#666666" points="562.18,-132 505.68,-132 505.68,-112 562.18,-112 562.18,-132"/>
<text xml:space="preserve" text-anchor="middle" x="533.93" y="-118.5" font-family="Helvetica,sans-Serif" font-size="10.00">ynMath.h</text>
</a>
</g>
</g>
<!-- Node7&#45;&gt;Node21 -->
<g id="edge36_Node000007_Node000021" class="edge">
<title>Node7&#45;&gt;Node21</title>
<g id="a_edge36_Node000007_Node000021"><a xlink:title=" ">
<path fill="none" stroke="#63b8ff" d="M400.31,-224.31C419.89,-216.43 448.06,-203.67 469.93,-188 488.75,-174.51 506.95,-155.22 519.1,-141.16"/>
<polygon fill="#63b8ff" stroke="#63b8ff" points="521.74,-143.46 525.5,-133.55 516.39,-138.95 521.74,-143.46"/>
</a>
</g>
</g>
<!-- Node12&#45;&gt;Node2 -->
<g id="edge15_Node000012_Node000002" class="edge">
<title>Node12&#45;&gt;Node2</title>
<g id="a_edge15_Node000012_Node000002"><a xlink:title=" ">
<path fill="none" stroke="#63b8ff" d="M239.04,-58.39C243.69,-57.53 248.42,-56.7 252.93,-56 377.01,-36.66 524.72,-21.65 596.1,-14.9"/>
<polygon fill="#63b8ff" stroke="#63b8ff" points="596.16,-18.41 605.78,-13.99 595.5,-11.44 596.16,-18.41"/>
</a>
</g>
</g>
<!-- Node13 -->
<g id="Node000013" class="node">
<title>Node13</title>
<g id="a_Node000013"><a xlink:title=" ">
<polygon fill="#e0e0e0" stroke="#999999" points="232.55,-20 181.3,-20 181.3,0 232.55,0 232.55,-20"/>
<text xml:space="preserve" text-anchor="middle" x="206.93" y="-6.5" font-family="Helvetica,sans-Serif" font-size="10.00">assert.h</text>
</a>
</g>
</g>
<!-- Node12&#45;&gt;Node13 -->
<g id="edge16_Node000012_Node000013" class="edge">
<title>Node12&#45;&gt;Node13</title>
<g id="a_edge16_Node000012_Node000013"><a xlink:title=" ">
<path fill="none" stroke="#63b8ff" d="M206.93,-55.59C206.93,-49.01 206.93,-39.96 206.93,-31.73"/>
<polygon fill="#63b8ff" stroke="#63b8ff" points="210.43,-31.81 206.93,-21.81 203.43,-31.81 210.43,-31.81"/>
</a>
</g>
</g>
<!-- Node15 -->
<g id="Node000015" class="node">
<title>Node15</title>
<g id="a_Node000015"><a xlink:title=" ">
<polygon fill="#e0e0e0" stroke="#999999" points="487.93,-132 429.93,-132 429.93,-112 487.93,-112 487.93,-132"/>
<text xml:space="preserve" text-anchor="middle" x="458.93" y="-118.5" font-family="Helvetica,sans-Serif" font-size="10.00">exception</text>
</a>
</g>
</g>
<!-- Node14&#45;&gt;Node15 -->
<g id="edge18_Node000014_Node000015" class="edge">
<title>Node14&#45;&gt;Node15</title>
<g id="a_edge18_Node000014_Node000015"><a xlink:title=" ">
<path fill="none" stroke="#63b8ff" d="M437.45,-167.59C440.77,-160.7 445.39,-151.1 449.5,-142.57"/>
<polygon fill="#63b8ff" stroke="#63b8ff" points="452.61,-144.19 453.79,-133.66 446.3,-141.15 452.61,-144.19"/>
</a>
</g>
</g>
<!-- Node16&#45;&gt;Node2 -->
<g id="edge20_Node000016_Node000002" class="edge">
<title>Node16&#45;&gt;Node2</title>
<g id="a_edge20_Node000016_Node000002"><a xlink:title=" ">
<path fill="none" stroke="#63b8ff" d="M268.81,-167.64C269.16,-153.61 271.93,-127.14 286.93,-112 371.34,-26.8 522.5,-12.32 596.19,-10.6"/>
<polygon fill="#63b8ff" stroke="#63b8ff" points="595.87,-14.11 605.82,-10.45 595.76,-7.11 595.87,-14.11"/>
</a>
</g>
</g>
<!-- Node16&#45;&gt;Node3 -->
<g id="edge21_Node000016_Node000003" class="edge">
<title>Node16&#45;&gt;Node3</title>
<g id="a_edge21_Node000016_Node000003"><a xlink:title=" ">
<path fill="none" stroke="#63b8ff" d="M239.49,-167.59C210.09,-158.2 164.95,-143.78 134.02,-133.89"/>
<polygon fill="#63b8ff" stroke="#63b8ff" points="135.35,-130.65 124.76,-130.94 133.22,-137.31 135.35,-130.65"/>
</a>
</g>
</g>
<!-- Node16&#45;&gt;Node5 -->
<g id="edge23_Node000016_Node000005" class="edge">
<title>Node16&#45;&gt;Node5</title>
<g id="a_edge23_Node000016_Node000005"><a xlink:title=" ">
<path fill="none" stroke="#63b8ff" d="M238.5,-170.72C201.1,-162.89 135.48,-148.77 69.9,-132.39"/>
<polygon fill="#63b8ff" stroke="#63b8ff" points="70.98,-129.05 60.43,-130.01 69.27,-135.84 70.98,-129.05"/>
</a>
</g>
</g>
<!-- Node16&#45;&gt;Node8 -->
<g id="edge22_Node000016_Node000008" class="edge">
<title>Node16&#45;&gt;Node8</title>
<g id="a_edge22_Node000016_Node000008"><a xlink:title=" ">
<path fill="none" stroke="#63b8ff" d="M250.64,-167.59C234.62,-159.36 211.09,-147.26 192.58,-137.74"/>
<polygon fill="#63b8ff" stroke="#63b8ff" points="194.2,-134.63 183.7,-133.17 191,-140.86 194.2,-134.63"/>
</a>
</g>
</g>
<!-- Node16&#45;&gt;Node10 -->
<g id="edge24_Node000016_Node000010" class="edge">
<title>Node16&#45;&gt;Node10</title>
<g id="a_edge24_Node000016_Node000010"><a xlink:title=" ">
<path fill="none" stroke="#63b8ff" d="M277.29,-167.59C283.82,-160.24 293.11,-149.8 301.05,-140.87"/>
<polygon fill="#63b8ff" stroke="#63b8ff" points="303.63,-143.23 307.65,-133.43 298.39,-138.58 303.63,-143.23"/>
</a>
</g>
</g>
<!-- Node16&#45;&gt;Node11 -->
<g id="edge26_Node000016_Node000011" class="edge">
<title>Node16&#45;&gt;Node11</title>
<g id="a_edge26_Node000016_Node000011"><a xlink:title=" ">
<path fill="none" stroke="#63b8ff" d="M288.96,-167.59C306.74,-159.24 332.99,-146.92 353.39,-137.34"/>
<polygon fill="#63b8ff" stroke="#63b8ff" points="354.8,-140.54 362.37,-133.12 351.83,-134.21 354.8,-140.54"/>
</a>
</g>
</g>
<!-- Node17 -->
<g id="Node000017" class="node">
<title>Node17</title>
<g id="a_Node000017"><a xlink:title=" ">
<polygon fill="#e0e0e0" stroke="#999999" points="239.3,-132 204.55,-132 204.55,-112 239.3,-112 239.3,-132"/>
<text xml:space="preserve" text-anchor="middle" x="221.93" y="-118.5" font-family="Helvetica,sans-Serif" font-size="10.00">map</text>
</a>
</g>
</g>
<!-- Node16&#45;&gt;Node17 -->
<g id="edge25_Node000016_Node000017" class="edge">
<title>Node16&#45;&gt;Node17</title>
<g id="a_edge25_Node000016_Node000017"><a xlink:title=" ">
<path fill="none" stroke="#63b8ff" d="M260.74,-167.59C254.34,-160.24 245.25,-149.8 237.47,-140.87"/>
<polygon fill="#63b8ff" stroke="#63b8ff" points="240.22,-138.69 231.01,-133.44 234.94,-143.28 240.22,-138.69"/>
</a>
</g>
</g>
<!-- Node18&#45;&gt;Node2 -->
<g id="edge28_Node000018_Node000002" class="edge">
<title>Node18&#45;&gt;Node2</title>
<g id="a_edge28_Node000018_Node000002"><a xlink:title=" ">
<path fill="none" stroke="#63b8ff" d="M671.13,-55.59C665.93,-48.39 658.59,-38.23 652.24,-29.43"/>
<polygon fill="#63b8ff" stroke="#63b8ff" points="655.22,-27.58 646.53,-21.53 649.54,-31.68 655.22,-27.58"/>
</a>
</g>
</g>
<!-- Node19&#45;&gt;Node2 -->
<g id="edge30_Node000019_Node000002" class="edge">
<title>Node19&#45;&gt;Node2</title>
<g id="a_edge30_Node000019_Node000002"><a xlink:title=" ">
<path fill="none" stroke="#63b8ff" d="M614.95,-111.61C615.17,-98.84 616.26,-75.39 620.93,-56 622.97,-47.53 626.3,-38.54 629.55,-30.85"/>
<polygon fill="#63b8ff" stroke="#63b8ff" points="632.72,-32.33 633.62,-21.77 626.33,-29.47 632.72,-32.33"/>
</a>
</g>
</g>
<!-- Node20&#45;&gt;Node19 -->
<g id="edge32_Node000020_Node000019" class="edge">
<title>Node20&#45;&gt;Node19</title>
<g id="a_edge32_Node000020_Node000019"><a xlink:title=" ">
<path fill="none" stroke="#63b8ff" d="M552.99,-167.59C563.89,-159.74 579.68,-148.38 592.58,-139.09"/>
<polygon fill="#63b8ff" stroke="#63b8ff" points="594.46,-142.05 600.53,-133.36 590.37,-136.37 594.46,-142.05"/>
</a>
</g>
</g>
<!-- Node20&#45;&gt;Node21 -->
<g id="edge33_Node000020_Node000021" class="edge">
<title>Node20&#45;&gt;Node21</title>
<g id="a_edge33_Node000020_Node000021"><a xlink:title=" ">
<path fill="none" stroke="#63b8ff" d="M538.88,-167.59C538.15,-161.01 537.14,-151.96 536.23,-143.73"/>
<polygon fill="#63b8ff" stroke="#63b8ff" points="539.71,-143.35 535.13,-133.8 532.75,-144.13 539.71,-143.35"/>
</a>
</g>
</g>
<!-- Node21&#45;&gt;Node12 -->
<g id="edge34_Node000021_Node000012" class="edge">
<title>Node21&#45;&gt;Node12</title>
<g id="a_edge34_Node000021_Node000012"><a xlink:title=" ">
<path fill="none" stroke="#63b8ff" d="M505.3,-113.78C502.47,-113.15 499.65,-112.54 496.93,-112 409.92,-94.7 307.11,-80.12 250.25,-72.56"/>
<polygon fill="#63b8ff" stroke="#63b8ff" points="250.71,-69.09 240.34,-71.25 249.79,-76.03 250.71,-69.09"/>
</a>
</g>
</g>
<!-- Node22 -->
<g id="Node000022" class="node">
<title>Node22</title>
<g id="a_Node000022"><a xlink:title=" ">
<polygon fill="#e0e0e0" stroke="#999999" points="572.43,-76 493.43,-76 493.43,-56 572.43,-56 572.43,-76"/>
<text xml:space="preserve" text-anchor="middle" x="532.93" y="-62.5" font-family="Helvetica,sans-Serif" font-size="10.00">DirectXmath.h</text>
</a>
</g>
</g>
<!-- Node21&#45;&gt;Node22 -->
<g id="edge35_Node000021_Node000022" class="edge">
<title>Node21&#45;&gt;Node22</title>
<g id="a_edge35_Node000021_Node000022"><a xlink:title=" ">
<path fill="none" stroke="#63b8ff" d="M533.75,-111.59C533.63,-105.01 533.46,-95.96 533.31,-87.73"/>
<polygon fill="#63b8ff" stroke="#63b8ff" points="536.81,-87.75 533.13,-77.81 529.81,-87.87 536.81,-87.75"/>
</a>
</g>
</g>
</g>
</svg>
