<?xml version="1.0" encoding="UTF-8" standalone="no"?>
<!DOCTYPE svg PUBLIC "-//W3C//DTD SVG 1.1//EN"
 "http://www.w3.org/Graphics/SVG/1.1/DTD/svg11.dtd">
<!-- Generated by graphviz version 13.1.2 (20250808.2320)
 -->
<!-- Title: SceneRender Pages: 1 -->
<svg width="295pt" height="142pt"
 viewBox="0.00 0.00 295.00 142.00" xmlns="http://www.w3.org/2000/svg" xmlns:xlink="http://www.w3.org/1999/xlink">
<g id="graph0" class="graph" transform="scale(1 1) rotate(0) translate(4 138)">
<title>SceneRender</title>
<!-- Node1 -->
<g id="Node000001" class="node">
<title>Node1</title>
<g id="a_Node000001"><a xlink:title="장면 그리기">
<polygon fill="#999999" stroke="#666666" points="75.25,-77 0,-77 0,-57 75.25,-57 75.25,-77"/>
<text xml:space="preserve" text-anchor="middle" x="37.62" y="-63.5" font-family="Helvetica,sans-Serif" font-size="10.00">SceneRender</text>
</a>
</g>
</g>
<!-- Node2 -->
<g id="Node000002" class="node">
<title>Node2</title>
<g id="a_Node000002"><a xlink:href="_render_8cpp_adfe3d7c4f90c898edb95bb1c90d45388.html#adfe3d7c4f90c898edb95bb1c90d45388" target="_top" xlink:title="오브젝트 그리기">
<polygon fill="white" stroke="#666666" points="179,-134 124.75,-134 124.75,-114 179,-114 179,-134"/>
<text xml:space="preserve" text-anchor="middle" x="151.88" y="-120.5" font-family="Helvetica,sans-Serif" font-size="10.00">ObjDraw</text>
</a>
</g>
</g>
<!-- Node1&#45;&gt;Node2 -->
<g id="edge1_Node000001_Node000002" class="edge">
<title>Node1&#45;&gt;Node2</title>
<g id="a_edge1_Node000001_Node000002"><a xlink:title=" ">
<path fill="none" stroke="#63b8ff" d="M57.95,-77.35C72.53,-85.09 93.06,-95.88 111.25,-105 113.67,-106.21 116.17,-107.45 118.7,-108.69"/>
<polygon fill="#63b8ff" stroke="#63b8ff" points="117.12,-111.81 127.65,-113.02 120.17,-105.51 117.12,-111.81"/>
</a>
</g>
</g>
<!-- Node3 -->
<g id="Node000003" class="node">
<title>Node3</title>
<g id="a_Node000003"><a xlink:href="_device_8cpp_a8b5e6c31a2a6e19c38a0df9083df6f15.html#a8b5e6c31a2a6e19c38a0df9083df6f15" target="_top" xlink:title=" ">
<polygon fill="white" stroke="#666666" points="177.12,-96 126.62,-96 126.62,-76 177.12,-76 177.12,-96"/>
<text xml:space="preserve" text-anchor="middle" x="151.88" y="-82.5" font-family="Helvetica,sans-Serif" font-size="10.00">PutFPS</text>
</a>
</g>
</g>
<!-- Node1&#45;&gt;Node3 -->
<g id="edge2_Node000001_Node000003" class="edge">
<title>Node1&#45;&gt;Node3</title>
<g id="a_edge2_Node000001_Node000003"><a xlink:title=" ">
<path fill="none" stroke="#63b8ff" d="M75.69,-73.27C88.4,-75.43 102.6,-77.83 115.19,-79.96"/>
<polygon fill="#63b8ff" stroke="#63b8ff" points="114.29,-83.36 124.74,-81.58 115.46,-76.46 114.29,-83.36"/>
</a>
</g>
</g>
<!-- Node5 -->
<g id="Node000005" class="node">
<title>Node5</title>
<g id="a_Node000005"><a xlink:href="_render_8cpp_af4dd0814523522c2ef17aa2ec8079afc.html#af4dd0814523522c2ef17aa2ec8079afc" target="_top" xlink:title="도움말 출력">
<polygon fill="white" stroke="#666666" points="180.5,-58 123.25,-58 123.25,-38 180.5,-38 180.5,-58"/>
<text xml:space="preserve" text-anchor="middle" x="151.88" y="-44.5" font-family="Helvetica,sans-Serif" font-size="10.00">ShowInfo</text>
</a>
</g>
</g>
<!-- Node1&#45;&gt;Node5 -->
<g id="edge5_Node000001_Node000005" class="edge">
<title>Node1&#45;&gt;Node5</title>
<g id="a_edge5_Node000001_Node000005"><a xlink:title=" ">
<path fill="none" stroke="#63b8ff" d="M75.69,-60.73C87.28,-58.76 100.1,-56.59 111.82,-54.61"/>
<polygon fill="#63b8ff" stroke="#63b8ff" points="112.33,-58.07 121.6,-52.95 111.16,-51.17 112.33,-58.07"/>
</a>
</g>
</g>
<!-- Node6 -->
<g id="Node000006" class="node">
<title>Node6</title>
<g id="a_Node000006"><a xlink:href="_render_8cpp_ac207065b1fb62c07f89a12f7b4192a20.html#ac207065b1fb62c07f89a12f7b4192a20" target="_top" xlink:title="엔진 및 시스템 상태 갱신.">
<polygon fill="white" stroke="#666666" points="192.5,-20 111.25,-20 111.25,0 192.5,0 192.5,-20"/>
<text xml:space="preserve" text-anchor="middle" x="151.88" y="-6.5" font-family="Helvetica,sans-Serif" font-size="10.00">SystemUpdate</text>
</a>
</g>
</g>
<!-- Node1&#45;&gt;Node6 -->
<g id="edge7_Node000001_Node000006" class="edge">
<title>Node1&#45;&gt;Node6</title>
<g id="a_edge7_Node000001_Node000006"><a xlink:title=" ">
<path fill="none" stroke="#63b8ff" d="M57.95,-56.65C72.53,-48.91 93.06,-38.12 111.25,-29 113.67,-27.79 116.17,-26.55 118.7,-25.31"/>
<polygon fill="#63b8ff" stroke="#63b8ff" points="120.17,-28.49 127.65,-20.98 117.12,-22.19 120.17,-28.49"/>
</a>
</g>
</g>
<!-- Node4 -->
<g id="Node000004" class="node">
<title>Node4</title>
<g id="a_Node000004"><a xlink:href="_device_8cpp_a2034272a68b183b7651f0195b1d55182.html#a2034272a68b183b7651f0195b1d55182" target="_top" xlink:title=" ">
<polygon fill="white" stroke="#666666" points="286.5,-77 228.5,-77 228.5,-57 286.5,-57 286.5,-77"/>
<text xml:space="preserve" text-anchor="middle" x="257.5" y="-63.5" font-family="Helvetica,sans-Serif" font-size="10.00">DrawText</text>
</a>
</g>
</g>
<!-- Node3&#45;&gt;Node4 -->
<g id="edge3_Node000003_Node000004" class="edge">
<title>Node3&#45;&gt;Node4</title>
<g id="a_edge3_Node000003_Node000004"><a xlink:title=" ">
<path fill="none" stroke="#63b8ff" d="M177.43,-81.5C189.19,-79.34 203.57,-76.71 216.82,-74.28"/>
<polygon fill="#63b8ff" stroke="#63b8ff" points="217.39,-77.73 226.59,-72.48 216.13,-70.84 217.39,-77.73"/>
</a>
</g>
</g>
<!-- Node4&#45;&gt;Node4 -->
<g id="edge4_Node000004_Node000004" class="edge">
<title>Node4&#45;&gt;Node4</title>
<g id="a_edge4_Node000004_Node000004"><a xlink:title=" ">
<path fill="none" stroke="#63b8ff" d="M240.72,-77.34C233.55,-85.98 239.14,-95 257.5,-95 267.54,-95 273.76,-92.3 276.17,-88.44"/>
<polygon fill="#63b8ff" stroke="#63b8ff" points="279.66,-88.1 274.54,-78.83 272.76,-89.28 279.66,-88.1"/>
</a>
</g>
</g>
<!-- Node5&#45;&gt;Node4 -->
<g id="edge6_Node000005_Node000004" class="edge">
<title>Node5&#45;&gt;Node4</title>
<g id="a_edge6_Node000005_Node000004"><a xlink:title=" ">
<path fill="none" stroke="#63b8ff" d="M180.92,-53.14C192,-55.17 204.94,-57.55 216.94,-59.75"/>
<polygon fill="#63b8ff" stroke="#63b8ff" points="216.12,-63.15 226.59,-61.52 217.38,-56.27 216.12,-63.15"/>
</a>
</g>
</g>
</g>
</svg>
