<?xml version="1.0" encoding="UTF-8" standalone="no"?>
<!DOCTYPE svg PUBLIC "-//W3C//DTD SVG 1.1//EN"
 "http://www.w3.org/Graphics/SVG/1.1/DTD/svg11.dtd">
<!-- Generated by graphviz version 13.1.2 (20250808.2320)
 -->
<!-- Title: Src/Render.cpp Pages: 1 -->
<!--zoomable 364 -->

<svg id="main" version="1.1" xmlns="http://www.w3.org/2000/svg" xmlns:xlink="http://www.w3.org/1999/xlink" xml:space="preserve" onload="init(evt)">

<style type="text/css"><![CDATA[
.node, .edge {opacity: 0.7;}
.node.selected, .edge.selected {opacity: 1;}
.edge:hover path { stroke: red; }
.edge:hover polygon { stroke: red; fill: red; }
]]></style>

<defs>
  <circle id="rim" cx="0" cy="0" r="7"/>
  <circle id="rim2" cx="0" cy="0" r="3.5"/>
  <g id="zoomPlus">
    <use xlink:href="#rim" fill="#404040"><set attributeName="fill" to="#808080" begin="zoomplus.mouseover" end="zoomplus.mouseout"/></use>
    <path d="M-4,0h8M0,-4v8" fill="none" stroke="white" stroke-width="1.5" pointer-events="none"/>
  </g>
  <g id="zoomMin">
    <use xlink:href="#rim" fill="#404040"><set attributeName="fill" to="#808080" begin="zoomminus.mouseover" end="zoomminus.mouseout"/></use>
    <path d="M-4,0h8" fill="none" stroke="white" stroke-width="1.5" pointer-events="none"/>
  </g>
  <g id="arrowUp" transform="translate(30 24)">
    <use xlink:href="#rim"/>
    <path pointer-events="none" fill="none" stroke="white" stroke-width="1.5" d="M0,-3.0v7 M-2.5,-0.5L0,-3.0L2.5,-0.5"/>
  </g>
  <g id="arrowRight" transform="rotate(90) translate(36 -43)">
    <use xlink:href="#rim"/>
    <path pointer-events="none" fill="none" stroke="white" stroke-width="1.5" d="M0,-3.0v7 M-2.5,-0.5L0,-3.0L2.5,-0.5"/>
  </g>
  <g id="arrowDown" transform="rotate(180) translate(-30 -48)">
    <use xlink:href="#rim"/>
    <path pointer-events="none" fill="none" stroke="white" stroke-width="1.5" d="M0,-3.0v7 M-2.5,-0.5L0,-3.0L2.5,-0.5"/>
  </g>
  <g id="arrowLeft" transform="rotate(270) translate(-36 17)">
    <use xlink:href="#rim"/>
    <path pointer-events="none" fill="none" stroke="white" stroke-width="1.5" d="M0,-3.0v7 M-2.5,-0.5L0,-3.0L2.5,-0.5"/>
  </g>
  <g id="resetDef">
    <use xlink:href="#rim2" fill="#404040"><set attributeName="fill" to="#808080" begin="reset.mouseover" end="reset.mouseout"/></use>
  </g>
</defs>
<script type="application/ecmascript">
var viewWidth = 859;
var viewHeight = 364;
var sectionId = 'dynsection-0';
</script>
<script type="application/ecmascript" xlink:href="svg.min.js"/>
<svg id="graph" class="graph">
<g id="viewport">
<title>Src/Render.cpp</title>
<!-- Node1 -->
<g id="Node000001" class="node">
<title>Node1</title>
<g id="a_Node000001"><a xlink:title="예제 기본 렌더링/프레임웍 소스">
<polygon fill="#999999" stroke="#666666" points="512.5,-356 428.25,-356 428.25,-336 512.5,-336 512.5,-356"/>
<text xml:space="preserve" text-anchor="middle" x="470.38" y="-342.5" font-family="Helvetica,sans-Serif" font-size="10.00">Src/Render.cpp</text>
</a>
</g>
</g>
<!-- Node2 -->
<g id="Node000002" class="node">
<title>Node2</title>
<g id="a_Node000002"><a xlink:title=" ">
<polygon fill="#e0e0e0" stroke="#999999" points="64.75,-300 0,-300 0,-280 64.75,-280 64.75,-300"/>
<text xml:space="preserve" text-anchor="middle" x="32.38" y="-286.5" font-family="Helvetica,sans-Serif" font-size="10.00">Windows.h</text>
</a>
</g>
</g>
<!-- Node1&#45;&gt;Node2 -->
<g id="edge1_Node000001_Node000002" class="edge">
<title>Node1&#45;&gt;Node2</title>
<g id="a_edge1_Node000001_Node000002"><a xlink:title=" ">
<path fill="none" stroke="#63b8ff" d="M427.88,-341.23C355.78,-334.59 204.96,-319.62 78.38,-300 77.7,-299.89 77.01,-299.79 76.32,-299.68"/>
<polygon fill="#63b8ff" stroke="#63b8ff" points="76.93,-296.23 66.48,-297.97 75.73,-303.13 76.93,-296.23"/>
</a>
</g>
</g>
<!-- Node3 -->
<g id="Node000003" class="node">
<title>Node3</title>
<g id="a_Node000003"><a xlink:title=" ">
<polygon fill="#e0e0e0" stroke="#999999" points="546.38,-132 500.38,-132 500.38,-112 546.38,-112 546.38,-132"/>
<text xml:space="preserve" text-anchor="middle" x="523.38" y="-118.5" font-family="Helvetica,sans-Serif" font-size="10.00">tchar.h</text>
</a>
</g>
</g>
<!-- Node1&#45;&gt;Node3 -->
<g id="edge2_Node000001_Node000003" class="edge">
<title>Node1&#45;&gt;Node3</title>
<g id="a_edge2_Node000001_Node000003"><a xlink:title=" ">
<path fill="none" stroke="#63b8ff" d="M480.84,-335.8C489.59,-327.42 501.54,-314.22 507.38,-300 529.17,-246.84 527.73,-177.37 525.32,-143.44"/>
<polygon fill="#63b8ff" stroke="#63b8ff" points="528.83,-143.47 524.52,-133.79 521.85,-144.05 528.83,-143.47"/>
</a>
</g>
</g>
<!-- Node4 -->
<g id="Node000004" class="node">
<title>Node4</title>
<g id="a_Node000004"><a xlink:title=" ">
<polygon fill="#e0e0e0" stroke="#999999" points="192,-132 146.75,-132 146.75,-112 192,-112 192,-132"/>
<text xml:space="preserve" text-anchor="middle" x="169.38" y="-118.5" font-family="Helvetica,sans-Serif" font-size="10.00">stdio.h</text>
</a>
</g>
</g>
<!-- Node1&#45;&gt;Node4 -->
<g id="edge3_Node000001_Node000004" class="edge">
<title>Node1&#45;&gt;Node4</title>
<g id="a_edge3_Node000001_Node000004"><a xlink:title=" ">
<path fill="none" stroke="#63b8ff" d="M446.81,-335.59C397.58,-315.01 282.26,-261.85 208.38,-188 195.29,-174.92 184.81,-156.59 178.02,-142.74"/>
<polygon fill="#63b8ff" stroke="#63b8ff" points="181.23,-141.33 173.85,-133.73 174.88,-144.28 181.23,-141.33"/>
</a>
</g>
</g>
<!-- Node5 -->
<g id="Node000005" class="node">
<title>Node5</title>
<g id="a_Node000005"><a xlink:href="_device_8h.html" target="_top" xlink:title="예제 렌더링 장치 운용 헤더">
<polygon fill="white" stroke="#666666" points="497.88,-300 442.88,-300 442.88,-280 497.88,-280 497.88,-300"/>
<text xml:space="preserve" text-anchor="middle" x="470.38" y="-286.5" font-family="Helvetica,sans-Serif" font-size="10.00">Device.h</text>
</a>
</g>
</g>
<!-- Node1&#45;&gt;Node5 -->
<g id="edge4_Node000001_Node000005" class="edge">
<title>Node1&#45;&gt;Node5</title>
<g id="a_edge4_Node000001_Node000005"><a xlink:title=" ">
<path fill="none" stroke="#63b8ff" d="M470.38,-335.59C470.38,-329.01 470.38,-319.96 470.38,-311.73"/>
<polygon fill="#63b8ff" stroke="#63b8ff" points="473.88,-311.81 470.38,-301.81 466.88,-311.81 473.88,-311.81"/>
</a>
</g>
</g>
<!-- Node23 -->
<g id="Node000023" class="node">
<title>Node23</title>
<g id="a_Node000023"><a xlink:href="_render_8h.html" target="_top" xlink:title="예제 기본 렌더링/프레임웍 헤더">
<polygon fill="white" stroke="#666666" points="649.25,-300 593.5,-300 593.5,-280 649.25,-280 649.25,-300"/>
<text xml:space="preserve" text-anchor="middle" x="621.38" y="-286.5" font-family="Helvetica,sans-Serif" font-size="10.00">Render.h</text>
</a>
</g>
</g>
<!-- Node1&#45;&gt;Node23 -->
<g id="edge36_Node000001_Node000023" class="edge">
<title>Node1&#45;&gt;Node23</title>
<g id="a_edge36_Node000001_Node000023"><a xlink:title=" ">
<path fill="none" stroke="#63b8ff" d="M496.68,-335.59C520.89,-326.94 557.05,-314 584.21,-304.29"/>
<polygon fill="#63b8ff" stroke="#63b8ff" points="585.2,-307.65 593.44,-300.99 582.85,-301.06 585.2,-307.65"/>
</a>
</g>
</g>
<!-- Node6 -->
<g id="Node000006" class="node">
<title>Node6</title>
<g id="a_Node000006"><a xlink:href="_yena_8h.html" target="_top" xlink:title="\u{2b50} Yena SWR 기본 헤더 파일 (v1.x)">
<polygon fill="white" stroke="#666666" points="493.38,-244 447.38,-244 447.38,-224 493.38,-224 493.38,-244"/>
<text xml:space="preserve" text-anchor="middle" x="470.38" y="-230.5" font-family="Helvetica,sans-Serif" font-size="10.00">Yena.h</text>
</a>
</g>
</g>
<!-- Node5&#45;&gt;Node6 -->
<g id="edge5_Node000005_Node000006" class="edge">
<title>Node5&#45;&gt;Node6</title>
<g id="a_edge5_Node000005_Node000006"><a xlink:title=" ">
<path fill="none" stroke="#63b8ff" d="M470.38,-279.59C470.38,-273.01 470.38,-263.96 470.38,-255.73"/>
<polygon fill="#63b8ff" stroke="#63b8ff" points="473.88,-255.81 470.38,-245.81 466.88,-255.81 473.88,-255.81"/>
</a>
</g>
</g>
<!-- Node6&#45;&gt;Node3 -->
<g id="edge7_Node000006_Node000003" class="edge">
<title>Node6&#45;&gt;Node3</title>
<g id="a_edge7_Node000006_Node000003"><a xlink:title=" ">
<path fill="none" stroke="#63b8ff" d="M474.89,-223.62C483.5,-205.76 502.4,-166.53 513.9,-142.67"/>
<polygon fill="#63b8ff" stroke="#63b8ff" points="517.02,-144.25 518.21,-133.72 510.72,-141.21 517.02,-144.25"/>
</a>
</g>
</g>
<!-- Node6&#45;&gt;Node4 -->
<g id="edge9_Node000006_Node000004" class="edge">
<title>Node6&#45;&gt;Node4</title>
<g id="a_edge9_Node000006_Node000004"><a xlink:title=" ">
<path fill="none" stroke="#63b8ff" d="M447.18,-232.55C404.13,-230.87 309.94,-223.1 240.38,-188 217.64,-176.53 196.82,-155.69 183.68,-140.69"/>
<polygon fill="#63b8ff" stroke="#63b8ff" points="186.65,-138.78 177.53,-133.4 181.3,-143.3 186.65,-138.78"/>
</a>
</g>
</g>
<!-- Node7 -->
<g id="Node000007" class="node">
<title>Node7</title>
<g id="a_Node000007"><a xlink:title=" ">
<polygon fill="#e0e0e0" stroke="#999999" points="630.62,-20 568.12,-20 568.12,0 630.62,0 630.62,-20"/>
<text xml:space="preserve" text-anchor="middle" x="599.38" y="-6.5" font-family="Helvetica,sans-Serif" font-size="10.00">windows.h</text>
</a>
</g>
</g>
<!-- Node6&#45;&gt;Node7 -->
<g id="edge6_Node000006_Node000007" class="edge">
<title>Node6&#45;&gt;Node7</title>
<g id="a_edge6_Node000006_Node000007"><a xlink:title=" ">
<path fill="none" stroke="#63b8ff" d="M493.67,-227.44C532.91,-216.67 611.07,-188.85 643.38,-132 662.87,-97.69 634.55,-53.15 615.09,-28.81"/>
<polygon fill="#63b8ff" stroke="#63b8ff" points="618.01,-26.85 608.91,-21.42 612.64,-31.34 618.01,-26.85"/>
</a>
</g>
</g>
<!-- Node8 -->
<g id="Node000008" class="node">
<title>Node8</title>
<g id="a_Node000008"><a xlink:title=" ">
<polygon fill="#e0e0e0" stroke="#999999" points="256.38,-132 210.38,-132 210.38,-112 256.38,-112 256.38,-132"/>
<text xml:space="preserve" text-anchor="middle" x="233.38" y="-118.5" font-family="Helvetica,sans-Serif" font-size="10.00">math.h</text>
</a>
</g>
</g>
<!-- Node6&#45;&gt;Node8 -->
<g id="edge8_Node000006_Node000008" class="edge">
<title>Node6&#45;&gt;Node8</title>
<g id="a_edge8_Node000006_Node000008"><a xlink:title=" ">
<path fill="none" stroke="#63b8ff" d="M447.02,-230.84C398.03,-225.88 286.71,-212.18 258.38,-188 245.29,-176.83 239.02,-157.99 236.04,-143.46"/>
<polygon fill="#63b8ff" stroke="#63b8ff" points="239.5,-142.9 234.42,-133.6 232.59,-144.03 239.5,-142.9"/>
</a>
</g>
</g>
<!-- Node9 -->
<g id="Node000009" class="node">
<title>Node9</title>
<g id="a_Node000009"><a xlink:title=" ">
<polygon fill="#e0e0e0" stroke="#999999" points="307.38,-188 267.38,-188 267.38,-168 307.38,-168 307.38,-188"/>
<text xml:space="preserve" text-anchor="middle" x="287.38" y="-174.5" font-family="Helvetica,sans-Serif" font-size="10.00">string</text>
</a>
</g>
</g>
<!-- Node6&#45;&gt;Node9 -->
<g id="edge10_Node000006_Node000009" class="edge">
<title>Node6&#45;&gt;Node9</title>
<g id="a_edge10_Node000006_Node000009"><a xlink:title=" ">
<path fill="none" stroke="#63b8ff" d="M447.2,-226.16C414.65,-216.56 355.32,-199.05 318.82,-188.28"/>
<polygon fill="#63b8ff" stroke="#63b8ff" points="319.87,-184.94 309.29,-185.47 317.89,-191.65 319.87,-184.94"/>
</a>
</g>
</g>
<!-- Node10 -->
<g id="Node000010" class="node">
<title>Node10</title>
<g id="a_Node000010"><a xlink:title=" ">
<polygon fill="#e0e0e0" stroke="#999999" points="317.88,-132 274.88,-132 274.88,-112 317.88,-112 317.88,-132"/>
<text xml:space="preserve" text-anchor="middle" x="296.38" y="-118.5" font-family="Helvetica,sans-Serif" font-size="10.00">vector</text>
</a>
</g>
</g>
<!-- Node6&#45;&gt;Node10 -->
<g id="edge11_Node000006_Node000010" class="edge">
<title>Node6&#45;&gt;Node10</title>
<g id="a_edge11_Node000006_Node000010"><a xlink:title=" ">
<path fill="none" stroke="#63b8ff" d="M447.03,-227.44C422.43,-220.82 383.31,-208.06 354.38,-188 335.99,-175.26 319.5,-155.55 308.84,-141.17"/>
<polygon fill="#63b8ff" stroke="#63b8ff" points="311.98,-139.55 303.32,-133.45 306.29,-143.62 311.98,-139.55"/>
</a>
</g>
</g>
<!-- Node11 -->
<g id="Node000011" class="node">
<title>Node11</title>
<g id="a_Node000011"><a xlink:title=" ">
<polygon fill="#e0e0e0" stroke="#999999" points="482.25,-132 426.5,-132 426.5,-112 482.25,-112 482.25,-132"/>
<text xml:space="preserve" text-anchor="middle" x="454.38" y="-118.5" font-family="Helvetica,sans-Serif" font-size="10.00">algorithm</text>
</a>
</g>
</g>
<!-- Node6&#45;&gt;Node11 -->
<g id="edge12_Node000006_Node000011" class="edge">
<title>Node6&#45;&gt;Node11</title>
<g id="a_edge12_Node000006_Node000011"><a xlink:title=" ">
<path fill="none" stroke="#63b8ff" d="M469.01,-223.62C466.45,-206.01 460.86,-167.59 457.38,-143.65"/>
<polygon fill="#63b8ff" stroke="#63b8ff" points="460.86,-143.24 455.95,-133.85 453.93,-144.25 460.86,-143.24"/>
</a>
</g>
</g>
<!-- Node12 -->
<g id="Node000012" class="node">
<title>Node12</title>
<g id="a_Node000012"><a xlink:href="yn_define_8h.html" target="_top" xlink:title="Yena SW 엔진 기본 정의 문서.">
<polygon fill="white" stroke="#666666" points="851,-76 787.75,-76 787.75,-56 851,-56 851,-76"/>
<text xml:space="preserve" text-anchor="middle" x="819.38" y="-62.5" font-family="Helvetica,sans-Serif" font-size="10.00">ynDefine.h</text>
</a>
</g>
</g>
<!-- Node6&#45;&gt;Node12 -->
<g id="edge13_Node000006_Node000012" class="edge">
<title>Node6&#45;&gt;Node12</title>
<g id="a_edge13_Node000006_Node000012"><a xlink:title=" ">
<path fill="none" stroke="#63b8ff" d="M493.74,-233.45C564.45,-234.3 774.21,-232.9 821.38,-188 848.42,-162.26 836.95,-113.95 827.41,-86.81"/>
<polygon fill="#63b8ff" stroke="#63b8ff" points="830.78,-85.82 823.97,-77.71 824.23,-88.3 830.78,-85.82"/>
</a>
</g>
</g>
<!-- Node14 -->
<g id="Node000014" class="node">
<title>Node14</title>
<g id="a_Node000014"><a xlink:href="yn_error_8h.html" target="_top" xlink:title="에러, 예외 및 로그 처리 헤더 파일">
<polygon fill="white" stroke="#666666" points="812.25,-188 756.5,-188 756.5,-168 812.25,-168 812.25,-188"/>
<text xml:space="preserve" text-anchor="middle" x="784.38" y="-174.5" font-family="Helvetica,sans-Serif" font-size="10.00">ynError.h</text>
</a>
</g>
</g>
<!-- Node6&#45;&gt;Node14 -->
<g id="edge16_Node000006_Node000014" class="edge">
<title>Node6&#45;&gt;Node14</title>
<g id="a_edge16_Node000006_Node000014"><a xlink:title=" ">
<path fill="none" stroke="#63b8ff" d="M493.62,-229.26C540.02,-221.76 647.39,-204.2 737.38,-188 739.83,-187.56 742.36,-187.09 744.91,-186.62"/>
<polygon fill="#63b8ff" stroke="#63b8ff" points="745.39,-190.09 754.57,-184.81 744.1,-183.21 745.39,-190.09"/>
</a>
</g>
</g>
<!-- Node16 -->
<g id="Node000016" class="node">
<title>Node16</title>
<g id="a_Node000016"><a xlink:href="yn_g_u_i_d_8h.html" target="_top" xlink:title="Yena SWR COM / GUID 헤더">
<polygon fill="white" stroke="#666666" points="423.5,-188 363.25,-188 363.25,-168 423.5,-168 423.5,-188"/>
<text xml:space="preserve" text-anchor="middle" x="393.38" y="-174.5" font-family="Helvetica,sans-Serif" font-size="10.00">ynGUID.h</text>
</a>
</g>
</g>
<!-- Node6&#45;&gt;Node16 -->
<g id="edge18_Node000006_Node000016" class="edge">
<title>Node6&#45;&gt;Node16</title>
<g id="a_edge18_Node000006_Node000016"><a xlink:title=" ">
<path fill="none" stroke="#63b8ff" d="M456.96,-223.59C445.77,-215.74 429.56,-204.38 416.32,-195.09"/>
<polygon fill="#63b8ff" stroke="#63b8ff" points="418.33,-192.22 408.13,-189.35 414.31,-197.96 418.33,-192.22"/>
</a>
</g>
</g>
<!-- Node18 -->
<g id="Node000018" class="node">
<title>Node18</title>
<g id="a_Node000018"><a xlink:href="yn_unknownbase_8h.html" target="_top" xlink:title="Yena SWR COM 기반 헤더 (v2.x)">
<polygon fill="white" stroke="#666666" points="268.88,-76 171.88,-76 171.88,-56 268.88,-56 268.88,-76"/>
<text xml:space="preserve" text-anchor="middle" x="220.38" y="-62.5" font-family="Helvetica,sans-Serif" font-size="10.00">ynUnknownbase.h</text>
</a>
</g>
</g>
<!-- Node6&#45;&gt;Node18 -->
<g id="edge26_Node000006_Node000018" class="edge">
<title>Node6&#45;&gt;Node18</title>
<g id="a_edge26_Node000006_Node000018"><a xlink:title=" ">
<path fill="none" stroke="#63b8ff" d="M447.2,-232.8C400.13,-231.59 290.8,-224.71 208.38,-188 171.66,-171.65 154.91,-168.16 137.38,-132 126.15,-108.84 152.3,-91.51 178.15,-80.6"/>
<polygon fill="#63b8ff" stroke="#63b8ff" points="179.28,-83.91 187.31,-77 176.73,-77.39 179.28,-83.91"/>
</a>
</g>
</g>
<!-- Node19 -->
<g id="Node000019" class="node">
<title>Node19</title>
<g id="a_Node000019"><a xlink:href="ynx9types_8h.html" target="_top" xlink:title="\u{2b50} Yena SW 엔진 자료형 정의 : DX9 (d3d9types.h) 대응">
<polygon fill="white" stroke="#666666" points="634,-132 564.75,-132 564.75,-112 634,-112 634,-132"/>
<text xml:space="preserve" text-anchor="middle" x="599.38" y="-118.5" font-family="Helvetica,sans-Serif" font-size="10.00">ynx9types.h</text>
</a>
</g>
</g>
<!-- Node6&#45;&gt;Node19 -->
<g id="edge28_Node000006_Node000019" class="edge">
<title>Node6&#45;&gt;Node19</title>
<g id="a_edge28_Node000006_Node000019"><a xlink:title=" ">
<path fill="none" stroke="#63b8ff" d="M481.37,-223.62C503.17,-205.03 552.14,-163.28 579.65,-139.82"/>
<polygon fill="#63b8ff" stroke="#63b8ff" points="581.91,-142.49 587.25,-133.34 577.37,-137.16 581.91,-142.49"/>
</a>
</g>
</g>
<!-- Node20 -->
<g id="Node000020" class="node">
<title>Node20</title>
<g id="a_Node000020"><a xlink:href="ynx9_8h.html" target="_top" xlink:title="\u{2b50} Yena SWR 인터페이스 헤더 : DX9 (d3d9.h) 대응">
<polygon fill="white" stroke="#666666" points="695,-188 649.75,-188 649.75,-168 695,-168 695,-188"/>
<text xml:space="preserve" text-anchor="middle" x="672.38" y="-174.5" font-family="Helvetica,sans-Serif" font-size="10.00">ynx9.h</text>
</a>
</g>
</g>
<!-- Node6&#45;&gt;Node20 -->
<g id="edge30_Node000006_Node000020" class="edge">
<title>Node6&#45;&gt;Node20</title>
<g id="a_edge30_Node000006_Node000020"><a xlink:title=" ">
<path fill="none" stroke="#63b8ff" d="M493.55,-226.81C529.09,-217.3 597.25,-199.08 638.39,-188.09"/>
<polygon fill="#63b8ff" stroke="#63b8ff" points="639.25,-191.48 648.01,-185.51 637.45,-184.71 639.25,-191.48"/>
</a>
</g>
</g>
<!-- Node21 -->
<g id="Node000021" class="node">
<title>Node21</title>
<g id="a_Node000021"><a xlink:href="yn_math_8h.html" target="_top" xlink:title="\u{2b50} Yena 수학 라이브러리 Yena Math Library for DirectX / OpenGL">
<polygon fill="white" stroke="#666666" points="746.62,-132 690.12,-132 690.12,-112 746.62,-112 746.62,-132"/>
<text xml:space="preserve" text-anchor="middle" x="718.38" y="-118.5" font-family="Helvetica,sans-Serif" font-size="10.00">ynMath.h</text>
</a>
</g>
</g>
<!-- Node6&#45;&gt;Node21 -->
<g id="edge35_Node000006_Node000021" class="edge">
<title>Node6&#45;&gt;Node21</title>
<g id="a_edge35_Node000006_Node000021"><a xlink:title=" ">
<path fill="none" stroke="#63b8ff" d="M493.62,-231.71C546.72,-228.29 674.58,-217.14 704.38,-188 715.99,-176.64 719.07,-158.12 719.48,-143.75"/>
<polygon fill="#63b8ff" stroke="#63b8ff" points="722.98,-143.93 719.33,-133.98 715.98,-144.04 722.98,-143.93"/>
</a>
</g>
</g>
<!-- Node12&#45;&gt;Node7 -->
<g id="edge14_Node000012_Node000007" class="edge">
<title>Node12&#45;&gt;Node7</title>
<g id="a_edge14_Node000012_Node000007"><a xlink:title=" ">
<path fill="none" stroke="#63b8ff" d="M787.39,-57.15C749.07,-47.74 684.73,-31.95 642.17,-21.5"/>
<polygon fill="#63b8ff" stroke="#63b8ff" points="643.06,-18.12 632.52,-19.13 641.39,-24.92 643.06,-18.12"/>
</a>
</g>
</g>
<!-- Node13 -->
<g id="Node000013" class="node">
<title>Node13</title>
<g id="a_Node000013"><a xlink:title=" ">
<polygon fill="#e0e0e0" stroke="#999999" points="845,-20 793.75,-20 793.75,0 845,0 845,-20"/>
<text xml:space="preserve" text-anchor="middle" x="819.38" y="-6.5" font-family="Helvetica,sans-Serif" font-size="10.00">assert.h</text>
</a>
</g>
</g>
<!-- Node12&#45;&gt;Node13 -->
<g id="edge15_Node000012_Node000013" class="edge">
<title>Node12&#45;&gt;Node13</title>
<g id="a_edge15_Node000012_Node000013"><a xlink:title=" ">
<path fill="none" stroke="#63b8ff" d="M819.38,-55.59C819.38,-49.01 819.38,-39.96 819.38,-31.73"/>
<polygon fill="#63b8ff" stroke="#63b8ff" points="822.88,-31.81 819.38,-21.81 815.88,-31.81 822.88,-31.81"/>
</a>
</g>
</g>
<!-- Node15 -->
<g id="Node000015" class="node">
<title>Node15</title>
<g id="a_Node000015"><a xlink:title=" ">
<polygon fill="#e0e0e0" stroke="#999999" points="822.38,-132 764.38,-132 764.38,-112 822.38,-112 822.38,-132"/>
<text xml:space="preserve" text-anchor="middle" x="793.38" y="-118.5" font-family="Helvetica,sans-Serif" font-size="10.00">exception</text>
</a>
</g>
</g>
<!-- Node14&#45;&gt;Node15 -->
<g id="edge17_Node000014_Node000015" class="edge">
<title>Node14&#45;&gt;Node15</title>
<g id="a_edge17_Node000014_Node000015"><a xlink:title=" ">
<path fill="none" stroke="#63b8ff" d="M785.94,-167.59C787.05,-160.93 788.58,-151.75 789.97,-143.44"/>
<polygon fill="#63b8ff" stroke="#63b8ff" points="793.38,-144.23 791.58,-133.79 786.48,-143.08 793.38,-144.23"/>
</a>
</g>
</g>
<!-- Node16&#45;&gt;Node3 -->
<g id="edge20_Node000016_Node000003" class="edge">
<title>Node16&#45;&gt;Node3</title>
<g id="a_edge20_Node000016_Node000003"><a xlink:title=" ">
<path fill="none" stroke="#63b8ff" d="M416.02,-167.59C436.49,-159.09 466.89,-146.46 490.12,-136.81"/>
<polygon fill="#63b8ff" stroke="#63b8ff" points="491.26,-140.13 499.16,-133.06 488.58,-133.66 491.26,-140.13"/>
</a>
</g>
</g>
<!-- Node16&#45;&gt;Node4 -->
<g id="edge22_Node000016_Node000004" class="edge">
<title>Node16&#45;&gt;Node4</title>
<g id="a_edge22_Node000016_Node000004"><a xlink:title=" ">
<path fill="none" stroke="#63b8ff" d="M363.01,-170.32C327.15,-162.33 265.46,-148.3 203.22,-132.39"/>
<polygon fill="#63b8ff" stroke="#63b8ff" points="204.44,-129.09 193.88,-129.99 202.69,-135.87 204.44,-129.09"/>
</a>
</g>
</g>
<!-- Node16&#45;&gt;Node7 -->
<g id="edge19_Node000016_Node000007" class="edge">
<title>Node16&#45;&gt;Node7</title>
<g id="a_edge19_Node000016_Node000007"><a xlink:title=" ">
<path fill="none" stroke="#63b8ff" d="M394.74,-167.56C397.14,-153.89 403.28,-128.44 417.38,-112 455.2,-67.9 517.29,-39.36 558.25,-24.23"/>
<polygon fill="#63b8ff" stroke="#63b8ff" points="559.29,-27.57 567.53,-20.91 556.93,-20.98 559.29,-27.57"/>
</a>
</g>
</g>
<!-- Node16&#45;&gt;Node8 -->
<g id="edge21_Node000016_Node000008" class="edge">
<title>Node16&#45;&gt;Node8</title>
<g id="a_edge21_Node000016_Node000008"><a xlink:title=" ">
<path fill="none" stroke="#63b8ff" d="M365.51,-167.59C338.19,-158.38 296.53,-144.31 267.3,-134.45"/>
<polygon fill="#63b8ff" stroke="#63b8ff" points="268.8,-131.26 258.2,-131.38 266.56,-137.89 268.8,-131.26"/>
</a>
</g>
</g>
<!-- Node16&#45;&gt;Node10 -->
<g id="edge23_Node000016_Node000010" class="edge">
<title>Node16&#45;&gt;Node10</title>
<g id="a_edge23_Node000016_Node000010"><a xlink:title=" ">
<path fill="none" stroke="#63b8ff" d="M376.48,-167.59C361.83,-159.44 340.35,-147.48 323.33,-138"/>
<polygon fill="#63b8ff" stroke="#63b8ff" points="325.17,-135.02 314.73,-133.22 321.76,-141.14 325.17,-135.02"/>
</a>
</g>
</g>
<!-- Node16&#45;&gt;Node11 -->
<g id="edge25_Node000016_Node000011" class="edge">
<title>Node16&#45;&gt;Node11</title>
<g id="a_edge25_Node000016_Node000011"><a xlink:title=" ">
<path fill="none" stroke="#63b8ff" d="M404,-167.59C412.66,-159.93 425.11,-148.91 435.46,-139.75"/>
<polygon fill="#63b8ff" stroke="#63b8ff" points="437.57,-142.55 442.74,-133.3 432.93,-137.31 437.57,-142.55"/>
</a>
</g>
</g>
<!-- Node17 -->
<g id="Node000017" class="node">
<title>Node17</title>
<g id="a_Node000017"><a xlink:title=" ">
<polygon fill="#e0e0e0" stroke="#999999" points="370.75,-132 336,-132 336,-112 370.75,-112 370.75,-132"/>
<text xml:space="preserve" text-anchor="middle" x="353.38" y="-118.5" font-family="Helvetica,sans-Serif" font-size="10.00">map</text>
</a>
</g>
</g>
<!-- Node16&#45;&gt;Node17 -->
<g id="edge24_Node000016_Node000017" class="edge">
<title>Node16&#45;&gt;Node17</title>
<g id="a_edge24_Node000016_Node000017"><a xlink:title=" ">
<path fill="none" stroke="#63b8ff" d="M386.41,-167.59C381.07,-160.39 373.55,-150.23 367.03,-141.43"/>
<polygon fill="#63b8ff" stroke="#63b8ff" points="369.93,-139.47 361.16,-133.51 364.3,-143.63 369.93,-139.47"/>
</a>
</g>
</g>
<!-- Node18&#45;&gt;Node7 -->
<g id="edge27_Node000018_Node000007" class="edge">
<title>Node18&#45;&gt;Node7</title>
<g id="a_edge27_Node000018_Node000007"><a xlink:title=" ">
<path fill="none" stroke="#63b8ff" d="M269.15,-58.05C343.86,-47.41 485.43,-27.24 556.46,-17.11"/>
<polygon fill="#63b8ff" stroke="#63b8ff" points="556.74,-20.61 566.14,-15.73 555.75,-13.68 556.74,-20.61"/>
</a>
</g>
</g>
<!-- Node19&#45;&gt;Node7 -->
<g id="edge29_Node000019_Node000007" class="edge">
<title>Node19&#45;&gt;Node7</title>
<g id="a_edge29_Node000019_Node000007"><a xlink:title=" ">
<path fill="none" stroke="#63b8ff" d="M599.38,-111.62C599.38,-94.01 599.38,-55.59 599.38,-31.65"/>
<polygon fill="#63b8ff" stroke="#63b8ff" points="602.88,-31.87 599.38,-21.87 595.88,-31.87 602.88,-31.87"/>
</a>
</g>
</g>
<!-- Node20&#45;&gt;Node19 -->
<g id="edge31_Node000020_Node000019" class="edge">
<title>Node20&#45;&gt;Node19</title>
<g id="a_edge31_Node000020_Node000019"><a xlink:title=" ">
<path fill="none" stroke="#63b8ff" d="M659.66,-167.59C648.98,-159.7 633.5,-148.24 620.89,-138.92"/>
<polygon fill="#63b8ff" stroke="#63b8ff" points="623.28,-136.33 613.16,-133.2 619.12,-141.96 623.28,-136.33"/>
</a>
</g>
</g>
<!-- Node20&#45;&gt;Node21 -->
<g id="edge32_Node000020_Node000021" class="edge">
<title>Node20&#45;&gt;Node21</title>
<g id="a_edge32_Node000020_Node000021"><a xlink:title=" ">
<path fill="none" stroke="#63b8ff" d="M680.39,-167.59C686.65,-160.24 695.55,-149.8 703.16,-140.87"/>
<polygon fill="#63b8ff" stroke="#63b8ff" points="705.65,-143.33 709.47,-133.45 700.32,-138.79 705.65,-143.33"/>
</a>
</g>
</g>
<!-- Node21&#45;&gt;Node12 -->
<g id="edge33_Node000021_Node000012" class="edge">
<title>Node21&#45;&gt;Node12</title>
<g id="a_edge33_Node000021_Node000012"><a xlink:title=" ">
<path fill="none" stroke="#63b8ff" d="M735.97,-111.59C751.3,-103.4 773.79,-91.37 791.56,-81.87"/>
<polygon fill="#63b8ff" stroke="#63b8ff" points="793.14,-84.99 800.31,-77.19 789.84,-78.82 793.14,-84.99"/>
</a>
</g>
</g>
<!-- Node22 -->
<g id="Node000022" class="node">
<title>Node22</title>
<g id="a_Node000022"><a xlink:title=" ">
<polygon fill="#e0e0e0" stroke="#999999" points="769.88,-76 690.88,-76 690.88,-56 769.88,-56 769.88,-76"/>
<text xml:space="preserve" text-anchor="middle" x="730.38" y="-62.5" font-family="Helvetica,sans-Serif" font-size="10.00">DirectXmath.h</text>
</a>
</g>
</g>
<!-- Node21&#45;&gt;Node22 -->
<g id="edge34_Node000021_Node000022" class="edge">
<title>Node21&#45;&gt;Node22</title>
<g id="a_edge34_Node000021_Node000022"><a xlink:title=" ">
<path fill="none" stroke="#63b8ff" d="M720.47,-111.59C721.95,-104.93 723.99,-95.75 725.83,-87.44"/>
<polygon fill="#63b8ff" stroke="#63b8ff" points="729.23,-88.3 727.98,-77.78 722.39,-86.78 729.23,-88.3"/>
</a>
</g>
</g>
</g>
</svg>

<g id="navigator" transform="translate(0 0)" fill="#404254">
  <rect fill="#f2f5e9" fill-opacity="0.5" stroke="#606060" stroke-width=".5" x="0" y="0" width="60" height="60"/>
  <use id="zoomplus" xlink:href="#zoomPlus" x="17" y="9" onmousedown="handleZoom(evt,'in')"/>
  <use id="zoomminus" xlink:href="#zoomMin" x="42" y="9" onmousedown="handleZoom(evt,'out')"/>
  <use id="reset" xlink:href="#resetDef" x="30" y="36" onmousedown="handleReset()"/>
   <use id="arrowup" xlink:href="#arrowUp" x="0" y="0" onmousedown="handlePan(0,-1)"/>
  <use id="arrowright" xlink:href="#arrowRight" x="0" y="0" onmousedown="handlePan(1,0)"/>
  <use id="arrowdown" xlink:href="#arrowDown" x="0" y="0" onmousedown="handlePan(0,1)"/>
  <use id="arrowleft" xlink:href="#arrowLeft" x="0" y="0" onmousedown="handlePan(-1,0)"/>
</g>
<svg viewBox="0 0 15 15" width="100%" height="30px" preserveAspectRatio="xMaxYMin meet">
 <g id="arrow_out" transform="scale(0.3 0.3)">
  <a xlink:href="_render_8cpp__incl_org.svg" target="_base">
   <rect id="button" ry="5" rx="5" y="6" x="6" height="38" width="38"
        fill="#f2f5e9" fill-opacity="0.5" stroke="#606060" stroke-width="1.0"/>
   <path id="arrow"
     d="M 11.500037,31.436501 C 11.940474,20.09759 22.043105,11.32322 32.158766,21.979434 L 37.068811,17.246167 C 37.068811,17.246167 37.088388,32 37.088388,32 L 22.160133,31.978069 C 22.160133,31.978069 26.997745,27.140456 26.997745,27.140456 C 18.528582,18.264221 13.291696,25.230495 11.500037,31.436501 z"
     style="fill:#404040;"/>
  </a>
 </g>
</svg>

<style type='text/css'>
<![CDATA[
[data-mouse-over-selected='false'] { opacity: 0.7; }
[data-mouse-over-selected='true']  { opacity: 1.0; }
]]>
</style>
<script type="application/ecmascript"><![CDATA[
document.addEventListener('DOMContentLoaded', (event) => {
  highlightEdges();
  highlightAdjacentNodes();
});
]]></script>
</svg>
