<?xml version="1.0" encoding="UTF-8" standalone="no"?>
<!DOCTYPE svg PUBLIC "-//W3C//DTD SVG 1.1//EN"
 "http://www.w3.org/Graphics/SVG/1.1/DTD/svg11.dtd">
<!-- Generated by graphviz version 13.1.2 (20250808.2320)
 -->
<!-- Title: SceneRender Pages: 1 -->
<svg width="487pt" height="218pt"
 viewBox="0.00 0.00 487.00 218.00" xmlns="http://www.w3.org/2000/svg" xmlns:xlink="http://www.w3.org/1999/xlink">

<svg id="main" version="1.1" xmlns="http://www.w3.org/2000/svg" xmlns:xlink="http://www.w3.org/1999/xlink" xml:space="preserve">

<style type="text/css"><![CDATA[
.node, .edge {opacity: 0.7;}
.node.selected, .edge.selected {opacity: 1;}
.edge:hover path { stroke: red; }
.edge:hover polygon { stroke: red; fill: red; }
]]></style>
<script type="application/ecmascript" xlink:href="svg.min.js"/>
<svg id="graph" class="graph">
<g id="graph0" class="graph" transform="scale(1 1) rotate(0) translate(4 214)">
<title>SceneRender</title>
<!-- Node1 -->
<g id="Node000001" class="node">
<title>Node1</title>
<g id="a_Node000001"><a xlink:title="장면 그리기">
<polygon fill="#999999" stroke="#666666" points="75.25,-115 0,-115 0,-95 75.25,-95 75.25,-115"/>
<text xml:space="preserve" text-anchor="middle" x="37.62" y="-101.5" font-family="Helvetica,sans-Serif" font-size="10.00">SceneRender</text>
</a>
</g>
</g>
<!-- Node2 -->
<g id="Node000002" class="node">
<title>Node2</title>
<g id="a_Node000002"><a xlink:href="_device_8cpp_a76c4195d88ec690c4da612bbd6d55f31.html#a76c4195d88ec690c4da612bbd6d55f31" target="_top" xlink:title="엔진 타이머 : 프레임 시간 획득.">
<polygon fill="white" stroke="#666666" points="194.75,-210 111.25,-210 111.25,-190 194.75,-190 194.75,-210"/>
<text xml:space="preserve" text-anchor="middle" x="153" y="-196.5" font-family="Helvetica,sans-Serif" font-size="10.00">GetEngineTime</text>
</a>
</g>
</g>
<!-- Node1&#45;&gt;Node2 -->
<g id="edge1_Node000001_Node000002" class="edge">
<title>Node1&#45;&gt;Node2</title>
<g id="a_edge1_Node000001_Node000002"><a xlink:title=" ">
<path fill="none" stroke="#63b8ff" d="M46.35,-115.27C58.66,-131.06 84.11,-161.54 111.25,-181 112.78,-182.09 114.38,-183.15 116.02,-184.17"/>
<polygon fill="#63b8ff" stroke="#63b8ff" points="113.98,-187.04 124.43,-188.8 117.36,-180.91 113.98,-187.04"/>
</a>
</g>
</g>
<!-- Node3 -->
<g id="Node000003" class="node">
<title>Node3</title>
<g id="a_Node000003"><a xlink:href="_render_8cpp_adfe3d7c4f90c898edb95bb1c90d45388.html#adfe3d7c4f90c898edb95bb1c90d45388" target="_top" xlink:title="오브젝트 그리기">
<polygon fill="white" stroke="#666666" points="180.12,-172 125.88,-172 125.88,-152 180.12,-152 180.12,-172"/>
<text xml:space="preserve" text-anchor="middle" x="153" y="-158.5" font-family="Helvetica,sans-Serif" font-size="10.00">ObjDraw</text>
</a>
</g>
</g>
<!-- Node1&#45;&gt;Node3 -->
<g id="edge2_Node000001_Node000003" class="edge">
<title>Node1&#45;&gt;Node3</title>
<g id="a_edge2_Node000001_Node000003"><a xlink:title=" ">
<path fill="none" stroke="#63b8ff" d="M57.92,-115.4C72.49,-123.18 93.01,-133.98 111.25,-143 113.67,-144.2 116.18,-145.42 118.71,-146.63"/>
<polygon fill="#63b8ff" stroke="#63b8ff" points="117.16,-149.77 127.7,-150.88 120.16,-143.44 117.16,-149.77"/>
</a>
</g>
</g>
<!-- Node4 -->
<g id="Node000004" class="node">
<title>Node4</title>
<g id="a_Node000004"><a xlink:href="_render_8cpp_a71264aa9be3cdedfc23d807cca7e27e6.html#a71264aa9be3cdedfc23d807cca7e27e6" target="_top" xlink:title="오브젝트 : 상태 갱신">
<polygon fill="white" stroke="#666666" points="184.25,-134 121.75,-134 121.75,-114 184.25,-114 184.25,-134"/>
<text xml:space="preserve" text-anchor="middle" x="153" y="-120.5" font-family="Helvetica,sans-Serif" font-size="10.00">ObjUpdate</text>
</a>
</g>
</g>
<!-- Node1&#45;&gt;Node4 -->
<g id="edge3_Node000001_Node000004" class="edge">
<title>Node1&#45;&gt;Node4</title>
<g id="a_edge3_Node000001_Node000004"><a xlink:title=" ">
<path fill="none" stroke="#63b8ff" d="M75.75,-111.22C86.89,-113.09 99.18,-115.15 110.58,-117.06"/>
<polygon fill="#63b8ff" stroke="#63b8ff" points="109.67,-120.45 120.11,-118.66 110.83,-113.55 109.67,-120.45"/>
</a>
</g>
</g>
<!-- Node7 -->
<g id="Node000007" class="node">
<title>Node7</title>
<g id="a_Node000007"><a xlink:href="_device_8cpp_a8b5e6c31a2a6e19c38a0df9083df6f15.html#a8b5e6c31a2a6e19c38a0df9083df6f15" target="_top" xlink:title=" ">
<polygon fill="white" stroke="#666666" points="178.25,-96 127.75,-96 127.75,-76 178.25,-76 178.25,-96"/>
<text xml:space="preserve" text-anchor="middle" x="153" y="-82.5" font-family="Helvetica,sans-Serif" font-size="10.00">PutFPS</text>
</a>
</g>
</g>
<!-- Node1&#45;&gt;Node7 -->
<g id="edge6_Node000001_Node000007" class="edge">
<title>Node1&#45;&gt;Node7</title>
<g id="a_edge6_Node000001_Node000007"><a xlink:title=" ">
<path fill="none" stroke="#63b8ff" d="M75.75,-98.78C88.7,-96.61 103.21,-94.18 116.07,-92.02"/>
<polygon fill="#63b8ff" stroke="#63b8ff" points="116.54,-95.49 125.82,-90.39 115.38,-88.59 116.54,-95.49"/>
</a>
</g>
</g>
<!-- Node9 -->
<g id="Node000009" class="node">
<title>Node9</title>
<g id="a_Node000009"><a xlink:href="_render_8cpp_af4dd0814523522c2ef17aa2ec8079afc.html#af4dd0814523522c2ef17aa2ec8079afc" target="_top" xlink:title="도움말 출력">
<polygon fill="white" stroke="#666666" points="181.62,-58 124.38,-58 124.38,-38 181.62,-38 181.62,-58"/>
<text xml:space="preserve" text-anchor="middle" x="153" y="-44.5" font-family="Helvetica,sans-Serif" font-size="10.00">ShowInfo</text>
</a>
</g>
</g>
<!-- Node1&#45;&gt;Node9 -->
<g id="edge9_Node000001_Node000009" class="edge">
<title>Node1&#45;&gt;Node9</title>
<g id="a_edge9_Node000001_Node000009"><a xlink:title=" ">
<path fill="none" stroke="#63b8ff" d="M57.92,-94.6C72.49,-86.82 93.01,-76.02 111.25,-67 113.67,-65.8 116.18,-64.58 118.71,-63.37"/>
<polygon fill="#63b8ff" stroke="#63b8ff" points="120.16,-66.56 127.7,-59.12 117.16,-60.23 120.16,-66.56"/>
</a>
</g>
</g>
<!-- Node10 -->
<g id="Node000010" class="node">
<title>Node10</title>
<g id="a_Node000010"><a xlink:href="_render_8cpp_ac207065b1fb62c07f89a12f7b4192a20.html#ac207065b1fb62c07f89a12f7b4192a20" target="_top" xlink:title="엔진 및 시스템 상태 갱신.">
<polygon fill="white" stroke="#666666" points="193.62,-20 112.38,-20 112.38,0 193.62,0 193.62,-20"/>
<text xml:space="preserve" text-anchor="middle" x="153" y="-6.5" font-family="Helvetica,sans-Serif" font-size="10.00">SystemUpdate</text>
</a>
</g>
</g>
<!-- Node1&#45;&gt;Node10 -->
<g id="edge11_Node000001_Node000010" class="edge">
<title>Node1&#45;&gt;Node10</title>
<g id="a_edge11_Node000001_Node000010"><a xlink:title=" ">
<path fill="none" stroke="#63b8ff" d="M46.35,-94.73C58.66,-78.94 84.11,-48.46 111.25,-29 112.78,-27.91 114.38,-26.85 116.02,-25.83"/>
<polygon fill="#63b8ff" stroke="#63b8ff" points="117.36,-29.09 124.43,-21.2 113.98,-22.96 117.36,-29.09"/>
</a>
</g>
</g>
<!-- Node5 -->
<g id="Node000005" class="node">
<title>Node5</title>
<g id="a_Node000005"><a xlink:href="group___yena-_math_ga3828aa23962df7cb6bd24519416b70f3.html#ga3828aa23962df7cb6bd24519416b70f3" target="_top" xlink:title="\u{2b50} Z 축 기준 회전행렬 생성함수 (ver.YN) 단 회전량은 라디안.">
<polygon fill="white" stroke="#666666" points="342,-134 230.75,-134 230.75,-114 342,-114 342,-134"/>
<text xml:space="preserve" text-anchor="middle" x="286.38" y="-120.5" font-family="Helvetica,sans-Serif" font-size="10.00">B3YXMatrixRotationZ</text>
</a>
</g>
</g>
<!-- Node4&#45;&gt;Node5 -->
<g id="edge4_Node000004_Node000005" class="edge">
<title>Node4&#45;&gt;Node5</title>
<g id="a_edge4_Node000004_Node000005"><a xlink:title=" ">
<path fill="none" stroke="#63b8ff" d="M184.47,-124C194.81,-124 206.8,-124 218.83,-124"/>
<polygon fill="#63b8ff" stroke="#63b8ff" points="218.81,-127.5 228.81,-124 218.81,-120.5 218.81,-127.5"/>
</a>
</g>
</g>
<!-- Node6 -->
<g id="Node000006" class="node">
<title>Node6</title>
<g id="a_Node000006"><a xlink:href="group___yena-_math_ga02a75a42a0bae280a3396ecdb1c124e7.html#ga02a75a42a0bae280a3396ecdb1c124e7" target="_top" xlink:title="행렬 단위화(초기화) 함수">
<polygon fill="white" stroke="#666666" points="478.75,-134 378,-134 378,-114 478.75,-114 478.75,-134"/>
<text xml:space="preserve" text-anchor="middle" x="428.38" y="-120.5" font-family="Helvetica,sans-Serif" font-size="10.00">B3YXMatrixIdentity</text>
</a>
</g>
</g>
<!-- Node5&#45;&gt;Node6 -->
<g id="edge5_Node000005_Node000006" class="edge">
<title>Node5&#45;&gt;Node6</title>
<g id="a_edge5_Node000005_Node000006"><a xlink:title=" ">
<path fill="none" stroke="#63b8ff" d="M342.3,-124C350.13,-124 358.22,-124 366.15,-124"/>
<polygon fill="#63b8ff" stroke="#63b8ff" points="366.1,-127.5 376.1,-124 366.1,-120.5 366.1,-127.5"/>
</a>
</g>
</g>
<!-- Node8 -->
<g id="Node000008" class="node">
<title>Node8</title>
<g id="a_Node000008"><a xlink:href="_device_8cpp_a2034272a68b183b7651f0195b1d55182.html#a2034272a68b183b7651f0195b1d55182" target="_top" xlink:title=" ">
<polygon fill="white" stroke="#666666" points="315.38,-68 257.38,-68 257.38,-48 315.38,-48 315.38,-68"/>
<text xml:space="preserve" text-anchor="middle" x="286.38" y="-54.5" font-family="Helvetica,sans-Serif" font-size="10.00">DrawText</text>
</a>
</g>
</g>
<!-- Node7&#45;&gt;Node8 -->
<g id="edge7_Node000007_Node000008" class="edge">
<title>Node7&#45;&gt;Node8</title>
<g id="a_edge7_Node000007_Node000008"><a xlink:title=" ">
<path fill="none" stroke="#63b8ff" d="M178.71,-80.73C197.61,-76.7 224.05,-71.07 245.88,-66.42"/>
<polygon fill="#63b8ff" stroke="#63b8ff" points="246.6,-69.84 255.65,-64.34 245.14,-63 246.6,-69.84"/>
</a>
</g>
</g>
<!-- Node8&#45;&gt;Node8 -->
<g id="edge8_Node000008_Node000008" class="edge">
<title>Node8&#45;&gt;Node8</title>
<g id="a_edge8_Node000008_Node000008"><a xlink:title=" ">
<path fill="none" stroke="#63b8ff" d="M265.18,-68.34C256.13,-76.98 263.19,-86 286.38,-86 299.05,-86 306.91,-83.3 309.95,-79.44"/>
<polygon fill="#63b8ff" stroke="#63b8ff" points="313.4,-78.86 307.88,-69.82 306.56,-80.33 313.4,-78.86"/>
</a>
</g>
</g>
<!-- Node9&#45;&gt;Node8 -->
<g id="edge10_Node000009_Node000008" class="edge">
<title>Node9&#45;&gt;Node8</title>
<g id="a_edge10_Node000009_Node000008"><a xlink:title=" ">
<path fill="none" stroke="#63b8ff" d="M181.86,-50.12C200.46,-51.54 225.19,-53.42 245.82,-54.99"/>
<polygon fill="#63b8ff" stroke="#63b8ff" points="245.35,-58.46 255.59,-55.73 245.89,-51.48 245.35,-58.46"/>
</a>
</g>
</g>
</g>
</svg>
</svg>

<style type='text/css'>
<![CDATA[
[data-mouse-over-selected='false'] { opacity: 0.7; }
[data-mouse-over-selected='true']  { opacity: 1.0; }
]]>
</style>
<script type="application/ecmascript"><![CDATA[
document.addEventListener('DOMContentLoaded', (event) => {
  highlightEdges();
  highlightAdjacentNodes();
});
]]></script>
</svg>
