<?xml version="1.0" encoding="UTF-8" standalone="no"?>
<!DOCTYPE svg PUBLIC "-//W3C//DTD SVG 1.1//EN"
 "http://www.w3.org/Graphics/SVG/1.1/DTD/svg11.dtd">
<!-- Generated by graphviz version 13.1.2 (20250808.2320)
 -->
<!-- Title: Src/Render.cpp Pages: 1 -->
<!--zoomable 308 -->

<svg id="main" version="1.1" xmlns="http://www.w3.org/2000/svg" xmlns:xlink="http://www.w3.org/1999/xlink" xml:space="preserve" onload="init(evt)">

<style type="text/css"><![CDATA[
.node, .edge {opacity: 0.7;}
.node.selected, .edge.selected {opacity: 1;}
.edge:hover path { stroke: red; }
.edge:hover polygon { stroke: red; fill: red; }
]]></style>

<defs>
  <circle id="rim" cx="0" cy="0" r="7"/>
  <circle id="rim2" cx="0" cy="0" r="3.5"/>
  <g id="zoomPlus">
    <use xlink:href="#rim" fill="#404040"><set attributeName="fill" to="#808080" begin="zoomplus.mouseover" end="zoomplus.mouseout"/></use>
    <path d="M-4,0h8M0,-4v8" fill="none" stroke="white" stroke-width="1.5" pointer-events="none"/>
  </g>
  <g id="zoomMin">
    <use xlink:href="#rim" fill="#404040"><set attributeName="fill" to="#808080" begin="zoomminus.mouseover" end="zoomminus.mouseout"/></use>
    <path d="M-4,0h8" fill="none" stroke="white" stroke-width="1.5" pointer-events="none"/>
  </g>
  <g id="arrowUp" transform="translate(30 24)">
    <use xlink:href="#rim"/>
    <path pointer-events="none" fill="none" stroke="white" stroke-width="1.5" d="M0,-3.0v7 M-2.5,-0.5L0,-3.0L2.5,-0.5"/>
  </g>
  <g id="arrowRight" transform="rotate(90) translate(36 -43)">
    <use xlink:href="#rim"/>
    <path pointer-events="none" fill="none" stroke="white" stroke-width="1.5" d="M0,-3.0v7 M-2.5,-0.5L0,-3.0L2.5,-0.5"/>
  </g>
  <g id="arrowDown" transform="rotate(180) translate(-30 -48)">
    <use xlink:href="#rim"/>
    <path pointer-events="none" fill="none" stroke="white" stroke-width="1.5" d="M0,-3.0v7 M-2.5,-0.5L0,-3.0L2.5,-0.5"/>
  </g>
  <g id="arrowLeft" transform="rotate(270) translate(-36 17)">
    <use xlink:href="#rim"/>
    <path pointer-events="none" fill="none" stroke="white" stroke-width="1.5" d="M0,-3.0v7 M-2.5,-0.5L0,-3.0L2.5,-0.5"/>
  </g>
  <g id="resetDef">
    <use xlink:href="#rim2" fill="#404040"><set attributeName="fill" to="#808080" begin="reset.mouseover" end="reset.mouseout"/></use>
  </g>
</defs>
<script type="application/ecmascript">
var viewWidth = 960;
var viewHeight = 308;
var sectionId = 'dynsection-0';
</script>
<script type="application/ecmascript" xlink:href="svg.min.js"/>
<svg id="graph" class="graph">
<g id="viewport">
<title>Src/Render.cpp</title>
<!-- Node1 -->
<g id="Node000001" class="node">
<title>Node1</title>
<g id="a_Node000001"><a xlink:title="\u{2b50} 예제 기본 렌더링/프레임웍 소스">
<polygon fill="#999999" stroke="#666666" points="172.5,-300 88.25,-300 88.25,-280 172.5,-280 172.5,-300"/>
<text xml:space="preserve" text-anchor="middle" x="130.38" y="-286.5" font-family="Helvetica,sans-Serif" font-size="10.00">Src/Render.cpp</text>
</a>
</g>
</g>
<!-- Node2 -->
<g id="Node000002" class="node">
<title>Node2</title>
<g id="a_Node000002"><a xlink:title=" ">
<polygon fill="#e0e0e0" stroke="#999999" points="64.75,-244 0,-244 0,-224 64.75,-224 64.75,-244"/>
<text xml:space="preserve" text-anchor="middle" x="32.38" y="-230.5" font-family="Helvetica,sans-Serif" font-size="10.00">Windows.h</text>
</a>
</g>
</g>
<!-- Node1&#45;&gt;Node2 -->
<g id="edge1_Node000001_Node000002" class="edge">
<title>Node1&#45;&gt;Node2</title>
<g id="a_edge1_Node000001_Node000002"><a xlink:title=" ">
<path fill="none" stroke="#63b8ff" d="M113.3,-279.59C98.5,-271.44 76.81,-259.48 59.61,-250"/>
<polygon fill="#63b8ff" stroke="#63b8ff" points="61.35,-246.97 50.9,-245.21 57.97,-253.1 61.35,-246.97"/>
</a>
</g>
</g>
<!-- Node3 -->
<g id="Node000003" class="node">
<title>Node3</title>
<g id="a_Node000003"><a xlink:title=" ">
<polygon fill="#e0e0e0" stroke="#999999" points="152.38,-76 106.38,-76 106.38,-56 152.38,-56 152.38,-76"/>
<text xml:space="preserve" text-anchor="middle" x="129.38" y="-62.5" font-family="Helvetica,sans-Serif" font-size="10.00">tchar.h</text>
</a>
</g>
</g>
<!-- Node1&#45;&gt;Node3 -->
<g id="edge2_Node000001_Node000003" class="edge">
<title>Node1&#45;&gt;Node3</title>
<g id="a_edge2_Node000001_Node000003"><a xlink:title=" ">
<path fill="none" stroke="#63b8ff" d="M126.51,-279.54C123.07,-270.57 118.29,-256.62 116.38,-244 107.56,-186 108.15,-170.09 116.38,-112 117.54,-103.76 119.85,-94.91 122.21,-87.26"/>
<polygon fill="#63b8ff" stroke="#63b8ff" points="125.48,-88.52 125.31,-77.92 118.84,-86.31 125.48,-88.52"/>
</a>
</g>
</g>
<!-- Node4 -->
<g id="Node000004" class="node">
<title>Node4</title>
<g id="a_Node000004"><a xlink:title=" ">
<polygon fill="#e0e0e0" stroke="#999999" points="216,-76 170.75,-76 170.75,-56 216,-56 216,-76"/>
<text xml:space="preserve" text-anchor="middle" x="193.38" y="-62.5" font-family="Helvetica,sans-Serif" font-size="10.00">stdio.h</text>
</a>
</g>
</g>
<!-- Node1&#45;&gt;Node4 -->
<g id="edge3_Node000001_Node000004" class="edge">
<title>Node1&#45;&gt;Node4</title>
<g id="a_edge3_Node000001_Node000004"><a xlink:title=" ">
<path fill="none" stroke="#63b8ff" d="M133,-279.74C142.39,-246.67 174.41,-133.83 187.61,-87.31"/>
<polygon fill="#63b8ff" stroke="#63b8ff" points="190.96,-88.33 190.32,-77.75 184.23,-86.42 190.96,-88.33"/>
</a>
</g>
</g>
<!-- Node5 -->
<g id="Node000005" class="node">
<title>Node5</title>
<g id="a_Node000005"><a xlink:href="_device_8h.html" target="_top" xlink:title="예제 렌더링 장치 운용 헤더">
<polygon fill="white" stroke="#666666" points="213.88,-244 158.88,-244 158.88,-224 213.88,-224 213.88,-244"/>
<text xml:space="preserve" text-anchor="middle" x="186.38" y="-230.5" font-family="Helvetica,sans-Serif" font-size="10.00">Device.h</text>
</a>
</g>
</g>
<!-- Node1&#45;&gt;Node5 -->
<g id="edge4_Node000001_Node000005" class="edge">
<title>Node1&#45;&gt;Node5</title>
<g id="a_edge4_Node000001_Node000005"><a xlink:title=" ">
<path fill="none" stroke="#63b8ff" d="M140.13,-279.59C148,-272.01 159.27,-261.13 168.72,-252.02"/>
<polygon fill="#63b8ff" stroke="#63b8ff" points="170.87,-254.81 175.64,-245.35 166.01,-249.77 170.87,-254.81"/>
</a>
</g>
</g>
<!-- Node22 -->
<g id="Node000022" class="node">
<title>Node22</title>
<g id="a_Node000022"><a xlink:href="_render_8h.html" target="_top" xlink:title="예제 기본 렌더링/프레임웍 헤더">
<polygon fill="white" stroke="#666666" points="287.25,-244 231.5,-244 231.5,-224 287.25,-224 287.25,-244"/>
<text xml:space="preserve" text-anchor="middle" x="259.38" y="-230.5" font-family="Helvetica,sans-Serif" font-size="10.00">Render.h</text>
</a>
</g>
</g>
<!-- Node1&#45;&gt;Node22 -->
<g id="edge33_Node000001_Node000022" class="edge">
<title>Node1&#45;&gt;Node22</title>
<g id="a_edge33_Node000001_Node000022"><a xlink:title=" ">
<path fill="none" stroke="#63b8ff" d="M152.85,-279.59C173.16,-271.09 203.33,-258.46 226.38,-248.81"/>
<polygon fill="#63b8ff" stroke="#63b8ff" points="227.46,-252.15 235.33,-245.06 224.76,-245.7 227.46,-252.15"/>
</a>
</g>
</g>
<!-- Node6 -->
<g id="Node000006" class="node">
<title>Node6</title>
<g id="a_Node000006"><a xlink:href="_yena_8h.html" target="_top" xlink:title="\u{2b50} Yena SWR 기본 헤더 파일 (v1.x)">
<polygon fill="white" stroke="#666666" points="459.38,-188 413.38,-188 413.38,-168 459.38,-168 459.38,-188"/>
<text xml:space="preserve" text-anchor="middle" x="436.38" y="-174.5" font-family="Helvetica,sans-Serif" font-size="10.00">Yena.h</text>
</a>
</g>
</g>
<!-- Node5&#45;&gt;Node6 -->
<g id="edge5_Node000005_Node000006" class="edge">
<title>Node5&#45;&gt;Node6</title>
<g id="a_edge5_Node000005_Node000006"><a xlink:title=" ">
<path fill="none" stroke="#63b8ff" d="M214.26,-225.92C217,-225.26 219.74,-224.61 222.38,-224 285.45,-209.49 359.41,-194.35 401.8,-185.85"/>
<polygon fill="#63b8ff" stroke="#63b8ff" points="402.27,-189.33 411.39,-183.94 400.9,-182.46 402.27,-189.33"/>
</a>
</g>
</g>
<!-- Node6&#45;&gt;Node3 -->
<g id="edge7_Node000006_Node000003" class="edge">
<title>Node6&#45;&gt;Node3</title>
<g id="a_edge7_Node000006_Node000003"><a xlink:title=" ">
<path fill="none" stroke="#63b8ff" d="M412.88,-176.12C370.19,-173.73 277.86,-164.85 208.38,-132 183.68,-120.32 160.14,-99.21 145.28,-84.22"/>
<polygon fill="#63b8ff" stroke="#63b8ff" points="148.1,-82.1 138.64,-77.31 143.05,-86.95 148.1,-82.1"/>
</a>
</g>
</g>
<!-- Node6&#45;&gt;Node4 -->
<g id="edge9_Node000006_Node000004" class="edge">
<title>Node6&#45;&gt;Node4</title>
<g id="a_edge9_Node000006_Node000004"><a xlink:title=" ">
<path fill="none" stroke="#63b8ff" d="M412.88,-177.79C371.83,-177.99 286.11,-173 230.38,-132 215.19,-120.83 205.33,-101.42 199.63,-86.71"/>
<polygon fill="#63b8ff" stroke="#63b8ff" points="203.05,-85.88 196.44,-77.6 196.45,-88.2 203.05,-85.88"/>
</a>
</g>
</g>
<!-- Node7 -->
<g id="Node000007" class="node">
<title>Node7</title>
<g id="a_Node000007"><a xlink:title=" ">
<polygon fill="#e0e0e0" stroke="#999999" points="603.62,-20 541.12,-20 541.12,0 603.62,0 603.62,-20"/>
<text xml:space="preserve" text-anchor="middle" x="572.38" y="-6.5" font-family="Helvetica,sans-Serif" font-size="10.00">windows.h</text>
</a>
</g>
</g>
<!-- Node6&#45;&gt;Node7 -->
<g id="edge6_Node000006_Node000007" class="edge">
<title>Node6&#45;&gt;Node7</title>
<g id="a_edge6_Node000006_Node000007"><a xlink:title=" ">
<path fill="none" stroke="#63b8ff" d="M412.93,-175.63C381.31,-172.61 324.9,-162.94 289.38,-132 262.46,-108.55 240.02,-83 263.38,-56 297.28,-16.8 452.88,-11.05 529.5,-10.66"/>
<polygon fill="#63b8ff" stroke="#63b8ff" points="529.14,-14.16 539.14,-10.64 529.13,-7.16 529.14,-14.16"/>
</a>
</g>
</g>
<!-- Node8 -->
<g id="Node000008" class="node">
<title>Node8</title>
<g id="a_Node000008"><a xlink:title=" ">
<polygon fill="#e0e0e0" stroke="#999999" points="318.38,-76 272.38,-76 272.38,-56 318.38,-56 318.38,-76"/>
<text xml:space="preserve" text-anchor="middle" x="295.38" y="-62.5" font-family="Helvetica,sans-Serif" font-size="10.00">math.h</text>
</a>
</g>
</g>
<!-- Node6&#45;&gt;Node8 -->
<g id="edge8_Node000006_Node000008" class="edge">
<title>Node6&#45;&gt;Node8</title>
<g id="a_edge8_Node000006_Node000008"><a xlink:title=" ">
<path fill="none" stroke="#63b8ff" d="M412.98,-176.54C382.07,-174.56 328.39,-166.07 301.38,-132 291.56,-119.63 290.65,-101.47 291.86,-87.48"/>
<polygon fill="#63b8ff" stroke="#63b8ff" points="295.33,-87.98 293.18,-77.6 288.39,-87.06 295.33,-87.98"/>
</a>
</g>
</g>
<!-- Node9 -->
<g id="Node000009" class="node">
<title>Node9</title>
<g id="a_Node000009"><a xlink:title=" ">
<polygon fill="#e0e0e0" stroke="#999999" points="350.38,-132 310.38,-132 310.38,-112 350.38,-112 350.38,-132"/>
<text xml:space="preserve" text-anchor="middle" x="330.38" y="-118.5" font-family="Helvetica,sans-Serif" font-size="10.00">string</text>
</a>
</g>
</g>
<!-- Node6&#45;&gt;Node9 -->
<g id="edge10_Node000006_Node000009" class="edge">
<title>Node6&#45;&gt;Node9</title>
<g id="a_edge10_Node000006_Node000009"><a xlink:title=" ">
<path fill="none" stroke="#63b8ff" d="M417.91,-167.59C401.67,-159.32 377.77,-147.14 359.04,-137.6"/>
<polygon fill="#63b8ff" stroke="#63b8ff" points="360.83,-134.59 350.33,-133.17 357.65,-140.82 360.83,-134.59"/>
</a>
</g>
</g>
<!-- Node10 -->
<g id="Node000010" class="node">
<title>Node10</title>
<g id="a_Node000010"><a xlink:title=" ">
<polygon fill="#e0e0e0" stroke="#999999" points="379.88,-76 336.88,-76 336.88,-56 379.88,-56 379.88,-76"/>
<text xml:space="preserve" text-anchor="middle" x="358.38" y="-62.5" font-family="Helvetica,sans-Serif" font-size="10.00">vector</text>
</a>
</g>
</g>
<!-- Node6&#45;&gt;Node10 -->
<g id="edge11_Node000006_Node000010" class="edge">
<title>Node6&#45;&gt;Node10</title>
<g id="a_edge11_Node000006_Node000010"><a xlink:title=" ">
<path fill="none" stroke="#63b8ff" d="M427.5,-167.74C419.25,-158.91 406.84,-145.06 397.38,-132 386.63,-117.18 376.05,-99.28 368.63,-86.02"/>
<polygon fill="#63b8ff" stroke="#63b8ff" points="371.81,-84.55 363.93,-77.47 365.68,-87.92 371.81,-84.55"/>
</a>
</g>
</g>
<!-- Node11 -->
<g id="Node000011" class="node">
<title>Node11</title>
<g id="a_Node000011"><a xlink:title=" ">
<polygon fill="#e0e0e0" stroke="#999999" points="544.25,-76 488.5,-76 488.5,-56 544.25,-56 544.25,-76"/>
<text xml:space="preserve" text-anchor="middle" x="516.38" y="-62.5" font-family="Helvetica,sans-Serif" font-size="10.00">algorithm</text>
</a>
</g>
</g>
<!-- Node6&#45;&gt;Node11 -->
<g id="edge12_Node000006_Node000011" class="edge">
<title>Node6&#45;&gt;Node11</title>
<g id="a_edge12_Node000006_Node000011"><a xlink:title=" ">
<path fill="none" stroke="#63b8ff" d="M445.18,-167.69C453.38,-158.83 465.76,-144.95 475.38,-132 486.43,-117.1 497.57,-99.21 505.45,-85.97"/>
<polygon fill="#63b8ff" stroke="#63b8ff" points="508.42,-87.82 510.45,-77.42 502.38,-84.28 508.42,-87.82"/>
</a>
</g>
</g>
<!-- Node12 -->
<g id="Node000012" class="node">
<title>Node12</title>
<g id="a_Node000012"><a xlink:href="yn_define_8h.html" target="_top" xlink:title="Yena SW 엔진 기본 정의 문서.">
<polygon fill="white" stroke="#666666" points="586,-132 522.75,-132 522.75,-112 586,-112 586,-132"/>
<text xml:space="preserve" text-anchor="middle" x="554.38" y="-118.5" font-family="Helvetica,sans-Serif" font-size="10.00">ynDefine.h</text>
</a>
</g>
</g>
<!-- Node6&#45;&gt;Node12 -->
<g id="edge13_Node000006_Node000012" class="edge">
<title>Node6&#45;&gt;Node12</title>
<g id="a_edge13_Node000006_Node000012"><a xlink:title=" ">
<path fill="none" stroke="#63b8ff" d="M456.93,-167.59C475.26,-159.21 502.36,-146.8 523.33,-137.21"/>
<polygon fill="#63b8ff" stroke="#63b8ff" points="524.65,-140.45 532.28,-133.11 521.73,-134.09 524.65,-140.45"/>
</a>
</g>
</g>
<!-- Node14 -->
<g id="Node000014" class="node">
<title>Node14</title>
<g id="a_Node000014"><a xlink:href="yn_error_8h.html" target="_top" xlink:title="에러, 예외 및 로그 처리 헤더 파일">
<polygon fill="white" stroke="#666666" points="660.25,-132 604.5,-132 604.5,-112 660.25,-112 660.25,-132"/>
<text xml:space="preserve" text-anchor="middle" x="632.38" y="-118.5" font-family="Helvetica,sans-Serif" font-size="10.00">ynError.h</text>
</a>
</g>
</g>
<!-- Node6&#45;&gt;Node14 -->
<g id="edge16_Node000006_Node000014" class="edge">
<title>Node6&#45;&gt;Node14</title>
<g id="a_edge16_Node000006_Node000014"><a xlink:title=" ">
<path fill="none" stroke="#63b8ff" d="M459.63,-170.59C492.56,-161.52 553.2,-144.81 593.16,-133.8"/>
<polygon fill="#63b8ff" stroke="#63b8ff" points="593.92,-137.23 602.63,-131.19 592.06,-130.48 593.92,-137.23"/>
</a>
</g>
</g>
<!-- Node16 -->
<g id="Node000016" class="node">
<title>Node16</title>
<g id="a_Node000016"><a xlink:href="yn_g_u_i_d_8h.html" target="_top" xlink:title="Yena SWR COM / GUID 헤더">
<polygon fill="white" stroke="#666666" points="466.5,-132 406.25,-132 406.25,-112 466.5,-112 466.5,-132"/>
<text xml:space="preserve" text-anchor="middle" x="436.38" y="-118.5" font-family="Helvetica,sans-Serif" font-size="10.00">ynGUID.h</text>
</a>
</g>
</g>
<!-- Node6&#45;&gt;Node16 -->
<g id="edge18_Node000006_Node000016" class="edge">
<title>Node6&#45;&gt;Node16</title>
<g id="a_edge18_Node000006_Node000016"><a xlink:title=" ">
<path fill="none" stroke="#63b8ff" d="M436.38,-167.59C436.38,-161.01 436.38,-151.96 436.38,-143.73"/>
<polygon fill="#63b8ff" stroke="#63b8ff" points="439.88,-143.81 436.38,-133.81 432.88,-143.81 439.88,-143.81"/>
</a>
</g>
</g>
<!-- Node18 -->
<g id="Node000018" class="node">
<title>Node18</title>
<g id="a_Node000018"><a xlink:href="yn_unknownbase_8h.html" target="_top" xlink:title="Yena SWR COM 기반 헤더 (v2.x)">
<polygon fill="white" stroke="#666666" points="774.88,-132 677.88,-132 677.88,-112 774.88,-112 774.88,-132"/>
<text xml:space="preserve" text-anchor="middle" x="726.38" y="-118.5" font-family="Helvetica,sans-Serif" font-size="10.00">ynUnknownbase.h</text>
</a>
</g>
</g>
<!-- Node6&#45;&gt;Node18 -->
<g id="edge26_Node000006_Node000018" class="edge">
<title>Node6&#45;&gt;Node18</title>
<g id="a_edge26_Node000006_Node000018"><a xlink:title=" ">
<path fill="none" stroke="#63b8ff" d="M459.62,-172.67C504.06,-164.4 602.35,-146.09 666.41,-134.17"/>
<polygon fill="#63b8ff" stroke="#63b8ff" points="666.88,-137.64 676.07,-132.37 665.6,-130.76 666.88,-137.64"/>
</a>
</g>
</g>
<!-- Node19 -->
<g id="Node000019" class="node">
<title>Node19</title>
<g id="a_Node000019"><a xlink:href="ynx9types_8h.html" target="_top" xlink:title="\u{2b50} Yena SW 엔진 자료형 정의 : DX9 (d3d9types.h) 대응">
<polygon fill="white" stroke="#666666" points="854,-76 784.75,-76 784.75,-56 854,-56 854,-76"/>
<text xml:space="preserve" text-anchor="middle" x="819.38" y="-62.5" font-family="Helvetica,sans-Serif" font-size="10.00">ynx9types.h</text>
</a>
</g>
</g>
<!-- Node6&#45;&gt;Node19 -->
<g id="edge28_Node000006_Node000019" class="edge">
<title>Node6&#45;&gt;Node19</title>
<g id="a_edge28_Node000006_Node000019"><a xlink:title=" ">
<path fill="none" stroke="#63b8ff" d="M459.45,-176.7C528.39,-175.41 731.3,-168.52 784.38,-132 799.7,-121.45 808.9,-101.96 814,-87.06"/>
<polygon fill="#63b8ff" stroke="#63b8ff" points="817.25,-88.39 816.8,-77.81 810.55,-86.37 817.25,-88.39"/>
</a>
</g>
</g>
<!-- Node20 -->
<g id="Node000020" class="node">
<title>Node20</title>
<g id="a_Node000020"><a xlink:href="ynx9_8h.html" target="_top" xlink:title="\u{2b50} Yena SWR 인터페이스 헤더 : DX9 (d3d9.h) 대응">
<polygon fill="white" stroke="#666666" points="877,-132 831.75,-132 831.75,-112 877,-112 877,-132"/>
<text xml:space="preserve" text-anchor="middle" x="854.38" y="-118.5" font-family="Helvetica,sans-Serif" font-size="10.00">ynx9.h</text>
</a>
</g>
</g>
<!-- Node6&#45;&gt;Node20 -->
<g id="edge30_Node000006_Node000020" class="edge">
<title>Node6&#45;&gt;Node20</title>
<g id="a_edge30_Node000006_Node000020"><a xlink:title=" ">
<path fill="none" stroke="#63b8ff" d="M459.71,-175.23C519.52,-170.49 682.99,-156.19 817.38,-132 818.37,-131.82 819.38,-131.63 820.4,-131.43"/>
<polygon fill="#63b8ff" stroke="#63b8ff" points="820.86,-134.91 829.9,-129.37 819.38,-128.07 820.86,-134.91"/>
</a>
</g>
</g>
<!-- Node21 -->
<g id="Node000021" class="node">
<title>Node21</title>
<g id="a_Node000021"><a xlink:href="yn_math_8h.html" target="_top" xlink:title="Yena Math Library for DirectX / OpenGL Yens SW Renderer v2.x.">
<polygon fill="white" stroke="#666666" points="951.62,-132 895.12,-132 895.12,-112 951.62,-112 951.62,-132"/>
<text xml:space="preserve" text-anchor="middle" x="923.38" y="-118.5" font-family="Helvetica,sans-Serif" font-size="10.00">ynMath.h</text>
</a>
</g>
</g>
<!-- Node6&#45;&gt;Node21 -->
<g id="edge32_Node000006_Node000021" class="edge">
<title>Node6&#45;&gt;Node21</title>
<g id="a_edge32_Node000006_Node000021"><a xlink:title=" ">
<path fill="none" stroke="#63b8ff" d="M459.47,-175.83C524.64,-172.28 715.59,-160.23 883.49,-132.28"/>
<polygon fill="#63b8ff" stroke="#63b8ff" points="884.01,-135.74 893.28,-130.63 882.84,-128.84 884.01,-135.74"/>
</a>
</g>
</g>
<!-- Node12&#45;&gt;Node7 -->
<g id="edge14_Node000012_Node000007" class="edge">
<title>Node12&#45;&gt;Node7</title>
<g id="a_edge14_Node000012_Node000007"><a xlink:title=" ">
<path fill="none" stroke="#63b8ff" d="M555.91,-111.62C558.79,-94.01 565.08,-55.59 569,-31.65"/>
<polygon fill="#63b8ff" stroke="#63b8ff" points="572.44,-32.28 570.6,-21.85 565.53,-31.15 572.44,-32.28"/>
</a>
</g>
</g>
<!-- Node13 -->
<g id="Node000013" class="node">
<title>Node13</title>
<g id="a_Node000013"><a xlink:title=" ">
<polygon fill="#e0e0e0" stroke="#999999" points="652,-76 600.75,-76 600.75,-56 652,-56 652,-76"/>
<text xml:space="preserve" text-anchor="middle" x="626.38" y="-62.5" font-family="Helvetica,sans-Serif" font-size="10.00">assert.h</text>
</a>
</g>
</g>
<!-- Node12&#45;&gt;Node13 -->
<g id="edge15_Node000012_Node000013" class="edge">
<title>Node12&#45;&gt;Node13</title>
<g id="a_edge15_Node000012_Node000013"><a xlink:title=" ">
<path fill="none" stroke="#63b8ff" d="M566.92,-111.59C577.34,-103.77 592.42,-92.46 604.79,-83.19"/>
<polygon fill="#63b8ff" stroke="#63b8ff" points="606.87,-86.01 612.77,-77.21 602.67,-80.41 606.87,-86.01"/>
</a>
</g>
</g>
<!-- Node15 -->
<g id="Node000015" class="node">
<title>Node15</title>
<g id="a_Node000015"><a xlink:title=" ">
<polygon fill="#e0e0e0" stroke="#999999" points="728.38,-76 670.38,-76 670.38,-56 728.38,-56 728.38,-76"/>
<text xml:space="preserve" text-anchor="middle" x="699.38" y="-62.5" font-family="Helvetica,sans-Serif" font-size="10.00">exception</text>
</a>
</g>
</g>
<!-- Node14&#45;&gt;Node15 -->
<g id="edge17_Node000014_Node000015" class="edge">
<title>Node14&#45;&gt;Node15</title>
<g id="a_edge17_Node000014_Node000015"><a xlink:title=" ">
<path fill="none" stroke="#63b8ff" d="M644.05,-111.59C653.65,-103.85 667.5,-92.69 678.94,-83.47"/>
<polygon fill="#63b8ff" stroke="#63b8ff" points="681.07,-86.25 686.66,-77.25 676.68,-80.8 681.07,-86.25"/>
</a>
</g>
</g>
<!-- Node16&#45;&gt;Node3 -->
<g id="edge20_Node000016_Node000003" class="edge">
<title>Node16&#45;&gt;Node3</title>
<g id="a_edge20_Node000016_Node000003"><a xlink:title=" ">
<path fill="none" stroke="#63b8ff" d="M406.05,-117.17C357.09,-110.74 257.43,-96.66 163.81,-76.33"/>
<polygon fill="#63b8ff" stroke="#63b8ff" points="164.71,-72.95 154.2,-74.22 163.21,-79.79 164.71,-72.95"/>
</a>
</g>
</g>
<!-- Node16&#45;&gt;Node4 -->
<g id="edge22_Node000016_Node000004" class="edge">
<title>Node16&#45;&gt;Node4</title>
<g id="a_edge22_Node000016_Node000004"><a xlink:title=" ">
<path fill="none" stroke="#63b8ff" d="M406.09,-114.27C360.6,-104.16 274.92,-85.12 227.36,-74.55"/>
<polygon fill="#63b8ff" stroke="#63b8ff" points="228.42,-71.2 217.89,-72.45 226.9,-78.03 228.42,-71.2"/>
</a>
</g>
</g>
<!-- Node16&#45;&gt;Node7 -->
<g id="edge19_Node000016_Node000007" class="edge">
<title>Node16&#45;&gt;Node7</title>
<g id="a_edge19_Node000016_Node000007"><a xlink:title=" ">
<path fill="none" stroke="#63b8ff" d="M431.25,-111.58C424.6,-97.94 415.21,-72.51 427.38,-56 450.59,-24.49 495.66,-14.39 529.42,-11.47"/>
<polygon fill="#63b8ff" stroke="#63b8ff" points="529.58,-14.97 539.32,-10.81 529.11,-7.98 529.58,-14.97"/>
</a>
</g>
</g>
<!-- Node16&#45;&gt;Node8 -->
<g id="edge21_Node000016_Node000008" class="edge">
<title>Node16&#45;&gt;Node8</title>
<g id="a_edge21_Node000016_Node000008"><a xlink:title=" ">
<path fill="none" stroke="#63b8ff" d="M411.81,-111.59C389,-102.85 354.81,-89.76 329.37,-80.02"/>
<polygon fill="#63b8ff" stroke="#63b8ff" points="330.72,-76.79 320.13,-76.48 328.22,-83.33 330.72,-76.79"/>
</a>
</g>
</g>
<!-- Node16&#45;&gt;Node10 -->
<g id="edge23_Node000016_Node000010" class="edge">
<title>Node16&#45;&gt;Node10</title>
<g id="a_edge23_Node000016_Node000010"><a xlink:title=" ">
<path fill="none" stroke="#63b8ff" d="M422.79,-111.59C411.34,-103.67 394.71,-92.16 381.22,-82.82"/>
<polygon fill="#63b8ff" stroke="#63b8ff" points="383.53,-80.16 373.31,-77.34 379.54,-85.91 383.53,-80.16"/>
</a>
</g>
</g>
<!-- Node16&#45;&gt;Node11 -->
<g id="edge25_Node000016_Node000011" class="edge">
<title>Node16&#45;&gt;Node11</title>
<g id="a_edge25_Node000016_Node000011"><a xlink:title=" ">
<path fill="none" stroke="#63b8ff" d="M450.31,-111.59C462.05,-103.67 479.11,-92.16 492.94,-82.82"/>
<polygon fill="#63b8ff" stroke="#63b8ff" points="494.75,-85.82 501.08,-77.33 490.83,-80.02 494.75,-85.82"/>
</a>
</g>
</g>
<!-- Node17 -->
<g id="Node000017" class="node">
<title>Node17</title>
<g id="a_Node000017"><a xlink:title=" ">
<polygon fill="#e0e0e0" stroke="#999999" points="470.75,-76 436,-76 436,-56 470.75,-56 470.75,-76"/>
<text xml:space="preserve" text-anchor="middle" x="453.38" y="-62.5" font-family="Helvetica,sans-Serif" font-size="10.00">map</text>
</a>
</g>
</g>
<!-- Node16&#45;&gt;Node17 -->
<g id="edge24_Node000016_Node000017" class="edge">
<title>Node16&#45;&gt;Node17</title>
<g id="a_edge24_Node000016_Node000017"><a xlink:title=" ">
<path fill="none" stroke="#63b8ff" d="M439.34,-111.59C441.46,-104.86 444.39,-95.53 447.03,-87.15"/>
<polygon fill="#63b8ff" stroke="#63b8ff" points="450.33,-88.33 449.99,-77.74 443.65,-86.23 450.33,-88.33"/>
</a>
</g>
</g>
<!-- Node18&#45;&gt;Node7 -->
<g id="edge27_Node000018_Node000007" class="edge">
<title>Node18&#45;&gt;Node7</title>
<g id="a_edge27_Node000018_Node000007"><a xlink:title=" ">
<path fill="none" stroke="#63b8ff" d="M732.01,-111.54C739.36,-97.86 749.88,-72.37 737.38,-56 722.57,-36.61 658.79,-23.57 615.01,-16.72"/>
<polygon fill="#63b8ff" stroke="#63b8ff" points="615.71,-13.29 605.3,-15.26 614.66,-20.21 615.71,-13.29"/>
</a>
</g>
</g>
<!-- Node19&#45;&gt;Node7 -->
<g id="edge29_Node000019_Node000007" class="edge">
<title>Node19&#45;&gt;Node7</title>
<g id="a_edge29_Node000019_Node000007"><a xlink:title=" ">
<path fill="none" stroke="#63b8ff" d="M784.51,-57.38C740.04,-47.66 663.16,-30.85 615.18,-20.36"/>
<polygon fill="#63b8ff" stroke="#63b8ff" points="615.93,-16.94 605.41,-18.22 614.43,-23.78 615.93,-16.94"/>
</a>
</g>
</g>
<!-- Node20&#45;&gt;Node19 -->
<g id="edge31_Node000020_Node000019" class="edge">
<title>Node20&#45;&gt;Node19</title>
<g id="a_edge31_Node000020_Node000019"><a xlink:title=" ">
<path fill="none" stroke="#63b8ff" d="M848.28,-111.59C843.66,-104.47 837.17,-94.45 831.51,-85.72"/>
<polygon fill="#63b8ff" stroke="#63b8ff" points="834.6,-84.06 826.22,-77.57 828.73,-87.86 834.6,-84.06"/>
</a>
</g>
</g>
</g>
</svg>

<g id="navigator" transform="translate(0 0)" fill="#404254">
  <rect fill="#f2f5e9" fill-opacity="0.5" stroke="#606060" stroke-width=".5" x="0" y="0" width="60" height="60"/>
  <use id="zoomplus" xlink:href="#zoomPlus" x="17" y="9" onmousedown="handleZoom(evt,'in')"/>
  <use id="zoomminus" xlink:href="#zoomMin" x="42" y="9" onmousedown="handleZoom(evt,'out')"/>
  <use id="reset" xlink:href="#resetDef" x="30" y="36" onmousedown="handleReset()"/>
   <use id="arrowup" xlink:href="#arrowUp" x="0" y="0" onmousedown="handlePan(0,-1)"/>
  <use id="arrowright" xlink:href="#arrowRight" x="0" y="0" onmousedown="handlePan(1,0)"/>
  <use id="arrowdown" xlink:href="#arrowDown" x="0" y="0" onmousedown="handlePan(0,1)"/>
  <use id="arrowleft" xlink:href="#arrowLeft" x="0" y="0" onmousedown="handlePan(-1,0)"/>
</g>
<svg viewBox="0 0 15 15" width="100%" height="30px" preserveAspectRatio="xMaxYMin meet">
 <g id="arrow_out" transform="scale(0.3 0.3)">
  <a xlink:href="_render_8cpp__incl_org.svg" target="_base">
   <rect id="button" ry="5" rx="5" y="6" x="6" height="38" width="38"
        fill="#f2f5e9" fill-opacity="0.5" stroke="#606060" stroke-width="1.0"/>
   <path id="arrow"
     d="M 11.500037,31.436501 C 11.940474,20.09759 22.043105,11.32322 32.158766,21.979434 L 37.068811,17.246167 C 37.068811,17.246167 37.088388,32 37.088388,32 L 22.160133,31.978069 C 22.160133,31.978069 26.997745,27.140456 26.997745,27.140456 C 18.528582,18.264221 13.291696,25.230495 11.500037,31.436501 z"
     style="fill:#404040;"/>
  </a>
 </g>
</svg>

<style type='text/css'>
<![CDATA[
[data-mouse-over-selected='false'] { opacity: 0.7; }
[data-mouse-over-selected='true']  { opacity: 1.0; }
]]>
</style>
<script type="application/ecmascript"><![CDATA[
document.addEventListener('DOMContentLoaded', (event) => {
  highlightEdges();
  highlightAdjacentNodes();
});
]]></script>
</svg>
