<?xml version="1.0" encoding="UTF-8" standalone="no"?>
<!DOCTYPE svg PUBLIC "-//W3C//DTD SVG 1.1//EN"
 "http://www.w3.org/Graphics/SVG/1.1/DTD/svg11.dtd">
<!-- Generated by graphviz version 13.1.2 (20250808.2320)
 -->
<!-- Title: Src/Render.h Pages: 1 -->
<svg width="184pt" height="84pt"
 viewBox="0.00 0.00 184.00 84.00" xmlns="http://www.w3.org/2000/svg" xmlns:xlink="http://www.w3.org/1999/xlink">
<g id="graph0" class="graph" transform="scale(1 1) rotate(0) translate(4 80)">
<title>Src/Render.h</title>
<!-- Node1 -->
<g id="Node000001" class="node">
<title>Node1</title>
<g id="a_Node000001"><a xlink:title="예제 기본 렌더링/프레임웍 헤더">
<polygon fill="#999999" stroke="#666666" points="127,-76 53.25,-76 53.25,-56 127,-56 127,-76"/>
<text xml:space="preserve" text-anchor="middle" x="90.12" y="-62.5" font-family="Helvetica,sans-Serif" font-size="10.00">Src/Render.h</text>
</a>
</g>
</g>
<!-- Node2 -->
<g id="Node000002" class="node">
<title>Node2</title>
<g id="a_Node000002"><a xlink:href="_render_8cpp.html" target="_top" xlink:title="\u{2b50} 예제 기본 렌더링/프레임웍 소스">
<polygon fill="white" stroke="#666666" points="84.25,-20 0,-20 0,0 84.25,0 84.25,-20"/>
<text xml:space="preserve" text-anchor="middle" x="42.12" y="-6.5" font-family="Helvetica,sans-Serif" font-size="10.00">Src/Render.cpp</text>
</a>
</g>
</g>
<!-- Node1&#45;&gt;Node2 -->
<g id="edge1_Node000001_Node000002" class="edge">
<title>Node1&#45;&gt;Node2</title>
<g id="a_edge1_Node000001_Node000002"><a xlink:title=" ">
<path fill="none" stroke="#63b8ff" d="M74.13,-47C66.18,-38.06 56.9,-27.62 50.39,-20.3"/>
<polygon fill="#63b8ff" stroke="#63b8ff" points="71.5,-49.31 80.76,-54.46 76.73,-44.66 71.5,-49.31"/>
</a>
</g>
</g>
<!-- Node3 -->
<g id="Node000003" class="node">
<title>Node3</title>
<g id="a_Node000003"><a xlink:href="main_8cpp.html" target="_top" xlink:title="예제 애플리케이션 메인 / 윈도 프레임워크 소스">
<polygon fill="white" stroke="#666666" points="176,-20 102.25,-20 102.25,0 176,0 176,-20"/>
<text xml:space="preserve" text-anchor="middle" x="139.12" y="-6.5" font-family="Helvetica,sans-Serif" font-size="10.00">Src/main.cpp</text>
</a>
</g>
</g>
<!-- Node1&#45;&gt;Node3 -->
<g id="edge2_Node000001_Node000003" class="edge">
<title>Node1&#45;&gt;Node3</title>
<g id="a_edge2_Node000001_Node000003"><a xlink:title=" ">
<path fill="none" stroke="#63b8ff" d="M106.2,-47.29C114.37,-38.28 123.97,-27.7 130.69,-20.3"/>
<polygon fill="#63b8ff" stroke="#63b8ff" points="103.81,-44.72 99.68,-54.47 108.99,-49.42 103.81,-44.72"/>
</a>
</g>
</g>
</g>
</svg>
