<?xml version="1.0" encoding="UTF-8" standalone="no"?>
<!DOCTYPE svg PUBLIC "-//W3C//DTD SVG 1.1//EN"
 "http://www.w3.org/Graphics/SVG/1.1/DTD/svg11.dtd">
<!-- Generated by graphviz version 13.1.2 (20250808.2320)
 -->
<!-- Title: Yena/Yena.cpp Pages: 1 -->
<!--zoomable 308 -->

<svg id="main" version="1.1" xmlns="http://www.w3.org/2000/svg" xmlns:xlink="http://www.w3.org/1999/xlink" xml:space="preserve" onload="init(evt)">

<style type="text/css"><![CDATA[
.node, .edge {opacity: 0.7;}
.node.selected, .edge.selected {opacity: 1;}
.edge:hover path { stroke: red; }
.edge:hover polygon { stroke: red; fill: red; }
]]></style>

<defs>
  <circle id="rim" cx="0" cy="0" r="7"/>
  <circle id="rim2" cx="0" cy="0" r="3.5"/>
  <g id="zoomPlus">
    <use xlink:href="#rim" fill="#404040"><set attributeName="fill" to="#808080" begin="zoomplus.mouseover" end="zoomplus.mouseout"/></use>
    <path d="M-4,0h8M0,-4v8" fill="none" stroke="white" stroke-width="1.5" pointer-events="none"/>
  </g>
  <g id="zoomMin">
    <use xlink:href="#rim" fill="#404040"><set attributeName="fill" to="#808080" begin="zoomminus.mouseover" end="zoomminus.mouseout"/></use>
    <path d="M-4,0h8" fill="none" stroke="white" stroke-width="1.5" pointer-events="none"/>
  </g>
  <g id="arrowUp" transform="translate(30 24)">
    <use xlink:href="#rim"/>
    <path pointer-events="none" fill="none" stroke="white" stroke-width="1.5" d="M0,-3.0v7 M-2.5,-0.5L0,-3.0L2.5,-0.5"/>
  </g>
  <g id="arrowRight" transform="rotate(90) translate(36 -43)">
    <use xlink:href="#rim"/>
    <path pointer-events="none" fill="none" stroke="white" stroke-width="1.5" d="M0,-3.0v7 M-2.5,-0.5L0,-3.0L2.5,-0.5"/>
  </g>
  <g id="arrowDown" transform="rotate(180) translate(-30 -48)">
    <use xlink:href="#rim"/>
    <path pointer-events="none" fill="none" stroke="white" stroke-width="1.5" d="M0,-3.0v7 M-2.5,-0.5L0,-3.0L2.5,-0.5"/>
  </g>
  <g id="arrowLeft" transform="rotate(270) translate(-36 17)">
    <use xlink:href="#rim"/>
    <path pointer-events="none" fill="none" stroke="white" stroke-width="1.5" d="M0,-3.0v7 M-2.5,-0.5L0,-3.0L2.5,-0.5"/>
  </g>
  <g id="resetDef">
    <use xlink:href="#rim2" fill="#404040"><set attributeName="fill" to="#808080" begin="reset.mouseover" end="reset.mouseout"/></use>
  </g>
</defs>
<script type="application/ecmascript">
var viewWidth = 949;
var viewHeight = 308;
var sectionId = 'dynsection-0';
</script>
<script type="application/ecmascript" xlink:href="svg.min.js"/>
<svg id="graph" class="graph">
<g id="viewport">
<title>Yena/Yena.cpp</title>
<!-- Node1 -->
<g id="Node000001" class="node">
<title>Node1</title>
<g id="a_Node000001"><a xlink:title="\u{2b50} Yena SWR 기본 소스 파일 (v1.x)">
<polygon fill="#999999" stroke="#666666" points="655.25,-300 574,-300 574,-280 655.25,-280 655.25,-300"/>
<text xml:space="preserve" text-anchor="middle" x="614.62" y="-286.5" font-family="Helvetica,sans-Serif" font-size="10.00">Yena/Yena.cpp</text>
</a>
</g>
</g>
<!-- Node2 -->
<g id="Node000002" class="node">
<title>Node2</title>
<g id="a_Node000002"><a xlink:href="_yena_8h.html" target="_top" xlink:title="\u{2b50} Yena SWR 기본 헤더 파일 (v1.x)">
<polygon fill="white" stroke="#666666" points="464.62,-244 418.62,-244 418.62,-224 464.62,-224 464.62,-244"/>
<text xml:space="preserve" text-anchor="middle" x="441.62" y="-230.5" font-family="Helvetica,sans-Serif" font-size="10.00">Yena.h</text>
</a>
</g>
</g>
<!-- Node1&#45;&gt;Node2 -->
<g id="edge1_Node000001_Node000002" class="edge">
<title>Node1&#45;&gt;Node2</title>
<g id="a_edge1_Node000001_Node000002"><a xlink:title=" ">
<path fill="none" stroke="#63b8ff" d="M584.49,-279.59C554.23,-270.15 507.66,-255.61 475.98,-245.72"/>
<polygon fill="#63b8ff" stroke="#63b8ff" points="477.07,-242.4 466.49,-242.76 474.99,-249.08 477.07,-242.4"/>
</a>
</g>
</g>
<!-- Node21 -->
<g id="Node000021" class="node">
<title>Node21</title>
<g id="a_Node000021"><a xlink:href="yn_b3_class_8h.html" target="_top" xlink:title="B3Yena 클래스 선행 선언 헤더.">
<polygon fill="white" stroke="#666666" points="682.75,-244 610.5,-244 610.5,-224 682.75,-224 682.75,-244"/>
<text xml:space="preserve" text-anchor="middle" x="646.62" y="-230.5" font-family="Helvetica,sans-Serif" font-size="10.00">ynB3Class.h</text>
</a>
</g>
</g>
<!-- Node1&#45;&gt;Node21 -->
<g id="edge32_Node000001_Node000021" class="edge">
<title>Node1&#45;&gt;Node21</title>
<g id="a_edge32_Node000001_Node000021"><a xlink:title=" ">
<path fill="none" stroke="#63b8ff" d="M620.2,-279.59C624.37,-272.55 630.23,-262.67 635.37,-254"/>
<polygon fill="#63b8ff" stroke="#63b8ff" points="638.26,-255.99 640.34,-245.6 632.23,-252.42 638.26,-255.99"/>
</a>
</g>
</g>
<!-- Node22 -->
<g id="Node000022" class="node">
<title>Node22</title>
<g id="a_Node000022"><a xlink:href="yn_b3_vertex_buffer_8h.html" target="_top" xlink:title="정점 버퍼 운용 클래스 헤더">
<polygon fill="white" stroke="#666666" points="723.62,-188 623.62,-188 623.62,-168 723.62,-168 723.62,-188"/>
<text xml:space="preserve" text-anchor="middle" x="673.62" y="-174.5" font-family="Helvetica,sans-Serif" font-size="10.00">ynB3VertexBuffer.h</text>
</a>
</g>
</g>
<!-- Node1&#45;&gt;Node22 -->
<g id="edge33_Node000001_Node000022" class="edge">
<title>Node1&#45;&gt;Node22</title>
<g id="a_edge33_Node000001_Node000022"><a xlink:title=" ">
<path fill="none" stroke="#63b8ff" d="M608.97,-279.56C601.86,-266.34 591.69,-241.92 601.62,-224 609.14,-210.44 622.64,-200.42 635.93,-193.33"/>
<polygon fill="#63b8ff" stroke="#63b8ff" points="637.12,-196.64 644.59,-189.13 634.06,-190.35 637.12,-196.64"/>
</a>
</g>
</g>
<!-- Node23 -->
<g id="Node000023" class="node">
<title>Node23</title>
<g id="a_Node000023"><a xlink:href="yn_b3_graphics_8h.html" target="_top" xlink:title="\u{2b50} Yena 그래픽스 엔진 헤더 파일">
<polygon fill="white" stroke="#666666" points="786.5,-244 700.75,-244 700.75,-224 786.5,-224 786.5,-244"/>
<text xml:space="preserve" text-anchor="middle" x="743.62" y="-230.5" font-family="Helvetica,sans-Serif" font-size="10.00">ynB3Graphics.h</text>
</a>
</g>
</g>
<!-- Node1&#45;&gt;Node23 -->
<g id="edge41_Node000001_Node000023" class="edge">
<title>Node1&#45;&gt;Node23</title>
<g id="a_edge41_Node000001_Node000023"><a xlink:title=" ">
<path fill="none" stroke="#63b8ff" d="M637.1,-279.59C657.41,-271.09 687.58,-258.46 710.63,-248.81"/>
<polygon fill="#63b8ff" stroke="#63b8ff" points="711.71,-252.15 719.58,-245.06 709.01,-245.7 711.71,-252.15"/>
</a>
</g>
</g>
<!-- Node3 -->
<g id="Node000003" class="node">
<title>Node3</title>
<g id="a_Node000003"><a xlink:title=" ">
<polygon fill="#e0e0e0" stroke="#999999" points="334.88,-20 272.38,-20 272.38,0 334.88,0 334.88,-20"/>
<text xml:space="preserve" text-anchor="middle" x="303.62" y="-6.5" font-family="Helvetica,sans-Serif" font-size="10.00">windows.h</text>
</a>
</g>
</g>
<!-- Node2&#45;&gt;Node3 -->
<g id="edge2_Node000002_Node000003" class="edge">
<title>Node2&#45;&gt;Node3</title>
<g id="a_edge2_Node000002_Node000003"><a xlink:title=" ">
<path fill="none" stroke="#63b8ff" d="M435.87,-223.74C415.09,-190.32 343.67,-75.42 315.34,-29.84"/>
<polygon fill="#63b8ff" stroke="#63b8ff" points="318.45,-28.23 310.2,-21.58 312.51,-31.92 318.45,-28.23"/>
</a>
</g>
</g>
<!-- Node4 -->
<g id="Node000004" class="node">
<title>Node4</title>
<g id="a_Node000004"><a xlink:title=" ">
<polygon fill="#e0e0e0" stroke="#999999" points="506.62,-132 460.62,-132 460.62,-112 506.62,-112 506.62,-132"/>
<text xml:space="preserve" text-anchor="middle" x="483.62" y="-118.5" font-family="Helvetica,sans-Serif" font-size="10.00">tchar.h</text>
</a>
</g>
</g>
<!-- Node2&#45;&gt;Node4 -->
<g id="edge3_Node000002_Node000004" class="edge">
<title>Node2&#45;&gt;Node4</title>
<g id="a_edge3_Node000002_Node000004"><a xlink:title=" ">
<path fill="none" stroke="#63b8ff" d="M436.04,-223.73C428.98,-210.72 418.74,-186.53 427.62,-168 433.44,-155.86 444.31,-145.95 454.94,-138.56"/>
<polygon fill="#63b8ff" stroke="#63b8ff" points="456.65,-141.62 463.2,-133.3 452.89,-135.72 456.65,-141.62"/>
</a>
</g>
</g>
<!-- Node5 -->
<g id="Node000005" class="node">
<title>Node5</title>
<g id="a_Node000005"><a xlink:title=" ">
<polygon fill="#e0e0e0" stroke="#999999" points="570.62,-132 524.62,-132 524.62,-112 570.62,-112 570.62,-132"/>
<text xml:space="preserve" text-anchor="middle" x="547.62" y="-118.5" font-family="Helvetica,sans-Serif" font-size="10.00">math.h</text>
</a>
</g>
</g>
<!-- Node2&#45;&gt;Node5 -->
<g id="edge4_Node000002_Node000005" class="edge">
<title>Node2&#45;&gt;Node5</title>
<g id="a_edge4_Node000002_Node000005"><a xlink:title=" ">
<path fill="none" stroke="#63b8ff" d="M442.1,-223.53C443.24,-209.83 447.17,-184.34 460.62,-168 474.23,-151.48 495.49,-140.32 513.59,-133.25"/>
<polygon fill="#63b8ff" stroke="#63b8ff" points="514.71,-136.57 522.93,-129.88 512.33,-129.99 514.71,-136.57"/>
</a>
</g>
</g>
<!-- Node6 -->
<g id="Node000006" class="node">
<title>Node6</title>
<g id="a_Node000006"><a xlink:title=" ">
<polygon fill="#e0e0e0" stroke="#999999" points="634.25,-132 589,-132 589,-112 634.25,-112 634.25,-132"/>
<text xml:space="preserve" text-anchor="middle" x="611.62" y="-118.5" font-family="Helvetica,sans-Serif" font-size="10.00">stdio.h</text>
</a>
</g>
</g>
<!-- Node2&#45;&gt;Node6 -->
<g id="edge5_Node000002_Node000006" class="edge">
<title>Node2&#45;&gt;Node6</title>
<g id="a_edge5_Node000002_Node000006"><a xlink:title=" ">
<path fill="none" stroke="#63b8ff" d="M464.97,-224.42C485.26,-216.45 515.04,-203.49 538.62,-188 559.77,-174.12 581.04,-154.36 595.12,-140.28"/>
<polygon fill="#63b8ff" stroke="#63b8ff" points="597.34,-143.03 601.84,-133.43 592.34,-138.13 597.34,-143.03"/>
</a>
</g>
</g>
<!-- Node7 -->
<g id="Node000007" class="node">
<title>Node7</title>
<g id="a_Node000007"><a xlink:title=" ">
<polygon fill="#e0e0e0" stroke="#999999" points="864.62,-132 824.62,-132 824.62,-112 864.62,-112 864.62,-132"/>
<text xml:space="preserve" text-anchor="middle" x="844.62" y="-118.5" font-family="Helvetica,sans-Serif" font-size="10.00">string</text>
</a>
</g>
</g>
<!-- Node2&#45;&gt;Node7 -->
<g id="edge6_Node000002_Node000007" class="edge">
<title>Node2&#45;&gt;Node7</title>
<g id="a_edge6_Node000002_Node000007"><a xlink:title=" ">
<path fill="none" stroke="#63b8ff" d="M464.69,-231.04C527.26,-225.52 699.04,-208.83 751.62,-188 780.32,-176.64 808.73,-154.83 826.45,-139.63"/>
<polygon fill="#63b8ff" stroke="#63b8ff" points="828.37,-142.6 833.56,-133.37 823.74,-137.35 828.37,-142.6"/>
</a>
</g>
</g>
<!-- Node8 -->
<g id="Node000008" class="node">
<title>Node8</title>
<g id="a_Node000008"><a xlink:title=" ">
<polygon fill="#e0e0e0" stroke="#999999" points="695.12,-132 652.12,-132 652.12,-112 695.12,-112 695.12,-132"/>
<text xml:space="preserve" text-anchor="middle" x="673.62" y="-118.5" font-family="Helvetica,sans-Serif" font-size="10.00">vector</text>
</a>
</g>
</g>
<!-- Node2&#45;&gt;Node8 -->
<g id="edge7_Node000002_Node000008" class="edge">
<title>Node2&#45;&gt;Node8</title>
<g id="a_edge7_Node000002_Node000008"><a xlink:title=" ">
<path fill="none" stroke="#63b8ff" d="M465.02,-226.01C490.37,-218.09 531.72,-204.17 565.62,-188 596.18,-173.43 629.24,-152.74 650.63,-138.64"/>
<polygon fill="#63b8ff" stroke="#63b8ff" points="652.49,-141.6 658.86,-133.14 648.6,-135.78 652.49,-141.6"/>
</a>
</g>
</g>
<!-- Node9 -->
<g id="Node000009" class="node">
<title>Node9</title>
<g id="a_Node000009"><a xlink:title=" ">
<polygon fill="#e0e0e0" stroke="#999999" points="768.5,-132 712.75,-132 712.75,-112 768.5,-112 768.5,-132"/>
<text xml:space="preserve" text-anchor="middle" x="740.62" y="-118.5" font-family="Helvetica,sans-Serif" font-size="10.00">algorithm</text>
</a>
</g>
</g>
<!-- Node2&#45;&gt;Node9 -->
<g id="edge8_Node000002_Node000009" class="edge">
<title>Node2&#45;&gt;Node9</title>
<g id="a_edge8_Node000002_Node000009"><a xlink:title=" ">
<path fill="none" stroke="#63b8ff" d="M465.1,-230.99C530.97,-225.12 713.99,-207.22 732.62,-188 743.77,-176.51 745.07,-158 743.99,-143.67"/>
<polygon fill="#63b8ff" stroke="#63b8ff" points="747.49,-143.43 742.8,-133.93 740.54,-144.28 747.49,-143.43"/>
</a>
</g>
</g>
<!-- Node10 -->
<g id="Node000010" class="node">
<title>Node10</title>
<g id="a_Node000010"><a xlink:href="yn_define_8h.html" target="_top" xlink:title="Yena SW 엔진 기본 정의 문서.">
<polygon fill="white" stroke="#666666" points="63.25,-76 0,-76 0,-56 63.25,-56 63.25,-76"/>
<text xml:space="preserve" text-anchor="middle" x="31.62" y="-62.5" font-family="Helvetica,sans-Serif" font-size="10.00">ynDefine.h</text>
</a>
</g>
</g>
<!-- Node2&#45;&gt;Node10 -->
<g id="edge9_Node000002_Node000010" class="edge">
<title>Node2&#45;&gt;Node10</title>
<g id="a_edge9_Node000002_Node000010"><a xlink:title=" ">
<path fill="none" stroke="#63b8ff" d="M418.22,-233.8C366.69,-234.65 240.63,-231.7 147.62,-188 99.75,-165.5 61.38,-113.95 43.15,-85.94"/>
<polygon fill="#63b8ff" stroke="#63b8ff" points="46.28,-84.34 37.98,-77.75 40.36,-88.08 46.28,-84.34"/>
</a>
</g>
</g>
<!-- Node12 -->
<g id="Node000012" class="node">
<title>Node12</title>
<g id="a_Node000012"><a xlink:href="yn_error_8h.html" target="_top" xlink:title="에러, 예외 및 로그 처리 헤더 파일">
<polygon fill="white" stroke="#666666" points="919.5,-188 863.75,-188 863.75,-168 919.5,-168 919.5,-188"/>
<text xml:space="preserve" text-anchor="middle" x="891.62" y="-174.5" font-family="Helvetica,sans-Serif" font-size="10.00">ynError.h</text>
</a>
</g>
</g>
<!-- Node2&#45;&gt;Node12 -->
<g id="edge12_Node000002_Node000012" class="edge">
<title>Node2&#45;&gt;Node12</title>
<g id="a_edge12_Node000002_Node000012"><a xlink:title=" ">
<path fill="none" stroke="#63b8ff" d="M464.89,-230.57C525.31,-224.19 692.11,-206.23 830.62,-188 837.58,-187.09 844.96,-186.05 852.11,-185.01"/>
<polygon fill="#63b8ff" stroke="#63b8ff" points="852.53,-188.49 861.91,-183.57 851.51,-181.57 852.53,-188.49"/>
</a>
</g>
</g>
<!-- Node14 -->
<g id="Node000014" class="node">
<title>Node14</title>
<g id="a_Node000014"><a xlink:href="yn_g_u_i_d_8h.html" target="_top" xlink:title="Yena SWR COM / GUID 헤더">
<polygon fill="white" stroke="#666666" points="529.75,-188 469.5,-188 469.5,-168 529.75,-168 529.75,-188"/>
<text xml:space="preserve" text-anchor="middle" x="499.62" y="-174.5" font-family="Helvetica,sans-Serif" font-size="10.00">ynGUID.h</text>
</a>
</g>
</g>
<!-- Node2&#45;&gt;Node14 -->
<g id="edge14_Node000002_Node000014" class="edge">
<title>Node2&#45;&gt;Node14</title>
<g id="a_edge14_Node000002_Node000014"><a xlink:title=" ">
<path fill="none" stroke="#63b8ff" d="M451.73,-223.59C459.88,-216.01 471.56,-205.13 481.34,-196.02"/>
<polygon fill="#63b8ff" stroke="#63b8ff" points="483.6,-198.71 488.53,-189.33 478.83,-193.58 483.6,-198.71"/>
</a>
</g>
</g>
<!-- Node16 -->
<g id="Node000016" class="node">
<title>Node16</title>
<g id="a_Node000016"><a xlink:href="yn_unknownbase_8h.html" target="_top" xlink:title="Yena SWR COM 기반 헤더 (v2.x)">
<polygon fill="white" stroke="#666666" points="314.12,-76 217.12,-76 217.12,-56 314.12,-56 314.12,-76"/>
<text xml:space="preserve" text-anchor="middle" x="265.62" y="-62.5" font-family="Helvetica,sans-Serif" font-size="10.00">ynUnknownbase.h</text>
</a>
</g>
</g>
<!-- Node2&#45;&gt;Node16 -->
<g id="edge22_Node000002_Node000016" class="edge">
<title>Node2&#45;&gt;Node16</title>
<g id="a_edge22_Node000002_Node000016"><a xlink:title=" ">
<path fill="none" stroke="#63b8ff" d="M418.29,-228.74C393.47,-223.16 354.32,-211.22 328.62,-188 297.83,-160.17 279.68,-113.74 271.28,-87.22"/>
<polygon fill="#63b8ff" stroke="#63b8ff" points="274.66,-86.3 268.45,-77.72 267.95,-88.3 274.66,-86.3"/>
</a>
</g>
</g>
<!-- Node17 -->
<g id="Node000017" class="node">
<title>Node17</title>
<g id="a_Node000017"><a xlink:href="ynx9types_8h.html" target="_top" xlink:title="\u{2b50} Yena SW 엔진 자료형 정의 : DX9 (d3d9types.h) 대응">
<polygon fill="white" stroke="#666666" points="240.25,-132 171,-132 171,-112 240.25,-112 240.25,-132"/>
<text xml:space="preserve" text-anchor="middle" x="205.62" y="-118.5" font-family="Helvetica,sans-Serif" font-size="10.00">ynx9types.h</text>
</a>
</g>
</g>
<!-- Node2&#45;&gt;Node17 -->
<g id="edge24_Node000002_Node000017" class="edge">
<title>Node2&#45;&gt;Node17</title>
<g id="a_edge24_Node000002_Node000017"><a xlink:title=" ">
<path fill="none" stroke="#63b8ff" d="M418.31,-228.99C387.39,-223.06 331.71,-210.17 288.62,-188 263.86,-175.26 239.22,-154.71 223.3,-140.12"/>
<polygon fill="#63b8ff" stroke="#63b8ff" points="225.79,-137.66 216.1,-133.37 221,-142.76 225.79,-137.66"/>
</a>
</g>
</g>
<!-- Node18 -->
<g id="Node000018" class="node">
<title>Node18</title>
<g id="a_Node000018"><a xlink:href="ynx9_8h.html" target="_top" xlink:title="\u{2b50} Yena SWR 인터페이스 헤더 : DX9 (d3d9.h) 대응">
<polygon fill="white" stroke="#666666" points="228.25,-188 183,-188 183,-168 228.25,-168 228.25,-188"/>
<text xml:space="preserve" text-anchor="middle" x="205.62" y="-174.5" font-family="Helvetica,sans-Serif" font-size="10.00">ynx9.h</text>
</a>
</g>
</g>
<!-- Node2&#45;&gt;Node18 -->
<g id="edge26_Node000002_Node000018" class="edge">
<title>Node2&#45;&gt;Node18</title>
<g id="a_edge26_Node000002_Node000018"><a xlink:title=" ">
<path fill="none" stroke="#63b8ff" d="M418.14,-227.73C381.05,-219.4 306.64,-202.62 243.62,-188 242.25,-187.68 240.85,-187.35 239.43,-187.02"/>
<polygon fill="#63b8ff" stroke="#63b8ff" points="240.53,-183.69 230,-184.81 238.93,-190.5 240.53,-183.69"/>
</a>
</g>
</g>
<!-- Node19 -->
<g id="Node000019" class="node">
<title>Node19</title>
<g id="a_Node000019"><a xlink:href="yn_math_8h.html" target="_top" xlink:title="\u{2b50} Yena 수학 라이브러리 Yena Math Library for DirectX / OpenGL">
<polygon fill="white" stroke="#666666" points="149.88,-132 93.38,-132 93.38,-112 149.88,-112 149.88,-132"/>
<text xml:space="preserve" text-anchor="middle" x="121.62" y="-118.5" font-family="Helvetica,sans-Serif" font-size="10.00">ynMath.h</text>
</a>
</g>
</g>
<!-- Node2&#45;&gt;Node19 -->
<g id="edge31_Node000002_Node000019" class="edge">
<title>Node2&#45;&gt;Node19</title>
<g id="a_edge31_Node000002_Node000019"><a xlink:title=" ">
<path fill="none" stroke="#63b8ff" d="M418.5,-231.24C361.38,-226.55 215.22,-212.44 173.62,-188 155.18,-177.16 140.67,-157.12 131.72,-142.14"/>
<polygon fill="#63b8ff" stroke="#63b8ff" points="134.9,-140.66 126.95,-133.66 128.8,-144.09 134.9,-140.66"/>
</a>
</g>
</g>
<!-- Node10&#45;&gt;Node3 -->
<g id="edge10_Node000010_Node000003" class="edge">
<title>Node10&#45;&gt;Node3</title>
<g id="a_edge10_Node000010_Node000003"><a xlink:title=" ">
<path fill="none" stroke="#63b8ff" d="M63.48,-57.74C66.23,-57.14 68.98,-56.55 71.62,-56 137.52,-42.2 214.26,-27.6 260.87,-18.9"/>
<polygon fill="#63b8ff" stroke="#63b8ff" points="261.37,-22.37 270.56,-17.09 260.08,-15.49 261.37,-22.37"/>
</a>
</g>
</g>
<!-- Node11 -->
<g id="Node000011" class="node">
<title>Node11</title>
<g id="a_Node000011"><a xlink:title=" ">
<polygon fill="#e0e0e0" stroke="#999999" points="57.25,-20 6,-20 6,0 57.25,0 57.25,-20"/>
<text xml:space="preserve" text-anchor="middle" x="31.62" y="-6.5" font-family="Helvetica,sans-Serif" font-size="10.00">assert.h</text>
</a>
</g>
</g>
<!-- Node10&#45;&gt;Node11 -->
<g id="edge11_Node000010_Node000011" class="edge">
<title>Node10&#45;&gt;Node11</title>
<g id="a_edge11_Node000010_Node000011"><a xlink:title=" ">
<path fill="none" stroke="#63b8ff" d="M31.62,-55.59C31.62,-49.01 31.62,-39.96 31.62,-31.73"/>
<polygon fill="#63b8ff" stroke="#63b8ff" points="35.13,-31.81 31.63,-21.81 28.13,-31.81 35.13,-31.81"/>
</a>
</g>
</g>
<!-- Node13 -->
<g id="Node000013" class="node">
<title>Node13</title>
<g id="a_Node000013"><a xlink:title=" ">
<polygon fill="#e0e0e0" stroke="#999999" points="940.62,-132 882.62,-132 882.62,-112 940.62,-112 940.62,-132"/>
<text xml:space="preserve" text-anchor="middle" x="911.62" y="-118.5" font-family="Helvetica,sans-Serif" font-size="10.00">exception</text>
</a>
</g>
</g>
<!-- Node12&#45;&gt;Node13 -->
<g id="edge13_Node000012_Node000013" class="edge">
<title>Node12&#45;&gt;Node13</title>
<g id="a_edge13_Node000012_Node000013"><a xlink:title=" ">
<path fill="none" stroke="#63b8ff" d="M895.11,-167.59C897.63,-160.78 901.14,-151.32 904.27,-142.86"/>
<polygon fill="#63b8ff" stroke="#63b8ff" points="907.46,-144.31 907.66,-133.72 900.9,-141.88 907.46,-144.31"/>
</a>
</g>
</g>
<!-- Node14&#45;&gt;Node3 -->
<g id="edge15_Node000014_Node000003" class="edge">
<title>Node14&#45;&gt;Node3</title>
<g id="a_edge15_Node000014_Node000003"><a xlink:title=" ">
<path fill="none" stroke="#63b8ff" d="M469.22,-168.87C447.78,-161.9 419.46,-150.09 399.62,-132 370.95,-105.85 381.35,-85.91 356.62,-56 347.77,-45.28 336.15,-35.1 326.05,-27.14"/>
<polygon fill="#63b8ff" stroke="#63b8ff" points="328.26,-24.42 318.18,-21.16 324.02,-30 328.26,-24.42"/>
</a>
</g>
</g>
<!-- Node14&#45;&gt;Node4 -->
<g id="edge16_Node000014_Node000004" class="edge">
<title>Node14&#45;&gt;Node4</title>
<g id="a_edge16_Node000014_Node000004"><a xlink:title=" ">
<path fill="none" stroke="#63b8ff" d="M496.84,-167.59C494.84,-160.86 492.08,-151.53 489.6,-143.15"/>
<polygon fill="#63b8ff" stroke="#63b8ff" points="493.01,-142.34 486.81,-133.75 486.3,-144.33 493.01,-142.34"/>
</a>
</g>
</g>
<!-- Node14&#45;&gt;Node5 -->
<g id="edge17_Node000014_Node000005" class="edge">
<title>Node14&#45;&gt;Node5</title>
<g id="a_edge17_Node000014_Node000005"><a xlink:title=" ">
<path fill="none" stroke="#63b8ff" d="M507.99,-167.59C514.52,-160.24 523.81,-149.8 531.74,-140.87"/>
<polygon fill="#63b8ff" stroke="#63b8ff" points="534.33,-143.23 538.35,-133.43 529.09,-138.58 534.33,-143.23"/>
</a>
</g>
</g>
<!-- Node14&#45;&gt;Node6 -->
<g id="edge18_Node000014_Node000006" class="edge">
<title>Node14&#45;&gt;Node6</title>
<g id="a_edge18_Node000014_Node000006"><a xlink:title=" ">
<path fill="none" stroke="#63b8ff" d="M519.13,-167.59C536.37,-159.28 561.78,-147.03 581.61,-137.47"/>
<polygon fill="#63b8ff" stroke="#63b8ff" points="583.11,-140.63 590.6,-133.14 580.07,-134.33 583.11,-140.63"/>
</a>
</g>
</g>
<!-- Node14&#45;&gt;Node8 -->
<g id="edge19_Node000014_Node000008" class="edge">
<title>Node14&#45;&gt;Node8</title>
<g id="a_edge19_Node000014_Node000008"><a xlink:title=" ">
<path fill="none" stroke="#63b8ff" d="M529.93,-167.59C560.89,-157.99 608.81,-143.11 640.69,-133.22"/>
<polygon fill="#63b8ff" stroke="#63b8ff" points="641.69,-136.58 650.2,-130.27 639.61,-129.89 641.69,-136.58"/>
</a>
</g>
</g>
<!-- Node14&#45;&gt;Node9 -->
<g id="edge21_Node000014_Node000009" class="edge">
<title>Node14&#45;&gt;Node9</title>
<g id="a_edge21_Node000014_Node000009"><a xlink:title=" ">
<path fill="none" stroke="#63b8ff" d="M529.91,-170.64C567.85,-162.61 635.14,-148.16 701.31,-132.74"/>
<polygon fill="#63b8ff" stroke="#63b8ff" points="701.93,-136.18 710.87,-130.5 700.34,-129.37 701.93,-136.18"/>
</a>
</g>
</g>
<!-- Node15 -->
<g id="Node000015" class="node">
<title>Node15</title>
<g id="a_Node000015"><a xlink:title=" ">
<polygon fill="#e0e0e0" stroke="#999999" points="443,-132 408.25,-132 408.25,-112 443,-112 443,-132"/>
<text xml:space="preserve" text-anchor="middle" x="425.62" y="-118.5" font-family="Helvetica,sans-Serif" font-size="10.00">map</text>
</a>
</g>
</g>
<!-- Node14&#45;&gt;Node15 -->
<g id="edge20_Node000014_Node000015" class="edge">
<title>Node14&#45;&gt;Node15</title>
<g id="a_edge20_Node000014_Node000015"><a xlink:title=" ">
<path fill="none" stroke="#63b8ff" d="M486.74,-167.59C475.91,-159.7 460.21,-148.24 447.44,-138.92"/>
<polygon fill="#63b8ff" stroke="#63b8ff" points="449.73,-136.26 439.59,-133.19 445.6,-141.91 449.73,-136.26"/>
</a>
</g>
</g>
<!-- Node16&#45;&gt;Node3 -->
<g id="edge23_Node000016_Node000003" class="edge">
<title>Node16&#45;&gt;Node3</title>
<g id="a_edge23_Node000016_Node000003"><a xlink:title=" ">
<path fill="none" stroke="#63b8ff" d="M272.24,-55.59C277.31,-48.39 284.46,-38.23 290.65,-29.43"/>
<polygon fill="#63b8ff" stroke="#63b8ff" points="293.32,-31.73 296.21,-21.54 287.59,-27.7 293.32,-31.73"/>
</a>
</g>
</g>
<!-- Node17&#45;&gt;Node3 -->
<g id="edge25_Node000017_Node000003" class="edge">
<title>Node17&#45;&gt;Node3</title>
<g id="a_edge25_Node000017_Node000003"><a xlink:title=" ">
<path fill="none" stroke="#63b8ff" d="M203.28,-111.69C200.45,-98.19 197.36,-72.93 208.62,-56 220.6,-38.01 241.82,-27.03 261.18,-20.43"/>
<polygon fill="#63b8ff" stroke="#63b8ff" points="261.99,-23.84 270.52,-17.56 259.93,-17.15 261.99,-23.84"/>
</a>
</g>
</g>
<!-- Node18&#45;&gt;Node17 -->
<g id="edge27_Node000018_Node000017" class="edge">
<title>Node18&#45;&gt;Node17</title>
<g id="a_edge27_Node000018_Node000017"><a xlink:title=" ">
<path fill="none" stroke="#63b8ff" d="M205.62,-167.59C205.62,-161.01 205.62,-151.96 205.62,-143.73"/>
<polygon fill="#63b8ff" stroke="#63b8ff" points="209.13,-143.81 205.63,-133.81 202.13,-143.81 209.13,-143.81"/>
</a>
</g>
</g>
<!-- Node18&#45;&gt;Node19 -->
<g id="edge28_Node000018_Node000019" class="edge">
<title>Node18&#45;&gt;Node19</title>
<g id="a_edge28_Node000018_Node000019"><a xlink:title=" ">
<path fill="none" stroke="#63b8ff" d="M190.99,-167.59C178.54,-159.59 160.41,-147.93 145.8,-138.54"/>
<polygon fill="#63b8ff" stroke="#63b8ff" points="147.95,-135.76 137.64,-133.3 144.16,-141.65 147.95,-135.76"/>
</a>
</g>
</g>
<!-- Node19&#45;&gt;Node10 -->
<g id="edge29_Node000019_Node000010" class="edge">
<title>Node19&#45;&gt;Node10</title>
<g id="a_edge29_Node000019_Node000010"><a xlink:title=" ">
<path fill="none" stroke="#63b8ff" d="M105.95,-111.59C92.48,-103.51 72.81,-91.71 57.08,-82.27"/>
<polygon fill="#63b8ff" stroke="#63b8ff" points="59.1,-79.4 48.72,-77.26 55.5,-85.4 59.1,-79.4"/>
</a>
</g>
</g>
<!-- Node20 -->
<g id="Node000020" class="node">
<title>Node20</title>
<g id="a_Node000020"><a xlink:title=" ">
<polygon fill="#e0e0e0" stroke="#999999" points="160.12,-76 81.12,-76 81.12,-56 160.12,-56 160.12,-76"/>
<text xml:space="preserve" text-anchor="middle" x="120.62" y="-62.5" font-family="Helvetica,sans-Serif" font-size="10.00">DirectXmath.h</text>
</a>
</g>
</g>
<!-- Node19&#45;&gt;Node20 -->
<g id="edge30_Node000019_Node000020" class="edge">
<title>Node19&#45;&gt;Node20</title>
<g id="a_edge30_Node000019_Node000020"><a xlink:title=" ">
<path fill="none" stroke="#63b8ff" d="M121.45,-111.59C121.33,-105.01 121.16,-95.96 121.01,-87.73"/>
<polygon fill="#63b8ff" stroke="#63b8ff" points="124.51,-87.75 120.83,-77.81 117.51,-87.87 124.51,-87.75"/>
</a>
</g>
</g>
<!-- Node22&#45;&gt;Node3 -->
<g id="edge34_Node000022_Node000003" class="edge">
<title>Node22&#45;&gt;Node3</title>
<g id="a_edge34_Node000022_Node000003"><a xlink:title=" ">
<path fill="none" stroke="#63b8ff" d="M715.92,-167.51C753.36,-157.13 798.99,-138.4 777.62,-112 723.41,-45.02 452.53,-20.57 346.38,-13.47"/>
<polygon fill="#63b8ff" stroke="#63b8ff" points="346.88,-9.99 336.67,-12.84 346.42,-16.98 346.88,-9.99"/>
</a>
</g>
</g>
<!-- Node22&#45;&gt;Node4 -->
<g id="edge35_Node000022_Node000004" class="edge">
<title>Node22&#45;&gt;Node4</title>
<g id="a_edge35_Node000022_Node000004"><a xlink:title=" ">
<path fill="none" stroke="#63b8ff" d="M640.53,-167.59C606.24,-157.85 552.88,-142.68 518.09,-132.8"/>
<polygon fill="#63b8ff" stroke="#63b8ff" points="519.09,-129.44 508.52,-130.07 517.18,-136.17 519.09,-129.44"/>
</a>
</g>
</g>
<!-- Node22&#45;&gt;Node5 -->
<g id="edge36_Node000022_Node000005" class="edge">
<title>Node22&#45;&gt;Node5</title>
<g id="a_edge36_Node000022_Node000005"><a xlink:title=" ">
<path fill="none" stroke="#63b8ff" d="M651.68,-167.59C631.92,-159.13 602.63,-146.58 580.16,-136.94"/>
<polygon fill="#63b8ff" stroke="#63b8ff" points="581.71,-133.8 571.13,-133.08 578.95,-140.23 581.71,-133.8"/>
</a>
</g>
</g>
<!-- Node22&#45;&gt;Node6 -->
<g id="edge37_Node000022_Node000006" class="edge">
<title>Node22&#45;&gt;Node6</title>
<g id="a_edge37_Node000022_Node000006"><a xlink:title=" ">
<path fill="none" stroke="#63b8ff" d="M662.83,-167.59C654.02,-159.93 641.37,-148.91 630.85,-139.75"/>
<polygon fill="#63b8ff" stroke="#63b8ff" points="633.28,-137.22 623.44,-133.29 628.68,-142.5 633.28,-137.22"/>
</a>
</g>
</g>
<!-- Node22&#45;&gt;Node7 -->
<g id="edge38_Node000022_Node000007" class="edge">
<title>Node22&#45;&gt;Node7</title>
<g id="a_edge38_Node000022_Node000007"><a xlink:title=" ">
<path fill="none" stroke="#63b8ff" d="M703.41,-167.59C734.26,-157.85 782.25,-142.7 813.57,-132.81"/>
<polygon fill="#63b8ff" stroke="#63b8ff" points="814.36,-136.23 822.84,-129.88 812.25,-129.55 814.36,-136.23"/>
</a>
</g>
</g>
<!-- Node22&#45;&gt;Node8 -->
<g id="edge39_Node000022_Node000008" class="edge">
<title>Node22&#45;&gt;Node8</title>
<g id="a_edge39_Node000022_Node000008"><a xlink:title=" ">
<path fill="none" stroke="#63b8ff" d="M673.62,-167.59C673.62,-161.01 673.62,-151.96 673.62,-143.73"/>
<polygon fill="#63b8ff" stroke="#63b8ff" points="677.13,-143.81 673.63,-133.81 670.13,-143.81 677.13,-143.81"/>
</a>
</g>
</g>
<!-- Node22&#45;&gt;Node9 -->
<g id="edge40_Node000022_Node000009" class="edge">
<title>Node22&#45;&gt;Node9</title>
<g id="a_edge40_Node000022_Node000009"><a xlink:title=" ">
<path fill="none" stroke="#63b8ff" d="M685.3,-167.59C694.9,-159.85 708.75,-148.69 720.19,-139.47"/>
<polygon fill="#63b8ff" stroke="#63b8ff" points="722.32,-142.25 727.91,-133.25 717.93,-136.8 722.32,-142.25"/>
</a>
</g>
</g>
</g>
</svg>

<g id="navigator" transform="translate(0 0)" fill="#404254">
  <rect fill="#f2f5e9" fill-opacity="0.5" stroke="#606060" stroke-width=".5" x="0" y="0" width="60" height="60"/>
  <use id="zoomplus" xlink:href="#zoomPlus" x="17" y="9" onmousedown="handleZoom(evt,'in')"/>
  <use id="zoomminus" xlink:href="#zoomMin" x="42" y="9" onmousedown="handleZoom(evt,'out')"/>
  <use id="reset" xlink:href="#resetDef" x="30" y="36" onmousedown="handleReset()"/>
   <use id="arrowup" xlink:href="#arrowUp" x="0" y="0" onmousedown="handlePan(0,-1)"/>
  <use id="arrowright" xlink:href="#arrowRight" x="0" y="0" onmousedown="handlePan(1,0)"/>
  <use id="arrowdown" xlink:href="#arrowDown" x="0" y="0" onmousedown="handlePan(0,1)"/>
  <use id="arrowleft" xlink:href="#arrowLeft" x="0" y="0" onmousedown="handlePan(-1,0)"/>
</g>
<svg viewBox="0 0 15 15" width="100%" height="30px" preserveAspectRatio="xMaxYMin meet">
 <g id="arrow_out" transform="scale(0.3 0.3)">
  <a xlink:href="_yena_8cpp__incl_org.svg" target="_base">
   <rect id="button" ry="5" rx="5" y="6" x="6" height="38" width="38"
        fill="#f2f5e9" fill-opacity="0.5" stroke="#606060" stroke-width="1.0"/>
   <path id="arrow"
     d="M 11.500037,31.436501 C 11.940474,20.09759 22.043105,11.32322 32.158766,21.979434 L 37.068811,17.246167 C 37.068811,17.246167 37.088388,32 37.088388,32 L 22.160133,31.978069 C 22.160133,31.978069 26.997745,27.140456 26.997745,27.140456 C 18.528582,18.264221 13.291696,25.230495 11.500037,31.436501 z"
     style="fill:#404040;"/>
  </a>
 </g>
</svg>

<style type='text/css'>
<![CDATA[
[data-mouse-over-selected='false'] { opacity: 0.7; }
[data-mouse-over-selected='true']  { opacity: 1.0; }
]]>
</style>
<script type="application/ecmascript"><![CDATA[
document.addEventListener('DOMContentLoaded', (event) => {
  highlightEdges();
  highlightAdjacentNodes();
});
]]></script>
</svg>
