<?xml version="1.0" encoding="UTF-8" standalone="no"?>
<!DOCTYPE svg PUBLIC "-//W3C//DTD SVG 1.1//EN"
 "http://www.w3.org/Graphics/SVG/1.1/DTD/svg11.dtd">
<!-- Generated by graphviz version 13.1.2 (20250808.2320)
 -->
<!-- Title: Yena/Yena.h Pages: 1 -->
<svg width="801pt" height="196pt"
 viewBox="0.00 0.00 801.00 196.00" xmlns="http://www.w3.org/2000/svg" xmlns:xlink="http://www.w3.org/1999/xlink">
<g id="graph0" class="graph" transform="scale(1 1) rotate(0) translate(4 192)">
<title>Yena/Yena.h</title>
<!-- Node1 -->
<g id="Node000001" class="node">
<title>Node1</title>
<g id="a_Node000001"><a xlink:title="\u{2b50} Yena SWR 기본 헤더 파일 (v1.x)">
<polygon fill="#999999" stroke="#666666" points="410.39,-188 339.64,-188 339.64,-168 410.39,-168 410.39,-188"/>
<text xml:space="preserve" text-anchor="middle" x="375.01" y="-174.5" font-family="Helvetica,sans-Serif" font-size="10.00">Yena/Yena.h</text>
</a>
</g>
</g>
<!-- Node2 -->
<g id="Node000002" class="node">
<title>Node2</title>
<g id="a_Node000002"><a xlink:title=" ">
<polygon fill="#e0e0e0" stroke="#999999" points="222.26,-20 159.76,-20 159.76,0 222.26,0 222.26,-20"/>
<text xml:space="preserve" text-anchor="middle" x="191.01" y="-6.5" font-family="Helvetica,sans-Serif" font-size="10.00">windows.h</text>
</a>
</g>
</g>
<!-- Node1&#45;&gt;Node2 -->
<g id="edge1_Node000001_Node000002" class="edge">
<title>Node1&#45;&gt;Node2</title>
<g id="a_edge1_Node000001_Node000002"><a xlink:title=" ">
<path fill="none" stroke="#63b8ff" d="M339.3,-175.28C251.16,-170.66 28.85,-156.67 7.01,-132 -12.91,-109.49 13.96,-73.52 35.01,-56 67.13,-29.27 114.36,-18.41 148.44,-14"/>
<polygon fill="#63b8ff" stroke="#63b8ff" points="148.4,-17.53 157.94,-12.91 147.61,-10.57 148.4,-17.53"/>
</a>
</g>
</g>
<!-- Node3 -->
<g id="Node000003" class="node">
<title>Node3</title>
<g id="a_Node000003"><a xlink:title=" ">
<polygon fill="#e0e0e0" stroke="#999999" points="99.01,-76 53.01,-76 53.01,-56 99.01,-56 99.01,-76"/>
<text xml:space="preserve" text-anchor="middle" x="76.01" y="-62.5" font-family="Helvetica,sans-Serif" font-size="10.00">tchar.h</text>
</a>
</g>
</g>
<!-- Node1&#45;&gt;Node3 -->
<g id="edge2_Node000001_Node000003" class="edge">
<title>Node1&#45;&gt;Node3</title>
<g id="a_edge2_Node000001_Node000003"><a xlink:title=" ">
<path fill="none" stroke="#63b8ff" d="M339.35,-171.89C300.41,-165.56 236.69,-152.95 185.01,-132 153.08,-119.05 119.48,-97.66 98.17,-82.98"/>
<polygon fill="#63b8ff" stroke="#63b8ff" points="100.19,-80.12 89.99,-77.25 96.17,-85.85 100.19,-80.12"/>
</a>
</g>
</g>
<!-- Node4 -->
<g id="Node000004" class="node">
<title>Node4</title>
<g id="a_Node000004"><a xlink:title=" ">
<polygon fill="#e0e0e0" stroke="#999999" points="163.01,-76 117.01,-76 117.01,-56 163.01,-56 163.01,-76"/>
<text xml:space="preserve" text-anchor="middle" x="140.01" y="-62.5" font-family="Helvetica,sans-Serif" font-size="10.00">math.h</text>
</a>
</g>
</g>
<!-- Node1&#45;&gt;Node4 -->
<g id="edge3_Node000001_Node000004" class="edge">
<title>Node1&#45;&gt;Node4</title>
<g id="a_edge3_Node000001_Node000004"><a xlink:title=" ">
<path fill="none" stroke="#63b8ff" d="M339.38,-171.02C306.71,-164.56 257.67,-152.36 219.01,-132 195.1,-119.41 171.71,-98.83 156.67,-84.2"/>
<polygon fill="#63b8ff" stroke="#63b8ff" points="159.45,-82.03 149.9,-77.45 154.51,-86.99 159.45,-82.03"/>
</a>
</g>
</g>
<!-- Node5 -->
<g id="Node000005" class="node">
<title>Node5</title>
<g id="a_Node000005"><a xlink:title=" ">
<polygon fill="#e0e0e0" stroke="#999999" points="316.64,-76 271.39,-76 271.39,-56 316.64,-56 316.64,-76"/>
<text xml:space="preserve" text-anchor="middle" x="294.01" y="-62.5" font-family="Helvetica,sans-Serif" font-size="10.00">stdio.h</text>
</a>
</g>
</g>
<!-- Node1&#45;&gt;Node5 -->
<g id="edge4_Node000001_Node000005" class="edge">
<title>Node1&#45;&gt;Node5</title>
<g id="a_edge4_Node000001_Node000005"><a xlink:title=" ">
<path fill="none" stroke="#63b8ff" d="M368.11,-167.62C354.72,-149.44 325.01,-109.09 307.55,-85.38"/>
<polygon fill="#63b8ff" stroke="#63b8ff" points="310.55,-83.55 301.8,-77.57 304.91,-87.7 310.55,-83.55"/>
</a>
</g>
</g>
<!-- Node6 -->
<g id="Node000006" class="node">
<title>Node6</title>
<g id="a_Node000006"><a xlink:title=" ">
<polygon fill="#e0e0e0" stroke="#999999" points="645.01,-132 605.01,-132 605.01,-112 645.01,-112 645.01,-132"/>
<text xml:space="preserve" text-anchor="middle" x="625.01" y="-118.5" font-family="Helvetica,sans-Serif" font-size="10.00">string</text>
</a>
</g>
</g>
<!-- Node1&#45;&gt;Node6 -->
<g id="edge5_Node000001_Node000006" class="edge">
<title>Node1&#45;&gt;Node6</title>
<g id="a_edge5_Node000001_Node000006"><a xlink:title=" ">
<path fill="none" stroke="#63b8ff" d="M410.69,-170.17C453.62,-161.82 527.83,-146.93 591.01,-132 591.84,-131.81 592.67,-131.6 593.51,-131.4"/>
<polygon fill="#63b8ff" stroke="#63b8ff" points="594.26,-134.82 603.09,-128.97 592.54,-128.04 594.26,-134.82"/>
</a>
</g>
</g>
<!-- Node7 -->
<g id="Node000007" class="node">
<title>Node7</title>
<g id="a_Node000007"><a xlink:title=" ">
<polygon fill="#e0e0e0" stroke="#999999" points="377.51,-76 334.51,-76 334.51,-56 377.51,-56 377.51,-76"/>
<text xml:space="preserve" text-anchor="middle" x="356.01" y="-62.5" font-family="Helvetica,sans-Serif" font-size="10.00">vector</text>
</a>
</g>
</g>
<!-- Node1&#45;&gt;Node7 -->
<g id="edge6_Node000001_Node000007" class="edge">
<title>Node1&#45;&gt;Node7</title>
<g id="a_edge6_Node000001_Node000007"><a xlink:title=" ">
<path fill="none" stroke="#63b8ff" d="M373.39,-167.62C370.35,-150.01 363.72,-111.59 359.58,-87.65"/>
<polygon fill="#63b8ff" stroke="#63b8ff" points="363.04,-87.1 357.89,-77.85 356.14,-88.3 363.04,-87.1"/>
</a>
</g>
</g>
<!-- Node8 -->
<g id="Node000008" class="node">
<title>Node8</title>
<g id="a_Node000008"><a xlink:title=" ">
<polygon fill="#e0e0e0" stroke="#999999" points="450.89,-76 395.14,-76 395.14,-56 450.89,-56 450.89,-76"/>
<text xml:space="preserve" text-anchor="middle" x="423.01" y="-62.5" font-family="Helvetica,sans-Serif" font-size="10.00">algorithm</text>
</a>
</g>
</g>
<!-- Node1&#45;&gt;Node8 -->
<g id="edge7_Node000001_Node000008" class="edge">
<title>Node1&#45;&gt;Node8</title>
<g id="a_edge7_Node000001_Node000008"><a xlink:title=" ">
<path fill="none" stroke="#63b8ff" d="M379.11,-167.62C386.9,-149.76 404.02,-110.53 414.43,-86.67"/>
<polygon fill="#63b8ff" stroke="#63b8ff" points="417.53,-88.31 418.33,-77.74 411.12,-85.51 417.53,-88.31"/>
</a>
</g>
</g>
<!-- Node9 -->
<g id="Node000009" class="node">
<title>Node9</title>
<g id="a_Node000009"><a xlink:href="yn_define_8h.html" target="_top" xlink:title="Yena SW 엔진 기본 정의 문서.">
<polygon fill="white" stroke="#666666" points="485.64,-132 422.39,-132 422.39,-112 485.64,-112 485.64,-132"/>
<text xml:space="preserve" text-anchor="middle" x="454.01" y="-118.5" font-family="Helvetica,sans-Serif" font-size="10.00">ynDefine.h</text>
</a>
</g>
</g>
<!-- Node1&#45;&gt;Node9 -->
<g id="edge8_Node000001_Node000009" class="edge">
<title>Node1&#45;&gt;Node9</title>
<g id="a_edge8_Node000001_Node000009"><a xlink:title=" ">
<path fill="none" stroke="#63b8ff" d="M388.77,-167.59C400.37,-159.67 417.21,-148.16 430.88,-138.82"/>
<polygon fill="#63b8ff" stroke="#63b8ff" points="432.62,-141.87 438.9,-133.33 428.66,-136.09 432.62,-141.87"/>
</a>
</g>
</g>
<!-- Node11 -->
<g id="Node000011" class="node">
<title>Node11</title>
<g id="a_Node000011"><a xlink:href="yn_error_8h.html" target="_top" xlink:title="에러, 예외 및 로그 처리 헤더 파일">
<polygon fill="white" stroke="#666666" points="718.89,-132 663.14,-132 663.14,-112 718.89,-112 718.89,-132"/>
<text xml:space="preserve" text-anchor="middle" x="691.01" y="-118.5" font-family="Helvetica,sans-Serif" font-size="10.00">ynError.h</text>
</a>
</g>
</g>
<!-- Node1&#45;&gt;Node11 -->
<g id="edge11_Node000001_Node000011" class="edge">
<title>Node1&#45;&gt;Node11</title>
<g id="a_edge11_Node000001_Node000011"><a xlink:title=" ">
<path fill="none" stroke="#63b8ff" d="M410.85,-172.14C462.03,-165 559.23,-150.7 651.55,-132.37"/>
<polygon fill="#63b8ff" stroke="#63b8ff" points="652.18,-135.81 661.3,-130.41 650.81,-128.95 652.18,-135.81"/>
</a>
</g>
</g>
<!-- Node13 -->
<g id="Node000013" class="node">
<title>Node13</title>
<g id="a_Node000013"><a xlink:href="yn_g_u_i_d_8h.html" target="_top" xlink:title="Yena SWR COM / GUID 헤더">
<polygon fill="white" stroke="#666666" points="288.14,-132 227.89,-132 227.89,-112 288.14,-112 288.14,-132"/>
<text xml:space="preserve" text-anchor="middle" x="258.01" y="-118.5" font-family="Helvetica,sans-Serif" font-size="10.00">ynGUID.h</text>
</a>
</g>
</g>
<!-- Node1&#45;&gt;Node13 -->
<g id="edge13_Node000001_Node000013" class="edge">
<title>Node1&#45;&gt;Node13</title>
<g id="a_edge13_Node000001_Node000013"><a xlink:title=" ">
<path fill="none" stroke="#63b8ff" d="M354.63,-167.59C336.46,-159.21 309.59,-146.8 288.79,-137.21"/>
<polygon fill="#63b8ff" stroke="#63b8ff" points="290.47,-134.13 279.93,-133.11 287.54,-140.48 290.47,-134.13"/>
</a>
</g>
</g>
<!-- Node15 -->
<g id="Node000015" class="node">
<title>Node15</title>
<g id="a_Node000015"><a xlink:href="yn_unknownbase_8h.html" target="_top" xlink:title="Yena SWR COM 기반 헤더 (v2.x)">
<polygon fill="white" stroke="#666666" points="113.51,-132 16.51,-132 16.51,-112 113.51,-112 113.51,-132"/>
<text xml:space="preserve" text-anchor="middle" x="65.01" y="-118.5" font-family="Helvetica,sans-Serif" font-size="10.00">ynUnknownbase.h</text>
</a>
</g>
</g>
<!-- Node1&#45;&gt;Node15 -->
<g id="edge21_Node000001_Node000015" class="edge">
<title>Node1&#45;&gt;Node15</title>
<g id="a_edge21_Node000001_Node000015"><a xlink:title=" ">
<path fill="none" stroke="#63b8ff" d="M339.15,-170.75C286.68,-161.61 188.33,-144.48 124.81,-133.42"/>
<polygon fill="#63b8ff" stroke="#63b8ff" points="125.71,-130.02 115.25,-131.75 124.51,-136.92 125.71,-130.02"/>
</a>
</g>
</g>
<!-- Node16 -->
<g id="Node000016" class="node">
<title>Node16</title>
<g id="a_Node000016"><a xlink:href="ynx9types_8h.html" target="_top" xlink:title="\u{2b50} Yena SW 엔진 자료형 정의 : DX9 (d3d9types.h) 대응">
<polygon fill="white" stroke="#666666" points="646.64,-76 577.39,-76 577.39,-56 646.64,-56 646.64,-76"/>
<text xml:space="preserve" text-anchor="middle" x="612.01" y="-62.5" font-family="Helvetica,sans-Serif" font-size="10.00">ynx9types.h</text>
</a>
</g>
</g>
<!-- Node1&#45;&gt;Node16 -->
<g id="edge23_Node000001_Node000016" class="edge">
<title>Node1&#45;&gt;Node16</title>
<g id="a_edge23_Node000001_Node000016"><a xlink:title=" ">
<path fill="none" stroke="#63b8ff" d="M410.6,-174.84C449.46,-171.06 512.26,-160.65 558.01,-132 576.43,-120.47 591.6,-100.54 601.13,-85.77"/>
<polygon fill="#63b8ff" stroke="#63b8ff" points="604,-87.78 606.24,-77.42 598.03,-84.13 604,-87.78"/>
</a>
</g>
</g>
<!-- Node17 -->
<g id="Node000017" class="node">
<title>Node17</title>
<g id="a_Node000017"><a xlink:href="ynx9_8h.html" target="_top" xlink:title="\u{2b50} Yena SWR 인터페이스 헤더 : DX9 (d3d9.h) 대응">
<polygon fill="white" stroke="#666666" points="548.64,-132 503.39,-132 503.39,-112 548.64,-112 548.64,-132"/>
<text xml:space="preserve" text-anchor="middle" x="526.01" y="-118.5" font-family="Helvetica,sans-Serif" font-size="10.00">ynx9.h</text>
</a>
</g>
</g>
<!-- Node1&#45;&gt;Node17 -->
<g id="edge25_Node000001_Node000017" class="edge">
<title>Node1&#45;&gt;Node17</title>
<g id="a_edge25_Node000001_Node000017"><a xlink:title=" ">
<path fill="none" stroke="#63b8ff" d="M401.32,-167.59C426.57,-158.56 464.82,-144.88 492.3,-135.06"/>
<polygon fill="#63b8ff" stroke="#63b8ff" points="493.31,-138.41 501.55,-131.75 490.96,-131.82 493.31,-138.41"/>
</a>
</g>
</g>
<!-- Node18 -->
<g id="Node000018" class="node">
<title>Node18</title>
<g id="a_Node000018"><a xlink:href="yn_math_8h.html" target="_top" xlink:title="Yena Math Library for DirectX / OpenGL Yens SW Renderer v2.x.">
<polygon fill="white" stroke="#666666" points="793.26,-132 736.76,-132 736.76,-112 793.26,-112 793.26,-132"/>
<text xml:space="preserve" text-anchor="middle" x="765.01" y="-118.5" font-family="Helvetica,sans-Serif" font-size="10.00">ynMath.h</text>
</a>
</g>
</g>
<!-- Node1&#45;&gt;Node18 -->
<g id="edge27_Node000001_Node000018" class="edge">
<title>Node1&#45;&gt;Node18</title>
<g id="a_edge27_Node000001_Node000018"><a xlink:title=" ">
<path fill="none" stroke="#63b8ff" d="M410.79,-173.77C472.84,-167.89 604.59,-154.14 725.14,-132.36"/>
<polygon fill="#63b8ff" stroke="#63b8ff" points="725.7,-135.81 734.91,-130.57 724.44,-128.93 725.7,-135.81"/>
</a>
</g>
</g>
<!-- Node9&#45;&gt;Node2 -->
<g id="edge9_Node000009_Node000002" class="edge">
<title>Node9&#45;&gt;Node2</title>
<g id="a_edge9_Node000009_Node000002"><a xlink:title=" ">
<path fill="none" stroke="#63b8ff" d="M480.31,-111.54C509.33,-99.71 549.52,-78.27 530.01,-56 510.77,-34.04 320.95,-19.26 234.05,-13.59"/>
<polygon fill="#63b8ff" stroke="#63b8ff" points="234.46,-10.11 224.25,-12.96 234.01,-17.09 234.46,-10.11"/>
</a>
</g>
</g>
<!-- Node10 -->
<g id="Node000010" class="node">
<title>Node10</title>
<g id="a_Node000010"><a xlink:title=" ">
<polygon fill="#e0e0e0" stroke="#999999" points="520.64,-76 469.39,-76 469.39,-56 520.64,-56 520.64,-76"/>
<text xml:space="preserve" text-anchor="middle" x="495.01" y="-62.5" font-family="Helvetica,sans-Serif" font-size="10.00">assert.h</text>
</a>
</g>
</g>
<!-- Node9&#45;&gt;Node10 -->
<g id="edge10_Node000009_Node000010" class="edge">
<title>Node9&#45;&gt;Node10</title>
<g id="a_edge10_Node000009_Node000010"><a xlink:title=" ">
<path fill="none" stroke="#63b8ff" d="M461.16,-111.59C466.62,-104.39 474.34,-94.23 481.02,-85.43"/>
<polygon fill="#63b8ff" stroke="#63b8ff" points="483.78,-87.58 487.04,-77.5 478.2,-83.35 483.78,-87.58"/>
</a>
</g>
</g>
<!-- Node12 -->
<g id="Node000012" class="node">
<title>Node12</title>
<g id="a_Node000012"><a xlink:title=" ">
<polygon fill="#e0e0e0" stroke="#999999" points="723.01,-76 665.01,-76 665.01,-56 723.01,-56 723.01,-76"/>
<text xml:space="preserve" text-anchor="middle" x="694.01" y="-62.5" font-family="Helvetica,sans-Serif" font-size="10.00">exception</text>
</a>
</g>
</g>
<!-- Node11&#45;&gt;Node12 -->
<g id="edge12_Node000011_Node000012" class="edge">
<title>Node11&#45;&gt;Node12</title>
<g id="a_edge12_Node000011_Node000012"><a xlink:title=" ">
<path fill="none" stroke="#63b8ff" d="M691.54,-111.59C691.9,-105.01 692.4,-95.96 692.86,-87.73"/>
<polygon fill="#63b8ff" stroke="#63b8ff" points="696.35,-87.99 693.41,-77.81 689.36,-87.6 696.35,-87.99"/>
</a>
</g>
</g>
<!-- Node13&#45;&gt;Node2 -->
<g id="edge14_Node000013_Node000002" class="edge">
<title>Node13&#45;&gt;Node2</title>
<g id="a_edge14_Node000013_Node000002"><a xlink:title=" ">
<path fill="none" stroke="#63b8ff" d="M244.75,-111.75C233.92,-103.54 218.98,-90.6 210.01,-76 201.62,-62.35 196.78,-44.81 194.09,-31.39"/>
<polygon fill="#63b8ff" stroke="#63b8ff" points="197.61,-31.2 192.44,-21.95 190.71,-32.4 197.61,-31.2"/>
</a>
</g>
</g>
<!-- Node13&#45;&gt;Node3 -->
<g id="edge15_Node000013_Node000003" class="edge">
<title>Node13&#45;&gt;Node3</title>
<g id="a_edge15_Node000013_Node000003"><a xlink:title=" ">
<path fill="none" stroke="#63b8ff" d="M227.55,-111.96C195.09,-102.33 143.83,-87.12 110.06,-77.1"/>
<polygon fill="#63b8ff" stroke="#63b8ff" points="111.37,-73.84 100.79,-74.35 109.38,-80.55 111.37,-73.84"/>
</a>
</g>
</g>
<!-- Node13&#45;&gt;Node4 -->
<g id="edge16_Node000013_Node000004" class="edge">
<title>Node13&#45;&gt;Node4</title>
<g id="a_edge16_Node000013_Node000004"><a xlink:title=" ">
<path fill="none" stroke="#63b8ff" d="M237.46,-111.59C219.13,-103.21 192.03,-90.8 171.06,-81.21"/>
<polygon fill="#63b8ff" stroke="#63b8ff" points="172.65,-78.09 162.1,-77.11 169.74,-84.45 172.65,-78.09"/>
</a>
</g>
</g>
<!-- Node13&#45;&gt;Node5 -->
<g id="edge17_Node000013_Node000005" class="edge">
<title>Node13&#45;&gt;Node5</title>
<g id="a_edge17_Node000013_Node000005"><a xlink:title=" ">
<path fill="none" stroke="#63b8ff" d="M264.28,-111.59C269.03,-104.47 275.71,-94.45 281.54,-85.72"/>
<polygon fill="#63b8ff" stroke="#63b8ff" points="284.34,-87.82 286.97,-77.56 278.52,-83.94 284.34,-87.82"/>
</a>
</g>
</g>
<!-- Node13&#45;&gt;Node7 -->
<g id="edge18_Node000013_Node000007" class="edge">
<title>Node13&#45;&gt;Node7</title>
<g id="a_edge18_Node000013_Node000007"><a xlink:title=" ">
<path fill="none" stroke="#63b8ff" d="M275.08,-111.59C289.89,-103.44 311.58,-91.48 328.78,-82"/>
<polygon fill="#63b8ff" stroke="#63b8ff" points="330.41,-85.1 337.48,-77.21 327.04,-78.97 330.41,-85.1"/>
</a>
</g>
</g>
<!-- Node13&#45;&gt;Node8 -->
<g id="edge20_Node000013_Node000008" class="edge">
<title>Node13&#45;&gt;Node8</title>
<g id="a_edge20_Node000013_Node000008"><a xlink:title=" ">
<path fill="none" stroke="#63b8ff" d="M286.75,-111.59C313.69,-102.78 354.17,-89.53 384.01,-79.76"/>
<polygon fill="#63b8ff" stroke="#63b8ff" points="385.02,-83.12 393.44,-76.68 382.85,-76.46 385.02,-83.12"/>
</a>
</g>
</g>
<!-- Node14 -->
<g id="Node000014" class="node">
<title>Node14</title>
<g id="a_Node000014"><a xlink:title=" ">
<polygon fill="#e0e0e0" stroke="#999999" points="253.39,-76 218.64,-76 218.64,-56 253.39,-56 253.39,-76"/>
<text xml:space="preserve" text-anchor="middle" x="236.01" y="-62.5" font-family="Helvetica,sans-Serif" font-size="10.00">map</text>
</a>
</g>
</g>
<!-- Node13&#45;&gt;Node14 -->
<g id="edge19_Node000013_Node000014" class="edge">
<title>Node13&#45;&gt;Node14</title>
<g id="a_edge19_Node000013_Node000014"><a xlink:title=" ">
<path fill="none" stroke="#63b8ff" d="M254.18,-111.59C251.41,-104.78 247.55,-95.32 244.11,-86.86"/>
<polygon fill="#63b8ff" stroke="#63b8ff" points="247.39,-85.64 240.37,-77.7 240.9,-88.28 247.39,-85.64"/>
</a>
</g>
</g>
<!-- Node15&#45;&gt;Node2 -->
<g id="edge22_Node000015_Node000002" class="edge">
<title>Node15&#45;&gt;Node2</title>
<g id="a_edge22_Node000015_Node000002"><a xlink:title=" ">
<path fill="none" stroke="#63b8ff" d="M57.2,-111.75C46.86,-98.32 31.32,-73.16 44.01,-56 67.76,-23.9 113.94,-13.95 148.24,-11.22"/>
<polygon fill="#63b8ff" stroke="#63b8ff" points="148.08,-14.74 157.85,-10.65 147.66,-7.75 148.08,-14.74"/>
</a>
</g>
</g>
<!-- Node16&#45;&gt;Node2 -->
<g id="edge24_Node000016_Node000002" class="edge">
<title>Node16&#45;&gt;Node2</title>
<g id="a_edge24_Node000016_Node000002"><a xlink:title=" ">
<path fill="none" stroke="#63b8ff" d="M576.99,-58.3C572.3,-57.48 567.55,-56.69 563.01,-56 444.16,-37.91 303.04,-22.49 233.74,-15.31"/>
<polygon fill="#63b8ff" stroke="#63b8ff" points="234.27,-11.84 223.96,-14.3 233.55,-18.81 234.27,-11.84"/>
</a>
</g>
</g>
<!-- Node17&#45;&gt;Node16 -->
<g id="edge26_Node000017_Node000016" class="edge">
<title>Node17&#45;&gt;Node16</title>
<g id="a_edge26_Node000017_Node000016"><a xlink:title=" ">
<path fill="none" stroke="#63b8ff" d="M540.99,-111.59C553.74,-103.59 572.31,-91.93 587.26,-82.54"/>
<polygon fill="#63b8ff" stroke="#63b8ff" points="589.03,-85.57 595.63,-77.28 585.3,-79.64 589.03,-85.57"/>
</a>
</g>
</g>
</g>
</svg>
