<?xml version="1.0" encoding="UTF-8" standalone="no"?>
<!DOCTYPE svg PUBLIC "-//W3C//DTD SVG 1.1//EN"
 "http://www.w3.org/Graphics/SVG/1.1/DTD/svg11.dtd">
<!-- Generated by graphviz version 13.1.2 (20250808.2320)
 -->
<!-- Title: Yena/Yena.h Pages: 1 -->
<!--zoomable 252 -->

<svg id="main" version="1.1" xmlns="http://www.w3.org/2000/svg" xmlns:xlink="http://www.w3.org/1999/xlink" xml:space="preserve" onload="init(evt)">

<style type="text/css"><![CDATA[
.node, .edge {opacity: 0.7;}
.node.selected, .edge.selected {opacity: 1;}
.edge:hover path { stroke: red; }
.edge:hover polygon { stroke: red; fill: red; }
]]></style>

<defs>
  <circle id="rim" cx="0" cy="0" r="7"/>
  <circle id="rim2" cx="0" cy="0" r="3.5"/>
  <g id="zoomPlus">
    <use xlink:href="#rim" fill="#404040"><set attributeName="fill" to="#808080" begin="zoomplus.mouseover" end="zoomplus.mouseout"/></use>
    <path d="M-4,0h8M0,-4v8" fill="none" stroke="white" stroke-width="1.5" pointer-events="none"/>
  </g>
  <g id="zoomMin">
    <use xlink:href="#rim" fill="#404040"><set attributeName="fill" to="#808080" begin="zoomminus.mouseover" end="zoomminus.mouseout"/></use>
    <path d="M-4,0h8" fill="none" stroke="white" stroke-width="1.5" pointer-events="none"/>
  </g>
  <g id="arrowUp" transform="translate(30 24)">
    <use xlink:href="#rim"/>
    <path pointer-events="none" fill="none" stroke="white" stroke-width="1.5" d="M0,-3.0v7 M-2.5,-0.5L0,-3.0L2.5,-0.5"/>
  </g>
  <g id="arrowRight" transform="rotate(90) translate(36 -43)">
    <use xlink:href="#rim"/>
    <path pointer-events="none" fill="none" stroke="white" stroke-width="1.5" d="M0,-3.0v7 M-2.5,-0.5L0,-3.0L2.5,-0.5"/>
  </g>
  <g id="arrowDown" transform="rotate(180) translate(-30 -48)">
    <use xlink:href="#rim"/>
    <path pointer-events="none" fill="none" stroke="white" stroke-width="1.5" d="M0,-3.0v7 M-2.5,-0.5L0,-3.0L2.5,-0.5"/>
  </g>
  <g id="arrowLeft" transform="rotate(270) translate(-36 17)">
    <use xlink:href="#rim"/>
    <path pointer-events="none" fill="none" stroke="white" stroke-width="1.5" d="M0,-3.0v7 M-2.5,-0.5L0,-3.0L2.5,-0.5"/>
  </g>
  <g id="resetDef">
    <use xlink:href="#rim2" fill="#404040"><set attributeName="fill" to="#808080" begin="reset.mouseover" end="reset.mouseout"/></use>
  </g>
</defs>
<script type="application/ecmascript">
var viewWidth = 837;
var viewHeight = 252;
var sectionId = 'dynsection-0';
</script>
<script type="application/ecmascript" xlink:href="svg.min.js"/>
<svg id="graph" class="graph">
<g id="viewport">
<title>Yena/Yena.h</title>
<!-- Node1 -->
<g id="Node000001" class="node">
<title>Node1</title>
<g id="a_Node000001"><a xlink:title="\u{2b50} Yena SWR 기본 헤더 파일 (v1.x)">
<polygon fill="#999999" stroke="#666666" points="415,-244 344.25,-244 344.25,-224 415,-224 415,-244"/>
<text xml:space="preserve" text-anchor="middle" x="379.62" y="-230.5" font-family="Helvetica,sans-Serif" font-size="10.00">Yena/Yena.h</text>
</a>
</g>
</g>
<!-- Node2 -->
<g id="Node000002" class="node">
<title>Node2</title>
<g id="a_Node000002"><a xlink:title=" ">
<polygon fill="#e0e0e0" stroke="#999999" points="334.88,-20 272.38,-20 272.38,0 334.88,0 334.88,-20"/>
<text xml:space="preserve" text-anchor="middle" x="303.62" y="-6.5" font-family="Helvetica,sans-Serif" font-size="10.00">windows.h</text>
</a>
</g>
</g>
<!-- Node1&#45;&gt;Node2 -->
<g id="edge1_Node000001_Node000002" class="edge">
<title>Node1&#45;&gt;Node2</title>
<g id="a_edge1_Node000001_Node000002"><a xlink:title=" ">
<path fill="none" stroke="#63b8ff" d="M415.24,-231.15C506.01,-225.11 734.18,-200.91 666.62,-112 627.66,-60.71 433.8,-28.56 346.44,-16.46"/>
<polygon fill="#63b8ff" stroke="#63b8ff" points="346.97,-13 336.59,-15.12 346.03,-19.93 346.97,-13"/>
</a>
</g>
</g>
<!-- Node3 -->
<g id="Node000003" class="node">
<title>Node3</title>
<g id="a_Node000003"><a xlink:title=" ">
<polygon fill="#e0e0e0" stroke="#999999" points="305.62,-132 259.62,-132 259.62,-112 305.62,-112 305.62,-132"/>
<text xml:space="preserve" text-anchor="middle" x="282.62" y="-118.5" font-family="Helvetica,sans-Serif" font-size="10.00">tchar.h</text>
</a>
</g>
</g>
<!-- Node1&#45;&gt;Node3 -->
<g id="edge2_Node000001_Node000003" class="edge">
<title>Node1&#45;&gt;Node3</title>
<g id="a_edge2_Node000001_Node000003"><a xlink:title=" ">
<path fill="none" stroke="#63b8ff" d="M371.35,-223.62C355.18,-205.27 319.11,-164.37 298.28,-140.75"/>
<polygon fill="#63b8ff" stroke="#63b8ff" points="301.11,-138.68 291.88,-133.49 295.86,-143.31 301.11,-138.68"/>
</a>
</g>
</g>
<!-- Node4 -->
<g id="Node000004" class="node">
<title>Node4</title>
<g id="a_Node000004"><a xlink:title=" ">
<polygon fill="#e0e0e0" stroke="#999999" points="369.62,-132 323.62,-132 323.62,-112 369.62,-112 369.62,-132"/>
<text xml:space="preserve" text-anchor="middle" x="346.62" y="-118.5" font-family="Helvetica,sans-Serif" font-size="10.00">math.h</text>
</a>
</g>
</g>
<!-- Node1&#45;&gt;Node4 -->
<g id="edge3_Node000001_Node000004" class="edge">
<title>Node1&#45;&gt;Node4</title>
<g id="a_edge3_Node000001_Node000004"><a xlink:title=" ">
<path fill="none" stroke="#63b8ff" d="M376.81,-223.62C371.5,-205.92 359.9,-167.24 352.72,-143.32"/>
<polygon fill="#63b8ff" stroke="#63b8ff" points="356.09,-142.38 349.87,-133.8 349.39,-144.39 356.09,-142.38"/>
</a>
</g>
</g>
<!-- Node5 -->
<g id="Node000005" class="node">
<title>Node5</title>
<g id="a_Node000005"><a xlink:title=" ">
<polygon fill="#e0e0e0" stroke="#999999" points="523.25,-132 478,-132 478,-112 523.25,-112 523.25,-132"/>
<text xml:space="preserve" text-anchor="middle" x="500.62" y="-118.5" font-family="Helvetica,sans-Serif" font-size="10.00">stdio.h</text>
</a>
</g>
</g>
<!-- Node1&#45;&gt;Node5 -->
<g id="edge4_Node000001_Node000005" class="edge">
<title>Node1&#45;&gt;Node5</title>
<g id="a_edge4_Node000001_Node000005"><a xlink:title=" ">
<path fill="none" stroke="#63b8ff" d="M399.3,-223.53C414.84,-215.45 436.52,-202.81 452.62,-188 467.44,-174.38 480.72,-155.62 489.54,-141.75"/>
<polygon fill="#63b8ff" stroke="#63b8ff" points="492.32,-143.91 494.57,-133.56 486.35,-140.25 492.32,-143.91"/>
</a>
</g>
</g>
<!-- Node6 -->
<g id="Node000006" class="node">
<title>Node6</title>
<g id="a_Node000006"><a xlink:title=" ">
<polygon fill="#e0e0e0" stroke="#999999" points="753.62,-188 713.62,-188 713.62,-168 753.62,-168 753.62,-188"/>
<text xml:space="preserve" text-anchor="middle" x="733.62" y="-174.5" font-family="Helvetica,sans-Serif" font-size="10.00">string</text>
</a>
</g>
</g>
<!-- Node1&#45;&gt;Node6 -->
<g id="edge5_Node000001_Node000006" class="edge">
<title>Node1&#45;&gt;Node6</title>
<g id="a_edge5_Node000001_Node000006"><a xlink:title=" ">
<path fill="none" stroke="#63b8ff" d="M415.37,-229.38C474.76,-223.05 597.34,-208.65 699.62,-188 700.46,-187.83 701.3,-187.66 702.14,-187.47"/>
<polygon fill="#63b8ff" stroke="#63b8ff" points="702.84,-190.91 711.75,-185.17 701.21,-184.1 702.84,-190.91"/>
</a>
</g>
</g>
<!-- Node7 -->
<g id="Node000007" class="node">
<title>Node7</title>
<g id="a_Node000007"><a xlink:title=" ">
<polygon fill="#e0e0e0" stroke="#999999" points="584.12,-132 541.12,-132 541.12,-112 584.12,-112 584.12,-132"/>
<text xml:space="preserve" text-anchor="middle" x="562.62" y="-118.5" font-family="Helvetica,sans-Serif" font-size="10.00">vector</text>
</a>
</g>
</g>
<!-- Node1&#45;&gt;Node7 -->
<g id="edge6_Node000001_Node000007" class="edge">
<title>Node1&#45;&gt;Node7</title>
<g id="a_edge6_Node000001_Node000007"><a xlink:title=" ">
<path fill="none" stroke="#63b8ff" d="M403.19,-223.54C423.05,-215.21 451.94,-202.2 475.62,-188 500.05,-173.36 525.94,-153.37 543.06,-139.44"/>
<polygon fill="#63b8ff" stroke="#63b8ff" points="544.95,-142.42 550.44,-133.36 540.49,-137.02 544.95,-142.42"/>
</a>
</g>
</g>
<!-- Node8 -->
<g id="Node000008" class="node">
<title>Node8</title>
<g id="a_Node000008"><a xlink:title=" ">
<polygon fill="#e0e0e0" stroke="#999999" points="657.5,-132 601.75,-132 601.75,-112 657.5,-112 657.5,-132"/>
<text xml:space="preserve" text-anchor="middle" x="629.62" y="-118.5" font-family="Helvetica,sans-Serif" font-size="10.00">algorithm</text>
</a>
</g>
</g>
<!-- Node1&#45;&gt;Node8 -->
<g id="edge7_Node000001_Node000008" class="edge">
<title>Node1&#45;&gt;Node8</title>
<g id="a_edge7_Node000001_Node000008"><a xlink:title=" ">
<path fill="none" stroke="#63b8ff" d="M409.36,-223.55C434.96,-215.11 472.72,-201.96 504.62,-188 539.72,-172.64 578.66,-151.74 603.61,-137.84"/>
<polygon fill="#63b8ff" stroke="#63b8ff" points="605.07,-141.03 612.07,-133.08 601.64,-134.93 605.07,-141.03"/>
</a>
</g>
</g>
<!-- Node9 -->
<g id="Node000009" class="node">
<title>Node9</title>
<g id="a_Node000009"><a xlink:href="yn_define_8h.html" target="_top" xlink:title="Yena SW 엔진 기본 정의 문서.">
<polygon fill="white" stroke="#666666" points="63.25,-76 0,-76 0,-56 63.25,-56 63.25,-76"/>
<text xml:space="preserve" text-anchor="middle" x="31.62" y="-62.5" font-family="Helvetica,sans-Serif" font-size="10.00">ynDefine.h</text>
</a>
</g>
</g>
<!-- Node1&#45;&gt;Node9 -->
<g id="edge8_Node000001_Node000009" class="edge">
<title>Node1&#45;&gt;Node9</title>
<g id="a_edge8_Node000001_Node000009"><a xlink:title=" ">
<path fill="none" stroke="#63b8ff" d="M343.98,-230.58C279.93,-225.65 148.52,-212.78 110.62,-188 73.31,-163.6 49.73,-114.77 38.8,-87.19"/>
<polygon fill="#63b8ff" stroke="#63b8ff" points="42.11,-86.03 35.31,-77.9 35.55,-88.49 42.11,-86.03"/>
</a>
</g>
</g>
<!-- Node11 -->
<g id="Node000011" class="node">
<title>Node11</title>
<g id="a_Node000011"><a xlink:href="yn_error_8h.html" target="_top" xlink:title="에러, 예외 및 로그 처리 헤더 파일">
<polygon fill="white" stroke="#666666" points="827.5,-188 771.75,-188 771.75,-168 827.5,-168 827.5,-188"/>
<text xml:space="preserve" text-anchor="middle" x="799.62" y="-174.5" font-family="Helvetica,sans-Serif" font-size="10.00">ynError.h</text>
</a>
</g>
</g>
<!-- Node1&#45;&gt;Node11 -->
<g id="edge11_Node000001_Node000011" class="edge">
<title>Node1&#45;&gt;Node11</title>
<g id="a_edge11_Node000001_Node000011"><a xlink:title=" ">
<path fill="none" stroke="#63b8ff" d="M415.48,-230.25C481.67,-224.87 627.67,-211.52 760.27,-188.22"/>
<polygon fill="#63b8ff" stroke="#63b8ff" points="760.7,-191.7 769.93,-186.5 759.47,-184.81 760.7,-191.7"/>
</a>
</g>
</g>
<!-- Node13 -->
<g id="Node000013" class="node">
<title>Node13</title>
<g id="a_Node000013"><a xlink:href="yn_g_u_i_d_8h.html" target="_top" xlink:title="Yena SWR COM / GUID 헤더">
<polygon fill="white" stroke="#666666" points="443.75,-188 383.5,-188 383.5,-168 443.75,-168 443.75,-188"/>
<text xml:space="preserve" text-anchor="middle" x="413.62" y="-174.5" font-family="Helvetica,sans-Serif" font-size="10.00">ynGUID.h</text>
</a>
</g>
</g>
<!-- Node1&#45;&gt;Node13 -->
<g id="edge13_Node000001_Node000013" class="edge">
<title>Node1&#45;&gt;Node13</title>
<g id="a_edge13_Node000001_Node000013"><a xlink:title=" ">
<path fill="none" stroke="#63b8ff" d="M385.55,-223.59C389.98,-216.55 396.2,-206.67 401.66,-198"/>
<polygon fill="#63b8ff" stroke="#63b8ff" points="404.6,-199.91 406.96,-189.58 398.67,-196.18 404.6,-199.91"/>
</a>
</g>
</g>
<!-- Node15 -->
<g id="Node000015" class="node">
<title>Node15</title>
<g id="a_Node000015"><a xlink:href="yn_unknownbase_8h.html" target="_top" xlink:title="Yena SWR COM 기반 헤더 (v2.x)">
<polygon fill="white" stroke="#666666" points="178.12,-76 81.12,-76 81.12,-56 178.12,-56 178.12,-76"/>
<text xml:space="preserve" text-anchor="middle" x="129.62" y="-62.5" font-family="Helvetica,sans-Serif" font-size="10.00">ynUnknownbase.h</text>
</a>
</g>
</g>
<!-- Node1&#45;&gt;Node15 -->
<g id="edge21_Node000001_Node000015" class="edge">
<title>Node1&#45;&gt;Node15</title>
<g id="a_edge21_Node000001_Node000015"><a xlink:title=" ">
<path fill="none" stroke="#63b8ff" d="M343.8,-231.96C296.84,-229.3 212.99,-220.03 149.62,-188 116.78,-171.4 103.43,-165.69 88.62,-132 81.01,-114.67 94.43,-96.58 107.92,-83.89"/>
<polygon fill="#63b8ff" stroke="#63b8ff" points="110.15,-86.59 115.42,-77.39 105.57,-81.3 110.15,-86.59"/>
</a>
</g>
</g>
<!-- Node16 -->
<g id="Node000016" class="node">
<title>Node16</title>
<g id="a_Node000016"><a xlink:href="ynx9types_8h.html" target="_top" xlink:title="\u{2b50} Yena SW 엔진 자료형 정의 : DX9 (d3d9types.h) 대응">
<polygon fill="white" stroke="#666666" points="241.25,-132 172,-132 172,-112 241.25,-112 241.25,-132"/>
<text xml:space="preserve" text-anchor="middle" x="206.62" y="-118.5" font-family="Helvetica,sans-Serif" font-size="10.00">ynx9types.h</text>
</a>
</g>
</g>
<!-- Node1&#45;&gt;Node16 -->
<g id="edge23_Node000001_Node000016" class="edge">
<title>Node1&#45;&gt;Node16</title>
<g id="a_edge23_Node000001_Node000016"><a xlink:title=" ">
<path fill="none" stroke="#63b8ff" d="M364.88,-223.62C335,-204.63 267.09,-161.45 230.71,-138.31"/>
<polygon fill="#63b8ff" stroke="#63b8ff" points="232.93,-135.58 222.61,-133.17 229.18,-141.49 232.93,-135.58"/>
</a>
</g>
</g>
<!-- Node17 -->
<g id="Node000017" class="node">
<title>Node17</title>
<g id="a_Node000017"><a xlink:href="ynx9_8h.html" target="_top" xlink:title="\u{2b50} Yena SWR 인터페이스 헤더 : DX9 (d3d9.h) 대응">
<polygon fill="white" stroke="#666666" points="229.25,-188 184,-188 184,-168 229.25,-168 229.25,-188"/>
<text xml:space="preserve" text-anchor="middle" x="206.62" y="-174.5" font-family="Helvetica,sans-Serif" font-size="10.00">ynx9.h</text>
</a>
</g>
</g>
<!-- Node1&#45;&gt;Node17 -->
<g id="edge25_Node000001_Node000017" class="edge">
<title>Node1&#45;&gt;Node17</title>
<g id="a_edge25_Node000001_Node000017"><a xlink:title=" ">
<path fill="none" stroke="#63b8ff" d="M349.49,-223.59C319.06,-214.09 272.13,-199.45 240.44,-189.56"/>
<polygon fill="#63b8ff" stroke="#63b8ff" points="241.55,-186.23 230.96,-186.6 239.46,-192.92 241.55,-186.23"/>
</a>
</g>
</g>
<!-- Node18 -->
<g id="Node000018" class="node">
<title>Node18</title>
<g id="a_Node000018"><a xlink:href="yn_math_8h.html" target="_top" xlink:title="\u{2b50} Yena 수학 라이브러리 Yena Math Library for DirectX / OpenGL">
<polygon fill="white" stroke="#666666" points="153.88,-132 97.38,-132 97.38,-112 153.88,-112 153.88,-132"/>
<text xml:space="preserve" text-anchor="middle" x="125.62" y="-118.5" font-family="Helvetica,sans-Serif" font-size="10.00">ynMath.h</text>
</a>
</g>
</g>
<!-- Node1&#45;&gt;Node18 -->
<g id="edge30_Node000001_Node000018" class="edge">
<title>Node1&#45;&gt;Node18</title>
<g id="a_edge30_Node000001_Node000018"><a xlink:title=" ">
<path fill="none" stroke="#63b8ff" d="M343.8,-232.52C300.49,-230.37 226.91,-221.55 174.62,-188 157.19,-176.81 143.65,-157.12 135.26,-142.33"/>
<polygon fill="#63b8ff" stroke="#63b8ff" points="138.38,-140.72 130.59,-133.54 132.19,-144.01 138.38,-140.72"/>
</a>
</g>
</g>
<!-- Node9&#45;&gt;Node2 -->
<g id="edge9_Node000009_Node000002" class="edge">
<title>Node9&#45;&gt;Node2</title>
<g id="a_edge9_Node000009_Node000002"><a xlink:title=" ">
<path fill="none" stroke="#63b8ff" d="M63.48,-57.74C66.23,-57.14 68.98,-56.55 71.62,-56 137.52,-42.2 214.26,-27.6 260.87,-18.9"/>
<polygon fill="#63b8ff" stroke="#63b8ff" points="261.37,-22.37 270.56,-17.09 260.08,-15.49 261.37,-22.37"/>
</a>
</g>
</g>
<!-- Node10 -->
<g id="Node000010" class="node">
<title>Node10</title>
<g id="a_Node000010"><a xlink:title=" ">
<polygon fill="#e0e0e0" stroke="#999999" points="57.25,-20 6,-20 6,0 57.25,0 57.25,-20"/>
<text xml:space="preserve" text-anchor="middle" x="31.62" y="-6.5" font-family="Helvetica,sans-Serif" font-size="10.00">assert.h</text>
</a>
</g>
</g>
<!-- Node9&#45;&gt;Node10 -->
<g id="edge10_Node000009_Node000010" class="edge">
<title>Node9&#45;&gt;Node10</title>
<g id="a_edge10_Node000009_Node000010"><a xlink:title=" ">
<path fill="none" stroke="#63b8ff" d="M31.62,-55.59C31.62,-49.01 31.62,-39.96 31.62,-31.73"/>
<polygon fill="#63b8ff" stroke="#63b8ff" points="35.13,-31.81 31.63,-21.81 28.13,-31.81 35.13,-31.81"/>
</a>
</g>
</g>
<!-- Node12 -->
<g id="Node000012" class="node">
<title>Node12</title>
<g id="a_Node000012"><a xlink:title=" ">
<polygon fill="#e0e0e0" stroke="#999999" points="828.62,-132 770.62,-132 770.62,-112 828.62,-112 828.62,-132"/>
<text xml:space="preserve" text-anchor="middle" x="799.62" y="-118.5" font-family="Helvetica,sans-Serif" font-size="10.00">exception</text>
</a>
</g>
</g>
<!-- Node11&#45;&gt;Node12 -->
<g id="edge12_Node000011_Node000012" class="edge">
<title>Node11&#45;&gt;Node12</title>
<g id="a_edge12_Node000011_Node000012"><a xlink:title=" ">
<path fill="none" stroke="#63b8ff" d="M799.62,-167.59C799.62,-161.01 799.62,-151.96 799.62,-143.73"/>
<polygon fill="#63b8ff" stroke="#63b8ff" points="803.13,-143.81 799.63,-133.81 796.13,-143.81 803.13,-143.81"/>
</a>
</g>
</g>
<!-- Node13&#45;&gt;Node2 -->
<g id="edge14_Node000013_Node000002" class="edge">
<title>Node13&#45;&gt;Node2</title>
<g id="a_edge14_Node000013_Node000002"><a xlink:title=" ">
<path fill="none" stroke="#63b8ff" d="M419.91,-167.78C427.9,-154.82 439.65,-130.7 430.62,-112 410.97,-71.26 366.01,-41.89 335.22,-25.66"/>
<polygon fill="#63b8ff" stroke="#63b8ff" points="336.84,-22.55 326.33,-21.15 333.67,-28.8 336.84,-22.55"/>
</a>
</g>
</g>
<!-- Node13&#45;&gt;Node3 -->
<g id="edge15_Node000013_Node000003" class="edge">
<title>Node13&#45;&gt;Node3</title>
<g id="a_edge15_Node000013_Node000003"><a xlink:title=" ">
<path fill="none" stroke="#63b8ff" d="M390.81,-167.59C370.18,-159.09 339.54,-146.46 316.13,-136.81"/>
<polygon fill="#63b8ff" stroke="#63b8ff" points="317.6,-133.63 307.02,-133.06 314.93,-140.1 317.6,-133.63"/>
</a>
</g>
</g>
<!-- Node13&#45;&gt;Node4 -->
<g id="edge16_Node000013_Node000004" class="edge">
<title>Node13&#45;&gt;Node4</title>
<g id="a_edge16_Node000013_Node000004"><a xlink:title=" ">
<path fill="none" stroke="#63b8ff" d="M401.95,-167.59C392.35,-159.85 378.5,-148.69 367.06,-139.47"/>
<polygon fill="#63b8ff" stroke="#63b8ff" points="369.32,-136.8 359.34,-133.25 364.93,-142.25 369.32,-136.8"/>
</a>
</g>
</g>
<!-- Node13&#45;&gt;Node5 -->
<g id="edge17_Node000013_Node000005" class="edge">
<title>Node13&#45;&gt;Node5</title>
<g id="a_edge17_Node000013_Node000005"><a xlink:title=" ">
<path fill="none" stroke="#63b8ff" d="M428.78,-167.59C441.67,-159.59 460.46,-147.93 475.58,-138.54"/>
<polygon fill="#63b8ff" stroke="#63b8ff" points="477.42,-141.53 484.07,-133.28 473.72,-135.58 477.42,-141.53"/>
</a>
</g>
</g>
<!-- Node13&#45;&gt;Node7 -->
<g id="edge18_Node000013_Node000007" class="edge">
<title>Node13&#45;&gt;Node7</title>
<g id="a_edge18_Node000013_Node000007"><a xlink:title=" ">
<path fill="none" stroke="#63b8ff" d="M439.58,-167.59C464.79,-158.46 503.13,-144.56 530.31,-134.71"/>
<polygon fill="#63b8ff" stroke="#63b8ff" points="531.21,-138.11 539.42,-131.41 528.82,-131.53 531.21,-138.11"/>
</a>
</g>
</g>
<!-- Node13&#45;&gt;Node8 -->
<g id="edge20_Node000013_Node000008" class="edge">
<title>Node13&#45;&gt;Node8</title>
<g id="a_edge20_Node000013_Node000008"><a xlink:title=" ">
<path fill="none" stroke="#63b8ff" d="M444.11,-169.38C482.46,-159.79 548.37,-143.31 590.43,-132.8"/>
<polygon fill="#63b8ff" stroke="#63b8ff" points="591.03,-136.26 599.88,-130.44 589.33,-129.47 591.03,-136.26"/>
</a>
</g>
</g>
<!-- Node14 -->
<g id="Node000014" class="node">
<title>Node14</title>
<g id="a_Node000014"><a xlink:title=" ">
<polygon fill="#e0e0e0" stroke="#999999" points="422,-132 387.25,-132 387.25,-112 422,-112 422,-132"/>
<text xml:space="preserve" text-anchor="middle" x="404.62" y="-118.5" font-family="Helvetica,sans-Serif" font-size="10.00">map</text>
</a>
</g>
</g>
<!-- Node13&#45;&gt;Node14 -->
<g id="edge19_Node000013_Node000014" class="edge">
<title>Node13&#45;&gt;Node14</title>
<g id="a_edge19_Node000013_Node000014"><a xlink:title=" ">
<path fill="none" stroke="#63b8ff" d="M412.06,-167.59C410.95,-160.93 409.42,-151.75 408.03,-143.44"/>
<polygon fill="#63b8ff" stroke="#63b8ff" points="411.52,-143.08 406.42,-133.79 404.62,-144.23 411.52,-143.08"/>
</a>
</g>
</g>
<!-- Node15&#45;&gt;Node2 -->
<g id="edge22_Node000015_Node000002" class="edge">
<title>Node15&#45;&gt;Node2</title>
<g id="a_edge22_Node000015_Node000002"><a xlink:title=" ">
<path fill="none" stroke="#63b8ff" d="M159.93,-55.59C188.33,-46.78 230.99,-33.54 262.46,-23.78"/>
<polygon fill="#63b8ff" stroke="#63b8ff" points="263.12,-27.23 271.63,-20.93 261.05,-20.55 263.12,-27.23"/>
</a>
</g>
</g>
<!-- Node16&#45;&gt;Node2 -->
<g id="edge24_Node000016_Node000002" class="edge">
<title>Node16&#45;&gt;Node2</title>
<g id="a_edge24_Node000016_Node000002"><a xlink:title=" ">
<path fill="none" stroke="#63b8ff" d="M233.31,-111.63C250.3,-104.37 271.49,-92.72 284.62,-76 294.64,-63.26 299.37,-45.4 301.62,-31.62"/>
<polygon fill="#63b8ff" stroke="#63b8ff" points="305.06,-32.25 302.86,-21.89 298.12,-31.36 305.06,-32.25"/>
</a>
</g>
</g>
<!-- Node17&#45;&gt;Node16 -->
<g id="edge26_Node000017_Node000016" class="edge">
<title>Node17&#45;&gt;Node16</title>
<g id="a_edge26_Node000017_Node000016"><a xlink:title=" ">
<path fill="none" stroke="#63b8ff" d="M206.62,-167.59C206.62,-161.01 206.62,-151.96 206.62,-143.73"/>
<polygon fill="#63b8ff" stroke="#63b8ff" points="210.13,-143.81 206.63,-133.81 203.13,-143.81 210.13,-143.81"/>
</a>
</g>
</g>
<!-- Node17&#45;&gt;Node18 -->
<g id="edge27_Node000017_Node000018" class="edge">
<title>Node17&#45;&gt;Node18</title>
<g id="a_edge27_Node000017_Node000018"><a xlink:title=" ">
<path fill="none" stroke="#63b8ff" d="M192.52,-167.59C180.63,-159.67 163.36,-148.16 149.35,-138.82"/>
<polygon fill="#63b8ff" stroke="#63b8ff" points="151.37,-135.95 141.1,-133.32 147.48,-141.78 151.37,-135.95"/>
</a>
</g>
</g>
<!-- Node18&#45;&gt;Node9 -->
<g id="edge28_Node000018_Node000009" class="edge">
<title>Node18&#45;&gt;Node9</title>
<g id="a_edge28_Node000018_Node000009"><a xlink:title=" ">
<path fill="none" stroke="#63b8ff" d="M109.25,-111.59C95.05,-103.44 74.24,-91.48 57.74,-82"/>
<polygon fill="#63b8ff" stroke="#63b8ff" points="59.85,-79.18 49.44,-77.23 56.37,-85.25 59.85,-79.18"/>
</a>
</g>
</g>
<!-- Node19 -->
<g id="Node000019" class="node">
<title>Node19</title>
<g id="a_Node000019"><a xlink:title=" ">
<polygon fill="#e0e0e0" stroke="#999999" points="275.12,-76 196.12,-76 196.12,-56 275.12,-56 275.12,-76"/>
<text xml:space="preserve" text-anchor="middle" x="235.62" y="-62.5" font-family="Helvetica,sans-Serif" font-size="10.00">DirectXmath.h</text>
</a>
</g>
</g>
<!-- Node18&#45;&gt;Node19 -->
<g id="edge29_Node000018_Node000019" class="edge">
<title>Node18&#45;&gt;Node19</title>
<g id="a_edge29_Node000018_Node000019"><a xlink:title=" ">
<path fill="none" stroke="#63b8ff" d="M144.79,-111.59C161.72,-103.28 186.67,-91.03 206.15,-81.47"/>
<polygon fill="#63b8ff" stroke="#63b8ff" points="207.52,-84.7 214.96,-77.15 204.44,-78.41 207.52,-84.7"/>
</a>
</g>
</g>
</g>
</svg>

<g id="navigator" transform="translate(0 0)" fill="#404254">
  <rect fill="#f2f5e9" fill-opacity="0.5" stroke="#606060" stroke-width=".5" x="0" y="0" width="60" height="60"/>
  <use id="zoomplus" xlink:href="#zoomPlus" x="17" y="9" onmousedown="handleZoom(evt,'in')"/>
  <use id="zoomminus" xlink:href="#zoomMin" x="42" y="9" onmousedown="handleZoom(evt,'out')"/>
  <use id="reset" xlink:href="#resetDef" x="30" y="36" onmousedown="handleReset()"/>
   <use id="arrowup" xlink:href="#arrowUp" x="0" y="0" onmousedown="handlePan(0,-1)"/>
  <use id="arrowright" xlink:href="#arrowRight" x="0" y="0" onmousedown="handlePan(1,0)"/>
  <use id="arrowdown" xlink:href="#arrowDown" x="0" y="0" onmousedown="handlePan(0,1)"/>
  <use id="arrowleft" xlink:href="#arrowLeft" x="0" y="0" onmousedown="handlePan(-1,0)"/>
</g>
<svg viewBox="0 0 15 15" width="100%" height="30px" preserveAspectRatio="xMaxYMin meet">
 <g id="arrow_out" transform="scale(0.3 0.3)">
  <a xlink:href="_yena_8h__incl_org.svg" target="_base">
   <rect id="button" ry="5" rx="5" y="6" x="6" height="38" width="38"
        fill="#f2f5e9" fill-opacity="0.5" stroke="#606060" stroke-width="1.0"/>
   <path id="arrow"
     d="M 11.500037,31.436501 C 11.940474,20.09759 22.043105,11.32322 32.158766,21.979434 L 37.068811,17.246167 C 37.068811,17.246167 37.088388,32 37.088388,32 L 22.160133,31.978069 C 22.160133,31.978069 26.997745,27.140456 26.997745,27.140456 C 18.528582,18.264221 13.291696,25.230495 11.500037,31.436501 z"
     style="fill:#404040;"/>
  </a>
 </g>
</svg>

<style type='text/css'>
<![CDATA[
[data-mouse-over-selected='false'] { opacity: 0.7; }
[data-mouse-over-selected='true']  { opacity: 1.0; }
]]>
</style>
<script type="application/ecmascript"><![CDATA[
document.addEventListener('DOMContentLoaded', (event) => {
  highlightEdges();
  highlightAdjacentNodes();
});
]]></script>
</svg>
