<?xml version="1.0" encoding="UTF-8" standalone="no"?>
<!DOCTYPE svg PUBLIC "-//W3C//DTD SVG 1.1//EN"
 "http://www.w3.org/Graphics/SVG/1.1/DTD/svg11.dtd">
<!-- Generated by graphviz version 13.1.2 (20250808.2320)
 -->
<!-- Title: CameraUpdate Pages: 1 -->
<svg width="412pt" height="66pt"
 viewBox="0.00 0.00 412.00 66.00" xmlns="http://www.w3.org/2000/svg" xmlns:xlink="http://www.w3.org/1999/xlink">
<g id="graph0" class="graph" transform="scale(1 1) rotate(0) translate(4 62)">
<title>CameraUpdate</title>
<!-- Node1 -->
<g id="Node000001" class="node">
<title>Node1</title>
<g id="a_Node000001"><a xlink:title=" ">
<polygon fill="#999999" stroke="#666666" points="82,-39 0,-39 0,-19 82,-19 82,-39"/>
<text xml:space="preserve" text-anchor="middle" x="41" y="-25.5" font-family="Helvetica,sans-Serif" font-size="10.00">CameraUpdate</text>
</a>
</g>
</g>
<!-- Node2 -->
<g id="Node000002" class="node">
<title>Node2</title>
<g id="a_Node000002"><a xlink:href="a00141_ga9735d0ed90f18f6601eff62e699f59fe.html#ga9735d0ed90f18f6601eff62e699f59fe" target="_top" xlink:title="뷰 변환 행렬 생성 : D3DXMatrixLookAtLH 대응.">
<polygon fill="white" stroke="#666666" points="248.75,-58 136.75,-58 136.75,-38 248.75,-38 248.75,-58"/>
<text xml:space="preserve" text-anchor="middle" x="192.75" y="-44.5" font-family="Helvetica,sans-Serif" font-size="10.00">B3YXMatrixLookAtLH</text>
</a>
</g>
</g>
<!-- Node1&#45;&gt;Node2 -->
<g id="edge1_Node000001_Node000002" class="edge">
<title>Node1&#45;&gt;Node2</title>
<g id="a_edge1_Node000001_Node000002"><a xlink:title=" ">
<path fill="none" stroke="#63b8ff" d="M82.13,-34.09C95.39,-35.77 110.51,-37.69 125.2,-39.56"/>
<polygon fill="#63b8ff" stroke="#63b8ff" points="124.45,-42.99 134.81,-40.78 125.33,-36.04 124.45,-42.99"/>
</a>
</g>
</g>
<!-- Node4 -->
<g id="Node000004" class="node">
<title>Node4</title>
<g id="a_Node000004"><a xlink:href="a00141_gab141b564e1c257402780d61a62a7230a.html#gab141b564e1c257402780d61a62a7230a" target="_top" xlink:title="투영 변환 행렬 생성 : D3DXMatrixPerspectiveFovLH 대응.">
<polygon fill="white" stroke="#666666" points="267.5,-20 118,-20 118,0 267.5,0 267.5,-20"/>
<text xml:space="preserve" text-anchor="middle" x="192.75" y="-6.5" font-family="Helvetica,sans-Serif" font-size="10.00">B3YXMatrixPerspectiveFovLH</text>
</a>
</g>
</g>
<!-- Node1&#45;&gt;Node4 -->
<g id="edge3_Node000001_Node000004" class="edge">
<title>Node1&#45;&gt;Node4</title>
<g id="a_edge3_Node000001_Node000004"><a xlink:title=" ">
<path fill="none" stroke="#63b8ff" d="M82.13,-23.91C89.78,-22.94 98.05,-21.89 106.5,-20.82"/>
<polygon fill="#63b8ff" stroke="#63b8ff" points="106.7,-24.32 116.18,-19.59 105.82,-17.37 106.7,-24.32"/>
</a>
</g>
</g>
<!-- Node3 -->
<g id="Node000003" class="node">
<title>Node3</title>
<g id="a_Node000003"><a xlink:href="a00141_ga02a75a42a0bae280a3396ecdb1c124e7.html#ga02a75a42a0bae280a3396ecdb1c124e7" target="_top" xlink:title="행렬 단위화(초기화) 함수">
<polygon fill="white" stroke="#666666" points="404.25,-39 303.5,-39 303.5,-19 404.25,-19 404.25,-39"/>
<text xml:space="preserve" text-anchor="middle" x="353.88" y="-25.5" font-family="Helvetica,sans-Serif" font-size="10.00">B3YXMatrixIdentity</text>
</a>
</g>
</g>
<!-- Node2&#45;&gt;Node3 -->
<g id="edge2_Node000002_Node000003" class="edge">
<title>Node2&#45;&gt;Node3</title>
<g id="a_edge2_Node000002_Node000003"><a xlink:title=" ">
<path fill="none" stroke="#63b8ff" d="M248.96,-41.41C262.84,-39.75 277.82,-37.96 291.96,-36.27"/>
<polygon fill="#63b8ff" stroke="#63b8ff" points="292.07,-39.78 301.59,-35.12 291.24,-32.83 292.07,-39.78"/>
</a>
</g>
</g>
<!-- Node4&#45;&gt;Node3 -->
<g id="edge4_Node000004_Node000003" class="edge">
<title>Node4&#45;&gt;Node3</title>
<g id="a_edge4_Node000004_Node000003"><a xlink:title=" ">
<path fill="none" stroke="#63b8ff" d="M267.72,-18.83C275.79,-19.8 283.94,-20.77 291.83,-21.71"/>
<polygon fill="#63b8ff" stroke="#63b8ff" points="291.32,-25.17 301.66,-22.89 292.15,-18.22 291.32,-25.17"/>
</a>
</g>
</g>
</g>
</svg>
