<?xml version="1.0" encoding="UTF-8" standalone="no"?>
<!DOCTYPE svg PUBLIC "-//W3C//DTD SVG 1.1//EN"
 "http://www.w3.org/Graphics/SVG/1.1/DTD/svg11.dtd">
<!-- Generated by graphviz version 13.1.2 (20250808.2320)
 -->
<!-- Title: Yena/ynError.cpp Pages: 1 -->
<!--zoomable 308 -->

<svg id="main" version="1.1" xmlns="http://www.w3.org/2000/svg" xmlns:xlink="http://www.w3.org/1999/xlink" xml:space="preserve" onload="init(evt)">

<style type="text/css"><![CDATA[
.node, .edge {opacity: 0.7;}
.node.selected, .edge.selected {opacity: 1;}
.edge:hover path { stroke: red; }
.edge:hover polygon { stroke: red; fill: red; }
]]></style>

<defs>
  <circle id="rim" cx="0" cy="0" r="7"/>
  <circle id="rim2" cx="0" cy="0" r="3.5"/>
  <g id="zoomPlus">
    <use xlink:href="#rim" fill="#404040"><set attributeName="fill" to="#808080" begin="zoomplus.mouseover" end="zoomplus.mouseout"/></use>
    <path d="M-4,0h8M0,-4v8" fill="none" stroke="white" stroke-width="1.5" pointer-events="none"/>
  </g>
  <g id="zoomMin">
    <use xlink:href="#rim" fill="#404040"><set attributeName="fill" to="#808080" begin="zoomminus.mouseover" end="zoomminus.mouseout"/></use>
    <path d="M-4,0h8" fill="none" stroke="white" stroke-width="1.5" pointer-events="none"/>
  </g>
  <g id="arrowUp" transform="translate(30 24)">
    <use xlink:href="#rim"/>
    <path pointer-events="none" fill="none" stroke="white" stroke-width="1.5" d="M0,-3.0v7 M-2.5,-0.5L0,-3.0L2.5,-0.5"/>
  </g>
  <g id="arrowRight" transform="rotate(90) translate(36 -43)">
    <use xlink:href="#rim"/>
    <path pointer-events="none" fill="none" stroke="white" stroke-width="1.5" d="M0,-3.0v7 M-2.5,-0.5L0,-3.0L2.5,-0.5"/>
  </g>
  <g id="arrowDown" transform="rotate(180) translate(-30 -48)">
    <use xlink:href="#rim"/>
    <path pointer-events="none" fill="none" stroke="white" stroke-width="1.5" d="M0,-3.0v7 M-2.5,-0.5L0,-3.0L2.5,-0.5"/>
  </g>
  <g id="arrowLeft" transform="rotate(270) translate(-36 17)">
    <use xlink:href="#rim"/>
    <path pointer-events="none" fill="none" stroke="white" stroke-width="1.5" d="M0,-3.0v7 M-2.5,-0.5L0,-3.0L2.5,-0.5"/>
  </g>
  <g id="resetDef">
    <use xlink:href="#rim2" fill="#404040"><set attributeName="fill" to="#808080" begin="reset.mouseover" end="reset.mouseout"/></use>
  </g>
</defs>
<script type="application/ecmascript">
var viewWidth = 939;
var viewHeight = 308;
var sectionId = 'dynsection-0';
</script>
<script type="application/ecmascript" xlink:href="svg.min.js"/>
<svg id="graph" class="graph">
<g id="viewport">
<title>Yena/ynError.cpp</title>
<!-- Node1 -->
<g id="Node000001" class="node">
<title>Node1</title>
<g id="a_Node000001"><a xlink:title="에러, 예외 및 로그 처리 소스 파일">
<polygon fill="#999999" stroke="#666666" points="626,-300 535,-300 535,-280 626,-280 626,-300"/>
<text xml:space="preserve" text-anchor="middle" x="580.5" y="-286.5" font-family="Helvetica,sans-Serif" font-size="10.00">Yena/ynError.cpp</text>
</a>
</g>
</g>
<!-- Node2 -->
<g id="Node000002" class="node">
<title>Node2</title>
<g id="a_Node000002"><a xlink:href="a00068.html" target="_top" xlink:title="Yena SWR 기본 헤더 파일 (v1.x)">
<polygon fill="white" stroke="#666666" points="578.5,-244 532.5,-244 532.5,-224 578.5,-224 578.5,-244"/>
<text xml:space="preserve" text-anchor="middle" x="555.5" y="-230.5" font-family="Helvetica,sans-Serif" font-size="10.00">Yena.h</text>
</a>
</g>
</g>
<!-- Node1&#45;&gt;Node2 -->
<g id="edge1_Node000001_Node000002" class="edge">
<title>Node1&#45;&gt;Node2</title>
<g id="a_edge1_Node000001_Node000002"><a xlink:title=" ">
<path fill="none" stroke="#63b8ff" d="M576.15,-279.59C572.95,-272.7 568.51,-263.1 564.56,-254.57"/>
<polygon fill="#63b8ff" stroke="#63b8ff" points="567.82,-253.28 560.44,-245.67 561.47,-256.22 567.82,-253.28"/>
</a>
</g>
</g>
<!-- Node12 -->
<g id="Node000012" class="node">
<title>Node12</title>
<g id="a_Node000012"><a xlink:href="a00098.html" target="_top" xlink:title="에러, 예외 및 로그 처리 헤더 파일">
<polygon fill="white" stroke="#666666" points="929.38,-188 873.62,-188 873.62,-168 929.38,-168 929.38,-188"/>
<text xml:space="preserve" text-anchor="middle" x="901.5" y="-174.5" font-family="Helvetica,sans-Serif" font-size="10.00">ynError.h</text>
</a>
</g>
</g>
<!-- Node1&#45;&gt;Node12 -->
<g id="edge38_Node000001_Node000012" class="edge">
<title>Node1&#45;&gt;Node12</title>
<g id="a_edge38_Node000001_Node000012"><a xlink:title=" ">
<path fill="none" stroke="#63b8ff" d="M608.15,-279.53C665.51,-259.87 797.56,-214.62 863.12,-192.15"/>
<polygon fill="#63b8ff" stroke="#63b8ff" points="864.05,-195.53 872.37,-188.98 861.78,-188.91 864.05,-195.53"/>
</a>
</g>
</g>
<!-- Node3 -->
<g id="Node000003" class="node">
<title>Node3</title>
<g id="a_Node000003"><a xlink:title=" ">
<polygon fill="#e0e0e0" stroke="#999999" points="487.75,-20 425.25,-20 425.25,0 487.75,0 487.75,-20"/>
<text xml:space="preserve" text-anchor="middle" x="456.5" y="-6.5" font-family="Helvetica,sans-Serif" font-size="10.00">windows.h</text>
</a>
</g>
</g>
<!-- Node2&#45;&gt;Node3 -->
<g id="edge2_Node000002_Node000003" class="edge">
<title>Node2&#45;&gt;Node3</title>
<g id="a_edge2_Node000002_Node000003"><a xlink:title=" ">
<path fill="none" stroke="#63b8ff" d="M539.45,-223.61C505.22,-202.48 425.95,-147.42 398.5,-76 395.31,-67.7 394.59,-63.98 398.5,-56 404.57,-43.61 415.88,-33.65 426.92,-26.28"/>
<polygon fill="#63b8ff" stroke="#63b8ff" points="428.41,-29.47 435.11,-21.27 424.75,-23.5 428.41,-29.47"/>
</a>
</g>
</g>
<!-- Node4 -->
<g id="Node000004" class="node">
<title>Node4</title>
<g id="a_Node000004"><a xlink:title=" ">
<polygon fill="#e0e0e0" stroke="#999999" points="270.5,-132 224.5,-132 224.5,-112 270.5,-112 270.5,-132"/>
<text xml:space="preserve" text-anchor="middle" x="247.5" y="-118.5" font-family="Helvetica,sans-Serif" font-size="10.00">tchar.h</text>
</a>
</g>
</g>
<!-- Node2&#45;&gt;Node4 -->
<g id="edge3_Node000002_Node000004" class="edge">
<title>Node2&#45;&gt;Node4</title>
<g id="a_edge3_Node000002_Node000004"><a xlink:title=" ">
<path fill="none" stroke="#63b8ff" d="M532.11,-230.15C494.18,-224.98 417.35,-212.31 356.5,-188 324.5,-175.22 290.91,-153.79 269.63,-139.05"/>
<polygon fill="#63b8ff" stroke="#63b8ff" points="271.65,-136.2 261.46,-133.3 267.62,-141.92 271.65,-136.2"/>
</a>
</g>
</g>
<!-- Node5 -->
<g id="Node000005" class="node">
<title>Node5</title>
<g id="a_Node000005"><a xlink:title=" ">
<polygon fill="#e0e0e0" stroke="#999999" points="334.5,-132 288.5,-132 288.5,-112 334.5,-112 334.5,-132"/>
<text xml:space="preserve" text-anchor="middle" x="311.5" y="-118.5" font-family="Helvetica,sans-Serif" font-size="10.00">math.h</text>
</a>
</g>
</g>
<!-- Node2&#45;&gt;Node5 -->
<g id="edge4_Node000002_Node000005" class="edge">
<title>Node2&#45;&gt;Node5</title>
<g id="a_edge4_Node000002_Node000005"><a xlink:title=" ">
<path fill="none" stroke="#63b8ff" d="M532.12,-229.71C499.27,-224.4 438.23,-212.04 391.5,-188 367.29,-175.55 343.6,-154.94 328.36,-140.27"/>
<polygon fill="#63b8ff" stroke="#63b8ff" points="331.08,-138.03 321.51,-133.48 326.15,-143 331.08,-138.03"/>
</a>
</g>
</g>
<!-- Node6 -->
<g id="Node000006" class="node">
<title>Node6</title>
<g id="a_Node000006"><a xlink:title=" ">
<polygon fill="#e0e0e0" stroke="#999999" points="398.12,-132 352.88,-132 352.88,-112 398.12,-112 398.12,-132"/>
<text xml:space="preserve" text-anchor="middle" x="375.5" y="-118.5" font-family="Helvetica,sans-Serif" font-size="10.00">stdio.h</text>
</a>
</g>
</g>
<!-- Node2&#45;&gt;Node6 -->
<g id="edge5_Node000002_Node000006" class="edge">
<title>Node2&#45;&gt;Node6</title>
<g id="a_edge5_Node000002_Node000006"><a xlink:title=" ">
<path fill="none" stroke="#63b8ff" d="M532.26,-230.93C501.75,-227.13 447.94,-216.61 412.5,-188 397.99,-176.29 388.12,-157.26 382.24,-142.81"/>
<polygon fill="#63b8ff" stroke="#63b8ff" points="385.68,-142 378.91,-133.85 379.12,-144.44 385.68,-142"/>
</a>
</g>
</g>
<!-- Node7 -->
<g id="Node000007" class="node">
<title>Node7</title>
<g id="a_Node000007"><a xlink:title=" ">
<polygon fill="#e0e0e0" stroke="#999999" points="855.5,-188 815.5,-188 815.5,-168 855.5,-168 855.5,-188"/>
<text xml:space="preserve" text-anchor="middle" x="835.5" y="-174.5" font-family="Helvetica,sans-Serif" font-size="10.00">string</text>
</a>
</g>
</g>
<!-- Node2&#45;&gt;Node7 -->
<g id="edge6_Node000002_Node000007" class="edge">
<title>Node2&#45;&gt;Node7</title>
<g id="a_edge6_Node000002_Node000007"><a xlink:title=" ">
<path fill="none" stroke="#63b8ff" d="M578.89,-229.79C621.72,-223.71 715.77,-209.4 804.27,-188.29"/>
<polygon fill="#63b8ff" stroke="#63b8ff" points="804.94,-191.73 813.84,-185.97 803.29,-184.93 804.94,-191.73"/>
</a>
</g>
</g>
<!-- Node8 -->
<g id="Node000008" class="node">
<title>Node8</title>
<g id="a_Node000008"><a xlink:title=" ">
<polygon fill="#e0e0e0" stroke="#999999" points="43,-132 0,-132 0,-112 43,-112 43,-132"/>
<text xml:space="preserve" text-anchor="middle" x="21.5" y="-118.5" font-family="Helvetica,sans-Serif" font-size="10.00">vector</text>
</a>
</g>
</g>
<!-- Node2&#45;&gt;Node8 -->
<g id="edge7_Node000002_Node000008" class="edge">
<title>Node2&#45;&gt;Node8</title>
<g id="a_edge7_Node000002_Node000008"><a xlink:title=" ">
<path fill="none" stroke="#63b8ff" d="M532.03,-233.3C468.8,-233.5 290.16,-230 149.5,-188 111.05,-176.52 70.34,-153.77 45.41,-138.47"/>
<polygon fill="#63b8ff" stroke="#63b8ff" points="47.37,-135.56 37.03,-133.22 43.65,-141.5 47.37,-135.56"/>
</a>
</g>
</g>
<!-- Node9 -->
<g id="Node000009" class="node">
<title>Node9</title>
<g id="a_Node000009"><a xlink:title=" ">
<polygon fill="#e0e0e0" stroke="#999999" points="116.38,-132 60.62,-132 60.62,-112 116.38,-112 116.38,-132"/>
<text xml:space="preserve" text-anchor="middle" x="88.5" y="-118.5" font-family="Helvetica,sans-Serif" font-size="10.00">algorithm</text>
</a>
</g>
</g>
<!-- Node2&#45;&gt;Node9 -->
<g id="edge8_Node000002_Node000009" class="edge">
<title>Node2&#45;&gt;Node9</title>
<g id="a_edge8_Node000002_Node000009"><a xlink:title=" ">
<path fill="none" stroke="#63b8ff" d="M532.2,-233.54C473.38,-234.19 314.89,-231.43 192.5,-188 160.91,-176.79 128.85,-154.79 108.84,-139.51"/>
<polygon fill="#63b8ff" stroke="#63b8ff" points="111.01,-136.77 100.98,-133.36 106.7,-142.28 111.01,-136.77"/>
</a>
</g>
</g>
<!-- Node10 -->
<g id="Node000010" class="node">
<title>Node10</title>
<g id="a_Node000010"><a xlink:href="a00092.html" target="_top" xlink:title="Yena SWR 엔진 기본 정의 문서.">
<polygon fill="white" stroke="#666666" points="722.12,-76 658.88,-76 658.88,-56 722.12,-56 722.12,-76"/>
<text xml:space="preserve" text-anchor="middle" x="690.5" y="-62.5" font-family="Helvetica,sans-Serif" font-size="10.00">ynDefine.h</text>
</a>
</g>
</g>
<!-- Node2&#45;&gt;Node10 -->
<g id="edge9_Node000002_Node000010" class="edge">
<title>Node2&#45;&gt;Node10</title>
<g id="a_edge9_Node000002_Node000010"><a xlink:title=" ">
<path fill="none" stroke="#63b8ff" d="M567.28,-223.65C577.86,-214.97 593.52,-201.41 605.5,-188 635.3,-154.65 663.9,-110.65 679.14,-85.94"/>
<polygon fill="#63b8ff" stroke="#63b8ff" points="681.99,-87.99 684.2,-77.63 676.01,-84.35 681.99,-87.99"/>
</a>
</g>
</g>
<!-- Node2&#45;&gt;Node12 -->
<g id="edge12_Node000002_Node000012" class="edge">
<title>Node2&#45;&gt;Node12</title>
<g id="a_edge12_Node000002_Node000012"><a xlink:title=" ">
<path fill="none" stroke="#63b8ff" d="M578.88,-230.36C628.95,-224.53 750.42,-209.55 862.15,-188.3"/>
<polygon fill="#63b8ff" stroke="#63b8ff" points="862.64,-191.77 871.79,-186.44 861.31,-184.9 862.64,-191.77"/>
</a>
</g>
</g>
<!-- Node14 -->
<g id="Node000014" class="node">
<title>Node14</title>
<g id="a_Node000014"><a xlink:href="a00110.html" target="_top" xlink:title="Yena SWR COM / GUID 헤더">
<polygon fill="white" stroke="#666666" points="261.62,-188 201.38,-188 201.38,-168 261.62,-168 261.62,-188"/>
<text xml:space="preserve" text-anchor="middle" x="231.5" y="-174.5" font-family="Helvetica,sans-Serif" font-size="10.00">ynGUID.h</text>
</a>
</g>
</g>
<!-- Node2&#45;&gt;Node14 -->
<g id="edge14_Node000002_Node000014" class="edge">
<title>Node2&#45;&gt;Node14</title>
<g id="a_edge14_Node000002_Node000014"><a xlink:title=" ">
<path fill="none" stroke="#63b8ff" d="M532.2,-229.12C477.88,-220.06 342.25,-197.46 273.24,-185.96"/>
<polygon fill="#63b8ff" stroke="#63b8ff" points="273.9,-182.52 263.46,-184.33 272.74,-189.42 273.9,-182.52"/>
</a>
</g>
</g>
<!-- Node16 -->
<g id="Node000016" class="node">
<title>Node16</title>
<g id="a_Node000016"><a xlink:href="a00122.html" target="_top" xlink:title="Yena SWR COM 기반 헤더 (v2.x)">
<polygon fill="white" stroke="#666666" points="505,-76 408,-76 408,-56 505,-56 505,-76"/>
<text xml:space="preserve" text-anchor="middle" x="456.5" y="-62.5" font-family="Helvetica,sans-Serif" font-size="10.00">ynUnknownbase.h</text>
</a>
</g>
</g>
<!-- Node2&#45;&gt;Node16 -->
<g id="edge22_Node000002_Node000016" class="edge">
<title>Node2&#45;&gt;Node16</title>
<g id="a_edge22_Node000002_Node000016"><a xlink:title=" ">
<path fill="none" stroke="#63b8ff" d="M546.61,-223.76C538.34,-214.94 525.91,-201.09 516.5,-188 499.64,-164.54 496.41,-157.85 483.5,-132 476.14,-117.27 469.05,-100.04 463.98,-87.02"/>
<polygon fill="#63b8ff" stroke="#63b8ff" points="467.32,-85.95 460.49,-77.85 460.78,-88.44 467.32,-85.95"/>
</a>
</g>
</g>
<!-- Node17 -->
<g id="Node000017" class="node">
<title>Node17</title>
<g id="a_Node000017"><a xlink:href="a00128.html" target="_top" xlink:title="Yena SW 엔진 자료형 정의 : DX9 (d3d9types.h) 대응">
<polygon fill="white" stroke="#666666" points="562.12,-132 492.88,-132 492.88,-112 562.12,-112 562.12,-132"/>
<text xml:space="preserve" text-anchor="middle" x="527.5" y="-118.5" font-family="Helvetica,sans-Serif" font-size="10.00">ynx9types.h</text>
</a>
</g>
</g>
<!-- Node2&#45;&gt;Node17 -->
<g id="edge24_Node000002_Node000017" class="edge">
<title>Node2&#45;&gt;Node17</title>
<g id="a_edge24_Node000002_Node000017"><a xlink:title=" ">
<path fill="none" stroke="#63b8ff" d="M546.14,-223.63C538.38,-215.14 527.93,-201.88 523.5,-188 518.86,-173.47 520.22,-156.21 522.55,-143.12"/>
<polygon fill="#63b8ff" stroke="#63b8ff" points="525.92,-144.08 524.59,-133.57 519.08,-142.61 525.92,-144.08"/>
</a>
</g>
</g>
<!-- Node18 -->
<g id="Node000018" class="node">
<title>Node18</title>
<g id="a_Node000018"><a xlink:href="a00125.html" target="_top" xlink:title="Yena SWR 인터페이스 헤더 : DX9 (d3d9.h) 대응">
<polygon fill="white" stroke="#666666" points="578.12,-188 532.88,-188 532.88,-168 578.12,-168 578.12,-188"/>
<text xml:space="preserve" text-anchor="middle" x="555.5" y="-174.5" font-family="Helvetica,sans-Serif" font-size="10.00">ynx9.h</text>
</a>
</g>
</g>
<!-- Node2&#45;&gt;Node18 -->
<g id="edge26_Node000002_Node000018" class="edge">
<title>Node2&#45;&gt;Node18</title>
<g id="a_edge26_Node000002_Node000018"><a xlink:title=" ">
<path fill="none" stroke="#63b8ff" d="M555.5,-223.59C555.5,-217.01 555.5,-207.96 555.5,-199.73"/>
<polygon fill="#63b8ff" stroke="#63b8ff" points="559,-199.81 555.5,-189.81 552,-199.81 559,-199.81"/>
</a>
</g>
</g>
<!-- Node19 -->
<g id="Node000019" class="node">
<title>Node19</title>
<g id="a_Node000019"><a xlink:href="a00116.html" target="_top" xlink:title="\u{2b50} Yena 수학 라이브러리 Yena Math Library for DirectX / OpenGL">
<polygon fill="white" stroke="#666666" points="636.75,-132 580.25,-132 580.25,-112 636.75,-112 636.75,-132"/>
<text xml:space="preserve" text-anchor="middle" x="608.5" y="-118.5" font-family="Helvetica,sans-Serif" font-size="10.00">ynMath.h</text>
</a>
</g>
</g>
<!-- Node2&#45;&gt;Node19 -->
<g id="edge31_Node000002_Node000019" class="edge">
<title>Node2&#45;&gt;Node19</title>
<g id="a_edge31_Node000002_Node000019"><a xlink:title=" ">
<path fill="none" stroke="#63b8ff" d="M563.54,-223.54C570.64,-214.8 580.88,-201.19 587.5,-188 594.68,-173.7 600.12,-156.43 603.67,-143.28"/>
<polygon fill="#63b8ff" stroke="#63b8ff" points="607.05,-144.19 606.11,-133.64 600.26,-142.47 607.05,-144.19"/>
</a>
</g>
</g>
<!-- Node21 -->
<g id="Node000021" class="node">
<title>Node21</title>
<g id="a_Node000021"><a xlink:href="a00104.html" target="_top" xlink:title="그리드 클래스 헤더.">
<polygon fill="white" stroke="#666666" points="724.88,-188 672.12,-188 672.12,-168 724.88,-168 724.88,-188"/>
<text xml:space="preserve" text-anchor="middle" x="698.5" y="-174.5" font-family="Helvetica,sans-Serif" font-size="10.00">ynGrid.h</text>
</a>
</g>
</g>
<!-- Node2&#45;&gt;Node21 -->
<g id="edge32_Node000002_Node000021" class="edge">
<title>Node2&#45;&gt;Node21</title>
<g id="a_edge32_Node000002_Node000021"><a xlink:title=" ">
<path fill="none" stroke="#63b8ff" d="M575.14,-223.59C597.25,-214.56 633.32,-200.88 660.84,-191.06"/>
<polygon fill="#63b8ff" stroke="#63b8ff" points="661.97,-194.37 670.24,-187.74 659.64,-187.77 661.97,-194.37"/>
</a>
</g>
</g>
<!-- Node22 -->
<g id="Node000022" class="node">
<title>Node22</title>
<g id="a_Node000022"><a xlink:href="a00074.html" target="_top" xlink:title="공간축 클래스 헤더.">
<polygon fill="white" stroke="#666666" points="797.62,-188 743.38,-188 743.38,-168 797.62,-168 797.62,-188"/>
<text xml:space="preserve" text-anchor="middle" x="770.5" y="-174.5" font-family="Helvetica,sans-Serif" font-size="10.00">ynAxis.h</text>
</a>
</g>
</g>
<!-- Node2&#45;&gt;Node22 -->
<g id="edge35_Node000002_Node000022" class="edge">
<title>Node2&#45;&gt;Node22</title>
<g id="a_edge35_Node000002_Node000022"><a xlink:title=" ">
<path fill="none" stroke="#63b8ff" d="M578.88,-225.94C615.77,-216.03 687.41,-198.01 731.96,-187.41"/>
<polygon fill="#63b8ff" stroke="#63b8ff" points="732.54,-190.87 741.47,-185.17 730.93,-184.06 732.54,-190.87"/>
</a>
</g>
</g>
<!-- Node10&#45;&gt;Node3 -->
<g id="edge10_Node000010_Node000003" class="edge">
<title>Node10&#45;&gt;Node3</title>
<g id="a_edge10_Node000010_Node000003"><a xlink:title=" ">
<path fill="none" stroke="#63b8ff" d="M658.45,-57.6C617.14,-48.07 545.18,-31.46 499.24,-20.86"/>
<polygon fill="#63b8ff" stroke="#63b8ff" points="500.16,-17.48 489.63,-18.65 498.59,-24.31 500.16,-17.48"/>
</a>
</g>
</g>
<!-- Node11 -->
<g id="Node000011" class="node">
<title>Node11</title>
<g id="a_Node000011"><a xlink:title=" ">
<polygon fill="#e0e0e0" stroke="#999999" points="776.12,-20 724.88,-20 724.88,0 776.12,0 776.12,-20"/>
<text xml:space="preserve" text-anchor="middle" x="750.5" y="-6.5" font-family="Helvetica,sans-Serif" font-size="10.00">assert.h</text>
</a>
</g>
</g>
<!-- Node10&#45;&gt;Node11 -->
<g id="edge11_Node000010_Node000011" class="edge">
<title>Node10&#45;&gt;Node11</title>
<g id="a_edge11_Node000010_Node000011"><a xlink:title=" ">
<path fill="none" stroke="#63b8ff" d="M700.95,-55.59C709.47,-47.93 721.71,-36.91 731.89,-27.75"/>
<polygon fill="#63b8ff" stroke="#63b8ff" points="733.95,-30.6 739.04,-21.31 729.27,-25.4 733.95,-30.6"/>
</a>
</g>
</g>
<!-- Node13 -->
<g id="Node000013" class="node">
<title>Node13</title>
<g id="a_Node000013"><a xlink:title=" ">
<polygon fill="#e0e0e0" stroke="#999999" points="930.5,-132 872.5,-132 872.5,-112 930.5,-112 930.5,-132"/>
<text xml:space="preserve" text-anchor="middle" x="901.5" y="-118.5" font-family="Helvetica,sans-Serif" font-size="10.00">exception</text>
</a>
</g>
</g>
<!-- Node12&#45;&gt;Node13 -->
<g id="edge13_Node000012_Node000013" class="edge">
<title>Node12&#45;&gt;Node13</title>
<g id="a_edge13_Node000012_Node000013"><a xlink:title=" ">
<path fill="none" stroke="#63b8ff" d="M901.5,-167.59C901.5,-161.01 901.5,-151.96 901.5,-143.73"/>
<polygon fill="#63b8ff" stroke="#63b8ff" points="905,-143.81 901.5,-133.81 898,-143.81 905,-143.81"/>
</a>
</g>
</g>
<!-- Node14&#45;&gt;Node3 -->
<g id="edge15_Node000014_Node000003" class="edge">
<title>Node14&#45;&gt;Node3</title>
<g id="a_edge15_Node000014_Node000003"><a xlink:title=" ">
<path fill="none" stroke="#63b8ff" d="M225.04,-167.82C216.53,-154.48 203.91,-129.42 215.5,-112 259.72,-45.53 357.03,-22.72 413.54,-14.95"/>
<polygon fill="#63b8ff" stroke="#63b8ff" points="413.96,-18.43 423.45,-13.7 413.09,-11.48 413.96,-18.43"/>
</a>
</g>
</g>
<!-- Node14&#45;&gt;Node4 -->
<g id="edge16_Node000014_Node000004" class="edge">
<title>Node14&#45;&gt;Node4</title>
<g id="a_edge16_Node000014_Node000004"><a xlink:title=" ">
<path fill="none" stroke="#63b8ff" d="M234.29,-167.59C236.28,-160.86 239.05,-151.53 241.53,-143.15"/>
<polygon fill="#63b8ff" stroke="#63b8ff" points="244.83,-144.33 244.31,-133.75 238.12,-142.34 244.83,-144.33"/>
</a>
</g>
</g>
<!-- Node14&#45;&gt;Node5 -->
<g id="edge17_Node000014_Node000005" class="edge">
<title>Node14&#45;&gt;Node5</title>
<g id="a_edge17_Node000014_Node000005"><a xlink:title=" ">
<path fill="none" stroke="#63b8ff" d="M245.43,-167.59C257.18,-159.67 274.23,-148.16 288.07,-138.82"/>
<polygon fill="#63b8ff" stroke="#63b8ff" points="289.87,-141.82 296.2,-133.33 285.96,-136.02 289.87,-141.82"/>
</a>
</g>
</g>
<!-- Node14&#45;&gt;Node6 -->
<g id="edge18_Node000014_Node000006" class="edge">
<title>Node14&#45;&gt;Node6</title>
<g id="a_edge18_Node000014_Node000006"><a xlink:title=" ">
<path fill="none" stroke="#63b8ff" d="M256.58,-167.59C280.27,-158.71 315.97,-145.32 342.07,-135.54"/>
<polygon fill="#63b8ff" stroke="#63b8ff" points="343.05,-138.91 351.19,-132.12 340.59,-132.35 343.05,-138.91"/>
</a>
</g>
</g>
<!-- Node14&#45;&gt;Node8 -->
<g id="edge19_Node000014_Node000008" class="edge">
<title>Node14&#45;&gt;Node8</title>
<g id="a_edge19_Node000014_Node000008"><a xlink:title=" ">
<path fill="none" stroke="#63b8ff" d="M201.13,-169.86C167.43,-161.85 111.18,-148.17 54.4,-132.71"/>
<polygon fill="#63b8ff" stroke="#63b8ff" points="55.45,-129.37 44.88,-130.1 53.6,-136.12 55.45,-129.37"/>
</a>
</g>
</g>
<!-- Node14&#45;&gt;Node9 -->
<g id="edge21_Node000014_Node000009" class="edge">
<title>Node14&#45;&gt;Node9</title>
<g id="a_edge21_Node000014_Node000009"><a xlink:title=" ">
<path fill="none" stroke="#63b8ff" d="M206.59,-167.59C183.77,-158.97 149.72,-146.12 124.04,-136.42"/>
<polygon fill="#63b8ff" stroke="#63b8ff" points="125.61,-133.27 115.02,-133.01 123.14,-139.82 125.61,-133.27"/>
</a>
</g>
</g>
<!-- Node15 -->
<g id="Node000015" class="node">
<title>Node15</title>
<g id="a_Node000015"><a xlink:title=" ">
<polygon fill="#e0e0e0" stroke="#999999" points="168.88,-132 134.12,-132 134.12,-112 168.88,-112 168.88,-132"/>
<text xml:space="preserve" text-anchor="middle" x="151.5" y="-118.5" font-family="Helvetica,sans-Serif" font-size="10.00">map</text>
</a>
</g>
</g>
<!-- Node14&#45;&gt;Node15 -->
<g id="edge20_Node000014_Node000015" class="edge">
<title>Node14&#45;&gt;Node15</title>
<g id="a_edge20_Node000014_Node000015"><a xlink:title=" ">
<path fill="none" stroke="#63b8ff" d="M217.57,-167.59C205.82,-159.67 188.77,-148.16 174.93,-138.82"/>
<polygon fill="#63b8ff" stroke="#63b8ff" points="177.04,-136.02 166.8,-133.33 173.13,-141.82 177.04,-136.02"/>
</a>
</g>
</g>
<!-- Node16&#45;&gt;Node3 -->
<g id="edge23_Node000016_Node000003" class="edge">
<title>Node16&#45;&gt;Node3</title>
<g id="a_edge23_Node000016_Node000003"><a xlink:title=" ">
<path fill="none" stroke="#63b8ff" d="M456.5,-55.59C456.5,-49.01 456.5,-39.96 456.5,-31.73"/>
<polygon fill="#63b8ff" stroke="#63b8ff" points="460,-31.81 456.5,-21.81 453,-31.81 460,-31.81"/>
</a>
</g>
</g>
<!-- Node17&#45;&gt;Node3 -->
<g id="edge25_Node000017_Node000003" class="edge">
<title>Node17&#45;&gt;Node3</title>
<g id="a_edge25_Node000017_Node000003"><a xlink:title=" ">
<path fill="none" stroke="#63b8ff" d="M527.44,-111.88C526.95,-98.61 524.49,-73.63 513.5,-56 506.15,-44.2 494.56,-34.22 483.74,-26.68"/>
<polygon fill="#63b8ff" stroke="#63b8ff" points="485.73,-23.8 475.44,-21.28 481.91,-29.67 485.73,-23.8"/>
</a>
</g>
</g>
<!-- Node18&#45;&gt;Node17 -->
<g id="edge27_Node000018_Node000017" class="edge">
<title>Node18&#45;&gt;Node17</title>
<g id="a_edge27_Node000018_Node000017"><a xlink:title=" ">
<path fill="none" stroke="#63b8ff" d="M550.62,-167.59C547.01,-160.63 541.96,-150.89 537.5,-142.29"/>
<polygon fill="#63b8ff" stroke="#63b8ff" points="540.73,-140.91 533.02,-133.64 534.51,-144.13 540.73,-140.91"/>
</a>
</g>
</g>
<!-- Node18&#45;&gt;Node19 -->
<g id="edge28_Node000018_Node000019" class="edge">
<title>Node18&#45;&gt;Node19</title>
<g id="a_edge28_Node000018_Node000019"><a xlink:title=" ">
<path fill="none" stroke="#63b8ff" d="M564.73,-167.59C572.1,-160.08 582.63,-149.35 591.52,-140.3"/>
<polygon fill="#63b8ff" stroke="#63b8ff" points="593.81,-142.97 598.31,-133.38 588.81,-138.06 593.81,-142.97"/>
</a>
</g>
</g>
<!-- Node19&#45;&gt;Node10 -->
<g id="edge29_Node000019_Node000010" class="edge">
<title>Node19&#45;&gt;Node10</title>
<g id="a_edge29_Node000019_Node000010"><a xlink:title=" ">
<path fill="none" stroke="#63b8ff" d="M622.78,-111.59C634.94,-103.59 652.64,-91.93 666.9,-82.54"/>
<polygon fill="#63b8ff" stroke="#63b8ff" points="668.41,-85.73 674.84,-77.31 664.56,-79.89 668.41,-85.73"/>
</a>
</g>
</g>
<!-- Node20 -->
<g id="Node000020" class="node">
<title>Node20</title>
<g id="a_Node000020"><a xlink:title=" ">
<polygon fill="#e0e0e0" stroke="#999999" points="641,-76 562,-76 562,-56 641,-56 641,-76"/>
<text xml:space="preserve" text-anchor="middle" x="601.5" y="-62.5" font-family="Helvetica,sans-Serif" font-size="10.00">DirectXmath.h</text>
</a>
</g>
</g>
<!-- Node19&#45;&gt;Node20 -->
<g id="edge30_Node000019_Node000020" class="edge">
<title>Node19&#45;&gt;Node20</title>
<g id="a_edge30_Node000019_Node000020"><a xlink:title=" ">
<path fill="none" stroke="#63b8ff" d="M607.28,-111.59C606.42,-104.93 605.23,-95.75 604.15,-87.44"/>
<polygon fill="#63b8ff" stroke="#63b8ff" points="607.66,-87.27 602.9,-77.8 600.71,-88.17 607.66,-87.27"/>
</a>
</g>
</g>
<!-- Node21&#45;&gt;Node2 -->
<g id="edge33_Node000021_Node000002" class="edge">
<title>Node21&#45;&gt;Node2</title>
<g id="a_edge33_Node000021_Node000002"><a xlink:title=" ">
<path fill="none" stroke="#63b8ff" d="M678.82,-188.42C655.8,-197.83 617.66,-212.26 589.79,-222.14"/>
<polygon fill="#63b8ff" stroke="#63b8ff" points="588.64,-218.84 580.35,-225.44 590.95,-225.44 588.64,-218.84"/>
</a>
</g>
</g>
<!-- Node21&#45;&gt;Node11 -->
<g id="edge34_Node000021_Node000011" class="edge">
<title>Node21&#45;&gt;Node11</title>
<g id="a_edge34_Node000021_Node000011"><a xlink:title=" ">
<path fill="none" stroke="#63b8ff" d="M701.69,-167.56C707.7,-149.73 721.03,-109.84 731.5,-76 736.14,-61.02 741.1,-44.01 744.79,-31.14"/>
<polygon fill="#63b8ff" stroke="#63b8ff" points="748.09,-32.32 747.47,-21.74 741.36,-30.4 748.09,-32.32"/>
</a>
</g>
</g>
<!-- Node22&#45;&gt;Node2 -->
<g id="edge36_Node000022_Node000002" class="edge">
<title>Node22&#45;&gt;Node2</title>
<g id="a_edge36_Node000022_Node000002"><a xlink:title=" ">
<path fill="none" stroke="#63b8ff" d="M742.98,-187.17C703.8,-197.61 632.38,-215.53 589.82,-225.59"/>
<polygon fill="#63b8ff" stroke="#63b8ff" points="589.04,-222.18 580.1,-227.86 590.63,-228.99 589.04,-222.18"/>
</a>
</g>
</g>
<!-- Node22&#45;&gt;Node11 -->
<g id="edge37_Node000022_Node000011" class="edge">
<title>Node22&#45;&gt;Node11</title>
<g id="a_edge37_Node000022_Node000011"><a xlink:title=" ">
<path fill="none" stroke="#63b8ff" d="M770.83,-167.8C771.38,-147.47 771.81,-97.21 764.5,-56 763.04,-47.75 760.51,-38.91 757.99,-31.26"/>
<polygon fill="#63b8ff" stroke="#63b8ff" points="761.33,-30.19 754.72,-21.91 754.72,-32.51 761.33,-30.19"/>
</a>
</g>
</g>
</g>
</svg>

<g id="navigator" transform="translate(0 0)" fill="#404254">
  <rect fill="#f2f5e9" fill-opacity="0.5" stroke="#606060" stroke-width=".5" x="0" y="0" width="60" height="60"/>
  <use id="zoomplus" xlink:href="#zoomPlus" x="17" y="9" onmousedown="handleZoom(evt,'in')"/>
  <use id="zoomminus" xlink:href="#zoomMin" x="42" y="9" onmousedown="handleZoom(evt,'out')"/>
  <use id="reset" xlink:href="#resetDef" x="30" y="36" onmousedown="handleReset()"/>
   <use id="arrowup" xlink:href="#arrowUp" x="0" y="0" onmousedown="handlePan(0,-1)"/>
  <use id="arrowright" xlink:href="#arrowRight" x="0" y="0" onmousedown="handlePan(1,0)"/>
  <use id="arrowdown" xlink:href="#arrowDown" x="0" y="0" onmousedown="handlePan(0,1)"/>
  <use id="arrowleft" xlink:href="#arrowLeft" x="0" y="0" onmousedown="handlePan(-1,0)"/>
</g>
<svg viewBox="0 0 15 15" width="100%" height="30px" preserveAspectRatio="xMaxYMin meet">
 <g id="arrow_out" transform="scale(0.3 0.3)">
  <a xlink:href="a00096_org.svg" target="_base">
   <rect id="button" ry="5" rx="5" y="6" x="6" height="38" width="38"
        fill="#f2f5e9" fill-opacity="0.5" stroke="#606060" stroke-width="1.0"/>
   <path id="arrow"
     d="M 11.500037,31.436501 C 11.940474,20.09759 22.043105,11.32322 32.158766,21.979434 L 37.068811,17.246167 C 37.068811,17.246167 37.088388,32 37.088388,32 L 22.160133,31.978069 C 22.160133,31.978069 26.997745,27.140456 26.997745,27.140456 C 18.528582,18.264221 13.291696,25.230495 11.500037,31.436501 z"
     style="fill:#404040;"/>
  </a>
 </g>
</svg>

<style type='text/css'>
<![CDATA[
[data-mouse-over-selected='false'] { opacity: 0.7; }
[data-mouse-over-selected='true']  { opacity: 1.0; }
]]>
</style>
<script type="application/ecmascript"><![CDATA[
document.addEventListener('DOMContentLoaded', (event) => {
  highlightEdges();
  highlightAdjacentNodes();
});
]]></script>
</svg>
