<?xml version="1.0" encoding="UTF-8" standalone="no"?>
<!DOCTYPE svg PUBLIC "-//W3C//DTD SVG 1.1//EN"
 "http://www.w3.org/Graphics/SVG/1.1/DTD/svg11.dtd">
<!-- Generated by graphviz version 13.1.2 (20250808.2320)
 -->
<!-- Title: SceneRender Pages: 1 -->
<!--zoomable 274 -->

<svg id="main" version="1.1" xmlns="http://www.w3.org/2000/svg" xmlns:xlink="http://www.w3.org/1999/xlink" xml:space="preserve" onload="init(evt)">

<style type="text/css"><![CDATA[
.node, .edge {opacity: 0.7;}
.node.selected, .edge.selected {opacity: 1;}
.edge:hover path { stroke: red; }
.edge:hover polygon { stroke: red; fill: red; }
]]></style>

<defs>
  <circle id="rim" cx="0" cy="0" r="7"/>
  <circle id="rim2" cx="0" cy="0" r="3.5"/>
  <g id="zoomPlus">
    <use xlink:href="#rim" fill="#404040"><set attributeName="fill" to="#808080" begin="zoomplus.mouseover" end="zoomplus.mouseout"/></use>
    <path d="M-4,0h8M0,-4v8" fill="none" stroke="white" stroke-width="1.5" pointer-events="none"/>
  </g>
  <g id="zoomMin">
    <use xlink:href="#rim" fill="#404040"><set attributeName="fill" to="#808080" begin="zoomminus.mouseover" end="zoomminus.mouseout"/></use>
    <path d="M-4,0h8" fill="none" stroke="white" stroke-width="1.5" pointer-events="none"/>
  </g>
  <g id="arrowUp" transform="translate(30 24)">
    <use xlink:href="#rim"/>
    <path pointer-events="none" fill="none" stroke="white" stroke-width="1.5" d="M0,-3.0v7 M-2.5,-0.5L0,-3.0L2.5,-0.5"/>
  </g>
  <g id="arrowRight" transform="rotate(90) translate(36 -43)">
    <use xlink:href="#rim"/>
    <path pointer-events="none" fill="none" stroke="white" stroke-width="1.5" d="M0,-3.0v7 M-2.5,-0.5L0,-3.0L2.5,-0.5"/>
  </g>
  <g id="arrowDown" transform="rotate(180) translate(-30 -48)">
    <use xlink:href="#rim"/>
    <path pointer-events="none" fill="none" stroke="white" stroke-width="1.5" d="M0,-3.0v7 M-2.5,-0.5L0,-3.0L2.5,-0.5"/>
  </g>
  <g id="arrowLeft" transform="rotate(270) translate(-36 17)">
    <use xlink:href="#rim"/>
    <path pointer-events="none" fill="none" stroke="white" stroke-width="1.5" d="M0,-3.0v7 M-2.5,-0.5L0,-3.0L2.5,-0.5"/>
  </g>
  <g id="resetDef">
    <use xlink:href="#rim2" fill="#404040"><set attributeName="fill" to="#808080" begin="reset.mouseover" end="reset.mouseout"/></use>
  </g>
</defs>
<script type="application/ecmascript">
var viewWidth = 525;
var viewHeight = 274;
var sectionId = 'dynsection-0';
</script>
<script type="application/ecmascript" xlink:href="svg.min.js"/>
<svg id="graph" class="graph">
<g id="viewport">
<title>SceneRender</title>
<!-- Node1 -->
<g id="Node000001" class="node">
<title>Node1</title>
<g id="a_Node000001"><a xlink:title="\u{2b50} 장면 그리기">
<polygon fill="#999999" stroke="#666666" points="75.25,-134 0,-134 0,-114 75.25,-114 75.25,-134"/>
<text xml:space="preserve" text-anchor="middle" x="37.62" y="-120.5" font-family="Helvetica,sans-Serif" font-size="10.00">SceneRender</text>
</a>
</g>
</g>
<!-- Node2 -->
<g id="Node000002" class="node">
<title>Node2</title>
<g id="a_Node000002"><a xlink:href="a00059_a2351adafd60182efe5d511e0c2aa26b1.html#a2351adafd60182efe5d511e0c2aa26b1" target="_top" xlink:title=" ">
<polygon fill="white" stroke="#666666" points="194,-248 112,-248 112,-228 194,-228 194,-248"/>
<text xml:space="preserve" text-anchor="middle" x="153" y="-234.5" font-family="Helvetica,sans-Serif" font-size="10.00">CameraUpdate</text>
</a>
</g>
</g>
<!-- Node1&#45;&gt;Node2 -->
<g id="edge1_Node000001_Node000002" class="edge">
<title>Node1&#45;&gt;Node2</title>
<g id="a_edge1_Node000001_Node000002"><a xlink:title=" ">
<path fill="none" stroke="#63b8ff" d="M44.32,-134.46C55.13,-153.5 80.35,-194.15 111.25,-219 112.54,-220.04 113.9,-221.04 115.31,-221.99"/>
<polygon fill="#63b8ff" stroke="#63b8ff" points="113.34,-224.9 123.73,-226.93 116.87,-218.85 113.34,-224.9"/>
</a>
</g>
</g>
<!-- Node6 -->
<g id="Node000006" class="node">
<title>Node6</title>
<g id="a_Node000006"><a xlink:href="a00050_a76c4195d88ec690c4da612bbd6d55f31.html#a76c4195d88ec690c4da612bbd6d55f31" target="_top" xlink:title="엔진 타이머 : 프레임 시간 획득.">
<polygon fill="white" stroke="#666666" points="194.75,-210 111.25,-210 111.25,-190 194.75,-190 194.75,-210"/>
<text xml:space="preserve" text-anchor="middle" x="153" y="-196.5" font-family="Helvetica,sans-Serif" font-size="10.00">GetEngineTime</text>
</a>
</g>
</g>
<!-- Node1&#45;&gt;Node6 -->
<g id="edge6_Node000001_Node000006" class="edge">
<title>Node1&#45;&gt;Node6</title>
<g id="a_edge6_Node000001_Node000006"><a xlink:title=" ">
<path fill="none" stroke="#63b8ff" d="M49.85,-134.15C63.62,-146.28 88.03,-166.74 111.25,-181 113.15,-182.16 115.12,-183.31 117.14,-184.41"/>
<polygon fill="#63b8ff" stroke="#63b8ff" points="115.54,-187.52 126.04,-188.95 118.72,-181.29 115.54,-187.52"/>
</a>
</g>
</g>
<!-- Node7 -->
<g id="Node000007" class="node">
<title>Node7</title>
<g id="a_Node000007"><a xlink:href="a00059_adfe3d7c4f90c898edb95bb1c90d45388.html#adfe3d7c4f90c898edb95bb1c90d45388" target="_top" xlink:title="\u{2b50} 오브젝트 그리기">
<polygon fill="white" stroke="#666666" points="180.12,-172 125.88,-172 125.88,-152 180.12,-152 180.12,-172"/>
<text xml:space="preserve" text-anchor="middle" x="153" y="-158.5" font-family="Helvetica,sans-Serif" font-size="10.00">ObjDraw</text>
</a>
</g>
</g>
<!-- Node1&#45;&gt;Node7 -->
<g id="edge7_Node000001_Node000007" class="edge">
<title>Node1&#45;&gt;Node7</title>
<g id="a_edge7_Node000001_Node000007"><a xlink:title=" ">
<path fill="none" stroke="#63b8ff" d="M69.91,-134.48C83.8,-139.14 100.26,-144.66 114.78,-149.52"/>
<polygon fill="#63b8ff" stroke="#63b8ff" points="113.4,-152.75 124,-152.61 115.63,-146.12 113.4,-152.75"/>
</a>
</g>
</g>
<!-- Node8 -->
<g id="Node000008" class="node">
<title>Node8</title>
<g id="a_Node000008"><a xlink:href="a00059_a71264aa9be3cdedfc23d807cca7e27e6.html#a71264aa9be3cdedfc23d807cca7e27e6" target="_top" xlink:title=" ">
<polygon fill="white" stroke="#666666" points="184.25,-134 121.75,-134 121.75,-114 184.25,-114 184.25,-134"/>
<text xml:space="preserve" text-anchor="middle" x="153" y="-120.5" font-family="Helvetica,sans-Serif" font-size="10.00">ObjUpdate</text>
</a>
</g>
</g>
<!-- Node1&#45;&gt;Node8 -->
<g id="edge8_Node000001_Node000008" class="edge">
<title>Node1&#45;&gt;Node8</title>
<g id="a_edge8_Node000001_Node000008"><a xlink:title=" ">
<path fill="none" stroke="#63b8ff" d="M75.75,-124C86.77,-124 98.92,-124 110.22,-124"/>
<polygon fill="#63b8ff" stroke="#63b8ff" points="110.09,-127.5 120.09,-124 110.09,-120.5 110.09,-127.5"/>
</a>
</g>
</g>
<!-- Node12 -->
<g id="Node000012" class="node">
<title>Node12</title>
<g id="a_Node000012"><a xlink:href="a00050_a8b5e6c31a2a6e19c38a0df9083df6f15.html#a8b5e6c31a2a6e19c38a0df9083df6f15" target="_top" xlink:title=" ">
<polygon fill="white" stroke="#666666" points="178.25,-96 127.75,-96 127.75,-76 178.25,-76 178.25,-96"/>
<text xml:space="preserve" text-anchor="middle" x="153" y="-82.5" font-family="Helvetica,sans-Serif" font-size="10.00">PutFPS</text>
</a>
</g>
</g>
<!-- Node1&#45;&gt;Node12 -->
<g id="edge15_Node000001_Node000012" class="edge">
<title>Node1&#45;&gt;Node12</title>
<g id="a_edge15_Node000001_Node000012"><a xlink:title=" ">
<path fill="none" stroke="#63b8ff" d="M69.91,-113.52C84.32,-108.68 101.5,-102.93 116.41,-97.93"/>
<polygon fill="#63b8ff" stroke="#63b8ff" points="117.48,-101.26 125.85,-94.77 115.25,-94.62 117.48,-101.26"/>
</a>
</g>
</g>
<!-- Node14 -->
<g id="Node000014" class="node">
<title>Node14</title>
<g id="a_Node000014"><a xlink:href="a00059_af4dd0814523522c2ef17aa2ec8079afc.html#af4dd0814523522c2ef17aa2ec8079afc" target="_top" xlink:title="도움말 출력">
<polygon fill="white" stroke="#666666" points="181.62,-58 124.38,-58 124.38,-38 181.62,-38 181.62,-58"/>
<text xml:space="preserve" text-anchor="middle" x="153" y="-44.5" font-family="Helvetica,sans-Serif" font-size="10.00">ShowInfo</text>
</a>
</g>
</g>
<!-- Node1&#45;&gt;Node14 -->
<g id="edge18_Node000001_Node000014" class="edge">
<title>Node1&#45;&gt;Node14</title>
<g id="a_edge18_Node000001_Node000014"><a xlink:title=" ">
<path fill="none" stroke="#63b8ff" d="M49.85,-113.85C63.62,-101.72 88.03,-81.26 111.25,-67 113.15,-65.84 115.12,-64.69 117.14,-63.59"/>
<polygon fill="#63b8ff" stroke="#63b8ff" points="118.72,-66.71 126.04,-59.05 115.54,-60.48 118.72,-66.71"/>
</a>
</g>
</g>
<!-- Node15 -->
<g id="Node000015" class="node">
<title>Node15</title>
<g id="a_Node000015"><a xlink:href="a00059_ac207065b1fb62c07f89a12f7b4192a20.html#ac207065b1fb62c07f89a12f7b4192a20" target="_top" xlink:title="엔진 및 시스템 상태 갱신.">
<polygon fill="white" stroke="#666666" points="193.62,-20 112.38,-20 112.38,0 193.62,0 193.62,-20"/>
<text xml:space="preserve" text-anchor="middle" x="153" y="-6.5" font-family="Helvetica,sans-Serif" font-size="10.00">SystemUpdate</text>
</a>
</g>
</g>
<!-- Node1&#45;&gt;Node15 -->
<g id="edge20_Node000001_Node000015" class="edge">
<title>Node1&#45;&gt;Node15</title>
<g id="a_edge20_Node000001_Node000015"><a xlink:title=" ">
<path fill="none" stroke="#63b8ff" d="M44.32,-113.54C55.13,-94.5 80.35,-53.85 111.25,-29 112.54,-27.96 113.9,-26.96 115.31,-26.01"/>
<polygon fill="#63b8ff" stroke="#63b8ff" points="116.87,-29.15 123.73,-21.07 113.34,-23.1 116.87,-29.15"/>
</a>
</g>
</g>
<!-- Node3 -->
<g id="Node000003" class="node">
<title>Node3</title>
<g id="a_Node000003"><a xlink:href="a00141_ga9735d0ed90f18f6601eff62e699f59fe.html#ga9735d0ed90f18f6601eff62e699f59fe" target="_top" xlink:title="뷰 변환 행렬 생성 : D3DXMatrixLookAtLH 대응.">
<polygon fill="white" stroke="#666666" points="361.5,-266 249.5,-266 249.5,-246 361.5,-246 361.5,-266"/>
<text xml:space="preserve" text-anchor="middle" x="305.5" y="-252.5" font-family="Helvetica,sans-Serif" font-size="10.00">B3YXMatrixLookAtLH</text>
</a>
</g>
</g>
<!-- Node2&#45;&gt;Node3 -->
<g id="edge2_Node000002_Node000003" class="edge">
<title>Node2&#45;&gt;Node3</title>
<g id="a_edge2_Node000002_Node000003"><a xlink:title=" ">
<path fill="none" stroke="#63b8ff" d="M194.33,-242.82C207.72,-244.43 223.01,-246.25 237.84,-248.03"/>
<polygon fill="#63b8ff" stroke="#63b8ff" points="237.21,-251.48 247.56,-249.19 238.05,-244.53 237.21,-251.48"/>
</a>
</g>
</g>
<!-- Node5 -->
<g id="Node000005" class="node">
<title>Node5</title>
<g id="a_Node000005"><a xlink:href="a00141_gab141b564e1c257402780d61a62a7230a.html#gab141b564e1c257402780d61a62a7230a" target="_top" xlink:title="투영 변환 행렬 생성 : D3DXMatrixPerspectiveFovLH 대응.">
<polygon fill="white" stroke="#666666" points="380.25,-228 230.75,-228 230.75,-208 380.25,-208 380.25,-228"/>
<text xml:space="preserve" text-anchor="middle" x="305.5" y="-214.5" font-family="Helvetica,sans-Serif" font-size="10.00">B3YXMatrixPerspectiveFovLH</text>
</a>
</g>
</g>
<!-- Node2&#45;&gt;Node5 -->
<g id="edge4_Node000002_Node000005" class="edge">
<title>Node2&#45;&gt;Node5</title>
<g id="a_edge4_Node000002_Node000005"><a xlink:title=" ">
<path fill="none" stroke="#63b8ff" d="M194.33,-232.64C202.08,-231.61 210.46,-230.5 219.03,-229.36"/>
<polygon fill="#63b8ff" stroke="#63b8ff" points="219.4,-232.84 228.85,-228.05 218.48,-225.9 219.4,-232.84"/>
</a>
</g>
</g>
<!-- Node4 -->
<g id="Node000004" class="node">
<title>Node4</title>
<g id="a_Node000004"><a xlink:href="a00141_ga02a75a42a0bae280a3396ecdb1c124e7.html#ga02a75a42a0bae280a3396ecdb1c124e7" target="_top" xlink:title="행렬 단위화(초기화) 함수">
<polygon fill="white" stroke="#666666" points="517,-190 416.25,-190 416.25,-170 517,-170 517,-190"/>
<text xml:space="preserve" text-anchor="middle" x="466.62" y="-176.5" font-family="Helvetica,sans-Serif" font-size="10.00">B3YXMatrixIdentity</text>
</a>
</g>
</g>
<!-- Node3&#45;&gt;Node4 -->
<g id="edge3_Node000003_Node000004" class="edge">
<title>Node3&#45;&gt;Node4</title>
<g id="a_edge3_Node000003_Node000004"><a xlink:title=" ">
<path fill="none" stroke="#63b8ff" d="M356.47,-245.57C364.58,-243.19 372.77,-240.35 380.25,-237 403.64,-226.54 427.69,-209.85 444.28,-197.23"/>
<polygon fill="#63b8ff" stroke="#63b8ff" points="446.19,-200.18 451.93,-191.27 441.89,-194.65 446.19,-200.18"/>
</a>
</g>
</g>
<!-- Node5&#45;&gt;Node4 -->
<g id="edge5_Node000005_Node000004" class="edge">
<title>Node5&#45;&gt;Node4</title>
<g id="a_edge5_Node000005_Node000004"><a xlink:title=" ">
<path fill="none" stroke="#63b8ff" d="M350.4,-207.52C369.1,-203.05 391.11,-197.79 410.85,-193.08"/>
<polygon fill="#63b8ff" stroke="#63b8ff" points="411.48,-196.53 420.39,-190.8 409.85,-189.72 411.48,-196.53"/>
</a>
</g>
</g>
<!-- Node9 -->
<g id="Node000009" class="node">
<title>Node9</title>
<g id="a_Node000009"><a xlink:href="a00141_gad8e630c14218a38be5a8afaa29be1f95.html#gad8e630c14218a38be5a8afaa29be1f95" target="_top" xlink:title="Y 축 기준 회전행렬 생성함수 (ver.YN) 단 회전량은 라디안.">
<polygon fill="white" stroke="#666666" points="361.5,-190 249.5,-190 249.5,-170 361.5,-170 361.5,-190"/>
<text xml:space="preserve" text-anchor="middle" x="305.5" y="-176.5" font-family="Helvetica,sans-Serif" font-size="10.00">B3YXMatrixRotationY</text>
</a>
</g>
</g>
<!-- Node8&#45;&gt;Node9 -->
<g id="edge9_Node000008_Node000009" class="edge">
<title>Node8&#45;&gt;Node9</title>
<g id="a_edge9_Node000008_Node000009"><a xlink:title=" ">
<path fill="none" stroke="#63b8ff" d="M176.47,-134.34C182.43,-137.12 188.85,-140.15 194.75,-143 210.86,-150.78 213.99,-154.73 230.75,-161 235.96,-162.95 241.44,-164.77 246.98,-166.45"/>
<polygon fill="#63b8ff" stroke="#63b8ff" points="245.58,-169.69 256.16,-169.09 247.52,-162.96 245.58,-169.69"/>
</a>
</g>
</g>
<!-- Node10 -->
<g id="Node000010" class="node">
<title>Node10</title>
<g id="a_Node000010"><a xlink:href="a00141_gae984f2b96f4d146a09bc7ec514d31fb9.html#gae984f2b96f4d146a09bc7ec514d31fb9" target="_top" xlink:title="스케일 행렬 생성 : D3DXMatrixScaling 대응.">
<polygon fill="white" stroke="#666666" points="355.88,-152 255.12,-152 255.12,-132 355.88,-132 355.88,-152"/>
<text xml:space="preserve" text-anchor="middle" x="305.5" y="-138.5" font-family="Helvetica,sans-Serif" font-size="10.00">B3YXMatrixScaling</text>
</a>
</g>
</g>
<!-- Node8&#45;&gt;Node10 -->
<g id="edge11_Node000008_Node000010" class="edge">
<title>Node8&#45;&gt;Node10</title>
<g id="a_edge11_Node000008_Node000010"><a xlink:title=" ">
<path fill="none" stroke="#63b8ff" d="M184.46,-127.64C201.41,-129.67 223.13,-132.27 243.42,-134.69"/>
<polygon fill="#63b8ff" stroke="#63b8ff" points="242.99,-138.17 253.33,-135.88 243.82,-131.22 242.99,-138.17"/>
</a>
</g>
</g>
<!-- Node11 -->
<g id="Node000011" class="node">
<title>Node11</title>
<g id="a_Node000011"><a xlink:href="a00141_ga39d89af6e45cb22dc8cecfec6b9631eb.html#ga39d89af6e45cb22dc8cecfec6b9631eb" target="_top" xlink:title="이동 행렬 생성 : D3DXMatrixTranslation 대응.">
<polygon fill="white" stroke="#666666" points="363.75,-114 247.25,-114 247.25,-94 363.75,-94 363.75,-114"/>
<text xml:space="preserve" text-anchor="middle" x="305.5" y="-100.5" font-family="Helvetica,sans-Serif" font-size="10.00">B3YXMatrixTranslation</text>
</a>
</g>
</g>
<!-- Node8&#45;&gt;Node11 -->
<g id="edge13_Node000008_Node000011" class="edge">
<title>Node8&#45;&gt;Node11</title>
<g id="a_edge13_Node000008_Node000011"><a xlink:title=" ">
<path fill="none" stroke="#63b8ff" d="M184.46,-119.95C199.25,-117.99 217.68,-115.54 235.62,-113.15"/>
<polygon fill="#63b8ff" stroke="#63b8ff" points="236.04,-116.63 245.49,-111.84 235.12,-109.69 236.04,-116.63"/>
</a>
</g>
</g>
<!-- Node9&#45;&gt;Node4 -->
<g id="edge10_Node000009_Node000004" class="edge">
<title>Node9&#45;&gt;Node4</title>
<g id="a_edge10_Node000009_Node000004"><a xlink:title=" ">
<path fill="none" stroke="#63b8ff" d="M361.71,-180C375.59,-180 390.57,-180 404.71,-180"/>
<polygon fill="#63b8ff" stroke="#63b8ff" points="404.33,-183.5 414.33,-180 404.33,-176.5 404.33,-183.5"/>
</a>
</g>
</g>
<!-- Node10&#45;&gt;Node4 -->
<g id="edge12_Node000010_Node000004" class="edge">
<title>Node10&#45;&gt;Node4</title>
<g id="a_edge12_Node000010_Node000004"><a xlink:title=" ">
<path fill="none" stroke="#63b8ff" d="M350.4,-152.48C369.1,-156.95 391.11,-162.21 410.85,-166.92"/>
<polygon fill="#63b8ff" stroke="#63b8ff" points="409.85,-170.28 420.39,-169.2 411.48,-163.47 409.85,-170.28"/>
</a>
</g>
</g>
<!-- Node11&#45;&gt;Node4 -->
<g id="edge14_Node000011_Node000004" class="edge">
<title>Node11&#45;&gt;Node4</title>
<g id="a_edge14_Node000011_Node000004"><a xlink:title=" ">
<path fill="none" stroke="#63b8ff" d="M356.47,-114.43C364.58,-116.81 372.77,-119.65 380.25,-123 403.64,-133.46 427.69,-150.15 444.28,-162.77"/>
<polygon fill="#63b8ff" stroke="#63b8ff" points="441.89,-165.35 451.93,-168.73 446.19,-159.82 441.89,-165.35"/>
</a>
</g>
</g>
<!-- Node13 -->
<g id="Node000013" class="node">
<title>Node13</title>
<g id="a_Node000013"><a xlink:href="a00050_a2034272a68b183b7651f0195b1d55182.html#a2034272a68b183b7651f0195b1d55182" target="_top" xlink:title=" ">
<polygon fill="white" stroke="#666666" points="334.5,-58 276.5,-58 276.5,-38 334.5,-38 334.5,-58"/>
<text xml:space="preserve" text-anchor="middle" x="305.5" y="-44.5" font-family="Helvetica,sans-Serif" font-size="10.00">DrawText</text>
</a>
</g>
</g>
<!-- Node12&#45;&gt;Node13 -->
<g id="edge16_Node000012_Node000013" class="edge">
<title>Node12&#45;&gt;Node13</title>
<g id="a_edge16_Node000012_Node000013"><a xlink:title=" ">
<path fill="none" stroke="#63b8ff" d="M178.52,-79.81C202.01,-73.88 237.87,-64.82 265.33,-57.89"/>
<polygon fill="#63b8ff" stroke="#63b8ff" points="265.84,-61.37 274.68,-55.53 264.13,-54.58 265.84,-61.37"/>
</a>
</g>
</g>
<!-- Node13&#45;&gt;Node13 -->
<g id="edge17_Node000013_Node000013" class="edge">
<title>Node13&#45;&gt;Node13</title>
<g id="a_edge17_Node000013_Node000013"><a xlink:title=" ">
<path fill="none" stroke="#63b8ff" d="M281.27,-58.34C270.91,-66.98 278.99,-76 305.5,-76 320,-76 328.98,-73.3 332.45,-69.44"/>
<polygon fill="#63b8ff" stroke="#63b8ff" points="335.87,-68.69 330.09,-59.81 329.07,-70.35 335.87,-68.69"/>
</a>
</g>
</g>
<!-- Node14&#45;&gt;Node13 -->
<g id="edge19_Node000014_Node000013" class="edge">
<title>Node14&#45;&gt;Node13</title>
<g id="a_edge19_Node000014_Node000013"><a xlink:title=" ">
<path fill="none" stroke="#63b8ff" d="M181.96,-48C205.25,-48 238.71,-48 264.79,-48"/>
<polygon fill="#63b8ff" stroke="#63b8ff" points="264.67,-51.5 274.67,-48 264.67,-44.5 264.67,-51.5"/>
</a>
</g>
</g>
</g>
</svg>

<g id="navigator" transform="translate(0 0)" fill="#404254">
  <rect fill="#f2f5e9" fill-opacity="0.5" stroke="#606060" stroke-width=".5" x="0" y="0" width="60" height="60"/>
  <use id="zoomplus" xlink:href="#zoomPlus" x="17" y="9" onmousedown="handleZoom(evt,'in')"/>
  <use id="zoomminus" xlink:href="#zoomMin" x="42" y="9" onmousedown="handleZoom(evt,'out')"/>
  <use id="reset" xlink:href="#resetDef" x="30" y="36" onmousedown="handleReset()"/>
   <use id="arrowup" xlink:href="#arrowUp" x="0" y="0" onmousedown="handlePan(0,-1)"/>
  <use id="arrowright" xlink:href="#arrowRight" x="0" y="0" onmousedown="handlePan(1,0)"/>
  <use id="arrowdown" xlink:href="#arrowDown" x="0" y="0" onmousedown="handlePan(0,1)"/>
  <use id="arrowleft" xlink:href="#arrowLeft" x="0" y="0" onmousedown="handlePan(-1,0)"/>
</g>
<svg viewBox="0 0 15 15" width="100%" height="30px" preserveAspectRatio="xMaxYMin meet">
 <g id="arrow_out" transform="scale(0.3 0.3)">
  <a xlink:href="a00059_a6d72e579f5eb095a38091a15d586f1a9_a6d72e579f5eb095a38091a15d586f1a9_cgraph_org.svg" target="_base">
   <rect id="button" ry="5" rx="5" y="6" x="6" height="38" width="38"
        fill="#f2f5e9" fill-opacity="0.5" stroke="#606060" stroke-width="1.0"/>
   <path id="arrow"
     d="M 11.500037,31.436501 C 11.940474,20.09759 22.043105,11.32322 32.158766,21.979434 L 37.068811,17.246167 C 37.068811,17.246167 37.088388,32 37.088388,32 L 22.160133,31.978069 C 22.160133,31.978069 26.997745,27.140456 26.997745,27.140456 C 18.528582,18.264221 13.291696,25.230495 11.500037,31.436501 z"
     style="fill:#404040;"/>
  </a>
 </g>
</svg>

<style type='text/css'>
<![CDATA[
[data-mouse-over-selected='false'] { opacity: 0.7; }
[data-mouse-over-selected='true']  { opacity: 1.0; }
]]>
</style>
<script type="application/ecmascript"><![CDATA[
document.addEventListener('DOMContentLoaded', (event) => {
  highlightEdges();
  highlightAdjacentNodes();
});
]]></script>
</svg>
