<?xml version="1.0" encoding="UTF-8" standalone="no"?>
<!DOCTYPE svg PUBLIC "-//W3C//DTD SVG 1.1//EN"
 "http://www.w3.org/Graphics/SVG/1.1/DTD/svg11.dtd">
<!-- Generated by graphviz version 13.1.2 (20250808.2320)
 -->
<!-- Title: Src/main.cpp Pages: 1 -->
<!--zoomable 364 -->

<svg id="main" version="1.1" xmlns="http://www.w3.org/2000/svg" xmlns:xlink="http://www.w3.org/1999/xlink" xml:space="preserve" onload="init(evt)">

<style type="text/css"><![CDATA[
.node, .edge {opacity: 0.7;}
.node.selected, .edge.selected {opacity: 1;}
.edge:hover path { stroke: red; }
.edge:hover polygon { stroke: red; fill: red; }
]]></style>

<defs>
  <circle id="rim" cx="0" cy="0" r="7"/>
  <circle id="rim2" cx="0" cy="0" r="3.5"/>
  <g id="zoomPlus">
    <use xlink:href="#rim" fill="#404040"><set attributeName="fill" to="#808080" begin="zoomplus.mouseover" end="zoomplus.mouseout"/></use>
    <path d="M-4,0h8M0,-4v8" fill="none" stroke="white" stroke-width="1.5" pointer-events="none"/>
  </g>
  <g id="zoomMin">
    <use xlink:href="#rim" fill="#404040"><set attributeName="fill" to="#808080" begin="zoomminus.mouseover" end="zoomminus.mouseout"/></use>
    <path d="M-4,0h8" fill="none" stroke="white" stroke-width="1.5" pointer-events="none"/>
  </g>
  <g id="arrowUp" transform="translate(30 24)">
    <use xlink:href="#rim"/>
    <path pointer-events="none" fill="none" stroke="white" stroke-width="1.5" d="M0,-3.0v7 M-2.5,-0.5L0,-3.0L2.5,-0.5"/>
  </g>
  <g id="arrowRight" transform="rotate(90) translate(36 -43)">
    <use xlink:href="#rim"/>
    <path pointer-events="none" fill="none" stroke="white" stroke-width="1.5" d="M0,-3.0v7 M-2.5,-0.5L0,-3.0L2.5,-0.5"/>
  </g>
  <g id="arrowDown" transform="rotate(180) translate(-30 -48)">
    <use xlink:href="#rim"/>
    <path pointer-events="none" fill="none" stroke="white" stroke-width="1.5" d="M0,-3.0v7 M-2.5,-0.5L0,-3.0L2.5,-0.5"/>
  </g>
  <g id="arrowLeft" transform="rotate(270) translate(-36 17)">
    <use xlink:href="#rim"/>
    <path pointer-events="none" fill="none" stroke="white" stroke-width="1.5" d="M0,-3.0v7 M-2.5,-0.5L0,-3.0L2.5,-0.5"/>
  </g>
  <g id="resetDef">
    <use xlink:href="#rim2" fill="#404040"><set attributeName="fill" to="#808080" begin="reset.mouseover" end="reset.mouseout"/></use>
  </g>
</defs>
<script type="application/ecmascript">
var viewWidth = 912;
var viewHeight = 364;
var sectionId = 'dynsection-0';
</script>
<script type="application/ecmascript" xlink:href="svg.min.js"/>
<svg id="graph" class="graph">
<g id="viewport">
<title>Src/main.cpp</title>
<!-- Node1 -->
<g id="Node000001" class="node">
<title>Node1</title>
<g id="a_Node000001"><a xlink:title="예제 애플리케이션 메인 / 윈도 프레임워크 소스">
<polygon fill="#999999" stroke="#666666" points="102.88,-356 29.12,-356 29.12,-336 102.88,-336 102.88,-356"/>
<text xml:space="preserve" text-anchor="middle" x="66" y="-342.5" font-family="Helvetica,sans-Serif" font-size="10.00">Src/main.cpp</text>
</a>
</g>
</g>
<!-- Node2 -->
<g id="Node000002" class="node">
<title>Node2</title>
<g id="a_Node000002"><a xlink:title=" ">
<polygon fill="#e0e0e0" stroke="#999999" points="412.25,-20 349.75,-20 349.75,0 412.25,0 412.25,-20"/>
<text xml:space="preserve" text-anchor="middle" x="381" y="-6.5" font-family="Helvetica,sans-Serif" font-size="10.00">windows.h</text>
</a>
</g>
</g>
<!-- Node1&#45;&gt;Node2 -->
<g id="edge1_Node000001_Node000002" class="edge">
<title>Node1&#45;&gt;Node2</title>
<g id="a_edge1_Node000001_Node000002"><a xlink:title=" ">
<path fill="none" stroke="#63b8ff" d="M55.4,-335.55C36.74,-317.83 0,-277.54 0,-235 0,-235 0,-235 0,-121 0,-51.29 238.44,-23.03 338.06,-14.27"/>
<polygon fill="#63b8ff" stroke="#63b8ff" points="338.32,-17.76 347.99,-13.42 337.73,-10.78 338.32,-17.76"/>
</a>
</g>
</g>
<!-- Node3 -->
<g id="Node000003" class="node">
<title>Node3</title>
<g id="a_Node000003"><a xlink:title=" ">
<polygon fill="#e0e0e0" stroke="#999999" points="80,-132 34,-132 34,-112 80,-112 80,-132"/>
<text xml:space="preserve" text-anchor="middle" x="57" y="-118.5" font-family="Helvetica,sans-Serif" font-size="10.00">tchar.h</text>
</a>
</g>
</g>
<!-- Node1&#45;&gt;Node3 -->
<g id="edge2_Node000001_Node000003" class="edge">
<title>Node1&#45;&gt;Node3</title>
<g id="a_edge2_Node000001_Node000003"><a xlink:title=" ">
<path fill="none" stroke="#63b8ff" d="M63.88,-335.75C61.92,-326.7 59.14,-312.49 58,-300 52.86,-243.53 54.61,-176.52 55.99,-143.49"/>
<polygon fill="#63b8ff" stroke="#63b8ff" points="59.47,-143.9 56.43,-133.75 52.48,-143.58 59.47,-143.9"/>
</a>
</g>
</g>
<!-- Node4 -->
<g id="Node000004" class="node">
<title>Node4</title>
<g id="a_Node000004"><a xlink:href="a00053.html" target="_top" xlink:title="예제 렌더링 장치 운용 헤더">
<polygon fill="white" stroke="#666666" points="121.5,-300 66.5,-300 66.5,-280 121.5,-280 121.5,-300"/>
<text xml:space="preserve" text-anchor="middle" x="94" y="-286.5" font-family="Helvetica,sans-Serif" font-size="10.00">Device.h</text>
</a>
</g>
</g>
<!-- Node1&#45;&gt;Node4 -->
<g id="edge3_Node000001_Node000004" class="edge">
<title>Node1&#45;&gt;Node4</title>
<g id="a_edge3_Node000001_Node000004"><a xlink:title=" ">
<path fill="none" stroke="#63b8ff" d="M70.88,-335.59C74.49,-328.63 79.54,-318.89 84,-310.29"/>
<polygon fill="#63b8ff" stroke="#63b8ff" points="86.99,-312.13 88.48,-301.64 80.77,-308.91 86.99,-312.13"/>
</a>
</g>
</g>
<!-- Node24 -->
<g id="Node000024" class="node">
<title>Node24</title>
<g id="a_Node000024"><a xlink:href="a00062.html" target="_top" xlink:title="예제 기본 렌더링/프레임웍 헤더">
<polygon fill="white" stroke="#666666" points="194.88,-300 139.12,-300 139.12,-280 194.88,-280 194.88,-300"/>
<text xml:space="preserve" text-anchor="middle" x="167" y="-286.5" font-family="Helvetica,sans-Serif" font-size="10.00">Render.h</text>
</a>
</g>
</g>
<!-- Node1&#45;&gt;Node24 -->
<g id="edge41_Node000001_Node000024" class="edge">
<title>Node1&#45;&gt;Node24</title>
<g id="a_edge41_Node000001_Node000024"><a xlink:title=" ">
<path fill="none" stroke="#63b8ff" d="M83.59,-335.59C98.92,-327.4 121.42,-315.37 139.19,-305.87"/>
<polygon fill="#63b8ff" stroke="#63b8ff" points="140.77,-308.99 147.94,-301.19 137.47,-302.82 140.77,-308.99"/>
</a>
</g>
</g>
<!-- Node5 -->
<g id="Node000005" class="node">
<title>Node5</title>
<g id="a_Node000005"><a xlink:href="a00068.html" target="_top" xlink:title="Yena SWR 기본 헤더 파일 (v1.x)">
<polygon fill="white" stroke="#666666" points="522,-244 476,-244 476,-224 522,-224 522,-244"/>
<text xml:space="preserve" text-anchor="middle" x="499" y="-230.5" font-family="Helvetica,sans-Serif" font-size="10.00">Yena.h</text>
</a>
</g>
</g>
<!-- Node4&#45;&gt;Node5 -->
<g id="edge4_Node000004_Node000005" class="edge">
<title>Node4&#45;&gt;Node5</title>
<g id="a_edge4_Node000004_Node000005"><a xlink:title=" ">
<path fill="none" stroke="#63b8ff" d="M121.83,-281.68C124.58,-281.07 127.34,-280.49 130,-280 251.87,-257.42 398.55,-243.4 464.24,-237.8"/>
<polygon fill="#63b8ff" stroke="#63b8ff" points="464.35,-241.3 474.03,-236.97 463.77,-234.32 464.35,-241.3"/>
</a>
</g>
</g>
<!-- Node5&#45;&gt;Node2 -->
<g id="edge5_Node000005_Node000002" class="edge">
<title>Node5&#45;&gt;Node2</title>
<g id="a_edge5_Node000005_Node000002"><a xlink:title=" ">
<path fill="none" stroke="#63b8ff" d="M475.62,-233.77C422.9,-234.62 291.69,-231.78 194,-188 158.58,-172.13 143.44,-167.16 127,-132 86.59,-45.56 255.76,-20.58 338.18,-13.6"/>
<polygon fill="#63b8ff" stroke="#63b8ff" points="338.24,-17.11 347.94,-12.83 337.69,-10.13 338.24,-17.11"/>
</a>
</g>
</g>
<!-- Node5&#45;&gt;Node3 -->
<g id="edge6_Node000005_Node000003" class="edge">
<title>Node5&#45;&gt;Node3</title>
<g id="a_edge6_Node000005_Node000003"><a xlink:title=" ">
<path fill="none" stroke="#63b8ff" d="M475.71,-232.91C400.24,-232.24 163.69,-226.99 100,-188 83.08,-177.64 71.44,-157.83 64.57,-142.78"/>
<polygon fill="#63b8ff" stroke="#63b8ff" points="67.92,-141.72 60.84,-133.84 61.47,-144.42 67.92,-141.72"/>
</a>
</g>
</g>
<!-- Node6 -->
<g id="Node000006" class="node">
<title>Node6</title>
<g id="a_Node000006"><a xlink:title=" ">
<polygon fill="#e0e0e0" stroke="#999999" points="182,-132 136,-132 136,-112 182,-112 182,-132"/>
<text xml:space="preserve" text-anchor="middle" x="159" y="-118.5" font-family="Helvetica,sans-Serif" font-size="10.00">math.h</text>
</a>
</g>
</g>
<!-- Node5&#45;&gt;Node6 -->
<g id="edge7_Node000005_Node000006" class="edge">
<title>Node5&#45;&gt;Node6</title>
<g id="a_edge7_Node000005_Node000006"><a xlink:title=" ">
<path fill="none" stroke="#63b8ff" d="M475.54,-233.79C426.28,-234.48 309.66,-231.03 225,-188 203.36,-177 184.3,-156.38 172.29,-141.3"/>
<polygon fill="#63b8ff" stroke="#63b8ff" points="175.23,-139.38 166.38,-133.55 169.66,-143.63 175.23,-139.38"/>
</a>
</g>
</g>
<!-- Node7 -->
<g id="Node000007" class="node">
<title>Node7</title>
<g id="a_Node000007"><a xlink:title=" ">
<polygon fill="#e0e0e0" stroke="#999999" points="245.62,-132 200.38,-132 200.38,-112 245.62,-112 245.62,-132"/>
<text xml:space="preserve" text-anchor="middle" x="223" y="-118.5" font-family="Helvetica,sans-Serif" font-size="10.00">stdio.h</text>
</a>
</g>
</g>
<!-- Node5&#45;&gt;Node7 -->
<g id="edge8_Node000005_Node000007" class="edge">
<title>Node5&#45;&gt;Node7</title>
<g id="a_edge8_Node000005_Node000007"><a xlink:title=" ">
<path fill="none" stroke="#63b8ff" d="M475.76,-232C419.19,-229.09 276.43,-218.81 242,-188 229.53,-176.84 225.05,-158 223.54,-143.47"/>
<polygon fill="#63b8ff" stroke="#63b8ff" points="227.04,-143.39 222.93,-133.62 220.05,-143.82 227.04,-143.39"/>
</a>
</g>
</g>
<!-- Node8 -->
<g id="Node000008" class="node">
<title>Node8</title>
<g id="a_Node000008"><a xlink:title=" ">
<polygon fill="#e0e0e0" stroke="#999999" points="291,-188 251,-188 251,-168 291,-168 291,-188"/>
<text xml:space="preserve" text-anchor="middle" x="271" y="-174.5" font-family="Helvetica,sans-Serif" font-size="10.00">string</text>
</a>
</g>
</g>
<!-- Node5&#45;&gt;Node8 -->
<g id="edge9_Node000005_Node000008" class="edge">
<title>Node5&#45;&gt;Node8</title>
<g id="a_edge9_Node000005_Node000008"><a xlink:title=" ">
<path fill="none" stroke="#63b8ff" d="M475.65,-227.83C439.16,-219.69 366.41,-203.25 305,-188 304.18,-187.8 303.34,-187.59 302.5,-187.38"/>
<polygon fill="#63b8ff" stroke="#63b8ff" points="303.49,-184.02 292.94,-184.91 301.74,-190.79 303.49,-184.02"/>
</a>
</g>
</g>
<!-- Node9 -->
<g id="Node000009" class="node">
<title>Node9</title>
<g id="a_Node000009"><a xlink:title=" ">
<polygon fill="#e0e0e0" stroke="#999999" points="306.5,-132 263.5,-132 263.5,-112 306.5,-112 306.5,-132"/>
<text xml:space="preserve" text-anchor="middle" x="285" y="-118.5" font-family="Helvetica,sans-Serif" font-size="10.00">vector</text>
</a>
</g>
</g>
<!-- Node5&#45;&gt;Node9 -->
<g id="edge10_Node000005_Node000009" class="edge">
<title>Node5&#45;&gt;Node9</title>
<g id="a_edge10_Node000005_Node000009"><a xlink:title=" ">
<path fill="none" stroke="#63b8ff" d="M475.58,-230.93C442.52,-227.06 381.34,-216.38 338,-188 319.96,-176.19 305.06,-156.3 295.7,-141.62"/>
<polygon fill="#63b8ff" stroke="#63b8ff" points="298.86,-140.08 290.68,-133.34 292.87,-143.71 298.86,-140.08"/>
</a>
</g>
</g>
<!-- Node10 -->
<g id="Node000010" class="node">
<title>Node10</title>
<g id="a_Node000010"><a xlink:title=" ">
<polygon fill="#e0e0e0" stroke="#999999" points="470.88,-132 415.12,-132 415.12,-112 470.88,-112 470.88,-132"/>
<text xml:space="preserve" text-anchor="middle" x="443" y="-118.5" font-family="Helvetica,sans-Serif" font-size="10.00">algorithm</text>
</a>
</g>
</g>
<!-- Node5&#45;&gt;Node10 -->
<g id="edge11_Node000005_Node000010" class="edge">
<title>Node5&#45;&gt;Node10</title>
<g id="a_edge11_Node000005_Node000010"><a xlink:title=" ">
<path fill="none" stroke="#63b8ff" d="M494.23,-223.62C485.09,-205.68 464.98,-166.17 452.85,-142.35"/>
<polygon fill="#63b8ff" stroke="#63b8ff" points="456.11,-141.03 448.45,-133.7 449.87,-144.2 456.11,-141.03"/>
</a>
</g>
</g>
<!-- Node11 -->
<g id="Node000011" class="node">
<title>Node11</title>
<g id="a_Node000011"><a xlink:href="a00092.html" target="_top" xlink:title="Yena SWR 엔진 기본 정의 문서.">
<polygon fill="white" stroke="#666666" points="637.62,-76 574.38,-76 574.38,-56 637.62,-56 637.62,-76"/>
<text xml:space="preserve" text-anchor="middle" x="606" y="-62.5" font-family="Helvetica,sans-Serif" font-size="10.00">ynDefine.h</text>
</a>
</g>
</g>
<!-- Node5&#45;&gt;Node11 -->
<g id="edge12_Node000005_Node000011" class="edge">
<title>Node5&#45;&gt;Node11</title>
<g id="a_edge12_Node000005_Node000011"><a xlink:title=" ">
<path fill="none" stroke="#63b8ff" d="M497.82,-223.76C495.54,-202.01 492.8,-146.79 518,-112 529.07,-96.72 546.85,-86.27 563.55,-79.31"/>
<polygon fill="#63b8ff" stroke="#63b8ff" points="564.77,-82.6 572.87,-75.77 562.28,-76.05 564.77,-82.6"/>
</a>
</g>
</g>
<!-- Node13 -->
<g id="Node000013" class="node">
<title>Node13</title>
<g id="a_Node000013"><a xlink:href="a00098.html" target="_top" xlink:title="에러, 예외 및 로그 처리 헤더 파일">
<polygon fill="white" stroke="#666666" points="582.88,-188 527.12,-188 527.12,-168 582.88,-168 582.88,-188"/>
<text xml:space="preserve" text-anchor="middle" x="555" y="-174.5" font-family="Helvetica,sans-Serif" font-size="10.00">ynError.h</text>
</a>
</g>
</g>
<!-- Node5&#45;&gt;Node13 -->
<g id="edge15_Node000005_Node000013" class="edge">
<title>Node5&#45;&gt;Node13</title>
<g id="a_edge15_Node000005_Node000013"><a xlink:title=" ">
<path fill="none" stroke="#63b8ff" d="M508.75,-223.59C516.62,-216.01 527.9,-205.13 537.35,-196.02"/>
<polygon fill="#63b8ff" stroke="#63b8ff" points="539.5,-198.81 544.27,-189.35 534.64,-193.77 539.5,-198.81"/>
</a>
</g>
</g>
<!-- Node15 -->
<g id="Node000015" class="node">
<title>Node15</title>
<g id="a_Node000015"><a xlink:href="a00110.html" target="_top" xlink:title="Yena SWR COM / GUID 헤더">
<polygon fill="white" stroke="#666666" points="407.12,-188 346.88,-188 346.88,-168 407.12,-168 407.12,-188"/>
<text xml:space="preserve" text-anchor="middle" x="377" y="-174.5" font-family="Helvetica,sans-Serif" font-size="10.00">ynGUID.h</text>
</a>
</g>
</g>
<!-- Node5&#45;&gt;Node15 -->
<g id="edge17_Node000005_Node000015" class="edge">
<title>Node5&#45;&gt;Node15</title>
<g id="a_edge17_Node000005_Node000015"><a xlink:title=" ">
<path fill="none" stroke="#63b8ff" d="M477.75,-223.59C458.71,-215.17 430.52,-202.69 408.8,-193.07"/>
<polygon fill="#63b8ff" stroke="#63b8ff" points="410.36,-189.94 399.8,-189.09 407.53,-196.34 410.36,-189.94"/>
</a>
</g>
</g>
<!-- Node17 -->
<g id="Node000017" class="node">
<title>Node17</title>
<g id="a_Node000017"><a xlink:href="a00122.html" target="_top" xlink:title="Yena SWR COM 기반 헤더 (v2.x)">
<polygon fill="white" stroke="#666666" points="475.5,-76 378.5,-76 378.5,-56 475.5,-56 475.5,-76"/>
<text xml:space="preserve" text-anchor="middle" x="427" y="-62.5" font-family="Helvetica,sans-Serif" font-size="10.00">ynUnknownbase.h</text>
</a>
</g>
</g>
<!-- Node5&#45;&gt;Node17 -->
<g id="edge25_Node000005_Node000017" class="edge">
<title>Node5&#45;&gt;Node17</title>
<g id="a_edge25_Node000005_Node000017"><a xlink:title=" ">
<path fill="none" stroke="#63b8ff" d="M522.23,-228.8C544.32,-223.46 576.42,-211.89 592,-188 610.46,-159.7 614.55,-138.82 594,-112 580.8,-94.77 529.24,-82.65 486.86,-75.36"/>
<polygon fill="#63b8ff" stroke="#63b8ff" points="487.69,-71.95 477.25,-73.77 486.55,-78.86 487.69,-71.95"/>
</a>
</g>
</g>
<!-- Node18 -->
<g id="Node000018" class="node">
<title>Node18</title>
<g id="a_Node000018"><a xlink:href="a00128.html" target="_top" xlink:title="Yena SW 엔진 자료형 정의 : DX9 (d3d9types.h) 대응">
<polygon fill="white" stroke="#666666" points="710.62,-132 641.38,-132 641.38,-112 710.62,-112 710.62,-132"/>
<text xml:space="preserve" text-anchor="middle" x="676" y="-118.5" font-family="Helvetica,sans-Serif" font-size="10.00">ynx9types.h</text>
</a>
</g>
</g>
<!-- Node5&#45;&gt;Node18 -->
<g id="edge27_Node000005_Node000018" class="edge">
<title>Node5&#45;&gt;Node18</title>
<g id="a_edge27_Node000005_Node000018"><a xlink:title=" ">
<path fill="none" stroke="#63b8ff" d="M522.21,-228.79C548.97,-223.06 593.34,-210.81 625,-188 641.88,-175.84 656,-156.6 665.07,-142.2"/>
<polygon fill="#63b8ff" stroke="#63b8ff" points="668.07,-144 670.21,-133.63 662.07,-140.41 668.07,-144"/>
</a>
</g>
</g>
<!-- Node19 -->
<g id="Node000019" class="node">
<title>Node19</title>
<g id="a_Node000019"><a xlink:href="a00125.html" target="_top" xlink:title="Yena SWR 인터페이스 헤더 : DX9 (d3d9.h) 대응">
<polygon fill="white" stroke="#666666" points="722.62,-188 677.38,-188 677.38,-168 722.62,-168 722.62,-188"/>
<text xml:space="preserve" text-anchor="middle" x="700" y="-174.5" font-family="Helvetica,sans-Serif" font-size="10.00">ynx9.h</text>
</a>
</g>
</g>
<!-- Node5&#45;&gt;Node19 -->
<g id="edge29_Node000005_Node000019" class="edge">
<title>Node5&#45;&gt;Node19</title>
<g id="a_edge29_Node000005_Node000019"><a xlink:title=" ">
<path fill="none" stroke="#63b8ff" d="M522.45,-226.7C557.87,-217.18 625.21,-199.09 666,-188.13"/>
<polygon fill="#63b8ff" stroke="#63b8ff" points="666.8,-191.54 675.55,-185.57 664.98,-184.78 666.8,-191.54"/>
</a>
</g>
</g>
<!-- Node20 -->
<g id="Node000020" class="node">
<title>Node20</title>
<g id="a_Node000020"><a xlink:href="a00116.html" target="_top" xlink:title="\u{2b50} Yena 수학 라이브러리 Yena Math Library for DirectX / OpenGL">
<polygon fill="white" stroke="#666666" points="785.25,-132 728.75,-132 728.75,-112 785.25,-112 785.25,-132"/>
<text xml:space="preserve" text-anchor="middle" x="757" y="-118.5" font-family="Helvetica,sans-Serif" font-size="10.00">ynMath.h</text>
</a>
</g>
</g>
<!-- Node5&#45;&gt;Node20 -->
<g id="edge34_Node000005_Node000020" class="edge">
<title>Node5&#45;&gt;Node20</title>
<g id="a_edge34_Node000005_Node000020"><a xlink:title=" ">
<path fill="none" stroke="#63b8ff" d="M522.25,-231.34C574.72,-227.16 700.26,-214.59 732,-188 745.32,-176.84 751.57,-157.72 754.48,-143.1"/>
<polygon fill="#63b8ff" stroke="#63b8ff" points="757.87,-144.06 755.99,-133.64 750.96,-142.96 757.87,-144.06"/>
</a>
</g>
</g>
<!-- Node22 -->
<g id="Node000022" class="node">
<title>Node22</title>
<g id="a_Node000022"><a xlink:href="a00104.html" target="_top" xlink:title="그리드 클래스 헤더.">
<polygon fill="white" stroke="#666666" points="831.38,-188 778.62,-188 778.62,-168 831.38,-168 831.38,-188"/>
<text xml:space="preserve" text-anchor="middle" x="805" y="-174.5" font-family="Helvetica,sans-Serif" font-size="10.00">ynGrid.h</text>
</a>
</g>
</g>
<!-- Node5&#45;&gt;Node22 -->
<g id="edge35_Node000005_Node000022" class="edge">
<title>Node5&#45;&gt;Node22</title>
<g id="a_edge35_Node000005_Node000022"><a xlink:title=" ">
<path fill="none" stroke="#63b8ff" d="M522.33,-228.64C567.74,-221.13 670.07,-204.92 756,-188 759.56,-187.3 763.29,-186.52 767.05,-185.72"/>
<polygon fill="#63b8ff" stroke="#63b8ff" points="767.76,-189.15 776.81,-183.64 766.3,-182.3 767.76,-189.15"/>
</a>
</g>
</g>
<!-- Node23 -->
<g id="Node000023" class="node">
<title>Node23</title>
<g id="a_Node000023"><a xlink:href="a00074.html" target="_top" xlink:title="공간축 클래스 헤더.">
<polygon fill="white" stroke="#666666" points="904.12,-188 849.88,-188 849.88,-168 904.12,-168 904.12,-188"/>
<text xml:space="preserve" text-anchor="middle" x="877" y="-174.5" font-family="Helvetica,sans-Serif" font-size="10.00">ynAxis.h</text>
</a>
</g>
</g>
<!-- Node5&#45;&gt;Node23 -->
<g id="edge38_Node000005_Node000023" class="edge">
<title>Node5&#45;&gt;Node23</title>
<g id="a_edge38_Node000005_Node000023"><a xlink:title=" ">
<path fill="none" stroke="#63b8ff" d="M522.49,-230.29C577.18,-224.47 715.95,-209.52 831,-188 833.43,-187.55 835.94,-187.03 838.48,-186.49"/>
<polygon fill="#63b8ff" stroke="#63b8ff" points="839.21,-189.91 848.2,-184.3 837.68,-183.08 839.21,-189.91"/>
</a>
</g>
</g>
<!-- Node11&#45;&gt;Node2 -->
<g id="edge13_Node000011_Node000002" class="edge">
<title>Node11&#45;&gt;Node2</title>
<g id="a_edge13_Node000011_Node000002"><a xlink:title=" ">
<path fill="none" stroke="#63b8ff" d="M574.24,-57.38C534.88,-47.93 467.64,-31.79 423.76,-21.26"/>
<polygon fill="#63b8ff" stroke="#63b8ff" points="424.61,-17.87 414.07,-18.94 422.98,-24.67 424.61,-17.87"/>
</a>
</g>
</g>
<!-- Node12 -->
<g id="Node000012" class="node">
<title>Node12</title>
<g id="a_Node000012"><a xlink:title=" ">
<polygon fill="#e0e0e0" stroke="#999999" points="844.62,-20 793.38,-20 793.38,0 844.62,0 844.62,-20"/>
<text xml:space="preserve" text-anchor="middle" x="819" y="-6.5" font-family="Helvetica,sans-Serif" font-size="10.00">assert.h</text>
</a>
</g>
</g>
<!-- Node11&#45;&gt;Node12 -->
<g id="edge14_Node000011_Node000012" class="edge">
<title>Node11&#45;&gt;Node12</title>
<g id="a_edge14_Node000011_Node000012"><a xlink:title=" ">
<path fill="none" stroke="#63b8ff" d="M637.89,-56.92C676.42,-47.15 741.14,-30.74 781.87,-20.41"/>
<polygon fill="#63b8ff" stroke="#63b8ff" points="782.64,-23.83 791.47,-17.98 780.92,-17.04 782.64,-23.83"/>
</a>
</g>
</g>
<!-- Node14 -->
<g id="Node000014" class="node">
<title>Node14</title>
<g id="a_Node000014"><a xlink:title=" ">
<polygon fill="#e0e0e0" stroke="#999999" points="585,-132 527,-132 527,-112 585,-112 585,-132"/>
<text xml:space="preserve" text-anchor="middle" x="556" y="-118.5" font-family="Helvetica,sans-Serif" font-size="10.00">exception</text>
</a>
</g>
</g>
<!-- Node13&#45;&gt;Node14 -->
<g id="edge16_Node000013_Node000014" class="edge">
<title>Node13&#45;&gt;Node14</title>
<g id="a_edge16_Node000013_Node000014"><a xlink:title=" ">
<path fill="none" stroke="#63b8ff" d="M555.17,-167.59C555.3,-161.01 555.46,-151.96 555.62,-143.73"/>
<polygon fill="#63b8ff" stroke="#63b8ff" points="559.11,-143.87 555.8,-133.81 552.12,-143.75 559.11,-143.87"/>
</a>
</g>
</g>
<!-- Node15&#45;&gt;Node2 -->
<g id="edge18_Node000015_Node000002" class="edge">
<title>Node15&#45;&gt;Node2</title>
<g id="a_edge18_Node000015_Node000002"><a xlink:title=" ">
<path fill="none" stroke="#63b8ff" d="M370.46,-167.52C364.84,-158.75 357.16,-145.14 354,-132 345.43,-96.39 360.18,-54.66 371.04,-30.68"/>
<polygon fill="#63b8ff" stroke="#63b8ff" points="374.13,-32.34 375.28,-21.8 367.81,-29.32 374.13,-32.34"/>
</a>
</g>
</g>
<!-- Node15&#45;&gt;Node3 -->
<g id="edge19_Node000015_Node000003" class="edge">
<title>Node15&#45;&gt;Node3</title>
<g id="a_edge19_Node000015_Node000003"><a xlink:title=" ">
<path fill="none" stroke="#63b8ff" d="M346.61,-171.87C286.81,-161.78 154.24,-139.41 91.36,-128.8"/>
<polygon fill="#63b8ff" stroke="#63b8ff" points="92.05,-125.37 81.61,-127.15 90.88,-132.27 92.05,-125.37"/>
</a>
</g>
</g>
<!-- Node15&#45;&gt;Node6 -->
<g id="edge20_Node000015_Node000006" class="edge">
<title>Node15&#45;&gt;Node6</title>
<g id="a_edge20_Node000015_Node000006"><a xlink:title=" ">
<path fill="none" stroke="#63b8ff" d="M346.63,-170.01C311.9,-161.95 253.06,-148.04 193.51,-132.59"/>
<polygon fill="#63b8ff" stroke="#63b8ff" points="194.42,-129.21 183.86,-130.07 192.65,-135.98 194.42,-129.21"/>
</a>
</g>
</g>
<!-- Node15&#45;&gt;Node7 -->
<g id="edge21_Node000015_Node000007" class="edge">
<title>Node15&#45;&gt;Node7</title>
<g id="a_edge21_Node000015_Node000007"><a xlink:title=" ">
<path fill="none" stroke="#63b8ff" d="M350.18,-167.59C324.16,-158.47 284.6,-144.6 256.52,-134.75"/>
<polygon fill="#63b8ff" stroke="#63b8ff" points="258.03,-131.57 247.43,-131.57 255.71,-138.18 258.03,-131.57"/>
</a>
</g>
</g>
<!-- Node15&#45;&gt;Node9 -->
<g id="edge22_Node000015_Node000009" class="edge">
<title>Node15&#45;&gt;Node9</title>
<g id="a_edge22_Node000015_Node000009"><a xlink:title=" ">
<path fill="none" stroke="#63b8ff" d="M360.97,-167.59C347.21,-159.51 327.1,-147.71 311.02,-138.27"/>
<polygon fill="#63b8ff" stroke="#63b8ff" points="312.85,-135.29 302.46,-133.25 309.31,-141.33 312.85,-135.29"/>
</a>
</g>
</g>
<!-- Node15&#45;&gt;Node10 -->
<g id="edge24_Node000015_Node000010" class="edge">
<title>Node15&#45;&gt;Node10</title>
<g id="a_edge24_Node000015_Node000010"><a xlink:title=" ">
<path fill="none" stroke="#63b8ff" d="M388.5,-167.59C397.96,-159.85 411.6,-148.69 422.87,-139.47"/>
<polygon fill="#63b8ff" stroke="#63b8ff" points="424.94,-142.3 430.46,-133.26 420.51,-136.88 424.94,-142.3"/>
</a>
</g>
</g>
<!-- Node16 -->
<g id="Node000016" class="node">
<title>Node16</title>
<g id="a_Node000016"><a xlink:title=" ">
<polygon fill="#e0e0e0" stroke="#999999" points="397.38,-132 362.62,-132 362.62,-112 397.38,-112 397.38,-132"/>
<text xml:space="preserve" text-anchor="middle" x="380" y="-118.5" font-family="Helvetica,sans-Serif" font-size="10.00">map</text>
</a>
</g>
</g>
<!-- Node15&#45;&gt;Node16 -->
<g id="edge23_Node000015_Node000016" class="edge">
<title>Node15&#45;&gt;Node16</title>
<g id="a_edge23_Node000015_Node000016"><a xlink:title=" ">
<path fill="none" stroke="#63b8ff" d="M377.52,-167.59C377.89,-161.01 378.39,-151.96 378.85,-143.73"/>
<polygon fill="#63b8ff" stroke="#63b8ff" points="382.34,-143.99 379.4,-133.81 375.35,-143.6 382.34,-143.99"/>
</a>
</g>
</g>
<!-- Node17&#45;&gt;Node2 -->
<g id="edge26_Node000017_Node000002" class="edge">
<title>Node17&#45;&gt;Node2</title>
<g id="a_edge26_Node000017_Node000002"><a xlink:title=" ">
<path fill="none" stroke="#63b8ff" d="M418.99,-55.59C412.72,-48.24 403.83,-37.8 396.22,-28.87"/>
<polygon fill="#63b8ff" stroke="#63b8ff" points="399.05,-26.79 389.9,-21.45 393.72,-31.33 399.05,-26.79"/>
</a>
</g>
</g>
<!-- Node18&#45;&gt;Node2 -->
<g id="edge28_Node000018_Node000002" class="edge">
<title>Node18&#45;&gt;Node2</title>
<g id="a_edge28_Node000018_Node000002"><a xlink:title=" ">
<path fill="none" stroke="#63b8ff" d="M650.59,-111.53C598.1,-91.95 477.53,-46.99 417.02,-24.43"/>
<polygon fill="#63b8ff" stroke="#63b8ff" points="418.46,-21.23 407.87,-21.02 416.02,-27.79 418.46,-21.23"/>
</a>
</g>
</g>
<!-- Node19&#45;&gt;Node18 -->
<g id="edge30_Node000019_Node000018" class="edge">
<title>Node19&#45;&gt;Node18</title>
<g id="a_edge30_Node000019_Node000018"><a xlink:title=" ">
<path fill="none" stroke="#63b8ff" d="M695.82,-167.59C692.76,-160.7 688.49,-151.1 684.7,-142.57"/>
<polygon fill="#63b8ff" stroke="#63b8ff" points="688.01,-141.4 680.75,-133.68 681.61,-144.24 688.01,-141.4"/>
</a>
</g>
</g>
<!-- Node19&#45;&gt;Node20 -->
<g id="edge31_Node000019_Node000020" class="edge">
<title>Node19&#45;&gt;Node20</title>
<g id="a_edge31_Node000019_Node000020"><a xlink:title=" ">
<path fill="none" stroke="#63b8ff" d="M709.93,-167.59C717.94,-160.01 729.42,-149.13 739.03,-140.02"/>
<polygon fill="#63b8ff" stroke="#63b8ff" points="741.23,-142.76 746.09,-133.34 736.42,-137.68 741.23,-142.76"/>
</a>
</g>
</g>
<!-- Node20&#45;&gt;Node11 -->
<g id="edge32_Node000020_Node000011" class="edge">
<title>Node20&#45;&gt;Node11</title>
<g id="a_edge32_Node000020_Node000011"><a xlink:title=" ">
<path fill="none" stroke="#63b8ff" d="M730.7,-111.59C706.49,-102.94 670.32,-90 643.16,-80.29"/>
<polygon fill="#63b8ff" stroke="#63b8ff" points="644.53,-77.06 633.93,-76.99 642.17,-83.65 644.53,-77.06"/>
</a>
</g>
</g>
<!-- Node21 -->
<g id="Node000021" class="node">
<title>Node21</title>
<g id="a_Node000021"><a xlink:title=" ">
<polygon fill="#e0e0e0" stroke="#999999" points="790.5,-76 711.5,-76 711.5,-56 790.5,-56 790.5,-76"/>
<text xml:space="preserve" text-anchor="middle" x="751" y="-62.5" font-family="Helvetica,sans-Serif" font-size="10.00">DirectXmath.h</text>
</a>
</g>
</g>
<!-- Node20&#45;&gt;Node21 -->
<g id="edge33_Node000020_Node000021" class="edge">
<title>Node20&#45;&gt;Node21</title>
<g id="a_edge33_Node000020_Node000021"><a xlink:title=" ">
<path fill="none" stroke="#63b8ff" d="M755.95,-111.59C755.22,-105.01 754.22,-95.96 753.3,-87.73"/>
<polygon fill="#63b8ff" stroke="#63b8ff" points="756.78,-87.35 752.2,-77.8 749.83,-88.13 756.78,-87.35"/>
</a>
</g>
</g>
<!-- Node22&#45;&gt;Node5 -->
<g id="edge36_Node000022_Node000005" class="edge">
<title>Node22&#45;&gt;Node5</title>
<g id="a_edge36_Node000022_Node000005"><a xlink:title=" ">
<path fill="none" stroke="#63b8ff" d="M778.25,-187.14C776.82,-187.44 775.4,-187.72 774,-188 688.31,-204.88 586.32,-221.04 533.76,-228.58"/>
<polygon fill="#63b8ff" stroke="#63b8ff" points="533.32,-225.11 523.91,-229.97 534.3,-232.04 533.32,-225.11"/>
</a>
</g>
</g>
<!-- Node22&#45;&gt;Node12 -->
<g id="edge37_Node000022_Node000012" class="edge">
<title>Node22&#45;&gt;Node12</title>
<g id="a_edge37_Node000022_Node000012"><a xlink:title=" ">
<path fill="none" stroke="#63b8ff" d="M805.79,-167.6C808,-141.46 814.24,-67.48 817.28,-31.36"/>
<polygon fill="#63b8ff" stroke="#63b8ff" points="820.74,-32.06 818.09,-21.81 813.76,-31.48 820.74,-32.06"/>
</a>
</g>
</g>
<!-- Node23&#45;&gt;Node5 -->
<g id="edge39_Node000023_Node000005" class="edge">
<title>Node23&#45;&gt;Node5</title>
<g id="a_edge39_Node000023_Node000005"><a xlink:title=" ">
<path fill="none" stroke="#63b8ff" d="M849.39,-187.93C849.26,-187.95 849.13,-187.98 849,-188 734.58,-209.4 596.69,-224.3 533.44,-230.19"/>
<polygon fill="#63b8ff" stroke="#63b8ff" points="533.32,-226.69 523.68,-231.08 533.96,-233.66 533.32,-226.69"/>
</a>
</g>
</g>
<!-- Node23&#45;&gt;Node12 -->
<g id="edge40_Node000023_Node000012" class="edge">
<title>Node23&#45;&gt;Node12</title>
<g id="a_edge40_Node000023_Node000012"><a xlink:title=" ">
<path fill="none" stroke="#63b8ff" d="M873.72,-167.6C864.54,-141.35 838.51,-66.84 825.95,-30.89"/>
<polygon fill="#63b8ff" stroke="#63b8ff" points="829.35,-30.01 822.75,-21.73 822.74,-32.32 829.35,-30.01"/>
</a>
</g>
</g>
</g>
</svg>

<g id="navigator" transform="translate(0 0)" fill="#404254">
  <rect fill="#f2f5e9" fill-opacity="0.5" stroke="#606060" stroke-width=".5" x="0" y="0" width="60" height="60"/>
  <use id="zoomplus" xlink:href="#zoomPlus" x="17" y="9" onmousedown="handleZoom(evt,'in')"/>
  <use id="zoomminus" xlink:href="#zoomMin" x="42" y="9" onmousedown="handleZoom(evt,'out')"/>
  <use id="reset" xlink:href="#resetDef" x="30" y="36" onmousedown="handleReset()"/>
   <use id="arrowup" xlink:href="#arrowUp" x="0" y="0" onmousedown="handlePan(0,-1)"/>
  <use id="arrowright" xlink:href="#arrowRight" x="0" y="0" onmousedown="handlePan(1,0)"/>
  <use id="arrowdown" xlink:href="#arrowDown" x="0" y="0" onmousedown="handlePan(0,1)"/>
  <use id="arrowleft" xlink:href="#arrowLeft" x="0" y="0" onmousedown="handlePan(-1,0)"/>
</g>
<svg viewBox="0 0 15 15" width="100%" height="30px" preserveAspectRatio="xMaxYMin meet">
 <g id="arrow_out" transform="scale(0.3 0.3)">
  <a xlink:href="a00057_org.svg" target="_base">
   <rect id="button" ry="5" rx="5" y="6" x="6" height="38" width="38"
        fill="#f2f5e9" fill-opacity="0.5" stroke="#606060" stroke-width="1.0"/>
   <path id="arrow"
     d="M 11.500037,31.436501 C 11.940474,20.09759 22.043105,11.32322 32.158766,21.979434 L 37.068811,17.246167 C 37.068811,17.246167 37.088388,32 37.088388,32 L 22.160133,31.978069 C 22.160133,31.978069 26.997745,27.140456 26.997745,27.140456 C 18.528582,18.264221 13.291696,25.230495 11.500037,31.436501 z"
     style="fill:#404040;"/>
  </a>
 </g>
</svg>

<style type='text/css'>
<![CDATA[
[data-mouse-over-selected='false'] { opacity: 0.7; }
[data-mouse-over-selected='true']  { opacity: 1.0; }
]]>
</style>
<script type="application/ecmascript"><![CDATA[
document.addEventListener('DOMContentLoaded', (event) => {
  highlightEdges();
  highlightAdjacentNodes();
});
]]></script>
</svg>
