<?xml version="1.0" encoding="UTF-8" standalone="no"?>
<!DOCTYPE svg PUBLIC "-//W3C//DTD SVG 1.1//EN"
 "http://www.w3.org/Graphics/SVG/1.1/DTD/svg11.dtd">
<!-- Generated by graphviz version 13.1.2 (20250808.2320)
 -->
<!-- Title: WinMain Pages: 1 -->
<!--zoomable 541 -->

<svg id="main" version="1.1" xmlns="http://www.w3.org/2000/svg" xmlns:xlink="http://www.w3.org/1999/xlink" xml:space="preserve" onload="init(evt)">

<style type="text/css"><![CDATA[
.node, .edge {opacity: 0.7;}
.node.selected, .edge.selected {opacity: 1;}
.edge:hover path { stroke: red; }
.edge:hover polygon { stroke: red; fill: red; }
]]></style>

<defs>
  <circle id="rim" cx="0" cy="0" r="7"/>
  <circle id="rim2" cx="0" cy="0" r="3.5"/>
  <g id="zoomPlus">
    <use xlink:href="#rim" fill="#404040"><set attributeName="fill" to="#808080" begin="zoomplus.mouseover" end="zoomplus.mouseout"/></use>
    <path d="M-4,0h8M0,-4v8" fill="none" stroke="white" stroke-width="1.5" pointer-events="none"/>
  </g>
  <g id="zoomMin">
    <use xlink:href="#rim" fill="#404040"><set attributeName="fill" to="#808080" begin="zoomminus.mouseover" end="zoomminus.mouseout"/></use>
    <path d="M-4,0h8" fill="none" stroke="white" stroke-width="1.5" pointer-events="none"/>
  </g>
  <g id="arrowUp" transform="translate(30 24)">
    <use xlink:href="#rim"/>
    <path pointer-events="none" fill="none" stroke="white" stroke-width="1.5" d="M0,-3.0v7 M-2.5,-0.5L0,-3.0L2.5,-0.5"/>
  </g>
  <g id="arrowRight" transform="rotate(90) translate(36 -43)">
    <use xlink:href="#rim"/>
    <path pointer-events="none" fill="none" stroke="white" stroke-width="1.5" d="M0,-3.0v7 M-2.5,-0.5L0,-3.0L2.5,-0.5"/>
  </g>
  <g id="arrowDown" transform="rotate(180) translate(-30 -48)">
    <use xlink:href="#rim"/>
    <path pointer-events="none" fill="none" stroke="white" stroke-width="1.5" d="M0,-3.0v7 M-2.5,-0.5L0,-3.0L2.5,-0.5"/>
  </g>
  <g id="arrowLeft" transform="rotate(270) translate(-36 17)">
    <use xlink:href="#rim"/>
    <path pointer-events="none" fill="none" stroke="white" stroke-width="1.5" d="M0,-3.0v7 M-2.5,-0.5L0,-3.0L2.5,-0.5"/>
  </g>
  <g id="resetDef">
    <use xlink:href="#rim2" fill="#404040"><set attributeName="fill" to="#808080" begin="reset.mouseover" end="reset.mouseout"/></use>
  </g>
</defs>
<script type="application/ecmascript">
var viewWidth = 647;
var viewHeight = 541;
var sectionId = 'dynsection-0';
</script>
<script type="application/ecmascript" xlink:href="svg.min.js"/>
<svg id="graph" class="graph">
<g id="viewport">
<title>WinMain</title>
<!-- Node1 -->
<g id="Node000001" class="node">
<title>Node1</title>
<g id="a_Node000001"><a xlink:title="애플리케이션 메인 함수.">
<polygon fill="#999999" stroke="#666666" points="54.25,-286 0,-286 0,-266 54.25,-266 54.25,-286"/>
<text xml:space="preserve" text-anchor="middle" x="27.12" y="-272.5" font-family="Helvetica,sans-Serif" font-size="10.00">WinMain</text>
</a>
</g>
</g>
<!-- Node2 -->
<g id="Node000002" class="node">
<title>Node2</title>
<g id="a_Node000002"><a xlink:href="a00059_a57d51554e2556fddd2c6d059b69dc5cb.html#a57d51554e2556fddd2c6d059b69dc5cb" target="_top" xlink:title=" ">
<polygon fill="white" stroke="#666666" points="166.25,-476 95.5,-476 95.5,-456 166.25,-456 166.25,-476"/>
<text xml:space="preserve" text-anchor="middle" x="130.88" y="-462.5" font-family="Helvetica,sans-Serif" font-size="10.00">DataLoading</text>
</a>
</g>
</g>
<!-- Node1&#45;&gt;Node2 -->
<g id="edge1_Node000001_Node000002" class="edge">
<title>Node1&#45;&gt;Node2</title>
<g id="a_edge1_Node000001_Node000002"><a xlink:title=" ">
<path fill="none" stroke="#63b8ff" d="M32.23,-286.31C41.44,-309.06 64.95,-365.04 90.25,-409 97.8,-422.12 107.47,-436.08 115.38,-446.9"/>
<polygon fill="#63b8ff" stroke="#63b8ff" points="112.34,-448.69 121.12,-454.63 117.96,-444.51 112.34,-448.69"/>
</a>
</g>
</g>
<!-- Node8 -->
<g id="Node000008" class="node">
<title>Node8</title>
<g id="a_Node000008"><a xlink:href="a00059_a1fd03c204025be83f24bbe60ce3b6055.html#a1fd03c204025be83f24bbe60ce3b6055" target="_top" xlink:title=" ">
<polygon fill="white" stroke="#666666" points="167.38,-400 94.38,-400 94.38,-380 167.38,-380 167.38,-400"/>
<text xml:space="preserve" text-anchor="middle" x="130.88" y="-386.5" font-family="Helvetica,sans-Serif" font-size="10.00">DataRelease</text>
</a>
</g>
</g>
<!-- Node1&#45;&gt;Node8 -->
<g id="edge7_Node000001_Node000008" class="edge">
<title>Node1&#45;&gt;Node8</title>
<g id="a_edge7_Node000001_Node000008"><a xlink:title=" ">
<path fill="none" stroke="#63b8ff" d="M35.99,-286.41C47.42,-301.36 69.55,-329.59 90.25,-352 96.48,-358.74 103.62,-365.78 110.11,-371.95"/>
<polygon fill="#63b8ff" stroke="#63b8ff" points="107.61,-374.4 117.31,-378.67 112.39,-369.29 107.61,-374.4"/>
</a>
</g>
</g>
<!-- Node10 -->
<g id="Node000010" class="node">
<title>Node10</title>
<g id="a_Node000010"><a xlink:href="a00056_ac2106f07f578d8091d9948c889e60d44.html#ac2106f07f578d8091d9948c889e60d44" target="_top" xlink:title=" ">
<polygon fill="white" stroke="#666666" points="163.25,-343 98.5,-343 98.5,-323 163.25,-323 163.25,-343"/>
<text xml:space="preserve" text-anchor="middle" x="130.88" y="-329.5" font-family="Helvetica,sans-Serif" font-size="10.00">InitWindow</text>
</a>
</g>
</g>
<!-- Node1&#45;&gt;Node10 -->
<g id="edge9_Node000001_Node000010" class="edge">
<title>Node1&#45;&gt;Node10</title>
<g id="a_edge9_Node000001_Node000010"><a xlink:title=" ">
<path fill="none" stroke="#63b8ff" d="M46.79,-286.45C62.13,-295.05 84.13,-307.37 101.63,-317.18"/>
<polygon fill="#63b8ff" stroke="#63b8ff" points="99.58,-320.04 110.01,-321.87 103,-313.93 99.58,-320.04"/>
</a>
</g>
</g>
<!-- Node14 -->
<g id="Node000014" class="node">
<title>Node14</title>
<g id="a_Node000014"><a xlink:href="a00056_ab9fdb11deae0525b065d73d356b9ad1c.html#ab9fdb11deae0525b065d73d356b9ad1c" target="_top" xlink:title=" ">
<polygon fill="white" stroke="#666666" points="171.5,-286 90.25,-286 90.25,-266 171.5,-266 171.5,-286"/>
<text xml:space="preserve" text-anchor="middle" x="130.88" y="-272.5" font-family="Helvetica,sans-Serif" font-size="10.00">MessagePump</text>
</a>
</g>
</g>
<!-- Node1&#45;&gt;Node14 -->
<g id="edge13_Node000001_Node000014" class="edge">
<title>Node1&#45;&gt;Node14</title>
<g id="a_edge13_Node000001_Node000014"><a xlink:title=" ">
<path fill="none" stroke="#63b8ff" d="M54.59,-276C62.04,-276 70.41,-276 78.78,-276"/>
<polygon fill="#63b8ff" stroke="#63b8ff" points="78.6,-279.5 88.6,-276 78.6,-272.5 78.6,-279.5"/>
</a>
</g>
</g>
<!-- Node15 -->
<g id="Node000015" class="node">
<title>Node15</title>
<g id="a_Node000015"><a xlink:href="a00059_a6d72e579f5eb095a38091a15d586f1a9.html#a6d72e579f5eb095a38091a15d586f1a9" target="_top" xlink:title="\u{2b50} 장면 그리기">
<polygon fill="white" stroke="#666666" points="168.5,-229 93.25,-229 93.25,-209 168.5,-209 168.5,-229"/>
<text xml:space="preserve" text-anchor="middle" x="130.88" y="-215.5" font-family="Helvetica,sans-Serif" font-size="10.00">SceneRender</text>
</a>
</g>
</g>
<!-- Node1&#45;&gt;Node15 -->
<g id="edge14_Node000001_Node000015" class="edge">
<title>Node1&#45;&gt;Node15</title>
<g id="a_edge14_Node000001_Node000015"><a xlink:title=" ">
<path fill="none" stroke="#63b8ff" d="M46.79,-265.55C62.13,-256.95 84.13,-244.63 101.63,-234.82"/>
<polygon fill="#63b8ff" stroke="#63b8ff" points="103,-238.07 110.01,-230.13 99.58,-231.96 103,-238.07"/>
</a>
</g>
</g>
<!-- Node30 -->
<g id="Node000030" class="node">
<title>Node30</title>
<g id="a_Node000030"><a xlink:href="a00050_afc209451cd1079d8919b834c908f19ef.html#afc209451cd1079d8919b834c908f19ef" target="_top" xlink:title="예나 SWR 엔진 제거 : 종료시 1회 호출">
<polygon fill="white" stroke="#666666" points="167.75,-191 94,-191 94,-171 167.75,-171 167.75,-191"/>
<text xml:space="preserve" text-anchor="middle" x="130.88" y="-177.5" font-family="Helvetica,sans-Serif" font-size="10.00">YenaRelease</text>
</a>
</g>
</g>
<!-- Node1&#45;&gt;Node30 -->
<g id="edge35_Node000001_Node000030" class="edge">
<title>Node1&#45;&gt;Node30</title>
<g id="a_edge35_Node000001_Node000030"><a xlink:title=" ">
<path fill="none" stroke="#63b8ff" d="M34.42,-265.69C44.52,-249.83 65.73,-219.28 90.25,-200 91.56,-198.97 92.94,-197.97 94.36,-197.02"/>
<polygon fill="#63b8ff" stroke="#63b8ff" points="95.99,-200.12 102.86,-192.05 92.46,-194.08 95.99,-200.12"/>
</a>
</g>
</g>
<!-- Node31 -->
<g id="Node000031" class="node">
<title>Node31</title>
<g id="a_Node000031"><a xlink:href="a00050_acca400f5f8053c4279231fc354f439f2.html#acca400f5f8053c4279231fc354f439f2" target="_top" xlink:title=" ">
<polygon fill="white" stroke="#666666" points="162.5,-96 99.25,-96 99.25,-76 162.5,-76 162.5,-96"/>
<text xml:space="preserve" text-anchor="middle" x="130.88" y="-82.5" font-family="Helvetica,sans-Serif" font-size="10.00">YenaSetup</text>
</a>
</g>
</g>
<!-- Node1&#45;&gt;Node31 -->
<g id="edge36_Node000001_Node000031" class="edge">
<title>Node1&#45;&gt;Node31</title>
<g id="a_edge36_Node000001_Node000031"><a xlink:title=" ">
<path fill="none" stroke="#63b8ff" d="M33.74,-265.51C50.04,-235.08 97.56,-146.35 119.07,-106.18"/>
<polygon fill="#63b8ff" stroke="#63b8ff" points="122.05,-108.02 123.69,-97.56 115.88,-104.72 122.05,-108.02"/>
</a>
</g>
</g>
<!-- Node3 -->
<g id="Node000003" class="node">
<title>Node3</title>
<g id="a_Node000003"><a xlink:href="a00059_a52c38ded8a84ee0b98b47359e5966b4d.html#a52c38ded8a84ee0b98b47359e5966b4d" target="_top" xlink:title=" ">
<polygon fill="white" stroke="#666666" points="288,-533 236,-533 236,-513 288,-513 288,-533"/>
<text xml:space="preserve" text-anchor="middle" x="262" y="-519.5" font-family="Helvetica,sans-Serif" font-size="10.00">ObjLoad</text>
</a>
</g>
</g>
<!-- Node2&#45;&gt;Node3 -->
<g id="edge2_Node000002_Node000003" class="edge">
<title>Node2&#45;&gt;Node3</title>
<g id="a_edge2_Node000002_Node000003"><a xlink:title=" ">
<path fill="none" stroke="#63b8ff" d="M150.84,-476.35C165.95,-484.4 187.77,-495.58 207.5,-504 213.17,-506.42 219.25,-508.79 225.22,-510.99"/>
<polygon fill="#63b8ff" stroke="#63b8ff" points="223.69,-514.16 234.29,-514.23 226.05,-507.57 223.69,-514.16"/>
</a>
</g>
</g>
<!-- Node4 -->
<g id="Node000004" class="node">
<title>Node4</title>
<g id="a_Node000004"><a xlink:href="a00140_gaad9460ee22a8ee275572ea50c92ff61b.html#gaad9460ee22a8ee275572ea50c92ff61b" target="_top" xlink:title=" ">
<polygon fill="white" stroke="#666666" points="316.5,-495 207.5,-495 207.5,-475 316.5,-475 316.5,-495"/>
<text xml:space="preserve" text-anchor="middle" x="262" y="-481.5" font-family="Helvetica,sans-Serif" font-size="10.00">YENA::ynAxisCreate</text>
</a>
</g>
</g>
<!-- Node2&#45;&gt;Node4 -->
<g id="edge3_Node000002_Node000004" class="edge">
<title>Node2&#45;&gt;Node4</title>
<g id="a_edge3_Node000002_Node000004"><a xlink:title=" ">
<path fill="none" stroke="#63b8ff" d="M166.48,-471.09C175.69,-472.45 185.96,-473.96 196.23,-475.47"/>
<polygon fill="#63b8ff" stroke="#63b8ff" points="195.43,-478.89 205.83,-476.88 196.44,-471.96 195.43,-478.89"/>
</a>
</g>
</g>
<!-- Node6 -->
<g id="Node000006" class="node">
<title>Node6</title>
<g id="a_Node000006"><a xlink:href="a00140_ga24c7dbebe357c67a5b80d1d84acd561c.html#ga24c7dbebe357c67a5b80d1d84acd561c" target="_top" xlink:title=" ">
<polygon fill="white" stroke="#666666" points="315.75,-457 208.25,-457 208.25,-437 315.75,-437 315.75,-457"/>
<text xml:space="preserve" text-anchor="middle" x="262" y="-443.5" font-family="Helvetica,sans-Serif" font-size="10.00">YENA::ynGridCreate</text>
</a>
</g>
</g>
<!-- Node2&#45;&gt;Node6 -->
<g id="edge5_Node000002_Node000006" class="edge">
<title>Node2&#45;&gt;Node6</title>
<g id="a_edge5_Node000002_Node000006"><a xlink:title=" ">
<path fill="none" stroke="#63b8ff" d="M166.48,-460.91C175.8,-459.54 186.2,-458.01 196.6,-456.48"/>
<polygon fill="#63b8ff" stroke="#63b8ff" points="196.94,-459.96 206.32,-455.05 195.92,-453.04 196.94,-459.96"/>
</a>
</g>
</g>
<!-- Node5 -->
<g id="Node000005" class="node">
<title>Node5</title>
<g id="a_Node000005"><a xlink:href="a00164_aef61ffdd4b7434fc15a91d5d0d3da9c9.html#aef61ffdd4b7434fc15a91d5d0d3da9c9" target="_top" xlink:title=" ">
<polygon fill="white" stroke="#666666" points="476.88,-495 377.62,-495 377.62,-475 476.88,-475 476.88,-495"/>
<text xml:space="preserve" text-anchor="middle" x="427.25" y="-481.5" font-family="Helvetica,sans-Serif" font-size="10.00">YENA::ynAxis::Init</text>
</a>
</g>
</g>
<!-- Node4&#45;&gt;Node5 -->
<g id="edge4_Node000004_Node000005" class="edge">
<title>Node4&#45;&gt;Node5</title>
<g id="a_edge4_Node000004_Node000005"><a xlink:title=" ">
<path fill="none" stroke="#63b8ff" d="M316.91,-485C332.6,-485 349.85,-485 365.91,-485"/>
<polygon fill="#63b8ff" stroke="#63b8ff" points="365.84,-488.5 375.84,-485 365.84,-481.5 365.84,-488.5"/>
</a>
</g>
</g>
<!-- Node7 -->
<g id="Node000007" class="node">
<title>Node7</title>
<g id="a_Node000007"><a xlink:href="a00216_af7034e8f9a295f0d40458d5a090e541d.html#af7034e8f9a295f0d40458d5a090e541d" target="_top" xlink:title=" ">
<polygon fill="white" stroke="#666666" points="476.12,-457 378.38,-457 378.38,-437 476.12,-437 476.12,-457"/>
<text xml:space="preserve" text-anchor="middle" x="427.25" y="-443.5" font-family="Helvetica,sans-Serif" font-size="10.00">YENA::ynGrid::Init</text>
</a>
</g>
</g>
<!-- Node6&#45;&gt;Node7 -->
<g id="edge6_Node000006_Node000007" class="edge">
<title>Node6&#45;&gt;Node7</title>
<g id="a_edge6_Node000006_Node000007"><a xlink:title=" ">
<path fill="none" stroke="#63b8ff" d="M316,-447C332.19,-447 350.1,-447 366.69,-447"/>
<polygon fill="#63b8ff" stroke="#63b8ff" points="366.42,-450.5 376.42,-447 366.42,-443.5 366.42,-450.5"/>
</a>
</g>
</g>
<!-- Node9 -->
<g id="Node000009" class="node">
<title>Node9</title>
<g id="a_Node000009"><a xlink:href="a00059_ad2a85bf3afb47a1077c80371f7cc7f86.html#ad2a85bf3afb47a1077c80371f7cc7f86" target="_top" xlink:title="오브젝트 : 제거">
<polygon fill="white" stroke="#666666" points="295.5,-419 228.5,-419 228.5,-399 295.5,-399 295.5,-419"/>
<text xml:space="preserve" text-anchor="middle" x="262" y="-405.5" font-family="Helvetica,sans-Serif" font-size="10.00">ObjRelease</text>
</a>
</g>
</g>
<!-- Node8&#45;&gt;Node9 -->
<g id="edge8_Node000008_Node000009" class="edge">
<title>Node8&#45;&gt;Node9</title>
<g id="a_edge8_Node000008_Node000009"><a xlink:title=" ">
<path fill="none" stroke="#63b8ff" d="M167.84,-395.29C183.1,-397.54 201.02,-400.17 217.04,-402.53"/>
<polygon fill="#63b8ff" stroke="#63b8ff" points="216.41,-405.98 226.82,-403.97 217.43,-399.05 216.41,-405.98"/>
</a>
</g>
</g>
<!-- Node11 -->
<g id="Node000011" class="node">
<title>Node11</title>
<g id="a_Node000011"><a xlink:href="a00056_a8a4c0ca15f926a2f75bc9c8e9201ca91.html#a8a4c0ca15f926a2f75bc9c8e9201ca91" target="_top" xlink:title=" ">
<polygon fill="white" stroke="#666666" points="289.5,-381 234.5,-381 234.5,-361 289.5,-361 289.5,-381"/>
<text xml:space="preserve" text-anchor="middle" x="262" y="-367.5" font-family="Helvetica,sans-Serif" font-size="10.00">MsgProc</text>
</a>
</g>
</g>
<!-- Node10&#45;&gt;Node11 -->
<g id="edge10_Node000010_Node000011" class="edge">
<title>Node10&#45;&gt;Node11</title>
<g id="a_edge10_Node000010_Node000011"><a xlink:title=" ">
<path fill="none" stroke="#63b8ff" d="M163.46,-342.3C181.48,-347.6 204.18,-354.28 223.14,-359.86"/>
<polygon fill="#63b8ff" stroke="#63b8ff" points="222.07,-363.19 232.65,-362.66 224.04,-356.48 222.07,-363.19"/>
</a>
</g>
</g>
<!-- Node12 -->
<g id="Node000012" class="node">
<title>Node12</title>
<g id="a_Node000012"><a xlink:href="a00056_a5b47edfe2b8081af0e701fc23ea47543.html#a5b47edfe2b8081af0e701fc23ea47543" target="_top" xlink:title=" ">
<polygon fill="white" stroke="#666666" points="303,-343 221,-343 221,-323 303,-323 303,-343"/>
<text xml:space="preserve" text-anchor="middle" x="262" y="-329.5" font-family="Helvetica,sans-Serif" font-size="10.00">ResizeWindow</text>
</a>
</g>
</g>
<!-- Node10&#45;&gt;Node12 -->
<g id="edge11_Node000010_Node000012" class="edge">
<title>Node10&#45;&gt;Node12</title>
<g id="a_edge11_Node000010_Node000012"><a xlink:title=" ">
<path fill="none" stroke="#63b8ff" d="M163.46,-333C177.4,-333 194.14,-333 209.79,-333"/>
<polygon fill="#63b8ff" stroke="#63b8ff" points="209.42,-336.5 219.42,-333 209.42,-329.5 209.42,-336.5"/>
</a>
</g>
</g>
<!-- Node13 -->
<g id="Node000013" class="node">
<title>Node13</title>
<g id="a_Node000013"><a xlink:href="a00056_a8380605dd55834edf34db4fea057f078.html#a8380605dd55834edf34db4fea057f078" target="_top" xlink:title=" ">
<polygon fill="white" stroke="#666666" points="467.12,-352 387.38,-352 387.38,-332 467.12,-332 467.12,-352"/>
<text xml:space="preserve" text-anchor="middle" x="427.25" y="-338.5" font-family="Helvetica,sans-Serif" font-size="10.00">MoveToCenter</text>
</a>
</g>
</g>
<!-- Node12&#45;&gt;Node13 -->
<g id="edge12_Node000012_Node000013" class="edge">
<title>Node12&#45;&gt;Node13</title>
<g id="a_edge12_Node000012_Node000013"><a xlink:title=" ">
<path fill="none" stroke="#63b8ff" d="M303.35,-335.22C325.16,-336.43 352.31,-337.92 375.53,-339.2"/>
<polygon fill="#63b8ff" stroke="#63b8ff" points="375.23,-342.69 385.41,-339.75 375.62,-335.7 375.23,-342.69"/>
</a>
</g>
</g>
<!-- Node16 -->
<g id="Node000016" class="node">
<title>Node16</title>
<g id="a_Node000016"><a xlink:href="a00059_a2351adafd60182efe5d511e0c2aa26b1.html#a2351adafd60182efe5d511e0c2aa26b1" target="_top" xlink:title=" ">
<polygon fill="white" stroke="#666666" points="303,-305 221,-305 221,-285 303,-285 303,-305"/>
<text xml:space="preserve" text-anchor="middle" x="262" y="-291.5" font-family="Helvetica,sans-Serif" font-size="10.00">CameraUpdate</text>
</a>
</g>
</g>
<!-- Node15&#45;&gt;Node16 -->
<g id="edge15_Node000015_Node000016" class="edge">
<title>Node15&#45;&gt;Node16</title>
<g id="a_edge15_Node000015_Node000016"><a xlink:title=" ">
<path fill="none" stroke="#63b8ff" d="M143.41,-229.49C157.61,-241.97 182.89,-262.76 207.5,-276 210.31,-277.51 213.26,-278.94 216.27,-280.29"/>
<polygon fill="#63b8ff" stroke="#63b8ff" points="214.67,-283.42 225.25,-283.98 217.33,-276.94 214.67,-283.42"/>
</a>
</g>
</g>
<!-- Node20 -->
<g id="Node000020" class="node">
<title>Node20</title>
<g id="a_Node000020"><a xlink:href="a00050_a76c4195d88ec690c4da612bbd6d55f31.html#a76c4195d88ec690c4da612bbd6d55f31" target="_top" xlink:title="엔진 타이머 : 프레임 시간 획득.">
<polygon fill="white" stroke="#666666" points="303.75,-267 220.25,-267 220.25,-247 303.75,-247 303.75,-267"/>
<text xml:space="preserve" text-anchor="middle" x="262" y="-253.5" font-family="Helvetica,sans-Serif" font-size="10.00">GetEngineTime</text>
</a>
</g>
</g>
<!-- Node15&#45;&gt;Node20 -->
<g id="edge20_Node000015_Node000020" class="edge">
<title>Node15&#45;&gt;Node20</title>
<g id="a_edge20_Node000015_Node000020"><a xlink:title=" ">
<path fill="none" stroke="#63b8ff" d="M167.5,-229.48C182.04,-233.76 199.04,-238.77 214.53,-243.33"/>
<polygon fill="#63b8ff" stroke="#63b8ff" points="213.46,-246.66 224.04,-246.12 215.43,-239.94 213.46,-246.66"/>
</a>
</g>
</g>
<!-- Node21 -->
<g id="Node000021" class="node">
<title>Node21</title>
<g id="a_Node000021"><a xlink:href="a00059_adfe3d7c4f90c898edb95bb1c90d45388.html#adfe3d7c4f90c898edb95bb1c90d45388" target="_top" xlink:title="\u{2b50} 오브젝트 그리기">
<polygon fill="white" stroke="#666666" points="289.12,-229 234.88,-229 234.88,-209 289.12,-209 289.12,-229"/>
<text xml:space="preserve" text-anchor="middle" x="262" y="-215.5" font-family="Helvetica,sans-Serif" font-size="10.00">ObjDraw</text>
</a>
</g>
</g>
<!-- Node15&#45;&gt;Node21 -->
<g id="edge21_Node000015_Node000021" class="edge">
<title>Node15&#45;&gt;Node21</title>
<g id="a_edge21_Node000015_Node000021"><a xlink:title=" ">
<path fill="none" stroke="#63b8ff" d="M168.88,-219C185.95,-219 206.19,-219 223.35,-219"/>
<polygon fill="#63b8ff" stroke="#63b8ff" points="223.14,-222.5 233.14,-219 223.14,-215.5 223.14,-222.5"/>
</a>
</g>
</g>
<!-- Node22 -->
<g id="Node000022" class="node">
<title>Node22</title>
<g id="a_Node000022"><a xlink:href="a00059_a71264aa9be3cdedfc23d807cca7e27e6.html#a71264aa9be3cdedfc23d807cca7e27e6" target="_top" xlink:title=" ">
<polygon fill="white" stroke="#666666" points="293.25,-191 230.75,-191 230.75,-171 293.25,-171 293.25,-191"/>
<text xml:space="preserve" text-anchor="middle" x="262" y="-177.5" font-family="Helvetica,sans-Serif" font-size="10.00">ObjUpdate</text>
</a>
</g>
</g>
<!-- Node15&#45;&gt;Node22 -->
<g id="edge22_Node000015_Node000022" class="edge">
<title>Node15&#45;&gt;Node22</title>
<g id="a_edge22_Node000015_Node000022"><a xlink:title=" ">
<path fill="none" stroke="#63b8ff" d="M167.5,-208.52C183.67,-203.76 202.89,-198.1 219.68,-193.16"/>
<polygon fill="#63b8ff" stroke="#63b8ff" points="220.26,-196.64 228.86,-190.46 218.28,-189.92 220.26,-196.64"/>
</a>
</g>
</g>
<!-- Node26 -->
<g id="Node000026" class="node">
<title>Node26</title>
<g id="a_Node000026"><a xlink:href="a00050_a8b5e6c31a2a6e19c38a0df9083df6f15.html#a8b5e6c31a2a6e19c38a0df9083df6f15" target="_top" xlink:title=" ">
<polygon fill="white" stroke="#666666" points="287.25,-153 236.75,-153 236.75,-133 287.25,-133 287.25,-153"/>
<text xml:space="preserve" text-anchor="middle" x="262" y="-139.5" font-family="Helvetica,sans-Serif" font-size="10.00">PutFPS</text>
</a>
</g>
</g>
<!-- Node15&#45;&gt;Node26 -->
<g id="edge29_Node000015_Node000026" class="edge">
<title>Node15&#45;&gt;Node26</title>
<g id="a_edge29_Node000015_Node000026"><a xlink:title=" ">
<path fill="none" stroke="#63b8ff" d="M156.98,-208.68C161.98,-206.15 167.06,-203.24 171.5,-200 190.3,-186.3 188,-174.69 207.5,-162 213.11,-158.35 219.51,-155.3 225.88,-152.79"/>
<polygon fill="#63b8ff" stroke="#63b8ff" points="226.75,-156.19 235.01,-149.56 224.42,-149.59 226.75,-156.19"/>
</a>
</g>
</g>
<!-- Node28 -->
<g id="Node000028" class="node">
<title>Node28</title>
<g id="a_Node000028"><a xlink:href="a00059_af4dd0814523522c2ef17aa2ec8079afc.html#af4dd0814523522c2ef17aa2ec8079afc" target="_top" xlink:title="도움말 출력">
<polygon fill="white" stroke="#666666" points="290.62,-115 233.38,-115 233.38,-95 290.62,-95 290.62,-115"/>
<text xml:space="preserve" text-anchor="middle" x="262" y="-101.5" font-family="Helvetica,sans-Serif" font-size="10.00">ShowInfo</text>
</a>
</g>
</g>
<!-- Node15&#45;&gt;Node28 -->
<g id="edge32_Node000015_Node000028" class="edge">
<title>Node15&#45;&gt;Node28</title>
<g id="a_edge32_Node000015_Node000028"><a xlink:title=" ">
<path fill="none" stroke="#63b8ff" d="M159.9,-208.58C164.12,-206.2 168.16,-203.35 171.5,-200 197.87,-173.51 179.77,-149.06 207.5,-124 211.82,-120.09 217,-116.98 222.41,-114.5"/>
<polygon fill="#63b8ff" stroke="#63b8ff" points="223.43,-117.85 231.52,-111.01 220.93,-111.32 223.43,-117.85"/>
</a>
</g>
</g>
<!-- Node29 -->
<g id="Node000029" class="node">
<title>Node29</title>
<g id="a_Node000029"><a xlink:href="a00059_ac207065b1fb62c07f89a12f7b4192a20.html#ac207065b1fb62c07f89a12f7b4192a20" target="_top" xlink:title="엔진 및 시스템 상태 갱신.">
<polygon fill="white" stroke="#666666" points="302.62,-77 221.38,-77 221.38,-57 302.62,-57 302.62,-77"/>
<text xml:space="preserve" text-anchor="middle" x="262" y="-63.5" font-family="Helvetica,sans-Serif" font-size="10.00">SystemUpdate</text>
</a>
</g>
</g>
<!-- Node15&#45;&gt;Node29 -->
<g id="edge34_Node000015_Node000029" class="edge">
<title>Node15&#45;&gt;Node29</title>
<g id="a_edge34_Node000015_Node000029"><a xlink:title=" ">
<path fill="none" stroke="#63b8ff" d="M160.71,-208.72C164.73,-206.34 168.5,-203.46 171.5,-200 206.33,-159.87 170.6,-124.23 207.5,-86 208.7,-84.76 209.98,-83.6 211.34,-82.51"/>
<polygon fill="#63b8ff" stroke="#63b8ff" points="213.19,-85.48 219.8,-77.2 209.47,-79.55 213.19,-85.48"/>
</a>
</g>
</g>
<!-- Node17 -->
<g id="Node000017" class="node">
<title>Node17</title>
<g id="a_Node000017"><a xlink:href="a00141_ga9735d0ed90f18f6601eff62e699f59fe.html#ga9735d0ed90f18f6601eff62e699f59fe" target="_top" xlink:title="뷰 변환 행렬 생성 : D3DXMatrixLookAtLH 대응.">
<polygon fill="white" stroke="#666666" points="483.25,-314 371.25,-314 371.25,-294 483.25,-294 483.25,-314"/>
<text xml:space="preserve" text-anchor="middle" x="427.25" y="-300.5" font-family="Helvetica,sans-Serif" font-size="10.00">B3YXMatrixLookAtLH</text>
</a>
</g>
</g>
<!-- Node16&#45;&gt;Node17 -->
<g id="edge16_Node000016_Node000017" class="edge">
<title>Node16&#45;&gt;Node17</title>
<g id="a_edge16_Node000016_Node000017"><a xlink:title=" ">
<path fill="none" stroke="#63b8ff" d="M303.35,-297.22C320.32,-298.16 340.52,-299.27 359.59,-300.33"/>
<polygon fill="#63b8ff" stroke="#63b8ff" points="359.28,-303.81 369.46,-300.87 359.66,-296.82 359.28,-303.81"/>
</a>
</g>
</g>
<!-- Node19 -->
<g id="Node000019" class="node">
<title>Node19</title>
<g id="a_Node000019"><a xlink:href="a00141_gab141b564e1c257402780d61a62a7230a.html#gab141b564e1c257402780d61a62a7230a" target="_top" xlink:title="투영 변환 행렬 생성 : D3DXMatrixPerspectiveFovLH 대응.">
<polygon fill="white" stroke="#666666" points="502,-276 352.5,-276 352.5,-256 502,-256 502,-276"/>
<text xml:space="preserve" text-anchor="middle" x="427.25" y="-262.5" font-family="Helvetica,sans-Serif" font-size="10.00">B3YXMatrixPerspectiveFovLH</text>
</a>
</g>
</g>
<!-- Node16&#45;&gt;Node19 -->
<g id="edge18_Node000016_Node000019" class="edge">
<title>Node16&#45;&gt;Node19</title>
<g id="a_edge18_Node000016_Node000019"><a xlink:title=" ">
<path fill="none" stroke="#63b8ff" d="M303.35,-287.83C319.31,-285 338.11,-281.66 356.15,-278.45"/>
<polygon fill="#63b8ff" stroke="#63b8ff" points="356.52,-281.94 365.76,-276.75 355.3,-275.05 356.52,-281.94"/>
</a>
</g>
</g>
<!-- Node18 -->
<g id="Node000018" class="node">
<title>Node18</title>
<g id="a_Node000018"><a xlink:href="a00141_ga02a75a42a0bae280a3396ecdb1c124e7.html#ga02a75a42a0bae280a3396ecdb1c124e7" target="_top" xlink:title="행렬 단위화(초기화) 함수">
<polygon fill="white" stroke="#666666" points="638.75,-238 538,-238 538,-218 638.75,-218 638.75,-238"/>
<text xml:space="preserve" text-anchor="middle" x="588.38" y="-224.5" font-family="Helvetica,sans-Serif" font-size="10.00">B3YXMatrixIdentity</text>
</a>
</g>
</g>
<!-- Node17&#45;&gt;Node18 -->
<g id="edge17_Node000017_Node000018" class="edge">
<title>Node17&#45;&gt;Node18</title>
<g id="a_edge17_Node000017_Node000018"><a xlink:title=" ">
<path fill="none" stroke="#63b8ff" d="M478.22,-293.57C486.33,-291.19 494.52,-288.35 502,-285 525.39,-274.54 549.44,-257.85 566.03,-245.23"/>
<polygon fill="#63b8ff" stroke="#63b8ff" points="567.94,-248.18 573.68,-239.27 563.64,-242.65 567.94,-248.18"/>
</a>
</g>
</g>
<!-- Node19&#45;&gt;Node18 -->
<g id="edge19_Node000019_Node000018" class="edge">
<title>Node19&#45;&gt;Node18</title>
<g id="a_edge19_Node000019_Node000018"><a xlink:title=" ">
<path fill="none" stroke="#63b8ff" d="M472.15,-255.52C490.85,-251.05 512.86,-245.79 532.6,-241.08"/>
<polygon fill="#63b8ff" stroke="#63b8ff" points="533.23,-244.53 542.14,-238.8 531.6,-237.72 533.23,-244.53"/>
</a>
</g>
</g>
<!-- Node23 -->
<g id="Node000023" class="node">
<title>Node23</title>
<g id="a_Node000023"><a xlink:href="a00141_gad8e630c14218a38be5a8afaa29be1f95.html#gad8e630c14218a38be5a8afaa29be1f95" target="_top" xlink:title="Y 축 기준 회전행렬 생성함수 (ver.YN) 단 회전량은 라디안.">
<polygon fill="white" stroke="#666666" points="483.25,-238 371.25,-238 371.25,-218 483.25,-218 483.25,-238"/>
<text xml:space="preserve" text-anchor="middle" x="427.25" y="-224.5" font-family="Helvetica,sans-Serif" font-size="10.00">B3YXMatrixRotationY</text>
</a>
</g>
</g>
<!-- Node22&#45;&gt;Node23 -->
<g id="edge23_Node000022_Node000023" class="edge">
<title>Node22&#45;&gt;Node23</title>
<g id="a_edge23_Node000022_Node000023"><a xlink:title=" ">
<path fill="none" stroke="#63b8ff" d="M293.54,-190.98C310.78,-196.51 332.77,-203.38 352.5,-209 359.18,-210.9 366.21,-212.82 373.19,-214.68"/>
<polygon fill="#63b8ff" stroke="#63b8ff" points="372,-217.98 382.57,-217.13 373.78,-211.21 372,-217.98"/>
</a>
</g>
</g>
<!-- Node24 -->
<g id="Node000024" class="node">
<title>Node24</title>
<g id="a_Node000024"><a xlink:href="a00141_gae984f2b96f4d146a09bc7ec514d31fb9.html#gae984f2b96f4d146a09bc7ec514d31fb9" target="_top" xlink:title="스케일 행렬 생성 : D3DXMatrixScaling 대응.">
<polygon fill="white" stroke="#666666" points="477.62,-200 376.88,-200 376.88,-180 477.62,-180 477.62,-200"/>
<text xml:space="preserve" text-anchor="middle" x="427.25" y="-186.5" font-family="Helvetica,sans-Serif" font-size="10.00">B3YXMatrixScaling</text>
</a>
</g>
</g>
<!-- Node22&#45;&gt;Node24 -->
<g id="edge25_Node000022_Node000024" class="edge">
<title>Node22&#45;&gt;Node24</title>
<g id="a_edge25_Node000022_Node000024"><a xlink:title=" ">
<path fill="none" stroke="#63b8ff" d="M293.71,-182.69C313.8,-183.8 340.75,-185.29 365.1,-186.63"/>
<polygon fill="#63b8ff" stroke="#63b8ff" points="364.74,-190.11 374.92,-187.17 365.13,-183.12 364.74,-190.11"/>
</a>
</g>
</g>
<!-- Node25 -->
<g id="Node000025" class="node">
<title>Node25</title>
<g id="a_Node000025"><a xlink:href="a00141_ga39d89af6e45cb22dc8cecfec6b9631eb.html#ga39d89af6e45cb22dc8cecfec6b9631eb" target="_top" xlink:title="이동 행렬 생성 : D3DXMatrixTranslation 대응.">
<polygon fill="white" stroke="#666666" points="485.5,-162 369,-162 369,-142 485.5,-142 485.5,-162"/>
<text xml:space="preserve" text-anchor="middle" x="427.25" y="-148.5" font-family="Helvetica,sans-Serif" font-size="10.00">B3YXMatrixTranslation</text>
</a>
</g>
</g>
<!-- Node22&#45;&gt;Node25 -->
<g id="edge27_Node000022_Node000025" class="edge">
<title>Node22&#45;&gt;Node25</title>
<g id="a_edge27_Node000022_Node000025"><a xlink:title=" ">
<path fill="none" stroke="#63b8ff" d="M293.71,-175.55C311.72,-172.35 335.25,-168.17 357.47,-164.22"/>
<polygon fill="#63b8ff" stroke="#63b8ff" points="357.86,-167.7 367.1,-162.51 356.64,-160.81 357.86,-167.7"/>
</a>
</g>
</g>
<!-- Node23&#45;&gt;Node18 -->
<g id="edge24_Node000023_Node000018" class="edge">
<title>Node23&#45;&gt;Node18</title>
<g id="a_edge24_Node000023_Node000018"><a xlink:title=" ">
<path fill="none" stroke="#63b8ff" d="M483.46,-228C497.34,-228 512.32,-228 526.46,-228"/>
<polygon fill="#63b8ff" stroke="#63b8ff" points="526.08,-231.5 536.08,-228 526.08,-224.5 526.08,-231.5"/>
</a>
</g>
</g>
<!-- Node24&#45;&gt;Node18 -->
<g id="edge26_Node000024_Node000018" class="edge">
<title>Node24&#45;&gt;Node18</title>
<g id="a_edge26_Node000024_Node000018"><a xlink:title=" ">
<path fill="none" stroke="#63b8ff" d="M472.15,-200.48C490.85,-204.95 512.86,-210.21 532.6,-214.92"/>
<polygon fill="#63b8ff" stroke="#63b8ff" points="531.6,-218.28 542.14,-217.2 533.23,-211.47 531.6,-218.28"/>
</a>
</g>
</g>
<!-- Node25&#45;&gt;Node18 -->
<g id="edge28_Node000025_Node000018" class="edge">
<title>Node25&#45;&gt;Node18</title>
<g id="a_edge28_Node000025_Node000018"><a xlink:title=" ">
<path fill="none" stroke="#63b8ff" d="M478.22,-162.43C486.33,-164.81 494.52,-167.65 502,-171 525.39,-181.46 549.44,-198.15 566.03,-210.77"/>
<polygon fill="#63b8ff" stroke="#63b8ff" points="563.64,-213.35 573.68,-216.73 567.94,-207.82 563.64,-213.35"/>
</a>
</g>
</g>
<!-- Node27 -->
<g id="Node000027" class="node">
<title>Node27</title>
<g id="a_Node000027"><a xlink:href="a00050_a2034272a68b183b7651f0195b1d55182.html#a2034272a68b183b7651f0195b1d55182" target="_top" xlink:title=" ">
<polygon fill="white" stroke="#666666" points="456.25,-106 398.25,-106 398.25,-86 456.25,-86 456.25,-106"/>
<text xml:space="preserve" text-anchor="middle" x="427.25" y="-92.5" font-family="Helvetica,sans-Serif" font-size="10.00">DrawText</text>
</a>
</g>
</g>
<!-- Node26&#45;&gt;Node27 -->
<g id="edge30_Node000026_Node000027" class="edge">
<title>Node26&#45;&gt;Node27</title>
<g id="a_edge30_Node000026_Node000027"><a xlink:title=" ">
<path fill="none" stroke="#63b8ff" d="M287.44,-135.96C313.74,-128.39 355.96,-116.24 386.94,-107.32"/>
<polygon fill="#63b8ff" stroke="#63b8ff" points="387.7,-110.74 396.34,-104.61 385.76,-104.01 387.7,-110.74"/>
</a>
</g>
</g>
<!-- Node27&#45;&gt;Node27 -->
<g id="edge31_Node000027_Node000027" class="edge">
<title>Node27&#45;&gt;Node27</title>
<g id="a_edge31_Node000027_Node000027"><a xlink:title=" ">
<path fill="none" stroke="#63b8ff" d="M401.65,-106.34C390.71,-114.98 399.24,-124 427.25,-124 442.57,-124 452.06,-121.3 455.73,-117.44"/>
<polygon fill="#63b8ff" stroke="#63b8ff" points="459.13,-116.61 453.23,-107.8 452.35,-118.36 459.13,-116.61"/>
</a>
</g>
</g>
<!-- Node28&#45;&gt;Node27 -->
<g id="edge33_Node000028_Node000027" class="edge">
<title>Node28&#45;&gt;Node27</title>
<g id="a_edge33_Node000028_Node000027"><a xlink:title=" ">
<path fill="none" stroke="#63b8ff" d="M291.06,-103.45C317.46,-102 357.24,-99.8 386.82,-98.17"/>
<polygon fill="#63b8ff" stroke="#63b8ff" points="386.7,-101.69 396.49,-97.64 386.32,-94.7 386.7,-101.69"/>
</a>
</g>
</g>
<!-- Node32 -->
<g id="Node000032" class="node">
<title>Node32</title>
<g id="a_Node000032"><a xlink:href="a00139_gaadd8f307a7460a88e7c4c254bcbe6719.html#gaadd8f307a7460a88e7c4c254bcbe6719" target="_top" xlink:title=" ">
<polygon fill="white" stroke="#666666" points="298.12,-39 225.88,-39 225.88,-19 298.12,-19 298.12,-39"/>
<text xml:space="preserve" text-anchor="middle" x="262" y="-25.5" font-family="Helvetica,sans-Serif" font-size="10.00">YenaCreate9</text>
</a>
</g>
</g>
<!-- Node31&#45;&gt;Node32 -->
<g id="edge37_Node000031_Node000032" class="edge">
<title>Node31&#45;&gt;Node32</title>
<g id="a_edge37_Node000031_Node000032"><a xlink:title=" ">
<path fill="none" stroke="#63b8ff" d="M150.84,-75.65C165.95,-67.6 187.77,-56.42 207.5,-48 211.26,-46.4 215.2,-44.81 219.17,-43.29"/>
<polygon fill="#63b8ff" stroke="#63b8ff" points="220.05,-46.69 228.21,-39.93 217.62,-40.13 220.05,-46.69"/>
</a>
</g>
</g>
<!-- Node33 -->
<g id="Node000033" class="node">
<title>Node33</title>
<g id="a_Node000033"><a xlink:href="a00156_adf8a3574135e4d16506bc86ee677c7b7.html#adf8a3574135e4d16506bc86ee677c7b7" target="_top" xlink:title=" ">
<polygon fill="white" stroke="#666666" points="487.38,-39 367.12,-39 367.12,-19 487.38,-19 487.38,-39"/>
<text xml:space="preserve" text-anchor="middle" x="427.25" y="-25.5" font-family="Helvetica,sans-Serif" font-size="10.00">B3Yena::QueryInterface</text>
</a>
</g>
</g>
<!-- Node32&#45;&gt;Node33 -->
<g id="edge38_Node000032_Node000033" class="edge">
<title>Node32&#45;&gt;Node33</title>
<g id="a_edge38_Node000032_Node000033"><a xlink:title=" ">
<path fill="none" stroke="#63b8ff" d="M298.42,-29C315.12,-29 335.66,-29 355.36,-29"/>
<polygon fill="#63b8ff" stroke="#63b8ff" points="355.31,-32.5 365.31,-29 355.31,-25.5 355.31,-32.5"/>
</a>
</g>
</g>
<!-- Node34 -->
<g id="Node000034" class="node">
<title>Node34</title>
<g id="a_Node000034"><a xlink:href="a00156_af4a43b4057eea79e48143c6da0de48ce.html#af4a43b4057eea79e48143c6da0de48ce" target="_top" xlink:title=" ">
<polygon fill="white" stroke="#666666" points="632.75,-58 544,-58 544,-38 632.75,-38 632.75,-58"/>
<text xml:space="preserve" text-anchor="middle" x="588.38" y="-44.5" font-family="Helvetica,sans-Serif" font-size="10.00">B3Yena::AddRef</text>
</a>
</g>
</g>
<!-- Node33&#45;&gt;Node34 -->
<g id="edge39_Node000033_Node000034" class="edge">
<title>Node33&#45;&gt;Node34</title>
<g id="a_edge39_Node000033_Node000034"><a xlink:title=" ">
<path fill="none" stroke="#63b8ff" d="M487.5,-36.07C502.28,-37.84 518.07,-39.72 532.62,-41.46"/>
<polygon fill="#63b8ff" stroke="#63b8ff" points="532.14,-44.93 542.48,-42.64 532.97,-37.98 532.14,-44.93"/>
</a>
</g>
</g>
<!-- Node35 -->
<g id="Node000035" class="node">
<title>Node35</title>
<g id="a_Node000035"><a xlink:href="a00137_ga9e2aa2b3bba79319041923d1db833f2a.html#ga9e2aa2b3bba79319041923d1db833f2a" target="_top" xlink:title=" ">
<polygon fill="white" stroke="#666666" points="624.88,-20 551.88,-20 551.88,0 624.88,0 624.88,-20"/>
<text xml:space="preserve" text-anchor="middle" x="588.38" y="-6.5" font-family="Helvetica,sans-Serif" font-size="10.00">ynIsEqualIID</text>
</a>
</g>
</g>
<!-- Node33&#45;&gt;Node35 -->
<g id="edge40_Node000033_Node000035" class="edge">
<title>Node33&#45;&gt;Node35</title>
<g id="a_edge40_Node000033_Node000035"><a xlink:title=" ">
<path fill="none" stroke="#63b8ff" d="M487.5,-21.93C505.02,-19.83 523.95,-17.57 540.56,-15.59"/>
<polygon fill="#63b8ff" stroke="#63b8ff" points="540.63,-19.11 550.15,-14.44 539.8,-12.16 540.63,-19.11"/>
</a>
</g>
</g>
</g>
</svg>

<g id="navigator" transform="translate(0 0)" fill="#404254">
  <rect fill="#f2f5e9" fill-opacity="0.5" stroke="#606060" stroke-width=".5" x="0" y="0" width="60" height="60"/>
  <use id="zoomplus" xlink:href="#zoomPlus" x="17" y="9" onmousedown="handleZoom(evt,'in')"/>
  <use id="zoomminus" xlink:href="#zoomMin" x="42" y="9" onmousedown="handleZoom(evt,'out')"/>
  <use id="reset" xlink:href="#resetDef" x="30" y="36" onmousedown="handleReset()"/>
   <use id="arrowup" xlink:href="#arrowUp" x="0" y="0" onmousedown="handlePan(0,-1)"/>
  <use id="arrowright" xlink:href="#arrowRight" x="0" y="0" onmousedown="handlePan(1,0)"/>
  <use id="arrowdown" xlink:href="#arrowDown" x="0" y="0" onmousedown="handlePan(0,1)"/>
  <use id="arrowleft" xlink:href="#arrowLeft" x="0" y="0" onmousedown="handlePan(-1,0)"/>
</g>
<svg viewBox="0 0 15 15" width="100%" height="30px" preserveAspectRatio="xMaxYMin meet">
 <g id="arrow_out" transform="scale(0.3 0.3)">
  <a xlink:href="a00056_a1122673f59be78a3997ec7dd1c4688f9_a1122673f59be78a3997ec7dd1c4688f9_cgraph_org.svg" target="_base">
   <rect id="button" ry="5" rx="5" y="6" x="6" height="38" width="38"
        fill="#f2f5e9" fill-opacity="0.5" stroke="#606060" stroke-width="1.0"/>
   <path id="arrow"
     d="M 11.500037,31.436501 C 11.940474,20.09759 22.043105,11.32322 32.158766,21.979434 L 37.068811,17.246167 C 37.068811,17.246167 37.088388,32 37.088388,32 L 22.160133,31.978069 C 22.160133,31.978069 26.997745,27.140456 26.997745,27.140456 C 18.528582,18.264221 13.291696,25.230495 11.500037,31.436501 z"
     style="fill:#404040;"/>
  </a>
 </g>
</svg>

<style type='text/css'>
<![CDATA[
[data-mouse-over-selected='false'] { opacity: 0.7; }
[data-mouse-over-selected='true']  { opacity: 1.0; }
]]>
</style>
<script type="application/ecmascript"><![CDATA[
document.addEventListener('DOMContentLoaded', (event) => {
  highlightEdges();
  highlightAdjacentNodes();
});
]]></script>
</svg>
