<?xml version="1.0" encoding="UTF-8" standalone="no"?>
<!DOCTYPE svg PUBLIC "-//W3C//DTD SVG 1.1//EN"
 "http://www.w3.org/Graphics/SVG/1.1/DTD/svg11.dtd">
<!-- Generated by graphviz version 13.1.2 (20250808.2320)
 -->
<!-- Title: Yena/ynAxis.cpp Pages: 1 -->
<svg width="878pt" height="308pt"
 viewBox="0.00 0.00 878.00 308.00" xmlns="http://www.w3.org/2000/svg" xmlns:xlink="http://www.w3.org/1999/xlink">
<g id="graph0" class="graph" transform="scale(1 1) rotate(0) translate(4 304)">
<title>Yena/ynAxis.cpp</title>
<!-- Node1 -->
<g id="Node000001" class="node">
<title>Node1</title>
<g id="a_Node000001"><a xlink:title="공간축 클래스 소스 파일.">
<polygon fill="#999999" stroke="#666666" points="590.38,-300 500.88,-300 500.88,-280 590.38,-280 590.38,-300"/>
<text xml:space="preserve" text-anchor="middle" x="545.62" y="-286.5" font-family="Helvetica,sans-Serif" font-size="10.00">Yena/ynAxis.cpp</text>
</a>
</g>
</g>
<!-- Node2 -->
<g id="Node000002" class="node">
<title>Node2</title>
<g id="a_Node000002"><a xlink:href="a00068.html" target="_top" xlink:title="Yena SWR 기본 헤더 파일 (v1.x)">
<polygon fill="white" stroke="#666666" points="543.62,-244 497.62,-244 497.62,-224 543.62,-224 543.62,-244"/>
<text xml:space="preserve" text-anchor="middle" x="520.62" y="-230.5" font-family="Helvetica,sans-Serif" font-size="10.00">Yena.h</text>
</a>
</g>
</g>
<!-- Node1&#45;&gt;Node2 -->
<g id="edge1_Node000001_Node000002" class="edge">
<title>Node1&#45;&gt;Node2</title>
<g id="a_edge1_Node000001_Node000002"><a xlink:title=" ">
<path fill="none" stroke="#63b8ff" d="M541.27,-279.59C538.08,-272.7 533.64,-263.1 529.69,-254.57"/>
<polygon fill="#63b8ff" stroke="#63b8ff" points="532.94,-253.28 525.57,-245.67 526.59,-256.22 532.94,-253.28"/>
</a>
</g>
</g>
<!-- Node22 -->
<g id="Node000022" class="node">
<title>Node22</title>
<g id="a_Node000022"><a xlink:href="a00074.html" target="_top" xlink:title="공간축 클래스 헤더.">
<polygon fill="white" stroke="#666666" points="869.75,-188 815.5,-188 815.5,-168 869.75,-168 869.75,-188"/>
<text xml:space="preserve" text-anchor="middle" x="842.62" y="-174.5" font-family="Helvetica,sans-Serif" font-size="10.00">ynAxis.h</text>
</a>
</g>
</g>
<!-- Node1&#45;&gt;Node22 -->
<g id="edge38_Node000001_Node000022" class="edge">
<title>Node1&#45;&gt;Node22</title>
<g id="a_edge38_Node000001_Node000022"><a xlink:title=" ">
<path fill="none" stroke="#63b8ff" d="M571.2,-279.53C624.06,-259.95 745.44,-214.99 806.36,-192.43"/>
<polygon fill="#63b8ff" stroke="#63b8ff" points="807.42,-195.77 815.58,-189.02 804.99,-189.21 807.42,-195.77"/>
</a>
</g>
</g>
<!-- Node3 -->
<g id="Node000003" class="node">
<title>Node3</title>
<g id="a_Node000003"><a xlink:title=" ">
<polygon fill="#e0e0e0" stroke="#999999" points="495.88,-20 433.38,-20 433.38,0 495.88,0 495.88,-20"/>
<text xml:space="preserve" text-anchor="middle" x="464.62" y="-6.5" font-family="Helvetica,sans-Serif" font-size="10.00">windows.h</text>
</a>
</g>
</g>
<!-- Node2&#45;&gt;Node3 -->
<g id="edge2_Node000002_Node000003" class="edge">
<title>Node2&#45;&gt;Node3</title>
<g id="a_edge2_Node000002_Node000003"><a xlink:title=" ">
<path fill="none" stroke="#63b8ff" d="M510.21,-223.77C501.5,-215.38 489.58,-202.17 483.62,-188 461.34,-134.94 461.42,-65.42 463.12,-31.46"/>
<polygon fill="#63b8ff" stroke="#63b8ff" points="466.6,-32 463.72,-21.81 459.61,-31.57 466.6,-32"/>
</a>
</g>
</g>
<!-- Node4 -->
<g id="Node000004" class="node">
<title>Node4</title>
<g id="a_Node000004"><a xlink:title=" ">
<polygon fill="#e0e0e0" stroke="#999999" points="334.62,-132 288.62,-132 288.62,-112 334.62,-112 334.62,-132"/>
<text xml:space="preserve" text-anchor="middle" x="311.62" y="-118.5" font-family="Helvetica,sans-Serif" font-size="10.00">tchar.h</text>
</a>
</g>
</g>
<!-- Node2&#45;&gt;Node4 -->
<g id="edge3_Node000002_Node000004" class="edge">
<title>Node2&#45;&gt;Node4</title>
<g id="a_edge3_Node000002_Node000004"><a xlink:title=" ">
<path fill="none" stroke="#63b8ff" d="M497.44,-227.39C471,-220.43 427.01,-207.11 392.62,-188 368.65,-174.68 344.56,-154.23 328.96,-139.84"/>
<polygon fill="#63b8ff" stroke="#63b8ff" points="331.6,-137.51 321.93,-133.2 326.8,-142.61 331.6,-137.51"/>
</a>
</g>
</g>
<!-- Node5 -->
<g id="Node000005" class="node">
<title>Node5</title>
<g id="a_Node000005"><a xlink:title=" ">
<polygon fill="#e0e0e0" stroke="#999999" points="398.62,-132 352.62,-132 352.62,-112 398.62,-112 398.62,-132"/>
<text xml:space="preserve" text-anchor="middle" x="375.62" y="-118.5" font-family="Helvetica,sans-Serif" font-size="10.00">math.h</text>
</a>
</g>
</g>
<!-- Node2&#45;&gt;Node5 -->
<g id="edge4_Node000002_Node000005" class="edge">
<title>Node2&#45;&gt;Node5</title>
<g id="a_edge4_Node000002_Node000005"><a xlink:title=" ">
<path fill="none" stroke="#63b8ff" d="M497.17,-227.96C473.52,-221.88 437.12,-209.66 412.62,-188 398.79,-175.77 388.91,-157.07 382.86,-142.87"/>
<polygon fill="#63b8ff" stroke="#63b8ff" points="386.15,-141.66 379.23,-133.64 379.63,-144.23 386.15,-141.66"/>
</a>
</g>
</g>
<!-- Node6 -->
<g id="Node000006" class="node">
<title>Node6</title>
<g id="a_Node000006"><a xlink:title=" ">
<polygon fill="#e0e0e0" stroke="#999999" points="45.25,-132 0,-132 0,-112 45.25,-112 45.25,-132"/>
<text xml:space="preserve" text-anchor="middle" x="22.62" y="-118.5" font-family="Helvetica,sans-Serif" font-size="10.00">stdio.h</text>
</a>
</g>
</g>
<!-- Node2&#45;&gt;Node6 -->
<g id="edge5_Node000002_Node000006" class="edge">
<title>Node2&#45;&gt;Node6</title>
<g id="a_edge5_Node000002_Node000006"><a xlink:title=" ">
<path fill="none" stroke="#63b8ff" d="M497.25,-232.1C420.86,-228.91 179.44,-216.74 107.62,-188 80.56,-177.17 54.73,-155.19 38.8,-139.8"/>
<polygon fill="#63b8ff" stroke="#63b8ff" points="41.64,-137.69 32.09,-133.11 36.7,-142.65 41.64,-137.69"/>
</a>
</g>
</g>
<!-- Node7 -->
<g id="Node000007" class="node">
<title>Node7</title>
<g id="a_Node000007"><a xlink:title=" ">
<polygon fill="#e0e0e0" stroke="#999999" points="156.62,-188 116.62,-188 116.62,-168 156.62,-168 156.62,-188"/>
<text xml:space="preserve" text-anchor="middle" x="136.62" y="-174.5" font-family="Helvetica,sans-Serif" font-size="10.00">string</text>
</a>
</g>
</g>
<!-- Node2&#45;&gt;Node7 -->
<g id="edge6_Node000002_Node000007" class="edge">
<title>Node2&#45;&gt;Node7</title>
<g id="a_edge6_Node000002_Node000007"><a xlink:title=" ">
<path fill="none" stroke="#63b8ff" d="M497.53,-231.08C441.24,-226.19 292.67,-211.89 170.62,-188 169.79,-187.84 168.95,-187.67 168.1,-187.49"/>
<polygon fill="#63b8ff" stroke="#63b8ff" points="169.03,-184.11 158.49,-185.21 167.42,-190.92 169.03,-184.11"/>
</a>
</g>
</g>
<!-- Node8 -->
<g id="Node000008" class="node">
<title>Node8</title>
<g id="a_Node000008"><a xlink:title=" ">
<polygon fill="#e0e0e0" stroke="#999999" points="106.12,-132 63.12,-132 63.12,-112 106.12,-112 106.12,-132"/>
<text xml:space="preserve" text-anchor="middle" x="84.62" y="-118.5" font-family="Helvetica,sans-Serif" font-size="10.00">vector</text>
</a>
</g>
</g>
<!-- Node2&#45;&gt;Node8 -->
<g id="edge7_Node000002_Node000008" class="edge">
<title>Node2&#45;&gt;Node8</title>
<g id="a_edge7_Node000002_Node000008"><a xlink:title=" ">
<path fill="none" stroke="#63b8ff" d="M497.3,-232.52C443.94,-230.83 309.4,-223.11 203.62,-188 198.71,-186.37 144.42,-156.32 110.89,-137.66"/>
<polygon fill="#63b8ff" stroke="#63b8ff" points="112.99,-134.82 102.55,-133.01 109.58,-140.94 112.99,-134.82"/>
</a>
</g>
</g>
<!-- Node9 -->
<g id="Node000009" class="node">
<title>Node9</title>
<g id="a_Node000009"><a xlink:title=" ">
<polygon fill="#e0e0e0" stroke="#999999" points="270.5,-132 214.75,-132 214.75,-112 270.5,-112 270.5,-132"/>
<text xml:space="preserve" text-anchor="middle" x="242.62" y="-118.5" font-family="Helvetica,sans-Serif" font-size="10.00">algorithm</text>
</a>
</g>
</g>
<!-- Node2&#45;&gt;Node9 -->
<g id="edge8_Node000002_Node000009" class="edge">
<title>Node2&#45;&gt;Node9</title>
<g id="a_edge8_Node000002_Node000009"><a xlink:title=" ">
<path fill="none" stroke="#63b8ff" d="M497.13,-228.25C465.25,-221.4 406.87,-207.41 359.62,-188 325.89,-174.14 289.54,-152.84 266.46,-138.43"/>
<polygon fill="#63b8ff" stroke="#63b8ff" points="268.45,-135.55 258.13,-133.16 264.71,-141.47 268.45,-135.55"/>
</a>
</g>
</g>
<!-- Node10 -->
<g id="Node000010" class="node">
<title>Node10</title>
<g id="a_Node000010"><a xlink:href="a00092.html" target="_top" xlink:title="Yena SWR 엔진 기본 정의 문서.">
<polygon fill="white" stroke="#666666" points="761.25,-76 698,-76 698,-56 761.25,-56 761.25,-76"/>
<text xml:space="preserve" text-anchor="middle" x="729.62" y="-62.5" font-family="Helvetica,sans-Serif" font-size="10.00">ynDefine.h</text>
</a>
</g>
</g>
<!-- Node2&#45;&gt;Node10 -->
<g id="edge9_Node000002_Node000010" class="edge">
<title>Node2&#45;&gt;Node10</title>
<g id="a_edge9_Node000002_Node000010"><a xlink:title=" ">
<path fill="none" stroke="#63b8ff" d="M544.1,-231.2C577.21,-227.65 638.3,-217.36 680.62,-188 705.97,-170.42 710.26,-160.68 721.62,-132 727.27,-117.74 729.19,-100.46 729.74,-87.3"/>
<polygon fill="#63b8ff" stroke="#63b8ff" points="733.23,-87.76 729.9,-77.7 726.23,-87.64 733.23,-87.76"/>
</a>
</g>
</g>
<!-- Node12 -->
<g id="Node000012" class="node">
<title>Node12</title>
<g id="a_Node000012"><a xlink:href="a00098.html" target="_top" xlink:title="에러, 예외 및 로그 처리 헤더 파일">
<polygon fill="white" stroke="#666666" points="548.5,-188 492.75,-188 492.75,-168 548.5,-168 548.5,-188"/>
<text xml:space="preserve" text-anchor="middle" x="520.62" y="-174.5" font-family="Helvetica,sans-Serif" font-size="10.00">ynError.h</text>
</a>
</g>
</g>
<!-- Node2&#45;&gt;Node12 -->
<g id="edge12_Node000002_Node000012" class="edge">
<title>Node2&#45;&gt;Node12</title>
<g id="a_edge12_Node000002_Node000012"><a xlink:title=" ">
<path fill="none" stroke="#63b8ff" d="M520.62,-223.59C520.62,-217.01 520.62,-207.96 520.62,-199.73"/>
<polygon fill="#63b8ff" stroke="#63b8ff" points="524.13,-199.81 520.63,-189.81 517.13,-199.81 524.13,-199.81"/>
</a>
</g>
</g>
<!-- Node14 -->
<g id="Node000014" class="node">
<title>Node14</title>
<g id="a_Node000014"><a xlink:href="a00110.html" target="_top" xlink:title="Yena SWR COM / GUID 헤더">
<polygon fill="white" stroke="#666666" points="272.75,-188 212.5,-188 212.5,-168 272.75,-168 272.75,-188"/>
<text xml:space="preserve" text-anchor="middle" x="242.62" y="-174.5" font-family="Helvetica,sans-Serif" font-size="10.00">ynGUID.h</text>
</a>
</g>
</g>
<!-- Node2&#45;&gt;Node14 -->
<g id="edge14_Node000002_Node000014" class="edge">
<title>Node2&#45;&gt;Node14</title>
<g id="a_edge14_Node000002_Node000014"><a xlink:title=" ">
<path fill="none" stroke="#63b8ff" d="M497.24,-228.48C455.4,-220.38 364.94,-202.87 288.62,-188 287.03,-187.69 285.4,-187.37 283.75,-187.05"/>
<polygon fill="#63b8ff" stroke="#63b8ff" points="284.78,-183.69 274.3,-185.2 283.44,-190.56 284.78,-183.69"/>
</a>
</g>
</g>
<!-- Node16 -->
<g id="Node000016" class="node">
<title>Node16</title>
<g id="a_Node000016"><a xlink:href="a00122.html" target="_top" xlink:title="Yena SWR COM 기반 헤더 (v2.x)">
<polygon fill="white" stroke="#666666" points="436.12,-76 339.12,-76 339.12,-56 436.12,-56 436.12,-76"/>
<text xml:space="preserve" text-anchor="middle" x="387.62" y="-62.5" font-family="Helvetica,sans-Serif" font-size="10.00">ynUnknownbase.h</text>
</a>
</g>
</g>
<!-- Node2&#45;&gt;Node16 -->
<g id="edge22_Node000002_Node000016" class="edge">
<title>Node2&#45;&gt;Node16</title>
<g id="a_edge22_Node000002_Node000016"><a xlink:title=" ">
<path fill="none" stroke="#63b8ff" d="M500.21,-223.52C485.04,-215.68 464.65,-203.37 450.62,-188 435.97,-171.94 409.92,-116.66 396.37,-86.69"/>
<polygon fill="#63b8ff" stroke="#63b8ff" points="399.59,-85.32 392.31,-77.63 393.2,-88.19 399.59,-85.32"/>
</a>
</g>
</g>
<!-- Node17 -->
<g id="Node000017" class="node">
<title>Node17</title>
<g id="a_Node000017"><a xlink:href="a00128.html" target="_top" xlink:title="Yena SW 엔진 자료형 정의 : DX9 (d3d9types.h) 대응">
<polygon fill="white" stroke="#666666" points="638.25,-132 569,-132 569,-112 638.25,-112 638.25,-132"/>
<text xml:space="preserve" text-anchor="middle" x="603.62" y="-118.5" font-family="Helvetica,sans-Serif" font-size="10.00">ynx9types.h</text>
</a>
</g>
</g>
<!-- Node2&#45;&gt;Node17 -->
<g id="edge24_Node000002_Node000017" class="edge">
<title>Node2&#45;&gt;Node17</title>
<g id="a_edge24_Node000002_Node000017"><a xlink:title=" ">
<path fill="none" stroke="#63b8ff" d="M528.77,-223.51C536.41,-214.51 548.05,-200.54 557.62,-188 569.27,-172.74 581.82,-154.91 590.86,-141.78"/>
<polygon fill="#63b8ff" stroke="#63b8ff" points="593.67,-143.89 596.43,-133.66 587.89,-139.93 593.67,-143.89"/>
</a>
</g>
</g>
<!-- Node18 -->
<g id="Node000018" class="node">
<title>Node18</title>
<g id="a_Node000018"><a xlink:href="a00125.html" target="_top" xlink:title="Yena SWR 인터페이스 헤더 : DX9 (d3d9.h) 대응">
<polygon fill="white" stroke="#666666" points="650.25,-188 605,-188 605,-168 650.25,-168 650.25,-188"/>
<text xml:space="preserve" text-anchor="middle" x="627.62" y="-174.5" font-family="Helvetica,sans-Serif" font-size="10.00">ynx9.h</text>
</a>
</g>
</g>
<!-- Node2&#45;&gt;Node18 -->
<g id="edge26_Node000002_Node000018" class="edge">
<title>Node2&#45;&gt;Node18</title>
<g id="a_edge26_Node000002_Node000018"><a xlink:title=" ">
<path fill="none" stroke="#63b8ff" d="M539.26,-223.59C555.66,-215.32 579.78,-203.14 598.69,-193.6"/>
<polygon fill="#63b8ff" stroke="#63b8ff" points="600.14,-196.79 607.49,-189.16 596.99,-190.54 600.14,-196.79"/>
</a>
</g>
</g>
<!-- Node19 -->
<g id="Node000019" class="node">
<title>Node19</title>
<g id="a_Node000019"><a xlink:href="a00116.html" target="_top" xlink:title="\u{2b50} Yena 수학 라이브러리 Yena Math Library for DirectX / OpenGL">
<polygon fill="white" stroke="#666666" points="712.88,-132 656.38,-132 656.38,-112 712.88,-112 712.88,-132"/>
<text xml:space="preserve" text-anchor="middle" x="684.62" y="-118.5" font-family="Helvetica,sans-Serif" font-size="10.00">ynMath.h</text>
</a>
</g>
</g>
<!-- Node2&#45;&gt;Node19 -->
<g id="edge31_Node000002_Node000019" class="edge">
<title>Node2&#45;&gt;Node19</title>
<g id="a_edge31_Node000002_Node000019"><a xlink:title=" ">
<path fill="none" stroke="#63b8ff" d="M543.89,-231.5C574.28,-228.35 627.4,-218.53 659.62,-188 671.98,-176.3 678.31,-157.81 681.5,-143.54"/>
<polygon fill="#63b8ff" stroke="#63b8ff" points="684.91,-144.32 683.29,-133.85 678.03,-143.04 684.91,-144.32"/>
</a>
</g>
</g>
<!-- Node21 -->
<g id="Node000021" class="node">
<title>Node21</title>
<g id="a_Node000021"><a xlink:href="a00104.html" target="_top" xlink:title="그리드 클래스 헤더.">
<polygon fill="white" stroke="#666666" points="797,-188 744.25,-188 744.25,-168 797,-168 797,-188"/>
<text xml:space="preserve" text-anchor="middle" x="770.62" y="-174.5" font-family="Helvetica,sans-Serif" font-size="10.00">ynGrid.h</text>
</a>
</g>
</g>
<!-- Node2&#45;&gt;Node21 -->
<g id="edge32_Node000002_Node000021" class="edge">
<title>Node2&#45;&gt;Node21</title>
<g id="a_edge32_Node000002_Node000021"><a xlink:title=" ">
<path fill="none" stroke="#63b8ff" d="M543.84,-226.83C581.45,-218.25 657.17,-202.16 721.62,-188 725.17,-187.22 728.89,-186.4 732.65,-185.57"/>
<polygon fill="#63b8ff" stroke="#63b8ff" points="733.36,-189 742.4,-183.48 731.89,-182.16 733.36,-189"/>
</a>
</g>
</g>
<!-- Node2&#45;&gt;Node22 -->
<g id="edge35_Node000002_Node000022" class="edge">
<title>Node2&#45;&gt;Node22</title>
<g id="a_edge35_Node000002_Node000022"><a xlink:title=" ">
<path fill="none" stroke="#63b8ff" d="M543.76,-229.29C591.52,-222.42 703.3,-206.68 796.62,-188 799.05,-187.51 801.55,-186.98 804.09,-186.42"/>
<polygon fill="#63b8ff" stroke="#63b8ff" points="804.83,-189.84 813.81,-184.21 803.28,-183.01 804.83,-189.84"/>
</a>
</g>
</g>
<!-- Node10&#45;&gt;Node3 -->
<g id="edge10_Node000010_Node000003" class="edge">
<title>Node10&#45;&gt;Node3</title>
<g id="a_edge10_Node000010_Node000003"><a xlink:title=" ">
<path fill="none" stroke="#63b8ff" d="M697.76,-57.76C695.01,-57.16 692.27,-56.56 689.62,-56 626.36,-42.56 552.83,-28.06 507.51,-19.26"/>
<polygon fill="#63b8ff" stroke="#63b8ff" points="508.32,-15.85 497.83,-17.38 506.98,-22.72 508.32,-15.85"/>
</a>
</g>
</g>
<!-- Node11 -->
<g id="Node000011" class="node">
<title>Node11</title>
<g id="a_Node000011"><a xlink:title=" ">
<polygon fill="#e0e0e0" stroke="#999999" points="815.25,-20 764,-20 764,0 815.25,0 815.25,-20"/>
<text xml:space="preserve" text-anchor="middle" x="789.62" y="-6.5" font-family="Helvetica,sans-Serif" font-size="10.00">assert.h</text>
</a>
</g>
</g>
<!-- Node10&#45;&gt;Node11 -->
<g id="edge11_Node000010_Node000011" class="edge">
<title>Node10&#45;&gt;Node11</title>
<g id="a_edge11_Node000010_Node000011"><a xlink:title=" ">
<path fill="none" stroke="#63b8ff" d="M740.08,-55.59C748.59,-47.93 760.84,-36.91 771.02,-27.75"/>
<polygon fill="#63b8ff" stroke="#63b8ff" points="773.08,-30.6 778.17,-21.31 768.39,-25.4 773.08,-30.6"/>
</a>
</g>
</g>
<!-- Node13 -->
<g id="Node000013" class="node">
<title>Node13</title>
<g id="a_Node000013"><a xlink:title=" ">
<polygon fill="#e0e0e0" stroke="#999999" points="550.62,-132 492.62,-132 492.62,-112 550.62,-112 550.62,-132"/>
<text xml:space="preserve" text-anchor="middle" x="521.62" y="-118.5" font-family="Helvetica,sans-Serif" font-size="10.00">exception</text>
</a>
</g>
</g>
<!-- Node12&#45;&gt;Node13 -->
<g id="edge13_Node000012_Node000013" class="edge">
<title>Node12&#45;&gt;Node13</title>
<g id="a_edge13_Node000012_Node000013"><a xlink:title=" ">
<path fill="none" stroke="#63b8ff" d="M520.8,-167.59C520.92,-161.01 521.09,-151.96 521.24,-143.73"/>
<polygon fill="#63b8ff" stroke="#63b8ff" points="524.74,-143.87 521.42,-133.81 517.74,-143.75 524.74,-143.87"/>
</a>
</g>
</g>
<!-- Node14&#45;&gt;Node3 -->
<g id="edge15_Node000014_Node000003" class="edge">
<title>Node14&#45;&gt;Node3</title>
<g id="a_edge15_Node000014_Node000003"><a xlink:title=" ">
<path fill="none" stroke="#63b8ff" d="M230.4,-167.54C215.35,-154.71 193.2,-131.18 205.62,-112 252.73,-39.28 361.15,-18.88 421.71,-13.19"/>
<polygon fill="#63b8ff" stroke="#63b8ff" points="421.97,-16.68 431.65,-12.36 421.39,-9.7 421.97,-16.68"/>
</a>
</g>
</g>
<!-- Node14&#45;&gt;Node4 -->
<g id="edge16_Node000014_Node000004" class="edge">
<title>Node14&#45;&gt;Node4</title>
<g id="a_edge16_Node000014_Node000004"><a xlink:title=" ">
<path fill="none" stroke="#63b8ff" d="M254.64,-167.59C264.64,-159.77 279.09,-148.46 290.93,-139.19"/>
<polygon fill="#63b8ff" stroke="#63b8ff" points="292.83,-142.15 298.55,-133.23 288.52,-136.64 292.83,-142.15"/>
</a>
</g>
</g>
<!-- Node14&#45;&gt;Node5 -->
<g id="edge17_Node000014_Node000005" class="edge">
<title>Node14&#45;&gt;Node5</title>
<g id="a_edge17_Node000014_Node000005"><a xlink:title=" ">
<path fill="none" stroke="#63b8ff" d="M265.79,-167.59C286.83,-159.05 318.12,-146.35 341.93,-136.68"/>
<polygon fill="#63b8ff" stroke="#63b8ff" points="342.93,-140.05 350.88,-133.05 340.29,-133.57 342.93,-140.05"/>
</a>
</g>
</g>
<!-- Node14&#45;&gt;Node6 -->
<g id="edge18_Node000014_Node000006" class="edge">
<title>Node14&#45;&gt;Node6</title>
<g id="a_edge18_Node000014_Node000006"><a xlink:title=" ">
<path fill="none" stroke="#63b8ff" d="M212.07,-170.21C176.72,-162.25 116.54,-148.37 56.43,-132.66"/>
<polygon fill="#63b8ff" stroke="#63b8ff" points="57.64,-129.36 47.08,-130.19 55.86,-136.13 57.64,-129.36"/>
</a>
</g>
</g>
<!-- Node14&#45;&gt;Node8 -->
<g id="edge19_Node000014_Node000008" class="edge">
<title>Node14&#45;&gt;Node8</title>
<g id="a_edge19_Node000014_Node000008"><a xlink:title=" ">
<path fill="none" stroke="#63b8ff" d="M215.1,-167.59C187.78,-158.26 145.92,-143.95 117.01,-134.07"/>
<polygon fill="#63b8ff" stroke="#63b8ff" points="118.28,-130.8 107.68,-130.88 116.02,-137.43 118.28,-130.8"/>
</a>
</g>
</g>
<!-- Node14&#45;&gt;Node9 -->
<g id="edge21_Node000014_Node000009" class="edge">
<title>Node14&#45;&gt;Node9</title>
<g id="a_edge21_Node000014_Node000009"><a xlink:title=" ">
<path fill="none" stroke="#63b8ff" d="M242.62,-167.59C242.62,-161.01 242.62,-151.96 242.62,-143.73"/>
<polygon fill="#63b8ff" stroke="#63b8ff" points="246.13,-143.81 242.63,-133.81 239.13,-143.81 246.13,-143.81"/>
</a>
</g>
</g>
<!-- Node15 -->
<g id="Node000015" class="node">
<title>Node15</title>
<g id="a_Node000015"><a xlink:title=" ">
<polygon fill="#e0e0e0" stroke="#999999" points="159,-132 124.25,-132 124.25,-112 159,-112 159,-132"/>
<text xml:space="preserve" text-anchor="middle" x="141.62" y="-118.5" font-family="Helvetica,sans-Serif" font-size="10.00">map</text>
</a>
</g>
</g>
<!-- Node14&#45;&gt;Node15 -->
<g id="edge20_Node000014_Node000015" class="edge">
<title>Node14&#45;&gt;Node15</title>
<g id="a_edge20_Node000014_Node000015"><a xlink:title=" ">
<path fill="none" stroke="#63b8ff" d="M225.03,-167.59C209.7,-159.4 187.21,-147.37 169.44,-137.87"/>
<polygon fill="#63b8ff" stroke="#63b8ff" points="171.16,-134.82 160.69,-133.19 167.86,-140.99 171.16,-134.82"/>
</a>
</g>
</g>
<!-- Node16&#45;&gt;Node3 -->
<g id="edge23_Node000016_Node000003" class="edge">
<title>Node16&#45;&gt;Node3</title>
<g id="a_edge23_Node000016_Node000003"><a xlink:title=" ">
<path fill="none" stroke="#63b8ff" d="M401.04,-55.59C412.23,-47.74 428.44,-36.38 441.68,-27.09"/>
<polygon fill="#63b8ff" stroke="#63b8ff" points="443.69,-29.96 449.87,-21.35 439.67,-24.22 443.69,-29.96"/>
</a>
</g>
</g>
<!-- Node17&#45;&gt;Node3 -->
<g id="edge25_Node000017_Node000003" class="edge">
<title>Node17&#45;&gt;Node3</title>
<g id="a_edge25_Node000017_Node000003"><a xlink:title=" ">
<path fill="none" stroke="#63b8ff" d="M591.77,-111.62C568.08,-92.87 514.6,-50.55 485.11,-27.21"/>
<polygon fill="#63b8ff" stroke="#63b8ff" points="487.65,-24.76 477.63,-21.29 483.3,-30.24 487.65,-24.76"/>
</a>
</g>
</g>
<!-- Node18&#45;&gt;Node17 -->
<g id="edge27_Node000018_Node000017" class="edge">
<title>Node18&#45;&gt;Node17</title>
<g id="a_edge27_Node000018_Node000017"><a xlink:title=" ">
<path fill="none" stroke="#63b8ff" d="M623.44,-167.59C620.38,-160.7 616.11,-151.1 612.32,-142.57"/>
<polygon fill="#63b8ff" stroke="#63b8ff" points="615.63,-141.4 608.37,-133.68 609.24,-144.24 615.63,-141.4"/>
</a>
</g>
</g>
<!-- Node18&#45;&gt;Node19 -->
<g id="edge28_Node000018_Node000019" class="edge">
<title>Node18&#45;&gt;Node19</title>
<g id="a_edge28_Node000018_Node000019"><a xlink:title=" ">
<path fill="none" stroke="#63b8ff" d="M637.55,-167.59C645.56,-160.01 657.04,-149.13 666.66,-140.02"/>
<polygon fill="#63b8ff" stroke="#63b8ff" points="668.86,-142.76 673.71,-133.34 664.04,-137.68 668.86,-142.76"/>
</a>
</g>
</g>
<!-- Node19&#45;&gt;Node10 -->
<g id="edge29_Node000019_Node000010" class="edge">
<title>Node19&#45;&gt;Node10</title>
<g id="a_edge29_Node000019_Node000010"><a xlink:title=" ">
<path fill="none" stroke="#63b8ff" d="M692.46,-111.59C698.59,-104.24 707.3,-93.8 714.74,-84.87"/>
<polygon fill="#63b8ff" stroke="#63b8ff" points="717.19,-87.38 720.91,-77.46 711.82,-82.9 717.19,-87.38"/>
</a>
</g>
</g>
<!-- Node20 -->
<g id="Node000020" class="node">
<title>Node20</title>
<g id="a_Node000020"><a xlink:title=" ">
<polygon fill="#e0e0e0" stroke="#999999" points="680.12,-76 601.12,-76 601.12,-56 680.12,-56 680.12,-76"/>
<text xml:space="preserve" text-anchor="middle" x="640.62" y="-62.5" font-family="Helvetica,sans-Serif" font-size="10.00">DirectXmath.h</text>
</a>
</g>
</g>
<!-- Node19&#45;&gt;Node20 -->
<g id="edge30_Node000019_Node000020" class="edge">
<title>Node19&#45;&gt;Node20</title>
<g id="a_edge30_Node000019_Node000020"><a xlink:title=" ">
<path fill="none" stroke="#63b8ff" d="M676.96,-111.59C671.03,-104.32 662.64,-94.02 655.41,-85.15"/>
<polygon fill="#63b8ff" stroke="#63b8ff" points="658.19,-83.01 649.16,-77.47 652.76,-87.43 658.19,-83.01"/>
</a>
</g>
</g>
<!-- Node21&#45;&gt;Node2 -->
<g id="edge33_Node000021_Node000002" class="edge">
<title>Node21&#45;&gt;Node2</title>
<g id="a_edge33_Node000021_Node000002"><a xlink:title=" ">
<path fill="none" stroke="#63b8ff" d="M743.86,-187.07C742.43,-187.38 741.02,-187.69 739.62,-188 674.74,-202.25 598.46,-218.46 555.03,-227"/>
<polygon fill="#63b8ff" stroke="#63b8ff" points="554.59,-223.52 545.44,-228.86 555.92,-230.39 554.59,-223.52"/>
</a>
</g>
</g>
<!-- Node21&#45;&gt;Node11 -->
<g id="edge34_Node000021_Node000011" class="edge">
<title>Node21&#45;&gt;Node11</title>
<g id="a_edge34_Node000021_Node000011"><a xlink:title=" ">
<path fill="none" stroke="#63b8ff" d="M771.7,-167.6C774.69,-141.46 783.16,-67.48 787.29,-31.36"/>
<polygon fill="#63b8ff" stroke="#63b8ff" points="790.73,-32.13 788.39,-21.8 783.77,-31.34 790.73,-32.13"/>
</a>
</g>
</g>
<!-- Node22&#45;&gt;Node2 -->
<g id="edge36_Node000022_Node000002" class="edge">
<title>Node22&#45;&gt;Node2</title>
<g id="a_edge36_Node000022_Node000002"><a xlink:title=" ">
<path fill="none" stroke="#63b8ff" d="M815.01,-187.92C814.88,-187.95 814.75,-187.97 814.62,-188 721.73,-206.6 610.55,-222.28 555.17,-229.2"/>
<polygon fill="#63b8ff" stroke="#63b8ff" points="554.91,-225.7 545.41,-230.4 555.76,-232.65 554.91,-225.7"/>
</a>
</g>
</g>
<!-- Node22&#45;&gt;Node11 -->
<g id="edge37_Node000022_Node000011" class="edge">
<title>Node22&#45;&gt;Node11</title>
<g id="a_edge37_Node000022_Node000011"><a xlink:title=" ">
<path fill="none" stroke="#63b8ff" d="M839.62,-167.6C831.24,-141.35 807.45,-66.84 795.97,-30.89"/>
<polygon fill="#63b8ff" stroke="#63b8ff" points="799.43,-30.2 793.05,-21.74 792.76,-32.33 799.43,-30.2"/>
</a>
</g>
</g>
</g>
</svg>
