<?xml version="1.0" encoding="UTF-8" standalone="no"?>
<!DOCTYPE svg PUBLIC "-//W3C//DTD SVG 1.1//EN"
 "http://www.w3.org/Graphics/SVG/1.1/DTD/svg11.dtd">
<!-- Generated by graphviz version 13.1.2 (20250808.2320)
 -->
<!-- Title: Src/Render.cpp Pages: 1 -->
<svg width="1014pt" height="364pt"
 viewBox="0.00 0.00 1014.00 364.00" xmlns="http://www.w3.org/2000/svg" xmlns:xlink="http://www.w3.org/1999/xlink">
<g id="graph0" class="graph" transform="scale(1 1) rotate(0) translate(4 360)">
<title>Src/Render.cpp</title>
<!-- Node1 -->
<g id="Node000001" class="node">
<title>Node1</title>
<g id="a_Node000001"><a xlink:title="\u{2b50} 예제 기본 렌더링/프레임웍 소스">
<polygon fill="#999999" stroke="#666666" points="229.5,-356 145.25,-356 145.25,-336 229.5,-336 229.5,-356"/>
<text xml:space="preserve" text-anchor="middle" x="187.38" y="-342.5" font-family="Helvetica,sans-Serif" font-size="10.00">Src/Render.cpp</text>
</a>
</g>
</g>
<!-- Node2 -->
<g id="Node000002" class="node">
<title>Node2</title>
<g id="a_Node000002"><a xlink:title=" ">
<polygon fill="#e0e0e0" stroke="#999999" points="64.75,-300 0,-300 0,-280 64.75,-280 64.75,-300"/>
<text xml:space="preserve" text-anchor="middle" x="32.38" y="-286.5" font-family="Helvetica,sans-Serif" font-size="10.00">Windows.h</text>
</a>
</g>
</g>
<!-- Node1&#45;&gt;Node2 -->
<g id="edge1_Node000001_Node000002" class="edge">
<title>Node1&#45;&gt;Node2</title>
<g id="a_edge1_Node000001_Node000002"><a xlink:title=" ">
<path fill="none" stroke="#63b8ff" d="M160.38,-335.59C135.41,-326.9 98.07,-313.89 70.15,-304.16"/>
<polygon fill="#63b8ff" stroke="#63b8ff" points="71.61,-300.96 61.01,-300.98 69.31,-307.57 71.61,-300.96"/>
</a>
</g>
</g>
<!-- Node3 -->
<g id="Node000003" class="node">
<title>Node3</title>
<g id="a_Node000003"><a xlink:title=" ">
<polygon fill="#e0e0e0" stroke="#999999" points="199.38,-132 153.38,-132 153.38,-112 199.38,-112 199.38,-132"/>
<text xml:space="preserve" text-anchor="middle" x="176.38" y="-118.5" font-family="Helvetica,sans-Serif" font-size="10.00">tchar.h</text>
</a>
</g>
</g>
<!-- Node1&#45;&gt;Node3 -->
<g id="edge2_Node000001_Node000003" class="edge">
<title>Node1&#45;&gt;Node3</title>
<g id="a_edge2_Node000001_Node000003"><a xlink:title=" ">
<path fill="none" stroke="#63b8ff" d="M183.51,-335.54C180.07,-326.57 175.29,-312.62 173.38,-300 164.86,-243.94 170.18,-176.74 173.81,-143.59"/>
<polygon fill="#63b8ff" stroke="#63b8ff" points="177.27,-144.13 174.96,-133.79 170.32,-143.31 177.27,-144.13"/>
</a>
</g>
</g>
<!-- Node4 -->
<g id="Node000004" class="node">
<title>Node4</title>
<g id="a_Node000004"><a xlink:title=" ">
<polygon fill="#e0e0e0" stroke="#999999" points="263,-132 217.75,-132 217.75,-112 263,-112 263,-132"/>
<text xml:space="preserve" text-anchor="middle" x="240.38" y="-118.5" font-family="Helvetica,sans-Serif" font-size="10.00">stdio.h</text>
</a>
</g>
</g>
<!-- Node1&#45;&gt;Node4 -->
<g id="edge3_Node000001_Node000004" class="edge">
<title>Node1&#45;&gt;Node4</title>
<g id="a_edge3_Node000001_Node000004"><a xlink:title=" ">
<path fill="none" stroke="#63b8ff" d="M189.58,-335.74C197.48,-302.67 224.42,-189.83 235.53,-143.31"/>
<polygon fill="#63b8ff" stroke="#63b8ff" points="238.89,-144.31 237.8,-133.77 232.08,-142.68 238.89,-144.31"/>
</a>
</g>
</g>
<!-- Node5 -->
<g id="Node000005" class="node">
<title>Node5</title>
<g id="a_Node000005"><a xlink:href="a00053.html" target="_top" xlink:title="예제 렌더링 장치 운용 헤더">
<polygon fill="white" stroke="#666666" points="270.88,-300 215.88,-300 215.88,-280 270.88,-280 270.88,-300"/>
<text xml:space="preserve" text-anchor="middle" x="243.38" y="-286.5" font-family="Helvetica,sans-Serif" font-size="10.00">Device.h</text>
</a>
</g>
</g>
<!-- Node1&#45;&gt;Node5 -->
<g id="edge4_Node000001_Node000005" class="edge">
<title>Node1&#45;&gt;Node5</title>
<g id="a_edge4_Node000001_Node000005"><a xlink:title=" ">
<path fill="none" stroke="#63b8ff" d="M197.13,-335.59C205,-328.01 216.27,-317.13 225.72,-308.02"/>
<polygon fill="#63b8ff" stroke="#63b8ff" points="227.87,-310.81 232.64,-301.35 223.01,-305.77 227.87,-310.81"/>
</a>
</g>
</g>
<!-- Node25 -->
<g id="Node000025" class="node">
<title>Node25</title>
<g id="a_Node000025"><a xlink:href="a00062.html" target="_top" xlink:title="예제 기본 렌더링/프레임웍 헤더">
<polygon fill="white" stroke="#666666" points="344.25,-300 288.5,-300 288.5,-280 344.25,-280 344.25,-300"/>
<text xml:space="preserve" text-anchor="middle" x="316.38" y="-286.5" font-family="Helvetica,sans-Serif" font-size="10.00">Render.h</text>
</a>
</g>
</g>
<!-- Node1&#45;&gt;Node25 -->
<g id="edge42_Node000001_Node000025" class="edge">
<title>Node1&#45;&gt;Node25</title>
<g id="a_edge42_Node000001_Node000025"><a xlink:title=" ">
<path fill="none" stroke="#63b8ff" d="M209.85,-335.59C230.16,-327.09 260.33,-314.46 283.38,-304.81"/>
<polygon fill="#63b8ff" stroke="#63b8ff" points="284.46,-308.15 292.33,-301.06 281.76,-301.7 284.46,-308.15"/>
</a>
</g>
</g>
<!-- Node6 -->
<g id="Node000006" class="node">
<title>Node6</title>
<g id="a_Node000006"><a xlink:href="a00068.html" target="_top" xlink:title="Yena SWR 기본 헤더 파일 (v1.x)">
<polygon fill="white" stroke="#666666" points="608.38,-244 562.38,-244 562.38,-224 608.38,-224 608.38,-244"/>
<text xml:space="preserve" text-anchor="middle" x="585.38" y="-230.5" font-family="Helvetica,sans-Serif" font-size="10.00">Yena.h</text>
</a>
</g>
</g>
<!-- Node5&#45;&gt;Node6 -->
<g id="edge5_Node000005_Node000006" class="edge">
<title>Node5&#45;&gt;Node6</title>
<g id="a_edge5_Node000005_Node000006"><a xlink:title=" ">
<path fill="none" stroke="#63b8ff" d="M271.22,-281.75C273.97,-281.12 276.72,-280.53 279.38,-280 377.23,-260.62 494.22,-245.67 551.03,-238.93"/>
<polygon fill="#63b8ff" stroke="#63b8ff" points="551.18,-242.43 560.71,-237.79 550.37,-235.48 551.18,-242.43"/>
</a>
</g>
</g>
<!-- Node6&#45;&gt;Node3 -->
<g id="edge7_Node000006_Node000003" class="edge">
<title>Node6&#45;&gt;Node3</title>
<g id="a_edge7_Node000006_Node000003"><a xlink:title=" ">
<path fill="none" stroke="#63b8ff" d="M561.93,-231.38C496.55,-226.63 313.45,-211.51 258.38,-188 232.68,-177.03 208.26,-155.78 192.86,-140.56"/>
<polygon fill="#63b8ff" stroke="#63b8ff" points="195.45,-138.2 185.95,-133.5 190.44,-143.09 195.45,-138.2"/>
</a>
</g>
</g>
<!-- Node6&#45;&gt;Node4 -->
<g id="edge9_Node000006_Node000004" class="edge">
<title>Node6&#45;&gt;Node4</title>
<g id="a_edge9_Node000006_Node000004"><a xlink:title=" ">
<path fill="none" stroke="#63b8ff" d="M562.08,-230.99C519.63,-226.77 427.35,-215.08 354.38,-188 345.16,-184.58 296.6,-156.26 265.91,-138.14"/>
<polygon fill="#63b8ff" stroke="#63b8ff" points="267.96,-135.29 257.57,-133.21 264.4,-141.32 267.96,-135.29"/>
</a>
</g>
</g>
<!-- Node7 -->
<g id="Node000007" class="node">
<title>Node7</title>
<g id="a_Node000007"><a xlink:title=" ">
<polygon fill="#e0e0e0" stroke="#999999" points="712.62,-20 650.12,-20 650.12,0 712.62,0 712.62,-20"/>
<text xml:space="preserve" text-anchor="middle" x="681.38" y="-6.5" font-family="Helvetica,sans-Serif" font-size="10.00">windows.h</text>
</a>
</g>
</g>
<!-- Node6&#45;&gt;Node7 -->
<g id="edge6_Node000006_Node000007" class="edge">
<title>Node6&#45;&gt;Node7</title>
<g id="a_edge6_Node000006_Node000007"><a xlink:title=" ">
<path fill="none" stroke="#63b8ff" d="M608.74,-233.12C640.79,-231.86 697.49,-224.27 724.38,-188 760.55,-139.19 718.21,-63.95 694.83,-29.44"/>
<polygon fill="#63b8ff" stroke="#63b8ff" points="697.76,-27.53 689.16,-21.35 692.03,-31.55 697.76,-27.53"/>
</a>
</g>
</g>
<!-- Node8 -->
<g id="Node000008" class="node">
<title>Node8</title>
<g id="a_Node000008"><a xlink:title=" ">
<polygon fill="#e0e0e0" stroke="#999999" points="552.38,-132 506.38,-132 506.38,-112 552.38,-112 552.38,-132"/>
<text xml:space="preserve" text-anchor="middle" x="529.38" y="-118.5" font-family="Helvetica,sans-Serif" font-size="10.00">math.h</text>
</a>
</g>
</g>
<!-- Node6&#45;&gt;Node8 -->
<g id="edge8_Node000006_Node000008" class="edge">
<title>Node6&#45;&gt;Node8</title>
<g id="a_edge8_Node000006_Node000008"><a xlink:title=" ">
<path fill="none" stroke="#63b8ff" d="M575.9,-223.82C567.56,-215.26 555.65,-201.77 548.38,-188 540.96,-173.98 536.09,-156.69 533.13,-143.46"/>
<polygon fill="#63b8ff" stroke="#63b8ff" points="536.58,-142.86 531.17,-133.76 529.72,-144.25 536.58,-142.86"/>
</a>
</g>
</g>
<!-- Node9 -->
<g id="Node000009" class="node">
<title>Node9</title>
<g id="a_Node000009"><a xlink:title=" ">
<polygon fill="#e0e0e0" stroke="#999999" points="307.38,-188 267.38,-188 267.38,-168 307.38,-168 307.38,-188"/>
<text xml:space="preserve" text-anchor="middle" x="287.38" y="-174.5" font-family="Helvetica,sans-Serif" font-size="10.00">string</text>
</a>
</g>
</g>
<!-- Node6&#45;&gt;Node9 -->
<g id="edge10_Node000006_Node000009" class="edge">
<title>Node6&#45;&gt;Node9</title>
<g id="a_edge10_Node000006_Node000009"><a xlink:title=" ">
<path fill="none" stroke="#63b8ff" d="M561.93,-229.73C515.68,-223.11 409.52,-207.14 321.38,-188 320.55,-187.82 319.71,-187.63 318.86,-187.44"/>
<polygon fill="#63b8ff" stroke="#63b8ff" points="319.82,-184.07 309.27,-185.09 318.15,-190.87 319.82,-184.07"/>
</a>
</g>
</g>
<!-- Node10 -->
<g id="Node000010" class="node">
<title>Node10</title>
<g id="a_Node000010"><a xlink:title=" ">
<polygon fill="#e0e0e0" stroke="#999999" points="414.88,-132 371.88,-132 371.88,-112 414.88,-112 414.88,-132"/>
<text xml:space="preserve" text-anchor="middle" x="393.38" y="-118.5" font-family="Helvetica,sans-Serif" font-size="10.00">vector</text>
</a>
</g>
</g>
<!-- Node6&#45;&gt;Node10 -->
<g id="edge11_Node000006_Node000010" class="edge">
<title>Node6&#45;&gt;Node10</title>
<g id="a_edge11_Node000006_Node000010"><a xlink:title=" ">
<path fill="none" stroke="#63b8ff" d="M569.01,-223.62C535.71,-204.54 459.84,-161.08 419.59,-138.02"/>
<polygon fill="#63b8ff" stroke="#63b8ff" points="421.43,-135.04 411.02,-133.11 417.95,-141.12 421.43,-135.04"/>
</a>
</g>
</g>
<!-- Node11 -->
<g id="Node000011" class="node">
<title>Node11</title>
<g id="a_Node000011"><a xlink:title=" ">
<polygon fill="#e0e0e0" stroke="#999999" points="488.25,-132 432.5,-132 432.5,-112 488.25,-112 488.25,-132"/>
<text xml:space="preserve" text-anchor="middle" x="460.38" y="-118.5" font-family="Helvetica,sans-Serif" font-size="10.00">algorithm</text>
</a>
</g>
</g>
<!-- Node6&#45;&gt;Node11 -->
<g id="edge12_Node000006_Node000011" class="edge">
<title>Node6&#45;&gt;Node11</title>
<g id="a_edge12_Node000006_Node000011"><a xlink:title=" ">
<path fill="none" stroke="#63b8ff" d="M574.72,-223.62C553.59,-205.03 506.15,-163.28 479.49,-139.82"/>
<polygon fill="#63b8ff" stroke="#63b8ff" points="481.96,-137.33 472.14,-133.35 477.34,-142.59 481.96,-137.33"/>
</a>
</g>
</g>
<!-- Node12 -->
<g id="Node000012" class="node">
<title>Node12</title>
<g id="a_Node000012"><a xlink:href="a00092.html" target="_top" xlink:title="Yena SWR 엔진 기본 정의 문서.">
<polygon fill="white" stroke="#666666" points="912,-76 848.75,-76 848.75,-56 912,-56 912,-76"/>
<text xml:space="preserve" text-anchor="middle" x="880.38" y="-62.5" font-family="Helvetica,sans-Serif" font-size="10.00">ynDefine.h</text>
</a>
</g>
</g>
<!-- Node6&#45;&gt;Node12 -->
<g id="edge13_Node000006_Node000012" class="edge">
<title>Node6&#45;&gt;Node12</title>
<g id="a_edge13_Node000006_Node000012"><a xlink:title=" ">
<path fill="none" stroke="#63b8ff" d="M608.58,-231.8C646.84,-228.95 724.56,-219.45 781.38,-188 824.16,-164.32 855.76,-114.03 870.73,-86.32"/>
<polygon fill="#63b8ff" stroke="#63b8ff" points="873.74,-88.11 875.25,-77.63 867.53,-84.88 873.74,-88.11"/>
</a>
</g>
</g>
<!-- Node14 -->
<g id="Node000014" class="node">
<title>Node14</title>
<g id="a_Node000014"><a xlink:href="a00098.html" target="_top" xlink:title="에러, 예외 및 로그 처리 헤더 파일">
<polygon fill="white" stroke="#666666" points="613.25,-188 557.5,-188 557.5,-168 613.25,-168 613.25,-188"/>
<text xml:space="preserve" text-anchor="middle" x="585.38" y="-174.5" font-family="Helvetica,sans-Serif" font-size="10.00">ynError.h</text>
</a>
</g>
</g>
<!-- Node6&#45;&gt;Node14 -->
<g id="edge16_Node000006_Node000014" class="edge">
<title>Node6&#45;&gt;Node14</title>
<g id="a_edge16_Node000006_Node000014"><a xlink:title=" ">
<path fill="none" stroke="#63b8ff" d="M585.38,-223.59C585.38,-217.01 585.38,-207.96 585.38,-199.73"/>
<polygon fill="#63b8ff" stroke="#63b8ff" points="588.88,-199.81 585.38,-189.81 581.88,-199.81 588.88,-199.81"/>
</a>
</g>
</g>
<!-- Node16 -->
<g id="Node000016" class="node">
<title>Node16</title>
<g id="a_Node000016"><a xlink:href="a00110.html" target="_top" xlink:title="Yena SWR COM / GUID 헤더">
<polygon fill="white" stroke="#666666" points="423.5,-188 363.25,-188 363.25,-168 423.5,-168 423.5,-188"/>
<text xml:space="preserve" text-anchor="middle" x="393.38" y="-174.5" font-family="Helvetica,sans-Serif" font-size="10.00">ynGUID.h</text>
</a>
</g>
</g>
<!-- Node6&#45;&gt;Node16 -->
<g id="edge18_Node000006_Node000016" class="edge">
<title>Node6&#45;&gt;Node16</title>
<g id="a_edge18_Node000006_Node000016"><a xlink:title=" ">
<path fill="none" stroke="#63b8ff" d="M562.22,-226.49C530.72,-217.63 473.83,-201.63 434.87,-190.67"/>
<polygon fill="#63b8ff" stroke="#63b8ff" points="435.93,-187.33 425.35,-187.99 434.03,-194.07 435.93,-187.33"/>
</a>
</g>
</g>
<!-- Node18 -->
<g id="Node000018" class="node">
<title>Node18</title>
<g id="a_Node000018"><a xlink:href="a00122.html" target="_top" xlink:title="Yena SWR COM 기반 헤더 (v2.x)">
<polygon fill="white" stroke="#666666" points="218.88,-76 121.88,-76 121.88,-56 218.88,-56 218.88,-76"/>
<text xml:space="preserve" text-anchor="middle" x="170.38" y="-62.5" font-family="Helvetica,sans-Serif" font-size="10.00">ynUnknownbase.h</text>
</a>
</g>
</g>
<!-- Node6&#45;&gt;Node18 -->
<g id="edge26_Node000006_Node000018" class="edge">
<title>Node6&#45;&gt;Node18</title>
<g id="a_edge26_Node000006_Node000018"><a xlink:title=" ">
<path fill="none" stroke="#63b8ff" d="M561.95,-231.61C491.89,-227.22 284.91,-212.47 222.38,-188 182.63,-172.45 163.86,-169.97 144.38,-132 136.59,-116.83 145.14,-98.78 154.46,-85.55"/>
<polygon fill="#63b8ff" stroke="#63b8ff" points="157.19,-87.74 160.56,-77.7 151.66,-83.45 157.19,-87.74"/>
</a>
</g>
</g>
<!-- Node19 -->
<g id="Node000019" class="node">
<title>Node19</title>
<g id="a_Node000019"><a xlink:href="a00128.html" target="_top" xlink:title="Yena SW 엔진 자료형 정의 : DX9 (d3d9types.h) 대응">
<polygon fill="white" stroke="#666666" points="716,-132 646.75,-132 646.75,-112 716,-112 716,-132"/>
<text xml:space="preserve" text-anchor="middle" x="681.38" y="-118.5" font-family="Helvetica,sans-Serif" font-size="10.00">ynx9types.h</text>
</a>
</g>
</g>
<!-- Node6&#45;&gt;Node19 -->
<g id="edge28_Node000006_Node000019" class="edge">
<title>Node6&#45;&gt;Node19</title>
<g id="a_edge28_Node000006_Node000019"><a xlink:title=" ">
<path fill="none" stroke="#63b8ff" d="M593.56,-223.62C609.57,-205.27 645.27,-164.37 665.88,-140.75"/>
<polygon fill="#63b8ff" stroke="#63b8ff" points="668.28,-143.33 672.22,-133.5 663,-138.73 668.28,-143.33"/>
</a>
</g>
</g>
<!-- Node20 -->
<g id="Node000020" class="node">
<title>Node20</title>
<g id="a_Node000020"><a xlink:href="a00125.html" target="_top" xlink:title="Yena SWR 인터페이스 헤더 : DX9 (d3d9.h) 대응">
<polygon fill="white" stroke="#666666" points="715,-188 669.75,-188 669.75,-168 715,-168 715,-188"/>
<text xml:space="preserve" text-anchor="middle" x="692.38" y="-174.5" font-family="Helvetica,sans-Serif" font-size="10.00">ynx9.h</text>
</a>
</g>
</g>
<!-- Node6&#45;&gt;Node20 -->
<g id="edge30_Node000006_Node000020" class="edge">
<title>Node6&#45;&gt;Node20</title>
<g id="a_edge30_Node000006_Node000020"><a xlink:title=" ">
<path fill="none" stroke="#63b8ff" d="M604.01,-223.59C620.41,-215.32 644.53,-203.14 663.44,-193.6"/>
<polygon fill="#63b8ff" stroke="#63b8ff" points="664.89,-196.79 672.24,-189.16 661.74,-190.54 664.89,-196.79"/>
</a>
</g>
</g>
<!-- Node21 -->
<g id="Node000021" class="node">
<title>Node21</title>
<g id="a_Node000021"><a xlink:href="a00116.html" target="_top" xlink:title="\u{2b50} Yena 수학 라이브러리 Yena Math Library for DirectX / OpenGL">
<polygon fill="white" stroke="#666666" points="828.62,-132 772.12,-132 772.12,-112 828.62,-112 828.62,-132"/>
<text xml:space="preserve" text-anchor="middle" x="800.38" y="-118.5" font-family="Helvetica,sans-Serif" font-size="10.00">ynMath.h</text>
</a>
</g>
</g>
<!-- Node6&#45;&gt;Node21 -->
<g id="edge35_Node000006_Node000021" class="edge">
<title>Node6&#45;&gt;Node21</title>
<g id="a_edge35_Node000006_Node000021"><a xlink:title=" ">
<path fill="none" stroke="#63b8ff" d="M608.62,-232.21C644.1,-229.92 712.47,-221.18 758.38,-188 774.19,-176.57 785.57,-157.2 792.47,-142.57"/>
<polygon fill="#63b8ff" stroke="#63b8ff" points="795.64,-144.05 796.43,-133.48 789.22,-141.25 795.64,-144.05"/>
</a>
</g>
</g>
<!-- Node23 -->
<g id="Node000023" class="node">
<title>Node23</title>
<g id="a_Node000023"><a xlink:href="a00104.html" target="_top" xlink:title="그리드 클래스 헤더.">
<polygon fill="white" stroke="#666666" points="932.75,-188 880,-188 880,-168 932.75,-168 932.75,-188"/>
<text xml:space="preserve" text-anchor="middle" x="906.38" y="-174.5" font-family="Helvetica,sans-Serif" font-size="10.00">ynGrid.h</text>
</a>
</g>
</g>
<!-- Node6&#45;&gt;Node23 -->
<g id="edge36_Node000006_Node000023" class="edge">
<title>Node6&#45;&gt;Node23</title>
<g id="a_edge36_Node000006_Node000023"><a xlink:title=" ">
<path fill="none" stroke="#63b8ff" d="M608.82,-228.99C656.22,-221.76 765.68,-205.64 857.38,-188 860.94,-187.31 864.67,-186.54 868.43,-185.75"/>
<polygon fill="#63b8ff" stroke="#63b8ff" points="869.14,-189.18 878.19,-183.68 867.68,-182.33 869.14,-189.18"/>
</a>
</g>
</g>
<!-- Node24 -->
<g id="Node000024" class="node">
<title>Node24</title>
<g id="a_Node000024"><a xlink:href="a00074.html" target="_top" xlink:title="공간축 클래스 헤더.">
<polygon fill="white" stroke="#666666" points="1005.5,-188 951.25,-188 951.25,-168 1005.5,-168 1005.5,-188"/>
<text xml:space="preserve" text-anchor="middle" x="978.38" y="-174.5" font-family="Helvetica,sans-Serif" font-size="10.00">ynAxis.h</text>
</a>
</g>
</g>
<!-- Node6&#45;&gt;Node24 -->
<g id="edge39_Node000006_Node000024" class="edge">
<title>Node6&#45;&gt;Node24</title>
<g id="a_edge39_Node000006_Node000024"><a xlink:title=" ">
<path fill="none" stroke="#63b8ff" d="M608.83,-230.52C665.19,-224.97 811.37,-210.29 932.38,-188 934.8,-187.55 937.31,-187.04 939.86,-186.5"/>
<polygon fill="#63b8ff" stroke="#63b8ff" points="940.59,-189.92 949.58,-184.32 939.06,-183.09 940.59,-189.92"/>
</a>
</g>
</g>
<!-- Node12&#45;&gt;Node7 -->
<g id="edge14_Node000012_Node000007" class="edge">
<title>Node12&#45;&gt;Node7</title>
<g id="a_edge14_Node000012_Node000007"><a xlink:title=" ">
<path fill="none" stroke="#63b8ff" d="M848.4,-56.32C814.65,-47.16 761.26,-32.68 723.96,-22.56"/>
<polygon fill="#63b8ff" stroke="#63b8ff" points="724.97,-19.2 714.4,-19.96 723.13,-25.96 724.97,-19.2"/>
</a>
</g>
</g>
<!-- Node13 -->
<g id="Node000013" class="node">
<title>Node13</title>
<g id="a_Node000013"><a xlink:title=" ">
<polygon fill="#e0e0e0" stroke="#999999" points="966,-20 914.75,-20 914.75,0 966,0 966,-20"/>
<text xml:space="preserve" text-anchor="middle" x="940.38" y="-6.5" font-family="Helvetica,sans-Serif" font-size="10.00">assert.h</text>
</a>
</g>
</g>
<!-- Node12&#45;&gt;Node13 -->
<g id="edge15_Node000012_Node000013" class="edge">
<title>Node12&#45;&gt;Node13</title>
<g id="a_edge15_Node000012_Node000013"><a xlink:title=" ">
<path fill="none" stroke="#63b8ff" d="M890.83,-55.59C899.34,-47.93 911.59,-36.91 921.77,-27.75"/>
<polygon fill="#63b8ff" stroke="#63b8ff" points="923.83,-30.6 928.92,-21.31 919.14,-25.4 923.83,-30.6"/>
</a>
</g>
</g>
<!-- Node15 -->
<g id="Node000015" class="node">
<title>Node15</title>
<g id="a_Node000015"><a xlink:title=" ">
<polygon fill="#e0e0e0" stroke="#999999" points="628.38,-132 570.38,-132 570.38,-112 628.38,-112 628.38,-132"/>
<text xml:space="preserve" text-anchor="middle" x="599.38" y="-118.5" font-family="Helvetica,sans-Serif" font-size="10.00">exception</text>
</a>
</g>
</g>
<!-- Node14&#45;&gt;Node15 -->
<g id="edge17_Node000014_Node000015" class="edge">
<title>Node14&#45;&gt;Node15</title>
<g id="a_edge17_Node000014_Node000015"><a xlink:title=" ">
<path fill="none" stroke="#63b8ff" d="M587.81,-167.59C589.54,-160.93 591.92,-151.75 594.08,-143.44"/>
<polygon fill="#63b8ff" stroke="#63b8ff" points="597.46,-144.32 596.58,-133.76 590.69,-142.56 597.46,-144.32"/>
</a>
</g>
</g>
<!-- Node16&#45;&gt;Node3 -->
<g id="edge20_Node000016_Node000003" class="edge">
<title>Node16&#45;&gt;Node3</title>
<g id="a_edge20_Node000016_Node000003"><a xlink:title=" ">
<path fill="none" stroke="#63b8ff" d="M362.85,-169.93C328.25,-161.83 269.92,-147.96 210.81,-132.57"/>
<polygon fill="#63b8ff" stroke="#63b8ff" points="211.79,-129.21 201.23,-130.07 210.02,-135.98 211.79,-129.21"/>
</a>
</g>
</g>
<!-- Node16&#45;&gt;Node4 -->
<g id="edge22_Node000016_Node000004" class="edge">
<title>Node16&#45;&gt;Node4</title>
<g id="a_edge22_Node000016_Node000004"><a xlink:title=" ">
<path fill="none" stroke="#63b8ff" d="M366.72,-167.59C340.99,-158.51 301.92,-144.72 274.05,-134.88"/>
<polygon fill="#63b8ff" stroke="#63b8ff" points="275.25,-131.6 264.66,-131.57 272.92,-138.2 275.25,-131.6"/>
</a>
</g>
</g>
<!-- Node16&#45;&gt;Node7 -->
<g id="edge19_Node000016_Node000007" class="edge">
<title>Node16&#45;&gt;Node7</title>
<g id="a_edge19_Node000016_Node000007"><a xlink:title=" ">
<path fill="none" stroke="#63b8ff" d="M363.25,-167.6C332.55,-156.43 291.87,-136.21 310.38,-112 350.43,-59.59 549.74,-27.91 638.55,-16.18"/>
<polygon fill="#63b8ff" stroke="#63b8ff" points="638.85,-19.67 648.32,-14.92 637.95,-12.73 638.85,-19.67"/>
</a>
</g>
</g>
<!-- Node16&#45;&gt;Node8 -->
<g id="edge21_Node000016_Node000008" class="edge">
<title>Node16&#45;&gt;Node8</title>
<g id="a_edge21_Node000016_Node000008"><a xlink:title=" ">
<path fill="none" stroke="#63b8ff" d="M417.06,-167.59C438.71,-159 470.97,-146.19 495.37,-136.5"/>
<polygon fill="#63b8ff" stroke="#63b8ff" points="496.55,-139.8 504.55,-132.86 493.96,-133.29 496.55,-139.8"/>
</a>
</g>
</g>
<!-- Node16&#45;&gt;Node10 -->
<g id="edge23_Node000016_Node000010" class="edge">
<title>Node16&#45;&gt;Node10</title>
<g id="a_edge23_Node000016_Node000010"><a xlink:title=" ">
<path fill="none" stroke="#63b8ff" d="M393.38,-167.59C393.38,-161.01 393.38,-151.96 393.38,-143.73"/>
<polygon fill="#63b8ff" stroke="#63b8ff" points="396.88,-143.81 393.38,-133.81 389.88,-143.81 396.88,-143.81"/>
</a>
</g>
</g>
<!-- Node16&#45;&gt;Node11 -->
<g id="edge25_Node000016_Node000011" class="edge">
<title>Node16&#45;&gt;Node11</title>
<g id="a_edge25_Node000016_Node000011"><a xlink:title=" ">
<path fill="none" stroke="#63b8ff" d="M405.05,-167.59C414.65,-159.85 428.5,-148.69 439.94,-139.47"/>
<polygon fill="#63b8ff" stroke="#63b8ff" points="442.07,-142.25 447.66,-133.25 437.68,-136.8 442.07,-142.25"/>
</a>
</g>
</g>
<!-- Node17 -->
<g id="Node000017" class="node">
<title>Node17</title>
<g id="a_Node000017"><a xlink:title=" ">
<polygon fill="#e0e0e0" stroke="#999999" points="353.75,-132 319,-132 319,-112 353.75,-112 353.75,-132"/>
<text xml:space="preserve" text-anchor="middle" x="336.38" y="-118.5" font-family="Helvetica,sans-Serif" font-size="10.00">map</text>
</a>
</g>
</g>
<!-- Node16&#45;&gt;Node17 -->
<g id="edge24_Node000016_Node000017" class="edge">
<title>Node16&#45;&gt;Node17</title>
<g id="a_edge24_Node000016_Node000017"><a xlink:title=" ">
<path fill="none" stroke="#63b8ff" d="M383.45,-167.59C375.44,-160.01 363.96,-149.13 354.34,-140.02"/>
<polygon fill="#63b8ff" stroke="#63b8ff" points="356.96,-137.68 347.29,-133.34 352.14,-142.76 356.96,-137.68"/>
</a>
</g>
</g>
<!-- Node18&#45;&gt;Node7 -->
<g id="edge27_Node000018_Node000007" class="edge">
<title>Node18&#45;&gt;Node7</title>
<g id="a_edge27_Node000018_Node000007"><a xlink:title=" ">
<path fill="none" stroke="#63b8ff" d="M219.37,-59.82C319.03,-49.29 543.87,-25.53 638.32,-15.55"/>
<polygon fill="#63b8ff" stroke="#63b8ff" points="638.62,-19.04 648.19,-14.51 637.88,-12.08 638.62,-19.04"/>
</a>
</g>
</g>
<!-- Node19&#45;&gt;Node7 -->
<g id="edge29_Node000019_Node000007" class="edge">
<title>Node19&#45;&gt;Node7</title>
<g id="a_edge29_Node000019_Node000007"><a xlink:title=" ">
<path fill="none" stroke="#63b8ff" d="M681.38,-111.62C681.38,-94.01 681.38,-55.59 681.38,-31.65"/>
<polygon fill="#63b8ff" stroke="#63b8ff" points="684.88,-31.87 681.38,-21.87 677.88,-31.87 684.88,-31.87"/>
</a>
</g>
</g>
<!-- Node20&#45;&gt;Node19 -->
<g id="edge31_Node000020_Node000019" class="edge">
<title>Node20&#45;&gt;Node19</title>
<g id="a_edge31_Node000020_Node000019"><a xlink:title=" ">
<path fill="none" stroke="#63b8ff" d="M690.46,-167.59C689.1,-160.93 687.23,-151.75 685.54,-143.44"/>
<polygon fill="#63b8ff" stroke="#63b8ff" points="689,-142.88 683.57,-133.78 682.14,-144.28 689,-142.88"/>
</a>
</g>
</g>
<!-- Node20&#45;&gt;Node21 -->
<g id="edge32_Node000020_Node000021" class="edge">
<title>Node20&#45;&gt;Node21</title>
<g id="a_edge32_Node000020_Node000021"><a xlink:title=" ">
<path fill="none" stroke="#63b8ff" d="M711.19,-167.59C727.73,-159.32 752.09,-147.14 771.17,-137.6"/>
<polygon fill="#63b8ff" stroke="#63b8ff" points="772.68,-140.76 780.06,-133.16 769.55,-134.5 772.68,-140.76"/>
</a>
</g>
</g>
<!-- Node21&#45;&gt;Node12 -->
<g id="edge33_Node000021_Node000012" class="edge">
<title>Node21&#45;&gt;Node12</title>
<g id="a_edge33_Node000021_Node000012"><a xlink:title=" ">
<path fill="none" stroke="#63b8ff" d="M814.31,-111.59C826.05,-103.67 843.11,-92.16 856.94,-82.82"/>
<polygon fill="#63b8ff" stroke="#63b8ff" points="858.75,-85.82 865.08,-77.33 854.83,-80.02 858.75,-85.82"/>
</a>
</g>
</g>
<!-- Node22 -->
<g id="Node000022" class="node">
<title>Node22</title>
<g id="a_Node000022"><a xlink:title=" ">
<polygon fill="#e0e0e0" stroke="#999999" points="830.88,-76 751.88,-76 751.88,-56 830.88,-56 830.88,-76"/>
<text xml:space="preserve" text-anchor="middle" x="791.38" y="-62.5" font-family="Helvetica,sans-Serif" font-size="10.00">DirectXmath.h</text>
</a>
</g>
</g>
<!-- Node21&#45;&gt;Node22 -->
<g id="edge34_Node000021_Node000022" class="edge">
<title>Node21&#45;&gt;Node22</title>
<g id="a_edge34_Node000021_Node000022"><a xlink:title=" ">
<path fill="none" stroke="#63b8ff" d="M798.81,-111.59C797.7,-104.93 796.17,-95.75 794.78,-87.44"/>
<polygon fill="#63b8ff" stroke="#63b8ff" points="798.27,-87.08 793.17,-77.79 791.37,-88.23 798.27,-87.08"/>
</a>
</g>
</g>
<!-- Node23&#45;&gt;Node6 -->
<g id="edge37_Node000023_Node000006" class="edge">
<title>Node23&#45;&gt;Node6</title>
<g id="a_edge37_Node000023_Node000006"><a xlink:title=" ">
<path fill="none" stroke="#63b8ff" d="M879.63,-187.16C878.2,-187.45 876.77,-187.73 875.38,-188 783.84,-205.61 674.61,-221.7 619.88,-228.95"/>
<polygon fill="#63b8ff" stroke="#63b8ff" points="619.7,-225.44 610.24,-230.21 620.6,-232.39 619.7,-225.44"/>
</a>
</g>
</g>
<!-- Node23&#45;&gt;Node13 -->
<g id="edge38_Node000023_Node000013" class="edge">
<title>Node23&#45;&gt;Node13</title>
<g id="a_edge38_Node000023_Node000013"><a xlink:title=" ">
<path fill="none" stroke="#63b8ff" d="M908.3,-167.6C913.65,-141.46 928.81,-67.48 936.21,-31.36"/>
<polygon fill="#63b8ff" stroke="#63b8ff" points="939.59,-32.28 938.17,-21.78 932.73,-30.87 939.59,-32.28"/>
</a>
</g>
</g>
<!-- Node24&#45;&gt;Node6 -->
<g id="edge40_Node000024_Node000006" class="edge">
<title>Node24&#45;&gt;Node6</title>
<g id="a_edge40_Node000024_Node000006"><a xlink:title=" ">
<path fill="none" stroke="#63b8ff" d="M950.77,-187.93C950.64,-187.95 950.51,-187.98 950.38,-188 830.12,-210.15 684.99,-224.79 619.76,-230.41"/>
<polygon fill="#63b8ff" stroke="#63b8ff" points="619.72,-226.9 610.05,-231.23 620.31,-233.88 619.72,-226.9"/>
</a>
</g>
</g>
<!-- Node24&#45;&gt;Node13 -->
<g id="edge41_Node000024_Node000013" class="edge">
<title>Node24&#45;&gt;Node13</title>
<g id="a_edge41_Node000024_Node000013"><a xlink:title=" ">
<path fill="none" stroke="#63b8ff" d="M976.22,-167.6C970.24,-141.46 953.31,-67.48 945.04,-31.36"/>
<polygon fill="#63b8ff" stroke="#63b8ff" points="948.48,-30.74 942.84,-21.77 941.66,-32.3 948.48,-30.74"/>
</a>
</g>
</g>
</g>
</svg>
