<?xml version="1.0" encoding="UTF-8" standalone="no"?>
<!DOCTYPE svg PUBLIC "-//W3C//DTD SVG 1.1//EN"
 "http://www.w3.org/Graphics/SVG/1.1/DTD/svg11.dtd">
<!-- Generated by graphviz version 13.1.2 (20250808.2320)
 -->
<!-- Title: Yena/Yena.h Pages: 1 -->
<svg width="853pt" height="252pt"
 viewBox="0.00 0.00 853.00 252.00" xmlns="http://www.w3.org/2000/svg" xmlns:xlink="http://www.w3.org/1999/xlink">
<g id="graph0" class="graph" transform="scale(1 1) rotate(0) translate(4 248)">
<title>Yena/Yena.h</title>
<!-- Node1 -->
<g id="Node000001" class="node">
<title>Node1</title>
<g id="a_Node000001"><a xlink:title="Yena SWR 기본 헤더 파일 (v1.x)">
<polygon fill="#999999" stroke="#666666" points="502.95,-244 432.2,-244 432.2,-224 502.95,-224 502.95,-244"/>
<text xml:space="preserve" text-anchor="middle" x="467.57" y="-230.5" font-family="Helvetica,sans-Serif" font-size="10.00">Yena/Yena.h</text>
</a>
</g>
</g>
<!-- Node2 -->
<g id="Node000002" class="node">
<title>Node2</title>
<g id="a_Node000002"><a xlink:title=" ">
<polygon fill="#e0e0e0" stroke="#999999" points="470.82,-20 408.32,-20 408.32,0 470.82,0 470.82,-20"/>
<text xml:space="preserve" text-anchor="middle" x="439.57" y="-6.5" font-family="Helvetica,sans-Serif" font-size="10.00">windows.h</text>
</a>
</g>
</g>
<!-- Node1&#45;&gt;Node2 -->
<g id="edge1_Node000001_Node000002" class="edge">
<title>Node1&#45;&gt;Node2</title>
<g id="a_edge1_Node000001_Node000002"><a xlink:title=" ">
<path fill="none" stroke="#63b8ff" d="M431.76,-233.85C363.63,-234.36 211.55,-230.16 92.57,-188 48.52,-172.39 26.16,-172.91 3.57,-132 -36.08,-60.2 279.08,-25.02 396.58,-14.5"/>
<polygon fill="#63b8ff" stroke="#63b8ff" points="396.8,-17.99 406.45,-13.63 396.18,-11.02 396.8,-17.99"/>
</a>
</g>
</g>
<!-- Node3 -->
<g id="Node000003" class="node">
<title>Node3</title>
<g id="a_Node000003"><a xlink:title=" ">
<polygon fill="#e0e0e0" stroke="#999999" points="58.57,-132 12.57,-132 12.57,-112 58.57,-112 58.57,-132"/>
<text xml:space="preserve" text-anchor="middle" x="35.57" y="-118.5" font-family="Helvetica,sans-Serif" font-size="10.00">tchar.h</text>
</a>
</g>
</g>
<!-- Node1&#45;&gt;Node3 -->
<g id="edge2_Node000001_Node000003" class="edge">
<title>Node1&#45;&gt;Node3</title>
<g id="a_edge2_Node000001_Node000003"><a xlink:title=" ">
<path fill="none" stroke="#63b8ff" d="M431.81,-233.29C369.44,-232.7 237.58,-226.5 134.57,-188 104.39,-176.72 74.07,-154.9 55.08,-139.67"/>
<polygon fill="#63b8ff" stroke="#63b8ff" points="57.36,-137.01 47.42,-133.35 52.91,-142.41 57.36,-137.01"/>
</a>
</g>
</g>
<!-- Node4 -->
<g id="Node000004" class="node">
<title>Node4</title>
<g id="a_Node000004"><a xlink:title=" ">
<polygon fill="#e0e0e0" stroke="#999999" points="122.57,-132 76.57,-132 76.57,-112 122.57,-112 122.57,-132"/>
<text xml:space="preserve" text-anchor="middle" x="99.57" y="-118.5" font-family="Helvetica,sans-Serif" font-size="10.00">math.h</text>
</a>
</g>
</g>
<!-- Node1&#45;&gt;Node4 -->
<g id="edge3_Node000001_Node000004" class="edge">
<title>Node1&#45;&gt;Node4</title>
<g id="a_edge3_Node000001_Node000004"><a xlink:title=" ">
<path fill="none" stroke="#63b8ff" d="M431.91,-230.46C362.45,-225.07 211.76,-211.05 165.57,-188 143.85,-177.16 124.8,-156.51 112.82,-141.38"/>
<polygon fill="#63b8ff" stroke="#63b8ff" points="115.76,-139.46 106.93,-133.6 110.18,-143.69 115.76,-139.46"/>
</a>
</g>
</g>
<!-- Node5 -->
<g id="Node000005" class="node">
<title>Node5</title>
<g id="a_Node000005"><a xlink:title=" ">
<polygon fill="#e0e0e0" stroke="#999999" points="186.2,-132 140.95,-132 140.95,-112 186.2,-112 186.2,-132"/>
<text xml:space="preserve" text-anchor="middle" x="163.57" y="-118.5" font-family="Helvetica,sans-Serif" font-size="10.00">stdio.h</text>
</a>
</g>
</g>
<!-- Node1&#45;&gt;Node5 -->
<g id="edge4_Node000001_Node000005" class="edge">
<title>Node1&#45;&gt;Node5</title>
<g id="a_edge4_Node000001_Node000005"><a xlink:title=" ">
<path fill="none" stroke="#63b8ff" d="M431.94,-232.01C363.91,-229.39 219.05,-220.09 182.57,-188 170.01,-176.95 165.54,-158.1 164.05,-143.53"/>
<polygon fill="#63b8ff" stroke="#63b8ff" points="167.55,-143.43 163.47,-133.65 160.56,-143.84 167.55,-143.43"/>
</a>
</g>
</g>
<!-- Node6 -->
<g id="Node000006" class="node">
<title>Node6</title>
<g id="a_Node000006"><a xlink:title=" ">
<polygon fill="#e0e0e0" stroke="#999999" points="231.57,-188 191.57,-188 191.57,-168 231.57,-168 231.57,-188"/>
<text xml:space="preserve" text-anchor="middle" x="211.57" y="-174.5" font-family="Helvetica,sans-Serif" font-size="10.00">string</text>
</a>
</g>
</g>
<!-- Node1&#45;&gt;Node6 -->
<g id="edge5_Node000001_Node000006" class="edge">
<title>Node1&#45;&gt;Node6</title>
<g id="a_edge5_Node000001_Node000006"><a xlink:title=" ">
<path fill="none" stroke="#63b8ff" d="M431.92,-227.13C389.19,-219.83 315.23,-206.38 242.9,-188.38"/>
<polygon fill="#63b8ff" stroke="#63b8ff" points="243.8,-184.99 233.24,-185.94 242.08,-191.78 243.8,-184.99"/>
</a>
</g>
</g>
<!-- Node7 -->
<g id="Node000007" class="node">
<title>Node7</title>
<g id="a_Node000007"><a xlink:title=" ">
<polygon fill="#e0e0e0" stroke="#999999" points="338.07,-132 295.07,-132 295.07,-112 338.07,-112 338.07,-132"/>
<text xml:space="preserve" text-anchor="middle" x="316.57" y="-118.5" font-family="Helvetica,sans-Serif" font-size="10.00">vector</text>
</a>
</g>
</g>
<!-- Node1&#45;&gt;Node7 -->
<g id="edge6_Node000001_Node000007" class="edge">
<title>Node1&#45;&gt;Node7</title>
<g id="a_edge6_Node000001_Node000007"><a xlink:title=" ">
<path fill="none" stroke="#63b8ff" d="M454.7,-223.62C428.84,-204.79 370.36,-162.18 338.41,-138.91"/>
<polygon fill="#63b8ff" stroke="#63b8ff" points="340.78,-136.31 330.64,-133.25 336.66,-141.96 340.78,-136.31"/>
</a>
</g>
</g>
<!-- Node8 -->
<g id="Node000008" class="node">
<title>Node8</title>
<g id="a_Node000008"><a xlink:title=" ">
<polygon fill="#e0e0e0" stroke="#999999" points="411.45,-132 355.7,-132 355.7,-112 411.45,-112 411.45,-132"/>
<text xml:space="preserve" text-anchor="middle" x="383.57" y="-118.5" font-family="Helvetica,sans-Serif" font-size="10.00">algorithm</text>
</a>
</g>
</g>
<!-- Node1&#45;&gt;Node8 -->
<g id="edge7_Node000001_Node000008" class="edge">
<title>Node1&#45;&gt;Node8</title>
<g id="a_edge7_Node000001_Node000008"><a xlink:title=" ">
<path fill="none" stroke="#63b8ff" d="M458.04,-223.78C449.18,-214.98 435.82,-201.15 425.57,-188 414.08,-173.27 402.68,-155.36 394.66,-142.07"/>
<polygon fill="#63b8ff" stroke="#63b8ff" points="397.68,-140.29 389.57,-133.48 391.65,-143.86 397.68,-140.29"/>
</a>
</g>
</g>
<!-- Node9 -->
<g id="Node000009" class="node">
<title>Node9</title>
<g id="a_Node000009"><a xlink:href="a00092.html" target="_top" xlink:title="Yena SWR 엔진 기본 정의 문서.">
<polygon fill="white" stroke="#666666" points="736.2,-76 672.95,-76 672.95,-56 736.2,-56 736.2,-76"/>
<text xml:space="preserve" text-anchor="middle" x="704.57" y="-62.5" font-family="Helvetica,sans-Serif" font-size="10.00">ynDefine.h</text>
</a>
</g>
</g>
<!-- Node1&#45;&gt;Node9 -->
<g id="edge8_Node000001_Node000009" class="edge">
<title>Node1&#45;&gt;Node9</title>
<g id="a_edge8_Node000001_Node000009"><a xlink:title=" ">
<path fill="none" stroke="#63b8ff" d="M503.38,-231.69C543.51,-228.67 609.04,-218.94 655.57,-188 681.26,-170.92 685.21,-160.68 696.57,-132 702.22,-117.74 704.14,-100.46 704.69,-87.3"/>
<polygon fill="#63b8ff" stroke="#63b8ff" points="708.18,-87.76 704.85,-77.7 701.18,-87.64 708.18,-87.76"/>
</a>
</g>
</g>
<!-- Node11 -->
<g id="Node000011" class="node">
<title>Node11</title>
<g id="a_Node000011"><a xlink:href="a00098.html" target="_top" xlink:title="에러, 예외 및 로그 처리 헤더 파일">
<polygon fill="white" stroke="#666666" points="523.45,-188 467.7,-188 467.7,-168 523.45,-168 523.45,-188"/>
<text xml:space="preserve" text-anchor="middle" x="495.57" y="-174.5" font-family="Helvetica,sans-Serif" font-size="10.00">ynError.h</text>
</a>
</g>
</g>
<!-- Node1&#45;&gt;Node11 -->
<g id="edge11_Node000001_Node000011" class="edge">
<title>Node1&#45;&gt;Node11</title>
<g id="a_edge11_Node000001_Node000011"><a xlink:title=" ">
<path fill="none" stroke="#63b8ff" d="M472.45,-223.59C476.06,-216.63 481.11,-206.89 485.57,-198.29"/>
<polygon fill="#63b8ff" stroke="#63b8ff" points="488.56,-200.13 490.05,-189.64 482.34,-196.91 488.56,-200.13"/>
</a>
</g>
</g>
<!-- Node13 -->
<g id="Node000013" class="node">
<title>Node13</title>
<g id="a_Node000013"><a xlink:href="a00110.html" target="_top" xlink:title="Yena SWR COM / GUID 헤더">
<polygon fill="white" stroke="#666666" points="309.7,-188 249.45,-188 249.45,-168 309.7,-168 309.7,-188"/>
<text xml:space="preserve" text-anchor="middle" x="279.57" y="-174.5" font-family="Helvetica,sans-Serif" font-size="10.00">ynGUID.h</text>
</a>
</g>
</g>
<!-- Node1&#45;&gt;Node13 -->
<g id="edge13_Node000001_Node000013" class="edge">
<title>Node1&#45;&gt;Node13</title>
<g id="a_edge13_Node000001_Node000013"><a xlink:title=" ">
<path fill="none" stroke="#63b8ff" d="M434.82,-223.59C403.25,-214.53 355.36,-200.77 321.12,-190.93"/>
<polygon fill="#63b8ff" stroke="#63b8ff" points="322.11,-187.58 311.53,-188.18 320.18,-194.3 322.11,-187.58"/>
</a>
</g>
</g>
<!-- Node15 -->
<g id="Node000015" class="node">
<title>Node15</title>
<g id="a_Node000015"><a xlink:href="a00122.html" target="_top" xlink:title="Yena SWR COM 기반 헤더 (v2.x)">
<polygon fill="white" stroke="#666666" points="488.07,-76 391.07,-76 391.07,-56 488.07,-56 488.07,-76"/>
<text xml:space="preserve" text-anchor="middle" x="439.57" y="-62.5" font-family="Helvetica,sans-Serif" font-size="10.00">ynUnknownbase.h</text>
</a>
</g>
</g>
<!-- Node1&#45;&gt;Node15 -->
<g id="edge21_Node000001_Node000015" class="edge">
<title>Node1&#45;&gt;Node15</title>
<g id="a_edge21_Node000001_Node000015"><a xlink:title=" ">
<path fill="none" stroke="#63b8ff" d="M465.6,-223.71C463.69,-214.63 460.78,-200.39 458.57,-188 452.3,-152.87 446.09,-111.79 442.55,-87.67"/>
<polygon fill="#63b8ff" stroke="#63b8ff" points="446.04,-87.33 441.13,-77.93 439.11,-88.33 446.04,-87.33"/>
</a>
</g>
</g>
<!-- Node16 -->
<g id="Node000016" class="node">
<title>Node16</title>
<g id="a_Node000016"><a xlink:href="a00128.html" target="_top" xlink:title="Yena SW 엔진 자료형 정의 : DX9 (d3d9types.h) 대응">
<polygon fill="white" stroke="#666666" points="613.2,-132 543.95,-132 543.95,-112 613.2,-112 613.2,-132"/>
<text xml:space="preserve" text-anchor="middle" x="578.57" y="-118.5" font-family="Helvetica,sans-Serif" font-size="10.00">ynx9types.h</text>
</a>
</g>
</g>
<!-- Node1&#45;&gt;Node16 -->
<g id="edge23_Node000001_Node000016" class="edge">
<title>Node1&#45;&gt;Node16</title>
<g id="a_edge23_Node000001_Node000016"><a xlink:title=" ">
<path fill="none" stroke="#63b8ff" d="M484.53,-223.53C498.4,-215.27 518.04,-202.39 532.57,-188 546.53,-174.19 559.16,-155.69 567.64,-141.96"/>
<polygon fill="#63b8ff" stroke="#63b8ff" points="570.59,-143.84 572.72,-133.46 564.58,-140.25 570.59,-143.84"/>
</a>
</g>
</g>
<!-- Node17 -->
<g id="Node000017" class="node">
<title>Node17</title>
<g id="a_Node000017"><a xlink:href="a00125.html" target="_top" xlink:title="Yena SWR 인터페이스 헤더 : DX9 (d3d9.h) 대응">
<polygon fill="white" stroke="#666666" points="625.2,-188 579.95,-188 579.95,-168 625.2,-168 625.2,-188"/>
<text xml:space="preserve" text-anchor="middle" x="602.57" y="-174.5" font-family="Helvetica,sans-Serif" font-size="10.00">ynx9.h</text>
</a>
</g>
</g>
<!-- Node1&#45;&gt;Node17 -->
<g id="edge25_Node000001_Node000017" class="edge">
<title>Node1&#45;&gt;Node17</title>
<g id="a_edge25_Node000001_Node000017"><a xlink:title=" ">
<path fill="none" stroke="#63b8ff" d="M491.09,-223.59C512.7,-214.95 544.98,-202.03 569.25,-192.33"/>
<polygon fill="#63b8ff" stroke="#63b8ff" points="570.38,-195.64 578.37,-188.68 567.78,-189.14 570.38,-195.64"/>
</a>
</g>
</g>
<!-- Node18 -->
<g id="Node000018" class="node">
<title>Node18</title>
<g id="a_Node000018"><a xlink:href="a00116.html" target="_top" xlink:title="\u{2b50} Yena 수학 라이브러리 Yena Math Library for DirectX / OpenGL">
<polygon fill="white" stroke="#666666" points="687.82,-132 631.32,-132 631.32,-112 687.82,-112 687.82,-132"/>
<text xml:space="preserve" text-anchor="middle" x="659.57" y="-118.5" font-family="Helvetica,sans-Serif" font-size="10.00">ynMath.h</text>
</a>
</g>
</g>
<!-- Node1&#45;&gt;Node18 -->
<g id="edge30_Node000001_Node000018" class="edge">
<title>Node1&#45;&gt;Node18</title>
<g id="a_edge30_Node000001_Node000018"><a xlink:title=" ">
<path fill="none" stroke="#63b8ff" d="M503.28,-232.47C540.45,-230.05 598.21,-220.76 634.57,-188 647.21,-176.61 653.51,-158.09 656.62,-143.73"/>
<polygon fill="#63b8ff" stroke="#63b8ff" points="660.05,-144.41 658.35,-133.95 653.16,-143.19 660.05,-144.41"/>
</a>
</g>
</g>
<!-- Node20 -->
<g id="Node000020" class="node">
<title>Node20</title>
<g id="a_Node000020"><a xlink:href="a00104.html" target="_top" xlink:title="그리드 클래스 헤더.">
<polygon fill="white" stroke="#666666" points="771.95,-188 719.2,-188 719.2,-168 771.95,-168 771.95,-188"/>
<text xml:space="preserve" text-anchor="middle" x="745.57" y="-174.5" font-family="Helvetica,sans-Serif" font-size="10.00">ynGrid.h</text>
</a>
</g>
</g>
<!-- Node1&#45;&gt;Node20 -->
<g id="edge31_Node000001_Node000020" class="edge">
<title>Node1&#45;&gt;Node20</title>
<g id="a_edge31_Node000001_Node000020"><a xlink:title=" ">
<path fill="none" stroke="#63b8ff" d="M503.24,-225.47C548.44,-216.87 628.21,-202.15 696.57,-188 700.13,-187.26 703.85,-186.46 707.61,-185.66"/>
<polygon fill="#63b8ff" stroke="#63b8ff" points="708.32,-189.08 717.37,-183.57 706.86,-182.24 708.32,-189.08"/>
</a>
</g>
</g>
<!-- Node21 -->
<g id="Node000021" class="node">
<title>Node21</title>
<g id="a_Node000021"><a xlink:href="a00074.html" target="_top" xlink:title="공간축 클래스 헤더.">
<polygon fill="white" stroke="#666666" points="844.7,-188 790.45,-188 790.45,-168 844.7,-168 844.7,-188"/>
<text xml:space="preserve" text-anchor="middle" x="817.57" y="-174.5" font-family="Helvetica,sans-Serif" font-size="10.00">ynAxis.h</text>
</a>
</g>
</g>
<!-- Node1&#45;&gt;Node21 -->
<g id="edge34_Node000001_Node000021" class="edge">
<title>Node1&#45;&gt;Node21</title>
<g id="a_edge34_Node000001_Node000021"><a xlink:title=" ">
<path fill="none" stroke="#63b8ff" d="M503.38,-228.29C560.5,-221.21 675.08,-206.63 771.57,-188 774,-187.53 776.5,-187.01 779.04,-186.46"/>
<polygon fill="#63b8ff" stroke="#63b8ff" points="779.78,-189.88 788.77,-184.26 778.24,-183.05 779.78,-189.88"/>
</a>
</g>
</g>
<!-- Node9&#45;&gt;Node2 -->
<g id="edge9_Node000009_Node000002" class="edge">
<title>Node9&#45;&gt;Node2</title>
<g id="a_edge9_Node000009_Node000002"><a xlink:title=" ">
<path fill="none" stroke="#63b8ff" d="M672.71,-57.76C669.96,-57.16 667.22,-56.56 664.57,-56 601.3,-42.56 527.78,-28.06 482.46,-19.26"/>
<polygon fill="#63b8ff" stroke="#63b8ff" points="483.26,-15.85 472.78,-17.38 481.93,-22.72 483.26,-15.85"/>
</a>
</g>
</g>
<!-- Node10 -->
<g id="Node000010" class="node">
<title>Node10</title>
<g id="a_Node000010"><a xlink:title=" ">
<polygon fill="#e0e0e0" stroke="#999999" points="790.2,-20 738.95,-20 738.95,0 790.2,0 790.2,-20"/>
<text xml:space="preserve" text-anchor="middle" x="764.57" y="-6.5" font-family="Helvetica,sans-Serif" font-size="10.00">assert.h</text>
</a>
</g>
</g>
<!-- Node9&#45;&gt;Node10 -->
<g id="edge10_Node000009_Node000010" class="edge">
<title>Node9&#45;&gt;Node10</title>
<g id="a_edge10_Node000009_Node000010"><a xlink:title=" ">
<path fill="none" stroke="#63b8ff" d="M715.02,-55.59C723.54,-47.93 735.78,-36.91 745.96,-27.75"/>
<polygon fill="#63b8ff" stroke="#63b8ff" points="748.02,-30.6 753.11,-21.31 743.34,-25.4 748.02,-30.6"/>
</a>
</g>
</g>
<!-- Node12 -->
<g id="Node000012" class="node">
<title>Node12</title>
<g id="a_Node000012"><a xlink:title=" ">
<polygon fill="#e0e0e0" stroke="#999999" points="525.57,-132 467.57,-132 467.57,-112 525.57,-112 525.57,-132"/>
<text xml:space="preserve" text-anchor="middle" x="496.57" y="-118.5" font-family="Helvetica,sans-Serif" font-size="10.00">exception</text>
</a>
</g>
</g>
<!-- Node11&#45;&gt;Node12 -->
<g id="edge12_Node000011_Node000012" class="edge">
<title>Node11&#45;&gt;Node12</title>
<g id="a_edge12_Node000011_Node000012"><a xlink:title=" ">
<path fill="none" stroke="#63b8ff" d="M495.74,-167.59C495.87,-161.01 496.03,-151.96 496.19,-143.73"/>
<polygon fill="#63b8ff" stroke="#63b8ff" points="499.68,-143.87 496.37,-133.81 492.69,-143.75 499.68,-143.87"/>
</a>
</g>
</g>
<!-- Node13&#45;&gt;Node2 -->
<g id="edge14_Node000013_Node000002" class="edge">
<title>Node13&#45;&gt;Node2</title>
<g id="a_edge14_Node000013_Node000002"><a xlink:title=" ">
<path fill="none" stroke="#63b8ff" d="M264.52,-167.55C246.67,-155.11 220.84,-132.41 233.57,-112 269.17,-54.89 347.51,-29.17 396.67,-18.28"/>
<polygon fill="#63b8ff" stroke="#63b8ff" points="397.33,-21.72 406.41,-16.25 395.9,-14.87 397.33,-21.72"/>
</a>
</g>
</g>
<!-- Node13&#45;&gt;Node3 -->
<g id="edge15_Node000013_Node000003" class="edge">
<title>Node13&#45;&gt;Node3</title>
<g id="a_edge15_Node000013_Node000003"><a xlink:title=" ">
<path fill="none" stroke="#63b8ff" d="M249.35,-169.96C246.39,-169.29 243.42,-168.63 240.57,-168 167.31,-151.93 145.77,-150.72 70,-132.47"/>
<polygon fill="#63b8ff" stroke="#63b8ff" points="70.95,-129.1 60.41,-130.13 69.3,-135.9 70.95,-129.1"/>
</a>
</g>
</g>
<!-- Node13&#45;&gt;Node4 -->
<g id="edge16_Node000013_Node000004" class="edge">
<title>Node13&#45;&gt;Node4</title>
<g id="a_edge16_Node000013_Node000004"><a xlink:title=" ">
<path fill="none" stroke="#63b8ff" d="M249.04,-167.84C217.18,-158.28 167.35,-143.33 134.09,-133.35"/>
<polygon fill="#63b8ff" stroke="#63b8ff" points="135.1,-130.01 124.52,-130.48 133.09,-136.71 135.1,-130.01"/>
</a>
</g>
</g>
<!-- Node13&#45;&gt;Node5 -->
<g id="edge17_Node000013_Node000005" class="edge">
<title>Node13&#45;&gt;Node5</title>
<g id="a_edge17_Node000013_Node000005"><a xlink:title=" ">
<path fill="none" stroke="#63b8ff" d="M259.37,-167.59C241.34,-159.21 214.7,-146.8 194.09,-137.21"/>
<polygon fill="#63b8ff" stroke="#63b8ff" points="195.85,-134.17 185.31,-133.12 192.89,-140.51 195.85,-134.17"/>
</a>
</g>
</g>
<!-- Node13&#45;&gt;Node7 -->
<g id="edge18_Node000013_Node000007" class="edge">
<title>Node13&#45;&gt;Node7</title>
<g id="a_edge18_Node000013_Node000007"><a xlink:title=" ">
<path fill="none" stroke="#63b8ff" d="M286.02,-167.59C290.9,-160.47 297.76,-150.45 303.75,-141.72"/>
<polygon fill="#63b8ff" stroke="#63b8ff" points="306.58,-143.77 309.34,-133.55 300.8,-139.82 306.58,-143.77"/>
</a>
</g>
</g>
<!-- Node13&#45;&gt;Node8 -->
<g id="edge20_Node000013_Node000008" class="edge">
<title>Node13&#45;&gt;Node8</title>
<g id="a_edge20_Node000013_Node000008"><a xlink:title=" ">
<path fill="none" stroke="#63b8ff" d="M297.69,-167.59C313.55,-159.36 336.85,-147.26 355.19,-137.74"/>
<polygon fill="#63b8ff" stroke="#63b8ff" points="356.71,-140.89 363.97,-133.18 353.48,-134.68 356.71,-140.89"/>
</a>
</g>
</g>
<!-- Node14 -->
<g id="Node000014" class="node">
<title>Node14</title>
<g id="a_Node000014"><a xlink:title=" ">
<polygon fill="#e0e0e0" stroke="#999999" points="276.95,-132 242.2,-132 242.2,-112 276.95,-112 276.95,-132"/>
<text xml:space="preserve" text-anchor="middle" x="259.57" y="-118.5" font-family="Helvetica,sans-Serif" font-size="10.00">map</text>
</a>
</g>
</g>
<!-- Node13&#45;&gt;Node14 -->
<g id="edge19_Node000013_Node000014" class="edge">
<title>Node13&#45;&gt;Node14</title>
<g id="a_edge19_Node000013_Node000014"><a xlink:title=" ">
<path fill="none" stroke="#63b8ff" d="M276.09,-167.59C273.56,-160.78 270.06,-151.32 266.93,-142.86"/>
<polygon fill="#63b8ff" stroke="#63b8ff" points="270.3,-141.88 263.54,-133.72 263.73,-144.31 270.3,-141.88"/>
</a>
</g>
</g>
<!-- Node15&#45;&gt;Node2 -->
<g id="edge22_Node000015_Node000002" class="edge">
<title>Node15&#45;&gt;Node2</title>
<g id="a_edge22_Node000015_Node000002"><a xlink:title=" ">
<path fill="none" stroke="#63b8ff" d="M439.57,-55.59C439.57,-49.01 439.57,-39.96 439.57,-31.73"/>
<polygon fill="#63b8ff" stroke="#63b8ff" points="443.07,-31.81 439.57,-21.81 436.07,-31.81 443.07,-31.81"/>
</a>
</g>
</g>
<!-- Node16&#45;&gt;Node2 -->
<g id="edge24_Node000016_Node000002" class="edge">
<title>Node16&#45;&gt;Node2</title>
<g id="a_edge24_Node000016_Node000002"><a xlink:title=" ">
<path fill="none" stroke="#63b8ff" d="M567.08,-111.68C551.43,-99.01 522.48,-75.66 497.57,-56 485.34,-46.35 471.57,-35.66 460.52,-27.12"/>
<polygon fill="#63b8ff" stroke="#63b8ff" points="462.87,-24.51 452.81,-21.18 458.59,-30.05 462.87,-24.51"/>
</a>
</g>
</g>
<!-- Node17&#45;&gt;Node16 -->
<g id="edge26_Node000017_Node000016" class="edge">
<title>Node17&#45;&gt;Node16</title>
<g id="a_edge26_Node000017_Node000016"><a xlink:title=" ">
<path fill="none" stroke="#63b8ff" d="M598.39,-167.59C595.33,-160.7 591.06,-151.1 587.27,-142.57"/>
<polygon fill="#63b8ff" stroke="#63b8ff" points="590.58,-141.4 583.32,-133.68 584.18,-144.24 590.58,-141.4"/>
</a>
</g>
</g>
<!-- Node17&#45;&gt;Node18 -->
<g id="edge27_Node000017_Node000018" class="edge">
<title>Node17&#45;&gt;Node18</title>
<g id="a_edge27_Node000017_Node000018"><a xlink:title=" ">
<path fill="none" stroke="#63b8ff" d="M612.5,-167.59C620.51,-160.01 631.99,-149.13 641.6,-140.02"/>
<polygon fill="#63b8ff" stroke="#63b8ff" points="643.8,-142.76 648.66,-133.34 638.99,-137.68 643.8,-142.76"/>
</a>
</g>
</g>
<!-- Node18&#45;&gt;Node9 -->
<g id="edge28_Node000018_Node000009" class="edge">
<title>Node18&#45;&gt;Node9</title>
<g id="a_edge28_Node000018_Node000009"><a xlink:title=" ">
<path fill="none" stroke="#63b8ff" d="M667.41,-111.59C673.54,-104.24 682.24,-93.8 689.68,-84.87"/>
<polygon fill="#63b8ff" stroke="#63b8ff" points="692.14,-87.38 695.85,-77.46 686.76,-82.9 692.14,-87.38"/>
</a>
</g>
</g>
<!-- Node19 -->
<g id="Node000019" class="node">
<title>Node19</title>
<g id="a_Node000019"><a xlink:title=" ">
<polygon fill="#e0e0e0" stroke="#999999" points="655.07,-76 576.07,-76 576.07,-56 655.07,-56 655.07,-76"/>
<text xml:space="preserve" text-anchor="middle" x="615.57" y="-62.5" font-family="Helvetica,sans-Serif" font-size="10.00">DirectXmath.h</text>
</a>
</g>
</g>
<!-- Node18&#45;&gt;Node19 -->
<g id="edge29_Node000018_Node000019" class="edge">
<title>Node18&#45;&gt;Node19</title>
<g id="a_edge29_Node000018_Node000019"><a xlink:title=" ">
<path fill="none" stroke="#63b8ff" d="M651.91,-111.59C645.98,-104.32 637.58,-94.02 630.36,-85.15"/>
<polygon fill="#63b8ff" stroke="#63b8ff" points="633.13,-83.01 624.1,-77.47 627.71,-87.43 633.13,-83.01"/>
</a>
</g>
</g>
<!-- Node20&#45;&gt;Node1 -->
<g id="edge32_Node000020_Node000001" class="edge">
<title>Node20&#45;&gt;Node1</title>
<g id="a_edge32_Node000020_Node000001"><a xlink:title=" ">
<path fill="none" stroke="#63b8ff" d="M718.81,-187.11C717.39,-187.41 715.96,-187.71 714.57,-188 645.23,-202.35 564.14,-217.29 514.2,-225.84"/>
<polygon fill="#63b8ff" stroke="#63b8ff" points="513.88,-222.34 504.6,-227.46 515.05,-229.24 513.88,-222.34"/>
</a>
</g>
</g>
<!-- Node20&#45;&gt;Node10 -->
<g id="edge33_Node000020_Node000010" class="edge">
<title>Node20&#45;&gt;Node10</title>
<g id="a_edge33_Node000020_Node000010"><a xlink:title=" ">
<path fill="none" stroke="#63b8ff" d="M746.65,-167.6C749.64,-141.46 758.11,-67.48 762.24,-31.36"/>
<polygon fill="#63b8ff" stroke="#63b8ff" points="765.67,-32.13 763.33,-21.8 758.72,-31.34 765.67,-32.13"/>
</a>
</g>
</g>
<!-- Node21&#45;&gt;Node1 -->
<g id="edge35_Node000021_Node000001" class="edge">
<title>Node21&#45;&gt;Node1</title>
<g id="a_edge35_Node000021_Node000001"><a xlink:title=" ">
<path fill="none" stroke="#63b8ff" d="M789.96,-187.92C789.83,-187.95 789.7,-187.97 789.57,-188 692.65,-206.71 577.46,-221.34 514.37,-228.39"/>
<polygon fill="#63b8ff" stroke="#63b8ff" points="514.27,-224.88 504.71,-229.45 515.04,-231.83 514.27,-224.88"/>
</a>
</g>
</g>
<!-- Node21&#45;&gt;Node10 -->
<g id="edge36_Node000021_Node000010" class="edge">
<title>Node21&#45;&gt;Node10</title>
<g id="a_edge36_Node000021_Node000010"><a xlink:title=" ">
<path fill="none" stroke="#63b8ff" d="M814.57,-167.6C806.19,-141.35 782.4,-66.84 770.92,-30.89"/>
<polygon fill="#63b8ff" stroke="#63b8ff" points="774.38,-30.2 768,-21.74 767.71,-32.33 774.38,-30.2"/>
</a>
</g>
</g>
</g>
</svg>
