<?xml version="1.0" encoding="UTF-8" standalone="no"?>
<!DOCTYPE svg PUBLIC "-//W3C//DTD SVG 1.1//EN"
 "http://www.w3.org/Graphics/SVG/1.1/DTD/svg11.dtd">
<!-- Generated by graphviz version 13.1.2 (20250808.2320)
 -->
<!-- Title: DataLoading Pages: 1 -->
<svg width="359pt" height="104pt"
 viewBox="0.00 0.00 359.00 104.00" xmlns="http://www.w3.org/2000/svg" xmlns:xlink="http://www.w3.org/1999/xlink">

<svg id="main" version="1.1" xmlns="http://www.w3.org/2000/svg" xmlns:xlink="http://www.w3.org/1999/xlink" xml:space="preserve">

<style type="text/css"><![CDATA[
.node, .edge {opacity: 0.7;}
.node.selected, .edge.selected {opacity: 1;}
.edge:hover path { stroke: red; }
.edge:hover polygon { stroke: red; fill: red; }
]]></style>
<script type="application/ecmascript" xlink:href="svg.min.js"/>
<svg id="graph" class="graph">
<g id="graph0" class="graph" transform="scale(1 1) rotate(0) translate(4 100)">
<title>DataLoading</title>
<!-- Node1 -->
<g id="Node000001" class="node">
<title>Node1</title>
<g id="a_Node000001"><a xlink:title=" ">
<polygon fill="#999999" stroke="#666666" points="70.75,-58 0,-58 0,-38 70.75,-38 70.75,-58"/>
<text xml:space="preserve" text-anchor="middle" x="35.38" y="-44.5" font-family="Helvetica,sans-Serif" font-size="10.00">DataLoading</text>
</a>
</g>
</g>
<!-- Node2 -->
<g id="Node000002" class="node">
<title>Node2</title>
<g id="a_Node000002"><a xlink:href="a00059_a52c38ded8a84ee0b98b47359e5966b4d.html#a52c38ded8a84ee0b98b47359e5966b4d" target="_top" xlink:title=" ">
<polygon fill="white" stroke="#666666" points="187.25,-96 135.25,-96 135.25,-76 187.25,-76 187.25,-96"/>
<text xml:space="preserve" text-anchor="middle" x="161.25" y="-82.5" font-family="Helvetica,sans-Serif" font-size="10.00">ObjLoad</text>
</a>
</g>
</g>
<!-- Node1&#45;&gt;Node2 -->
<g id="edge1_Node000001_Node000002" class="edge">
<title>Node1&#45;&gt;Node2</title>
<g id="a_edge1_Node000001_Node000002"><a xlink:title=" ">
<path fill="none" stroke="#63b8ff" d="M70.55,-58.48C87.24,-63.6 107.31,-69.76 124.23,-74.95"/>
<polygon fill="#63b8ff" stroke="#63b8ff" points="122.8,-78.17 133.38,-77.76 124.85,-71.48 122.8,-78.17"/>
</a>
</g>
</g>
<!-- Node3 -->
<g id="Node000003" class="node">
<title>Node3</title>
<g id="a_Node000003"><a xlink:href="a00140_gaad9460ee22a8ee275572ea50c92ff61b.html#gaad9460ee22a8ee275572ea50c92ff61b" target="_top" xlink:title=" ">
<polygon fill="white" stroke="#666666" points="215.75,-58 106.75,-58 106.75,-38 215.75,-38 215.75,-58"/>
<text xml:space="preserve" text-anchor="middle" x="161.25" y="-44.5" font-family="Helvetica,sans-Serif" font-size="10.00">YENA::ynAxisCreate</text>
</a>
</g>
</g>
<!-- Node1&#45;&gt;Node3 -->
<g id="edge2_Node000001_Node000003" class="edge">
<title>Node1&#45;&gt;Node3</title>
<g id="a_edge2_Node000001_Node000003"><a xlink:title=" ">
<path fill="none" stroke="#63b8ff" d="M71.21,-48C78.79,-48 87.04,-48 95.36,-48"/>
<polygon fill="#63b8ff" stroke="#63b8ff" points="95.18,-51.5 105.18,-48 95.18,-44.5 95.18,-51.5"/>
</a>
</g>
</g>
<!-- Node5 -->
<g id="Node000005" class="node">
<title>Node5</title>
<g id="a_Node000005"><a xlink:href="a00140_ga24c7dbebe357c67a5b80d1d84acd561c.html#ga24c7dbebe357c67a5b80d1d84acd561c" target="_top" xlink:title=" ">
<polygon fill="white" stroke="#666666" points="215,-20 107.5,-20 107.5,0 215,0 215,-20"/>
<text xml:space="preserve" text-anchor="middle" x="161.25" y="-6.5" font-family="Helvetica,sans-Serif" font-size="10.00">YENA::ynGridCreate</text>
</a>
</g>
</g>
<!-- Node1&#45;&gt;Node5 -->
<g id="edge4_Node000001_Node000005" class="edge">
<title>Node1&#45;&gt;Node5</title>
<g id="a_edge4_Node000001_Node000005"><a xlink:title=" ">
<path fill="none" stroke="#63b8ff" d="M70.55,-37.52C84.36,-33.28 100.49,-28.33 115.24,-23.81"/>
<polygon fill="#63b8ff" stroke="#63b8ff" points="116.2,-27.17 124.74,-20.89 114.15,-20.48 116.2,-27.17"/>
</a>
</g>
</g>
<!-- Node4 -->
<g id="Node000004" class="node">
<title>Node4</title>
<g id="a_Node000004"><a xlink:href="a00164_aef61ffdd4b7434fc15a91d5d0d3da9c9.html#aef61ffdd4b7434fc15a91d5d0d3da9c9" target="_top" xlink:title=" ">
<polygon fill="white" stroke="#666666" points="351,-58 251.75,-58 251.75,-38 351,-38 351,-58"/>
<text xml:space="preserve" text-anchor="middle" x="301.38" y="-44.5" font-family="Helvetica,sans-Serif" font-size="10.00">YENA::ynAxis::Init</text>
</a>
</g>
</g>
<!-- Node3&#45;&gt;Node4 -->
<g id="edge3_Node000003_Node000004" class="edge">
<title>Node3&#45;&gt;Node4</title>
<g id="a_edge3_Node000003_Node000004"><a xlink:title=" ">
<path fill="none" stroke="#63b8ff" d="M216.05,-48C223.89,-48 232,-48 239.96,-48"/>
<polygon fill="#63b8ff" stroke="#63b8ff" points="239.94,-51.5 249.94,-48 239.94,-44.5 239.94,-51.5"/>
</a>
</g>
</g>
<!-- Node6 -->
<g id="Node000006" class="node">
<title>Node6</title>
<g id="a_Node000006"><a xlink:href="a00216_af7034e8f9a295f0d40458d5a090e541d.html#af7034e8f9a295f0d40458d5a090e541d" target="_top" xlink:title=" ">
<polygon fill="white" stroke="#666666" points="350.25,-20 252.5,-20 252.5,0 350.25,0 350.25,-20"/>
<text xml:space="preserve" text-anchor="middle" x="301.38" y="-6.5" font-family="Helvetica,sans-Serif" font-size="10.00">YENA::ynGrid::Init</text>
</a>
</g>
</g>
<!-- Node5&#45;&gt;Node6 -->
<g id="edge5_Node000005_Node000006" class="edge">
<title>Node5&#45;&gt;Node6</title>
<g id="a_edge5_Node000005_Node000006"><a xlink:title=" ">
<path fill="none" stroke="#63b8ff" d="M215.26,-10C223.63,-10 232.33,-10 240.83,-10"/>
<polygon fill="#63b8ff" stroke="#63b8ff" points="240.75,-13.5 250.75,-10 240.75,-6.5 240.75,-13.5"/>
</a>
</g>
</g>
</g>
</svg>
</svg>

<style type='text/css'>
<![CDATA[
[data-mouse-over-selected='false'] { opacity: 0.7; }
[data-mouse-over-selected='true']  { opacity: 1.0; }
]]>
</style>
<script type="application/ecmascript"><![CDATA[
document.addEventListener('DOMContentLoaded', (event) => {
  highlightEdges();
  highlightAdjacentNodes();
});
]]></script>
</svg>
