<?xml version="1.0" encoding="UTF-8" standalone="no"?>
<!DOCTYPE svg PUBLIC "-//W3C//DTD SVG 1.1//EN"
 "http://www.w3.org/Graphics/SVG/1.1/DTD/svg11.dtd">
<!-- Generated by graphviz version 13.1.2 (20250808.2320)
 -->
<!-- Title: Src/Device.cpp Pages: 1 -->
<!--zoomable 364 -->

<svg id="main" version="1.1" xmlns="http://www.w3.org/2000/svg" xmlns:xlink="http://www.w3.org/1999/xlink" xml:space="preserve" onload="init(evt)">

<style type="text/css"><![CDATA[
.node, .edge {opacity: 0.7;}
.node.selected, .edge.selected {opacity: 1;}
.edge:hover path { stroke: red; }
.edge:hover polygon { stroke: red; fill: red; }
]]></style>

<defs>
  <circle id="rim" cx="0" cy="0" r="7"/>
  <circle id="rim2" cx="0" cy="0" r="3.5"/>
  <g id="zoomPlus">
    <use xlink:href="#rim" fill="#404040"><set attributeName="fill" to="#808080" begin="zoomplus.mouseover" end="zoomplus.mouseout"/></use>
    <path d="M-4,0h8M0,-4v8" fill="none" stroke="white" stroke-width="1.5" pointer-events="none"/>
  </g>
  <g id="zoomMin">
    <use xlink:href="#rim" fill="#404040"><set attributeName="fill" to="#808080" begin="zoomminus.mouseover" end="zoomminus.mouseout"/></use>
    <path d="M-4,0h8" fill="none" stroke="white" stroke-width="1.5" pointer-events="none"/>
  </g>
  <g id="arrowUp" transform="translate(30 24)">
    <use xlink:href="#rim"/>
    <path pointer-events="none" fill="none" stroke="white" stroke-width="1.5" d="M0,-3.0v7 M-2.5,-0.5L0,-3.0L2.5,-0.5"/>
  </g>
  <g id="arrowRight" transform="rotate(90) translate(36 -43)">
    <use xlink:href="#rim"/>
    <path pointer-events="none" fill="none" stroke="white" stroke-width="1.5" d="M0,-3.0v7 M-2.5,-0.5L0,-3.0L2.5,-0.5"/>
  </g>
  <g id="arrowDown" transform="rotate(180) translate(-30 -48)">
    <use xlink:href="#rim"/>
    <path pointer-events="none" fill="none" stroke="white" stroke-width="1.5" d="M0,-3.0v7 M-2.5,-0.5L0,-3.0L2.5,-0.5"/>
  </g>
  <g id="arrowLeft" transform="rotate(270) translate(-36 17)">
    <use xlink:href="#rim"/>
    <path pointer-events="none" fill="none" stroke="white" stroke-width="1.5" d="M0,-3.0v7 M-2.5,-0.5L0,-3.0L2.5,-0.5"/>
  </g>
  <g id="resetDef">
    <use xlink:href="#rim2" fill="#404040"><set attributeName="fill" to="#808080" begin="reset.mouseover" end="reset.mouseout"/></use>
  </g>
</defs>
<script type="application/ecmascript">
var viewWidth = 1015;
var viewHeight = 364;
var sectionId = 'dynsection-0';
</script>
<script type="application/ecmascript" xlink:href="svg.min.js"/>
<svg id="graph" class="graph">
<g id="viewport">
<title>Src/Device.cpp</title>
<!-- Node1 -->
<g id="Node000001" class="node">
<title>Node1</title>
<g id="a_Node000001"><a xlink:title="예제 렌더링 장치 운용 소스.">
<polygon fill="#999999" stroke="#666666" points="144.75,-356 61.25,-356 61.25,-336 144.75,-336 144.75,-356"/>
<text xml:space="preserve" text-anchor="middle" x="103" y="-342.5" font-family="Helvetica,sans-Serif" font-size="10.00">Src/Device.cpp</text>
</a>
</g>
</g>
<!-- Node2 -->
<g id="Node000002" class="node">
<title>Node2</title>
<g id="a_Node000002"><a xlink:title=" ">
<polygon fill="#e0e0e0" stroke="#999999" points="611.25,-20 548.75,-20 548.75,0 611.25,0 611.25,-20"/>
<text xml:space="preserve" text-anchor="middle" x="580" y="-6.5" font-family="Helvetica,sans-Serif" font-size="10.00">windows.h</text>
</a>
</g>
</g>
<!-- Node1&#45;&gt;Node2 -->
<g id="edge1_Node000001_Node000002" class="edge">
<title>Node1&#45;&gt;Node2</title>
<g id="a_edge1_Node000001_Node000002"><a xlink:title=" ">
<path fill="none" stroke="#63b8ff" d="M84.11,-335.74C54.37,-319.68 0,-283.66 0,-235 0,-235 0,-235 0,-121 0,-66.34 402.7,-26.4 537,-14.6"/>
<polygon fill="#63b8ff" stroke="#63b8ff" points="537.24,-18.09 546.9,-13.74 536.63,-11.12 537.24,-18.09"/>
</a>
</g>
</g>
<!-- Node3 -->
<g id="Node000003" class="node">
<title>Node3</title>
<g id="a_Node000003"><a xlink:title=" ">
<polygon fill="#e0e0e0" stroke="#999999" points="122,-132 76,-132 76,-112 122,-112 122,-132"/>
<text xml:space="preserve" text-anchor="middle" x="99" y="-118.5" font-family="Helvetica,sans-Serif" font-size="10.00">tchar.h</text>
</a>
</g>
</g>
<!-- Node1&#45;&gt;Node3 -->
<g id="edge2_Node000001_Node000003" class="edge">
<title>Node1&#45;&gt;Node3</title>
<g id="a_edge2_Node000001_Node000003"><a xlink:title=" ">
<path fill="none" stroke="#63b8ff" d="M88.32,-335.54C77.4,-327.56 63.32,-315.03 57,-300 33.89,-245.07 67.66,-174.97 87.02,-141.89"/>
<polygon fill="#63b8ff" stroke="#63b8ff" points="89.94,-143.83 92.14,-133.46 83.96,-140.19 89.94,-143.83"/>
</a>
</g>
</g>
<!-- Node4 -->
<g id="Node000004" class="node">
<title>Node4</title>
<g id="a_Node000004"><a xlink:title=" ">
<polygon fill="#e0e0e0" stroke="#999999" points="139.5,-300 66.5,-300 66.5,-280 139.5,-280 139.5,-300"/>
<text xml:space="preserve" text-anchor="middle" x="103" y="-286.5" font-family="Helvetica,sans-Serif" font-size="10.00">mmsystem.h</text>
</a>
</g>
</g>
<!-- Node1&#45;&gt;Node4 -->
<g id="edge3_Node000001_Node000004" class="edge">
<title>Node1&#45;&gt;Node4</title>
<g id="a_edge3_Node000001_Node000004"><a xlink:title=" ">
<path fill="none" stroke="#63b8ff" d="M103,-335.59C103,-329.01 103,-319.96 103,-311.73"/>
<polygon fill="#63b8ff" stroke="#63b8ff" points="106.5,-311.81 103,-301.81 99.5,-311.81 106.5,-311.81"/>
</a>
</g>
</g>
<!-- Node5 -->
<g id="Node000005" class="node">
<title>Node5</title>
<g id="a_Node000005"><a xlink:title=" ">
<polygon fill="#e0e0e0" stroke="#999999" points="185.62,-132 140.38,-132 140.38,-112 185.62,-112 185.62,-132"/>
<text xml:space="preserve" text-anchor="middle" x="163" y="-118.5" font-family="Helvetica,sans-Serif" font-size="10.00">stdio.h</text>
</a>
</g>
</g>
<!-- Node1&#45;&gt;Node5 -->
<g id="edge4_Node000001_Node000005" class="edge">
<title>Node1&#45;&gt;Node5</title>
<g id="a_edge4_Node000001_Node000005"><a xlink:title=" ">
<path fill="none" stroke="#63b8ff" d="M116.59,-335.65C127.15,-327.55 141.11,-314.83 148,-300 172.2,-247.92 169.13,-177.96 165.66,-143.68"/>
<polygon fill="#63b8ff" stroke="#63b8ff" points="169.15,-143.44 164.54,-133.91 162.2,-144.24 169.15,-143.44"/>
</a>
</g>
</g>
<!-- Node6 -->
<g id="Node000006" class="node">
<title>Node6</title>
<g id="a_Node000006"><a xlink:href="a00053.html" target="_top" xlink:title="예제 렌더링 장치 운용 헤더">
<polygon fill="white" stroke="#666666" points="448.5,-300 393.5,-300 393.5,-280 448.5,-280 448.5,-300"/>
<text xml:space="preserve" text-anchor="middle" x="421" y="-286.5" font-family="Helvetica,sans-Serif" font-size="10.00">Device.h</text>
</a>
</g>
</g>
<!-- Node1&#45;&gt;Node6 -->
<g id="edge5_Node000001_Node000006" class="edge">
<title>Node1&#45;&gt;Node6</title>
<g id="a_edge5_Node000001_Node000006"><a xlink:title=" ">
<path fill="none" stroke="#63b8ff" d="M145.23,-337.83C207.16,-327.31 321.77,-307.85 381.88,-297.64"/>
<polygon fill="#63b8ff" stroke="#63b8ff" points="382.38,-301.11 391.65,-295.98 381.2,-294.21 382.38,-301.11"/>
</a>
</g>
</g>
<!-- Node7 -->
<g id="Node000007" class="node">
<title>Node7</title>
<g id="a_Node000007"><a xlink:href="a00068.html" target="_top" xlink:title="Yena SWR 기본 헤더 파일 (v1.x)">
<polygon fill="white" stroke="#666666" points="641,-244 595,-244 595,-224 641,-224 641,-244"/>
<text xml:space="preserve" text-anchor="middle" x="618" y="-230.5" font-family="Helvetica,sans-Serif" font-size="10.00">Yena.h</text>
</a>
</g>
</g>
<!-- Node6&#45;&gt;Node7 -->
<g id="edge6_Node000006_Node000007" class="edge">
<title>Node6&#45;&gt;Node7</title>
<g id="a_edge6_Node000006_Node000007"><a xlink:title=" ">
<path fill="none" stroke="#63b8ff" d="M448.81,-281.38C484.18,-271.68 545.26,-254.94 583.54,-244.45"/>
<polygon fill="#63b8ff" stroke="#63b8ff" points="584.46,-247.82 593.18,-241.8 582.61,-241.07 584.46,-247.82"/>
</a>
</g>
</g>
<!-- Node7&#45;&gt;Node2 -->
<g id="edge7_Node000007_Node000002" class="edge">
<title>Node7&#45;&gt;Node2</title>
<g id="a_edge7_Node000007_Node000002"><a xlink:title=" ">
<path fill="none" stroke="#63b8ff" d="M617.95,-223.62C617.61,-196.94 615.18,-118.53 599,-56 596.77,-47.4 593.18,-38.29 589.72,-30.54"/>
<polygon fill="#63b8ff" stroke="#63b8ff" points="593,-29.29 585.56,-21.74 586.67,-32.28 593,-29.29"/>
</a>
</g>
</g>
<!-- Node7&#45;&gt;Node3 -->
<g id="edge8_Node000007_Node000003" class="edge">
<title>Node7&#45;&gt;Node3</title>
<g id="a_edge8_Node000007_Node000003"><a xlink:title=" ">
<path fill="none" stroke="#63b8ff" d="M594.82,-233.23C533.18,-233.23 360.68,-229.25 225,-188 187.08,-176.47 147.02,-153.74 122.51,-138.45"/>
<polygon fill="#63b8ff" stroke="#63b8ff" points="124.6,-135.63 114.29,-133.22 120.85,-141.54 124.6,-135.63"/>
</a>
</g>
</g>
<!-- Node7&#45;&gt;Node5 -->
<g id="edge10_Node000007_Node000005" class="edge">
<title>Node7&#45;&gt;Node5</title>
<g id="a_edge10_Node000007_Node000005"><a xlink:title=" ">
<path fill="none" stroke="#63b8ff" d="M594.78,-233.32C537.62,-233.4 386.24,-229.36 269,-188 236.81,-176.64 203.94,-154.52 183.52,-139.26"/>
<polygon fill="#63b8ff" stroke="#63b8ff" points="185.82,-136.61 175.75,-133.32 181.57,-142.17 185.82,-136.61"/>
</a>
</g>
</g>
<!-- Node8 -->
<g id="Node000008" class="node">
<title>Node8</title>
<g id="a_Node000008"><a xlink:title=" ">
<polygon fill="#e0e0e0" stroke="#999999" points="414,-132 368,-132 368,-112 414,-112 414,-132"/>
<text xml:space="preserve" text-anchor="middle" x="391" y="-118.5" font-family="Helvetica,sans-Serif" font-size="10.00">math.h</text>
</a>
</g>
</g>
<!-- Node7&#45;&gt;Node8 -->
<g id="edge9_Node000007_Node000008" class="edge">
<title>Node7&#45;&gt;Node8</title>
<g id="a_edge9_Node000007_Node000008"><a xlink:title=" ">
<path fill="none" stroke="#63b8ff" d="M594.58,-229.16C563.85,-223.44 508.92,-210.83 467,-188 444.02,-175.49 421.75,-155.18 407.33,-140.59"/>
<polygon fill="#63b8ff" stroke="#63b8ff" points="409.93,-138.24 400.47,-133.46 404.88,-143.09 409.93,-138.24"/>
</a>
</g>
</g>
<!-- Node9 -->
<g id="Node000009" class="node">
<title>Node9</title>
<g id="a_Node000009"><a xlink:title=" ">
<polygon fill="#e0e0e0" stroke="#999999" points="826,-188 786,-188 786,-168 826,-168 826,-188"/>
<text xml:space="preserve" text-anchor="middle" x="806" y="-174.5" font-family="Helvetica,sans-Serif" font-size="10.00">string</text>
</a>
</g>
</g>
<!-- Node7&#45;&gt;Node9 -->
<g id="edge11_Node000007_Node000009" class="edge">
<title>Node7&#45;&gt;Node9</title>
<g id="a_edge11_Node000007_Node000009"><a xlink:title=" ">
<path fill="none" stroke="#63b8ff" d="M641.43,-226.27C675.15,-216.58 737.42,-198.7 774.94,-187.92"/>
<polygon fill="#63b8ff" stroke="#63b8ff" points="775.63,-191.37 784.27,-185.24 773.7,-184.64 775.63,-191.37"/>
</a>
</g>
</g>
<!-- Node10 -->
<g id="Node000010" class="node">
<title>Node10</title>
<g id="a_Node000010"><a xlink:title=" ">
<polygon fill="#e0e0e0" stroke="#999999" points="475.5,-132 432.5,-132 432.5,-112 475.5,-112 475.5,-132"/>
<text xml:space="preserve" text-anchor="middle" x="454" y="-118.5" font-family="Helvetica,sans-Serif" font-size="10.00">vector</text>
</a>
</g>
</g>
<!-- Node7&#45;&gt;Node10 -->
<g id="edge12_Node000007_Node000010" class="edge">
<title>Node7&#45;&gt;Node10</title>
<g id="a_edge12_Node000007_Node000010"><a xlink:title=" ">
<path fill="none" stroke="#63b8ff" d="M594.53,-230.34C566.05,-226 518.02,-214.99 487,-188 473.42,-176.19 464.75,-157.45 459.72,-143.12"/>
<polygon fill="#63b8ff" stroke="#63b8ff" points="463.13,-142.29 456.78,-133.81 456.45,-144.4 463.13,-142.29"/>
</a>
</g>
</g>
<!-- Node11 -->
<g id="Node000011" class="node">
<title>Node11</title>
<g id="a_Node000011"><a xlink:title=" ">
<polygon fill="#e0e0e0" stroke="#999999" points="259.88,-132 204.12,-132 204.12,-112 259.88,-112 259.88,-132"/>
<text xml:space="preserve" text-anchor="middle" x="232" y="-118.5" font-family="Helvetica,sans-Serif" font-size="10.00">algorithm</text>
</a>
</g>
</g>
<!-- Node7&#45;&gt;Node11 -->
<g id="edge13_Node000007_Node000011" class="edge">
<title>Node7&#45;&gt;Node11</title>
<g id="a_edge13_Node000007_Node000011"><a xlink:title=" ">
<path fill="none" stroke="#63b8ff" d="M594.7,-231.52C530.66,-227.17 353.22,-213.12 301,-188 278.4,-177.13 258.26,-156.17 245.66,-140.99"/>
<polygon fill="#63b8ff" stroke="#63b8ff" points="248.74,-139.24 239.77,-133.6 243.27,-143.6 248.74,-139.24"/>
</a>
</g>
</g>
<!-- Node12 -->
<g id="Node000012" class="node">
<title>Node12</title>
<g id="a_Node000012"><a xlink:href="a00092.html" target="_top" xlink:title="Yena SWR 엔진 기본 정의 문서.">
<polygon fill="white" stroke="#666666" points="880.62,-76 817.38,-76 817.38,-56 880.62,-56 880.62,-76"/>
<text xml:space="preserve" text-anchor="middle" x="849" y="-62.5" font-family="Helvetica,sans-Serif" font-size="10.00">ynDefine.h</text>
</a>
</g>
</g>
<!-- Node7&#45;&gt;Node12 -->
<g id="edge14_Node000007_Node000012" class="edge">
<title>Node7&#45;&gt;Node12</title>
<g id="a_edge14_Node000007_Node000012"><a xlink:title=" ">
<path fill="none" stroke="#63b8ff" d="M641.26,-231.53C691.78,-227.83 809.1,-216.32 835,-188 860.01,-160.65 857.34,-114.04 853.17,-87.36"/>
<polygon fill="#63b8ff" stroke="#63b8ff" points="856.67,-87.05 851.44,-77.83 849.78,-88.29 856.67,-87.05"/>
</a>
</g>
</g>
<!-- Node14 -->
<g id="Node000014" class="node">
<title>Node14</title>
<g id="a_Node000014"><a xlink:href="a00098.html" target="_top" xlink:title="에러, 예외 및 로그 처리 헤더 파일">
<polygon fill="white" stroke="#666666" points="551.88,-188 496.12,-188 496.12,-168 551.88,-168 551.88,-188"/>
<text xml:space="preserve" text-anchor="middle" x="524" y="-174.5" font-family="Helvetica,sans-Serif" font-size="10.00">ynError.h</text>
</a>
</g>
</g>
<!-- Node7&#45;&gt;Node14 -->
<g id="edge17_Node000007_Node000014" class="edge">
<title>Node7&#45;&gt;Node14</title>
<g id="a_edge17_Node000007_Node000014"><a xlink:title=" ">
<path fill="none" stroke="#63b8ff" d="M601.63,-223.59C587.43,-215.44 566.62,-203.48 550.12,-194"/>
<polygon fill="#63b8ff" stroke="#63b8ff" points="552.23,-191.18 541.81,-189.23 548.74,-197.25 552.23,-191.18"/>
</a>
</g>
</g>
<!-- Node16 -->
<g id="Node000016" class="node">
<title>Node16</title>
<g id="a_Node000016"><a xlink:href="a00110.html" target="_top" xlink:title="Yena SWR COM / GUID 헤더">
<polygon fill="white" stroke="#666666" points="370.12,-188 309.88,-188 309.88,-168 370.12,-168 370.12,-188"/>
<text xml:space="preserve" text-anchor="middle" x="340" y="-174.5" font-family="Helvetica,sans-Serif" font-size="10.00">ynGUID.h</text>
</a>
</g>
</g>
<!-- Node7&#45;&gt;Node16 -->
<g id="edge19_Node000007_Node000016" class="edge">
<title>Node7&#45;&gt;Node16</title>
<g id="a_edge19_Node000007_Node000016"><a xlink:title=" ">
<path fill="none" stroke="#63b8ff" d="M594.78,-228.49C547.8,-219.36 440.92,-198.6 381.61,-187.08"/>
<polygon fill="#63b8ff" stroke="#63b8ff" points="382.38,-183.67 371.9,-185.2 381.05,-190.54 382.38,-183.67"/>
</a>
</g>
</g>
<!-- Node18 -->
<g id="Node000018" class="node">
<title>Node18</title>
<g id="a_Node000018"><a xlink:href="a00122.html" target="_top" xlink:title="Yena SWR COM 기반 헤더 (v2.x)">
<polygon fill="white" stroke="#666666" points="589.5,-76 492.5,-76 492.5,-56 589.5,-56 589.5,-76"/>
<text xml:space="preserve" text-anchor="middle" x="541" y="-62.5" font-family="Helvetica,sans-Serif" font-size="10.00">ynUnknownbase.h</text>
</a>
</g>
</g>
<!-- Node7&#45;&gt;Node18 -->
<g id="edge27_Node000007_Node000018" class="edge">
<title>Node7&#45;&gt;Node18</title>
<g id="a_edge27_Node000007_Node000018"><a xlink:title=" ">
<path fill="none" stroke="#63b8ff" d="M613.64,-223.6C601.41,-197.23 566.6,-122.19 550.01,-86.42"/>
<polygon fill="#63b8ff" stroke="#63b8ff" points="553.33,-85.27 545.95,-77.67 546.98,-88.21 553.33,-85.27"/>
</a>
</g>
</g>
<!-- Node19 -->
<g id="Node000019" class="node">
<title>Node19</title>
<g id="a_Node000019"><a xlink:href="a00128.html" target="_top" xlink:title="Yena SW 엔진 자료형 정의 : DX9 (d3d9types.h) 대응">
<polygon fill="white" stroke="#666666" points="715.62,-132 646.38,-132 646.38,-112 715.62,-112 715.62,-132"/>
<text xml:space="preserve" text-anchor="middle" x="681" y="-118.5" font-family="Helvetica,sans-Serif" font-size="10.00">ynx9types.h</text>
</a>
</g>
</g>
<!-- Node7&#45;&gt;Node19 -->
<g id="edge29_Node000007_Node000019" class="edge">
<title>Node7&#45;&gt;Node19</title>
<g id="a_edge29_Node000007_Node000019"><a xlink:title=" ">
<path fill="none" stroke="#63b8ff" d="M623.37,-223.62C633.69,-205.6 656.48,-165.81 670.1,-142.02"/>
<polygon fill="#63b8ff" stroke="#63b8ff" points="672.96,-144.09 674.89,-133.67 666.88,-140.61 672.96,-144.09"/>
</a>
</g>
</g>
<!-- Node20 -->
<g id="Node000020" class="node">
<title>Node20</title>
<g id="a_Node000020"><a xlink:href="a00125.html" target="_top" xlink:title="Yena SWR 인터페이스 헤더 : DX9 (d3d9.h) 대응">
<polygon fill="white" stroke="#666666" points="729.62,-188 684.38,-188 684.38,-168 729.62,-168 729.62,-188"/>
<text xml:space="preserve" text-anchor="middle" x="707" y="-174.5" font-family="Helvetica,sans-Serif" font-size="10.00">ynx9.h</text>
</a>
</g>
</g>
<!-- Node7&#45;&gt;Node20 -->
<g id="edge31_Node000007_Node000020" class="edge">
<title>Node7&#45;&gt;Node20</title>
<g id="a_edge31_Node000007_Node000020"><a xlink:title=" ">
<path fill="none" stroke="#63b8ff" d="M633.5,-223.59C646.82,-215.51 666.28,-203.71 681.83,-194.27"/>
<polygon fill="#63b8ff" stroke="#63b8ff" points="683.35,-197.44 690.08,-189.26 679.72,-191.46 683.35,-197.44"/>
</a>
</g>
</g>
<!-- Node21 -->
<g id="Node000021" class="node">
<title>Node21</title>
<g id="a_Node000021"><a xlink:href="a00116.html" target="_top" xlink:title="\u{2b50} Yena 수학 라이브러리 Yena Math Library for DirectX / OpenGL">
<polygon fill="white" stroke="#666666" points="790.25,-132 733.75,-132 733.75,-112 790.25,-112 790.25,-132"/>
<text xml:space="preserve" text-anchor="middle" x="762" y="-118.5" font-family="Helvetica,sans-Serif" font-size="10.00">ynMath.h</text>
</a>
</g>
</g>
<!-- Node7&#45;&gt;Node21 -->
<g id="edge36_Node000007_Node000021" class="edge">
<title>Node7&#45;&gt;Node21</title>
<g id="a_edge36_Node000007_Node000021"><a xlink:title=" ">
<path fill="none" stroke="#63b8ff" d="M641.22,-230.29C668.21,-225.96 712.43,-215 739,-188 750.82,-175.99 756.59,-157.54 759.4,-143.35"/>
<polygon fill="#63b8ff" stroke="#63b8ff" points="762.81,-144.18 760.94,-133.76 755.9,-143.08 762.81,-144.18"/>
</a>
</g>
</g>
<!-- Node23 -->
<g id="Node000023" class="node">
<title>Node23</title>
<g id="a_Node000023"><a xlink:href="a00104.html" target="_top" xlink:title="그리드 클래스 헤더.">
<polygon fill="white" stroke="#666666" points="934.38,-188 881.62,-188 881.62,-168 934.38,-168 934.38,-188"/>
<text xml:space="preserve" text-anchor="middle" x="908" y="-174.5" font-family="Helvetica,sans-Serif" font-size="10.00">ynGrid.h</text>
</a>
</g>
</g>
<!-- Node7&#45;&gt;Node23 -->
<g id="edge37_Node000007_Node000023" class="edge">
<title>Node7&#45;&gt;Node23</title>
<g id="a_edge37_Node000007_Node000023"><a xlink:title=" ">
<path fill="none" stroke="#63b8ff" d="M641.32,-228.21C684.6,-220.39 779.25,-204.14 859,-188 862.56,-187.28 866.29,-186.49 870.05,-185.69"/>
<polygon fill="#63b8ff" stroke="#63b8ff" points="870.75,-189.11 879.8,-183.6 869.29,-182.27 870.75,-189.11"/>
</a>
</g>
</g>
<!-- Node24 -->
<g id="Node000024" class="node">
<title>Node24</title>
<g id="a_Node000024"><a xlink:href="a00074.html" target="_top" xlink:title="공간축 클래스 헤더.">
<polygon fill="white" stroke="#666666" points="1007.12,-188 952.88,-188 952.88,-168 1007.12,-168 1007.12,-188"/>
<text xml:space="preserve" text-anchor="middle" x="980" y="-174.5" font-family="Helvetica,sans-Serif" font-size="10.00">ynAxis.h</text>
</a>
</g>
</g>
<!-- Node7&#45;&gt;Node24 -->
<g id="edge40_Node000007_Node000024" class="edge">
<title>Node7&#45;&gt;Node24</title>
<g id="a_edge40_Node000007_Node000024"><a xlink:title=" ">
<path fill="none" stroke="#63b8ff" d="M641.36,-230.04C694.1,-223.93 825.16,-208.72 934,-188 936.43,-187.54 938.93,-187.02 941.47,-186.47"/>
<polygon fill="#63b8ff" stroke="#63b8ff" points="942.21,-189.89 951.2,-184.28 940.67,-183.06 942.21,-189.89"/>
</a>
</g>
</g>
<!-- Node12&#45;&gt;Node2 -->
<g id="edge15_Node000012_Node000002" class="edge">
<title>Node12&#45;&gt;Node2</title>
<g id="a_edge15_Node000012_Node000002"><a xlink:title=" ">
<path fill="none" stroke="#63b8ff" d="M817.14,-57.75C814.39,-57.15 811.65,-56.56 809,-56 744.13,-42.33 668.62,-27.75 622.59,-19.01"/>
<polygon fill="#63b8ff" stroke="#63b8ff" points="623.5,-15.62 613.03,-17.2 622.2,-22.5 623.5,-15.62"/>
</a>
</g>
</g>
<!-- Node13 -->
<g id="Node000013" class="node">
<title>Node13</title>
<g id="a_Node000013"><a xlink:title=" ">
<polygon fill="#e0e0e0" stroke="#999999" points="934.62,-20 883.38,-20 883.38,0 934.62,0 934.62,-20"/>
<text xml:space="preserve" text-anchor="middle" x="909" y="-6.5" font-family="Helvetica,sans-Serif" font-size="10.00">assert.h</text>
</a>
</g>
</g>
<!-- Node12&#45;&gt;Node13 -->
<g id="edge16_Node000012_Node000013" class="edge">
<title>Node12&#45;&gt;Node13</title>
<g id="a_edge16_Node000012_Node000013"><a xlink:title=" ">
<path fill="none" stroke="#63b8ff" d="M859.45,-55.59C867.97,-47.93 880.21,-36.91 890.39,-27.75"/>
<polygon fill="#63b8ff" stroke="#63b8ff" points="892.45,-30.6 897.54,-21.31 887.77,-25.4 892.45,-30.6"/>
</a>
</g>
</g>
<!-- Node15 -->
<g id="Node000015" class="node">
<title>Node15</title>
<g id="a_Node000015"><a xlink:title=" ">
<polygon fill="#e0e0e0" stroke="#999999" points="552,-132 494,-132 494,-112 552,-112 552,-132"/>
<text xml:space="preserve" text-anchor="middle" x="523" y="-118.5" font-family="Helvetica,sans-Serif" font-size="10.00">exception</text>
</a>
</g>
</g>
<!-- Node14&#45;&gt;Node15 -->
<g id="edge18_Node000014_Node000015" class="edge">
<title>Node14&#45;&gt;Node15</title>
<g id="a_edge18_Node000014_Node000015"><a xlink:title=" ">
<path fill="none" stroke="#63b8ff" d="M523.83,-167.59C523.7,-161.01 523.54,-151.96 523.38,-143.73"/>
<polygon fill="#63b8ff" stroke="#63b8ff" points="526.88,-143.75 523.2,-133.81 519.89,-143.87 526.88,-143.75"/>
</a>
</g>
</g>
<!-- Node16&#45;&gt;Node2 -->
<g id="edge20_Node000016_Node000002" class="edge">
<title>Node16&#45;&gt;Node2</title>
<g id="a_edge20_Node000016_Node000002"><a xlink:title=" ">
<path fill="none" stroke="#63b8ff" d="M329.09,-167.72C315.11,-154.69 294.13,-130.49 307,-112 359.36,-36.8 474.49,-17.46 537.22,-12.57"/>
<polygon fill="#63b8ff" stroke="#63b8ff" points="537.41,-16.07 547.15,-11.9 536.94,-9.08 537.41,-16.07"/>
</a>
</g>
</g>
<!-- Node16&#45;&gt;Node3 -->
<g id="edge21_Node000016_Node000003" class="edge">
<title>Node16&#45;&gt;Node3</title>
<g id="a_edge21_Node000016_Node000003"><a xlink:title=" ">
<path fill="none" stroke="#63b8ff" d="M309.4,-171.03C270.63,-163.34 201.52,-149.17 133.31,-132.46"/>
<polygon fill="#63b8ff" stroke="#63b8ff" points="134.39,-129.12 123.84,-130.12 132.71,-135.92 134.39,-129.12"/>
</a>
</g>
</g>
<!-- Node16&#45;&gt;Node5 -->
<g id="edge23_Node000016_Node000005" class="edge">
<title>Node16&#45;&gt;Node5</title>
<g id="a_edge23_Node000016_Node000005"><a xlink:title=" ">
<path fill="none" stroke="#63b8ff" d="M309.57,-167.72C278.18,-158.14 229.35,-143.24 196.78,-133.31"/>
<polygon fill="#63b8ff" stroke="#63b8ff" points="198.03,-130.03 187.44,-130.46 195.99,-136.72 198.03,-130.03"/>
</a>
</g>
</g>
<!-- Node16&#45;&gt;Node8 -->
<g id="edge22_Node000016_Node000008" class="edge">
<title>Node16&#45;&gt;Node8</title>
<g id="a_edge22_Node000016_Node000008"><a xlink:title=" ">
<path fill="none" stroke="#63b8ff" d="M348.88,-167.59C355.9,-160.16 365.9,-149.58 374.39,-140.58"/>
<polygon fill="#63b8ff" stroke="#63b8ff" points="376.86,-143.07 381.18,-133.4 371.77,-138.27 376.86,-143.07"/>
</a>
</g>
</g>
<!-- Node16&#45;&gt;Node10 -->
<g id="edge24_Node000016_Node000010" class="edge">
<title>Node16&#45;&gt;Node10</title>
<g id="a_edge24_Node000016_Node000010"><a xlink:title=" ">
<path fill="none" stroke="#63b8ff" d="M359.86,-167.59C377.49,-159.24 403.51,-146.92 423.73,-137.34"/>
<polygon fill="#63b8ff" stroke="#63b8ff" points="425.08,-140.57 432.62,-133.13 422.08,-134.25 425.08,-140.57"/>
</a>
</g>
</g>
<!-- Node16&#45;&gt;Node11 -->
<g id="edge26_Node000016_Node000011" class="edge">
<title>Node16&#45;&gt;Node11</title>
<g id="a_edge26_Node000016_Node000011"><a xlink:title=" ">
<path fill="none" stroke="#63b8ff" d="M321.19,-167.59C304.64,-159.32 280.29,-147.14 261.21,-137.6"/>
<polygon fill="#63b8ff" stroke="#63b8ff" points="262.82,-134.5 252.31,-133.16 259.69,-140.76 262.82,-134.5"/>
</a>
</g>
</g>
<!-- Node17 -->
<g id="Node000017" class="node">
<title>Node17</title>
<g id="a_Node000017"><a xlink:title=" ">
<polygon fill="#e0e0e0" stroke="#999999" points="350.38,-132 315.62,-132 315.62,-112 350.38,-112 350.38,-132"/>
<text xml:space="preserve" text-anchor="middle" x="333" y="-118.5" font-family="Helvetica,sans-Serif" font-size="10.00">map</text>
</a>
</g>
</g>
<!-- Node16&#45;&gt;Node17 -->
<g id="edge25_Node000016_Node000017" class="edge">
<title>Node16&#45;&gt;Node17</title>
<g id="a_edge25_Node000016_Node000017"><a xlink:title=" ">
<path fill="none" stroke="#63b8ff" d="M338.78,-167.59C337.92,-160.93 336.73,-151.75 335.65,-143.44"/>
<polygon fill="#63b8ff" stroke="#63b8ff" points="339.16,-143.27 334.4,-133.8 332.21,-144.17 339.16,-143.27"/>
</a>
</g>
</g>
<!-- Node18&#45;&gt;Node2 -->
<g id="edge28_Node000018_Node000002" class="edge">
<title>Node18&#45;&gt;Node2</title>
<g id="a_edge28_Node000018_Node000002"><a xlink:title=" ">
<path fill="none" stroke="#63b8ff" d="M547.79,-55.59C552.99,-48.39 560.33,-38.23 566.69,-29.43"/>
<polygon fill="#63b8ff" stroke="#63b8ff" points="569.38,-31.68 572.4,-21.53 563.71,-27.58 569.38,-31.68"/>
</a>
</g>
</g>
<!-- Node19&#45;&gt;Node2 -->
<g id="edge30_Node000019_Node000002" class="edge">
<title>Node19&#45;&gt;Node2</title>
<g id="a_edge30_Node000019_Node000002"><a xlink:title=" ">
<path fill="none" stroke="#63b8ff" d="M674.91,-111.69C666.16,-98.62 649.18,-74.38 632,-56 622.49,-45.82 610.84,-35.57 600.98,-27.43"/>
<polygon fill="#63b8ff" stroke="#63b8ff" points="603.36,-24.85 593.38,-21.29 598.96,-30.3 603.36,-24.85"/>
</a>
</g>
</g>
<!-- Node20&#45;&gt;Node19 -->
<g id="edge32_Node000020_Node000019" class="edge">
<title>Node20&#45;&gt;Node19</title>
<g id="a_edge32_Node000020_Node000019"><a xlink:title=" ">
<path fill="none" stroke="#63b8ff" d="M702.47,-167.59C699.15,-160.7 694.53,-151.1 690.42,-142.57"/>
<polygon fill="#63b8ff" stroke="#63b8ff" points="693.63,-141.15 686.13,-133.66 687.32,-144.19 693.63,-141.15"/>
</a>
</g>
</g>
<!-- Node20&#45;&gt;Node21 -->
<g id="edge33_Node000020_Node000021" class="edge">
<title>Node20&#45;&gt;Node21</title>
<g id="a_edge33_Node000020_Node000021"><a xlink:title=" ">
<path fill="none" stroke="#63b8ff" d="M716.58,-167.59C724.23,-160.08 735.16,-149.35 744.38,-140.3"/>
<polygon fill="#63b8ff" stroke="#63b8ff" points="746.77,-142.86 751.45,-133.36 741.86,-137.87 746.77,-142.86"/>
</a>
</g>
</g>
<!-- Node21&#45;&gt;Node12 -->
<g id="edge34_Node000021_Node000012" class="edge">
<title>Node21&#45;&gt;Node12</title>
<g id="a_edge34_Node000021_Node000012"><a xlink:title=" ">
<path fill="none" stroke="#63b8ff" d="M777.15,-111.59C790.05,-103.59 808.83,-91.93 823.96,-82.54"/>
<polygon fill="#63b8ff" stroke="#63b8ff" points="825.79,-85.53 832.44,-77.28 822.1,-79.58 825.79,-85.53"/>
</a>
</g>
</g>
<!-- Node22 -->
<g id="Node000022" class="node">
<title>Node22</title>
<g id="a_Node000022"><a xlink:title=" ">
<polygon fill="#e0e0e0" stroke="#999999" points="799.5,-76 720.5,-76 720.5,-56 799.5,-56 799.5,-76"/>
<text xml:space="preserve" text-anchor="middle" x="760" y="-62.5" font-family="Helvetica,sans-Serif" font-size="10.00">DirectXmath.h</text>
</a>
</g>
</g>
<!-- Node21&#45;&gt;Node22 -->
<g id="edge35_Node000021_Node000022" class="edge">
<title>Node21&#45;&gt;Node22</title>
<g id="a_edge35_Node000021_Node000022"><a xlink:title=" ">
<path fill="none" stroke="#63b8ff" d="M761.65,-111.59C761.41,-105.01 761.07,-95.96 760.77,-87.73"/>
<polygon fill="#63b8ff" stroke="#63b8ff" points="764.27,-87.67 760.4,-77.81 757.27,-87.93 764.27,-87.67"/>
</a>
</g>
</g>
<!-- Node23&#45;&gt;Node7 -->
<g id="edge38_Node000023_Node000007" class="edge">
<title>Node23&#45;&gt;Node7</title>
<g id="a_edge38_Node000023_Node000007"><a xlink:title=" ">
<path fill="none" stroke="#63b8ff" d="M881.25,-187.12C879.82,-187.42 878.4,-187.72 877,-188 797.17,-204.16 702.4,-220.42 652.42,-228.23"/>
<polygon fill="#63b8ff" stroke="#63b8ff" points="652.14,-224.73 642.79,-229.71 653.21,-231.65 652.14,-224.73"/>
</a>
</g>
</g>
<!-- Node23&#45;&gt;Node13 -->
<g id="edge39_Node000023_Node000013" class="edge">
<title>Node23&#45;&gt;Node13</title>
<g id="a_edge39_Node000023_Node000013"><a xlink:title=" ">
<path fill="none" stroke="#63b8ff" d="M908.06,-167.6C908.21,-141.46 908.66,-67.48 908.88,-31.36"/>
<polygon fill="#63b8ff" stroke="#63b8ff" points="912.37,-31.83 908.93,-21.81 905.37,-31.79 912.37,-31.83"/>
</a>
</g>
</g>
<!-- Node24&#45;&gt;Node7 -->
<g id="edge41_Node000024_Node000007" class="edge">
<title>Node24&#45;&gt;Node7</title>
<g id="a_edge41_Node000024_Node000007"><a xlink:title=" ">
<path fill="none" stroke="#63b8ff" d="M952.39,-187.93C952.26,-187.95 952.13,-187.98 952,-188 843.93,-208.57 713.96,-223.71 652.76,-229.91"/>
<polygon fill="#63b8ff" stroke="#63b8ff" points="652.58,-226.41 642.98,-230.88 653.27,-233.38 652.58,-226.41"/>
</a>
</g>
</g>
<!-- Node24&#45;&gt;Node13 -->
<g id="edge42_Node000024_Node000013" class="edge">
<title>Node24&#45;&gt;Node13</title>
<g id="a_edge42_Node000024_Node000013"><a xlink:title=" ">
<path fill="none" stroke="#63b8ff" d="M975.98,-167.6C964.7,-141.23 932.6,-66.19 917.31,-30.42"/>
<polygon fill="#63b8ff" stroke="#63b8ff" points="920.72,-29.51 913.57,-21.69 914.29,-32.26 920.72,-29.51"/>
</a>
</g>
</g>
</g>
</svg>

<g id="navigator" transform="translate(0 0)" fill="#404254">
  <rect fill="#f2f5e9" fill-opacity="0.5" stroke="#606060" stroke-width=".5" x="0" y="0" width="60" height="60"/>
  <use id="zoomplus" xlink:href="#zoomPlus" x="17" y="9" onmousedown="handleZoom(evt,'in')"/>
  <use id="zoomminus" xlink:href="#zoomMin" x="42" y="9" onmousedown="handleZoom(evt,'out')"/>
  <use id="reset" xlink:href="#resetDef" x="30" y="36" onmousedown="handleReset()"/>
   <use id="arrowup" xlink:href="#arrowUp" x="0" y="0" onmousedown="handlePan(0,-1)"/>
  <use id="arrowright" xlink:href="#arrowRight" x="0" y="0" onmousedown="handlePan(1,0)"/>
  <use id="arrowdown" xlink:href="#arrowDown" x="0" y="0" onmousedown="handlePan(0,1)"/>
  <use id="arrowleft" xlink:href="#arrowLeft" x="0" y="0" onmousedown="handlePan(-1,0)"/>
</g>
<svg viewBox="0 0 15 15" width="100%" height="30px" preserveAspectRatio="xMaxYMin meet">
 <g id="arrow_out" transform="scale(0.3 0.3)">
  <a xlink:href="a00051_org.svg" target="_base">
   <rect id="button" ry="5" rx="5" y="6" x="6" height="38" width="38"
        fill="#f2f5e9" fill-opacity="0.5" stroke="#606060" stroke-width="1.0"/>
   <path id="arrow"
     d="M 11.500037,31.436501 C 11.940474,20.09759 22.043105,11.32322 32.158766,21.979434 L 37.068811,17.246167 C 37.068811,17.246167 37.088388,32 37.088388,32 L 22.160133,31.978069 C 22.160133,31.978069 26.997745,27.140456 26.997745,27.140456 C 18.528582,18.264221 13.291696,25.230495 11.500037,31.436501 z"
     style="fill:#404040;"/>
  </a>
 </g>
</svg>

<style type='text/css'>
<![CDATA[
[data-mouse-over-selected='false'] { opacity: 0.7; }
[data-mouse-over-selected='true']  { opacity: 1.0; }
]]>
</style>
<script type="application/ecmascript"><![CDATA[
document.addEventListener('DOMContentLoaded', (event) => {
  highlightEdges();
  highlightAdjacentNodes();
});
]]></script>
</svg>
