<?xml version="1.0" encoding="UTF-8" standalone="no"?>
<!DOCTYPE svg PUBLIC "-//W3C//DTD SVG 1.1//EN"
 "http://www.w3.org/Graphics/SVG/1.1/DTD/svg11.dtd">
<!-- Generated by graphviz version 13.1.2 (20250808.2320)
 -->
<!-- Title: DrawText Pages: 1 -->
<svg width="361pt" height="66pt"
 viewBox="0.00 0.00 361.00 66.00" xmlns="http://www.w3.org/2000/svg" xmlns:xlink="http://www.w3.org/1999/xlink">
<g id="graph0" class="graph" transform="scale(1 1) rotate(0) translate(4 62)">
<title>DrawText</title>
<!-- Node1 -->
<g id="Node000001" class="node">
<title>Node1</title>
<g id="a_Node000001"><a xlink:title=" ">
<polygon fill="#999999" stroke="#666666" points="352.75,-39 294.75,-39 294.75,-19 352.75,-19 352.75,-39"/>
<text xml:space="preserve" text-anchor="middle" x="323.75" y="-25.5" font-family="Helvetica,sans-Serif" font-size="10.00">DrawText</text>
</a>
</g>
</g>
<!-- Node1&#45;&gt;Node1 -->
<g id="edge1_Node000001_Node000001" class="edge">
<title>Node1&#45;&gt;Node1</title>
<g id="a_edge1_Node000001_Node000001"><a xlink:title=" ">
<path fill="none" stroke="#63b8ff" d="M340.3,-50.44C338.17,-54.3 332.65,-57 323.75,-57 307.48,-57 302.52,-47.98 308.87,-39.34"/>
<polygon fill="#63b8ff" stroke="#63b8ff" points="343.8,-50.2 338.85,-40.84 336.88,-51.24 343.8,-50.2"/>
</a>
</g>
</g>
<!-- Node2 -->
<g id="Node000002" class="node">
<title>Node2</title>
<g id="a_Node000002"><a xlink:href="a00050_a8b5e6c31a2a6e19c38a0df9083df6f15.html#a8b5e6c31a2a6e19c38a0df9083df6f15" target="_top" xlink:title=" ">
<polygon fill="white" stroke="#666666" points="255.38,-58 204.88,-58 204.88,-38 255.38,-38 255.38,-58"/>
<text xml:space="preserve" text-anchor="middle" x="230.12" y="-44.5" font-family="Helvetica,sans-Serif" font-size="10.00">PutFPS</text>
</a>
</g>
</g>
<!-- Node1&#45;&gt;Node2 -->
<g id="edge2_Node000001_Node000002" class="edge">
<title>Node1&#45;&gt;Node2</title>
<g id="a_edge2_Node000001_Node000002"><a xlink:title=" ">
<path fill="none" stroke="#63b8ff" d="M283.12,-37.22C273.76,-39.16 264.04,-41.17 255.58,-42.93"/>
<polygon fill="#63b8ff" stroke="#63b8ff" points="283.7,-40.67 292.78,-35.21 282.28,-33.82 283.7,-40.67"/>
</a>
</g>
</g>
<!-- Node5 -->
<g id="Node000005" class="node">
<title>Node5</title>
<g id="a_Node000005"><a xlink:href="a00059_af4dd0814523522c2ef17aa2ec8079afc.html#af4dd0814523522c2ef17aa2ec8079afc" target="_top" xlink:title="도움말 출력">
<polygon fill="white" stroke="#666666" points="258.75,-20 201.5,-20 201.5,0 258.75,0 258.75,-20"/>
<text xml:space="preserve" text-anchor="middle" x="230.12" y="-6.5" font-family="Helvetica,sans-Serif" font-size="10.00">ShowInfo</text>
</a>
</g>
</g>
<!-- Node1&#45;&gt;Node5 -->
<g id="edge5_Node000001_Node000005" class="edge">
<title>Node1&#45;&gt;Node5</title>
<g id="a_edge5_Node000001_Node000005"><a xlink:title=" ">
<path fill="none" stroke="#63b8ff" d="M283.07,-20.77C274.95,-19.09 266.56,-17.35 258.97,-15.77"/>
<polygon fill="#63b8ff" stroke="#63b8ff" points="282.28,-24.18 292.78,-22.79 283.7,-17.33 282.28,-24.18"/>
</a>
</g>
</g>
<!-- Node3 -->
<g id="Node000003" class="node">
<title>Node3</title>
<g id="a_Node000003"><a xlink:href="a00059_a6d72e579f5eb095a38091a15d586f1a9.html#a6d72e579f5eb095a38091a15d586f1a9" target="_top" xlink:title="\u{2b50} 장면 그리기">
<polygon fill="white" stroke="#666666" points="165.5,-39 90.25,-39 90.25,-19 165.5,-19 165.5,-39"/>
<text xml:space="preserve" text-anchor="middle" x="127.88" y="-25.5" font-family="Helvetica,sans-Serif" font-size="10.00">SceneRender</text>
</a>
</g>
</g>
<!-- Node2&#45;&gt;Node3 -->
<g id="edge3_Node000002_Node000003" class="edge">
<title>Node2&#45;&gt;Node3</title>
<g id="a_edge3_Node000002_Node000003"><a xlink:title=" ">
<path fill="none" stroke="#63b8ff" d="M193.3,-41.21C184.32,-39.51 174.68,-37.68 165.66,-35.97"/>
<polygon fill="#63b8ff" stroke="#63b8ff" points="192.64,-44.65 203.11,-43.07 193.94,-37.77 192.64,-44.65"/>
</a>
</g>
</g>
<!-- Node4 -->
<g id="Node000004" class="node">
<title>Node4</title>
<g id="a_Node000004"><a xlink:href="a00056_a1122673f59be78a3997ec7dd1c4688f9.html#a1122673f59be78a3997ec7dd1c4688f9" target="_top" xlink:title="애플리케이션 메인 함수.">
<polygon fill="white" stroke="#666666" points="54.25,-39 0,-39 0,-19 54.25,-19 54.25,-39"/>
<text xml:space="preserve" text-anchor="middle" x="27.12" y="-25.5" font-family="Helvetica,sans-Serif" font-size="10.00">WinMain</text>
</a>
</g>
</g>
<!-- Node3&#45;&gt;Node4 -->
<g id="edge4_Node000003_Node000004" class="edge">
<title>Node3&#45;&gt;Node4</title>
<g id="a_edge4_Node000003_Node000004"><a xlink:title=" ">
<path fill="none" stroke="#63b8ff" d="M78.36,-29C70.17,-29 61.95,-29 54.6,-29"/>
<polygon fill="#63b8ff" stroke="#63b8ff" points="78.31,-32.5 88.31,-29 78.31,-25.5 78.31,-32.5"/>
</a>
</g>
</g>
<!-- Node5&#45;&gt;Node3 -->
<g id="edge6_Node000005_Node000003" class="edge">
<title>Node5&#45;&gt;Node3</title>
<g id="a_edge6_Node000005_Node000003"><a xlink:title=" ">
<path fill="none" stroke="#63b8ff" d="M190.16,-17.38C182.1,-18.91 173.63,-20.52 165.65,-22.03"/>
<polygon fill="#63b8ff" stroke="#63b8ff" points="190.54,-20.88 199.71,-15.57 189.24,-14 190.54,-20.88"/>
</a>
</g>
</g>
</g>
</svg>
