<?xml version="1.0" encoding="UTF-8" standalone="no"?>
<!DOCTYPE svg PUBLIC "-//W3C//DTD SVG 1.1//EN"
 "http://www.w3.org/Graphics/SVG/1.1/DTD/svg11.dtd">
<!-- Generated by graphviz version 13.1.2 (20250808.2320)
 -->
<!-- Title: Yena/ynB3Graphics.cpp Pages: 1 -->
<!--zoomable 308 -->

<svg id="main" version="1.1" xmlns="http://www.w3.org/2000/svg" xmlns:xlink="http://www.w3.org/1999/xlink" xml:space="preserve" onload="init(evt)">

<style type="text/css"><![CDATA[
.node, .edge {opacity: 0.7;}
.node.selected, .edge.selected {opacity: 1;}
.edge:hover path { stroke: red; }
.edge:hover polygon { stroke: red; fill: red; }
]]></style>

<defs>
  <circle id="rim" cx="0" cy="0" r="7"/>
  <circle id="rim2" cx="0" cy="0" r="3.5"/>
  <g id="zoomPlus">
    <use xlink:href="#rim" fill="#404040"><set attributeName="fill" to="#808080" begin="zoomplus.mouseover" end="zoomplus.mouseout"/></use>
    <path d="M-4,0h8M0,-4v8" fill="none" stroke="white" stroke-width="1.5" pointer-events="none"/>
  </g>
  <g id="zoomMin">
    <use xlink:href="#rim" fill="#404040"><set attributeName="fill" to="#808080" begin="zoomminus.mouseover" end="zoomminus.mouseout"/></use>
    <path d="M-4,0h8" fill="none" stroke="white" stroke-width="1.5" pointer-events="none"/>
  </g>
  <g id="arrowUp" transform="translate(30 24)">
    <use xlink:href="#rim"/>
    <path pointer-events="none" fill="none" stroke="white" stroke-width="1.5" d="M0,-3.0v7 M-2.5,-0.5L0,-3.0L2.5,-0.5"/>
  </g>
  <g id="arrowRight" transform="rotate(90) translate(36 -43)">
    <use xlink:href="#rim"/>
    <path pointer-events="none" fill="none" stroke="white" stroke-width="1.5" d="M0,-3.0v7 M-2.5,-0.5L0,-3.0L2.5,-0.5"/>
  </g>
  <g id="arrowDown" transform="rotate(180) translate(-30 -48)">
    <use xlink:href="#rim"/>
    <path pointer-events="none" fill="none" stroke="white" stroke-width="1.5" d="M0,-3.0v7 M-2.5,-0.5L0,-3.0L2.5,-0.5"/>
  </g>
  <g id="arrowLeft" transform="rotate(270) translate(-36 17)">
    <use xlink:href="#rim"/>
    <path pointer-events="none" fill="none" stroke="white" stroke-width="1.5" d="M0,-3.0v7 M-2.5,-0.5L0,-3.0L2.5,-0.5"/>
  </g>
  <g id="resetDef">
    <use xlink:href="#rim2" fill="#404040"><set attributeName="fill" to="#808080" begin="reset.mouseover" end="reset.mouseout"/></use>
  </g>
</defs>
<script type="application/ecmascript">
var viewWidth = 979;
var viewHeight = 308;
var sectionId = 'dynsection-0';
</script>
<script type="application/ecmascript" xlink:href="svg.min.js"/>
<svg id="graph" class="graph">
<g id="viewport">
<title>Yena/ynB3Graphics.cpp</title>
<!-- Node1 -->
<g id="Node000001" class="node">
<title>Node1</title>
<g id="a_Node000001"><a xlink:title="Yena 그래픽스 엔진 소스 파일">
<polygon fill="#999999" stroke="#666666" points="655.88,-300 534.88,-300 534.88,-280 655.88,-280 655.88,-300"/>
<text xml:space="preserve" text-anchor="middle" x="595.38" y="-286.5" font-family="Helvetica,sans-Serif" font-size="10.00">Yena/ynB3Graphics.cpp</text>
</a>
</g>
</g>
<!-- Node2 -->
<g id="Node000002" class="node">
<title>Node2</title>
<g id="a_Node000002"><a xlink:href="a00068.html" target="_top" xlink:title="Yena SWR 기본 헤더 파일 (v1.x)">
<polygon fill="white" stroke="#666666" points="395.38,-244 349.38,-244 349.38,-224 395.38,-224 395.38,-244"/>
<text xml:space="preserve" text-anchor="middle" x="372.38" y="-230.5" font-family="Helvetica,sans-Serif" font-size="10.00">Yena.h</text>
</a>
</g>
</g>
<!-- Node1&#45;&gt;Node2 -->
<g id="edge1_Node000001_Node000002" class="edge">
<title>Node1&#45;&gt;Node2</title>
<g id="a_edge1_Node000001_Node000002"><a xlink:title=" ">
<path fill="none" stroke="#63b8ff" d="M556.28,-279.53C513.98,-269.29 447.21,-253.12 406.82,-243.34"/>
<polygon fill="#63b8ff" stroke="#63b8ff" points="407.7,-239.95 397.15,-241 406.05,-246.76 407.7,-239.95"/>
</a>
</g>
</g>
<!-- Node23 -->
<g id="Node000023" class="node">
<title>Node23</title>
<g id="a_Node000023"><a xlink:href="a00077.html" target="_top" xlink:title="Yena 클래스 선행 선언 헤더.">
<polygon fill="white" stroke="#666666" points="663.5,-244 591.25,-244 591.25,-224 663.5,-224 663.5,-244"/>
<text xml:space="preserve" text-anchor="middle" x="627.38" y="-230.5" font-family="Helvetica,sans-Serif" font-size="10.00">ynB3Class.h</text>
</a>
</g>
</g>
<!-- Node1&#45;&gt;Node23 -->
<g id="edge38_Node000001_Node000023" class="edge">
<title>Node1&#45;&gt;Node23</title>
<g id="a_edge38_Node000001_Node000023"><a xlink:title=" ">
<path fill="none" stroke="#63b8ff" d="M600.95,-279.59C605.12,-272.55 610.98,-262.67 616.12,-254"/>
<polygon fill="#63b8ff" stroke="#63b8ff" points="619.01,-255.99 621.09,-245.6 612.98,-252.42 619.01,-255.99"/>
</a>
</g>
</g>
<!-- Node24 -->
<g id="Node000024" class="node">
<title>Node24</title>
<g id="a_Node000024"><a xlink:href="a00089.html" target="_top" xlink:title="정점 버퍼 운용 클래스 헤더">
<polygon fill="white" stroke="#666666" points="753.38,-188 653.38,-188 653.38,-168 753.38,-168 753.38,-188"/>
<text xml:space="preserve" text-anchor="middle" x="703.38" y="-174.5" font-family="Helvetica,sans-Serif" font-size="10.00">ynB3VertexBuffer.h</text>
</a>
</g>
</g>
<!-- Node1&#45;&gt;Node24 -->
<g id="edge39_Node000001_Node000024" class="edge">
<title>Node1&#45;&gt;Node24</title>
<g id="a_edge39_Node000001_Node000024"><a xlink:title=" ">
<path fill="none" stroke="#63b8ff" d="M589.49,-279.71C581.78,-266.23 570.55,-241.01 582.38,-224 590.94,-211.68 623.64,-199.94 652.9,-191.54"/>
<polygon fill="#63b8ff" stroke="#63b8ff" points="653.72,-194.94 662.42,-188.89 651.85,-188.2 653.72,-194.94"/>
</a>
</g>
</g>
<!-- Node25 -->
<g id="Node000025" class="node">
<title>Node25</title>
<g id="a_Node000025"><a xlink:href="a00083.html" target="_top" xlink:title="Yena 그래픽스 엔진 헤더 파일">
<polygon fill="white" stroke="#666666" points="767.25,-244 681.5,-244 681.5,-224 767.25,-224 767.25,-244"/>
<text xml:space="preserve" text-anchor="middle" x="724.38" y="-230.5" font-family="Helvetica,sans-Serif" font-size="10.00">ynB3Graphics.h</text>
</a>
</g>
</g>
<!-- Node1&#45;&gt;Node25 -->
<g id="edge47_Node000001_Node000025" class="edge">
<title>Node1&#45;&gt;Node25</title>
<g id="a_edge47_Node000001_Node000025"><a xlink:title=" ">
<path fill="none" stroke="#63b8ff" d="M617.85,-279.59C638.16,-271.09 668.33,-258.46 691.38,-248.81"/>
<polygon fill="#63b8ff" stroke="#63b8ff" points="692.46,-252.15 700.33,-245.06 689.76,-245.7 692.46,-252.15"/>
</a>
</g>
</g>
<!-- Node3 -->
<g id="Node000003" class="node">
<title>Node3</title>
<g id="a_Node000003"><a xlink:title=" ">
<polygon fill="#e0e0e0" stroke="#999999" points="414.62,-20 352.12,-20 352.12,0 414.62,0 414.62,-20"/>
<text xml:space="preserve" text-anchor="middle" x="383.38" y="-6.5" font-family="Helvetica,sans-Serif" font-size="10.00">windows.h</text>
</a>
</g>
</g>
<!-- Node2&#45;&gt;Node3 -->
<g id="edge2_Node000002_Node000003" class="edge">
<title>Node2&#45;&gt;Node3</title>
<g id="a_edge2_Node000002_Node000003"><a xlink:title=" ">
<path fill="none" stroke="#63b8ff" d="M373.29,-223.79C375.44,-203.43 381.37,-153.12 391.38,-112 395.36,-95.61 400.67,-92.65 403.38,-76 404.8,-67.23 405.22,-64.7 403.38,-56 401.51,-47.23 397.83,-38.1 394.12,-30.38"/>
<polygon fill="#63b8ff" stroke="#63b8ff" points="397.28,-28.88 389.57,-21.61 391.07,-32.1 397.28,-28.88"/>
</a>
</g>
</g>
<!-- Node4 -->
<g id="Node000004" class="node">
<title>Node4</title>
<g id="a_Node000004"><a xlink:title=" ">
<polygon fill="#e0e0e0" stroke="#999999" points="446.38,-132 400.38,-132 400.38,-112 446.38,-112 446.38,-132"/>
<text xml:space="preserve" text-anchor="middle" x="423.38" y="-118.5" font-family="Helvetica,sans-Serif" font-size="10.00">tchar.h</text>
</a>
</g>
</g>
<!-- Node2&#45;&gt;Node4 -->
<g id="edge3_Node000002_Node000004" class="edge">
<title>Node2&#45;&gt;Node4</title>
<g id="a_edge3_Node000002_Node000004"><a xlink:title=" ">
<path fill="none" stroke="#63b8ff" d="M376.72,-223.62C385,-205.76 403.19,-166.53 414.26,-142.67"/>
<polygon fill="#63b8ff" stroke="#63b8ff" points="417.37,-144.27 418.4,-133.73 411.02,-141.33 417.37,-144.27"/>
</a>
</g>
</g>
<!-- Node5 -->
<g id="Node000005" class="node">
<title>Node5</title>
<g id="a_Node000005"><a xlink:title=" ">
<polygon fill="#e0e0e0" stroke="#999999" points="600.38,-132 554.38,-132 554.38,-112 600.38,-112 600.38,-132"/>
<text xml:space="preserve" text-anchor="middle" x="577.38" y="-118.5" font-family="Helvetica,sans-Serif" font-size="10.00">math.h</text>
</a>
</g>
</g>
<!-- Node2&#45;&gt;Node5 -->
<g id="edge4_Node000002_Node000005" class="edge">
<title>Node2&#45;&gt;Node5</title>
<g id="a_edge4_Node000002_Node000005"><a xlink:title=" ">
<path fill="none" stroke="#63b8ff" d="M388.77,-223.52C411.13,-210.66 452.52,-187.1 488.38,-168 508.12,-157.48 530.6,-146.12 548.03,-137.45"/>
<polygon fill="#63b8ff" stroke="#63b8ff" points="549.4,-140.67 556.8,-133.09 546.29,-134.4 549.4,-140.67"/>
</a>
</g>
</g>
<!-- Node6 -->
<g id="Node000006" class="node">
<title>Node6</title>
<g id="a_Node000006"><a xlink:title=" ">
<polygon fill="#e0e0e0" stroke="#999999" points="664,-132 618.75,-132 618.75,-112 664,-112 664,-132"/>
<text xml:space="preserve" text-anchor="middle" x="641.38" y="-118.5" font-family="Helvetica,sans-Serif" font-size="10.00">stdio.h</text>
</a>
</g>
</g>
<!-- Node2&#45;&gt;Node6 -->
<g id="edge5_Node000002_Node000006" class="edge">
<title>Node2&#45;&gt;Node6</title>
<g id="a_edge5_Node000002_Node000006"><a xlink:title=" ">
<path fill="none" stroke="#63b8ff" d="M395.71,-231.23C433.45,-227.6 509.38,-217.03 566.38,-188 589.77,-176.09 611.89,-155.33 625.96,-140.47"/>
<polygon fill="#63b8ff" stroke="#63b8ff" points="628.42,-142.97 632.6,-133.23 623.26,-138.24 628.42,-142.97"/>
</a>
</g>
</g>
<!-- Node7 -->
<g id="Node000007" class="node">
<title>Node7</title>
<g id="a_Node000007"><a xlink:title=" ">
<polygon fill="#e0e0e0" stroke="#999999" points="895.38,-132 855.38,-132 855.38,-112 895.38,-112 895.38,-132"/>
<text xml:space="preserve" text-anchor="middle" x="875.38" y="-118.5" font-family="Helvetica,sans-Serif" font-size="10.00">string</text>
</a>
</g>
</g>
<!-- Node2&#45;&gt;Node7 -->
<g id="edge6_Node000002_Node000007" class="edge">
<title>Node2&#45;&gt;Node7</title>
<g id="a_edge6_Node000002_Node000007"><a xlink:title=" ">
<path fill="none" stroke="#63b8ff" d="M395.85,-232.06C472.54,-228.75 714.97,-216.26 787.38,-188 815.14,-177.16 841.94,-155.18 858.52,-139.8"/>
<polygon fill="#63b8ff" stroke="#63b8ff" points="860.72,-142.53 865.52,-133.09 855.88,-137.48 860.72,-142.53"/>
</a>
</g>
</g>
<!-- Node8 -->
<g id="Node000008" class="node">
<title>Node8</title>
<g id="a_Node000008"><a xlink:title=" ">
<polygon fill="#e0e0e0" stroke="#999999" points="724.88,-132 681.88,-132 681.88,-112 724.88,-112 724.88,-132"/>
<text xml:space="preserve" text-anchor="middle" x="703.38" y="-118.5" font-family="Helvetica,sans-Serif" font-size="10.00">vector</text>
</a>
</g>
</g>
<!-- Node2&#45;&gt;Node8 -->
<g id="edge7_Node000002_Node000008" class="edge">
<title>Node2&#45;&gt;Node8</title>
<g id="a_edge7_Node000002_Node000008"><a xlink:title=" ">
<path fill="none" stroke="#63b8ff" d="M395.58,-230.95C436.94,-226.73 525.61,-215.1 595.38,-188 627.46,-175.54 660.88,-153.86 681.89,-138.99"/>
<polygon fill="#63b8ff" stroke="#63b8ff" points="683.86,-141.88 689.92,-133.19 679.76,-136.21 683.86,-141.88"/>
</a>
</g>
</g>
<!-- Node9 -->
<g id="Node000009" class="node">
<title>Node9</title>
<g id="a_Node000009"><a xlink:title=" ">
<polygon fill="#e0e0e0" stroke="#999999" points="837.25,-132 781.5,-132 781.5,-112 837.25,-112 837.25,-132"/>
<text xml:space="preserve" text-anchor="middle" x="809.38" y="-118.5" font-family="Helvetica,sans-Serif" font-size="10.00">algorithm</text>
</a>
</g>
</g>
<!-- Node2&#45;&gt;Node9 -->
<g id="edge8_Node000002_Node000009" class="edge">
<title>Node2&#45;&gt;Node9</title>
<g id="a_edge8_Node000002_Node000009"><a xlink:title=" ">
<path fill="none" stroke="#63b8ff" d="M395.86,-232.73C470.27,-231.51 699.59,-224.77 762.38,-188 779.99,-177.68 792.85,-157.86 800.62,-142.81"/>
<polygon fill="#63b8ff" stroke="#63b8ff" points="803.75,-144.36 804.91,-133.83 797.44,-141.34 803.75,-144.36"/>
</a>
</g>
</g>
<!-- Node10 -->
<g id="Node000010" class="node">
<title>Node10</title>
<g id="a_Node000010"><a xlink:href="a00092.html" target="_top" xlink:title="Yena SWR 엔진 기본 정의 문서.">
<polygon fill="white" stroke="#666666" points="240,-76 176.75,-76 176.75,-56 240,-56 240,-76"/>
<text xml:space="preserve" text-anchor="middle" x="208.38" y="-62.5" font-family="Helvetica,sans-Serif" font-size="10.00">ynDefine.h</text>
</a>
</g>
</g>
<!-- Node2&#45;&gt;Node10 -->
<g id="edge9_Node000002_Node000010" class="edge">
<title>Node2&#45;&gt;Node10</title>
<g id="a_edge9_Node000002_Node000010"><a xlink:title=" ">
<path fill="none" stroke="#63b8ff" d="M349.6,-223.51C317.26,-208.81 258.49,-177.44 227.38,-132 218.22,-118.63 213.42,-100.82 210.93,-87.22"/>
<polygon fill="#63b8ff" stroke="#63b8ff" points="214.44,-87.02 209.47,-77.66 207.52,-88.08 214.44,-87.02"/>
</a>
</g>
</g>
<!-- Node12 -->
<g id="Node000012" class="node">
<title>Node12</title>
<g id="a_Node000012"><a xlink:href="a00098.html" target="_top" xlink:title="에러, 예외 및 로그 처리 헤더 파일">
<polygon fill="white" stroke="#666666" points="954.25,-188 898.5,-188 898.5,-168 954.25,-168 954.25,-188"/>
<text xml:space="preserve" text-anchor="middle" x="926.38" y="-174.5" font-family="Helvetica,sans-Serif" font-size="10.00">ynError.h</text>
</a>
</g>
</g>
<!-- Node2&#45;&gt;Node12 -->
<g id="edge12_Node000002_Node000012" class="edge">
<title>Node2&#45;&gt;Node12</title>
<g id="a_edge12_Node000002_Node000012"><a xlink:title=" ">
<path fill="none" stroke="#63b8ff" d="M395.67,-231.41C466.72,-226.47 686.87,-210.29 868.38,-188 874.44,-187.25 880.85,-186.36 887.11,-185.44"/>
<polygon fill="#63b8ff" stroke="#63b8ff" points="887.25,-188.96 896.61,-183.98 886.19,-182.04 887.25,-188.96"/>
</a>
</g>
</g>
<!-- Node14 -->
<g id="Node000014" class="node">
<title>Node14</title>
<g id="a_Node000014"><a xlink:href="a00110.html" target="_top" xlink:title="Yena SWR COM / GUID 헤더">
<polygon fill="white" stroke="#666666" points="557.5,-188 497.25,-188 497.25,-168 557.5,-168 557.5,-188"/>
<text xml:space="preserve" text-anchor="middle" x="527.38" y="-174.5" font-family="Helvetica,sans-Serif" font-size="10.00">ynGUID.h</text>
</a>
</g>
</g>
<!-- Node2&#45;&gt;Node14 -->
<g id="edge14_Node000002_Node000014" class="edge">
<title>Node2&#45;&gt;Node14</title>
<g id="a_edge14_Node000002_Node000014"><a xlink:title=" ">
<path fill="none" stroke="#63b8ff" d="M395.58,-224.92C420.44,-216.25 460.29,-202.37 489.66,-192.14"/>
<polygon fill="#63b8ff" stroke="#63b8ff" points="490.64,-195.51 498.93,-188.91 488.33,-188.9 490.64,-195.51"/>
</a>
</g>
</g>
<!-- Node16 -->
<g id="Node000016" class="node">
<title>Node16</title>
<g id="a_Node000016"><a xlink:href="a00122.html" target="_top" xlink:title="Yena SWR COM 기반 헤더 (v2.x)">
<polygon fill="white" stroke="#666666" points="393.88,-76 296.88,-76 296.88,-56 393.88,-56 393.88,-76"/>
<text xml:space="preserve" text-anchor="middle" x="345.38" y="-62.5" font-family="Helvetica,sans-Serif" font-size="10.00">ynUnknownbase.h</text>
</a>
</g>
</g>
<!-- Node2&#45;&gt;Node16 -->
<g id="edge22_Node000002_Node000016" class="edge">
<title>Node2&#45;&gt;Node16</title>
<g id="a_edge22_Node000002_Node000016"><a xlink:title=" ">
<path fill="none" stroke="#63b8ff" d="M368.94,-223.83C365.72,-214.83 361,-200.66 358.38,-188 351.14,-153.1 347.8,-111.66 346.36,-87.45"/>
<polygon fill="#63b8ff" stroke="#63b8ff" points="349.87,-87.51 345.83,-77.71 342.88,-87.89 349.87,-87.51"/>
</a>
</g>
</g>
<!-- Node17 -->
<g id="Node000017" class="node">
<title>Node17</title>
<g id="a_Node000017"><a xlink:href="a00128.html" target="_top" xlink:title="Yena SW 엔진 자료형 정의 : DX9 (d3d9types.h) 대응">
<polygon fill="white" stroke="#666666" points="306,-132 236.75,-132 236.75,-112 306,-112 306,-132"/>
<text xml:space="preserve" text-anchor="middle" x="271.38" y="-118.5" font-family="Helvetica,sans-Serif" font-size="10.00">ynx9types.h</text>
</a>
</g>
</g>
<!-- Node2&#45;&gt;Node17 -->
<g id="edge24_Node000002_Node000017" class="edge">
<title>Node2&#45;&gt;Node17</title>
<g id="a_edge24_Node000002_Node000017"><a xlink:title=" ">
<path fill="none" stroke="#63b8ff" d="M360.17,-223.66C349.2,-214.99 332.93,-201.43 320.38,-188 306.69,-173.36 293.12,-154.98 283.75,-141.51"/>
<polygon fill="#63b8ff" stroke="#63b8ff" points="286.85,-139.84 278.32,-133.56 281.07,-143.79 286.85,-139.84"/>
</a>
</g>
</g>
<!-- Node18 -->
<g id="Node000018" class="node">
<title>Node18</title>
<g id="a_Node000018"><a xlink:href="a00125.html" target="_top" xlink:title="Yena SWR 인터페이스 헤더 : DX9 (d3d9.h) 대응">
<polygon fill="white" stroke="#666666" points="227,-188 181.75,-188 181.75,-168 227,-168 227,-188"/>
<text xml:space="preserve" text-anchor="middle" x="204.38" y="-174.5" font-family="Helvetica,sans-Serif" font-size="10.00">ynx9.h</text>
</a>
</g>
</g>
<!-- Node2&#45;&gt;Node18 -->
<g id="edge26_Node000002_Node000018" class="edge">
<title>Node2&#45;&gt;Node18</title>
<g id="a_edge26_Node000002_Node000018"><a xlink:title=" ">
<path fill="none" stroke="#63b8ff" d="M349.02,-225.49C320.22,-216.24 271.08,-200.44 238.17,-189.86"/>
<polygon fill="#63b8ff" stroke="#63b8ff" points="239.3,-186.55 228.71,-186.82 237.16,-193.21 239.3,-186.55"/>
</a>
</g>
</g>
<!-- Node19 -->
<g id="Node000019" class="node">
<title>Node19</title>
<g id="a_Node000019"><a xlink:href="a00116.html" target="_top" xlink:title="\u{2b50} Yena 수학 라이브러리 Yena Math Library for DirectX / OpenGL">
<polygon fill="white" stroke="#666666" points="180.62,-132 124.12,-132 124.12,-112 180.62,-112 180.62,-132"/>
<text xml:space="preserve" text-anchor="middle" x="152.38" y="-118.5" font-family="Helvetica,sans-Serif" font-size="10.00">ynMath.h</text>
</a>
</g>
</g>
<!-- Node2&#45;&gt;Node19 -->
<g id="edge31_Node000002_Node000019" class="edge">
<title>Node2&#45;&gt;Node19</title>
<g id="a_edge31_Node000002_Node000019"><a xlink:title=" ">
<path fill="none" stroke="#63b8ff" d="M349.14,-230.69C302.14,-225.55 198.04,-211.75 172.38,-188 160.18,-176.71 155.35,-158.18 153.47,-143.79"/>
<polygon fill="#63b8ff" stroke="#63b8ff" points="156.97,-143.65 152.6,-134 150,-144.27 156.97,-143.65"/>
</a>
</g>
</g>
<!-- Node21 -->
<g id="Node000021" class="node">
<title>Node21</title>
<g id="a_Node000021"><a xlink:href="a00104.html" target="_top" xlink:title="그리드 클래스 헤더.">
<polygon fill="white" stroke="#666666" points="52.75,-188 0,-188 0,-168 52.75,-168 52.75,-188"/>
<text xml:space="preserve" text-anchor="middle" x="26.38" y="-174.5" font-family="Helvetica,sans-Serif" font-size="10.00">ynGrid.h</text>
</a>
</g>
</g>
<!-- Node2&#45;&gt;Node21 -->
<g id="edge32_Node000002_Node000021" class="edge">
<title>Node2&#45;&gt;Node21</title>
<g id="a_edge32_Node000002_Node000021"><a xlink:title=" ">
<path fill="none" stroke="#63b8ff" d="M349.01,-230.92C297.51,-225.63 171.5,-210.6 64,-190.06"/>
<polygon fill="#63b8ff" stroke="#63b8ff" points="64.96,-186.68 54.48,-188.21 63.63,-193.55 64.96,-186.68"/>
</a>
</g>
</g>
<!-- Node22 -->
<g id="Node000022" class="node">
<title>Node22</title>
<g id="a_Node000022"><a xlink:href="a00074.html" target="_top" xlink:title="공간축 클래스 헤더.">
<polygon fill="white" stroke="#666666" points="125.5,-188 71.25,-188 71.25,-168 125.5,-168 125.5,-188"/>
<text xml:space="preserve" text-anchor="middle" x="98.38" y="-174.5" font-family="Helvetica,sans-Serif" font-size="10.00">ynAxis.h</text>
</a>
</g>
</g>
<!-- Node2&#45;&gt;Node22 -->
<g id="edge35_Node000002_Node000022" class="edge">
<title>Node2&#45;&gt;Node22</title>
<g id="a_edge35_Node000002_Node000022"><a xlink:title=" ">
<path fill="none" stroke="#63b8ff" d="M349.05,-229.6C307.35,-222.61 218.17,-205.95 136.53,-189.25"/>
<polygon fill="#63b8ff" stroke="#63b8ff" points="137.57,-185.89 127.07,-187.3 136.16,-192.75 137.57,-185.89"/>
</a>
</g>
</g>
<!-- Node10&#45;&gt;Node3 -->
<g id="edge10_Node000010_Node000003" class="edge">
<title>Node10&#45;&gt;Node3</title>
<g id="a_edge10_Node000010_Node000003"><a xlink:title=" ">
<path fill="none" stroke="#63b8ff" d="M238.86,-55.59C267.41,-46.78 310.32,-33.54 341.97,-23.78"/>
<polygon fill="#63b8ff" stroke="#63b8ff" points="342.68,-27.22 351.21,-20.93 340.62,-20.53 342.68,-27.22"/>
</a>
</g>
</g>
<!-- Node11 -->
<g id="Node000011" class="node">
<title>Node11</title>
<g id="a_Node000011"><a xlink:title=" ">
<polygon fill="#e0e0e0" stroke="#999999" points="77,-20 25.75,-20 25.75,0 77,0 77,-20"/>
<text xml:space="preserve" text-anchor="middle" x="51.38" y="-6.5" font-family="Helvetica,sans-Serif" font-size="10.00">assert.h</text>
</a>
</g>
</g>
<!-- Node10&#45;&gt;Node11 -->
<g id="edge11_Node000010_Node000011" class="edge">
<title>Node10&#45;&gt;Node11</title>
<g id="a_edge11_Node000010_Node000011"><a xlink:title=" ">
<path fill="none" stroke="#63b8ff" d="M181.03,-55.59C155.28,-46.74 116.52,-33.41 88.09,-23.63"/>
<polygon fill="#63b8ff" stroke="#63b8ff" points="89.39,-20.37 78.8,-20.43 87.12,-26.99 89.39,-20.37"/>
</a>
</g>
</g>
<!-- Node13 -->
<g id="Node000013" class="node">
<title>Node13</title>
<g id="a_Node000013"><a xlink:title=" ">
<polygon fill="#e0e0e0" stroke="#999999" points="971.38,-132 913.38,-132 913.38,-112 971.38,-112 971.38,-132"/>
<text xml:space="preserve" text-anchor="middle" x="942.38" y="-118.5" font-family="Helvetica,sans-Serif" font-size="10.00">exception</text>
</a>
</g>
</g>
<!-- Node12&#45;&gt;Node13 -->
<g id="edge13_Node000012_Node000013" class="edge">
<title>Node12&#45;&gt;Node13</title>
<g id="a_edge13_Node000012_Node000013"><a xlink:title=" ">
<path fill="none" stroke="#63b8ff" d="M929.16,-167.59C931.16,-160.86 933.92,-151.53 936.4,-143.15"/>
<polygon fill="#63b8ff" stroke="#63b8ff" points="939.7,-144.33 939.19,-133.75 932.99,-142.34 939.7,-144.33"/>
</a>
</g>
</g>
<!-- Node14&#45;&gt;Node3 -->
<g id="edge15_Node000014_Node000003" class="edge">
<title>Node14&#45;&gt;Node3</title>
<g id="a_edge15_Node000014_Node000003"><a xlink:title=" ">
<path fill="none" stroke="#63b8ff" d="M526.27,-167.88C524.31,-154.6 519.25,-129.63 507.38,-112 481.95,-74.27 438.26,-43.45 410.11,-26.16"/>
<polygon fill="#63b8ff" stroke="#63b8ff" points="412.19,-23.33 401.81,-21.2 408.59,-29.33 412.19,-23.33"/>
</a>
</g>
</g>
<!-- Node14&#45;&gt;Node4 -->
<g id="edge16_Node000014_Node000004" class="edge">
<title>Node14&#45;&gt;Node4</title>
<g id="a_edge16_Node000014_Node000004"><a xlink:title=" ">
<path fill="none" stroke="#63b8ff" d="M509.26,-167.59C493.4,-159.36 470.09,-147.26 451.76,-137.74"/>
<polygon fill="#63b8ff" stroke="#63b8ff" points="453.46,-134.68 442.98,-133.18 450.24,-140.89 453.46,-134.68"/>
</a>
</g>
</g>
<!-- Node14&#45;&gt;Node5 -->
<g id="edge17_Node000014_Node000005" class="edge">
<title>Node14&#45;&gt;Node5</title>
<g id="a_edge17_Node000014_Node000005"><a xlink:title=" ">
<path fill="none" stroke="#63b8ff" d="M536.08,-167.59C542.97,-160.16 552.77,-149.58 561.09,-140.58"/>
<polygon fill="#63b8ff" stroke="#63b8ff" points="563.51,-143.12 567.74,-133.41 558.37,-138.37 563.51,-143.12"/>
</a>
</g>
</g>
<!-- Node14&#45;&gt;Node6 -->
<g id="edge18_Node000014_Node000006" class="edge">
<title>Node14&#45;&gt;Node6</title>
<g id="a_edge18_Node000014_Node000006"><a xlink:title=" ">
<path fill="none" stroke="#63b8ff" d="M547.23,-167.59C564.86,-159.24 590.88,-146.92 611.1,-137.34"/>
<polygon fill="#63b8ff" stroke="#63b8ff" points="612.46,-140.57 619.99,-133.13 609.46,-134.25 612.46,-140.57"/>
</a>
</g>
</g>
<!-- Node14&#45;&gt;Node8 -->
<g id="edge19_Node000014_Node000008" class="edge">
<title>Node14&#45;&gt;Node8</title>
<g id="a_edge19_Node000014_Node000008"><a xlink:title=" ">
<path fill="none" stroke="#63b8ff" d="M557.63,-167.72C589.19,-158.03 638.5,-142.91 670.87,-132.97"/>
<polygon fill="#63b8ff" stroke="#63b8ff" points="671.58,-136.42 680.11,-130.14 669.53,-129.72 671.58,-136.42"/>
</a>
</g>
</g>
<!-- Node14&#45;&gt;Node9 -->
<g id="edge21_Node000014_Node000009" class="edge">
<title>Node14&#45;&gt;Node9</title>
<g id="a_edge21_Node000014_Node000009"><a xlink:title=" ">
<path fill="none" stroke="#63b8ff" d="M557.82,-171.17C609.25,-161.32 713.27,-141.4 770.11,-130.52"/>
<polygon fill="#63b8ff" stroke="#63b8ff" points="770.51,-134.01 779.67,-128.69 769.19,-127.13 770.51,-134.01"/>
</a>
</g>
</g>
<!-- Node15 -->
<g id="Node000015" class="node">
<title>Node15</title>
<g id="a_Node000015"><a xlink:title=" ">
<polygon fill="#e0e0e0" stroke="#999999" points="498.75,-132 464,-132 464,-112 498.75,-112 498.75,-132"/>
<text xml:space="preserve" text-anchor="middle" x="481.38" y="-118.5" font-family="Helvetica,sans-Serif" font-size="10.00">map</text>
</a>
</g>
</g>
<!-- Node14&#45;&gt;Node15 -->
<g id="edge20_Node000014_Node000015" class="edge">
<title>Node14&#45;&gt;Node15</title>
<g id="a_edge20_Node000014_Node000015"><a xlink:title=" ">
<path fill="none" stroke="#63b8ff" d="M519.36,-167.59C513.1,-160.24 504.2,-149.8 496.59,-140.87"/>
<polygon fill="#63b8ff" stroke="#63b8ff" points="499.43,-138.79 490.28,-133.45 494.1,-143.33 499.43,-138.79"/>
</a>
</g>
</g>
<!-- Node16&#45;&gt;Node3 -->
<g id="edge23_Node000016_Node000003" class="edge">
<title>Node16&#45;&gt;Node3</title>
<g id="a_edge23_Node000016_Node000003"><a xlink:title=" ">
<path fill="none" stroke="#63b8ff" d="M351.99,-55.59C357.06,-48.39 364.21,-38.23 370.4,-29.43"/>
<polygon fill="#63b8ff" stroke="#63b8ff" points="373.07,-31.73 375.96,-21.54 367.34,-27.7 373.07,-31.73"/>
</a>
</g>
</g>
<!-- Node17&#45;&gt;Node3 -->
<g id="edge25_Node000017_Node000003" class="edge">
<title>Node17&#45;&gt;Node3</title>
<g id="a_edge25_Node000017_Node000003"><a xlink:title=" ">
<path fill="none" stroke="#63b8ff" d="M271.42,-111.94C271.95,-98.3 274.83,-72.34 288.38,-56 301.81,-39.79 322.43,-29.05 341.03,-22.15"/>
<polygon fill="#63b8ff" stroke="#63b8ff" points="341.91,-25.54 350.24,-19 339.65,-18.92 341.91,-25.54"/>
</a>
</g>
</g>
<!-- Node18&#45;&gt;Node17 -->
<g id="edge27_Node000018_Node000017" class="edge">
<title>Node18&#45;&gt;Node17</title>
<g id="a_edge27_Node000018_Node000017"><a xlink:title=" ">
<path fill="none" stroke="#63b8ff" d="M216.05,-167.59C225.65,-159.85 239.5,-148.69 250.94,-139.47"/>
<polygon fill="#63b8ff" stroke="#63b8ff" points="253.07,-142.25 258.66,-133.25 248.68,-136.8 253.07,-142.25"/>
</a>
</g>
</g>
<!-- Node18&#45;&gt;Node19 -->
<g id="edge28_Node000018_Node000019" class="edge">
<title>Node18&#45;&gt;Node19</title>
<g id="a_edge28_Node000018_Node000019"><a xlink:title=" ">
<path fill="none" stroke="#63b8ff" d="M195.32,-167.59C188.16,-160.16 177.97,-149.58 169.31,-140.58"/>
<polygon fill="#63b8ff" stroke="#63b8ff" points="171.84,-138.16 162.38,-133.39 166.79,-143.02 171.84,-138.16"/>
</a>
</g>
</g>
<!-- Node19&#45;&gt;Node10 -->
<g id="edge29_Node000019_Node000010" class="edge">
<title>Node19&#45;&gt;Node10</title>
<g id="a_edge29_Node000019_Node000010"><a xlink:title=" ">
<path fill="none" stroke="#63b8ff" d="M162.13,-111.59C170,-104.01 181.27,-93.13 190.72,-84.02"/>
<polygon fill="#63b8ff" stroke="#63b8ff" points="192.87,-86.81 197.64,-77.35 188.01,-81.77 192.87,-86.81"/>
</a>
</g>
</g>
<!-- Node20 -->
<g id="Node000020" class="node">
<title>Node20</title>
<g id="a_Node000020"><a xlink:title=" ">
<polygon fill="#e0e0e0" stroke="#999999" points="158.88,-76 79.88,-76 79.88,-56 158.88,-56 158.88,-76"/>
<text xml:space="preserve" text-anchor="middle" x="119.38" y="-62.5" font-family="Helvetica,sans-Serif" font-size="10.00">DirectXmath.h</text>
</a>
</g>
</g>
<!-- Node19&#45;&gt;Node20 -->
<g id="edge30_Node000019_Node000020" class="edge">
<title>Node19&#45;&gt;Node20</title>
<g id="a_edge30_Node000019_Node000020"><a xlink:title=" ">
<path fill="none" stroke="#63b8ff" d="M146.63,-111.59C142.32,-104.55 136.28,-94.67 130.99,-86"/>
<polygon fill="#63b8ff" stroke="#63b8ff" points="134.05,-84.3 125.85,-77.59 128.07,-87.95 134.05,-84.3"/>
</a>
</g>
</g>
<!-- Node21&#45;&gt;Node2 -->
<g id="edge33_Node000021_Node000002" class="edge">
<title>Node21&#45;&gt;Node2</title>
<g id="a_edge33_Node000021_Node000002"><a xlink:title=" ">
<path fill="none" stroke="#63b8ff" d="M53.19,-183.94C59.27,-185.37 65.56,-186.85 71.38,-188 167.52,-206.95 281.89,-221.51 338.07,-228.48"/>
<polygon fill="#63b8ff" stroke="#63b8ff" points="337.29,-231.91 347.64,-229.67 338.15,-224.97 337.29,-231.91"/>
</a>
</g>
</g>
<!-- Node21&#45;&gt;Node11 -->
<g id="edge34_Node000021_Node000011" class="edge">
<title>Node21&#45;&gt;Node11</title>
<g id="a_edge34_Node000021_Node000011"><a xlink:title=" ">
<path fill="none" stroke="#63b8ff" d="M26.55,-167.8C27.09,-147.45 29.19,-97.17 37.38,-56 39.03,-47.68 41.64,-38.72 44.16,-31"/>
<polygon fill="#63b8ff" stroke="#63b8ff" points="47.45,-32.19 47.4,-21.59 40.84,-29.9 47.45,-32.19"/>
</a>
</g>
</g>
<!-- Node22&#45;&gt;Node2 -->
<g id="edge36_Node000022_Node000002" class="edge">
<title>Node22&#45;&gt;Node2</title>
<g id="a_edge36_Node000022_Node000002"><a xlink:title=" ">
<path fill="none" stroke="#63b8ff" d="M125.56,-183.22C133.11,-184.76 141.1,-186.5 148.38,-188 215.46,-201.84 293.68,-216.68 337.82,-225.39"/>
<polygon fill="#63b8ff" stroke="#63b8ff" points="337.09,-228.81 347.58,-227.33 338.45,-221.95 337.09,-228.81"/>
</a>
</g>
</g>
<!-- Node22&#45;&gt;Node11 -->
<g id="edge37_Node000022_Node000011" class="edge">
<title>Node22&#45;&gt;Node11</title>
<g id="a_edge37_Node000022_Node000011"><a xlink:title=" ">
<path fill="none" stroke="#63b8ff" d="M95.71,-167.6C88.31,-141.46 67.37,-67.48 57.14,-31.36"/>
<polygon fill="#63b8ff" stroke="#63b8ff" points="60.51,-30.42 54.42,-21.75 53.78,-32.33 60.51,-30.42"/>
</a>
</g>
</g>
<!-- Node24&#45;&gt;Node3 -->
<g id="edge40_Node000024_Node000003" class="edge">
<title>Node24&#45;&gt;Node3</title>
<g id="a_edge40_Node000024_Node000003"><a xlink:title=" ">
<path fill="none" stroke="#63b8ff" d="M713.98,-167.53C727.54,-154.26 747.76,-129.78 734.38,-112 697.04,-62.41 511.5,-29.59 426.29,-16.9"/>
<polygon fill="#63b8ff" stroke="#63b8ff" points="426.86,-13.45 416.46,-15.46 425.85,-20.37 426.86,-13.45"/>
</a>
</g>
</g>
<!-- Node24&#45;&gt;Node4 -->
<g id="edge41_Node000024_Node000004" class="edge">
<title>Node24&#45;&gt;Node4</title>
<g id="a_edge41_Node000024_Node000004"><a xlink:title=" ">
<path fill="none" stroke="#63b8ff" d="M653.21,-169.33C605.27,-161.68 530.77,-148.96 457.52,-132.33"/>
<polygon fill="#63b8ff" stroke="#63b8ff" points="458.73,-129.01 448.2,-130.18 457.16,-135.83 458.73,-129.01"/>
</a>
</g>
</g>
<!-- Node24&#45;&gt;Node5 -->
<g id="edge42_Node000024_Node000005" class="edge">
<title>Node24&#45;&gt;Node5</title>
<g id="a_edge42_Node000024_Node000005"><a xlink:title=" ">
<path fill="none" stroke="#63b8ff" d="M681.43,-167.59C661.67,-159.13 632.38,-146.58 609.91,-136.94"/>
<polygon fill="#63b8ff" stroke="#63b8ff" points="611.46,-133.8 600.88,-133.08 608.7,-140.23 611.46,-133.8"/>
</a>
</g>
</g>
<!-- Node24&#45;&gt;Node6 -->
<g id="edge43_Node000024_Node000006" class="edge">
<title>Node24&#45;&gt;Node6</title>
<g id="a_edge43_Node000024_Node000006"><a xlink:title=" ">
<path fill="none" stroke="#63b8ff" d="M692.58,-167.59C683.77,-159.93 671.12,-148.91 660.6,-139.75"/>
<polygon fill="#63b8ff" stroke="#63b8ff" points="663.03,-137.22 653.19,-133.29 658.43,-142.5 663.03,-137.22"/>
</a>
</g>
</g>
<!-- Node24&#45;&gt;Node7 -->
<g id="edge44_Node000024_Node000007" class="edge">
<title>Node24&#45;&gt;Node7</title>
<g id="a_edge44_Node000024_Node000007"><a xlink:title=" ">
<path fill="none" stroke="#63b8ff" d="M733.34,-167.59C764.37,-157.85 812.64,-142.7 844.13,-132.81"/>
<polygon fill="#63b8ff" stroke="#63b8ff" points="844.98,-136.21 853.47,-129.88 842.88,-129.53 844.98,-136.21"/>
</a>
</g>
</g>
<!-- Node24&#45;&gt;Node8 -->
<g id="edge45_Node000024_Node000008" class="edge">
<title>Node24&#45;&gt;Node8</title>
<g id="a_edge45_Node000024_Node000008"><a xlink:title=" ">
<path fill="none" stroke="#63b8ff" d="M703.38,-167.59C703.38,-161.01 703.38,-151.96 703.38,-143.73"/>
<polygon fill="#63b8ff" stroke="#63b8ff" points="706.88,-143.81 703.38,-133.81 699.88,-143.81 706.88,-143.81"/>
</a>
</g>
</g>
<!-- Node24&#45;&gt;Node9 -->
<g id="edge46_Node000024_Node000009" class="edge">
<title>Node24&#45;&gt;Node9</title>
<g id="a_edge46_Node000024_Node000009"><a xlink:title=" ">
<path fill="none" stroke="#63b8ff" d="M721.84,-167.59C738.08,-159.32 761.98,-147.14 780.71,-137.6"/>
<polygon fill="#63b8ff" stroke="#63b8ff" points="782.1,-140.82 789.42,-133.17 778.92,-134.59 782.1,-140.82"/>
</a>
</g>
</g>
</g>
</svg>

<g id="navigator" transform="translate(0 0)" fill="#404254">
  <rect fill="#f2f5e9" fill-opacity="0.5" stroke="#606060" stroke-width=".5" x="0" y="0" width="60" height="60"/>
  <use id="zoomplus" xlink:href="#zoomPlus" x="17" y="9" onmousedown="handleZoom(evt,'in')"/>
  <use id="zoomminus" xlink:href="#zoomMin" x="42" y="9" onmousedown="handleZoom(evt,'out')"/>
  <use id="reset" xlink:href="#resetDef" x="30" y="36" onmousedown="handleReset()"/>
   <use id="arrowup" xlink:href="#arrowUp" x="0" y="0" onmousedown="handlePan(0,-1)"/>
  <use id="arrowright" xlink:href="#arrowRight" x="0" y="0" onmousedown="handlePan(1,0)"/>
  <use id="arrowdown" xlink:href="#arrowDown" x="0" y="0" onmousedown="handlePan(0,1)"/>
  <use id="arrowleft" xlink:href="#arrowLeft" x="0" y="0" onmousedown="handlePan(-1,0)"/>
</g>
<svg viewBox="0 0 15 15" width="100%" height="30px" preserveAspectRatio="xMaxYMin meet">
 <g id="arrow_out" transform="scale(0.3 0.3)">
  <a xlink:href="a00081_org.svg" target="_base">
   <rect id="button" ry="5" rx="5" y="6" x="6" height="38" width="38"
        fill="#f2f5e9" fill-opacity="0.5" stroke="#606060" stroke-width="1.0"/>
   <path id="arrow"
     d="M 11.500037,31.436501 C 11.940474,20.09759 22.043105,11.32322 32.158766,21.979434 L 37.068811,17.246167 C 37.068811,17.246167 37.088388,32 37.088388,32 L 22.160133,31.978069 C 22.160133,31.978069 26.997745,27.140456 26.997745,27.140456 C 18.528582,18.264221 13.291696,25.230495 11.500037,31.436501 z"
     style="fill:#404040;"/>
  </a>
 </g>
</svg>

<style type='text/css'>
<![CDATA[
[data-mouse-over-selected='false'] { opacity: 0.7; }
[data-mouse-over-selected='true']  { opacity: 1.0; }
]]>
</style>
<script type="application/ecmascript"><![CDATA[
document.addEventListener('DOMContentLoaded', (event) => {
  highlightEdges();
  highlightAdjacentNodes();
});
]]></script>
</svg>
