<?xml version="1.0" encoding="UTF-8" standalone="no"?>
<!DOCTYPE svg PUBLIC "-//W3C//DTD SVG 1.1//EN"
 "http://www.w3.org/Graphics/SVG/1.1/DTD/svg11.dtd">
<!-- Generated by graphviz version 13.1.2 (20250808.2320)
 -->
<!-- Title: Yena/ynAxis.h Pages: 1 -->
<!--zoomable 196 -->

<svg id="main" version="1.1" xmlns="http://www.w3.org/2000/svg" xmlns:xlink="http://www.w3.org/1999/xlink" xml:space="preserve" onload="init(evt)">

<style type="text/css"><![CDATA[
.node, .edge {opacity: 0.7;}
.node.selected, .edge.selected {opacity: 1;}
.edge:hover path { stroke: red; }
.edge:hover polygon { stroke: red; fill: red; }
]]></style>

<defs>
  <circle id="rim" cx="0" cy="0" r="7"/>
  <circle id="rim2" cx="0" cy="0" r="3.5"/>
  <g id="zoomPlus">
    <use xlink:href="#rim" fill="#404040"><set attributeName="fill" to="#808080" begin="zoomplus.mouseover" end="zoomplus.mouseout"/></use>
    <path d="M-4,0h8M0,-4v8" fill="none" stroke="white" stroke-width="1.5" pointer-events="none"/>
  </g>
  <g id="zoomMin">
    <use xlink:href="#rim" fill="#404040"><set attributeName="fill" to="#808080" begin="zoomminus.mouseover" end="zoomminus.mouseout"/></use>
    <path d="M-4,0h8" fill="none" stroke="white" stroke-width="1.5" pointer-events="none"/>
  </g>
  <g id="arrowUp" transform="translate(30 24)">
    <use xlink:href="#rim"/>
    <path pointer-events="none" fill="none" stroke="white" stroke-width="1.5" d="M0,-3.0v7 M-2.5,-0.5L0,-3.0L2.5,-0.5"/>
  </g>
  <g id="arrowRight" transform="rotate(90) translate(36 -43)">
    <use xlink:href="#rim"/>
    <path pointer-events="none" fill="none" stroke="white" stroke-width="1.5" d="M0,-3.0v7 M-2.5,-0.5L0,-3.0L2.5,-0.5"/>
  </g>
  <g id="arrowDown" transform="rotate(180) translate(-30 -48)">
    <use xlink:href="#rim"/>
    <path pointer-events="none" fill="none" stroke="white" stroke-width="1.5" d="M0,-3.0v7 M-2.5,-0.5L0,-3.0L2.5,-0.5"/>
  </g>
  <g id="arrowLeft" transform="rotate(270) translate(-36 17)">
    <use xlink:href="#rim"/>
    <path pointer-events="none" fill="none" stroke="white" stroke-width="1.5" d="M0,-3.0v7 M-2.5,-0.5L0,-3.0L2.5,-0.5"/>
  </g>
  <g id="resetDef">
    <use xlink:href="#rim2" fill="#404040"><set attributeName="fill" to="#808080" begin="reset.mouseover" end="reset.mouseout"/></use>
  </g>
</defs>
<script type="application/ecmascript">
var viewWidth = 933;
var viewHeight = 196;
var sectionId = 'dynsection-1';
</script>
<script type="application/ecmascript" xlink:href="svg.min.js"/>
<svg id="graph" class="graph">
<g id="viewport">
<title>Yena/ynAxis.h</title>
<!-- Node1 -->
<g id="Node000001" class="node">
<title>Node1</title>
<g id="a_Node000001"><a xlink:title="공간축 클래스 헤더.">
<polygon fill="#999999" stroke="#666666" points="543.25,-188 464.25,-188 464.25,-168 543.25,-168 543.25,-188"/>
<text xml:space="preserve" text-anchor="middle" x="503.75" y="-174.5" font-family="Helvetica,sans-Serif" font-size="10.00">Yena/ynAxis.h</text>
</a>
</g>
</g>
<!-- Node2 -->
<g id="Node000002" class="node">
<title>Node2</title>
<g id="a_Node000002"><a xlink:href="a00068.html" target="_top" xlink:title="Yena SWR 기본 헤더 파일 (v1.x)">
<polygon fill="white" stroke="#666666" points="539.12,-132 468.38,-132 468.38,-112 539.12,-112 539.12,-132"/>
<text xml:space="preserve" text-anchor="middle" x="503.75" y="-118.5" font-family="Helvetica,sans-Serif" font-size="10.00">Yena/Yena.h</text>
</a>
</g>
</g>
<!-- Node1&#45;&gt;Node2 -->
<g id="edge1_Node000001_Node000002" class="edge">
<title>Node1&#45;&gt;Node2</title>
<g id="a_edge1_Node000001_Node000002"><a xlink:title=" ">
<path fill="none" stroke="#63b8ff" d="M497.17,-156.43C496.72,-148.11 497.16,-138.93 498.5,-132.3"/>
<polygon fill="#63b8ff" stroke="#63b8ff" points="493.67,-156.57 498.31,-166.09 500.62,-155.75 493.67,-156.57"/>
</a>
</g>
</g>
<!-- Node8 -->
<g id="Node000008" class="node">
<title>Node8</title>
<g id="a_Node000008"><a xlink:href="a00071.html" target="_top" xlink:title="공간축 클래스 소스 파일.">
<polygon fill="white" stroke="#666666" points="89.5,-76 0,-76 0,-56 89.5,-56 89.5,-76"/>
<text xml:space="preserve" text-anchor="middle" x="44.75" y="-62.5" font-family="Helvetica,sans-Serif" font-size="10.00">Yena/ynAxis.cpp</text>
</a>
</g>
</g>
<!-- Node1&#45;&gt;Node8 -->
<g id="edge17_Node000001_Node000008" class="edge">
<title>Node1&#45;&gt;Node8</title>
<g id="a_edge17_Node000001_Node000008"><a xlink:title=" ">
<path fill="none" stroke="#63b8ff" d="M453.24,-164.89C361.13,-142.82 167.7,-96.46 84.35,-76.49"/>
<polygon fill="#63b8ff" stroke="#63b8ff" points="452.21,-168.25 462.75,-167.17 453.84,-161.44 452.21,-168.25"/>
</a>
</g>
</g>
<!-- Node2&#45;&gt;Node1 -->
<g id="edge8_Node000002_Node000001" class="edge">
<title>Node2&#45;&gt;Node1</title>
<g id="a_edge8_Node000002_Node000001"><a xlink:title=" ">
<path fill="none" stroke="#63b8ff" d="M510.34,-143.73C510.77,-151.96 510.33,-161.01 509.02,-167.59"/>
<polygon fill="#63b8ff" stroke="#63b8ff" points="513.81,-143.33 509.17,-133.8 506.86,-144.14 513.81,-143.33"/>
</a>
</g>
</g>
<!-- Node3 -->
<g id="Node000003" class="node">
<title>Node3</title>
<g id="a_Node000003"><a xlink:href="a00053.html" target="_top" xlink:title="예제 렌더링 장치 운용 헤더">
<polygon fill="white" stroke="#666666" points="180.25,-76 107.25,-76 107.25,-56 180.25,-56 180.25,-76"/>
<text xml:space="preserve" text-anchor="middle" x="143.75" y="-62.5" font-family="Helvetica,sans-Serif" font-size="10.00">Src/Device.h</text>
</a>
</g>
</g>
<!-- Node2&#45;&gt;Node3 -->
<g id="edge2_Node000002_Node000003" class="edge">
<title>Node2&#45;&gt;Node3</title>
<g id="a_edge2_Node000002_Node000003"><a xlink:title=" ">
<path fill="none" stroke="#63b8ff" d="M456.94,-115.14C395.31,-107.23 283.64,-92.25 188.75,-76 186.08,-75.54 183.33,-75.05 180.56,-74.53"/>
<polygon fill="#63b8ff" stroke="#63b8ff" points="456.36,-118.59 466.72,-116.39 457.24,-111.65 456.36,-118.59"/>
</a>
</g>
</g>
<!-- Node7 -->
<g id="Node000007" class="node">
<title>Node7</title>
<g id="a_Node000007"><a xlink:href="a00065.html" target="_top" xlink:title="Yena SWR 기본 소스 파일 (v1.x)">
<polygon fill="white" stroke="#666666" points="279.38,-76 198.12,-76 198.12,-56 279.38,-56 279.38,-76"/>
<text xml:space="preserve" text-anchor="middle" x="238.75" y="-62.5" font-family="Helvetica,sans-Serif" font-size="10.00">Yena/Yena.cpp</text>
</a>
</g>
</g>
<!-- Node2&#45;&gt;Node7 -->
<g id="edge6_Node000002_Node000007" class="edge">
<title>Node2&#45;&gt;Node7</title>
<g id="a_edge6_Node000002_Node000007"><a xlink:title=" ">
<path fill="none" stroke="#63b8ff" d="M456.8,-111.43C406.48,-101.18 327.38,-85.06 279.56,-75.32"/>
<polygon fill="#63b8ff" stroke="#63b8ff" points="456.03,-114.85 466.53,-113.42 457.43,-107.99 456.03,-114.85"/>
</a>
</g>
</g>
<!-- Node2&#45;&gt;Node8 -->
<g id="edge7_Node000002_Node000008" class="edge">
<title>Node2&#45;&gt;Node8</title>
<g id="a_edge7_Node000002_Node000008"><a xlink:title=" ">
<path fill="none" stroke="#63b8ff" d="M457.08,-116.71C381.45,-109.57 227.51,-94.19 97.75,-76 95.16,-75.64 92.51,-75.25 89.83,-74.84"/>
<polygon fill="#63b8ff" stroke="#63b8ff" points="456.3,-120.15 466.58,-117.61 456.96,-113.19 456.3,-120.15"/>
</a>
</g>
</g>
<!-- Node9 -->
<g id="Node000009" class="node">
<title>Node9</title>
<g id="a_Node000009"><a xlink:href="a00080.html" target="_top" xlink:title="Yena 그래픽스 엔진 소스 파일">
<polygon fill="white" stroke="#666666" points="418.25,-76 297.25,-76 297.25,-56 418.25,-56 418.25,-76"/>
<text xml:space="preserve" text-anchor="middle" x="357.75" y="-62.5" font-family="Helvetica,sans-Serif" font-size="10.00">Yena/ynB3Graphics.cpp</text>
</a>
</g>
</g>
<!-- Node2&#45;&gt;Node9 -->
<g id="edge9_Node000002_Node000009" class="edge">
<title>Node2&#45;&gt;Node9</title>
<g id="a_edge9_Node000002_Node000009"><a xlink:title=" ">
<path fill="none" stroke="#63b8ff" d="M467.69,-107.66C441.52,-97.98 406.75,-85.12 383.38,-76.48"/>
<polygon fill="#63b8ff" stroke="#63b8ff" points="466.31,-110.88 476.9,-111.07 468.73,-104.32 466.31,-110.88"/>
</a>
</g>
</g>
<!-- Node10 -->
<g id="Node000010" class="node">
<title>Node10</title>
<g id="a_Node000010"><a xlink:href="a00086.html" target="_top" xlink:title="정점 버퍼 운용 클래스 소스">
<polygon fill="white" stroke="#666666" points="571.38,-76 436.12,-76 436.12,-56 571.38,-56 571.38,-76"/>
<text xml:space="preserve" text-anchor="middle" x="503.75" y="-62.5" font-family="Helvetica,sans-Serif" font-size="10.00">Yena/ynB3VertexBuffer.cpp</text>
</a>
</g>
</g>
<!-- Node2&#45;&gt;Node10 -->
<g id="edge10_Node000002_Node000010" class="edge">
<title>Node2&#45;&gt;Node10</title>
<g id="a_edge10_Node000002_Node000010"><a xlink:title=" ">
<path fill="none" stroke="#63b8ff" d="M503.75,-100.13C503.75,-91.9 503.75,-82.85 503.75,-76.3"/>
<polygon fill="#63b8ff" stroke="#63b8ff" points="500.25,-100.08 503.75,-110.08 507.25,-100.08 500.25,-100.08"/>
</a>
</g>
</g>
<!-- Node11 -->
<g id="Node000011" class="node">
<title>Node11</title>
<g id="a_Node000011"><a xlink:href="a00095.html" target="_top" xlink:title="에러, 예외 및 로그 처리 소스 파일">
<polygon fill="white" stroke="#666666" points="680.25,-76 589.25,-76 589.25,-56 680.25,-56 680.25,-76"/>
<text xml:space="preserve" text-anchor="middle" x="634.75" y="-62.5" font-family="Helvetica,sans-Serif" font-size="10.00">Yena/ynError.cpp</text>
</a>
</g>
</g>
<!-- Node2&#45;&gt;Node11 -->
<g id="edge11_Node000002_Node000011" class="edge">
<title>Node2&#45;&gt;Node11</title>
<g id="a_edge11_Node000002_Node000011"><a xlink:title=" ">
<path fill="none" stroke="#63b8ff" d="M537.05,-107.27C560.42,-97.64 591.07,-85.01 611.75,-76.48"/>
<polygon fill="#63b8ff" stroke="#63b8ff" points="535.88,-103.97 527.97,-111.02 538.55,-110.44 535.88,-103.97"/>
</a>
</g>
</g>
<!-- Node12 -->
<g id="Node000012" class="node">
<title>Node12</title>
<g id="a_Node000012"><a xlink:href="a00101.html" target="_top" xlink:title="그리드 클래스 소스 파일.">
<polygon fill="white" stroke="#666666" points="785.75,-20 697.75,-20 697.75,0 785.75,0 785.75,-20"/>
<text xml:space="preserve" text-anchor="middle" x="741.75" y="-6.5" font-family="Helvetica,sans-Serif" font-size="10.00">Yena/ynGrid.cpp</text>
</a>
</g>
</g>
<!-- Node2&#45;&gt;Node12 -->
<g id="edge12_Node000002_Node000012" class="edge">
<title>Node2&#45;&gt;Node12</title>
<g id="a_edge12_Node000002_Node000012"><a xlink:title=" ">
<path fill="none" stroke="#63b8ff" d="M550.53,-118.1C590.25,-113.76 647.4,-102.95 689.75,-76 712.18,-61.72 729.23,-34.39 737.05,-20.14"/>
<polygon fill="#63b8ff" stroke="#63b8ff" points="550.42,-114.59 540.81,-119.06 551.1,-121.56 550.42,-114.59"/>
</a>
</g>
</g>
<!-- Node13 -->
<g id="Node000013" class="node">
<title>Node13</title>
<g id="a_Node000013"><a xlink:href="a00104.html" target="_top" xlink:title="그리드 클래스 헤더.">
<polygon fill="white" stroke="#666666" points="814.5,-76 737,-76 737,-56 814.5,-56 814.5,-76"/>
<text xml:space="preserve" text-anchor="middle" x="775.75" y="-62.5" font-family="Helvetica,sans-Serif" font-size="10.00">Yena/ynGrid.h</text>
</a>
</g>
</g>
<!-- Node2&#45;&gt;Node13 -->
<g id="edge13_Node000002_Node000013" class="edge">
<title>Node2&#45;&gt;Node13</title>
<g id="a_edge13_Node000002_Node000013"><a xlink:title=" ">
<path fill="none" stroke="#63b8ff" d="M550.52,-110.63C603.08,-99.81 687.28,-83.14 736.55,-73.85"/>
<polygon fill="#63b8ff" stroke="#63b8ff" points="550.05,-107.15 540.97,-112.61 551.47,-114.01 550.05,-107.15"/>
</a>
</g>
</g>
<!-- Node14 -->
<g id="Node000014" class="node">
<title>Node14</title>
<g id="a_Node000014"><a xlink:href="a00113.html" target="_top" xlink:title="\u{2b50} Yena 수학 라이브러리 Yena Math Library for DirectX / OpenGL">
<polygon fill="white" stroke="#666666" points="924.62,-76 832.88,-76 832.88,-56 924.62,-56 924.62,-76"/>
<text xml:space="preserve" text-anchor="middle" x="878.75" y="-62.5" font-family="Helvetica,sans-Serif" font-size="10.00">Yena/ynMath.cpp</text>
</a>
</g>
</g>
<!-- Node2&#45;&gt;Node14 -->
<g id="edge16_Node000002_Node000014" class="edge">
<title>Node2&#45;&gt;Node14</title>
<g id="a_edge16_Node000002_Node000014"><a xlink:title=" ">
<path fill="none" stroke="#63b8ff" d="M550.33,-114.78C612.66,-106.39 726.63,-90.77 823.75,-76 826.62,-75.56 829.57,-75.11 832.55,-74.64"/>
<polygon fill="#63b8ff" stroke="#63b8ff" points="550.25,-111.26 540.8,-116.06 551.18,-118.2 550.25,-111.26"/>
</a>
</g>
</g>
<!-- Node4 -->
<g id="Node000004" class="node">
<title>Node4</title>
<g id="a_Node000004"><a xlink:href="a00050.html" target="_top" xlink:title="예제 렌더링 장치 운용 소스.">
<polygon fill="white" stroke="#666666" points="83.5,-20 0,-20 0,0 83.5,0 83.5,-20"/>
<text xml:space="preserve" text-anchor="middle" x="41.75" y="-6.5" font-family="Helvetica,sans-Serif" font-size="10.00">Src/Device.cpp</text>
</a>
</g>
</g>
<!-- Node3&#45;&gt;Node4 -->
<g id="edge3_Node000003_Node000004" class="edge">
<title>Node3&#45;&gt;Node4</title>
<g id="a_edge3_Node000003_Node000004"><a xlink:title=" ">
<path fill="none" stroke="#63b8ff" d="M115.82,-50.21C97.91,-40.73 75.18,-28.7 59.66,-20.48"/>
<polygon fill="#63b8ff" stroke="#63b8ff" points="114.17,-53.3 124.65,-54.89 117.45,-47.11 114.17,-53.3"/>
</a>
</g>
</g>
<!-- Node5 -->
<g id="Node000005" class="node">
<title>Node5</title>
<g id="a_Node000005"><a xlink:href="a00059.html" target="_top" xlink:title="\u{2b50} 예제 기본 렌더링/프레임웍 소스">
<polygon fill="white" stroke="#666666" points="185.88,-20 101.62,-20 101.62,0 185.88,0 185.88,-20"/>
<text xml:space="preserve" text-anchor="middle" x="143.75" y="-6.5" font-family="Helvetica,sans-Serif" font-size="10.00">Src/Render.cpp</text>
</a>
</g>
</g>
<!-- Node3&#45;&gt;Node5 -->
<g id="edge4_Node000003_Node000005" class="edge">
<title>Node3&#45;&gt;Node5</title>
<g id="a_edge4_Node000003_Node000005"><a xlink:title=" ">
<path fill="none" stroke="#63b8ff" d="M143.75,-44.13C143.75,-35.9 143.75,-26.85 143.75,-20.3"/>
<polygon fill="#63b8ff" stroke="#63b8ff" points="140.25,-44.08 143.75,-54.08 147.25,-44.08 140.25,-44.08"/>
</a>
</g>
</g>
<!-- Node6 -->
<g id="Node000006" class="node">
<title>Node6</title>
<g id="a_Node000006"><a xlink:href="a00056.html" target="_top" xlink:title="예제 애플리케이션 메인 / 윈도 프레임워크 소스">
<polygon fill="white" stroke="#666666" points="277.62,-20 203.88,-20 203.88,0 277.62,0 277.62,-20"/>
<text xml:space="preserve" text-anchor="middle" x="240.75" y="-6.5" font-family="Helvetica,sans-Serif" font-size="10.00">Src/main.cpp</text>
</a>
</g>
</g>
<!-- Node3&#45;&gt;Node6 -->
<g id="edge5_Node000003_Node000006" class="edge">
<title>Node3&#45;&gt;Node6</title>
<g id="a_edge5_Node000003_Node000006"><a xlink:title=" ">
<path fill="none" stroke="#63b8ff" d="M170.55,-50.08C187.55,-40.62 209.03,-28.66 223.72,-20.48"/>
<polygon fill="#63b8ff" stroke="#63b8ff" points="169,-46.94 161.97,-54.86 172.41,-53.05 169,-46.94"/>
</a>
</g>
</g>
<!-- Node13&#45;&gt;Node2 -->
<g id="edge14_Node000013_Node000002" class="edge">
<title>Node13&#45;&gt;Node2</title>
<g id="a_edge14_Node000013_Node000002"><a xlink:title=" ">
<path fill="none" stroke="#63b8ff" d="M725.55,-78.07C671.52,-89.17 587.11,-105.86 539.45,-114.81"/>
<polygon fill="#63b8ff" stroke="#63b8ff" points="726.02,-81.55 735.11,-76.1 724.61,-74.69 726.02,-81.55"/>
</a>
</g>
</g>
<!-- Node13&#45;&gt;Node12 -->
<g id="edge15_Node000013_Node000012" class="edge">
<title>Node13&#45;&gt;Node12</title>
<g id="a_edge15_Node000013_Node000012"><a xlink:title=" ">
<path fill="none" stroke="#63b8ff" d="M763.7,-45.87C758.24,-37.19 752.02,-27.32 747.6,-20.3"/>
<polygon fill="#63b8ff" stroke="#63b8ff" points="760.73,-47.72 769.02,-54.31 766.65,-43.99 760.73,-47.72"/>
</a>
</g>
</g>
</g>
</svg>

<g id="navigator" transform="translate(0 0)" fill="#404254">
  <rect fill="#f2f5e9" fill-opacity="0.5" stroke="#606060" stroke-width=".5" x="0" y="0" width="60" height="60"/>
  <use id="zoomplus" xlink:href="#zoomPlus" x="17" y="9" onmousedown="handleZoom(evt,'in')"/>
  <use id="zoomminus" xlink:href="#zoomMin" x="42" y="9" onmousedown="handleZoom(evt,'out')"/>
  <use id="reset" xlink:href="#resetDef" x="30" y="36" onmousedown="handleReset()"/>
   <use id="arrowup" xlink:href="#arrowUp" x="0" y="0" onmousedown="handlePan(0,-1)"/>
  <use id="arrowright" xlink:href="#arrowRight" x="0" y="0" onmousedown="handlePan(1,0)"/>
  <use id="arrowdown" xlink:href="#arrowDown" x="0" y="0" onmousedown="handlePan(0,1)"/>
  <use id="arrowleft" xlink:href="#arrowLeft" x="0" y="0" onmousedown="handlePan(-1,0)"/>
</g>
<svg viewBox="0 0 15 15" width="100%" height="30px" preserveAspectRatio="xMaxYMin meet">
 <g id="arrow_out" transform="scale(0.3 0.3)">
  <a xlink:href="a00076_org.svg" target="_base">
   <rect id="button" ry="5" rx="5" y="6" x="6" height="38" width="38"
        fill="#f2f5e9" fill-opacity="0.5" stroke="#606060" stroke-width="1.0"/>
   <path id="arrow"
     d="M 11.500037,31.436501 C 11.940474,20.09759 22.043105,11.32322 32.158766,21.979434 L 37.068811,17.246167 C 37.068811,17.246167 37.088388,32 37.088388,32 L 22.160133,31.978069 C 22.160133,31.978069 26.997745,27.140456 26.997745,27.140456 C 18.528582,18.264221 13.291696,25.230495 11.500037,31.436501 z"
     style="fill:#404040;"/>
  </a>
 </g>
</svg>

<style type='text/css'>
<![CDATA[
[data-mouse-over-selected='false'] { opacity: 0.7; }
[data-mouse-over-selected='true']  { opacity: 1.0; }
]]>
</style>
<script type="application/ecmascript"><![CDATA[
document.addEventListener('DOMContentLoaded', (event) => {
  highlightEdges();
  highlightAdjacentNodes();
});
]]></script>
</svg>
