<?xml version="1.0" encoding="UTF-8" standalone="no"?>
<!DOCTYPE svg PUBLIC "-//W3C//DTD SVG 1.1//EN"
 "http://www.w3.org/Graphics/SVG/1.1/DTD/svg11.dtd">
<!-- Generated by graphviz version 13.1.2 (20250808.2320)
 -->
<!-- Title: ObjUpdate Pages: 1 -->
<svg width="360pt" height="104pt"
 viewBox="0.00 0.00 360.00 104.00" xmlns="http://www.w3.org/2000/svg" xmlns:xlink="http://www.w3.org/1999/xlink">
<g id="graph0" class="graph" transform="scale(1 1) rotate(0) translate(4 100)">
<title>ObjUpdate</title>
<!-- Node1 -->
<g id="Node000001" class="node">
<title>Node1</title>
<g id="a_Node000001"><a xlink:title=" ">
<polygon fill="#999999" stroke="#666666" points="62.5,-58 0,-58 0,-38 62.5,-38 62.5,-58"/>
<text xml:space="preserve" text-anchor="middle" x="31.25" y="-44.5" font-family="Helvetica,sans-Serif" font-size="10.00">ObjUpdate</text>
</a>
</g>
</g>
<!-- Node2 -->
<g id="Node000002" class="node">
<title>Node2</title>
<g id="a_Node000002"><a xlink:href="a00141_gad8e630c14218a38be5a8afaa29be1f95.html#gad8e630c14218a38be5a8afaa29be1f95" target="_top" xlink:title="Y 축 기준 회전행렬 생성함수 (ver.YN) 단 회전량은 라디안.">
<polygon fill="white" stroke="#666666" points="212.75,-96 100.75,-96 100.75,-76 212.75,-76 212.75,-96"/>
<text xml:space="preserve" text-anchor="middle" x="156.75" y="-82.5" font-family="Helvetica,sans-Serif" font-size="10.00">B3YXMatrixRotationY</text>
</a>
</g>
</g>
<!-- Node1&#45;&gt;Node2 -->
<g id="edge1_Node000001_Node000002" class="edge">
<title>Node1&#45;&gt;Node2</title>
<g id="a_edge1_Node000001_Node000002"><a xlink:title=" ">
<path fill="none" stroke="#63b8ff" d="M62.78,-57.39C77.29,-61.86 94.92,-67.28 110.91,-72.2"/>
<polygon fill="#63b8ff" stroke="#63b8ff" points="109.62,-75.47 120.21,-75.07 111.68,-68.78 109.62,-75.47"/>
</a>
</g>
</g>
<!-- Node4 -->
<g id="Node000004" class="node">
<title>Node4</title>
<g id="a_Node000004"><a xlink:href="a00141_gae984f2b96f4d146a09bc7ec514d31fb9.html#gae984f2b96f4d146a09bc7ec514d31fb9" target="_top" xlink:title="스케일 행렬 생성 : D3DXMatrixScaling 대응.">
<polygon fill="white" stroke="#666666" points="207.12,-58 106.38,-58 106.38,-38 207.12,-38 207.12,-58"/>
<text xml:space="preserve" text-anchor="middle" x="156.75" y="-44.5" font-family="Helvetica,sans-Serif" font-size="10.00">B3YXMatrixScaling</text>
</a>
</g>
</g>
<!-- Node1&#45;&gt;Node4 -->
<g id="edge3_Node000001_Node000004" class="edge">
<title>Node1&#45;&gt;Node4</title>
<g id="a_edge3_Node000001_Node000004"><a xlink:title=" ">
<path fill="none" stroke="#63b8ff" d="M62.78,-48C72.64,-48 83.93,-48 95.18,-48"/>
<polygon fill="#63b8ff" stroke="#63b8ff" points="94.84,-51.5 104.84,-48 94.84,-44.5 94.84,-51.5"/>
</a>
</g>
</g>
<!-- Node5 -->
<g id="Node000005" class="node">
<title>Node5</title>
<g id="a_Node000005"><a xlink:href="a00141_ga39d89af6e45cb22dc8cecfec6b9631eb.html#ga39d89af6e45cb22dc8cecfec6b9631eb" target="_top" xlink:title="이동 행렬 생성 : D3DXMatrixTranslation 대응.">
<polygon fill="white" stroke="#666666" points="215,-20 98.5,-20 98.5,0 215,0 215,-20"/>
<text xml:space="preserve" text-anchor="middle" x="156.75" y="-6.5" font-family="Helvetica,sans-Serif" font-size="10.00">B3YXMatrixTranslation</text>
</a>
</g>
</g>
<!-- Node1&#45;&gt;Node5 -->
<g id="edge5_Node000001_Node000005" class="edge">
<title>Node1&#45;&gt;Node5</title>
<g id="a_edge5_Node000001_Node000005"><a xlink:title=" ">
<path fill="none" stroke="#63b8ff" d="M62.78,-38.61C77.29,-34.14 94.92,-28.72 110.91,-23.8"/>
<polygon fill="#63b8ff" stroke="#63b8ff" points="111.68,-27.22 120.21,-20.93 109.62,-20.53 111.68,-27.22"/>
</a>
</g>
</g>
<!-- Node3 -->
<g id="Node000003" class="node">
<title>Node3</title>
<g id="a_Node000003"><a xlink:href="a00141_ga02a75a42a0bae280a3396ecdb1c124e7.html#ga02a75a42a0bae280a3396ecdb1c124e7" target="_top" xlink:title="행렬 단위화(초기화) 함수">
<polygon fill="white" stroke="#666666" points="351.75,-58 251,-58 251,-38 351.75,-38 351.75,-58"/>
<text xml:space="preserve" text-anchor="middle" x="301.38" y="-44.5" font-family="Helvetica,sans-Serif" font-size="10.00">B3YXMatrixIdentity</text>
</a>
</g>
</g>
<!-- Node2&#45;&gt;Node3 -->
<g id="edge2_Node000002_Node000003" class="edge">
<title>Node2&#45;&gt;Node3</title>
<g id="a_edge2_Node000002_Node000003"><a xlink:title=" ">
<path fill="none" stroke="#63b8ff" d="M197.1,-75.52C213.47,-71.15 232.67,-66.04 250.05,-61.41"/>
<polygon fill="#63b8ff" stroke="#63b8ff" points="250.93,-64.8 259.69,-58.84 249.13,-58.03 250.93,-64.8"/>
</a>
</g>
</g>
<!-- Node4&#45;&gt;Node3 -->
<g id="edge4_Node000004_Node000003" class="edge">
<title>Node4&#45;&gt;Node3</title>
<g id="a_edge4_Node000004_Node000003"><a xlink:title=" ">
<path fill="none" stroke="#63b8ff" d="M207.23,-48C217.63,-48 228.72,-48 239.48,-48"/>
<polygon fill="#63b8ff" stroke="#63b8ff" points="239.47,-51.5 249.47,-48 239.47,-44.5 239.47,-51.5"/>
</a>
</g>
</g>
<!-- Node5&#45;&gt;Node3 -->
<g id="edge6_Node000005_Node000003" class="edge">
<title>Node5&#45;&gt;Node3</title>
<g id="a_edge6_Node000005_Node000003"><a xlink:title=" ">
<path fill="none" stroke="#63b8ff" d="M197.1,-20.48C213.47,-24.85 232.67,-29.96 250.05,-34.59"/>
<polygon fill="#63b8ff" stroke="#63b8ff" points="249.13,-37.97 259.69,-37.16 250.93,-31.2 249.13,-37.97"/>
</a>
</g>
</g>
</g>
</svg>
