<?xml version="1.0" encoding="UTF-8" standalone="no"?>
<!DOCTYPE svg PUBLIC "-//W3C//DTD SVG 1.1//EN"
 "http://www.w3.org/Graphics/SVG/1.1/DTD/svg11.dtd">
<!-- Generated by graphviz version 13.1.2 (20250808.2320)
 -->
<!-- Title: Yena/ynB3VertexBuffer.h Pages: 1 -->
<svg width="455pt" height="84pt"
 viewBox="0.00 0.00 455.00 84.00" xmlns="http://www.w3.org/2000/svg" xmlns:xlink="http://www.w3.org/1999/xlink">

<svg id="main" version="1.1" xmlns="http://www.w3.org/2000/svg" xmlns:xlink="http://www.w3.org/1999/xlink" xml:space="preserve">

<style type="text/css"><![CDATA[
.node, .edge {opacity: 0.7;}
.node.selected, .edge.selected {opacity: 1;}
.edge:hover path { stroke: red; }
.edge:hover polygon { stroke: red; fill: red; }
]]></style>
<script type="application/ecmascript" xlink:href="svg.min.js"/>
<svg id="graph" class="graph">
<g id="graph0" class="graph" transform="scale(1 1) rotate(0) translate(4 80)">
<title>Yena/ynB3VertexBuffer.h</title>
<!-- Node1 -->
<g id="Node000001" class="node">
<title>Node1</title>
<g id="a_Node000001"><a xlink:title="정점 버퍼 운용 클래스 헤더">
<polygon fill="#999999" stroke="#666666" points="293.62,-76 168.88,-76 168.88,-56 293.62,-56 293.62,-76"/>
<text xml:space="preserve" text-anchor="middle" x="231.25" y="-62.5" font-family="Helvetica,sans-Serif" font-size="10.00">Yena/ynB3VertexBuffer.h</text>
</a>
</g>
</g>
<!-- Node2 -->
<g id="Node000002" class="node">
<title>Node2</title>
<g id="a_Node000002"><a xlink:title=" ">
<polygon fill="#e0e0e0" stroke="#999999" points="62.5,-20 0,-20 0,0 62.5,0 62.5,-20"/>
<text xml:space="preserve" text-anchor="middle" x="31.25" y="-6.5" font-family="Helvetica,sans-Serif" font-size="10.00">windows.h</text>
</a>
</g>
</g>
<!-- Node1&#45;&gt;Node2 -->
<g id="edge1_Node000001_Node000002" class="edge">
<title>Node1&#45;&gt;Node2</title>
<g id="a_edge1_Node000001_Node000002"><a xlink:title=" ">
<path fill="none" stroke="#63b8ff" d="M196.41,-55.59C162.23,-46.37 110.06,-32.28 73.53,-22.41"/>
<polygon fill="#63b8ff" stroke="#63b8ff" points="74.75,-19.12 64.19,-19.89 72.93,-25.88 74.75,-19.12"/>
</a>
</g>
</g>
<!-- Node3 -->
<g id="Node000003" class="node">
<title>Node3</title>
<g id="a_Node000003"><a xlink:title=" ">
<polygon fill="#e0e0e0" stroke="#999999" points="126.25,-20 80.25,-20 80.25,0 126.25,0 126.25,-20"/>
<text xml:space="preserve" text-anchor="middle" x="103.25" y="-6.5" font-family="Helvetica,sans-Serif" font-size="10.00">tchar.h</text>
</a>
</g>
</g>
<!-- Node1&#45;&gt;Node3 -->
<g id="edge2_Node000001_Node000003" class="edge">
<title>Node1&#45;&gt;Node3</title>
<g id="a_edge2_Node000001_Node000003"><a xlink:title=" ">
<path fill="none" stroke="#63b8ff" d="M208.95,-55.59C188.89,-47.13 159.13,-34.58 136.3,-24.94"/>
<polygon fill="#63b8ff" stroke="#63b8ff" points="137.69,-21.73 127.11,-21.07 134.97,-28.18 137.69,-21.73"/>
</a>
</g>
</g>
<!-- Node4 -->
<g id="Node000004" class="node">
<title>Node4</title>
<g id="a_Node000004"><a xlink:title=" ">
<polygon fill="#e0e0e0" stroke="#999999" points="190.25,-20 144.25,-20 144.25,0 190.25,0 190.25,-20"/>
<text xml:space="preserve" text-anchor="middle" x="167.25" y="-6.5" font-family="Helvetica,sans-Serif" font-size="10.00">math.h</text>
</a>
</g>
</g>
<!-- Node1&#45;&gt;Node4 -->
<g id="edge3_Node000001_Node000004" class="edge">
<title>Node1&#45;&gt;Node4</title>
<g id="a_edge3_Node000001_Node000004"><a xlink:title=" ">
<path fill="none" stroke="#63b8ff" d="M220.1,-55.59C210.92,-47.85 197.7,-36.69 186.77,-27.47"/>
<polygon fill="#63b8ff" stroke="#63b8ff" points="189.33,-25.05 179.43,-21.27 184.81,-30.4 189.33,-25.05"/>
</a>
</g>
</g>
<!-- Node5 -->
<g id="Node000005" class="node">
<title>Node5</title>
<g id="a_Node000005"><a xlink:title=" ">
<polygon fill="#e0e0e0" stroke="#999999" points="253.88,-20 208.62,-20 208.62,0 253.88,0 253.88,-20"/>
<text xml:space="preserve" text-anchor="middle" x="231.25" y="-6.5" font-family="Helvetica,sans-Serif" font-size="10.00">stdio.h</text>
</a>
</g>
</g>
<!-- Node1&#45;&gt;Node5 -->
<g id="edge4_Node000001_Node000005" class="edge">
<title>Node1&#45;&gt;Node5</title>
<g id="a_edge4_Node000001_Node000005"><a xlink:title=" ">
<path fill="none" stroke="#63b8ff" d="M231.25,-55.59C231.25,-49.01 231.25,-39.96 231.25,-31.73"/>
<polygon fill="#63b8ff" stroke="#63b8ff" points="234.75,-31.81 231.25,-21.81 227.75,-31.81 234.75,-31.81"/>
</a>
</g>
</g>
<!-- Node6 -->
<g id="Node000006" class="node">
<title>Node6</title>
<g id="a_Node000006"><a xlink:title=" ">
<polygon fill="#e0e0e0" stroke="#999999" points="312.25,-20 272.25,-20 272.25,0 312.25,0 312.25,-20"/>
<text xml:space="preserve" text-anchor="middle" x="292.25" y="-6.5" font-family="Helvetica,sans-Serif" font-size="10.00">string</text>
</a>
</g>
</g>
<!-- Node1&#45;&gt;Node6 -->
<g id="edge5_Node000001_Node000006" class="edge">
<title>Node1&#45;&gt;Node6</title>
<g id="a_edge5_Node000001_Node000006"><a xlink:title=" ">
<path fill="none" stroke="#63b8ff" d="M241.88,-55.59C250.53,-47.93 262.98,-36.91 273.33,-27.75"/>
<polygon fill="#63b8ff" stroke="#63b8ff" points="275.45,-30.55 280.61,-21.3 270.81,-25.31 275.45,-30.55"/>
</a>
</g>
</g>
<!-- Node7 -->
<g id="Node000007" class="node">
<title>Node7</title>
<g id="a_Node000007"><a xlink:title=" ">
<polygon fill="#e0e0e0" stroke="#999999" points="373.75,-20 330.75,-20 330.75,0 373.75,0 373.75,-20"/>
<text xml:space="preserve" text-anchor="middle" x="352.25" y="-6.5" font-family="Helvetica,sans-Serif" font-size="10.00">vector</text>
</a>
</g>
</g>
<!-- Node1&#45;&gt;Node7 -->
<g id="edge6_Node000001_Node000007" class="edge">
<title>Node1&#45;&gt;Node7</title>
<g id="a_edge6_Node000001_Node000007"><a xlink:title=" ">
<path fill="none" stroke="#63b8ff" d="M252.33,-55.59C271.21,-47.17 299.17,-34.69 320.71,-25.07"/>
<polygon fill="#63b8ff" stroke="#63b8ff" points="321.92,-28.37 329.63,-21.1 319.07,-21.98 321.92,-28.37"/>
</a>
</g>
</g>
<!-- Node8 -->
<g id="Node000008" class="node">
<title>Node8</title>
<g id="a_Node000008"><a xlink:title=" ">
<polygon fill="#e0e0e0" stroke="#999999" points="447.12,-20 391.38,-20 391.38,0 447.12,0 447.12,-20"/>
<text xml:space="preserve" text-anchor="middle" x="419.25" y="-6.5" font-family="Helvetica,sans-Serif" font-size="10.00">algorithm</text>
</a>
</g>
</g>
<!-- Node1&#45;&gt;Node8 -->
<g id="edge7_Node000001_Node000008" class="edge">
<title>Node1&#45;&gt;Node8</title>
<g id="a_edge7_Node000001_Node000008"><a xlink:title=" ">
<path fill="none" stroke="#63b8ff" d="M264,-55.59C296.32,-46.31 345.76,-32.11 380.14,-22.23"/>
<polygon fill="#63b8ff" stroke="#63b8ff" points="381.07,-25.61 389.71,-19.48 379.14,-18.88 381.07,-25.61"/>
</a>
</g>
</g>
</g>
</svg>
</svg>

<style type='text/css'>
<![CDATA[
[data-mouse-over-selected='false'] { opacity: 0.7; }
[data-mouse-over-selected='true']  { opacity: 1.0; }
]]>
</style>
<script type="application/ecmascript"><![CDATA[
document.addEventListener('DOMContentLoaded', (event) => {
  highlightEdges();
  highlightAdjacentNodes();
});
]]></script>
</svg>
