<?xml version="1.0" encoding="UTF-8" standalone="no"?>
<!DOCTYPE svg PUBLIC "-//W3C//DTD SVG 1.1//EN"
 "http://www.w3.org/Graphics/SVG/1.1/DTD/svg11.dtd">
<!-- Generated by graphviz version 13.1.2 (20250808.2320)
 -->
<!-- Title: Yena/ynUnknownbase.cpp Pages: 1 -->
<svg width="180pt" height="84pt"
 viewBox="0.00 0.00 180.00 84.00" xmlns="http://www.w3.org/2000/svg" xmlns:xlink="http://www.w3.org/1999/xlink">
<g id="graph0" class="graph" transform="scale(1 1) rotate(0) translate(4 80)">
<title>Yena/ynUnknownbase.cpp</title>
<!-- Node1 -->
<g id="Node000001" class="node">
<title>Node1</title>
<g id="a_Node000001"><a xlink:title="Yena SWR COM 기반 구현 소스 (v2.x)">
<polygon fill="#999999" stroke="#666666" points="144.38,-76 12.12,-76 12.12,-56 144.38,-56 144.38,-76"/>
<text xml:space="preserve" text-anchor="middle" x="78.25" y="-62.5" font-family="Helvetica,sans-Serif" font-size="10.00">Yena/ynUnknownbase.cpp</text>
</a>
</g>
</g>
<!-- Node2 -->
<g id="Node000002" class="node">
<title>Node2</title>
<g id="a_Node000002"><a xlink:title=" ">
<polygon fill="#e0e0e0" stroke="#999999" points="62.5,-20 0,-20 0,0 62.5,0 62.5,-20"/>
<text xml:space="preserve" text-anchor="middle" x="31.25" y="-6.5" font-family="Helvetica,sans-Serif" font-size="10.00">windows.h</text>
</a>
</g>
</g>
<!-- Node1&#45;&gt;Node2 -->
<g id="edge1_Node000001_Node000002" class="edge">
<title>Node1&#45;&gt;Node2</title>
<g id="a_edge1_Node000001_Node000002"><a xlink:title=" ">
<path fill="none" stroke="#63b8ff" d="M70.06,-55.59C63.66,-48.24 54.57,-37.8 46.8,-28.87"/>
<polygon fill="#63b8ff" stroke="#63b8ff" points="49.54,-26.69 40.34,-21.44 44.26,-31.28 49.54,-26.69"/>
</a>
</g>
</g>
<!-- Node3 -->
<g id="Node000003" class="node">
<title>Node3</title>
<g id="a_Node000003"><a xlink:title=" ">
<polygon fill="#e0e0e0" stroke="#999999" points="172.12,-20 80.38,-20 80.38,0 172.12,0 172.12,-20"/>
<text xml:space="preserve" text-anchor="middle" x="126.25" y="-6.5" font-family="Helvetica,sans-Serif" font-size="10.00">ynUnkownbase.h</text>
</a>
</g>
</g>
<!-- Node1&#45;&gt;Node3 -->
<g id="edge2_Node000001_Node000003" class="edge">
<title>Node1&#45;&gt;Node3</title>
<g id="a_edge2_Node000001_Node000003"><a xlink:title=" ">
<path fill="none" stroke="#63b8ff" d="M86.61,-55.59C93.15,-48.24 102.43,-37.8 110.37,-28.87"/>
<polygon fill="#63b8ff" stroke="#63b8ff" points="112.95,-31.23 116.98,-21.43 107.72,-26.58 112.95,-31.23"/>
</a>
</g>
</g>
</g>
</svg>
