<?xml version="1.0" encoding="UTF-8" standalone="no"?>
<!DOCTYPE svg PUBLIC "-//W3C//DTD SVG 1.1//EN"
 "http://www.w3.org/Graphics/SVG/1.1/DTD/svg11.dtd">
<!-- Generated by graphviz version 13.1.2 (20250808.2320)
 -->
<!-- Title: B3YenaGraphicsEngine9::_PixelPipeline1 Pages: 1 -->
<svg width="452pt" height="40pt"
 viewBox="0.00 0.00 452.00 40.00" xmlns="http://www.w3.org/2000/svg" xmlns:xlink="http://www.w3.org/1999/xlink">
<g id="graph0" class="graph" transform="scale(1 1) rotate(0) translate(4 36)">
<title>B3YenaGraphicsEngine9::_PixelPipeline1</title>
<!-- Node1 -->
<g id="Node000001" class="node">
<title>Node1</title>
<g id="a_Node000001"><a xlink:title=" ">
<polygon fill="#999999" stroke="#666666" points="444,-32 320,-32 320,0 444,0 444,-32"/>
<text xml:space="preserve" text-anchor="start" x="328" y="-18.5" font-family="Helvetica,sans-Serif" font-size="10.00">B3YenaGraphicsEngine9</text>
<text xml:space="preserve" text-anchor="middle" x="382" y="-6.5" font-family="Helvetica,sans-Serif" font-size="10.00">::_PixelPipeline1</text>
</a>
</g>
</g>
<!-- Node2 -->
<g id="Node000002" class="node">
<title>Node2</title>
<g id="a_Node000002"><a xlink:href="a00184_aeebbaf1081457875a8f5923ba8569424.html#aeebbaf1081457875a8f5923ba8569424" target="_top" xlink:title="픽셀 파이프 라인 연산을 수행.">
<polygon fill="white" stroke="#666666" points="284,-32 160,-32 160,0 284,0 284,-32"/>
<text xml:space="preserve" text-anchor="start" x="168" y="-18.5" font-family="Helvetica,sans-Serif" font-size="10.00">B3YenaGraphicsEngine9</text>
<text xml:space="preserve" text-anchor="middle" x="222" y="-6.5" font-family="Helvetica,sans-Serif" font-size="10.00">::_PixelPipeline</text>
</a>
</g>
</g>
<!-- Node1&#45;&gt;Node2 -->
<g id="edge1_Node000001_Node000002" class="edge">
<title>Node1&#45;&gt;Node2</title>
<g id="a_edge1_Node000001_Node000002"><a xlink:title=" ">
<path fill="none" stroke="#63b8ff" d="M308.6,-16C300.53,-16 292.36,-16 284.45,-16"/>
<polygon fill="#63b8ff" stroke="#63b8ff" points="308.4,-19.5 318.4,-16 308.4,-12.5 308.4,-19.5"/>
</a>
</g>
</g>
<!-- Node3 -->
<g id="Node000003" class="node">
<title>Node3</title>
<g id="a_Node000003"><a xlink:href="a00184_a9124b197c0763305a85b3d27dc71ac87.html#a9124b197c0763305a85b3d27dc71ac87" target="_top" xlink:title=" ">
<polygon fill="white" stroke="#666666" points="124,-32 0,-32 0,0 124,0 124,-32"/>
<text xml:space="preserve" text-anchor="start" x="8" y="-18.5" font-family="Helvetica,sans-Serif" font-size="10.00">B3YenaGraphicsEngine9</text>
<text xml:space="preserve" text-anchor="middle" x="62" y="-6.5" font-family="Helvetica,sans-Serif" font-size="10.00">::Draw</text>
</a>
</g>
</g>
<!-- Node2&#45;&gt;Node3 -->
<g id="edge2_Node000002_Node000003" class="edge">
<title>Node2&#45;&gt;Node3</title>
<g id="a_edge2_Node000002_Node000003"><a xlink:title=" ">
<path fill="none" stroke="#63b8ff" d="M148.6,-16C140.53,-16 132.36,-16 124.45,-16"/>
<polygon fill="#63b8ff" stroke="#63b8ff" points="148.4,-19.5 158.4,-16 148.4,-12.5 148.4,-19.5"/>
</a>
</g>
</g>
</g>
</svg>
