<?xml version="1.0" encoding="UTF-8" standalone="no"?>
<!DOCTYPE svg PUBLIC "-//W3C//DTD SVG 1.1//EN"
 "http://www.w3.org/Graphics/SVG/1.1/DTD/svg11.dtd">
<!-- Generated by graphviz version 13.1.2 (20250808.2320)
 -->
<!-- Title: B3YenaGraphicsEngine9::_Line Pages: 1 -->
<svg width="373pt" height="128pt"
 viewBox="0.00 0.00 373.00 128.00" xmlns="http://www.w3.org/2000/svg" xmlns:xlink="http://www.w3.org/1999/xlink">

<svg id="main" version="1.1" xmlns="http://www.w3.org/2000/svg" xmlns:xlink="http://www.w3.org/1999/xlink" xml:space="preserve">

<style type="text/css"><![CDATA[
.node, .edge {opacity: 0.7;}
.node.selected, .edge.selected {opacity: 1;}
.edge:hover path { stroke: red; }
.edge:hover polygon { stroke: red; fill: red; }
]]></style>
<script type="application/ecmascript" xlink:href="svg.min.js"/>
<svg id="graph" class="graph">
<g id="graph0" class="graph" transform="scale(1 1) rotate(0) translate(4 124)">
<title>B3YenaGraphicsEngine9::_Line</title>
<!-- Node1 -->
<g id="Node000001" class="node">
<title>Node1</title>
<g id="a_Node000001"><a xlink:title="라인 그리기. (ver.User)">
<polygon fill="#999999" stroke="#666666" points="124,-76 0,-76 0,-44 124,-44 124,-76"/>
<text xml:space="preserve" text-anchor="start" x="8" y="-62.5" font-family="Helvetica,sans-Serif" font-size="10.00">B3YenaGraphicsEngine9</text>
<text xml:space="preserve" text-anchor="middle" x="62" y="-50.5" font-family="Helvetica,sans-Serif" font-size="10.00">::_Line</text>
</a>
</g>
</g>
<!-- Node2 -->
<g id="Node000002" class="node">
<title>Node2</title>
<g id="a_Node000002"><a xlink:href="a00184_a0a5e0617f78fc8258ed3681b40e54d2f.html#a0a5e0617f78fc8258ed3681b40e54d2f" target="_top" xlink:title=" ">
<polygon fill="white" stroke="#666666" points="284,-120 160,-120 160,-88 284,-88 284,-120"/>
<text xml:space="preserve" text-anchor="start" x="168" y="-106.5" font-family="Helvetica,sans-Serif" font-size="10.00">B3YenaGraphicsEngine9</text>
<text xml:space="preserve" text-anchor="middle" x="222" y="-94.5" font-family="Helvetica,sans-Serif" font-size="10.00">::_HLine</text>
</a>
</g>
</g>
<!-- Node1&#45;&gt;Node2 -->
<g id="edge1_Node000001_Node000002" class="edge">
<title>Node1&#45;&gt;Node2</title>
<g id="a_edge1_Node000001_Node000002"><a xlink:title=" ">
<path fill="none" stroke="#63b8ff" d="M121.83,-76.38C131.33,-79.03 141.25,-81.79 150.98,-84.5"/>
<polygon fill="#63b8ff" stroke="#63b8ff" points="149.82,-87.81 160.4,-87.12 151.7,-81.07 149.82,-87.81"/>
</a>
</g>
</g>
<!-- Node3 -->
<g id="Node000003" class="node">
<title>Node3</title>
<g id="a_Node000003"><a xlink:href="a00141_ga692ccf4262a41b1452e10da737cb17a4.html#ga692ccf4262a41b1452e10da737cb17a4" target="_top" xlink:title="선형보간 (Linear Interpolation) 함수">
<polygon fill="white" stroke="#666666" points="365.25,-70 320,-70 320,-50 365.25,-50 365.25,-70"/>
<text xml:space="preserve" text-anchor="middle" x="342.62" y="-56.5" font-family="Helvetica,sans-Serif" font-size="10.00">ynLerp</text>
</a>
</g>
</g>
<!-- Node1&#45;&gt;Node3 -->
<g id="edge5_Node000001_Node000003" class="edge">
<title>Node1&#45;&gt;Node3</title>
<g id="a_edge5_Node000001_Node000003"><a xlink:title=" ">
<path fill="none" stroke="#63b8ff" d="M124.49,-60C181.13,-60 263.03,-60 308.34,-60"/>
<polygon fill="#63b8ff" stroke="#63b8ff" points="308.05,-63.5 318.05,-60 308.05,-56.5 308.05,-63.5"/>
</a>
</g>
</g>
<!-- Node4 -->
<g id="Node000004" class="node">
<title>Node4</title>
<g id="a_Node000004"><a xlink:href="a00184_a8b141b86844b5613fcae1b934bd049ca.html#a8b141b86844b5613fcae1b934bd049ca" target="_top" xlink:title="수직선 그리기">
<polygon fill="white" stroke="#666666" points="284,-32 160,-32 160,0 284,0 284,-32"/>
<text xml:space="preserve" text-anchor="start" x="168" y="-18.5" font-family="Helvetica,sans-Serif" font-size="10.00">B3YenaGraphicsEngine9</text>
<text xml:space="preserve" text-anchor="middle" x="222" y="-6.5" font-family="Helvetica,sans-Serif" font-size="10.00">::_VLine</text>
</a>
</g>
</g>
<!-- Node1&#45;&gt;Node4 -->
<g id="edge3_Node000001_Node000004" class="edge">
<title>Node1&#45;&gt;Node4</title>
<g id="a_edge3_Node000001_Node000004"><a xlink:title=" ">
<path fill="none" stroke="#63b8ff" d="M121.83,-43.62C131.33,-40.97 141.25,-38.21 150.98,-35.5"/>
<polygon fill="#63b8ff" stroke="#63b8ff" points="151.7,-38.93 160.4,-32.88 149.82,-32.19 151.7,-38.93"/>
</a>
</g>
</g>
<!-- Node2&#45;&gt;Node3 -->
<g id="edge2_Node000002_Node000003" class="edge">
<title>Node2&#45;&gt;Node3</title>
<g id="a_edge2_Node000002_Node000003"><a xlink:title=" ">
<path fill="none" stroke="#63b8ff" d="M267.17,-87.62C281.03,-82.48 296.07,-76.9 308.98,-72.11"/>
<polygon fill="#63b8ff" stroke="#63b8ff" points="310.12,-75.42 318.28,-68.66 307.68,-68.86 310.12,-75.42"/>
</a>
</g>
</g>
<!-- Node4&#45;&gt;Node3 -->
<g id="edge4_Node000004_Node000003" class="edge">
<title>Node4&#45;&gt;Node3</title>
<g id="a_edge4_Node000004_Node000003"><a xlink:title=" ">
<path fill="none" stroke="#63b8ff" d="M267.17,-32.38C281.03,-37.52 296.07,-43.1 308.98,-47.89"/>
<polygon fill="#63b8ff" stroke="#63b8ff" points="307.68,-51.14 318.28,-51.34 310.12,-44.58 307.68,-51.14"/>
</a>
</g>
</g>
</g>
</svg>
</svg>

<style type='text/css'>
<![CDATA[
[data-mouse-over-selected='false'] { opacity: 0.7; }
[data-mouse-over-selected='true']  { opacity: 1.0; }
]]>
</style>
<script type="application/ecmascript"><![CDATA[
document.addEventListener('DOMContentLoaded', (event) => {
  highlightEdges();
  highlightAdjacentNodes();
});
]]></script>
</svg>
