<?xml version="1.0" encoding="UTF-8" standalone="no"?>
<!DOCTYPE svg PUBLIC "-//W3C//DTD SVG 1.1//EN"
 "http://www.w3.org/Graphics/SVG/1.1/DTD/svg11.dtd">
<!-- Generated by graphviz version 13.1.2 (20250808.2320)
 -->
<!-- Title: YENA::ynAxis::Update Pages: 1 -->
<svg width="439pt" height="66pt"
 viewBox="0.00 0.00 439.00 66.00" xmlns="http://www.w3.org/2000/svg" xmlns:xlink="http://www.w3.org/1999/xlink">
<g id="graph0" class="graph" transform="scale(1 1) rotate(0) translate(4 62)">
<title>YENA::ynAxis::Update</title>
<!-- Node1 -->
<g id="Node000001" class="node">
<title>Node1</title>
<g id="a_Node000001"><a xlink:title="월드 좌표 공간에 정렬하여 축 선 보여주기.">
<polygon fill="#999999" stroke="#666666" points="117.25,-39 0,-39 0,-19 117.25,-19 117.25,-39"/>
<text xml:space="preserve" text-anchor="middle" x="58.62" y="-25.5" font-family="Helvetica,sans-Serif" font-size="10.00">YENA::ynAxis::Update</text>
</a>
</g>
</g>
<!-- Node2 -->
<g id="Node000002" class="node">
<title>Node2</title>
<g id="a_Node000002"><a xlink:href="a00141_ga02a75a42a0bae280a3396ecdb1c124e7.html#ga02a75a42a0bae280a3396ecdb1c124e7" target="_top" xlink:title="행렬 단위화(초기화) 함수">
<polygon fill="white" stroke="#666666" points="270.5,-58 169.75,-58 169.75,-38 270.5,-38 270.5,-58"/>
<text xml:space="preserve" text-anchor="middle" x="220.12" y="-44.5" font-family="Helvetica,sans-Serif" font-size="10.00">B3YXMatrixIdentity</text>
</a>
</g>
</g>
<!-- Node1&#45;&gt;Node2 -->
<g id="edge1_Node000001_Node000002" class="edge">
<title>Node1&#45;&gt;Node2</title>
<g id="a_edge1_Node000001_Node000002"><a xlink:title=" ">
<path fill="none" stroke="#63b8ff" d="M117.66,-35.91C130.75,-37.47 144.68,-39.13 157.9,-40.71"/>
<polygon fill="#63b8ff" stroke="#63b8ff" points="157.44,-44.18 167.79,-41.88 158.27,-37.23 157.44,-44.18"/>
</a>
</g>
</g>
<!-- Node3 -->
<g id="Node000003" class="node">
<title>Node3</title>
<g id="a_Node000003"><a xlink:href="a00141_gaab4b8a133234f6db34eefb2cd378860b.html#gaab4b8a133234f6db34eefb2cd378860b" target="_top" xlink:title=" ">
<polygon fill="white" stroke="#666666" points="287,-20 153.25,-20 153.25,0 287,0 287,-20"/>
<text xml:space="preserve" text-anchor="middle" x="220.12" y="-6.5" font-family="Helvetica,sans-Serif" font-size="10.00">B3YXVec3TransformCoord</text>
</a>
</g>
</g>
<!-- Node1&#45;&gt;Node3 -->
<g id="edge2_Node000001_Node000003" class="edge">
<title>Node1&#45;&gt;Node3</title>
<g id="a_edge2_Node000001_Node000003"><a xlink:title=" ">
<path fill="none" stroke="#63b8ff" d="M117.66,-22.09C125.41,-21.16 133.45,-20.21 141.47,-19.25"/>
<polygon fill="#63b8ff" stroke="#63b8ff" points="141.73,-22.74 151.25,-18.09 140.91,-15.79 141.73,-22.74"/>
</a>
</g>
</g>
<!-- Node4 -->
<g id="Node000004" class="node">
<title>Node4</title>
<g id="a_Node000004"><a xlink:href="a00141_gac92d3779970783c90541ce2d7186f3bf.html#gac92d3779970783c90541ce2d7186f3bf" target="_top" xlink:title=" ">
<polygon fill="white" stroke="#666666" points="430.5,-20 323,-20 323,0 430.5,0 430.5,-20"/>
<text xml:space="preserve" text-anchor="middle" x="376.75" y="-6.5" font-family="Helvetica,sans-Serif" font-size="10.00">B3YXVec4Transform</text>
</a>
</g>
</g>
<!-- Node3&#45;&gt;Node4 -->
<g id="edge3_Node000003_Node000004" class="edge">
<title>Node3&#45;&gt;Node4</title>
<g id="a_edge3_Node000003_Node000004"><a xlink:title=" ">
<path fill="none" stroke="#63b8ff" d="M287.15,-10C295.09,-10 303.19,-10 311.12,-10"/>
<polygon fill="#63b8ff" stroke="#63b8ff" points="311.04,-13.5 321.04,-10 311.04,-6.5 311.04,-13.5"/>
</a>
</g>
</g>
</g>
</svg>
