<?xml version="1.0" encoding="UTF-8" standalone="no"?>
<!DOCTYPE svg PUBLIC "-//W3C//DTD SVG 1.1//EN"
 "http://www.w3.org/Graphics/SVG/1.1/DTD/svg11.dtd">
<!-- Generated by graphviz version 13.1.2 (20250808.2320)
 -->
<!-- Title: YENA::ynAxis Pages: 1 -->
<!--zoomable 253 -->

<svg id="main" version="1.1" xmlns="http://www.w3.org/2000/svg" xmlns:xlink="http://www.w3.org/1999/xlink" xml:space="preserve" onload="init(evt)">

<style type="text/css"><![CDATA[
.node, .edge {opacity: 0.7;}
.node.selected, .edge.selected {opacity: 1;}
.edge:hover path { stroke: red; }
.edge:hover polygon { stroke: red; fill: red; }
]]></style>

<defs>
  <circle id="rim" cx="0" cy="0" r="7"/>
  <circle id="rim2" cx="0" cy="0" r="3.5"/>
  <g id="zoomPlus">
    <use xlink:href="#rim" fill="#404040"><set attributeName="fill" to="#808080" begin="zoomplus.mouseover" end="zoomplus.mouseout"/></use>
    <path d="M-4,0h8M0,-4v8" fill="none" stroke="white" stroke-width="1.5" pointer-events="none"/>
  </g>
  <g id="zoomMin">
    <use xlink:href="#rim" fill="#404040"><set attributeName="fill" to="#808080" begin="zoomminus.mouseover" end="zoomminus.mouseout"/></use>
    <path d="M-4,0h8" fill="none" stroke="white" stroke-width="1.5" pointer-events="none"/>
  </g>
  <g id="arrowUp" transform="translate(30 24)">
    <use xlink:href="#rim"/>
    <path pointer-events="none" fill="none" stroke="white" stroke-width="1.5" d="M0,-3.0v7 M-2.5,-0.5L0,-3.0L2.5,-0.5"/>
  </g>
  <g id="arrowRight" transform="rotate(90) translate(36 -43)">
    <use xlink:href="#rim"/>
    <path pointer-events="none" fill="none" stroke="white" stroke-width="1.5" d="M0,-3.0v7 M-2.5,-0.5L0,-3.0L2.5,-0.5"/>
  </g>
  <g id="arrowDown" transform="rotate(180) translate(-30 -48)">
    <use xlink:href="#rim"/>
    <path pointer-events="none" fill="none" stroke="white" stroke-width="1.5" d="M0,-3.0v7 M-2.5,-0.5L0,-3.0L2.5,-0.5"/>
  </g>
  <g id="arrowLeft" transform="rotate(270) translate(-36 17)">
    <use xlink:href="#rim"/>
    <path pointer-events="none" fill="none" stroke="white" stroke-width="1.5" d="M0,-3.0v7 M-2.5,-0.5L0,-3.0L2.5,-0.5"/>
  </g>
  <g id="resetDef">
    <use xlink:href="#rim2" fill="#404040"><set attributeName="fill" to="#808080" begin="reset.mouseover" end="reset.mouseout"/></use>
  </g>
</defs>
<script type="application/ecmascript">
var viewWidth = 637;
var viewHeight = 253;
var sectionId = 'dynsection-0';
</script>
<script type="application/ecmascript" xlink:href="svg.min.js"/>
<svg id="graph" class="graph">
<g id="viewport">
<title>YENA::ynAxis</title>
<!-- Node1 -->
<g id="Node000001" class="node">
<title>Node1</title>
<g id="a_Node000001"><a xlink:title="공간축 표시 클래스">
<polygon fill="#999999" stroke="#666666" points="629.25,-127 549.5,-127 549.5,-107 629.25,-107 629.25,-127"/>
<text xml:space="preserve" text-anchor="middle" x="589.38" y="-113.5" font-family="Helvetica,sans-Serif" font-size="10.00">YENA::ynAxis</text>
</a>
</g>
</g>
<!-- Node2 -->
<g id="Node000002" class="node">
<title>Node2</title>
<g id="a_Node000002"><a xlink:href="a00296.html" target="_top" xlink:title="Yena 렌더링 디바이스 운용 인터페이스 : IDirect3DDevice9 대응">
<polygon fill="white" stroke="#666666" points="302.5,-233 225.75,-233 225.75,-213 302.5,-213 302.5,-233"/>
<text xml:space="preserve" text-anchor="middle" x="264.12" y="-219.5" font-family="Helvetica,sans-Serif" font-size="10.00">IYenaDevice9</text>
</a>
</g>
</g>
<!-- Node2&#45;&gt;Node1 -->
<g id="edge1_Node000001_Node000002" class="edge">
<title>Node2&#45;&gt;Node1</title>
<g id="a_edge1_Node000001_Node000002"><a xlink:title=" ">
<path fill="none" stroke="#9a32cd" stroke-dasharray="5,2" d="M314.11,-226.31C370.27,-227.88 463.34,-223.5 531.5,-185 555.89,-171.22 574.35,-142.67 582.98,-127.31"/>
<polygon fill="#9a32cd" stroke="#9a32cd" points="314.34,-222.82 304.22,-225.95 314.09,-229.81 314.34,-222.82"/>
</a>
</g>
<text xml:space="preserve" text-anchor="start" x="369" y="-232.08" font-family="Helvetica,sans-Serif" font-size="10.00" fill="grey">m_pDev</text>
</g>
<!-- Node3 -->
<g id="Node000003" class="node">
<title>Node3</title>
<g id="a_Node000003"><a xlink:href="a00280.html" target="_top" xlink:title="Yena SWR COM 최상위 인터페이스 &lt;간략&gt;">
<polygon fill="white" stroke="#666666" points="76.38,-209 5.62,-209 5.62,-189 76.38,-189 76.38,-209"/>
<text xml:space="preserve" text-anchor="middle" x="41" y="-195.5" font-family="Helvetica,sans-Serif" font-size="10.00">ynIUnknown</text>
</a>
</g>
</g>
<!-- Node3&#45;&gt;Node2 -->
<g id="edge2_Node000002_Node000003" class="edge">
<title>Node3&#45;&gt;Node2</title>
<g id="a_edge2_Node000002_Node000003"><a xlink:title=" ">
<path fill="none" stroke="#63b8ff" d="M87.79,-203.97C128.54,-208.39 187.42,-214.78 225.49,-218.92"/>
<polygon fill="#63b8ff" stroke="#63b8ff" points="88.37,-200.51 78.06,-202.91 87.62,-207.47 88.37,-200.51"/>
</a>
</g>
</g>
<!-- Node5 -->
<g id="Node000005" class="node">
<title>Node5</title>
<g id="a_Node000005"><a xlink:href="a00284.html" target="_top" xlink:title="렌더링 자원 기반 인터페이스 : IDirect3DResource9 대응">
<polygon fill="white" stroke="#666666" points="207.38,-190 119.38,-190 119.38,-170 207.38,-170 207.38,-190"/>
<text xml:space="preserve" text-anchor="middle" x="163.38" y="-176.5" font-family="Helvetica,sans-Serif" font-size="10.00">IYenaResource9</text>
</a>
</g>
</g>
<!-- Node3&#45;&gt;Node5 -->
<g id="edge5_Node000005_Node000003" class="edge">
<title>Node3&#45;&gt;Node5</title>
<g id="a_edge5_Node000005_Node000003"><a xlink:title=" ">
<path fill="none" stroke="#63b8ff" d="M88.02,-191.74C98.22,-190.13 108.99,-188.43 119.07,-186.83"/>
<polygon fill="#63b8ff" stroke="#63b8ff" points="87.64,-188.25 78.31,-193.27 88.74,-195.17 87.64,-188.25"/>
</a>
</g>
</g>
<!-- Node4 -->
<g id="Node000004" class="node">
<title>Node4</title>
<g id="a_Node000004"><a xlink:href="a00288.html" target="_top" xlink:title="정점 버퍼 운용 인터페이스 : IDirect3DVertexBuffer9 대응">
<polygon fill="white" stroke="#666666" points="437,-188 337.75,-188 337.75,-168 437,-168 437,-188"/>
<text xml:space="preserve" text-anchor="middle" x="387.38" y="-174.5" font-family="Helvetica,sans-Serif" font-size="10.00">IYenaVertexBuffer9</text>
</a>
</g>
</g>
<!-- Node4&#45;&gt;Node1 -->
<g id="edge3_Node000001_Node000004" class="edge">
<title>Node4&#45;&gt;Node1</title>
<g id="a_edge3_Node000001_Node000004"><a xlink:title=" ">
<path fill="none" stroke="#9a32cd" stroke-dasharray="5,2" d="M448.47,-168.06C474.44,-162.87 504.89,-155.58 531.5,-146 545.16,-141.08 559.73,-133.6 570.71,-127.47"/>
<polygon fill="#9a32cd" stroke="#9a32cd" points="447.91,-164.6 438.76,-169.94 449.24,-171.48 447.91,-164.6"/>
</a>
</g>
<text xml:space="preserve" text-anchor="start" x="485.75" y="-168.15" font-family="Helvetica,sans-Serif" font-size="10.00" fill="grey">m_pVB</text>
</g>
<!-- Node5&#45;&gt;Node4 -->
<g id="edge4_Node000004_Node000005" class="edge">
<title>Node5&#45;&gt;Node4</title>
<g id="a_edge4_Node000004_Node000005"><a xlink:title=" ">
<path fill="none" stroke="#63b8ff" d="M219.05,-179.51C255.27,-179.18 302.36,-178.76 337.36,-178.44"/>
<polygon fill="#63b8ff" stroke="#63b8ff" points="219.19,-176.01 209.22,-179.6 219.25,-183.01 219.19,-176.01"/>
</a>
</g>
</g>
<!-- Node6 -->
<g id="Node000006" class="node">
<title>Node6</title>
<g id="a_Node000006"><a xlink:href="a00168.html" target="_top" xlink:title=" ">
<polygon fill="white" stroke="#666666" points="454.25,-96 320.5,-96 320.5,-76 454.25,-76 454.25,-96"/>
<text xml:space="preserve" text-anchor="middle" x="387.38" y="-82.5" font-family="Helvetica,sans-Serif" font-size="10.00">YENA::ynAxis::VTX_AXIS</text>
</a>
</g>
</g>
<!-- Node6&#45;&gt;Node1 -->
<g id="edge6_Node000001_Node000006" class="edge">
<title>Node6&#45;&gt;Node1</title>
<g id="a_edge6_Node000001_Node000006"><a xlink:title=" ">
<path fill="none" stroke="#9a32cd" stroke-dasharray="5,2" d="M466,-90.84C487.35,-92.92 510.42,-95.86 531.5,-100 539.99,-101.67 549.04,-104.07 557.36,-106.55"/>
<polygon fill="#9a32cd" stroke="#9a32cd" points="466.46,-87.37 456.18,-89.94 465.82,-94.34 466.46,-87.37"/>
</a>
</g>
<text xml:space="preserve" text-anchor="start" x="482.38" y="-105.5" font-family="Helvetica,sans-Serif" font-size="10.00" fill="grey">m_pVtxs</text>
</g>
<!-- Node7 -->
<g id="Node000007" class="node">
<title>Node7</title>
<g id="a_Node000007"><a xlink:href="a00248.html" target="_top" xlink:title="벡터 클래스 (3성분)">
<polygon fill="white" stroke="#666666" points="207.75,-123 119,-123 119,-103 207.75,-103 207.75,-123"/>
<text xml:space="preserve" text-anchor="middle" x="163.38" y="-109.5" font-family="Helvetica,sans-Serif" font-size="10.00">B3YXVECTOR3</text>
</a>
</g>
</g>
<!-- Node7&#45;&gt;Node1 -->
<g id="edge9_Node000001_Node000007" class="edge">
<title>Node7&#45;&gt;Node1</title>
<g id="a_edge9_Node000001_Node000007"><a xlink:title=" ">
<path fill="none" stroke="#9a32cd" stroke-dasharray="5,2" d="M219.16,-117.69C221.38,-117.81 223.59,-117.91 225.75,-118 343.38,-122.78 482.65,-120.05 549.18,-118.22"/>
<polygon fill="#9a32cd" stroke="#9a32cd" points="219.64,-114.21 209.45,-117.08 219.21,-121.2 219.64,-114.21"/>
</a>
</g>
<text xml:space="preserve" text-anchor="start" x="360" y="-126.17" font-family="Helvetica,sans-Serif" font-size="10.00" fill="grey">m_vTextPos</text>
</g>
<!-- Node7&#45;&gt;Node6 -->
<g id="edge7_Node000006_Node000007" class="edge">
<title>Node7&#45;&gt;Node6</title>
<g id="a_edge7_Node000006_Node000007"><a xlink:title=" ">
<path fill="none" stroke="#9a32cd" stroke-dasharray="5,2" d="M219.23,-101.04C221.43,-100.67 223.61,-100.32 225.75,-100 256.62,-95.4 291.07,-92.15 320.13,-89.95"/>
<polygon fill="#9a32cd" stroke="#9a32cd" points="218.88,-97.54 209.67,-102.77 220.13,-104.43 218.88,-97.54"/>
</a>
</g>
<text xml:space="preserve" text-anchor="start" x="252.88" y="-105.5" font-family="Helvetica,sans-Serif" font-size="10.00" fill="grey">vPos</text>
</g>
<!-- Node8 -->
<g id="Node000008" class="node">
<title>Node8</title>
<g id="a_Node000008"><a xlink:href="a00236.html" target="_top" xlink:title=" ">
<polygon fill="white" stroke="#666666" points="82,-123 0,-123 0,-103 82,-103 82,-123"/>
<text xml:space="preserve" text-anchor="middle" x="41" y="-109.5" font-family="Helvetica,sans-Serif" font-size="10.00">B3YVECTOR3</text>
</a>
</g>
</g>
<!-- Node8&#45;&gt;Node7 -->
<g id="edge8_Node000007_Node000008" class="edge">
<title>Node8&#45;&gt;Node7</title>
<g id="a_edge8_Node000007_Node000008"><a xlink:title=" ">
<path fill="none" stroke="#63b8ff" d="M93.85,-113C102.08,-113 110.53,-113 118.55,-113"/>
<polygon fill="#63b8ff" stroke="#63b8ff" points="93.93,-109.5 83.93,-113 93.93,-116.5 93.93,-109.5"/>
</a>
</g>
</g>
<!-- Node9 -->
<g id="Node000009" class="node">
<title>Node9</title>
<g id="a_Node000009"><a xlink:href="a00268.html" target="_top" xlink:title="\u{2b50} 행렬 클래스">
<polygon fill="white" stroke="#666666" points="426.88,-58 347.88,-58 347.88,-38 426.88,-38 426.88,-58"/>
<text xml:space="preserve" text-anchor="middle" x="387.38" y="-44.5" font-family="Helvetica,sans-Serif" font-size="10.00">B3YXMATRIX</text>
</a>
</g>
</g>
<!-- Node9&#45;&gt;Node1 -->
<g id="edge10_Node000001_Node000009" class="edge">
<title>Node9&#45;&gt;Node1</title>
<g id="a_edge10_Node000001_Node000009"><a xlink:title=" ">
<path fill="none" stroke="#9a32cd" stroke-dasharray="5,2" d="M438.58,-49.18C466.91,-51.42 502.37,-56.94 531.5,-70 550.9,-78.7 569.06,-95.88 579.42,-106.88"/>
<polygon fill="#9a32cd" stroke="#9a32cd" points="439.03,-45.7 428.82,-48.53 438.57,-52.68 439.03,-45.7"/>
</a>
</g>
<text xml:space="preserve" text-anchor="start" x="483.88" y="-75.5" font-family="Helvetica,sans-Serif" font-size="10.00" fill="grey">m_mTM</text>
</g>
<!-- Node10 -->
<g id="Node000010" class="node">
<title>Node10</title>
<g id="a_Node000010"><a xlink:href="a00256.html" target="_top" xlink:title="\u{2b50} 행렬 구조체">
<polygon fill="white" stroke="#666666" points="199.5,-58 127.25,-58 127.25,-38 199.5,-38 199.5,-58"/>
<text xml:space="preserve" text-anchor="middle" x="163.38" y="-44.5" font-family="Helvetica,sans-Serif" font-size="10.00">B3YMATRIX</text>
</a>
</g>
</g>
<!-- Node10&#45;&gt;Node9 -->
<g id="edge11_Node000009_Node000010" class="edge">
<title>Node10&#45;&gt;Node9</title>
<g id="a_edge11_Node000009_Node000010"><a xlink:title=" ">
<path fill="none" stroke="#63b8ff" d="M211.01,-48C251.55,-48 309.6,-48 347.63,-48"/>
<polygon fill="#63b8ff" stroke="#63b8ff" points="211.07,-44.5 201.07,-48 211.07,-51.5 211.07,-44.5"/>
</a>
</g>
</g>
<!-- Node11 -->
<g id="Node000011" class="node">
<title>Node11</title>
<g id="a_Node000011"><a xlink:href="a00332.html" target="_top" xlink:title="출력 화면 영역 정보 구조체. &#160;&#160;뷰포트 멥핑(Viewport Mapping) 의 변환 정보를 관리한다. D3DVIEWPORT9 대응.">
<polygon fill="white" stroke="#666666" points="431.38,-20 343.38,-20 343.38,0 431.38,0 431.38,-20"/>
<text xml:space="preserve" text-anchor="middle" x="387.38" y="-6.5" font-family="Helvetica,sans-Serif" font-size="10.00">B3YVIEWPORT</text>
</a>
</g>
</g>
<!-- Node11&#45;&gt;Node1 -->
<g id="edge12_Node000001_Node000011" class="edge">
<title>Node11&#45;&gt;Node1</title>
<g id="a_edge12_Node000001_Node000011"><a xlink:title=" ">
<path fill="none" stroke="#9a32cd" stroke-dasharray="5,2" d="M442.97,-8.2C471.33,-9.66 505.4,-15.39 531.5,-32 559.96,-50.11 577.5,-88.16 584.66,-106.58"/>
<polygon fill="#9a32cd" stroke="#9a32cd" points="443.24,-4.71 433.13,-7.87 443,-11.7 443.24,-4.71"/>
</a>
</g>
<text xml:space="preserve" text-anchor="start" x="475.25" y="-37.5" font-family="Helvetica,sans-Serif" font-size="10.00" fill="grey">m_ViewPort</text>
</g>
</g>
</svg>

<g id="navigator" transform="translate(0 0)" fill="#404254">
  <rect fill="#f2f5e9" fill-opacity="0.5" stroke="#606060" stroke-width=".5" x="0" y="0" width="60" height="60"/>
  <use id="zoomplus" xlink:href="#zoomPlus" x="17" y="9" onmousedown="handleZoom(evt,'in')"/>
  <use id="zoomminus" xlink:href="#zoomMin" x="42" y="9" onmousedown="handleZoom(evt,'out')"/>
  <use id="reset" xlink:href="#resetDef" x="30" y="36" onmousedown="handleReset()"/>
   <use id="arrowup" xlink:href="#arrowUp" x="0" y="0" onmousedown="handlePan(0,-1)"/>
  <use id="arrowright" xlink:href="#arrowRight" x="0" y="0" onmousedown="handlePan(1,0)"/>
  <use id="arrowdown" xlink:href="#arrowDown" x="0" y="0" onmousedown="handlePan(0,1)"/>
  <use id="arrowleft" xlink:href="#arrowLeft" x="0" y="0" onmousedown="handlePan(-1,0)"/>
</g>
<svg viewBox="0 0 15 15" width="100%" height="30px" preserveAspectRatio="xMaxYMin meet">
 <g id="arrow_out" transform="scale(0.3 0.3)">
  <a xlink:href="a00162_org.svg" target="_base">
   <rect id="button" ry="5" rx="5" y="6" x="6" height="38" width="38"
        fill="#f2f5e9" fill-opacity="0.5" stroke="#606060" stroke-width="1.0"/>
   <path id="arrow"
     d="M 11.500037,31.436501 C 11.940474,20.09759 22.043105,11.32322 32.158766,21.979434 L 37.068811,17.246167 C 37.068811,17.246167 37.088388,32 37.088388,32 L 22.160133,31.978069 C 22.160133,31.978069 26.997745,27.140456 26.997745,27.140456 C 18.528582,18.264221 13.291696,25.230495 11.500037,31.436501 z"
     style="fill:#404040;"/>
  </a>
 </g>
</svg>

<style type='text/css'>
<![CDATA[
[data-mouse-over-selected='false'] { opacity: 0.7; }
[data-mouse-over-selected='true']  { opacity: 1.0; }
]]>
</style>
<script type="application/ecmascript"><![CDATA[
document.addEventListener('DOMContentLoaded', (event) => {
  highlightEdges();
  highlightAdjacentNodes();
});
]]></script>
</svg>
