<?xml version="1.0" encoding="UTF-8" standalone="no"?>
<!DOCTYPE svg PUBLIC "-//W3C//DTD SVG 1.1//EN"
 "http://www.w3.org/Graphics/SVG/1.1/DTD/svg11.dtd">
<!-- Generated by graphviz version 13.1.2 (20250808.2320)
 -->
<!-- Title: YENA::ynAxis::Init Pages: 1 -->
<svg width="449pt" height="66pt"
 viewBox="0.00 0.00 449.00 66.00" xmlns="http://www.w3.org/2000/svg" xmlns:xlink="http://www.w3.org/1999/xlink">
<g id="graph0" class="graph" transform="scale(1 1) rotate(0) translate(4 62)">
<title>YENA::ynAxis::Init</title>
<!-- Node1 -->
<g id="Node000001" class="node">
<title>Node1</title>
<g id="a_Node000001"><a xlink:title=" ">
<polygon fill="#999999" stroke="#666666" points="441.25,-39 342,-39 342,-19 441.25,-19 441.25,-39"/>
<text xml:space="preserve" text-anchor="middle" x="391.62" y="-25.5" font-family="Helvetica,sans-Serif" font-size="10.00">YENA::ynAxis::Init</text>
</a>
</g>
</g>
<!-- Node2 -->
<g id="Node000002" class="node">
<title>Node2</title>
<g id="a_Node000002"><a xlink:href="a00140_gaad9460ee22a8ee275572ea50c92ff61b.html#gaad9460ee22a8ee275572ea50c92ff61b" target="_top" xlink:title=" ">
<polygon fill="white" stroke="#666666" points="306,-58 197,-58 197,-38 306,-38 306,-58"/>
<text xml:space="preserve" text-anchor="middle" x="251.5" y="-44.5" font-family="Helvetica,sans-Serif" font-size="10.00">YENA::ynAxisCreate</text>
</a>
</g>
</g>
<!-- Node1&#45;&gt;Node2 -->
<g id="edge1_Node000001_Node000002" class="edge">
<title>Node1&#45;&gt;Node2</title>
<g id="a_edge1_Node000001_Node000002"><a xlink:title=" ">
<path fill="none" stroke="#63b8ff" d="M330.31,-37.3C322.26,-38.4 314.05,-39.53 306.12,-40.62"/>
<polygon fill="#63b8ff" stroke="#63b8ff" points="330.61,-40.79 340.04,-35.96 329.66,-33.85 330.61,-40.79"/>
</a>
</g>
</g>
<!-- Node5 -->
<g id="Node000005" class="node">
<title>Node5</title>
<g id="a_Node000005"><a xlink:href="a00140_ga447f8bcca6e8e45d553a90d87a66dea2.html#ga447f8bcca6e8e45d553a90d87a66dea2" target="_top" xlink:title=" ">
<polygon fill="white" stroke="#666666" points="306,-20 197,-20 197,0 306,0 306,-20"/>
<text xml:space="preserve" text-anchor="middle" x="251.5" y="-6.5" font-family="Helvetica,sans-Serif" font-size="10.00">YENA::ynAxisCreate</text>
</a>
</g>
</g>
<!-- Node1&#45;&gt;Node5 -->
<g id="edge4_Node000001_Node000005" class="edge">
<title>Node1&#45;&gt;Node5</title>
<g id="a_edge4_Node000001_Node000005"><a xlink:title=" ">
<path fill="none" stroke="#63b8ff" d="M330.31,-20.7C322.26,-19.6 314.05,-18.47 306.12,-17.38"/>
<polygon fill="#63b8ff" stroke="#63b8ff" points="329.66,-24.15 340.04,-22.04 330.61,-17.21 329.66,-24.15"/>
</a>
</g>
</g>
<!-- Node3 -->
<g id="Node000003" class="node">
<title>Node3</title>
<g id="a_Node000003"><a xlink:href="a00059_a57d51554e2556fddd2c6d059b69dc5cb.html#a57d51554e2556fddd2c6d059b69dc5cb" target="_top" xlink:title=" ">
<polygon fill="white" stroke="#666666" points="161,-58 90.25,-58 90.25,-38 161,-38 161,-58"/>
<text xml:space="preserve" text-anchor="middle" x="125.62" y="-44.5" font-family="Helvetica,sans-Serif" font-size="10.00">DataLoading</text>
</a>
</g>
</g>
<!-- Node2&#45;&gt;Node3 -->
<g id="edge2_Node000002_Node000003" class="edge">
<title>Node2&#45;&gt;Node3</title>
<g id="a_edge2_Node000002_Node000003"><a xlink:title=" ">
<path fill="none" stroke="#63b8ff" d="M185.22,-48C176.92,-48 168.7,-48 161.16,-48"/>
<polygon fill="#63b8ff" stroke="#63b8ff" points="185.01,-51.5 195.01,-48 185.01,-44.5 185.01,-51.5"/>
</a>
</g>
</g>
<!-- Node4 -->
<g id="Node000004" class="node">
<title>Node4</title>
<g id="a_Node000004"><a xlink:href="a00056_a1122673f59be78a3997ec7dd1c4688f9.html#a1122673f59be78a3997ec7dd1c4688f9" target="_top" xlink:title="애플리케이션 메인 함수.">
<polygon fill="white" stroke="#666666" points="54.25,-58 0,-58 0,-38 54.25,-38 54.25,-58"/>
<text xml:space="preserve" text-anchor="middle" x="27.12" y="-44.5" font-family="Helvetica,sans-Serif" font-size="10.00">WinMain</text>
</a>
</g>
</g>
<!-- Node3&#45;&gt;Node4 -->
<g id="edge3_Node000003_Node000004" class="edge">
<title>Node3&#45;&gt;Node4</title>
<g id="a_edge3_Node000003_Node000004"><a xlink:title=" ">
<path fill="none" stroke="#63b8ff" d="M78.44,-48C70.31,-48 62.1,-48 54.73,-48"/>
<polygon fill="#63b8ff" stroke="#63b8ff" points="78.27,-51.5 88.27,-48 78.27,-44.5 78.27,-51.5"/>
</a>
</g>
</g>
</g>
</svg>
