<?xml version="1.0" encoding="UTF-8" standalone="no"?>
<!DOCTYPE svg PUBLIC "-//W3C//DTD SVG 1.1//EN"
 "http://www.w3.org/Graphics/SVG/1.1/DTD/svg11.dtd">
<!-- Generated by graphviz version 13.1.2 (20250808.2320)
 -->
<!-- Title: 문제점 Pages: 1 -->
<svg width="189pt" height="66pt"
 viewBox="0.00 0.00 189.00 66.00" xmlns="http://www.w3.org/2000/svg" xmlns:xlink="http://www.w3.org/1999/xlink">
<g id="graph0" class="graph" transform="scale(1 1) rotate(0) translate(4 62)">
<title>문제점</title>
<!-- Node1 -->
<g id="Node000001" class="node">
<title>Node1</title>
<g id="a_Node000001"><a xlink:title=" ">
<polygon fill="#999999" stroke="#666666" points="63.25,-38.62 0,-38.62 0,-19.38 63.25,-19.38 63.25,-38.62"/>
<text xml:space="preserve" text-anchor="middle" x="31.62" y="-25.12" font-family="Helvetica,sans-Serif" font-size="10.00">문제점</text>
</a>
</g>
</g>
<!-- Node2 -->
<g id="Node000002" class="node">
<title>Node2</title>
<g id="a_Node000002"><a xlink:href="a00144.html" target="_top" xlink:title=" ">
<polygon fill="white" stroke="#666666" points="181.25,-58 99.25,-58 99.25,-38 181.25,-38 181.25,-58"/>
<text xml:space="preserve" text-anchor="middle" x="140.25" y="-44.5" font-family="Helvetica,sans-Serif" font-size="10.00">기능 오류</text>
</a>
</g>
</g>
<!-- Node1&#45;&gt;Node2 -->
<g id="edge1" class="edge">
<title>Node1&#45;&gt;Node2</title>
<path fill="none" stroke="black" d="M74.79,-36.51C82.74,-37.93 91.05,-39.41 98.94,-40.82"/>
<polygon fill="black" stroke="black" points="75.41,-33.07 64.96,-34.76 74.19,-39.96 75.41,-33.07"/>
</g>
<!-- Node3 -->
<g id="Node000003" class="node">
<title>Node3</title>
<g id="a_Node000003"><a xlink:href="a00145.html" target="_top" xlink:title=" ">
<polygon fill="white" stroke="#666666" points="181.25,-20 99.25,-20 99.25,0 181.25,0 181.25,-20"/>
<text xml:space="preserve" text-anchor="middle" x="140.25" y="-6.5" font-family="Helvetica,sans-Serif" font-size="10.00">성능 개량</text>
</a>
</g>
</g>
<!-- Node1&#45;&gt;Node3 -->
<g id="edge2" class="edge">
<title>Node1&#45;&gt;Node3</title>
<path fill="none" stroke="black" d="M74.79,-21.49C82.74,-20.07 91.05,-18.59 98.94,-17.18"/>
<polygon fill="black" stroke="black" points="74.19,-18.04 64.96,-23.24 75.41,-24.93 74.19,-18.04"/>
</g>
</g>
</svg>
