<?xml version="1.0" encoding="UTF-8" standalone="no"?>
<!DOCTYPE svg PUBLIC "-//W3C//DTD SVG 1.1//EN"
 "http://www.w3.org/Graphics/SVG/1.1/DTD/svg11.dtd">
<!-- Generated by graphviz version 13.1.2 (20250808.2320)
 -->
<!-- Title: B3YenaDevice9::_Create Pages: 1 -->
<svg width="454pt" height="140pt"
 viewBox="0.00 0.00 454.00 140.00" xmlns="http://www.w3.org/2000/svg" xmlns:xlink="http://www.w3.org/1999/xlink">
<g id="graph0" class="graph" transform="scale(1 1) rotate(0) translate(4 136)">
<title>B3YenaDevice9::_Create</title>
<!-- Node1 -->
<g id="Node000001" class="node">
<title>Node1</title>
<g id="a_Node000001"><a xlink:title="지정 렌더링 디바이스 개체 생성 메소드.">
<polygon fill="#999999" stroke="#666666" points="126.25,-76 0,-76 0,-56 126.25,-56 126.25,-76"/>
<text xml:space="preserve" text-anchor="middle" x="63.12" y="-62.5" font-family="Helvetica,sans-Serif" font-size="10.00">B3YenaDevice9::_Create</text>
</a>
</g>
</g>
<!-- Node2 -->
<g id="Node000002" class="node">
<title>Node2</title>
<g id="a_Node000002"><a xlink:href="a00184_aad14572abb8c674cf9eff7646d42bb6f.html#aad14572abb8c674cf9eff7646d42bb6f" target="_top" xlink:title=" ">
<polygon fill="white" stroke="#666666" points="286.25,-132 162.25,-132 162.25,-100 286.25,-100 286.25,-132"/>
<text xml:space="preserve" text-anchor="start" x="170.25" y="-118.5" font-family="Helvetica,sans-Serif" font-size="10.00">B3YenaGraphicsEngine9</text>
<text xml:space="preserve" text-anchor="middle" x="224.25" y="-106.5" font-family="Helvetica,sans-Serif" font-size="10.00">::_GetDCRT</text>
</a>
</g>
</g>
<!-- Node1&#45;&gt;Node2 -->
<g id="edge1_Node000001_Node000002" class="edge">
<title>Node1&#45;&gt;Node2</title>
<g id="a_edge1_Node000001_Node000002"><a xlink:title=" ">
<path fill="none" stroke="#63b8ff" d="M97.48,-76.48C115.57,-82.16 138.52,-89.38 159.86,-96.08"/>
<polygon fill="#63b8ff" stroke="#63b8ff" points="158.8,-99.42 169.39,-99.08 160.9,-92.74 158.8,-99.42"/>
</a>
</g>
</g>
<!-- Node3 -->
<g id="Node000003" class="node">
<title>Node3</title>
<g id="a_Node000003"><a xlink:href="a00184_a8fcaaf43ea2dd7bd85c07df5988cbfe3.html#a8fcaaf43ea2dd7bd85c07df5988cbfe3" target="_top" xlink:title="백버퍼용 렌더타겟을 생성.">
<polygon fill="white" stroke="#666666" points="286.25,-82 162.25,-82 162.25,-50 286.25,-50 286.25,-82"/>
<text xml:space="preserve" text-anchor="start" x="170.25" y="-68.5" font-family="Helvetica,sans-Serif" font-size="10.00">B3YenaGraphicsEngine9</text>
<text xml:space="preserve" text-anchor="middle" x="224.25" y="-56.5" font-family="Helvetica,sans-Serif" font-size="10.00">::_RenderTargetCreate</text>
</a>
</g>
</g>
<!-- Node1&#45;&gt;Node3 -->
<g id="edge2_Node000001_Node000003" class="edge">
<title>Node1&#45;&gt;Node3</title>
<g id="a_edge2_Node000001_Node000003"><a xlink:title=" ">
<path fill="none" stroke="#63b8ff" d="M126.56,-66C134.34,-66 142.35,-66 150.27,-66"/>
<polygon fill="#63b8ff" stroke="#63b8ff" points="150.27,-69.5 160.27,-66 150.27,-62.5 150.27,-69.5"/>
</a>
</g>
</g>
<!-- Node4 -->
<g id="Node000004" class="node">
<title>Node4</title>
<g id="a_Node000004"><a xlink:href="a00184_a30de4268f29c1354c0e520c2e16e6027.html#a30de4268f29c1354c0e520c2e16e6027" target="_top" xlink:title=" ">
<polygon fill="white" stroke="#666666" points="286.25,-32 162.25,-32 162.25,0 286.25,0 286.25,-32"/>
<text xml:space="preserve" text-anchor="start" x="170.25" y="-18.5" font-family="Helvetica,sans-Serif" font-size="10.00">B3YenaGraphicsEngine9</text>
<text xml:space="preserve" text-anchor="middle" x="224.25" y="-6.5" font-family="Helvetica,sans-Serif" font-size="10.00">::SetDev</text>
</a>
</g>
</g>
<!-- Node1&#45;&gt;Node4 -->
<g id="edge3_Node000001_Node000004" class="edge">
<title>Node1&#45;&gt;Node4</title>
<g id="a_edge3_Node000001_Node000004"><a xlink:title=" ">
<path fill="none" stroke="#63b8ff" d="M97.48,-55.52C115.57,-49.84 138.52,-42.62 159.86,-35.92"/>
<polygon fill="#63b8ff" stroke="#63b8ff" points="160.9,-39.26 169.39,-32.92 158.8,-32.58 160.9,-39.26"/>
</a>
</g>
</g>
<!-- Node5 -->
<g id="Node000005" class="node">
<title>Node5</title>
<g id="a_Node000005"><a xlink:href="a00184_ab190b19331f0f9cc68628e0e90abf4fc.html#ab190b19331f0f9cc68628e0e90abf4fc" target="_top" xlink:title=" ">
<polygon fill="white" stroke="#666666" points="446.25,-32 322.25,-32 322.25,0 446.25,0 446.25,-32"/>
<text xml:space="preserve" text-anchor="start" x="330.25" y="-18.5" font-family="Helvetica,sans-Serif" font-size="10.00">B3YenaGraphicsEngine9</text>
<text xml:space="preserve" text-anchor="middle" x="384.25" y="-6.5" font-family="Helvetica,sans-Serif" font-size="10.00">::B3YenaDevice9</text>
</a>
</g>
</g>
<!-- Node4&#45;&gt;Node5 -->
<g id="edge4_Node000004_Node000005" class="edge">
<title>Node4&#45;&gt;Node5</title>
<g id="a_edge4_Node000004_Node000005"><a xlink:title=" ">
<path fill="none" stroke="#63b8ff" d="M286.34,-16C294.25,-16 302.41,-16 310.48,-16"/>
<polygon fill="#63b8ff" stroke="#63b8ff" points="310.29,-19.5 320.29,-16 310.29,-12.5 310.29,-19.5"/>
</a>
</g>
</g>
<!-- Node5&#45;&gt;Node5 -->
<g id="edge5_Node000005_Node000005" class="edge">
<title>Node5&#45;&gt;Node5</title>
<g id="a_edge5_Node000005_Node000005"><a xlink:title=" ">
<path fill="none" stroke="#63b8ff" d="M355.69,-32.44C350.35,-41.58 359.88,-50 384.25,-50 397.58,-50 406.47,-47.48 410.91,-43.71"/>
<polygon fill="#63b8ff" stroke="#63b8ff" points="414.35,-44.38 412.56,-33.94 407.45,-43.21 414.35,-44.38"/>
</a>
</g>
</g>
</g>
</svg>
