<?xml version="1.0" encoding="UTF-8" standalone="no"?>
<!DOCTYPE svg PUBLIC "-//W3C//DTD SVG 1.1//EN"
 "http://www.w3.org/Graphics/SVG/1.1/DTD/svg11.dtd">
<!-- Generated by graphviz version 13.1.2 (20250808.2320)
 -->
<!-- Title: B3YenaGraphicsEngine9 Pages: 1 -->
<svg width="1088pt" height="315pt"
 viewBox="0.00 0.00 1088.00 315.00" xmlns="http://www.w3.org/2000/svg" xmlns:xlink="http://www.w3.org/1999/xlink">
<g id="graph0" class="graph" transform="scale(1 1) rotate(0) translate(4 311)">
<title>B3YenaGraphicsEngine9</title>
<!-- Node1 -->
<g id="Node000001" class="node">
<title>Node1</title>
<g id="a_Node000001"><a xlink:title="Yena 그래픽스 엔진 클래스">
<polygon fill="#999999" stroke="#666666" points="894.25,-176 770.25,-176 770.25,-156 894.25,-156 894.25,-176"/>
<text xml:space="preserve" text-anchor="middle" x="832.25" y="-162.5" font-family="Helvetica,sans-Serif" font-size="10.00">B3YenaGraphicsEngine9</text>
</a>
</g>
</g>
<!-- Node3 -->
<g id="Node000003" class="node">
<title>Node3</title>
<g id="a_Node000003"><a xlink:href="a00160.html" target="_top" xlink:title="Yena 렌더링 장치 Device 구현 클래스 : IDirect3DDevice9 대응">
<polygon fill="white" stroke="#666666" points="1079.75,-217 994,-217 994,-197 1079.75,-197 1079.75,-217"/>
<text xml:space="preserve" text-anchor="middle" x="1036.88" y="-203.5" font-family="Helvetica,sans-Serif" font-size="10.00">B3YenaDevice9</text>
</a>
</g>
</g>
<!-- Node1&#45;&gt;Node3 -->
<g id="edge5_Node000003_Node000001" class="edge">
<title>Node1&#45;&gt;Node3</title>
<g id="a_edge5_Node000003_Node000001"><a xlink:title=" ">
<path fill="none" stroke="#9a32cd" stroke-dasharray="5,2" d="M885.6,-179.06C894.47,-181.14 903.61,-183.19 912.25,-185 939.24,-190.64 969.75,-196.08 993.7,-200.14"/>
<polygon fill="#9a32cd" stroke="#9a32cd" points="886.57,-175.69 876.03,-176.78 884.95,-182.5 886.57,-175.69"/>
</a>
</g>
<text xml:space="preserve" text-anchor="start" x="915.25" y="-202.05" font-family="Helvetica,sans-Serif" font-size="10.00" fill="grey">m_pGraphics</text>
</g>
<!-- Node2 -->
<g id="Node000002" class="node">
<title>Node2</title>
<g id="a_Node000002"><a xlink:href="a00180.html" target="_top" xlink:title="Yena SWR 엔진 기반 클래스">
<polygon fill="white" stroke="#666666" points="667.12,-220 596.38,-220 596.38,-200 667.12,-200 667.12,-220"/>
<text xml:space="preserve" text-anchor="middle" x="631.75" y="-206.5" font-family="Helvetica,sans-Serif" font-size="10.00">B3YenaCore</text>
</a>
</g>
</g>
<!-- Node2&#45;&gt;Node1 -->
<g id="edge1_Node000001_Node000002" class="edge">
<title>Node2&#45;&gt;Node1</title>
<g id="a_edge1_Node000001_Node000002"><a xlink:title=" ">
<path fill="none" stroke="#63b8ff" d="M678.62,-202.55C700.94,-198.67 728.09,-193.58 752.25,-188 766.82,-184.64 782.72,-180.33 796.42,-176.42"/>
<polygon fill="#63b8ff" stroke="#63b8ff" points="678.19,-199.07 668.92,-204.2 679.37,-205.97 678.19,-199.07"/>
</a>
</g>
</g>
<!-- Node3&#45;&gt;Node1 -->
<g id="edge2_Node000001_Node000003" class="edge">
<title>Node3&#45;&gt;Node1</title>
<g id="a_edge2_Node000001_Node000003"><a xlink:title=" ">
<path fill="none" stroke="#9a32cd" stroke-dasharray="5,2" d="M1016.29,-189.64C1005.27,-181.04 990.79,-171.54 976,-167 950.06,-159.03 920.19,-157.7 894.5,-158.78"/>
<polygon fill="#9a32cd" stroke="#9a32cd" points="1013.89,-192.2 1023.83,-195.86 1018.34,-186.8 1013.89,-192.2"/>
</a>
</g>
<text xml:space="preserve" text-anchor="start" x="925.75" y="-172.5" font-family="Helvetica,sans-Serif" font-size="10.00" fill="grey">m_pDev</text>
</g>
<!-- Node4 -->
<g id="Node000004" class="node">
<title>Node4</title>
<g id="a_Node000004"><a xlink:href="a00296.html" target="_top" xlink:title="Yena 렌더링 디바이스 운용 인터페이스 : IDirect3DDevice9 대응">
<polygon fill="white" stroke="#666666" points="290.5,-307 213.75,-307 213.75,-287 290.5,-287 290.5,-307"/>
<text xml:space="preserve" text-anchor="middle" x="252.12" y="-293.5" font-family="Helvetica,sans-Serif" font-size="10.00">IYenaDevice9</text>
</a>
</g>
</g>
<!-- Node4&#45;&gt;Node3 -->
<g id="edge3_Node000003_Node000004" class="edge">
<title>Node4&#45;&gt;Node3</title>
<g id="a_edge3_Node000003_Node000004"><a xlink:title=" ">
<path fill="none" stroke="#63b8ff" d="M302.05,-297.3C354.96,-297.59 441.77,-298 516.62,-298 516.62,-298 516.62,-298 833.25,-298 911.15,-298 992.27,-241.34 1023.03,-217.44"/>
<polygon fill="#63b8ff" stroke="#63b8ff" points="302.18,-293.8 292.16,-297.24 302.14,-300.8 302.18,-293.8"/>
</a>
</g>
</g>
<!-- Node5 -->
<g id="Node000005" class="node">
<title>Node5</title>
<g id="a_Node000005"><a xlink:href="a00280.html" target="_top" xlink:title="Yena SWR COM 최상위 인터페이스 &lt;간략&gt;">
<polygon fill="white" stroke="#666666" points="70.75,-288 0,-288 0,-268 70.75,-268 70.75,-288"/>
<text xml:space="preserve" text-anchor="middle" x="35.38" y="-274.5" font-family="Helvetica,sans-Serif" font-size="10.00">ynIUnknown</text>
</a>
</g>
</g>
<!-- Node5&#45;&gt;Node4 -->
<g id="edge4_Node000004_Node000005" class="edge">
<title>Node5&#45;&gt;Node4</title>
<g id="a_edge4_Node000004_Node000005"><a xlink:title=" ">
<path fill="none" stroke="#63b8ff" d="M82.46,-282.42C84.59,-282.62 86.69,-282.81 88.75,-283 131.44,-286.88 180.47,-291.07 213.39,-293.84"/>
<polygon fill="#63b8ff" stroke="#63b8ff" points="82.81,-278.94 72.53,-281.49 82.16,-285.91 82.81,-278.94"/>
</a>
</g>
</g>
<!-- Node8 -->
<g id="Node000008" class="node">
<title>Node8</title>
<g id="a_Node000008"><a xlink:href="a00284.html" target="_top" xlink:title="렌더링 자원 기반 인터페이스 : IDirect3DResource9 대응">
<polygon fill="white" stroke="#666666" points="195.75,-269 107.75,-269 107.75,-249 195.75,-249 195.75,-269"/>
<text xml:space="preserve" text-anchor="middle" x="151.75" y="-255.5" font-family="Helvetica,sans-Serif" font-size="10.00">IYenaResource9</text>
</a>
</g>
</g>
<!-- Node5&#45;&gt;Node8 -->
<g id="edge9_Node000008_Node000005" class="edge">
<title>Node5&#45;&gt;Node8</title>
<g id="a_edge9_Node000008_Node000005"><a xlink:title=" ">
<path fill="none" stroke="#63b8ff" d="M82.08,-270.41C90.4,-269.02 99.07,-267.58 107.33,-266.21"/>
<polygon fill="#63b8ff" stroke="#63b8ff" points="81.79,-266.91 72.49,-272 82.93,-273.81 81.79,-266.91"/>
</a>
</g>
</g>
<!-- Node6 -->
<g id="Node000006" class="node">
<title>Node6</title>
<g id="a_Node000006"><a xlink:href="a00188.html" target="_top" xlink:title=" ">
<polygon fill="white" stroke="#666666" points="693.75,-270 569.75,-270 569.75,-238 693.75,-238 693.75,-270"/>
<text xml:space="preserve" text-anchor="start" x="577.75" y="-256.5" font-family="Helvetica,sans-Serif" font-size="10.00">B3YenaGraphicsEngine9</text>
<text xml:space="preserve" text-anchor="middle" x="631.75" y="-244.5" font-family="Helvetica,sans-Serif" font-size="10.00">::INPUT_STREAM</text>
</a>
</g>
</g>
<!-- Node6&#45;&gt;Node1 -->
<g id="edge6_Node000001_Node000006" class="edge">
<title>Node6&#45;&gt;Node1</title>
<g id="a_edge6_Node000001_Node000006"><a xlink:title=" ">
<path fill="none" stroke="#9a32cd" stroke-dasharray="5,2" d="M686.77,-233.45C707.43,-225.29 731.09,-215.58 752.25,-206 772.98,-196.61 796.14,-184.71 812,-176.34"/>
<polygon fill="#9a32cd" stroke="#9a32cd" points="685.72,-230.1 677.68,-237.01 688.27,-236.62 685.72,-230.1"/>
</a>
</g>
<text xml:space="preserve" text-anchor="start" x="714.75" y="-228.29" font-family="Helvetica,sans-Serif" font-size="10.00" fill="grey">m_input</text>
</g>
<!-- Node7 -->
<g id="Node000007" class="node">
<title>Node7</title>
<g id="a_Node000007"><a xlink:href="a00288.html" target="_top" xlink:title="정점 버퍼 운용 인터페이스 : IDirect3DVertexBuffer9 대응">
<polygon fill="white" stroke="#666666" points="436.62,-266 337.38,-266 337.38,-246 436.62,-246 436.62,-266"/>
<text xml:space="preserve" text-anchor="middle" x="387" y="-252.5" font-family="Helvetica,sans-Serif" font-size="10.00">IYenaVertexBuffer9</text>
</a>
</g>
</g>
<!-- Node7&#45;&gt;Node6 -->
<g id="edge7_Node000006_Node000007" class="edge">
<title>Node7&#45;&gt;Node6</title>
<g id="a_edge7_Node000006_Node000007"><a xlink:title=" ">
<path fill="none" stroke="#9a32cd" stroke-dasharray="5,2" d="M448.25,-255.5C485.24,-255.2 532.48,-254.81 569.63,-254.5"/>
<polygon fill="#9a32cd" stroke="#9a32cd" points="448.61,-252 438.64,-255.58 448.67,-259 448.61,-252"/>
</a>
</g>
<text xml:space="preserve" text-anchor="start" x="508.25" y="-260.68" font-family="Helvetica,sans-Serif" font-size="10.00" fill="grey">pVB</text>
</g>
<!-- Node8&#45;&gt;Node7 -->
<g id="edge8_Node000007_Node000008" class="edge">
<title>Node8&#45;&gt;Node7</title>
<g id="a_edge8_Node000007_Node000008"><a xlink:title=" ">
<path fill="none" stroke="#63b8ff" d="M207.57,-258.29C246.89,-257.79 299.4,-257.11 337.26,-256.63"/>
<polygon fill="#63b8ff" stroke="#63b8ff" points="207.54,-254.79 197.59,-258.42 207.63,-261.79 207.54,-254.79"/>
</a>
</g>
</g>
<!-- Node9 -->
<g id="Node000009" class="node">
<title>Node9</title>
<g id="a_Node000009"><a xlink:href="a00192.html" target="_top" xlink:title=" ">
<polygon fill="white" stroke="#666666" points="693.75,-182 569.75,-182 569.75,-150 693.75,-150 693.75,-182"/>
<text xml:space="preserve" text-anchor="start" x="577.75" y="-168.5" font-family="Helvetica,sans-Serif" font-size="10.00">B3YenaGraphicsEngine9</text>
<text xml:space="preserve" text-anchor="middle" x="631.75" y="-156.5" font-family="Helvetica,sans-Serif" font-size="10.00">::STREAM_DBG</text>
</a>
</g>
</g>
<!-- Node9&#45;&gt;Node1 -->
<g id="edge10_Node000001_Node000009" class="edge">
<title>Node9&#45;&gt;Node1</title>
<g id="a_edge10_Node000001_Node000009"><a xlink:title=" ">
<path fill="none" stroke="#9a32cd" stroke-dasharray="5,2" d="M705.69,-166C726.73,-166 749.48,-166 769.75,-166"/>
<polygon fill="#9a32cd" stroke="#9a32cd" points="705.71,-162.5 695.71,-166 705.71,-169.5 705.71,-162.5"/>
</a>
</g>
<text xml:space="preserve" text-anchor="start" x="717" y="-171.5" font-family="Helvetica,sans-Serif" font-size="10.00" fill="grey">m_stm</text>
</g>
<!-- Node10 -->
<g id="Node000010" class="node">
<title>Node10</title>
<g id="a_Node000010"><a xlink:href="a00196.html" target="_top" xlink:title=" ">
<polygon fill="white" stroke="#666666" points="693.75,-132 569.75,-132 569.75,-100 693.75,-100 693.75,-132"/>
<text xml:space="preserve" text-anchor="start" x="577.75" y="-118.5" font-family="Helvetica,sans-Serif" font-size="10.00">B3YenaGraphicsEngine9</text>
<text xml:space="preserve" text-anchor="middle" x="631.75" y="-106.5" font-family="Helvetica,sans-Serif" font-size="10.00">::TRANSFORM</text>
</a>
</g>
</g>
<!-- Node10&#45;&gt;Node1 -->
<g id="edge11_Node000001_Node000010" class="edge">
<title>Node10&#45;&gt;Node1</title>
<g id="a_edge11_Node000001_Node000010"><a xlink:title=" ">
<path fill="none" stroke="#9a32cd" stroke-dasharray="5,2" d="M705.14,-132.45C720.71,-136.13 737.05,-140.11 752.25,-144 766.32,-147.61 781.72,-151.83 795.15,-155.61"/>
<polygon fill="#9a32cd" stroke="#9a32cd" points="705.98,-129.05 695.44,-130.18 704.38,-135.87 705.98,-129.05"/>
</a>
</g>
<text xml:space="preserve" text-anchor="start" x="717" y="-149.5" font-family="Helvetica,sans-Serif" font-size="10.00" fill="grey">m_tms</text>
</g>
<!-- Node11 -->
<g id="Node000011" class="node">
<title>Node11</title>
<g id="a_Node000011"><a xlink:href="a00268.html" target="_top" xlink:title="\u{2b50} 행렬 클래스">
<polygon fill="white" stroke="#666666" points="426.5,-126 347.5,-126 347.5,-106 426.5,-106 426.5,-126"/>
<text xml:space="preserve" text-anchor="middle" x="387" y="-112.5" font-family="Helvetica,sans-Serif" font-size="10.00">B3YXMATRIX</text>
</a>
</g>
</g>
<!-- Node11&#45;&gt;Node10 -->
<g id="edge12_Node000010_Node000011" class="edge">
<title>Node11&#45;&gt;Node10</title>
<g id="a_edge12_Node000010_Node000011"><a xlink:title=" ">
<path fill="none" stroke="#9a32cd" stroke-dasharray="5,2" d="M438.06,-116C476.17,-116 528.81,-116 569.44,-116"/>
<polygon fill="#9a32cd" stroke="#9a32cd" points="438.25,-112.5 428.25,-116 438.25,-119.5 438.25,-112.5"/>
</a>
</g>
<text xml:space="preserve" text-anchor="start" x="503.38" y="-121.5" font-family="Helvetica,sans-Serif" font-size="10.00" fill="grey">mTFM</text>
</g>
<!-- Node12 -->
<g id="Node000012" class="node">
<title>Node12</title>
<g id="a_Node000012"><a xlink:href="a00256.html" target="_top" xlink:title="\u{2b50} 행렬 구조체">
<polygon fill="white" stroke="#666666" points="187.88,-126 115.62,-126 115.62,-106 187.88,-106 187.88,-126"/>
<text xml:space="preserve" text-anchor="middle" x="151.75" y="-112.5" font-family="Helvetica,sans-Serif" font-size="10.00">B3YMATRIX</text>
</a>
</g>
</g>
<!-- Node12&#45;&gt;Node11 -->
<g id="edge13_Node000011_Node000012" class="edge">
<title>Node12&#45;&gt;Node11</title>
<g id="a_edge13_Node000011_Node000012"><a xlink:title=" ">
<path fill="none" stroke="#63b8ff" d="M199.54,-116C242.87,-116 306.53,-116 347.12,-116"/>
<polygon fill="#63b8ff" stroke="#63b8ff" points="199.69,-112.5 189.69,-116 199.69,-119.5 199.69,-112.5"/>
</a>
</g>
</g>
<!-- Node13 -->
<g id="Node000013" class="node">
<title>Node13</title>
<g id="a_Node000013"><a xlink:href="a00200.html" target="_top" xlink:title=" ">
<polygon fill="white" stroke="#666666" points="693.75,-82 569.75,-82 569.75,-50 693.75,-50 693.75,-82"/>
<text xml:space="preserve" text-anchor="start" x="577.75" y="-68.5" font-family="Helvetica,sans-Serif" font-size="10.00">B3YenaGraphicsEngine9</text>
<text xml:space="preserve" text-anchor="middle" x="631.75" y="-56.5" font-family="Helvetica,sans-Serif" font-size="10.00">::PIPELINE_STATE</text>
</a>
</g>
</g>
<!-- Node13&#45;&gt;Node1 -->
<g id="edge14_Node000001_Node000013" class="edge">
<title>Node13&#45;&gt;Node1</title>
<g id="a_edge14_Node000001_Node000013"><a xlink:title=" ">
<path fill="none" stroke="#9a32cd" stroke-dasharray="5,2" d="M693.74,-86.36C712.88,-93.57 733.82,-102.32 752.25,-112 776.81,-124.9 802.95,-143.95 818.15,-155.63"/>
<polygon fill="#9a32cd" stroke="#9a32cd" points="695.03,-83.1 684.43,-82.93 692.61,-89.67 695.03,-83.1"/>
</a>
</g>
<text xml:space="preserve" text-anchor="start" x="717.38" y="-117.5" font-family="Helvetica,sans-Serif" font-size="10.00" fill="grey">m_pso</text>
</g>
<!-- Node14 -->
<g id="Node000014" class="node">
<title>Node14</title>
<g id="a_Node000014"><a xlink:href="a00204.html" target="_top" xlink:title=" ">
<polygon fill="white" stroke="#666666" points="693.75,-32 569.75,-32 569.75,0 693.75,0 693.75,-32"/>
<text xml:space="preserve" text-anchor="start" x="577.75" y="-18.5" font-family="Helvetica,sans-Serif" font-size="10.00">B3YenaGraphicsEngine9</text>
<text xml:space="preserve" text-anchor="middle" x="631.75" y="-6.5" font-family="Helvetica,sans-Serif" font-size="10.00">::OUTPUT_MERGE</text>
</a>
</g>
</g>
<!-- Node14&#45;&gt;Node1 -->
<g id="edge15_Node000001_Node000014" class="edge">
<title>Node14&#45;&gt;Node1</title>
<g id="a_edge15_Node000001_Node000014"><a xlink:title=" ">
<path fill="none" stroke="#9a32cd" stroke-dasharray="5,2" d="M684.77,-36.91C687.82,-38.27 690.84,-39.63 693.75,-41 720.4,-53.48 729.36,-53.51 752.25,-72 783.75,-97.46 812.01,-136.9 824.49,-155.55"/>
<polygon fill="#9a32cd" stroke="#9a32cd" points="686.29,-33.76 675.72,-33 683.51,-40.18 686.29,-33.76"/>
</a>
</g>
<text xml:space="preserve" text-anchor="start" x="718.5" y="-77.5" font-family="Helvetica,sans-Serif" font-size="10.00" fill="grey">m_om</text>
</g>
<!-- Node15 -->
<g id="Node000015" class="node">
<title>Node15</title>
<g id="a_Node000015"><a xlink:href="a00320.html" target="_top" xlink:title="스왑체인 정보기술 구조체 : D3DPRESENT_PARAMETERS 대응">
<polygon fill="white" stroke="#666666" points="465.5,-26 308.5,-26 308.5,-6 465.5,-6 465.5,-26"/>
<text xml:space="preserve" text-anchor="middle" x="387" y="-12.5" font-family="Helvetica,sans-Serif" font-size="10.00">B3YPRESENT_PARAMETERS</text>
</a>
</g>
</g>
<!-- Node15&#45;&gt;Node14 -->
<g id="edge16_Node000014_Node000015" class="edge">
<title>Node15&#45;&gt;Node14</title>
<g id="a_edge16_Node000014_Node000015"><a xlink:title=" ">
<path fill="none" stroke="#9a32cd" stroke-dasharray="5,2" d="M476.99,-16C507.75,-16 541.49,-16 569.52,-16"/>
<polygon fill="#9a32cd" stroke="#9a32cd" points="477.32,-12.5 467.32,-16 477.32,-19.5 477.32,-12.5"/>
</a>
</g>
<text xml:space="preserve" text-anchor="start" x="486.5" y="-21.5" font-family="Helvetica,sans-Serif" font-size="10.00" fill="grey">PresentParam</text>
</g>
</g>
</svg>
