<?xml version="1.0" encoding="UTF-8" standalone="no"?>
<!DOCTYPE svg PUBLIC "-//W3C//DTD SVG 1.1//EN"
 "http://www.w3.org/Graphics/SVG/1.1/DTD/svg11.dtd">
<!-- Generated by graphviz version 13.1.2 (20250808.2320)
 -->
<!-- Title: Yena/ynGrid.h Pages: 1 -->
<svg width="1040pt" height="196pt"
 viewBox="0.00 0.00 1040.00 196.00" xmlns="http://www.w3.org/2000/svg" xmlns:xlink="http://www.w3.org/1999/xlink">
<g id="graph0" class="graph" transform="scale(1 1) rotate(0) translate(4 192)">
<title>Yena/ynGrid.h</title>
<!-- Node1 -->
<g id="Node000001" class="node">
<title>Node1</title>
<g id="a_Node000001"><a xlink:title="그리드 클래스 헤더.">
<polygon fill="#999999" stroke="#666666" points="532.5,-188 455,-188 455,-168 532.5,-168 532.5,-188"/>
<text xml:space="preserve" text-anchor="middle" x="493.75" y="-174.5" font-family="Helvetica,sans-Serif" font-size="10.00">Yena/ynGrid.h</text>
</a>
</g>
</g>
<!-- Node2 -->
<g id="Node000002" class="node">
<title>Node2</title>
<g id="a_Node000002"><a xlink:href="a00068.html" target="_top" xlink:title="Yena SWR 기본 헤더 파일 (v1.x)">
<polygon fill="white" stroke="#666666" points="529.12,-132 458.38,-132 458.38,-112 529.12,-112 529.12,-132"/>
<text xml:space="preserve" text-anchor="middle" x="493.75" y="-118.5" font-family="Helvetica,sans-Serif" font-size="10.00">Yena/Yena.h</text>
</a>
</g>
</g>
<!-- Node1&#45;&gt;Node2 -->
<g id="edge1_Node000001_Node000002" class="edge">
<title>Node1&#45;&gt;Node2</title>
<g id="a_edge1_Node000001_Node000002"><a xlink:title=" ">
<path fill="none" stroke="#63b8ff" d="M487.17,-156.43C486.72,-148.11 487.16,-138.93 488.5,-132.3"/>
<polygon fill="#63b8ff" stroke="#63b8ff" points="483.67,-156.57 488.31,-166.09 490.62,-155.75 483.67,-156.57"/>
</a>
</g>
</g>
<!-- Node13 -->
<g id="Node000013" class="node">
<title>Node13</title>
<g id="a_Node000013"><a xlink:href="a00101.html" target="_top" xlink:title="그리드 클래스 소스 파일.">
<polygon fill="white" stroke="#666666" points="1031.75,-76 943.75,-76 943.75,-56 1031.75,-56 1031.75,-76"/>
<text xml:space="preserve" text-anchor="middle" x="987.75" y="-62.5" font-family="Helvetica,sans-Serif" font-size="10.00">Yena/ynGrid.cpp</text>
</a>
</g>
</g>
<!-- Node1&#45;&gt;Node13 -->
<g id="edge17_Node000001_Node000013" class="edge">
<title>Node1&#45;&gt;Node13</title>
<g id="a_edge17_Node000001_Node000013"><a xlink:title=" ">
<path fill="none" stroke="#63b8ff" d="M543.94,-165.82C641.4,-144.12 854.63,-96.64 945.44,-76.42"/>
<polygon fill="#63b8ff" stroke="#63b8ff" points="543.4,-162.36 534.4,-167.95 544.93,-169.19 543.4,-162.36"/>
</a>
</g>
</g>
<!-- Node2&#45;&gt;Node1 -->
<g id="edge15_Node000002_Node000001" class="edge">
<title>Node2&#45;&gt;Node1</title>
<g id="a_edge15_Node000002_Node000001"><a xlink:title=" ">
<path fill="none" stroke="#63b8ff" d="M500.34,-143.73C500.77,-151.96 500.33,-161.01 499.02,-167.59"/>
<polygon fill="#63b8ff" stroke="#63b8ff" points="503.81,-143.33 499.17,-133.8 496.86,-144.14 503.81,-143.33"/>
</a>
</g>
</g>
<!-- Node3 -->
<g id="Node000003" class="node">
<title>Node3</title>
<g id="a_Node000003"><a xlink:href="a00053.html" target="_top" xlink:title="예제 렌더링 장치 운용 헤더">
<polygon fill="white" stroke="#666666" points="180.25,-76 107.25,-76 107.25,-56 180.25,-56 180.25,-76"/>
<text xml:space="preserve" text-anchor="middle" x="143.75" y="-62.5" font-family="Helvetica,sans-Serif" font-size="10.00">Src/Device.h</text>
</a>
</g>
</g>
<!-- Node2&#45;&gt;Node3 -->
<g id="edge2_Node000002_Node000003" class="edge">
<title>Node2&#45;&gt;Node3</title>
<g id="a_edge2_Node000002_Node000003"><a xlink:title=" ">
<path fill="none" stroke="#63b8ff" d="M446.61,-114.8C386.58,-106.74 279.72,-91.8 188.75,-76 186.08,-75.54 183.33,-75.04 180.56,-74.52"/>
<polygon fill="#63b8ff" stroke="#63b8ff" points="446.09,-118.27 456.47,-116.12 447.02,-111.33 446.09,-118.27"/>
</a>
</g>
</g>
<!-- Node7 -->
<g id="Node000007" class="node">
<title>Node7</title>
<g id="a_Node000007"><a xlink:href="a00065.html" target="_top" xlink:title="Yena SWR 기본 소스 파일 (v1.x)">
<polygon fill="white" stroke="#666666" points="279.38,-76 198.12,-76 198.12,-56 279.38,-56 279.38,-76"/>
<text xml:space="preserve" text-anchor="middle" x="238.75" y="-62.5" font-family="Helvetica,sans-Serif" font-size="10.00">Yena/Yena.cpp</text>
</a>
</g>
</g>
<!-- Node2&#45;&gt;Node7 -->
<g id="edge6_Node000002_Node000007" class="edge">
<title>Node2&#45;&gt;Node7</title>
<g id="a_edge6_Node000002_Node000007"><a xlink:title=" ">
<path fill="none" stroke="#63b8ff" d="M447.03,-111.11C399.14,-100.97 325.4,-85.35 279.71,-75.67"/>
<polygon fill="#63b8ff" stroke="#63b8ff" points="446.04,-114.47 456.54,-113.12 447.49,-107.63 446.04,-114.47"/>
</a>
</g>
</g>
<!-- Node8 -->
<g id="Node000008" class="node">
<title>Node8</title>
<g id="a_Node000008"><a xlink:href="a00071.html" target="_top" xlink:title="공간축 클래스 소스 파일.">
<polygon fill="white" stroke="#666666" points="403.5,-20 314,-20 314,0 403.5,0 403.5,-20"/>
<text xml:space="preserve" text-anchor="middle" x="358.75" y="-6.5" font-family="Helvetica,sans-Serif" font-size="10.00">Yena/ynAxis.cpp</text>
</a>
</g>
</g>
<!-- Node2&#45;&gt;Node8 -->
<g id="edge7_Node000002_Node000008" class="edge">
<title>Node2&#45;&gt;Node8</title>
<g id="a_edge7_Node000002_Node000008"><a xlink:title=" ">
<path fill="none" stroke="#63b8ff" d="M446.85,-114.77C402.73,-107.84 341.34,-95.04 326.75,-76 313.13,-58.23 333.92,-33.75 347.86,-20.48"/>
<polygon fill="#63b8ff" stroke="#63b8ff" points="446.31,-118.23 456.72,-116.26 447.35,-111.31 446.31,-118.23"/>
</a>
</g>
</g>
<!-- Node9 -->
<g id="Node000009" class="node">
<title>Node9</title>
<g id="a_Node000009"><a xlink:href="a00074.html" target="_top" xlink:title="공간축 클래스 헤더.">
<polygon fill="white" stroke="#666666" points="415.25,-76 336.25,-76 336.25,-56 415.25,-56 415.25,-76"/>
<text xml:space="preserve" text-anchor="middle" x="375.75" y="-62.5" font-family="Helvetica,sans-Serif" font-size="10.00">Yena/ynAxis.h</text>
</a>
</g>
</g>
<!-- Node2&#45;&gt;Node9 -->
<g id="edge8_Node000002_Node000009" class="edge">
<title>Node2&#45;&gt;Node9</title>
<g id="a_edge8_Node000002_Node000009"><a xlink:title=" ">
<path fill="none" stroke="#63b8ff" d="M457.48,-107.14C435.25,-97.52 408.05,-84.97 391.18,-76.48"/>
<polygon fill="#63b8ff" stroke="#63b8ff" points="455.97,-110.3 466.54,-111 458.71,-103.86 455.97,-110.3"/>
</a>
</g>
</g>
<!-- Node10 -->
<g id="Node000010" class="node">
<title>Node10</title>
<g id="a_Node000010"><a xlink:href="a00080.html" target="_top" xlink:title="Yena 그래픽스 엔진 소스 파일">
<polygon fill="white" stroke="#666666" points="554.25,-76 433.25,-76 433.25,-56 554.25,-56 554.25,-76"/>
<text xml:space="preserve" text-anchor="middle" x="493.75" y="-62.5" font-family="Helvetica,sans-Serif" font-size="10.00">Yena/ynB3Graphics.cpp</text>
</a>
</g>
</g>
<!-- Node2&#45;&gt;Node10 -->
<g id="edge11_Node000002_Node000010" class="edge">
<title>Node2&#45;&gt;Node10</title>
<g id="a_edge11_Node000002_Node000010"><a xlink:title=" ">
<path fill="none" stroke="#63b8ff" d="M493.75,-100.13C493.75,-91.9 493.75,-82.85 493.75,-76.3"/>
<polygon fill="#63b8ff" stroke="#63b8ff" points="490.25,-100.08 493.75,-110.08 497.25,-100.08 490.25,-100.08"/>
</a>
</g>
</g>
<!-- Node11 -->
<g id="Node000011" class="node">
<title>Node11</title>
<g id="a_Node000011"><a xlink:href="a00086.html" target="_top" xlink:title="정점 버퍼 운용 클래스 소스">
<polygon fill="white" stroke="#666666" points="707.38,-76 572.12,-76 572.12,-56 707.38,-56 707.38,-76"/>
<text xml:space="preserve" text-anchor="middle" x="639.75" y="-62.5" font-family="Helvetica,sans-Serif" font-size="10.00">Yena/ynB3VertexBuffer.cpp</text>
</a>
</g>
</g>
<!-- Node2&#45;&gt;Node11 -->
<g id="edge12_Node000002_Node000011" class="edge">
<title>Node2&#45;&gt;Node11</title>
<g id="a_edge12_Node000002_Node000011"><a xlink:title=" ">
<path fill="none" stroke="#63b8ff" d="M529.81,-107.66C555.98,-97.98 590.75,-85.12 614.12,-76.48"/>
<polygon fill="#63b8ff" stroke="#63b8ff" points="528.77,-104.32 520.6,-111.07 531.19,-110.88 528.77,-104.32"/>
</a>
</g>
</g>
<!-- Node12 -->
<g id="Node000012" class="node">
<title>Node12</title>
<g id="a_Node000012"><a xlink:href="a00095.html" target="_top" xlink:title="에러, 예외 및 로그 처리 소스 파일">
<polygon fill="white" stroke="#666666" points="816.25,-76 725.25,-76 725.25,-56 816.25,-56 816.25,-76"/>
<text xml:space="preserve" text-anchor="middle" x="770.75" y="-62.5" font-family="Helvetica,sans-Serif" font-size="10.00">Yena/ynError.cpp</text>
</a>
</g>
</g>
<!-- Node2&#45;&gt;Node12 -->
<g id="edge13_Node000002_Node000012" class="edge">
<title>Node2&#45;&gt;Node12</title>
<g id="a_edge13_Node000002_Node000012"><a xlink:title=" ">
<path fill="none" stroke="#63b8ff" d="M540.52,-111.88C591.97,-101.85 674.13,-85.84 725.12,-75.89"/>
<polygon fill="#63b8ff" stroke="#63b8ff" points="540.03,-108.41 530.88,-113.76 541.37,-115.28 540.03,-108.41"/>
</a>
</g>
</g>
<!-- Node2&#45;&gt;Node13 -->
<g id="edge14_Node000002_Node000013" class="edge">
<title>Node2&#45;&gt;Node13</title>
<g id="a_edge14_Node000002_Node000013"><a xlink:title=" ">
<path fill="none" stroke="#63b8ff" d="M540.83,-117.23C621.61,-110.53 791.74,-95.42 934.75,-76 937.62,-75.61 940.57,-75.18 943.54,-74.73"/>
<polygon fill="#63b8ff" stroke="#63b8ff" points="540.76,-113.73 531.08,-118.03 541.33,-120.7 540.76,-113.73"/>
</a>
</g>
</g>
<!-- Node14 -->
<g id="Node000014" class="node">
<title>Node14</title>
<g id="a_Node000014"><a xlink:href="a00113.html" target="_top" xlink:title="\u{2b50} Yena 수학 라이브러리 Yena Math Library for DirectX / OpenGL">
<polygon fill="white" stroke="#666666" points="925.62,-76 833.88,-76 833.88,-56 925.62,-56 925.62,-76"/>
<text xml:space="preserve" text-anchor="middle" x="879.75" y="-62.5" font-family="Helvetica,sans-Serif" font-size="10.00">Yena/ynMath.cpp</text>
</a>
</g>
</g>
<!-- Node2&#45;&gt;Node14 -->
<g id="edge16_Node000002_Node000014" class="edge">
<title>Node2&#45;&gt;Node14</title>
<g id="a_edge16_Node000002_Node000014"><a xlink:title=" ">
<path fill="none" stroke="#63b8ff" d="M540.53,-115.11C604.87,-106.92 724.23,-91.34 825.75,-76 828.29,-75.62 830.89,-75.21 833.52,-74.8"/>
<polygon fill="#63b8ff" stroke="#63b8ff" points="540.16,-111.63 530.68,-116.37 541.04,-118.58 540.16,-111.63"/>
</a>
</g>
</g>
<!-- Node4 -->
<g id="Node000004" class="node">
<title>Node4</title>
<g id="a_Node000004"><a xlink:href="a00050.html" target="_top" xlink:title="예제 렌더링 장치 운용 소스.">
<polygon fill="white" stroke="#666666" points="83.5,-20 0,-20 0,0 83.5,0 83.5,-20"/>
<text xml:space="preserve" text-anchor="middle" x="41.75" y="-6.5" font-family="Helvetica,sans-Serif" font-size="10.00">Src/Device.cpp</text>
</a>
</g>
</g>
<!-- Node3&#45;&gt;Node4 -->
<g id="edge3_Node000003_Node000004" class="edge">
<title>Node3&#45;&gt;Node4</title>
<g id="a_edge3_Node000003_Node000004"><a xlink:title=" ">
<path fill="none" stroke="#63b8ff" d="M115.82,-50.21C97.91,-40.73 75.18,-28.7 59.66,-20.48"/>
<polygon fill="#63b8ff" stroke="#63b8ff" points="114.17,-53.3 124.65,-54.89 117.45,-47.11 114.17,-53.3"/>
</a>
</g>
</g>
<!-- Node5 -->
<g id="Node000005" class="node">
<title>Node5</title>
<g id="a_Node000005"><a xlink:href="a00059.html" target="_top" xlink:title="\u{2b50} 예제 기본 렌더링/프레임웍 소스">
<polygon fill="white" stroke="#666666" points="185.88,-20 101.62,-20 101.62,0 185.88,0 185.88,-20"/>
<text xml:space="preserve" text-anchor="middle" x="143.75" y="-6.5" font-family="Helvetica,sans-Serif" font-size="10.00">Src/Render.cpp</text>
</a>
</g>
</g>
<!-- Node3&#45;&gt;Node5 -->
<g id="edge4_Node000003_Node000005" class="edge">
<title>Node3&#45;&gt;Node5</title>
<g id="a_edge4_Node000003_Node000005"><a xlink:title=" ">
<path fill="none" stroke="#63b8ff" d="M143.75,-44.13C143.75,-35.9 143.75,-26.85 143.75,-20.3"/>
<polygon fill="#63b8ff" stroke="#63b8ff" points="140.25,-44.08 143.75,-54.08 147.25,-44.08 140.25,-44.08"/>
</a>
</g>
</g>
<!-- Node6 -->
<g id="Node000006" class="node">
<title>Node6</title>
<g id="a_Node000006"><a xlink:href="a00056.html" target="_top" xlink:title="예제 애플리케이션 메인 / 윈도 프레임워크 소스">
<polygon fill="white" stroke="#666666" points="277.62,-20 203.88,-20 203.88,0 277.62,0 277.62,-20"/>
<text xml:space="preserve" text-anchor="middle" x="240.75" y="-6.5" font-family="Helvetica,sans-Serif" font-size="10.00">Src/main.cpp</text>
</a>
</g>
</g>
<!-- Node3&#45;&gt;Node6 -->
<g id="edge5_Node000003_Node000006" class="edge">
<title>Node3&#45;&gt;Node6</title>
<g id="a_edge5_Node000003_Node000006"><a xlink:title=" ">
<path fill="none" stroke="#63b8ff" d="M170.55,-50.08C187.55,-40.62 209.03,-28.66 223.72,-20.48"/>
<polygon fill="#63b8ff" stroke="#63b8ff" points="169,-46.94 161.97,-54.86 172.41,-53.05 169,-46.94"/>
</a>
</g>
</g>
<!-- Node9&#45;&gt;Node2 -->
<g id="edge9_Node000009_Node000002" class="edge">
<title>Node9&#45;&gt;Node2</title>
<g id="a_edge9_Node000009_Node000002"><a xlink:title=" ">
<path fill="none" stroke="#63b8ff" d="M412.21,-80.94C434.47,-90.58 461.66,-103.13 478.46,-111.59"/>
<polygon fill="#63b8ff" stroke="#63b8ff" points="413.71,-77.78 403.14,-77.07 410.96,-84.22 413.71,-77.78"/>
</a>
</g>
</g>
<!-- Node9&#45;&gt;Node8 -->
<g id="edge10_Node000009_Node000008" class="edge">
<title>Node9&#45;&gt;Node8</title>
<g id="a_edge10_Node000009_Node000008"><a xlink:title=" ">
<path fill="none" stroke="#63b8ff" d="M369.36,-44.71C366.72,-36.32 363.79,-27.01 361.68,-20.3"/>
<polygon fill="#63b8ff" stroke="#63b8ff" points="365.99,-45.66 372.33,-54.15 372.67,-43.56 365.99,-45.66"/>
</a>
</g>
</g>
</g>
</svg>
