<?xml version="1.0" encoding="UTF-8" standalone="no"?>
<!DOCTYPE svg PUBLIC "-//W3C//DTD SVG 1.1//EN"
 "http://www.w3.org/Graphics/SVG/1.1/DTD/svg11.dtd">
<!-- Generated by graphviz version 13.1.2 (20250808.2320)
 -->
<!-- Title: B3YenaGraphicsEngine9::_GeometryPipeline Pages: 1 -->
<svg width="576pt" height="140pt"
 viewBox="0.00 0.00 576.00 140.00" xmlns="http://www.w3.org/2000/svg" xmlns:xlink="http://www.w3.org/1999/xlink">
<g id="graph0" class="graph" transform="scale(1 1) rotate(0) translate(4 136)">
<title>B3YenaGraphicsEngine9::_GeometryPipeline</title>
<!-- Node1 -->
<g id="Node000001" class="node">
<title>Node1</title>
<g id="a_Node000001"><a xlink:title="기하 파이프라인 연산을 수행.">
<polygon fill="#999999" stroke="#666666" points="124,-82 0,-82 0,-50 124,-50 124,-82"/>
<text xml:space="preserve" text-anchor="start" x="8" y="-68.5" font-family="Helvetica,sans-Serif" font-size="10.00">B3YenaGraphicsEngine9</text>
<text xml:space="preserve" text-anchor="middle" x="62" y="-56.5" font-family="Helvetica,sans-Serif" font-size="10.00">::_GeometryPipeline</text>
</a>
</g>
</g>
<!-- Node2 -->
<g id="Node000002" class="node">
<title>Node2</title>
<g id="a_Node000002"><a xlink:href="a00184_a6299cce5b5e70bfddf67d6ffa138d505.html#a6299cce5b5e70bfddf67d6ffa138d505" target="_top" xlink:title=" ">
<polygon fill="white" stroke="#666666" points="284,-82 160,-82 160,-50 284,-50 284,-82"/>
<text xml:space="preserve" text-anchor="start" x="168" y="-68.5" font-family="Helvetica,sans-Serif" font-size="10.00">B3YenaGraphicsEngine9</text>
<text xml:space="preserve" text-anchor="middle" x="222" y="-56.5" font-family="Helvetica,sans-Serif" font-size="10.00">::_TnL_GP</text>
</a>
</g>
</g>
<!-- Node1&#45;&gt;Node2 -->
<g id="edge1_Node000001_Node000002" class="edge">
<title>Node1&#45;&gt;Node2</title>
<g id="a_edge1_Node000001_Node000002"><a xlink:title=" ">
<path fill="none" stroke="#63b8ff" d="M124.09,-66C132,-66 140.16,-66 148.23,-66"/>
<polygon fill="#63b8ff" stroke="#63b8ff" points="148.04,-69.5 158.04,-66 148.04,-62.5 148.04,-69.5"/>
</a>
</g>
</g>
<!-- Node3 -->
<g id="Node000003" class="node">
<title>Node3</title>
<g id="a_Node000003"><a xlink:href="a00184_a37ad70788b0e06df4015e6d89c15c10d.html#a37ad70788b0e06df4015e6d89c15c10d" target="_top" xlink:title=" ">
<polygon fill="white" stroke="#666666" points="444,-132 320,-132 320,-100 444,-100 444,-132"/>
<text xml:space="preserve" text-anchor="start" x="328" y="-118.5" font-family="Helvetica,sans-Serif" font-size="10.00">B3YenaGraphicsEngine9</text>
<text xml:space="preserve" text-anchor="middle" x="382" y="-106.5" font-family="Helvetica,sans-Serif" font-size="10.00">::_FaceCulling3</text>
</a>
</g>
</g>
<!-- Node2&#45;&gt;Node3 -->
<g id="edge2_Node000002_Node000003" class="edge">
<title>Node2&#45;&gt;Node3</title>
<g id="a_edge2_Node000002_Node000003"><a xlink:title=" ">
<path fill="none" stroke="#63b8ff" d="M274.74,-82.37C288.58,-86.75 303.69,-91.54 318.06,-96.08"/>
<polygon fill="#63b8ff" stroke="#63b8ff" points="316.85,-99.37 327.44,-99.05 318.96,-92.7 316.85,-99.37"/>
</a>
</g>
</g>
<!-- Node5 -->
<g id="Node000005" class="node">
<title>Node5</title>
<g id="a_Node000005"><a xlink:href="a00184_a461629d11d13176b8d3df7dddc8adaa4.html#a461629d11d13176b8d3df7dddc8adaa4" target="_top" xlink:title="동차 나누기( Homogeneous Divide)">
<polygon fill="white" stroke="#666666" points="444,-82 320,-82 320,-50 444,-50 444,-82"/>
<text xml:space="preserve" text-anchor="start" x="328" y="-68.5" font-family="Helvetica,sans-Serif" font-size="10.00">B3YenaGraphicsEngine9</text>
<text xml:space="preserve" text-anchor="middle" x="382" y="-56.5" font-family="Helvetica,sans-Serif" font-size="10.00">::_HomogeneousDivide</text>
</a>
</g>
</g>
<!-- Node2&#45;&gt;Node5 -->
<g id="edge4_Node000002_Node000005" class="edge">
<title>Node2&#45;&gt;Node5</title>
<g id="a_edge4_Node000002_Node000005"><a xlink:title=" ">
<path fill="none" stroke="#63b8ff" d="M284.09,-66C292,-66 300.16,-66 308.23,-66"/>
<polygon fill="#63b8ff" stroke="#63b8ff" points="308.04,-69.5 318.04,-66 308.04,-62.5 308.04,-69.5"/>
</a>
</g>
</g>
<!-- Node6 -->
<g id="Node000006" class="node">
<title>Node6</title>
<g id="a_Node000006"><a xlink:href="a00184_aff6a1a311a64553bdcbec30ff614e685.html#aff6a1a311a64553bdcbec30ff614e685" target="_top" xlink:title="뷰포트 멥핑 (Viewport)">
<polygon fill="white" stroke="#666666" points="444,-32 320,-32 320,0 444,0 444,-32"/>
<text xml:space="preserve" text-anchor="start" x="328" y="-18.5" font-family="Helvetica,sans-Serif" font-size="10.00">B3YenaGraphicsEngine9</text>
<text xml:space="preserve" text-anchor="middle" x="382" y="-6.5" font-family="Helvetica,sans-Serif" font-size="10.00">::_Viewport</text>
</a>
</g>
</g>
<!-- Node2&#45;&gt;Node6 -->
<g id="edge5_Node000002_Node000006" class="edge">
<title>Node2&#45;&gt;Node6</title>
<g id="a_edge5_Node000002_Node000006"><a xlink:title=" ">
<path fill="none" stroke="#63b8ff" d="M274.74,-49.63C288.58,-45.25 303.69,-40.46 318.06,-35.92"/>
<polygon fill="#63b8ff" stroke="#63b8ff" points="318.96,-39.3 327.44,-32.95 316.85,-32.63 318.96,-39.3"/>
</a>
</g>
</g>
<!-- Node4 -->
<g id="Node000004" class="node">
<title>Node4</title>
<g id="a_Node000004"><a xlink:href="a00141_ga89e31da65b4263dc188d888ae164223c.html#ga89e31da65b4263dc188d888ae164223c" target="_top" xlink:title=" ">
<polygon fill="white" stroke="#666666" points="568,-126 480,-126 480,-106 568,-106 568,-126"/>
<text xml:space="preserve" text-anchor="middle" x="524" y="-112.5" font-family="Helvetica,sans-Serif" font-size="10.00">B3YXVec2CCW</text>
</a>
</g>
</g>
<!-- Node3&#45;&gt;Node4 -->
<g id="edge3_Node000003_Node000004" class="edge">
<title>Node3&#45;&gt;Node4</title>
<g id="a_edge3_Node000003_Node000004"><a xlink:title=" ">
<path fill="none" stroke="#63b8ff" d="M444.41,-116C452.4,-116 460.55,-116 468.43,-116"/>
<polygon fill="#63b8ff" stroke="#63b8ff" points="468.2,-119.5 478.2,-116 468.2,-112.5 468.2,-119.5"/>
</a>
</g>
</g>
</g>
</svg>
