<?xml version="1.0" encoding="UTF-8" standalone="no"?>
<!DOCTYPE svg PUBLIC "-//W3C//DTD SVG 1.1//EN"
 "http://www.w3.org/Graphics/SVG/1.1/DTD/svg11.dtd">
<!-- Generated by graphviz version 13.1.2 (20250808.2320)
 -->
<!-- Title: B3Yena::CreateDevice Pages: 1 -->
<svg width="637pt" height="216pt"
 viewBox="0.00 0.00 637.00 216.00" xmlns="http://www.w3.org/2000/svg" xmlns:xlink="http://www.w3.org/1999/xlink">
<g id="graph0" class="graph" transform="scale(1 1) rotate(0) translate(4 212)">
<title>B3Yena::CreateDevice</title>
<!-- Node1 -->
<g id="Node000001" class="node">
<title>Node1</title>
<g id="a_Node000001"><a xlink:title="Yena SWR 렌더링 디바이스 개체 생성 : D3D9 대응">
<polygon fill="#999999" stroke="#666666" points="115.75,-80 0,-80 0,-60 115.75,-60 115.75,-80"/>
<text xml:space="preserve" text-anchor="middle" x="57.88" y="-66.5" font-family="Helvetica,sans-Serif" font-size="10.00">B3Yena::CreateDevice</text>
</a>
</g>
</g>
<!-- Node2 -->
<g id="Node000002" class="node">
<title>Node2</title>
<g id="a_Node000002"><a xlink:href="a00160_aafc83e4f63d48757c495d33009513e38.html#aafc83e4f63d48757c495d33009513e38" target="_top" xlink:title="지정 렌더링 디바이스 개체 생성 메소드.">
<polygon fill="white" stroke="#666666" points="293,-127 166.75,-127 166.75,-107 293,-107 293,-127"/>
<text xml:space="preserve" text-anchor="middle" x="229.88" y="-113.5" font-family="Helvetica,sans-Serif" font-size="10.00">B3YenaDevice9::_Create</text>
</a>
</g>
</g>
<!-- Node1&#45;&gt;Node2 -->
<g id="edge1_Node000001_Node000002" class="edge">
<title>Node1&#45;&gt;Node2</title>
<g id="a_edge1_Node000001_Node000002"><a xlink:title=" ">
<path fill="none" stroke="#63b8ff" d="M96.6,-80.43C121.17,-87.22 153.46,-96.15 179.98,-103.48"/>
<polygon fill="#63b8ff" stroke="#63b8ff" points="178.93,-106.82 189.5,-106.11 180.79,-100.08 178.93,-106.82"/>
</a>
</g>
</g>
<!-- Node7 -->
<g id="Node000007" class="node">
<title>Node7</title>
<g id="a_Node000007"><a xlink:href="a00160_a3448d8c5c0b5227fc04e5280e55bb37d.html#a3448d8c5c0b5227fc04e5280e55bb37d" target="_top" xlink:title=" ">
<polygon fill="white" stroke="#666666" points="308,-58 151.75,-58 151.75,-38 308,-38 308,-58"/>
<text xml:space="preserve" text-anchor="middle" x="229.88" y="-44.5" font-family="Helvetica,sans-Serif" font-size="10.00">B3YenaDevice9::QueryInterface</text>
</a>
</g>
</g>
<!-- Node1&#45;&gt;Node7 -->
<g id="edge7_Node000001_Node000007" class="edge">
<title>Node1&#45;&gt;Node7</title>
<g id="a_edge7_Node000001_Node000007"><a xlink:title=" ">
<path fill="none" stroke="#63b8ff" d="M115.96,-62.61C123.78,-61.6 131.96,-60.54 140.19,-59.48"/>
<polygon fill="#63b8ff" stroke="#63b8ff" points="140.44,-62.97 149.9,-58.22 139.54,-56.03 140.44,-62.97"/>
</a>
</g>
</g>
<!-- Node3 -->
<g id="Node000003" class="node">
<title>Node3</title>
<g id="a_Node000003"><a xlink:href="a00184_aad14572abb8c674cf9eff7646d42bb6f.html#aad14572abb8c674cf9eff7646d42bb6f" target="_top" xlink:title=" ">
<polygon fill="white" stroke="#666666" points="468.38,-208 344.38,-208 344.38,-176 468.38,-176 468.38,-208"/>
<text xml:space="preserve" text-anchor="start" x="352.38" y="-194.5" font-family="Helvetica,sans-Serif" font-size="10.00">B3YenaGraphicsEngine9</text>
<text xml:space="preserve" text-anchor="middle" x="406.38" y="-182.5" font-family="Helvetica,sans-Serif" font-size="10.00">::_GetDCRT</text>
</a>
</g>
</g>
<!-- Node2&#45;&gt;Node3 -->
<g id="edge2_Node000002_Node000003" class="edge">
<title>Node2&#45;&gt;Node3</title>
<g id="a_edge2_Node000002_Node000003"><a xlink:title=" ">
<path fill="none" stroke="#63b8ff" d="M253.76,-127.35C276.55,-137.6 312.57,-153.66 344,-167 347.34,-168.42 350.78,-169.86 354.26,-171.31"/>
<polygon fill="#63b8ff" stroke="#63b8ff" points="352.72,-174.46 363.3,-175.05 355.4,-167.99 352.72,-174.46"/>
</a>
</g>
</g>
<!-- Node4 -->
<g id="Node000004" class="node">
<title>Node4</title>
<g id="a_Node000004"><a xlink:href="a00184_a8fcaaf43ea2dd7bd85c07df5988cbfe3.html#a8fcaaf43ea2dd7bd85c07df5988cbfe3" target="_top" xlink:title="백버퍼용 렌더타겟을 생성.">
<polygon fill="white" stroke="#666666" points="468.38,-158 344.38,-158 344.38,-126 468.38,-126 468.38,-158"/>
<text xml:space="preserve" text-anchor="start" x="352.38" y="-144.5" font-family="Helvetica,sans-Serif" font-size="10.00">B3YenaGraphicsEngine9</text>
<text xml:space="preserve" text-anchor="middle" x="406.38" y="-132.5" font-family="Helvetica,sans-Serif" font-size="10.00">::_RenderTargetCreate</text>
</a>
</g>
</g>
<!-- Node2&#45;&gt;Node4 -->
<g id="edge3_Node000002_Node000004" class="edge">
<title>Node2&#45;&gt;Node4</title>
<g id="a_edge3_Node000002_Node000004"><a xlink:title=" ">
<path fill="none" stroke="#63b8ff" d="M293.38,-125.95C306.09,-127.78 319.56,-129.71 332.59,-131.57"/>
<polygon fill="#63b8ff" stroke="#63b8ff" points="332,-135.02 342.39,-132.98 332.99,-128.09 332,-135.02"/>
</a>
</g>
</g>
<!-- Node5 -->
<g id="Node000005" class="node">
<title>Node5</title>
<g id="a_Node000005"><a xlink:href="a00184_a30de4268f29c1354c0e520c2e16e6027.html#a30de4268f29c1354c0e520c2e16e6027" target="_top" xlink:title=" ">
<polygon fill="white" stroke="#666666" points="468.38,-108 344.38,-108 344.38,-76 468.38,-76 468.38,-108"/>
<text xml:space="preserve" text-anchor="start" x="352.38" y="-94.5" font-family="Helvetica,sans-Serif" font-size="10.00">B3YenaGraphicsEngine9</text>
<text xml:space="preserve" text-anchor="middle" x="406.38" y="-82.5" font-family="Helvetica,sans-Serif" font-size="10.00">::SetDev</text>
</a>
</g>
</g>
<!-- Node2&#45;&gt;Node5 -->
<g id="edge4_Node000002_Node000005" class="edge">
<title>Node2&#45;&gt;Node5</title>
<g id="a_edge4_Node000002_Node000005"><a xlink:title=" ">
<path fill="none" stroke="#63b8ff" d="M293.38,-108.05C306.09,-106.22 319.56,-104.29 332.59,-102.43"/>
<polygon fill="#63b8ff" stroke="#63b8ff" points="332.99,-105.91 342.39,-101.02 332,-98.98 332.99,-105.91"/>
</a>
</g>
</g>
<!-- Node6 -->
<g id="Node000006" class="node">
<title>Node6</title>
<g id="a_Node000006"><a xlink:href="a00184_ab190b19331f0f9cc68628e0e90abf4fc.html#ab190b19331f0f9cc68628e0e90abf4fc" target="_top" xlink:title=" ">
<polygon fill="white" stroke="#666666" points="628.75,-108 504.75,-108 504.75,-76 628.75,-76 628.75,-108"/>
<text xml:space="preserve" text-anchor="start" x="512.75" y="-94.5" font-family="Helvetica,sans-Serif" font-size="10.00">B3YenaGraphicsEngine9</text>
<text xml:space="preserve" text-anchor="middle" x="566.75" y="-82.5" font-family="Helvetica,sans-Serif" font-size="10.00">::B3YenaDevice9</text>
</a>
</g>
</g>
<!-- Node5&#45;&gt;Node6 -->
<g id="edge5_Node000005_Node000006" class="edge">
<title>Node5&#45;&gt;Node6</title>
<g id="a_edge5_Node000005_Node000006"><a xlink:title=" ">
<path fill="none" stroke="#63b8ff" d="M468.61,-92C476.59,-92 484.84,-92 492.99,-92"/>
<polygon fill="#63b8ff" stroke="#63b8ff" points="492.91,-95.5 502.91,-92 492.91,-88.5 492.91,-95.5"/>
</a>
</g>
</g>
<!-- Node6&#45;&gt;Node6 -->
<g id="edge6_Node000006_Node000006" class="edge">
<title>Node6&#45;&gt;Node6</title>
<g id="a_edge6_Node000006_Node000006"><a xlink:title=" ">
<path fill="none" stroke="#63b8ff" d="M538.12,-108.44C532.77,-117.58 542.32,-126 566.75,-126 580.11,-126 589.02,-123.48 593.48,-119.71"/>
<polygon fill="#63b8ff" stroke="#63b8ff" points="596.91,-120.38 595.13,-109.94 590.01,-119.21 596.91,-120.38"/>
</a>
</g>
</g>
<!-- Node8 -->
<g id="Node000008" class="node">
<title>Node8</title>
<g id="a_Node000008"><a xlink:href="a00160_aca6b4939afea95dbfb5dab21406d0000.html#aca6b4939afea95dbfb5dab21406d0000" target="_top" xlink:title=" ">
<polygon fill="white" stroke="#666666" points="468.75,-58 344,-58 344,-38 468.75,-38 468.75,-58"/>
<text xml:space="preserve" text-anchor="middle" x="406.38" y="-44.5" font-family="Helvetica,sans-Serif" font-size="10.00">B3YenaDevice9::AddRef</text>
</a>
</g>
</g>
<!-- Node7&#45;&gt;Node8 -->
<g id="edge8_Node000007_Node000008" class="edge">
<title>Node7&#45;&gt;Node8</title>
<g id="a_edge8_Node000007_Node000008"><a xlink:title=" ">
<path fill="none" stroke="#63b8ff" d="M308.43,-48C316.32,-48 324.32,-48 332.16,-48"/>
<polygon fill="#63b8ff" stroke="#63b8ff" points="331.99,-51.5 341.99,-48 331.99,-44.5 331.99,-51.5"/>
</a>
</g>
</g>
<!-- Node9 -->
<g id="Node000009" class="node">
<title>Node9</title>
<g id="a_Node000009"><a xlink:href="a00137_ga9e2aa2b3bba79319041923d1db833f2a.html#ga9e2aa2b3bba79319041923d1db833f2a" target="_top" xlink:title=" ">
<polygon fill="white" stroke="#666666" points="442.88,-20 369.88,-20 369.88,0 442.88,0 442.88,-20"/>
<text xml:space="preserve" text-anchor="middle" x="406.38" y="-6.5" font-family="Helvetica,sans-Serif" font-size="10.00">ynIsEqualIID</text>
</a>
</g>
</g>
<!-- Node7&#45;&gt;Node9 -->
<g id="edge9_Node000007_Node000009" class="edge">
<title>Node7&#45;&gt;Node9</title>
<g id="a_edge9_Node000007_Node000009"><a xlink:title=" ">
<path fill="none" stroke="#63b8ff" d="M279.02,-37.52C303.75,-32.13 333.77,-25.59 358.34,-20.24"/>
<polygon fill="#63b8ff" stroke="#63b8ff" points="359.06,-23.67 368.09,-18.12 357.57,-16.83 359.06,-23.67"/>
</a>
</g>
</g>
</g>
</svg>
