<?xml version="1.0" encoding="UTF-8" standalone="no"?>
<!DOCTYPE svg PUBLIC "-//W3C//DTD SVG 1.1//EN"
 "http://www.w3.org/Graphics/SVG/1.1/DTD/svg11.dtd">
<!-- Generated by graphviz version 13.1.2 (20250808.2320)
 -->
<!-- Title: B3YenaGraphicsEngine9::Release Pages: 1 -->
<svg width="292pt" height="90pt"
 viewBox="0.00 0.00 292.00 90.00" xmlns="http://www.w3.org/2000/svg" xmlns:xlink="http://www.w3.org/1999/xlink">
<g id="graph0" class="graph" transform="scale(1 1) rotate(0) translate(4 86)">
<title>B3YenaGraphicsEngine9::Release</title>
<!-- Node1 -->
<g id="Node000001" class="node">
<title>Node1</title>
<g id="a_Node000001"><a xlink:title="렌더링 엔진 자원 해제.">
<polygon fill="#999999" stroke="#666666" points="124,-57 0,-57 0,-25 124,-25 124,-57"/>
<text xml:space="preserve" text-anchor="start" x="8" y="-43.5" font-family="Helvetica,sans-Serif" font-size="10.00">B3YenaGraphicsEngine9</text>
<text xml:space="preserve" text-anchor="middle" x="62" y="-31.5" font-family="Helvetica,sans-Serif" font-size="10.00">::Release</text>
</a>
</g>
</g>
<!-- Node2 -->
<g id="Node000002" class="node">
<title>Node2</title>
<g id="a_Node000002"><a xlink:href="a00184_a30e0415de83050142afe8431644fc774.html#a30e0415de83050142afe8431644fc774" target="_top" xlink:title="렌더타겟 제거.">
<polygon fill="white" stroke="#666666" points="284,-82 160,-82 160,-50 284,-50 284,-82"/>
<text xml:space="preserve" text-anchor="start" x="168" y="-68.5" font-family="Helvetica,sans-Serif" font-size="10.00">B3YenaGraphicsEngine9</text>
<text xml:space="preserve" text-anchor="middle" x="222" y="-56.5" font-family="Helvetica,sans-Serif" font-size="10.00">::_RenderTargetRelease</text>
</a>
</g>
</g>
<!-- Node1&#45;&gt;Node2 -->
<g id="edge1_Node000001_Node000002" class="edge">
<title>Node1&#45;&gt;Node2</title>
<g id="a_edge1_Node000001_Node000002"><a xlink:title=" ">
<path fill="none" stroke="#63b8ff" d="M124.09,-50.67C132,-51.92 140.16,-53.21 148.23,-54.49"/>
<polygon fill="#63b8ff" stroke="#63b8ff" points="147.64,-57.94 158.06,-56.04 148.73,-51.02 147.64,-57.94"/>
</a>
</g>
</g>
<!-- Node3 -->
<g id="Node000003" class="node">
<title>Node3</title>
<g id="a_Node000003"><a xlink:href="a00184_a901ebdd8057833a48ea72580ffd0ff9a.html#a901ebdd8057833a48ea72580ffd0ff9a" target="_top" xlink:title="각 렌더링 파이프라인에서 생성된 단계별 임시버퍼 제거.">
<polygon fill="white" stroke="#666666" points="284,-32 160,-32 160,0 284,0 284,-32"/>
<text xml:space="preserve" text-anchor="start" x="168" y="-18.5" font-family="Helvetica,sans-Serif" font-size="10.00">B3YenaGraphicsEngine9</text>
<text xml:space="preserve" text-anchor="middle" x="222" y="-6.5" font-family="Helvetica,sans-Serif" font-size="10.00">::_TempBufferRelease</text>
</a>
</g>
</g>
<!-- Node1&#45;&gt;Node3 -->
<g id="edge2_Node000001_Node000003" class="edge">
<title>Node1&#45;&gt;Node3</title>
<g id="a_edge2_Node000001_Node000003"><a xlink:title=" ">
<path fill="none" stroke="#63b8ff" d="M124.09,-31.33C132,-30.08 140.16,-28.79 148.23,-27.51"/>
<polygon fill="#63b8ff" stroke="#63b8ff" points="148.73,-30.98 158.06,-25.96 147.64,-24.06 148.73,-30.98"/>
</a>
</g>
</g>
</g>
</svg>
