<?xml version="1.0" encoding="UTF-8" standalone="no"?>
<!DOCTYPE svg PUBLIC "-//W3C//DTD SVG 1.1//EN"
 "http://www.w3.org/Graphics/SVG/1.1/DTD/svg11.dtd">
<!-- Generated by graphviz version 13.1.2 (20250808.2320)
 -->
<!-- Title: B3YXMatrixIdentity Pages: 1 -->
<svg width="662pt" height="458pt"
 viewBox="0.00 0.00 662.00 458.00" xmlns="http://www.w3.org/2000/svg" xmlns:xlink="http://www.w3.org/1999/xlink">
<g id="graph0" class="graph" transform="scale(1 1) rotate(0) translate(4 454)">
<title>B3YXMatrixIdentity</title>
<!-- Node1 -->
<g id="Node000001" class="node">
<title>Node1</title>
<g id="a_Node000001"><a xlink:title="행렬 단위화(초기화) 함수">
<polygon fill="#999999" stroke="#666666" points="653.75,-241 553,-241 553,-221 653.75,-221 653.75,-241"/>
<text xml:space="preserve" text-anchor="middle" x="603.38" y="-227.5" font-family="Helvetica,sans-Serif" font-size="10.00">B3YXMatrixIdentity</text>
</a>
</g>
</g>
<!-- Node2 -->
<g id="Node000002" class="node">
<title>Node2</title>
<g id="a_Node000002"><a xlink:href="a00216_a7d2afab368b9a1985d39f5cf46ada8cc.html#a7d2afab368b9a1985d39f5cf46ada8cc" target="_top" xlink:title=" ">
<polygon fill="white" stroke="#666666" points="498.62,-450 385.88,-450 385.88,-430 498.62,-430 498.62,-450"/>
<text xml:space="preserve" text-anchor="middle" x="442.25" y="-436.5" font-family="Helvetica,sans-Serif" font-size="10.00">YENA::ynGrid::ynGrid</text>
</a>
</g>
</g>
<!-- Node1&#45;&gt;Node2 -->
<g id="edge1_Node000001_Node000002" class="edge">
<title>Node1&#45;&gt;Node2</title>
<g id="a_edge1_Node000001_Node000002"><a xlink:title=" ">
<path fill="none" stroke="#63b8ff" d="M599.01,-252.17C591.61,-291.58 570.15,-376.21 517,-421 511.74,-425.43 505.58,-428.85 499.09,-431.47"/>
<polygon fill="#63b8ff" stroke="#63b8ff" points="602.42,-253.02 600.68,-242.57 595.52,-251.82 602.42,-253.02"/>
</a>
</g>
</g>
<!-- Node3 -->
<g id="Node000003" class="node">
<title>Node3</title>
<g id="a_Node000003"><a xlink:href="a00141_ga9735d0ed90f18f6601eff62e699f59fe.html#ga9735d0ed90f18f6601eff62e699f59fe" target="_top" xlink:title="뷰 변환 행렬 생성 : D3DXMatrixLookAtLH 대응.">
<polygon fill="white" stroke="#666666" points="498.25,-412 386.25,-412 386.25,-392 498.25,-392 498.25,-412"/>
<text xml:space="preserve" text-anchor="middle" x="442.25" y="-398.5" font-family="Helvetica,sans-Serif" font-size="10.00">B3YXMatrixLookAtLH</text>
</a>
</g>
</g>
<!-- Node1&#45;&gt;Node3 -->
<g id="edge2_Node000001_Node000003" class="edge">
<title>Node1&#45;&gt;Node3</title>
<g id="a_edge2_Node000001_Node000003"><a xlink:title=" ">
<path fill="none" stroke="#63b8ff" d="M596.45,-252.06C586.03,-285.13 561.23,-348.98 517,-383 511.55,-387.19 505.27,-390.46 498.72,-393.02"/>
<polygon fill="#63b8ff" stroke="#63b8ff" points="599.7,-253.41 599.21,-242.83 592.99,-251.4 599.7,-253.41"/>
</a>
</g>
</g>
<!-- Node7 -->
<g id="Node000007" class="node">
<title>Node7</title>
<g id="a_Node000007"><a xlink:href="a00141_gabb484b891820f63e8f09962e1cf9ed7d.html#gabb484b891820f63e8f09962e1cf9ed7d" target="_top" xlink:title="행렬 결합 : D3DXMatrixMultiply 대응.">
<polygon fill="white" stroke="#666666" points="493.38,-336 391.12,-336 391.12,-316 493.38,-316 493.38,-336"/>
<text xml:space="preserve" text-anchor="middle" x="442.25" y="-322.5" font-family="Helvetica,sans-Serif" font-size="10.00">B3YXMatrixMultiply</text>
</a>
</g>
</g>
<!-- Node1&#45;&gt;Node7 -->
<g id="edge6_Node000001_Node000007" class="edge">
<title>Node1&#45;&gt;Node7</title>
<g id="a_edge6_Node000001_Node000007"><a xlink:title=" ">
<path fill="none" stroke="#63b8ff" d="M586.44,-249.55C570.55,-266.91 544.59,-292.29 517,-307 509.77,-310.86 501.71,-313.96 493.66,-316.45"/>
<polygon fill="#63b8ff" stroke="#63b8ff" points="588.74,-252.23 592.79,-242.44 583.52,-247.58 588.74,-252.23"/>
</a>
</g>
</g>
<!-- Node9 -->
<g id="Node000009" class="node">
<title>Node9</title>
<g id="a_Node000009"><a xlink:href="a00141_gab141b564e1c257402780d61a62a7230a.html#gab141b564e1c257402780d61a62a7230a" target="_top" xlink:title="투영 변환 행렬 생성 : D3DXMatrixPerspectiveFovLH 대응.">
<polygon fill="white" stroke="#666666" points="517,-374 367.5,-374 367.5,-354 517,-354 517,-374"/>
<text xml:space="preserve" text-anchor="middle" x="442.25" y="-360.5" font-family="Helvetica,sans-Serif" font-size="10.00">B3YXMatrixPerspectiveFovLH</text>
</a>
</g>
</g>
<!-- Node1&#45;&gt;Node9 -->
<g id="edge8_Node000001_Node000009" class="edge">
<title>Node1&#45;&gt;Node9</title>
<g id="a_edge8_Node000001_Node000009"><a xlink:title=" ">
<path fill="none" stroke="#63b8ff" d="M592.56,-251.52C579.14,-277.33 552.61,-321.15 517,-345 511.84,-348.46 506.08,-351.29 500.13,-353.6"/>
<polygon fill="#63b8ff" stroke="#63b8ff" points="595.62,-253.23 596.97,-242.72 589.36,-250.09 595.62,-253.23"/>
</a>
</g>
</g>
<!-- Node10 -->
<g id="Node000010" class="node">
<title>Node10</title>
<g id="a_Node000010"><a xlink:href="a00141_gad6d8d9ec90c4ebdef634fc0a5a3a4c92.html#gad6d8d9ec90c4ebdef634fc0a5a3a4c92" target="_top" xlink:title="X 축 기준 회전행렬 생성함수 (YN) 단 회전량은 라디안.">
<polygon fill="white" stroke="#666666" points="498.25,-298 386.25,-298 386.25,-278 498.25,-278 498.25,-298"/>
<text xml:space="preserve" text-anchor="middle" x="442.25" y="-284.5" font-family="Helvetica,sans-Serif" font-size="10.00">B3YXMatrixRotationX</text>
</a>
</g>
</g>
<!-- Node1&#45;&gt;Node10 -->
<g id="edge10_Node000001_Node000010" class="edge">
<title>Node1&#45;&gt;Node10</title>
<g id="a_edge10_Node000001_Node000010"><a xlink:title=" ">
<path fill="none" stroke="#63b8ff" d="M571.36,-246.31C555.37,-253.8 535.42,-262.58 517,-269 508.01,-272.13 498.24,-275.01 488.85,-277.52"/>
<polygon fill="#63b8ff" stroke="#63b8ff" points="572.83,-249.48 580.35,-242.01 569.82,-243.16 572.83,-249.48"/>
</a>
</g>
</g>
<!-- Node11 -->
<g id="Node000011" class="node">
<title>Node11</title>
<g id="a_Node000011"><a xlink:href="a00141_gad8e630c14218a38be5a8afaa29be1f95.html#gad8e630c14218a38be5a8afaa29be1f95" target="_top" xlink:title="Y 축 기준 회전행렬 생성함수 (ver.YN) 단 회전량은 라디안.">
<polygon fill="white" stroke="#666666" points="498.25,-260 386.25,-260 386.25,-240 498.25,-240 498.25,-260"/>
<text xml:space="preserve" text-anchor="middle" x="442.25" y="-246.5" font-family="Helvetica,sans-Serif" font-size="10.00">B3YXMatrixRotationY</text>
</a>
</g>
</g>
<!-- Node1&#45;&gt;Node11 -->
<g id="edge11_Node000001_Node000011" class="edge">
<title>Node1&#45;&gt;Node11</title>
<g id="a_edge11_Node000001_Node000011"><a xlink:title=" ">
<path fill="none" stroke="#63b8ff" d="M541.73,-238.24C527.53,-239.94 512.47,-241.73 498.52,-243.4"/>
<polygon fill="#63b8ff" stroke="#63b8ff" points="541.88,-241.75 551.4,-237.09 541.05,-234.8 541.88,-241.75"/>
</a>
</g>
</g>
<!-- Node13 -->
<g id="Node000013" class="node">
<title>Node13</title>
<g id="a_Node000013"><a xlink:href="a00141_ga3828aa23962df7cb6bd24519416b70f3.html#ga3828aa23962df7cb6bd24519416b70f3" target="_top" xlink:title="Z 축 기준 회전행렬 생성함수 (ver.YN) 단 회전량은 라디안.">
<polygon fill="white" stroke="#666666" points="497.88,-222 386.62,-222 386.62,-202 497.88,-202 497.88,-222"/>
<text xml:space="preserve" text-anchor="middle" x="442.25" y="-208.5" font-family="Helvetica,sans-Serif" font-size="10.00">B3YXMatrixRotationZ</text>
</a>
</g>
</g>
<!-- Node1&#45;&gt;Node13 -->
<g id="edge14_Node000001_Node000013" class="edge">
<title>Node1&#45;&gt;Node13</title>
<g id="a_edge14_Node000001_Node000013"><a xlink:title=" ">
<path fill="none" stroke="#63b8ff" d="M541.67,-223.75C527.39,-222.05 512.25,-220.24 498.24,-218.57"/>
<polygon fill="#63b8ff" stroke="#63b8ff" points="541.05,-227.2 551.4,-224.91 541.88,-220.25 541.05,-227.2"/>
</a>
</g>
</g>
<!-- Node14 -->
<g id="Node000014" class="node">
<title>Node14</title>
<g id="a_Node000014"><a xlink:href="a00141_gae984f2b96f4d146a09bc7ec514d31fb9.html#gae984f2b96f4d146a09bc7ec514d31fb9" target="_top" xlink:title="스케일 행렬 생성 : D3DXMatrixScaling 대응.">
<polygon fill="white" stroke="#666666" points="492.62,-184 391.88,-184 391.88,-164 492.62,-164 492.62,-184"/>
<text xml:space="preserve" text-anchor="middle" x="442.25" y="-170.5" font-family="Helvetica,sans-Serif" font-size="10.00">B3YXMatrixScaling</text>
</a>
</g>
</g>
<!-- Node1&#45;&gt;Node14 -->
<g id="edge15_Node000001_Node000014" class="edge">
<title>Node1&#45;&gt;Node14</title>
<g id="a_edge15_Node000001_Node000014"><a xlink:title=" ">
<path fill="none" stroke="#63b8ff" d="M571.36,-215.69C555.37,-208.2 535.42,-199.42 517,-193 508.01,-189.87 498.24,-186.99 488.85,-184.48"/>
<polygon fill="#63b8ff" stroke="#63b8ff" points="569.82,-218.84 580.35,-219.99 572.83,-212.52 569.82,-218.84"/>
</a>
</g>
</g>
<!-- Node15 -->
<g id="Node000015" class="node">
<title>Node15</title>
<g id="a_Node000015"><a xlink:href="a00141_ga39d89af6e45cb22dc8cecfec6b9631eb.html#ga39d89af6e45cb22dc8cecfec6b9631eb" target="_top" xlink:title="이동 행렬 생성 : D3DXMatrixTranslation 대응.">
<polygon fill="white" stroke="#666666" points="500.5,-146 384,-146 384,-126 500.5,-126 500.5,-146"/>
<text xml:space="preserve" text-anchor="middle" x="442.25" y="-132.5" font-family="Helvetica,sans-Serif" font-size="10.00">B3YXMatrixTranslation</text>
</a>
</g>
</g>
<!-- Node1&#45;&gt;Node15 -->
<g id="edge17_Node000001_Node000015" class="edge">
<title>Node1&#45;&gt;Node15</title>
<g id="a_edge17_Node000001_Node000015"><a xlink:title=" ">
<path fill="none" stroke="#63b8ff" d="M586.44,-212.45C570.55,-195.09 544.59,-169.71 517,-155 510.58,-151.58 503.52,-148.75 496.38,-146.42"/>
<polygon fill="#63b8ff" stroke="#63b8ff" points="583.52,-214.42 592.79,-219.56 588.74,-209.77 583.52,-214.42"/>
</a>
</g>
</g>
<!-- Node16 -->
<g id="Node000016" class="node">
<title>Node16</title>
<g id="a_Node000016"><a xlink:href="a00184_a3cfed60c7f686d4370953cda9b781ac9.html#a3cfed60c7f686d4370953cda9b781ac9" target="_top" xlink:title="렌더링 엔진 리셋.">
<polygon fill="white" stroke="#666666" points="504.25,-108 380.25,-108 380.25,-76 504.25,-76 504.25,-108"/>
<text xml:space="preserve" text-anchor="start" x="388.25" y="-94.5" font-family="Helvetica,sans-Serif" font-size="10.00">B3YenaGraphicsEngine9</text>
<text xml:space="preserve" text-anchor="middle" x="442.25" y="-82.5" font-family="Helvetica,sans-Serif" font-size="10.00">::Reset</text>
</a>
</g>
</g>
<!-- Node1&#45;&gt;Node16 -->
<g id="edge19_Node000001_Node000016" class="edge">
<title>Node1&#45;&gt;Node16</title>
<g id="a_edge19_Node000001_Node000016"><a xlink:title=" ">
<path fill="none" stroke="#63b8ff" d="M592.07,-210.51C578.28,-185.08 551.53,-142.04 517,-117 512.51,-113.75 507.57,-110.89 502.44,-108.4"/>
<polygon fill="#63b8ff" stroke="#63b8ff" points="588.87,-211.95 596.61,-219.18 595.07,-208.7 588.87,-211.95"/>
</a>
</g>
</g>
<!-- Node18 -->
<g id="Node000018" class="node">
<title>Node18</title>
<g id="a_Node000018"><a xlink:href="a00164_a866b37d2e6db4423f0e1f6f321c4bff9.html#a866b37d2e6db4423f0e1f6f321c4bff9" target="_top" xlink:title="월드 좌표 공간에 정렬하여 축 선 보여주기.">
<polygon fill="white" stroke="#666666" points="500.88,-58 383.62,-58 383.62,-38 500.88,-38 500.88,-58"/>
<text xml:space="preserve" text-anchor="middle" x="442.25" y="-44.5" font-family="Helvetica,sans-Serif" font-size="10.00">YENA::ynAxis::Update</text>
</a>
</g>
</g>
<!-- Node1&#45;&gt;Node18 -->
<g id="edge21_Node000001_Node000018" class="edge">
<title>Node1&#45;&gt;Node18</title>
<g id="a_edge21_Node000001_Node000018"><a xlink:title=" ">
<path fill="none" stroke="#63b8ff" d="M597.35,-209.79C587.88,-174.61 563.98,-104.34 517,-67 512.24,-63.22 506.81,-60.18 501.1,-57.74"/>
<polygon fill="#63b8ff" stroke="#63b8ff" points="593.88,-210.37 599.74,-219.2 600.67,-208.65 593.88,-210.37"/>
</a>
</g>
</g>
<!-- Node19 -->
<g id="Node000019" class="node">
<title>Node19</title>
<g id="a_Node000019"><a xlink:href="a00216_a982b4e6f0c23e854ae81fd5909682477.html#a982b4e6f0c23e854ae81fd5909682477" target="_top" xlink:title=" ">
<polygon fill="white" stroke="#666666" points="500.12,-20 384.38,-20 384.38,0 500.12,0 500.12,-20"/>
<text xml:space="preserve" text-anchor="middle" x="442.25" y="-6.5" font-family="Helvetica,sans-Serif" font-size="10.00">YENA::ynGrid::Update</text>
</a>
</g>
</g>
<!-- Node1&#45;&gt;Node19 -->
<g id="edge22_Node000001_Node000019" class="edge">
<title>Node1&#45;&gt;Node19</title>
<g id="a_edge22_Node000001_Node000019"><a xlink:title=" ">
<path fill="none" stroke="#63b8ff" d="M599.61,-209.64C593.11,-168.31 572.92,-77.22 517,-29 512.09,-24.77 506.36,-21.46 500.3,-18.88"/>
<polygon fill="#63b8ff" stroke="#63b8ff" points="596.11,-209.87 601,-219.27 603.04,-208.87 596.11,-209.87"/>
</a>
</g>
</g>
<!-- Node4 -->
<g id="Node000004" class="node">
<title>Node4</title>
<g id="a_Node000004"><a xlink:href="a00059_a2351adafd60182efe5d511e0c2aa26b1.html#a2351adafd60182efe5d511e0c2aa26b1" target="_top" xlink:title=" ">
<polygon fill="white" stroke="#666666" points="307.5,-374 225.5,-374 225.5,-354 307.5,-354 307.5,-374"/>
<text xml:space="preserve" text-anchor="middle" x="266.5" y="-360.5" font-family="Helvetica,sans-Serif" font-size="10.00">CameraUpdate</text>
</a>
</g>
</g>
<!-- Node3&#45;&gt;Node4 -->
<g id="edge3_Node000003_Node000004" class="edge">
<title>Node3&#45;&gt;Node4</title>
<g id="a_edge3_Node000003_Node000004"><a xlink:title=" ">
<path fill="none" stroke="#63b8ff" d="M382.33,-389.11C357.84,-383.76 330.04,-377.68 307.93,-372.84"/>
<polygon fill="#63b8ff" stroke="#63b8ff" points="381.32,-392.47 391.83,-391.19 382.81,-385.64 381.32,-392.47"/>
</a>
</g>
</g>
<!-- Node5 -->
<g id="Node000005" class="node">
<title>Node5</title>
<g id="a_Node000005"><a xlink:href="a00059_a6d72e579f5eb095a38091a15d586f1a9.html#a6d72e579f5eb095a38091a15d586f1a9" target="_top" xlink:title="\u{2b50} 장면 그리기">
<polygon fill="white" stroke="#666666" points="165.5,-298 90.25,-298 90.25,-278 165.5,-278 165.5,-298"/>
<text xml:space="preserve" text-anchor="middle" x="127.88" y="-284.5" font-family="Helvetica,sans-Serif" font-size="10.00">SceneRender</text>
</a>
</g>
</g>
<!-- Node4&#45;&gt;Node5 -->
<g id="edge4_Node000004_Node000005" class="edge">
<title>Node4&#45;&gt;Node5</title>
<g id="a_edge4_Node000004_Node000005"><a xlink:title=" ">
<path fill="none" stroke="#63b8ff" d="M214.66,-350.86C210.12,-349.1 205.67,-347.16 201.5,-345 177.01,-332.34 152.64,-310.96 139.29,-298.3"/>
<polygon fill="#63b8ff" stroke="#63b8ff" points="213.31,-354.09 223.9,-354.1 215.62,-347.49 213.31,-354.09"/>
</a>
</g>
</g>
<!-- Node6 -->
<g id="Node000006" class="node">
<title>Node6</title>
<g id="a_Node000006"><a xlink:href="a00056_a1122673f59be78a3997ec7dd1c4688f9.html#a1122673f59be78a3997ec7dd1c4688f9" target="_top" xlink:title="애플리케이션 메인 함수.">
<polygon fill="white" stroke="#666666" points="54.25,-298 0,-298 0,-278 54.25,-278 54.25,-298"/>
<text xml:space="preserve" text-anchor="middle" x="27.12" y="-284.5" font-family="Helvetica,sans-Serif" font-size="10.00">WinMain</text>
</a>
</g>
</g>
<!-- Node5&#45;&gt;Node6 -->
<g id="edge5_Node000005_Node000006" class="edge">
<title>Node5&#45;&gt;Node6</title>
<g id="a_edge5_Node000005_Node000006"><a xlink:title=" ">
<path fill="none" stroke="#63b8ff" d="M78.36,-288C70.17,-288 61.95,-288 54.6,-288"/>
<polygon fill="#63b8ff" stroke="#63b8ff" points="78.31,-291.5 88.31,-288 78.31,-284.5 78.31,-291.5"/>
</a>
</g>
</g>
<!-- Node8 -->
<g id="Node000008" class="node">
<title>Node8</title>
<g id="a_Node000008"><a xlink:href="a00268_abeece791c50fd8b3a2879e2f7bed88bc.html#abeece791c50fd8b3a2879e2f7bed88bc" target="_top" xlink:title="행렬곱 연산자 오버로딩. &#160;&#160;B3YXMatrixMultiply 와 기능적으로는 동일합니다.">
<polygon fill="white" stroke="#666666" points="328.5,-336 204.5,-336 204.5,-316 328.5,-316 328.5,-336"/>
<text xml:space="preserve" text-anchor="middle" x="266.5" y="-322.5" font-family="Helvetica,sans-Serif" font-size="10.00">B3YXMATRIX::operator*</text>
</a>
</g>
</g>
<!-- Node7&#45;&gt;Node8 -->
<g id="edge7_Node000007_Node000008" class="edge">
<title>Node7&#45;&gt;Node8</title>
<g id="a_edge7_Node000007_Node000008"><a xlink:title=" ">
<path fill="none" stroke="#63b8ff" d="M379.77,-326C363.21,-326 345.29,-326 328.74,-326"/>
<polygon fill="#63b8ff" stroke="#63b8ff" points="379.48,-329.5 389.48,-326 379.48,-322.5 379.48,-329.5"/>
</a>
</g>
</g>
<!-- Node9&#45;&gt;Node4 -->
<g id="edge9_Node000009_Node000004" class="edge">
<title>Node9&#45;&gt;Node4</title>
<g id="a_edge9_Node000009_Node000004"><a xlink:title=" ">
<path fill="none" stroke="#63b8ff" d="M355.58,-364C338.93,-364 322.23,-364 307.91,-364"/>
<polygon fill="#63b8ff" stroke="#63b8ff" points="355.55,-367.5 365.55,-364 355.55,-360.5 355.55,-367.5"/>
</a>
</g>
</g>
<!-- Node12 -->
<g id="Node000012" class="node">
<title>Node12</title>
<g id="a_Node000012"><a xlink:href="a00059_a71264aa9be3cdedfc23d807cca7e27e6.html#a71264aa9be3cdedfc23d807cca7e27e6" target="_top" xlink:title=" ">
<polygon fill="white" stroke="#666666" points="297.75,-222 235.25,-222 235.25,-202 297.75,-202 297.75,-222"/>
<text xml:space="preserve" text-anchor="middle" x="266.5" y="-208.5" font-family="Helvetica,sans-Serif" font-size="10.00">ObjUpdate</text>
</a>
</g>
</g>
<!-- Node11&#45;&gt;Node12 -->
<g id="edge12_Node000011_Node000012" class="edge">
<title>Node11&#45;&gt;Node12</title>
<g id="a_edge12_Node000011_Node000012"><a xlink:title=" ">
<path fill="none" stroke="#63b8ff" d="M382.31,-237.11C354.03,-230.92 321.32,-223.77 298.06,-218.68"/>
<polygon fill="#63b8ff" stroke="#63b8ff" points="381.32,-240.47 391.83,-239.19 382.81,-233.64 381.32,-240.47"/>
</a>
</g>
</g>
<!-- Node12&#45;&gt;Node5 -->
<g id="edge13_Node000012_Node000005" class="edge">
<title>Node12&#45;&gt;Node5</title>
<g id="a_edge13_Node000012_Node000005"><a xlink:title=" ">
<path fill="none" stroke="#63b8ff" d="M236.79,-227.97C209.85,-242.96 170.35,-264.93 147.36,-277.72"/>
<polygon fill="#63b8ff" stroke="#63b8ff" points="238.43,-231.06 245.47,-223.14 235.03,-224.95 238.43,-231.06"/>
</a>
</g>
</g>
<!-- Node14&#45;&gt;Node12 -->
<g id="edge16_Node000014_Node000012" class="edge">
<title>Node14&#45;&gt;Node12</title>
<g id="a_edge16_Node000014_Node000012"><a xlink:title=" ">
<path fill="none" stroke="#63b8ff" d="M382.31,-186.89C354.03,-193.08 321.32,-200.23 298.06,-205.32"/>
<polygon fill="#63b8ff" stroke="#63b8ff" points="382.81,-190.36 391.83,-184.81 381.32,-183.53 382.81,-190.36"/>
</a>
</g>
</g>
<!-- Node15&#45;&gt;Node12 -->
<g id="edge18_Node000015_Node000012" class="edge">
<title>Node15&#45;&gt;Node12</title>
<g id="a_edge18_Node000015_Node000012"><a xlink:title=" ">
<path fill="none" stroke="#63b8ff" d="M382.08,-149.74C377.1,-151.35 372.18,-153.1 367.5,-155 335.83,-167.84 301.85,-188.96 282.78,-201.57"/>
<polygon fill="#63b8ff" stroke="#63b8ff" points="383.03,-153.11 391.59,-146.88 381.01,-146.41 383.03,-153.11"/>
</a>
</g>
</g>
<!-- Node17 -->
<g id="Node000017" class="node">
<title>Node17</title>
<g id="a_Node000017"><a xlink:href="a00184_a025e569d2c23ac9db2af408d47cfc292.html#a025e569d2c23ac9db2af408d47cfc292" target="_top" xlink:title=" ">
<polygon fill="white" stroke="#666666" points="331.5,-108 201.5,-108 201.5,-76 331.5,-76 331.5,-108"/>
<text xml:space="preserve" text-anchor="start" x="209.5" y="-94.5" font-family="Helvetica,sans-Serif" font-size="10.00">B3YenaGraphicsEngine9</text>
<text xml:space="preserve" text-anchor="middle" x="266.5" y="-82.5" font-family="Helvetica,sans-Serif" font-size="10.00">::B3YenaGraphicsEngine9</text>
</a>
</g>
</g>
<!-- Node16&#45;&gt;Node17 -->
<g id="edge20_Node000016_Node000017" class="edge">
<title>Node16&#45;&gt;Node17</title>
<g id="a_edge20_Node000016_Node000017"><a xlink:title=" ">
<path fill="none" stroke="#63b8ff" d="M368.83,-92C356.52,-92 343.81,-92 331.74,-92"/>
<polygon fill="#63b8ff" stroke="#63b8ff" points="368.48,-95.5 378.48,-92 368.48,-88.5 368.48,-95.5"/>
</a>
</g>
</g>
</g>
</svg>
