<?xml version="1.0" encoding="UTF-8" standalone="no"?>
<!DOCTYPE svg PUBLIC "-//W3C//DTD SVG 1.1//EN"
 "http://www.w3.org/Graphics/SVG/1.1/DTD/svg11.dtd">
<!-- Generated by graphviz version 13.1.2 (20250808.2320)
 -->
<!-- Title: YenaCreate9 Pages: 1 -->
<svg width="270pt" height="28pt"
 viewBox="0.00 0.00 270.00 28.00" xmlns="http://www.w3.org/2000/svg" xmlns:xlink="http://www.w3.org/1999/xlink">
<g id="graph0" class="graph" transform="scale(1 1) rotate(0) translate(4 24)">
<title>YenaCreate9</title>
<!-- Node1 -->
<g id="Node000001" class="node">
<title>Node1</title>
<g id="a_Node000001"><a xlink:title=" ">
<polygon fill="#999999" stroke="#666666" points="261.75,-20 189.5,-20 189.5,0 261.75,0 261.75,-20"/>
<text xml:space="preserve" text-anchor="middle" x="225.62" y="-6.5" font-family="Helvetica,sans-Serif" font-size="10.00">YenaCreate9</text>
</a>
</g>
</g>
<!-- Node2 -->
<g id="Node000002" class="node">
<title>Node2</title>
<g id="a_Node000002"><a xlink:href="a00050_acca400f5f8053c4279231fc354f439f2.html#acca400f5f8053c4279231fc354f439f2" target="_top" xlink:title=" ">
<polygon fill="white" stroke="#666666" points="153.5,-20 90.25,-20 90.25,0 153.5,0 153.5,-20"/>
<text xml:space="preserve" text-anchor="middle" x="121.88" y="-6.5" font-family="Helvetica,sans-Serif" font-size="10.00">YenaSetup</text>
</a>
</g>
</g>
<!-- Node1&#45;&gt;Node2 -->
<g id="edge1_Node000001_Node000002" class="edge">
<title>Node1&#45;&gt;Node2</title>
<g id="a_edge1_Node000001_Node000002"><a xlink:title=" ">
<path fill="none" stroke="#63b8ff" d="M177.76,-10C169.66,-10 161.42,-10 153.87,-10"/>
<polygon fill="#63b8ff" stroke="#63b8ff" points="177.52,-13.5 187.52,-10 177.52,-6.5 177.52,-13.5"/>
</a>
</g>
</g>
<!-- Node3 -->
<g id="Node000003" class="node">
<title>Node3</title>
<g id="a_Node000003"><a xlink:href="a00056_a1122673f59be78a3997ec7dd1c4688f9.html#a1122673f59be78a3997ec7dd1c4688f9" target="_top" xlink:title="애플리케이션 메인 함수.">
<polygon fill="white" stroke="#666666" points="54.25,-20 0,-20 0,0 54.25,0 54.25,-20"/>
<text xml:space="preserve" text-anchor="middle" x="27.12" y="-6.5" font-family="Helvetica,sans-Serif" font-size="10.00">WinMain</text>
</a>
</g>
</g>
<!-- Node2&#45;&gt;Node3 -->
<g id="edge2_Node000002_Node000003" class="edge">
<title>Node2&#45;&gt;Node3</title>
<g id="a_edge2_Node000002_Node000003"><a xlink:title=" ">
<path fill="none" stroke="#63b8ff" d="M78.62,-10C70.42,-10 62.04,-10 54.53,-10"/>
<polygon fill="#63b8ff" stroke="#63b8ff" points="78.48,-13.5 88.48,-10 78.48,-6.5 78.48,-13.5"/>
</a>
</g>
</g>
</g>
</svg>
