<?xml version="1.0" encoding="UTF-8" standalone="no"?>
<!DOCTYPE svg PUBLIC "-//W3C//DTD SVG 1.1//EN"
 "http://www.w3.org/Graphics/SVG/1.1/DTD/svg11.dtd">
<!-- Generated by graphviz version 13.1.2 (20250808.2320)
 -->
<!-- Title: ynGradient Pages: 1 -->
<svg width="551pt" height="116pt"
 viewBox="0.00 0.00 551.00 116.00" xmlns="http://www.w3.org/2000/svg" xmlns:xlink="http://www.w3.org/1999/xlink">
<g id="graph0" class="graph" transform="scale(1 1) rotate(0) translate(4 112)">
<title>ynGradient</title>
<!-- Node1 -->
<g id="Node000001" class="node">
<title>Node1</title>
<g id="a_Node000001"><a xlink:title="두 점 사이의 기울기 구하기">
<polygon fill="#999999" stroke="#666666" points="543.25,-58 480,-58 480,-38 543.25,-38 543.25,-58"/>
<text xml:space="preserve" text-anchor="middle" x="511.62" y="-44.5" font-family="Helvetica,sans-Serif" font-size="10.00">ynGradient</text>
</a>
</g>
</g>
<!-- Node2 -->
<g id="Node000002" class="node">
<title>Node2</title>
<g id="a_Node000002"><a xlink:href="a00184_aba9159be985678d17c68343609158f55.html#aba9159be985678d17c68343609158f55" target="_top" xlink:title=" ">
<polygon fill="white" stroke="#666666" points="444,-108 320,-108 320,-76 444,-76 444,-108"/>
<text xml:space="preserve" text-anchor="start" x="328" y="-94.5" font-family="Helvetica,sans-Serif" font-size="10.00">B3YenaGraphicsEngine9</text>
<text xml:space="preserve" text-anchor="middle" x="382" y="-82.5" font-family="Helvetica,sans-Serif" font-size="10.00">::_Face</text>
</a>
</g>
</g>
<!-- Node1&#45;&gt;Node2 -->
<g id="edge1_Node000001_Node000002" class="edge">
<title>Node1&#45;&gt;Node2</title>
<g id="a_edge1_Node000001_Node000002"><a xlink:title=" ">
<path fill="none" stroke="#63b8ff" d="M469.79,-62.08C457.28,-66.39 443.41,-71.17 430.49,-75.63"/>
<polygon fill="#63b8ff" stroke="#63b8ff" points="470.64,-65.49 478.95,-58.92 468.35,-58.87 470.64,-65.49"/>
</a>
</g>
</g>
<!-- Node5 -->
<g id="Node000005" class="node">
<title>Node5</title>
<g id="a_Node000005"><a xlink:href="a00141_gab2c73f58aab9838f1c03246a6c3d1055.html#gab2c73f58aab9838f1c03246a6c3d1055" target="_top" xlink:title=" ">
<polygon fill="white" stroke="#666666" points="412.5,-58 351.5,-58 351.5,-38 412.5,-38 412.5,-58"/>
<text xml:space="preserve" text-anchor="middle" x="382" y="-44.5" font-family="Helvetica,sans-Serif" font-size="10.00">ynFaceFill</text>
</a>
</g>
</g>
<!-- Node1&#45;&gt;Node5 -->
<g id="edge4_Node000001_Node000005" class="edge">
<title>Node1&#45;&gt;Node5</title>
<g id="a_edge4_Node000001_Node000005"><a xlink:title=" ">
<path fill="none" stroke="#63b8ff" d="M468.23,-48C450.05,-48 429.24,-48 412.73,-48"/>
<polygon fill="#63b8ff" stroke="#63b8ff" points="468.22,-51.5 478.22,-48 468.22,-44.5 468.22,-51.5"/>
</a>
</g>
</g>
<!-- Node6 -->
<g id="Node000006" class="node">
<title>Node6</title>
<g id="a_Node000006"><a xlink:href="a00141_ga75779bae3d43d233b29be1612f74148f.html#ga75779bae3d43d233b29be1612f74148f" target="_top" xlink:title="삼각형 채우기">
<polygon fill="white" stroke="#666666" points="412.5,-20 351.5,-20 351.5,0 412.5,0 412.5,-20"/>
<text xml:space="preserve" text-anchor="middle" x="382" y="-6.5" font-family="Helvetica,sans-Serif" font-size="10.00">ynFaceFill</text>
</a>
</g>
</g>
<!-- Node1&#45;&gt;Node6 -->
<g id="edge5_Node000001_Node000006" class="edge">
<title>Node1&#45;&gt;Node6</title>
<g id="a_edge5_Node000001_Node000006"><a xlink:title=" ">
<path fill="none" stroke="#63b8ff" d="M468.75,-35.53C450.44,-30.08 429.39,-23.81 412.73,-18.85"/>
<polygon fill="#63b8ff" stroke="#63b8ff" points="467.7,-38.87 478.28,-38.37 469.69,-32.16 467.7,-38.87"/>
</a>
</g>
</g>
<!-- Node3 -->
<g id="Node000003" class="node">
<title>Node3</title>
<g id="a_Node000003"><a xlink:href="a00184_aeebbaf1081457875a8f5923ba8569424.html#aeebbaf1081457875a8f5923ba8569424" target="_top" xlink:title="픽셀 파이프 라인 연산을 수행.">
<polygon fill="white" stroke="#666666" points="284,-108 160,-108 160,-76 284,-76 284,-108"/>
<text xml:space="preserve" text-anchor="start" x="168" y="-94.5" font-family="Helvetica,sans-Serif" font-size="10.00">B3YenaGraphicsEngine9</text>
<text xml:space="preserve" text-anchor="middle" x="222" y="-82.5" font-family="Helvetica,sans-Serif" font-size="10.00">::_PixelPipeline</text>
</a>
</g>
</g>
<!-- Node2&#45;&gt;Node3 -->
<g id="edge2_Node000002_Node000003" class="edge">
<title>Node2&#45;&gt;Node3</title>
<g id="a_edge2_Node000002_Node000003"><a xlink:title=" ">
<path fill="none" stroke="#63b8ff" d="M308.6,-92C300.53,-92 292.36,-92 284.45,-92"/>
<polygon fill="#63b8ff" stroke="#63b8ff" points="308.4,-95.5 318.4,-92 308.4,-88.5 308.4,-95.5"/>
</a>
</g>
</g>
<!-- Node4 -->
<g id="Node000004" class="node">
<title>Node4</title>
<g id="a_Node000004"><a xlink:href="a00184_a9124b197c0763305a85b3d27dc71ac87.html#a9124b197c0763305a85b3d27dc71ac87" target="_top" xlink:title=" ">
<polygon fill="white" stroke="#666666" points="124,-108 0,-108 0,-76 124,-76 124,-108"/>
<text xml:space="preserve" text-anchor="start" x="8" y="-94.5" font-family="Helvetica,sans-Serif" font-size="10.00">B3YenaGraphicsEngine9</text>
<text xml:space="preserve" text-anchor="middle" x="62" y="-82.5" font-family="Helvetica,sans-Serif" font-size="10.00">::Draw</text>
</a>
</g>
</g>
<!-- Node3&#45;&gt;Node4 -->
<g id="edge3_Node000003_Node000004" class="edge">
<title>Node3&#45;&gt;Node4</title>
<g id="a_edge3_Node000003_Node000004"><a xlink:title=" ">
<path fill="none" stroke="#63b8ff" d="M148.6,-92C140.53,-92 132.36,-92 124.45,-92"/>
<polygon fill="#63b8ff" stroke="#63b8ff" points="148.4,-95.5 158.4,-92 148.4,-88.5 148.4,-95.5"/>
</a>
</g>
</g>
</g>
</svg>
