<?xml version="1.0" encoding="UTF-8" standalone="no"?>
<!DOCTYPE svg PUBLIC "-//W3C//DTD SVG 1.1//EN"
 "http://www.w3.org/Graphics/SVG/1.1/DTD/svg11.dtd">
<!-- Generated by graphviz version 13.1.2 (20250808.2320)
 -->
<!-- Title: B3YenaGraphicsEngine9::Draw Pages: 1 -->
<!--zoomable 578 -->

<svg id="main" version="1.1" xmlns="http://www.w3.org/2000/svg" xmlns:xlink="http://www.w3.org/1999/xlink" xml:space="preserve" onload="init(evt)">

<style type="text/css"><![CDATA[
.node, .edge {opacity: 0.7;}
.node.selected, .edge.selected {opacity: 1;}
.edge:hover path { stroke: red; }
.edge:hover polygon { stroke: red; fill: red; }
]]></style>

<defs>
  <circle id="rim" cx="0" cy="0" r="7"/>
  <circle id="rim2" cx="0" cy="0" r="3.5"/>
  <g id="zoomPlus">
    <use xlink:href="#rim" fill="#404040"><set attributeName="fill" to="#808080" begin="zoomplus.mouseover" end="zoomplus.mouseout"/></use>
    <path d="M-4,0h8M0,-4v8" fill="none" stroke="white" stroke-width="1.5" pointer-events="none"/>
  </g>
  <g id="zoomMin">
    <use xlink:href="#rim" fill="#404040"><set attributeName="fill" to="#808080" begin="zoomminus.mouseover" end="zoomminus.mouseout"/></use>
    <path d="M-4,0h8" fill="none" stroke="white" stroke-width="1.5" pointer-events="none"/>
  </g>
  <g id="arrowUp" transform="translate(30 24)">
    <use xlink:href="#rim"/>
    <path pointer-events="none" fill="none" stroke="white" stroke-width="1.5" d="M0,-3.0v7 M-2.5,-0.5L0,-3.0L2.5,-0.5"/>
  </g>
  <g id="arrowRight" transform="rotate(90) translate(36 -43)">
    <use xlink:href="#rim"/>
    <path pointer-events="none" fill="none" stroke="white" stroke-width="1.5" d="M0,-3.0v7 M-2.5,-0.5L0,-3.0L2.5,-0.5"/>
  </g>
  <g id="arrowDown" transform="rotate(180) translate(-30 -48)">
    <use xlink:href="#rim"/>
    <path pointer-events="none" fill="none" stroke="white" stroke-width="1.5" d="M0,-3.0v7 M-2.5,-0.5L0,-3.0L2.5,-0.5"/>
  </g>
  <g id="arrowLeft" transform="rotate(270) translate(-36 17)">
    <use xlink:href="#rim"/>
    <path pointer-events="none" fill="none" stroke="white" stroke-width="1.5" d="M0,-3.0v7 M-2.5,-0.5L0,-3.0L2.5,-0.5"/>
  </g>
  <g id="resetDef">
    <use xlink:href="#rim2" fill="#404040"><set attributeName="fill" to="#808080" begin="reset.mouseover" end="reset.mouseout"/></use>
  </g>
</defs>
<script type="application/ecmascript">
var viewWidth = 736;
var viewHeight = 578;
var sectionId = 'dynsection-0';
</script>
<script type="application/ecmascript" xlink:href="svg.min.js"/>
<svg id="graph" class="graph">
<g id="viewport">
<title>B3YenaGraphicsEngine9::Draw</title>
<!-- Node1 -->
<g id="Node000001" class="node">
<title>Node1</title>
<g id="a_Node000001"><a xlink:title=" ">
<polygon fill="#999999" stroke="#666666" points="124,-320 0,-320 0,-288 124,-288 124,-320"/>
<text xml:space="preserve" text-anchor="start" x="8" y="-306.5" font-family="Helvetica,sans-Serif" font-size="10.00">B3YenaGraphicsEngine9</text>
<text xml:space="preserve" text-anchor="middle" x="62" y="-294.5" font-family="Helvetica,sans-Serif" font-size="10.00">::Draw</text>
</a>
</g>
</g>
<!-- Node2 -->
<g id="Node000002" class="node">
<title>Node2</title>
<g id="a_Node000002"><a xlink:href="a00184_a256a127eaa2aa8bd182f038090cb514e.html#a256a127eaa2aa8bd182f038090cb514e" target="_top" xlink:title="기하 파이프라인 연산을 수행.">
<polygon fill="white" stroke="#666666" points="284,-470 160,-470 160,-438 284,-438 284,-470"/>
<text xml:space="preserve" text-anchor="start" x="168" y="-456.5" font-family="Helvetica,sans-Serif" font-size="10.00">B3YenaGraphicsEngine9</text>
<text xml:space="preserve" text-anchor="middle" x="222" y="-444.5" font-family="Helvetica,sans-Serif" font-size="10.00">::_GeometryPipeline</text>
</a>
</g>
</g>
<!-- Node1&#45;&gt;Node2 -->
<g id="edge1_Node000001_Node000002" class="edge">
<title>Node1&#45;&gt;Node2</title>
<g id="a_edge1_Node000001_Node000002"><a xlink:title=" ">
<path fill="none" stroke="#63b8ff" d="M80.21,-320.34C108.11,-346.83 163.34,-399.26 195.72,-430"/>
<polygon fill="#63b8ff" stroke="#63b8ff" points="193.05,-432.29 202.71,-436.64 197.87,-427.22 193.05,-432.29"/>
</a>
</g>
</g>
<!-- Node8 -->
<g id="Node000008" class="node">
<title>Node8</title>
<g id="a_Node000008"><a xlink:href="a00184_aeebbaf1081457875a8f5923ba8569424.html#aeebbaf1081457875a8f5923ba8569424" target="_top" xlink:title="픽셀 파이프 라인 연산을 수행.">
<polygon fill="white" stroke="#666666" points="284,-370 160,-370 160,-338 284,-338 284,-370"/>
<text xml:space="preserve" text-anchor="start" x="168" y="-356.5" font-family="Helvetica,sans-Serif" font-size="10.00">B3YenaGraphicsEngine9</text>
<text xml:space="preserve" text-anchor="middle" x="222" y="-344.5" font-family="Helvetica,sans-Serif" font-size="10.00">::_PixelPipeline</text>
</a>
</g>
</g>
<!-- Node1&#45;&gt;Node8 -->
<g id="edge7_Node000001_Node000008" class="edge">
<title>Node1&#45;&gt;Node8</title>
<g id="a_edge7_Node000001_Node000008"><a xlink:title=" ">
<path fill="none" stroke="#63b8ff" d="M114.74,-320.37C128.58,-324.75 143.69,-329.54 158.06,-334.08"/>
<polygon fill="#63b8ff" stroke="#63b8ff" points="156.85,-337.37 167.44,-337.05 158.96,-330.7 156.85,-337.37"/>
</a>
</g>
</g>
<!-- Node13 -->
<g id="Node000013" class="node">
<title>Node13</title>
<g id="a_Node000013"><a xlink:href="a00184_a55b4c9d7359aa2cbfe5f1ad030bdc036.html#a55b4c9d7359aa2cbfe5f1ad030bdc036" target="_top" xlink:title="정점 파이프 라인 연산을 수행.">
<polygon fill="white" stroke="#666666" points="284,-270 160,-270 160,-238 284,-238 284,-270"/>
<text xml:space="preserve" text-anchor="start" x="168" y="-256.5" font-family="Helvetica,sans-Serif" font-size="10.00">B3YenaGraphicsEngine9</text>
<text xml:space="preserve" text-anchor="middle" x="222" y="-244.5" font-family="Helvetica,sans-Serif" font-size="10.00">::_VertexPipeline</text>
</a>
</g>
</g>
<!-- Node1&#45;&gt;Node13 -->
<g id="edge12_Node000001_Node000013" class="edge">
<title>Node1&#45;&gt;Node13</title>
<g id="a_edge12_Node000001_Node000013"><a xlink:title=" ">
<path fill="none" stroke="#63b8ff" d="M114.74,-287.63C128.58,-283.25 143.69,-278.46 158.06,-273.92"/>
<polygon fill="#63b8ff" stroke="#63b8ff" points="158.96,-277.3 167.44,-270.95 156.85,-270.63 158.96,-277.3"/>
</a>
</g>
</g>
<!-- Node17 -->
<g id="Node000017" class="node">
<title>Node17</title>
<g id="a_Node000017"><a xlink:href="a00184_ac7781494eb7c1c25c4f1818a0ecd270d.html#ac7781494eb7c1c25c4f1818a0ecd270d" target="_top" xlink:title=" ">
<polygon fill="white" stroke="#666666" points="284,-120 160,-120 160,-88 284,-88 284,-120"/>
<text xml:space="preserve" text-anchor="start" x="168" y="-106.5" font-family="Helvetica,sans-Serif" font-size="10.00">B3YenaGraphicsEngine9</text>
<text xml:space="preserve" text-anchor="middle" x="222" y="-94.5" font-family="Helvetica,sans-Serif" font-size="10.00">::_VertexStreaming</text>
</a>
</g>
</g>
<!-- Node1&#45;&gt;Node17 -->
<g id="edge16_Node000001_Node000017" class="edge">
<title>Node1&#45;&gt;Node17</title>
<g id="a_edge16_Node000001_Node000017"><a xlink:title=" ">
<path fill="none" stroke="#63b8ff" d="M75.93,-287.63C103.48,-252.75 168.15,-170.89 201.04,-129.27"/>
<polygon fill="#63b8ff" stroke="#63b8ff" points="203.72,-131.52 207.17,-121.5 198.23,-127.18 203.72,-131.52"/>
</a>
</g>
</g>
<!-- Node3 -->
<g id="Node000003" class="node">
<title>Node3</title>
<g id="a_Node000003"><a xlink:href="a00184_a6299cce5b5e70bfddf67d6ffa138d505.html#a6299cce5b5e70bfddf67d6ffa138d505" target="_top" xlink:title=" ">
<polygon fill="white" stroke="#666666" points="444,-520 320,-520 320,-488 444,-488 444,-520"/>
<text xml:space="preserve" text-anchor="start" x="328" y="-506.5" font-family="Helvetica,sans-Serif" font-size="10.00">B3YenaGraphicsEngine9</text>
<text xml:space="preserve" text-anchor="middle" x="382" y="-494.5" font-family="Helvetica,sans-Serif" font-size="10.00">::_TnL_GP</text>
</a>
</g>
</g>
<!-- Node2&#45;&gt;Node3 -->
<g id="edge2_Node000002_Node000003" class="edge">
<title>Node2&#45;&gt;Node3</title>
<g id="a_edge2_Node000002_Node000003"><a xlink:title=" ">
<path fill="none" stroke="#63b8ff" d="M274.74,-470.37C288.58,-474.75 303.69,-479.54 318.06,-484.08"/>
<polygon fill="#63b8ff" stroke="#63b8ff" points="316.85,-487.37 327.44,-487.05 318.96,-480.7 316.85,-487.37"/>
</a>
</g>
</g>
<!-- Node4 -->
<g id="Node000004" class="node">
<title>Node4</title>
<g id="a_Node000004"><a xlink:href="a00184_a37ad70788b0e06df4015e6d89c15c10d.html#a37ad70788b0e06df4015e6d89c15c10d" target="_top" xlink:title=" ">
<polygon fill="white" stroke="#666666" points="604,-570 480,-570 480,-538 604,-538 604,-570"/>
<text xml:space="preserve" text-anchor="start" x="488" y="-556.5" font-family="Helvetica,sans-Serif" font-size="10.00">B3YenaGraphicsEngine9</text>
<text xml:space="preserve" text-anchor="middle" x="542" y="-544.5" font-family="Helvetica,sans-Serif" font-size="10.00">::_FaceCulling3</text>
</a>
</g>
</g>
<!-- Node3&#45;&gt;Node4 -->
<g id="edge3_Node000003_Node000004" class="edge">
<title>Node3&#45;&gt;Node4</title>
<g id="a_edge3_Node000003_Node000004"><a xlink:title=" ">
<path fill="none" stroke="#63b8ff" d="M434.74,-520.37C448.58,-524.75 463.69,-529.54 478.06,-534.08"/>
<polygon fill="#63b8ff" stroke="#63b8ff" points="476.85,-537.37 487.44,-537.05 478.96,-530.7 476.85,-537.37"/>
</a>
</g>
</g>
<!-- Node6 -->
<g id="Node000006" class="node">
<title>Node6</title>
<g id="a_Node000006"><a xlink:href="a00184_a461629d11d13176b8d3df7dddc8adaa4.html#a461629d11d13176b8d3df7dddc8adaa4" target="_top" xlink:title="동차 나누기( Homogeneous Divide)">
<polygon fill="white" stroke="#666666" points="604,-520 480,-520 480,-488 604,-488 604,-520"/>
<text xml:space="preserve" text-anchor="start" x="488" y="-506.5" font-family="Helvetica,sans-Serif" font-size="10.00">B3YenaGraphicsEngine9</text>
<text xml:space="preserve" text-anchor="middle" x="542" y="-494.5" font-family="Helvetica,sans-Serif" font-size="10.00">::_HomogeneousDivide</text>
</a>
</g>
</g>
<!-- Node3&#45;&gt;Node6 -->
<g id="edge5_Node000003_Node000006" class="edge">
<title>Node3&#45;&gt;Node6</title>
<g id="a_edge5_Node000003_Node000006"><a xlink:title=" ">
<path fill="none" stroke="#63b8ff" d="M444.09,-504C452,-504 460.16,-504 468.23,-504"/>
<polygon fill="#63b8ff" stroke="#63b8ff" points="468.04,-507.5 478.04,-504 468.04,-500.5 468.04,-507.5"/>
</a>
</g>
</g>
<!-- Node7 -->
<g id="Node000007" class="node">
<title>Node7</title>
<g id="a_Node000007"><a xlink:href="a00184_aff6a1a311a64553bdcbec30ff614e685.html#aff6a1a311a64553bdcbec30ff614e685" target="_top" xlink:title="뷰포트 멥핑 (Viewport)">
<polygon fill="white" stroke="#666666" points="604,-470 480,-470 480,-438 604,-438 604,-470"/>
<text xml:space="preserve" text-anchor="start" x="488" y="-456.5" font-family="Helvetica,sans-Serif" font-size="10.00">B3YenaGraphicsEngine9</text>
<text xml:space="preserve" text-anchor="middle" x="542" y="-444.5" font-family="Helvetica,sans-Serif" font-size="10.00">::_Viewport</text>
</a>
</g>
</g>
<!-- Node3&#45;&gt;Node7 -->
<g id="edge6_Node000003_Node000007" class="edge">
<title>Node3&#45;&gt;Node7</title>
<g id="a_edge6_Node000003_Node000007"><a xlink:title=" ">
<path fill="none" stroke="#63b8ff" d="M434.74,-487.63C448.58,-483.25 463.69,-478.46 478.06,-473.92"/>
<polygon fill="#63b8ff" stroke="#63b8ff" points="478.96,-477.3 487.44,-470.95 476.85,-470.63 478.96,-477.3"/>
</a>
</g>
</g>
<!-- Node5 -->
<g id="Node000005" class="node">
<title>Node5</title>
<g id="a_Node000005"><a xlink:href="a00141_ga89e31da65b4263dc188d888ae164223c.html#ga89e31da65b4263dc188d888ae164223c" target="_top" xlink:title=" ">
<polygon fill="white" stroke="#666666" points="728,-564 640,-564 640,-544 728,-544 728,-564"/>
<text xml:space="preserve" text-anchor="middle" x="684" y="-550.5" font-family="Helvetica,sans-Serif" font-size="10.00">B3YXVec2CCW</text>
</a>
</g>
</g>
<!-- Node4&#45;&gt;Node5 -->
<g id="edge4_Node000004_Node000005" class="edge">
<title>Node4&#45;&gt;Node5</title>
<g id="a_edge4_Node000004_Node000005"><a xlink:title=" ">
<path fill="none" stroke="#63b8ff" d="M604.41,-554C612.4,-554 620.55,-554 628.43,-554"/>
<polygon fill="#63b8ff" stroke="#63b8ff" points="628.2,-557.5 638.2,-554 628.2,-550.5 628.2,-557.5"/>
</a>
</g>
</g>
<!-- Node9 -->
<g id="Node000009" class="node">
<title>Node9</title>
<g id="a_Node000009"><a xlink:href="a00184_aba9159be985678d17c68343609158f55.html#aba9159be985678d17c68343609158f55" target="_top" xlink:title=" ">
<polygon fill="white" stroke="#666666" points="444,-470 320,-470 320,-438 444,-438 444,-470"/>
<text xml:space="preserve" text-anchor="start" x="328" y="-456.5" font-family="Helvetica,sans-Serif" font-size="10.00">B3YenaGraphicsEngine9</text>
<text xml:space="preserve" text-anchor="middle" x="382" y="-444.5" font-family="Helvetica,sans-Serif" font-size="10.00">::_Face</text>
</a>
</g>
</g>
<!-- Node8&#45;&gt;Node9 -->
<g id="edge8_Node000008_Node000009" class="edge">
<title>Node8&#45;&gt;Node9</title>
<g id="a_edge8_Node000008_Node000009"><a xlink:title=" ">
<path fill="none" stroke="#63b8ff" d="M240.9,-370.24C259.61,-386.62 290.32,-411.86 320,-429 322.17,-430.26 324.42,-431.48 326.72,-432.67"/>
<polygon fill="#63b8ff" stroke="#63b8ff" points="325.11,-435.77 335.63,-436.98 328.16,-429.47 325.11,-435.77"/>
</a>
</g>
</g>
<!-- Node10 -->
<g id="Node000010" class="node">
<title>Node10</title>
<g id="a_Node000010"><a xlink:href="a00184_add21b57496df3fb1abfc1ef771cee8dd.html#add21b57496df3fb1abfc1ef771cee8dd" target="_top" xlink:title=" ">
<polygon fill="white" stroke="#666666" points="444,-420 320,-420 320,-388 444,-388 444,-420"/>
<text xml:space="preserve" text-anchor="start" x="328" y="-406.5" font-family="Helvetica,sans-Serif" font-size="10.00">B3YenaGraphicsEngine9</text>
<text xml:space="preserve" text-anchor="middle" x="382" y="-394.5" font-family="Helvetica,sans-Serif" font-size="10.00">::_Line</text>
</a>
</g>
</g>
<!-- Node8&#45;&gt;Node10 -->
<g id="edge9_Node000008_Node000010" class="edge">
<title>Node8&#45;&gt;Node10</title>
<g id="a_edge9_Node000008_Node000010"><a xlink:title=" ">
<path fill="none" stroke="#63b8ff" d="M274.74,-370.37C288.58,-374.75 303.69,-379.54 318.06,-384.08"/>
<polygon fill="#63b8ff" stroke="#63b8ff" points="316.85,-387.37 327.44,-387.05 318.96,-380.7 316.85,-387.37"/>
</a>
</g>
</g>
<!-- Node11 -->
<g id="Node000011" class="node">
<title>Node11</title>
<g id="a_Node000011"><a xlink:href="a00184_aaf37ac20943fc1a9048efba6fe8816ad.html#aaf37ac20943fc1a9048efba6fe8816ad" target="_top" xlink:title=" ">
<polygon fill="white" stroke="#666666" points="444,-370 320,-370 320,-338 444,-338 444,-370"/>
<text xml:space="preserve" text-anchor="start" x="328" y="-356.5" font-family="Helvetica,sans-Serif" font-size="10.00">B3YenaGraphicsEngine9</text>
<text xml:space="preserve" text-anchor="middle" x="382" y="-344.5" font-family="Helvetica,sans-Serif" font-size="10.00">::_PixelPipeline1</text>
</a>
</g>
</g>
<!-- Node8&#45;&gt;Node11 -->
<g id="edge10_Node000008_Node000011" class="edge">
<title>Node8&#45;&gt;Node11</title>
<g id="a_edge10_Node000008_Node000011"><a xlink:title=" ">
<path fill="none" stroke="#63b8ff" d="M284.09,-354C292,-354 300.16,-354 308.23,-354"/>
<polygon fill="#63b8ff" stroke="#63b8ff" points="308.04,-357.5 318.04,-354 308.04,-350.5 308.04,-357.5"/>
</a>
</g>
</g>
<!-- Node12 -->
<g id="Node000012" class="node">
<title>Node12</title>
<g id="a_Node000012"><a xlink:href="a00184_a67628bee44574ab6101a56fba79bd053.html#a67628bee44574ab6101a56fba79bd053" target="_top" xlink:title=" ">
<polygon fill="white" stroke="#666666" points="444,-320 320,-320 320,-288 444,-288 444,-320"/>
<text xml:space="preserve" text-anchor="start" x="328" y="-306.5" font-family="Helvetica,sans-Serif" font-size="10.00">B3YenaGraphicsEngine9</text>
<text xml:space="preserve" text-anchor="middle" x="382" y="-294.5" font-family="Helvetica,sans-Serif" font-size="10.00">::_PixelPipeline2</text>
</a>
</g>
</g>
<!-- Node8&#45;&gt;Node12 -->
<g id="edge11_Node000008_Node000012" class="edge">
<title>Node8&#45;&gt;Node12</title>
<g id="a_edge11_Node000008_Node000012"><a xlink:title=" ">
<path fill="none" stroke="#63b8ff" d="M274.74,-337.63C288.58,-333.25 303.69,-328.46 318.06,-323.92"/>
<polygon fill="#63b8ff" stroke="#63b8ff" points="318.96,-327.3 327.44,-320.95 316.85,-320.63 318.96,-327.3"/>
</a>
</g>
</g>
<!-- Node14 -->
<g id="Node000014" class="node">
<title>Node14</title>
<g id="a_Node000014"><a xlink:href="a00184_a1ae30c0d1034885efdb89cceca5ff2f1.html#a1ae30c0d1034885efdb89cceca5ff2f1" target="_top" xlink:title=" ">
<polygon fill="white" stroke="#666666" points="444,-270 320,-270 320,-238 444,-238 444,-270"/>
<text xml:space="preserve" text-anchor="start" x="328" y="-256.5" font-family="Helvetica,sans-Serif" font-size="10.00">B3YenaGraphicsEngine9</text>
<text xml:space="preserve" text-anchor="middle" x="382" y="-244.5" font-family="Helvetica,sans-Serif" font-size="10.00">::_PrimitiveAssembly</text>
</a>
</g>
</g>
<!-- Node13&#45;&gt;Node14 -->
<g id="edge13_Node000013_Node000014" class="edge">
<title>Node13&#45;&gt;Node14</title>
<g id="a_edge13_Node000013_Node000014"><a xlink:title=" ">
<path fill="none" stroke="#63b8ff" d="M284.09,-254C292,-254 300.16,-254 308.23,-254"/>
<polygon fill="#63b8ff" stroke="#63b8ff" points="308.04,-257.5 318.04,-254 308.04,-250.5 308.04,-257.5"/>
</a>
</g>
</g>
<!-- Node15 -->
<g id="Node000015" class="node">
<title>Node15</title>
<g id="a_Node000015"><a xlink:href="a00184_a340a88105c8835a68c96a7c73b4d8a39.html#a340a88105c8835a68c96a7c73b4d8a39" target="_top" xlink:title=" ">
<polygon fill="white" stroke="#666666" points="444,-220 320,-220 320,-188 444,-188 444,-220"/>
<text xml:space="preserve" text-anchor="start" x="328" y="-206.5" font-family="Helvetica,sans-Serif" font-size="10.00">B3YenaGraphicsEngine9</text>
<text xml:space="preserve" text-anchor="middle" x="382" y="-194.5" font-family="Helvetica,sans-Serif" font-size="10.00">::_TnL_VP</text>
</a>
</g>
</g>
<!-- Node13&#45;&gt;Node15 -->
<g id="edge14_Node000013_Node000015" class="edge">
<title>Node13&#45;&gt;Node15</title>
<g id="a_edge14_Node000013_Node000015"><a xlink:title=" ">
<path fill="none" stroke="#63b8ff" d="M274.74,-237.63C288.58,-233.25 303.69,-228.46 318.06,-223.92"/>
<polygon fill="#63b8ff" stroke="#63b8ff" points="318.96,-227.3 327.44,-220.95 316.85,-220.63 318.96,-227.3"/>
</a>
</g>
</g>
<!-- Node16 -->
<g id="Node000016" class="node">
<title>Node16</title>
<g id="a_Node000016"><a xlink:href="a00141_gac92d3779970783c90541ce2d7186f3bf.html#gac92d3779970783c90541ce2d7186f3bf" target="_top" xlink:title=" ">
<polygon fill="white" stroke="#666666" points="595.75,-214 488.25,-214 488.25,-194 595.75,-194 595.75,-214"/>
<text xml:space="preserve" text-anchor="middle" x="542" y="-200.5" font-family="Helvetica,sans-Serif" font-size="10.00">B3YXVec4Transform</text>
</a>
</g>
</g>
<!-- Node15&#45;&gt;Node16 -->
<g id="edge15_Node000015_Node000016" class="edge">
<title>Node15&#45;&gt;Node16</title>
<g id="a_edge15_Node000015_Node000016"><a xlink:title=" ">
<path fill="none" stroke="#63b8ff" d="M444.09,-204C454.67,-204 465.71,-204 476.39,-204"/>
<polygon fill="#63b8ff" stroke="#63b8ff" points="476.28,-207.5 486.28,-204 476.28,-200.5 476.28,-207.5"/>
</a>
</g>
</g>
<!-- Node18 -->
<g id="Node000018" class="node">
<title>Node18</title>
<g id="a_Node000018"><a xlink:href="a00208_a45c22ed1a898dc2477cecafaee7faf1c.html#a45c22ed1a898dc2477cecafaee7faf1c" target="_top" xlink:title=" ">
<polygon fill="white" stroke="#666666" points="436.12,-170 327.88,-170 327.88,-138 436.12,-138 436.12,-170"/>
<text xml:space="preserve" text-anchor="start" x="335.88" y="-156.5" font-family="Helvetica,sans-Serif" font-size="10.00">B3YenaVertexBuffer9</text>
<text xml:space="preserve" text-anchor="middle" x="382" y="-144.5" font-family="Helvetica,sans-Serif" font-size="10.00">::_GetDiffuse</text>
</a>
</g>
</g>
<!-- Node17&#45;&gt;Node18 -->
<g id="edge17_Node000017_Node000018" class="edge">
<title>Node17&#45;&gt;Node18</title>
<g id="a_edge17_Node000017_Node000018"><a xlink:title=" ">
<path fill="none" stroke="#63b8ff" d="M274.74,-120.37C288.58,-124.75 303.69,-129.54 318.06,-134.08"/>
<polygon fill="#63b8ff" stroke="#63b8ff" points="316.85,-137.37 327.44,-137.05 318.96,-130.7 316.85,-137.37"/>
</a>
</g>
</g>
<!-- Node19 -->
<g id="Node000019" class="node">
<title>Node19</title>
<g id="a_Node000019"><a xlink:href="a00208_a44d8e8096b2847c77e3c24e34cd32ae6.html#a44d8e8096b2847c77e3c24e34cd32ae6" target="_top" xlink:title=" ">
<polygon fill="white" stroke="#666666" points="436.12,-120 327.88,-120 327.88,-88 436.12,-88 436.12,-120"/>
<text xml:space="preserve" text-anchor="start" x="335.88" y="-106.5" font-family="Helvetica,sans-Serif" font-size="10.00">B3YenaVertexBuffer9</text>
<text xml:space="preserve" text-anchor="middle" x="382" y="-94.5" font-family="Helvetica,sans-Serif" font-size="10.00">::_GetPos3</text>
</a>
</g>
</g>
<!-- Node17&#45;&gt;Node19 -->
<g id="edge18_Node000017_Node000019" class="edge">
<title>Node17&#45;&gt;Node19</title>
<g id="a_edge18_Node000017_Node000019"><a xlink:title=" ">
<path fill="none" stroke="#63b8ff" d="M284.09,-104C294.61,-104 305.58,-104 316.2,-104"/>
<polygon fill="#63b8ff" stroke="#63b8ff" points="316.03,-107.5 326.02,-104 316.02,-100.5 316.03,-107.5"/>
</a>
</g>
</g>
<!-- Node20 -->
<g id="Node000020" class="node">
<title>Node20</title>
<g id="a_Node000020"><a xlink:href="a00208_a914f867a8cfc0e2574b369384dc1e3ba.html#a914f867a8cfc0e2574b369384dc1e3ba" target="_top" xlink:title=" ">
<polygon fill="white" stroke="#666666" points="436.12,-70 327.88,-70 327.88,-38 436.12,-38 436.12,-70"/>
<text xml:space="preserve" text-anchor="start" x="335.88" y="-56.5" font-family="Helvetica,sans-Serif" font-size="10.00">B3YenaVertexBuffer9</text>
<text xml:space="preserve" text-anchor="middle" x="382" y="-44.5" font-family="Helvetica,sans-Serif" font-size="10.00">::_GetVtxCnt</text>
</a>
</g>
</g>
<!-- Node17&#45;&gt;Node20 -->
<g id="edge19_Node000017_Node000020" class="edge">
<title>Node17&#45;&gt;Node20</title>
<g id="a_edge19_Node000017_Node000020"><a xlink:title=" ">
<path fill="none" stroke="#63b8ff" d="M274.74,-87.63C288.58,-83.25 303.69,-78.46 318.06,-73.92"/>
<polygon fill="#63b8ff" stroke="#63b8ff" points="318.96,-77.3 327.44,-70.95 316.85,-70.63 318.96,-77.3"/>
</a>
</g>
</g>
<!-- Node21 -->
<g id="Node000021" class="node">
<title>Node21</title>
<g id="a_Node000021"><a xlink:href="a00137_gadd774b1d082563a5fac60539282a8c26.html#gadd774b1d082563a5fac60539282a8c26" target="_top" xlink:title=" ">
<polygon fill="white" stroke="#666666" points="430.12,-20 333.88,-20 333.88,0 430.12,0 430.12,-20"/>
<text xml:space="preserve" text-anchor="middle" x="382" y="-6.5" font-family="Helvetica,sans-Serif" font-size="10.00">ynGetClassObject</text>
</a>
</g>
</g>
<!-- Node17&#45;&gt;Node21 -->
<g id="edge20_Node000017_Node000021" class="edge">
<title>Node17&#45;&gt;Node21</title>
<g id="a_edge20_Node000017_Node000021"><a xlink:title=" ">
<path fill="none" stroke="#63b8ff" d="M240.26,-87.53C258.69,-70.73 289.41,-44.93 320,-29 323.05,-27.41 326.26,-25.93 329.53,-24.55"/>
<polygon fill="#63b8ff" stroke="#63b8ff" points="330.65,-27.87 338.74,-21.04 328.15,-21.33 330.65,-27.87"/>
</a>
</g>
</g>
</g>
</svg>

<g id="navigator" transform="translate(0 0)" fill="#404254">
  <rect fill="#f2f5e9" fill-opacity="0.5" stroke="#606060" stroke-width=".5" x="0" y="0" width="60" height="60"/>
  <use id="zoomplus" xlink:href="#zoomPlus" x="17" y="9" onmousedown="handleZoom(evt,'in')"/>
  <use id="zoomminus" xlink:href="#zoomMin" x="42" y="9" onmousedown="handleZoom(evt,'out')"/>
  <use id="reset" xlink:href="#resetDef" x="30" y="36" onmousedown="handleReset()"/>
   <use id="arrowup" xlink:href="#arrowUp" x="0" y="0" onmousedown="handlePan(0,-1)"/>
  <use id="arrowright" xlink:href="#arrowRight" x="0" y="0" onmousedown="handlePan(1,0)"/>
  <use id="arrowdown" xlink:href="#arrowDown" x="0" y="0" onmousedown="handlePan(0,1)"/>
  <use id="arrowleft" xlink:href="#arrowLeft" x="0" y="0" onmousedown="handlePan(-1,0)"/>
</g>
<svg viewBox="0 0 15 15" width="100%" height="30px" preserveAspectRatio="xMaxYMin meet">
 <g id="arrow_out" transform="scale(0.3 0.3)">
  <a xlink:href="a00184_a9124b197c0763305a85b3d27dc71ac87_a9124b197c0763305a85b3d27dc71ac87_cgraph_org.svg" target="_base">
   <rect id="button" ry="5" rx="5" y="6" x="6" height="38" width="38"
        fill="#f2f5e9" fill-opacity="0.5" stroke="#606060" stroke-width="1.0"/>
   <path id="arrow"
     d="M 11.500037,31.436501 C 11.940474,20.09759 22.043105,11.32322 32.158766,21.979434 L 37.068811,17.246167 C 37.068811,17.246167 37.088388,32 37.088388,32 L 22.160133,31.978069 C 22.160133,31.978069 26.997745,27.140456 26.997745,27.140456 C 18.528582,18.264221 13.291696,25.230495 11.500037,31.436501 z"
     style="fill:#404040;"/>
  </a>
 </g>
</svg>

<style type='text/css'>
<![CDATA[
[data-mouse-over-selected='false'] { opacity: 0.7; }
[data-mouse-over-selected='true']  { opacity: 1.0; }
]]>
</style>
<script type="application/ecmascript"><![CDATA[
document.addEventListener('DOMContentLoaded', (event) => {
  highlightEdges();
  highlightAdjacentNodes();
});
]]></script>
</svg>
