<?xml version="1.0" encoding="UTF-8" standalone="no"?>
<!DOCTYPE svg PUBLIC "-//W3C//DTD SVG 1.1//EN"
 "http://www.w3.org/Graphics/SVG/1.1/DTD/svg11.dtd">
<!-- Generated by graphviz version 13.1.2 (20250808.2320)
 -->
<!-- Title: Yena/ynGrid.h Pages: 1 -->
<!--zoomable 308 -->

<svg id="main" version="1.1" xmlns="http://www.w3.org/2000/svg" xmlns:xlink="http://www.w3.org/1999/xlink" xml:space="preserve" onload="init(evt)">

<style type="text/css"><![CDATA[
.node, .edge {opacity: 0.7;}
.node.selected, .edge.selected {opacity: 1;}
.edge:hover path { stroke: red; }
.edge:hover polygon { stroke: red; fill: red; }
]]></style>

<defs>
  <circle id="rim" cx="0" cy="0" r="7"/>
  <circle id="rim2" cx="0" cy="0" r="3.5"/>
  <g id="zoomPlus">
    <use xlink:href="#rim" fill="#404040"><set attributeName="fill" to="#808080" begin="zoomplus.mouseover" end="zoomplus.mouseout"/></use>
    <path d="M-4,0h8M0,-4v8" fill="none" stroke="white" stroke-width="1.5" pointer-events="none"/>
  </g>
  <g id="zoomMin">
    <use xlink:href="#rim" fill="#404040"><set attributeName="fill" to="#808080" begin="zoomminus.mouseover" end="zoomminus.mouseout"/></use>
    <path d="M-4,0h8" fill="none" stroke="white" stroke-width="1.5" pointer-events="none"/>
  </g>
  <g id="arrowUp" transform="translate(30 24)">
    <use xlink:href="#rim"/>
    <path pointer-events="none" fill="none" stroke="white" stroke-width="1.5" d="M0,-3.0v7 M-2.5,-0.5L0,-3.0L2.5,-0.5"/>
  </g>
  <g id="arrowRight" transform="rotate(90) translate(36 -43)">
    <use xlink:href="#rim"/>
    <path pointer-events="none" fill="none" stroke="white" stroke-width="1.5" d="M0,-3.0v7 M-2.5,-0.5L0,-3.0L2.5,-0.5"/>
  </g>
  <g id="arrowDown" transform="rotate(180) translate(-30 -48)">
    <use xlink:href="#rim"/>
    <path pointer-events="none" fill="none" stroke="white" stroke-width="1.5" d="M0,-3.0v7 M-2.5,-0.5L0,-3.0L2.5,-0.5"/>
  </g>
  <g id="arrowLeft" transform="rotate(270) translate(-36 17)">
    <use xlink:href="#rim"/>
    <path pointer-events="none" fill="none" stroke="white" stroke-width="1.5" d="M0,-3.0v7 M-2.5,-0.5L0,-3.0L2.5,-0.5"/>
  </g>
  <g id="resetDef">
    <use xlink:href="#rim2" fill="#404040"><set attributeName="fill" to="#808080" begin="reset.mouseover" end="reset.mouseout"/></use>
  </g>
</defs>
<script type="application/ecmascript">
var viewWidth = 840;
var viewHeight = 308;
var sectionId = 'dynsection-0';
</script>
<script type="application/ecmascript" xlink:href="svg.min.js"/>
<svg id="graph" class="graph">
<g id="viewport">
<title>Yena/ynGrid.h</title>
<!-- Node1 -->
<g id="Node000001" class="node">
<title>Node1</title>
<g id="a_Node000001"><a xlink:title="그리드 클래스 헤더.">
<polygon fill="#999999" stroke="#666666" points="503.38,-300 425.88,-300 425.88,-280 503.38,-280 503.38,-300"/>
<text xml:space="preserve" text-anchor="middle" x="464.62" y="-286.5" font-family="Helvetica,sans-Serif" font-size="10.00">Yena/ynGrid.h</text>
</a>
</g>
</g>
<!-- Node2 -->
<g id="Node000002" class="node">
<title>Node2</title>
<g id="a_Node000002"><a xlink:href="a00068.html" target="_top" xlink:title="Yena SWR 기본 헤더 파일 (v1.x)">
<polygon fill="white" stroke="#666666" points="487.62,-244 441.62,-244 441.62,-224 487.62,-224 487.62,-244"/>
<text xml:space="preserve" text-anchor="middle" x="464.62" y="-230.5" font-family="Helvetica,sans-Serif" font-size="10.00">Yena.h</text>
</a>
</g>
</g>
<!-- Node1&#45;&gt;Node2 -->
<g id="edge1_Node000001_Node000002" class="edge">
<title>Node1&#45;&gt;Node2</title>
<g id="a_edge1_Node000001_Node000002"><a xlink:title=" ">
<path fill="none" stroke="#63b8ff" d="M459.36,-279.59C458.04,-273.01 457.6,-263.96 458.04,-255.73"/>
<polygon fill="#63b8ff" stroke="#63b8ff" points="461.52,-256.14 459.2,-245.8 454.56,-255.33 461.52,-256.14"/>
</a>
</g>
</g>
<!-- Node11 -->
<g id="Node000011" class="node">
<title>Node11</title>
<g id="a_Node000011"><a xlink:title=" ">
<polygon fill="#e0e0e0" stroke="#999999" points="811.25,-20 760,-20 760,0 811.25,0 811.25,-20"/>
<text xml:space="preserve" text-anchor="middle" x="785.62" y="-6.5" font-family="Helvetica,sans-Serif" font-size="10.00">assert.h</text>
</a>
</g>
</g>
<!-- Node1&#45;&gt;Node11 -->
<g id="edge36_Node000001_Node000011" class="edge">
<title>Node1&#45;&gt;Node11</title>
<g id="a_edge36_Node000001_Node000011"><a xlink:title=" ">
<path fill="none" stroke="#63b8ff" d="M503.55,-285.66C598,-276.49 831.62,-246.93 831.62,-179 831.62,-179 831.62,-179 831.62,-121 831.62,-86.82 812.49,-50.98 798.9,-29.83"/>
<polygon fill="#63b8ff" stroke="#63b8ff" points="801.93,-28.06 793.45,-21.71 796.12,-31.96 801.93,-28.06"/>
</a>
</g>
</g>
<!-- Node2&#45;&gt;Node1 -->
<g id="edge32_Node000002_Node000001" class="edge">
<title>Node2&#45;&gt;Node1</title>
<g id="a_edge32_Node000002_Node000001"><a xlink:title=" ">
<path fill="none" stroke="#63b8ff" d="M469.87,-244.3C471.21,-250.93 471.66,-260.11 471.2,-268.43"/>
<polygon fill="#63b8ff" stroke="#63b8ff" points="467.76,-267.75 470.07,-278.09 474.71,-268.57 467.76,-267.75"/>
</a>
</g>
</g>
<!-- Node3 -->
<g id="Node000003" class="node">
<title>Node3</title>
<g id="a_Node000003"><a xlink:title=" ">
<polygon fill="#e0e0e0" stroke="#999999" points="495.88,-20 433.38,-20 433.38,0 495.88,0 495.88,-20"/>
<text xml:space="preserve" text-anchor="middle" x="464.62" y="-6.5" font-family="Helvetica,sans-Serif" font-size="10.00">windows.h</text>
</a>
</g>
</g>
<!-- Node2&#45;&gt;Node3 -->
<g id="edge2_Node000002_Node000003" class="edge">
<title>Node2&#45;&gt;Node3</title>
<g id="a_edge2_Node000002_Node000003"><a xlink:title=" ">
<path fill="none" stroke="#63b8ff" d="M464.62,-223.74C464.62,-190.74 464.62,-78.31 464.62,-31.61"/>
<polygon fill="#63b8ff" stroke="#63b8ff" points="468.13,-31.81 464.63,-21.81 461.13,-31.81 468.13,-31.81"/>
</a>
</g>
</g>
<!-- Node4 -->
<g id="Node000004" class="node">
<title>Node4</title>
<g id="a_Node000004"><a xlink:title=" ">
<polygon fill="#e0e0e0" stroke="#999999" points="334.62,-132 288.62,-132 288.62,-112 334.62,-112 334.62,-132"/>
<text xml:space="preserve" text-anchor="middle" x="311.62" y="-118.5" font-family="Helvetica,sans-Serif" font-size="10.00">tchar.h</text>
</a>
</g>
</g>
<!-- Node2&#45;&gt;Node4 -->
<g id="edge3_Node000002_Node000004" class="edge">
<title>Node2&#45;&gt;Node4</title>
<g id="a_edge3_Node000002_Node000004"><a xlink:title=" ">
<path fill="none" stroke="#63b8ff" d="M449.31,-223.51C435.17,-214.63 413.69,-200.85 395.62,-188 373.39,-172.19 348.8,-152.94 332,-139.51"/>
<polygon fill="#63b8ff" stroke="#63b8ff" points="334.25,-136.83 324.27,-133.29 329.87,-142.29 334.25,-136.83"/>
</a>
</g>
</g>
<!-- Node5 -->
<g id="Node000005" class="node">
<title>Node5</title>
<g id="a_Node000005"><a xlink:title=" ">
<polygon fill="#e0e0e0" stroke="#999999" points="398.62,-132 352.62,-132 352.62,-112 398.62,-112 398.62,-132"/>
<text xml:space="preserve" text-anchor="middle" x="375.62" y="-118.5" font-family="Helvetica,sans-Serif" font-size="10.00">math.h</text>
</a>
</g>
</g>
<!-- Node2&#45;&gt;Node5 -->
<g id="edge4_Node000002_Node000005" class="edge">
<title>Node2&#45;&gt;Node5</title>
<g id="a_edge4_Node000002_Node000005"><a xlink:title=" ">
<path fill="none" stroke="#63b8ff" d="M451.55,-223.7C440.31,-215.26 424.14,-202.03 412.62,-188 401.17,-174.04 391.24,-156.07 384.56,-142.56"/>
<polygon fill="#63b8ff" stroke="#63b8ff" points="387.86,-141.35 380.4,-133.82 381.54,-144.35 387.86,-141.35"/>
</a>
</g>
</g>
<!-- Node6 -->
<g id="Node000006" class="node">
<title>Node6</title>
<g id="a_Node000006"><a xlink:title=" ">
<polygon fill="#e0e0e0" stroke="#999999" points="45.25,-132 0,-132 0,-112 45.25,-112 45.25,-132"/>
<text xml:space="preserve" text-anchor="middle" x="22.62" y="-118.5" font-family="Helvetica,sans-Serif" font-size="10.00">stdio.h</text>
</a>
</g>
</g>
<!-- Node2&#45;&gt;Node6 -->
<g id="edge5_Node000002_Node000006" class="edge">
<title>Node2&#45;&gt;Node6</title>
<g id="a_edge5_Node000002_Node000006"><a xlink:title=" ">
<path fill="none" stroke="#63b8ff" d="M441.55,-231.67C372.55,-227.43 168.75,-213.06 107.62,-188 80.94,-177.06 55.36,-155.48 39.36,-140.19"/>
<polygon fill="#63b8ff" stroke="#63b8ff" points="42.17,-138.05 32.59,-133.52 37.25,-143.03 42.17,-138.05"/>
</a>
</g>
</g>
<!-- Node7 -->
<g id="Node000007" class="node">
<title>Node7</title>
<g id="a_Node000007"><a xlink:title=" ">
<polygon fill="#e0e0e0" stroke="#999999" points="156.62,-188 116.62,-188 116.62,-168 156.62,-168 156.62,-188"/>
<text xml:space="preserve" text-anchor="middle" x="136.62" y="-174.5" font-family="Helvetica,sans-Serif" font-size="10.00">string</text>
</a>
</g>
</g>
<!-- Node2&#45;&gt;Node7 -->
<g id="edge6_Node000002_Node000007" class="edge">
<title>Node2&#45;&gt;Node7</title>
<g id="a_edge6_Node000002_Node000007"><a xlink:title=" ">
<path fill="none" stroke="#63b8ff" d="M441.22,-230.28C391.24,-224.29 270.46,-208.79 170.62,-188 169.8,-187.83 168.96,-187.65 168.11,-187.46"/>
<polygon fill="#63b8ff" stroke="#63b8ff" points="169.05,-184.09 158.51,-185.14 167.41,-190.89 169.05,-184.09"/>
</a>
</g>
</g>
<!-- Node8 -->
<g id="Node000008" class="node">
<title>Node8</title>
<g id="a_Node000008"><a xlink:title=" ">
<polygon fill="#e0e0e0" stroke="#999999" points="106.12,-132 63.12,-132 63.12,-112 106.12,-112 106.12,-132"/>
<text xml:space="preserve" text-anchor="middle" x="84.62" y="-118.5" font-family="Helvetica,sans-Serif" font-size="10.00">vector</text>
</a>
</g>
</g>
<!-- Node2&#45;&gt;Node8 -->
<g id="edge7_Node000002_Node000008" class="edge">
<title>Node2&#45;&gt;Node8</title>
<g id="a_edge7_Node000002_Node000008"><a xlink:title=" ">
<path fill="none" stroke="#63b8ff" d="M441.3,-231.55C394.86,-228.12 288.08,-217.43 203.62,-188 198.74,-186.3 144.44,-156.28 110.9,-137.64"/>
<polygon fill="#63b8ff" stroke="#63b8ff" points="113,-134.8 102.56,-133 109.6,-140.92 113,-134.8"/>
</a>
</g>
</g>
<!-- Node9 -->
<g id="Node000009" class="node">
<title>Node9</title>
<g id="a_Node000009"><a xlink:title=" ">
<polygon fill="#e0e0e0" stroke="#999999" points="270.5,-132 214.75,-132 214.75,-112 270.5,-112 270.5,-132"/>
<text xml:space="preserve" text-anchor="middle" x="242.62" y="-118.5" font-family="Helvetica,sans-Serif" font-size="10.00">algorithm</text>
</a>
</g>
</g>
<!-- Node2&#45;&gt;Node9 -->
<g id="edge8_Node000002_Node000009" class="edge">
<title>Node2&#45;&gt;Node9</title>
<g id="a_edge8_Node000002_Node000009"><a xlink:title=" ">
<path fill="none" stroke="#63b8ff" d="M442.82,-223.54C422.65,-214.67 391.89,-200.9 365.62,-188 332.2,-171.59 294.42,-151.37 269.65,-137.88"/>
<polygon fill="#63b8ff" stroke="#63b8ff" points="271.35,-134.82 260.9,-133.09 268,-140.96 271.35,-134.82"/>
</a>
</g>
</g>
<!-- Node10 -->
<g id="Node000010" class="node">
<title>Node10</title>
<g id="a_Node000010"><a xlink:href="a00092.html" target="_top" xlink:title="Yena SWR 엔진 기본 정의 문서.">
<polygon fill="white" stroke="#666666" points="757.25,-76 694,-76 694,-56 757.25,-56 757.25,-76"/>
<text xml:space="preserve" text-anchor="middle" x="725.62" y="-62.5" font-family="Helvetica,sans-Serif" font-size="10.00">ynDefine.h</text>
</a>
</g>
</g>
<!-- Node2&#45;&gt;Node10 -->
<g id="edge9_Node000002_Node000010" class="edge">
<title>Node2&#45;&gt;Node10</title>
<g id="a_edge9_Node000002_Node000010"><a xlink:title=" ">
<path fill="none" stroke="#63b8ff" d="M488.09,-233.43C530.09,-233.11 619.43,-227.4 680.62,-188 706.56,-171.3 711.14,-161.01 721.62,-132 726.81,-117.66 727.64,-100.38 727.27,-87.25"/>
<polygon fill="#63b8ff" stroke="#63b8ff" points="730.78,-87.45 726.73,-77.67 723.79,-87.85 730.78,-87.45"/>
</a>
</g>
</g>
<!-- Node12 -->
<g id="Node000012" class="node">
<title>Node12</title>
<g id="a_Node000012"><a xlink:href="a00098.html" target="_top" xlink:title="에러, 예외 및 로그 처리 헤더 파일">
<polygon fill="white" stroke="#666666" points="548.5,-188 492.75,-188 492.75,-168 548.5,-168 548.5,-188"/>
<text xml:space="preserve" text-anchor="middle" x="520.62" y="-174.5" font-family="Helvetica,sans-Serif" font-size="10.00">ynError.h</text>
</a>
</g>
</g>
<!-- Node2&#45;&gt;Node12 -->
<g id="edge12_Node000002_Node000012" class="edge">
<title>Node2&#45;&gt;Node12</title>
<g id="a_edge12_Node000002_Node000012"><a xlink:title=" ">
<path fill="none" stroke="#63b8ff" d="M474.38,-223.59C482.25,-216.01 493.52,-205.13 502.97,-196.02"/>
<polygon fill="#63b8ff" stroke="#63b8ff" points="505.12,-198.81 509.89,-189.35 500.26,-193.77 505.12,-198.81"/>
</a>
</g>
</g>
<!-- Node14 -->
<g id="Node000014" class="node">
<title>Node14</title>
<g id="a_Node000014"><a xlink:href="a00110.html" target="_top" xlink:title="Yena SWR COM / GUID 헤더">
<polygon fill="white" stroke="#666666" points="272.75,-188 212.5,-188 212.5,-168 272.75,-168 272.75,-188"/>
<text xml:space="preserve" text-anchor="middle" x="242.62" y="-174.5" font-family="Helvetica,sans-Serif" font-size="10.00">ynGUID.h</text>
</a>
</g>
</g>
<!-- Node2&#45;&gt;Node14 -->
<g id="edge14_Node000002_Node000014" class="edge">
<title>Node2&#45;&gt;Node14</title>
<g id="a_edge14_Node000002_Node000014"><a xlink:title=" ">
<path fill="none" stroke="#63b8ff" d="M441.29,-227.32C404.03,-218.26 330.61,-200.4 284.21,-189.12"/>
<polygon fill="#63b8ff" stroke="#63b8ff" points="285.05,-185.72 274.51,-186.76 283.4,-192.52 285.05,-185.72"/>
</a>
</g>
</g>
<!-- Node16 -->
<g id="Node000016" class="node">
<title>Node16</title>
<g id="a_Node000016"><a xlink:href="a00122.html" target="_top" xlink:title="Yena SWR COM 기반 헤더 (v2.x)">
<polygon fill="white" stroke="#666666" points="436.12,-76 339.12,-76 339.12,-56 436.12,-56 436.12,-76"/>
<text xml:space="preserve" text-anchor="middle" x="387.62" y="-62.5" font-family="Helvetica,sans-Serif" font-size="10.00">ynUnknownbase.h</text>
</a>
</g>
</g>
<!-- Node2&#45;&gt;Node16 -->
<g id="edge22_Node000002_Node000016" class="edge">
<title>Node2&#45;&gt;Node16</title>
<g id="a_edge22_Node000002_Node000016"><a xlink:title=" ">
<path fill="none" stroke="#63b8ff" d="M460.26,-223.6C448.04,-197.23 413.22,-122.19 396.63,-86.42"/>
<polygon fill="#63b8ff" stroke="#63b8ff" points="399.96,-85.27 392.57,-77.67 393.61,-88.21 399.96,-85.27"/>
</a>
</g>
</g>
<!-- Node17 -->
<g id="Node000017" class="node">
<title>Node17</title>
<g id="a_Node000017"><a xlink:href="a00128.html" target="_top" xlink:title="Yena SW 엔진 자료형 정의 : DX9 (d3d9types.h) 대응">
<polygon fill="white" stroke="#666666" points="638.25,-132 569,-132 569,-112 638.25,-112 638.25,-132"/>
<text xml:space="preserve" text-anchor="middle" x="603.62" y="-118.5" font-family="Helvetica,sans-Serif" font-size="10.00">ynx9types.h</text>
</a>
</g>
</g>
<!-- Node2&#45;&gt;Node17 -->
<g id="edge24_Node000002_Node000017" class="edge">
<title>Node2&#45;&gt;Node17</title>
<g id="a_edge24_Node000002_Node000017"><a xlink:title=" ">
<path fill="none" stroke="#63b8ff" d="M487.9,-225.48C507.94,-218.18 536.82,-205.62 557.62,-188 572.92,-175.04 585.65,-155.9 593.81,-141.75"/>
<polygon fill="#63b8ff" stroke="#63b8ff" points="596.65,-143.85 598.4,-133.4 590.51,-140.48 596.65,-143.85"/>
</a>
</g>
</g>
<!-- Node18 -->
<g id="Node000018" class="node">
<title>Node18</title>
<g id="a_Node000018"><a xlink:href="a00125.html" target="_top" xlink:title="Yena SWR 인터페이스 헤더 : DX9 (d3d9.h) 대응">
<polygon fill="white" stroke="#666666" points="650.25,-188 605,-188 605,-168 650.25,-168 650.25,-188"/>
<text xml:space="preserve" text-anchor="middle" x="627.62" y="-174.5" font-family="Helvetica,sans-Serif" font-size="10.00">ynx9.h</text>
</a>
</g>
</g>
<!-- Node2&#45;&gt;Node18 -->
<g id="edge26_Node000002_Node000018" class="edge">
<title>Node2&#45;&gt;Node18</title>
<g id="a_edge26_Node000002_Node000018"><a xlink:title=" ">
<path fill="none" stroke="#63b8ff" d="M487.98,-225.26C515.78,-216.05 562.4,-200.61 594.06,-190.12"/>
<polygon fill="#63b8ff" stroke="#63b8ff" points="594.75,-193.58 603.14,-187.11 592.55,-186.93 594.75,-193.58"/>
</a>
</g>
</g>
<!-- Node19 -->
<g id="Node000019" class="node">
<title>Node19</title>
<g id="a_Node000019"><a xlink:href="a00116.html" target="_top" xlink:title="\u{2b50} Yena 수학 라이브러리 Yena Math Library for DirectX / OpenGL">
<polygon fill="white" stroke="#666666" points="712.88,-132 656.38,-132 656.38,-112 712.88,-112 712.88,-132"/>
<text xml:space="preserve" text-anchor="middle" x="684.62" y="-118.5" font-family="Helvetica,sans-Serif" font-size="10.00">ynMath.h</text>
</a>
</g>
</g>
<!-- Node2&#45;&gt;Node19 -->
<g id="edge31_Node000002_Node000019" class="edge">
<title>Node2&#45;&gt;Node19</title>
<g id="a_edge31_Node000002_Node000019"><a xlink:title=" ">
<path fill="none" stroke="#63b8ff" d="M487.85,-230.38C533.78,-224.77 633.99,-210.27 659.62,-188 672.62,-176.72 678.89,-157.89 681.9,-143.4"/>
<polygon fill="#63b8ff" stroke="#63b8ff" points="685.35,-144 683.54,-133.56 678.44,-142.85 685.35,-144"/>
</a>
</g>
</g>
<!-- Node21 -->
<g id="Node000021" class="node">
<title>Node21</title>
<g id="a_Node000021"><a xlink:href="a00074.html" target="_top" xlink:title="공간축 클래스 헤더.">
<polygon fill="white" stroke="#666666" points="803.75,-188 749.5,-188 749.5,-168 803.75,-168 803.75,-188"/>
<text xml:space="preserve" text-anchor="middle" x="776.62" y="-174.5" font-family="Helvetica,sans-Serif" font-size="10.00">ynAxis.h</text>
</a>
</g>
</g>
<!-- Node2&#45;&gt;Node21 -->
<g id="edge33_Node000002_Node000021" class="edge">
<title>Node2&#45;&gt;Node21</title>
<g id="a_edge33_Node000002_Node000021"><a xlink:title=" ">
<path fill="none" stroke="#63b8ff" d="M487.76,-228.75C533.7,-221.28 638.58,-204.96 726.62,-188 730.31,-187.29 734.18,-186.5 738.08,-185.69"/>
<polygon fill="#63b8ff" stroke="#63b8ff" points="738.45,-189.19 747.53,-183.73 737.03,-182.34 738.45,-189.19"/>
</a>
</g>
</g>
<!-- Node10&#45;&gt;Node3 -->
<g id="edge10_Node000010_Node000003" class="edge">
<title>Node10&#45;&gt;Node3</title>
<g id="a_edge10_Node000010_Node000003"><a xlink:title=" ">
<path fill="none" stroke="#63b8ff" d="M693.76,-57.77C691.01,-57.16 688.27,-56.57 685.62,-56 623.77,-42.75 551.97,-28.3 507.41,-19.44"/>
<polygon fill="#63b8ff" stroke="#63b8ff" points="508.12,-16.01 497.63,-17.5 506.75,-22.88 508.12,-16.01"/>
</a>
</g>
</g>
<!-- Node10&#45;&gt;Node11 -->
<g id="edge11_Node000010_Node000011" class="edge">
<title>Node10&#45;&gt;Node11</title>
<g id="a_edge11_Node000010_Node000011"><a xlink:title=" ">
<path fill="none" stroke="#63b8ff" d="M736.08,-55.59C744.59,-47.93 756.84,-36.91 767.02,-27.75"/>
<polygon fill="#63b8ff" stroke="#63b8ff" points="769.08,-30.6 774.17,-21.31 764.39,-25.4 769.08,-30.6"/>
</a>
</g>
</g>
<!-- Node13 -->
<g id="Node000013" class="node">
<title>Node13</title>
<g id="a_Node000013"><a xlink:title=" ">
<polygon fill="#e0e0e0" stroke="#999999" points="550.62,-132 492.62,-132 492.62,-112 550.62,-112 550.62,-132"/>
<text xml:space="preserve" text-anchor="middle" x="521.62" y="-118.5" font-family="Helvetica,sans-Serif" font-size="10.00">exception</text>
</a>
</g>
</g>
<!-- Node12&#45;&gt;Node13 -->
<g id="edge13_Node000012_Node000013" class="edge">
<title>Node12&#45;&gt;Node13</title>
<g id="a_edge13_Node000012_Node000013"><a xlink:title=" ">
<path fill="none" stroke="#63b8ff" d="M520.8,-167.59C520.92,-161.01 521.09,-151.96 521.24,-143.73"/>
<polygon fill="#63b8ff" stroke="#63b8ff" points="524.74,-143.87 521.42,-133.81 517.74,-143.75 524.74,-143.87"/>
</a>
</g>
</g>
<!-- Node14&#45;&gt;Node3 -->
<g id="edge15_Node000014_Node000003" class="edge">
<title>Node14&#45;&gt;Node3</title>
<g id="a_edge15_Node000014_Node000003"><a xlink:title=" ">
<path fill="none" stroke="#63b8ff" d="M230.4,-167.54C215.35,-154.71 193.2,-131.18 205.62,-112 252.73,-39.28 361.15,-18.88 421.71,-13.19"/>
<polygon fill="#63b8ff" stroke="#63b8ff" points="421.97,-16.68 431.65,-12.36 421.39,-9.7 421.97,-16.68"/>
</a>
</g>
</g>
<!-- Node14&#45;&gt;Node4 -->
<g id="edge16_Node000014_Node000004" class="edge">
<title>Node14&#45;&gt;Node4</title>
<g id="a_edge16_Node000014_Node000004"><a xlink:title=" ">
<path fill="none" stroke="#63b8ff" d="M254.64,-167.59C264.64,-159.77 279.09,-148.46 290.93,-139.19"/>
<polygon fill="#63b8ff" stroke="#63b8ff" points="292.83,-142.15 298.55,-133.23 288.52,-136.64 292.83,-142.15"/>
</a>
</g>
</g>
<!-- Node14&#45;&gt;Node5 -->
<g id="edge17_Node000014_Node000005" class="edge">
<title>Node14&#45;&gt;Node5</title>
<g id="a_edge17_Node000014_Node000005"><a xlink:title=" ">
<path fill="none" stroke="#63b8ff" d="M265.79,-167.59C286.83,-159.05 318.12,-146.35 341.93,-136.68"/>
<polygon fill="#63b8ff" stroke="#63b8ff" points="342.93,-140.05 350.88,-133.05 340.29,-133.57 342.93,-140.05"/>
</a>
</g>
</g>
<!-- Node14&#45;&gt;Node6 -->
<g id="edge18_Node000014_Node000006" class="edge">
<title>Node14&#45;&gt;Node6</title>
<g id="a_edge18_Node000014_Node000006"><a xlink:title=" ">
<path fill="none" stroke="#63b8ff" d="M212.07,-170.21C176.72,-162.25 116.54,-148.37 56.43,-132.66"/>
<polygon fill="#63b8ff" stroke="#63b8ff" points="57.64,-129.36 47.08,-130.19 55.86,-136.13 57.64,-129.36"/>
</a>
</g>
</g>
<!-- Node14&#45;&gt;Node8 -->
<g id="edge19_Node000014_Node000008" class="edge">
<title>Node14&#45;&gt;Node8</title>
<g id="a_edge19_Node000014_Node000008"><a xlink:title=" ">
<path fill="none" stroke="#63b8ff" d="M215.1,-167.59C187.78,-158.26 145.92,-143.95 117.01,-134.07"/>
<polygon fill="#63b8ff" stroke="#63b8ff" points="118.28,-130.8 107.68,-130.88 116.02,-137.43 118.28,-130.8"/>
</a>
</g>
</g>
<!-- Node14&#45;&gt;Node9 -->
<g id="edge21_Node000014_Node000009" class="edge">
<title>Node14&#45;&gt;Node9</title>
<g id="a_edge21_Node000014_Node000009"><a xlink:title=" ">
<path fill="none" stroke="#63b8ff" d="M242.62,-167.59C242.62,-161.01 242.62,-151.96 242.62,-143.73"/>
<polygon fill="#63b8ff" stroke="#63b8ff" points="246.13,-143.81 242.63,-133.81 239.13,-143.81 246.13,-143.81"/>
</a>
</g>
</g>
<!-- Node15 -->
<g id="Node000015" class="node">
<title>Node15</title>
<g id="a_Node000015"><a xlink:title=" ">
<polygon fill="#e0e0e0" stroke="#999999" points="159,-132 124.25,-132 124.25,-112 159,-112 159,-132"/>
<text xml:space="preserve" text-anchor="middle" x="141.62" y="-118.5" font-family="Helvetica,sans-Serif" font-size="10.00">map</text>
</a>
</g>
</g>
<!-- Node14&#45;&gt;Node15 -->
<g id="edge20_Node000014_Node000015" class="edge">
<title>Node14&#45;&gt;Node15</title>
<g id="a_edge20_Node000014_Node000015"><a xlink:title=" ">
<path fill="none" stroke="#63b8ff" d="M225.03,-167.59C209.7,-159.4 187.21,-147.37 169.44,-137.87"/>
<polygon fill="#63b8ff" stroke="#63b8ff" points="171.16,-134.82 160.69,-133.19 167.86,-140.99 171.16,-134.82"/>
</a>
</g>
</g>
<!-- Node16&#45;&gt;Node3 -->
<g id="edge23_Node000016_Node000003" class="edge">
<title>Node16&#45;&gt;Node3</title>
<g id="a_edge23_Node000016_Node000003"><a xlink:title=" ">
<path fill="none" stroke="#63b8ff" d="M401.04,-55.59C412.23,-47.74 428.44,-36.38 441.68,-27.09"/>
<polygon fill="#63b8ff" stroke="#63b8ff" points="443.69,-29.96 449.87,-21.35 439.67,-24.22 443.69,-29.96"/>
</a>
</g>
</g>
<!-- Node17&#45;&gt;Node3 -->
<g id="edge25_Node000017_Node000003" class="edge">
<title>Node17&#45;&gt;Node3</title>
<g id="a_edge25_Node000017_Node000003"><a xlink:title=" ">
<path fill="none" stroke="#63b8ff" d="M591.77,-111.62C568.08,-92.87 514.6,-50.55 485.11,-27.21"/>
<polygon fill="#63b8ff" stroke="#63b8ff" points="487.65,-24.76 477.63,-21.29 483.3,-30.24 487.65,-24.76"/>
</a>
</g>
</g>
<!-- Node18&#45;&gt;Node17 -->
<g id="edge27_Node000018_Node000017" class="edge">
<title>Node18&#45;&gt;Node17</title>
<g id="a_edge27_Node000018_Node000017"><a xlink:title=" ">
<path fill="none" stroke="#63b8ff" d="M623.44,-167.59C620.38,-160.7 616.11,-151.1 612.32,-142.57"/>
<polygon fill="#63b8ff" stroke="#63b8ff" points="615.63,-141.4 608.37,-133.68 609.24,-144.24 615.63,-141.4"/>
</a>
</g>
</g>
<!-- Node18&#45;&gt;Node19 -->
<g id="edge28_Node000018_Node000019" class="edge">
<title>Node18&#45;&gt;Node19</title>
<g id="a_edge28_Node000018_Node000019"><a xlink:title=" ">
<path fill="none" stroke="#63b8ff" d="M637.55,-167.59C645.56,-160.01 657.04,-149.13 666.66,-140.02"/>
<polygon fill="#63b8ff" stroke="#63b8ff" points="668.86,-142.76 673.71,-133.34 664.04,-137.68 668.86,-142.76"/>
</a>
</g>
</g>
<!-- Node19&#45;&gt;Node10 -->
<g id="edge29_Node000019_Node000010" class="edge">
<title>Node19&#45;&gt;Node10</title>
<g id="a_edge29_Node000019_Node000010"><a xlink:title=" ">
<path fill="none" stroke="#63b8ff" d="M691.77,-111.59C697.23,-104.39 704.95,-94.23 711.63,-85.43"/>
<polygon fill="#63b8ff" stroke="#63b8ff" points="714.39,-87.58 717.65,-77.5 708.82,-83.35 714.39,-87.58"/>
</a>
</g>
</g>
<!-- Node20 -->
<g id="Node000020" class="node">
<title>Node20</title>
<g id="a_Node000020"><a xlink:title=" ">
<polygon fill="#e0e0e0" stroke="#999999" points="676.12,-76 597.12,-76 597.12,-56 676.12,-56 676.12,-76"/>
<text xml:space="preserve" text-anchor="middle" x="636.62" y="-62.5" font-family="Helvetica,sans-Serif" font-size="10.00">DirectXmath.h</text>
</a>
</g>
</g>
<!-- Node19&#45;&gt;Node20 -->
<g id="edge30_Node000019_Node000020" class="edge">
<title>Node19&#45;&gt;Node20</title>
<g id="a_edge30_Node000019_Node000020"><a xlink:title=" ">
<path fill="none" stroke="#63b8ff" d="M676.26,-111.59C669.73,-104.24 660.44,-93.8 652.51,-84.87"/>
<polygon fill="#63b8ff" stroke="#63b8ff" points="655.16,-82.58 645.9,-77.43 649.92,-87.23 655.16,-82.58"/>
</a>
</g>
</g>
<!-- Node21&#45;&gt;Node2 -->
<g id="edge34_Node000021_Node000002" class="edge">
<title>Node21&#45;&gt;Node2</title>
<g id="a_edge34_Node000021_Node000002"><a xlink:title=" ">
<path fill="none" stroke="#63b8ff" d="M749.42,-187.05C747.81,-187.38 746.2,-187.7 744.62,-188 656.89,-204.9 552.44,-221.16 499.2,-228.67"/>
<polygon fill="#63b8ff" stroke="#63b8ff" points="498.95,-225.17 489.52,-230.01 499.91,-232.11 498.95,-225.17"/>
</a>
</g>
</g>
<!-- Node21&#45;&gt;Node11 -->
<g id="edge35_Node000021_Node000011" class="edge">
<title>Node21&#45;&gt;Node11</title>
<g id="a_edge35_Node000021_Node000011"><a xlink:title=" ">
<path fill="none" stroke="#63b8ff" d="M777.13,-167.6C778.55,-141.46 782.56,-67.48 784.52,-31.36"/>
<polygon fill="#63b8ff" stroke="#63b8ff" points="787.99,-31.98 785.04,-21.81 781,-31.6 787.99,-31.98"/>
</a>
</g>
</g>
</g>
</svg>

<g id="navigator" transform="translate(0 0)" fill="#404254">
  <rect fill="#f2f5e9" fill-opacity="0.5" stroke="#606060" stroke-width=".5" x="0" y="0" width="60" height="60"/>
  <use id="zoomplus" xlink:href="#zoomPlus" x="17" y="9" onmousedown="handleZoom(evt,'in')"/>
  <use id="zoomminus" xlink:href="#zoomMin" x="42" y="9" onmousedown="handleZoom(evt,'out')"/>
  <use id="reset" xlink:href="#resetDef" x="30" y="36" onmousedown="handleReset()"/>
   <use id="arrowup" xlink:href="#arrowUp" x="0" y="0" onmousedown="handlePan(0,-1)"/>
  <use id="arrowright" xlink:href="#arrowRight" x="0" y="0" onmousedown="handlePan(1,0)"/>
  <use id="arrowdown" xlink:href="#arrowDown" x="0" y="0" onmousedown="handlePan(0,1)"/>
  <use id="arrowleft" xlink:href="#arrowLeft" x="0" y="0" onmousedown="handlePan(-1,0)"/>
</g>
<svg viewBox="0 0 15 15" width="100%" height="30px" preserveAspectRatio="xMaxYMin meet">
 <g id="arrow_out" transform="scale(0.3 0.3)">
  <a xlink:href="a00105_org.svg" target="_base">
   <rect id="button" ry="5" rx="5" y="6" x="6" height="38" width="38"
        fill="#f2f5e9" fill-opacity="0.5" stroke="#606060" stroke-width="1.0"/>
   <path id="arrow"
     d="M 11.500037,31.436501 C 11.940474,20.09759 22.043105,11.32322 32.158766,21.979434 L 37.068811,17.246167 C 37.068811,17.246167 37.088388,32 37.088388,32 L 22.160133,31.978069 C 22.160133,31.978069 26.997745,27.140456 26.997745,27.140456 C 18.528582,18.264221 13.291696,25.230495 11.500037,31.436501 z"
     style="fill:#404040;"/>
  </a>
 </g>
</svg>

<style type='text/css'>
<![CDATA[
[data-mouse-over-selected='false'] { opacity: 0.7; }
[data-mouse-over-selected='true']  { opacity: 1.0; }
]]>
</style>
<script type="application/ecmascript"><![CDATA[
document.addEventListener('DOMContentLoaded', (event) => {
  highlightEdges();
  highlightAdjacentNodes();
});
]]></script>
</svg>
