<?xml version="1.0" encoding="UTF-8" standalone="no"?>
<!DOCTYPE svg PUBLIC "-//W3C//DTD SVG 1.1//EN"
 "http://www.w3.org/Graphics/SVG/1.1/DTD/svg11.dtd">
<!-- Generated by graphviz version 13.1.2 (20250808.2320)
 -->
<!-- Title: B3YenaGraphicsEngine9::B3YenaGraphicsEngine9 Pages: 1 -->
<svg width="458pt" height="78pt"
 viewBox="0.00 0.00 458.00 78.00" xmlns="http://www.w3.org/2000/svg" xmlns:xlink="http://www.w3.org/1999/xlink">
<g id="graph0" class="graph" transform="scale(1 1) rotate(0) translate(4 74)">
<title>B3YenaGraphicsEngine9::B3YenaGraphicsEngine9</title>
<!-- Node1 -->
<g id="Node000001" class="node">
<title>Node1</title>
<g id="a_Node000001"><a xlink:title=" ">
<polygon fill="#999999" stroke="#666666" points="130,-48 0,-48 0,-16 130,-16 130,-48"/>
<text xml:space="preserve" text-anchor="start" x="8" y="-34.5" font-family="Helvetica,sans-Serif" font-size="10.00">B3YenaGraphicsEngine9</text>
<text xml:space="preserve" text-anchor="middle" x="65" y="-22.5" font-family="Helvetica,sans-Serif" font-size="10.00">::B3YenaGraphicsEngine9</text>
</a>
</g>
</g>
<!-- Node2 -->
<g id="Node000002" class="node">
<title>Node2</title>
<g id="a_Node000002"><a xlink:href="a00184_a3cfed60c7f686d4370953cda9b781ac9.html#a3cfed60c7f686d4370953cda9b781ac9" target="_top" xlink:title="렌더링 엔진 리셋.">
<polygon fill="white" stroke="#666666" points="290,-48 166,-48 166,-16 290,-16 290,-48"/>
<text xml:space="preserve" text-anchor="start" x="174" y="-34.5" font-family="Helvetica,sans-Serif" font-size="10.00">B3YenaGraphicsEngine9</text>
<text xml:space="preserve" text-anchor="middle" x="228" y="-22.5" font-family="Helvetica,sans-Serif" font-size="10.00">::Reset</text>
</a>
</g>
</g>
<!-- Node1&#45;&gt;Node2 -->
<g id="edge1_Node000001_Node000002" class="edge">
<title>Node1&#45;&gt;Node2</title>
<g id="a_edge1_Node000001_Node000002"><a xlink:title=" ">
<path fill="none" stroke="#63b8ff" d="M130.09,-32C138.08,-32 146.29,-32 154.4,-32"/>
<polygon fill="#63b8ff" stroke="#63b8ff" points="154.23,-35.5 164.23,-32 154.23,-28.5 154.23,-35.5"/>
</a>
</g>
</g>
<!-- Node3 -->
<g id="Node000003" class="node">
<title>Node3</title>
<g id="a_Node000003"><a xlink:href="a00184_aba0050cb8e2990d7a8b126202a8c7982.html#aba0050cb8e2990d7a8b126202a8c7982" target="_top" xlink:title="렌더링 상태 초기화.">
<polygon fill="white" stroke="#666666" points="450,-70 326,-70 326,-38 450,-38 450,-70"/>
<text xml:space="preserve" text-anchor="start" x="334" y="-56.5" font-family="Helvetica,sans-Serif" font-size="10.00">B3YenaGraphicsEngine9</text>
<text xml:space="preserve" text-anchor="middle" x="388" y="-44.5" font-family="Helvetica,sans-Serif" font-size="10.00">::_InitRenderState</text>
</a>
</g>
</g>
<!-- Node2&#45;&gt;Node3 -->
<g id="edge2_Node000002_Node000003" class="edge">
<title>Node2&#45;&gt;Node3</title>
<g id="a_edge2_Node000002_Node000003"><a xlink:title=" ">
<path fill="none" stroke="#63b8ff" d="M290.09,-40.51C298,-41.61 306.16,-42.74 314.23,-43.87"/>
<polygon fill="#63b8ff" stroke="#63b8ff" points="313.67,-47.32 324.06,-45.24 314.63,-40.39 313.67,-47.32"/>
</a>
</g>
</g>
<!-- Node4 -->
<g id="Node000004" class="node">
<title>Node4</title>
<g id="a_Node000004"><a xlink:href="a00141_ga02a75a42a0bae280a3396ecdb1c124e7.html#ga02a75a42a0bae280a3396ecdb1c124e7" target="_top" xlink:title="행렬 단위화(초기화) 함수">
<polygon fill="white" stroke="#666666" points="438.38,-20 337.62,-20 337.62,0 438.38,0 438.38,-20"/>
<text xml:space="preserve" text-anchor="middle" x="388" y="-6.5" font-family="Helvetica,sans-Serif" font-size="10.00">B3YXMatrixIdentity</text>
</a>
</g>
</g>
<!-- Node2&#45;&gt;Node4 -->
<g id="edge3_Node000002_Node000004" class="edge">
<title>Node2&#45;&gt;Node4</title>
<g id="a_edge3_Node000002_Node000004"><a xlink:title=" ">
<path fill="none" stroke="#63b8ff" d="M290.09,-23.49C301.93,-21.84 314.34,-20.12 326.18,-18.47"/>
<polygon fill="#63b8ff" stroke="#63b8ff" points="326.4,-21.97 335.82,-17.13 325.43,-15.04 326.4,-21.97"/>
</a>
</g>
</g>
</g>
</svg>
