<?xml version="1.0" encoding="UTF-8" standalone="no"?>
<!DOCTYPE svg PUBLIC "-//W3C//DTD SVG 1.1//EN"
 "http://www.w3.org/Graphics/SVG/1.1/DTD/svg11.dtd">
<!-- Generated by graphviz version 13.1.2 (20250808.2320)
 -->
<!-- Title: B3YenaGraphicsEngine9::_Face Pages: 1 -->
<svg width="373pt" height="154pt"
 viewBox="0.00 0.00 373.00 154.00" xmlns="http://www.w3.org/2000/svg" xmlns:xlink="http://www.w3.org/1999/xlink">

<svg id="main" version="1.1" xmlns="http://www.w3.org/2000/svg" xmlns:xlink="http://www.w3.org/1999/xlink" xml:space="preserve">

<style type="text/css"><![CDATA[
.node, .edge {opacity: 0.7;}
.node.selected, .edge.selected {opacity: 1;}
.edge:hover path { stroke: red; }
.edge:hover polygon { stroke: red; fill: red; }
]]></style>
<script type="application/ecmascript" xlink:href="svg.min.js"/>
<svg id="graph" class="graph">
<g id="graph0" class="graph" transform="scale(1 1) rotate(0) translate(4 150)">
<title>B3YenaGraphicsEngine9::_Face</title>
<!-- Node1 -->
<g id="Node000001" class="node">
<title>Node1</title>
<g id="a_Node000001"><a xlink:title=" ">
<polygon fill="#999999" stroke="#666666" points="124,-83 0,-83 0,-51 124,-51 124,-83"/>
<text xml:space="preserve" text-anchor="start" x="8" y="-69.5" font-family="Helvetica,sans-Serif" font-size="10.00">B3YenaGraphicsEngine9</text>
<text xml:space="preserve" text-anchor="middle" x="62" y="-57.5" font-family="Helvetica,sans-Serif" font-size="10.00">::_Face</text>
</a>
</g>
</g>
<!-- Node2 -->
<g id="Node000002" class="node">
<title>Node2</title>
<g id="a_Node000002"><a xlink:href="a00184_a0a5e0617f78fc8258ed3681b40e54d2f.html#a0a5e0617f78fc8258ed3681b40e54d2f" target="_top" xlink:title=" ">
<polygon fill="white" stroke="#666666" points="284,-146 160,-146 160,-114 284,-114 284,-146"/>
<text xml:space="preserve" text-anchor="start" x="168" y="-132.5" font-family="Helvetica,sans-Serif" font-size="10.00">B3YenaGraphicsEngine9</text>
<text xml:space="preserve" text-anchor="middle" x="222" y="-120.5" font-family="Helvetica,sans-Serif" font-size="10.00">::_HLine</text>
</a>
</g>
</g>
<!-- Node1&#45;&gt;Node2 -->
<g id="edge1_Node000001_Node000002" class="edge">
<title>Node1&#45;&gt;Node2</title>
<g id="a_edge1_Node000001_Node000002"><a xlink:title=" ">
<path fill="none" stroke="#63b8ff" d="M104.1,-83.39C124.05,-91.34 148.22,-100.98 169.39,-109.42"/>
<polygon fill="#63b8ff" stroke="#63b8ff" points="167.84,-112.57 178.43,-113.02 170.43,-106.07 167.84,-112.57"/>
</a>
</g>
</g>
<!-- Node3 -->
<g id="Node000003" class="node">
<title>Node3</title>
<g id="a_Node000003"><a xlink:href="a00141_ga692ccf4262a41b1452e10da737cb17a4.html#ga692ccf4262a41b1452e10da737cb17a4" target="_top" xlink:title="선형보간 (Linear Interpolation) 함수">
<polygon fill="white" stroke="#666666" points="365.25,-118 320,-118 320,-98 365.25,-98 365.25,-118"/>
<text xml:space="preserve" text-anchor="middle" x="342.62" y="-104.5" font-family="Helvetica,sans-Serif" font-size="10.00">ynLerp</text>
</a>
</g>
</g>
<!-- Node1&#45;&gt;Node3 -->
<g id="edge4_Node000001_Node000003" class="edge">
<title>Node1&#45;&gt;Node3</title>
<g id="a_edge4_Node000001_Node000003"><a xlink:title=" ">
<path fill="none" stroke="#63b8ff" d="M124.49,-76.05C181.13,-84.38 263.03,-96.44 308.34,-103.1"/>
<polygon fill="#63b8ff" stroke="#63b8ff" points="307.66,-106.54 318.06,-104.53 308.68,-99.61 307.66,-106.54"/>
</a>
</g>
</g>
<!-- Node4 -->
<g id="Node000004" class="node">
<title>Node4</title>
<g id="a_Node000004"><a xlink:href="a00141_gaa053b6d79d980b8b486f18f9fe027106.html#gaa053b6d79d980b8b486f18f9fe027106" target="_top" xlink:title="두 점 사이의 기울기 구하기">
<polygon fill="white" stroke="#666666" points="253.62,-58 190.38,-58 190.38,-38 253.62,-38 253.62,-58"/>
<text xml:space="preserve" text-anchor="middle" x="222" y="-44.5" font-family="Helvetica,sans-Serif" font-size="10.00">ynGradient</text>
</a>
</g>
</g>
<!-- Node1&#45;&gt;Node4 -->
<g id="edge3_Node000001_Node000004" class="edge">
<title>Node1&#45;&gt;Node4</title>
<g id="a_edge3_Node000001_Node000004"><a xlink:title=" ">
<path fill="none" stroke="#63b8ff" d="M124.09,-59.65C142.43,-57.45 162.14,-55.08 178.96,-53.06"/>
<polygon fill="#63b8ff" stroke="#63b8ff" points="179.07,-56.57 188.58,-51.9 178.24,-49.62 179.07,-56.57"/>
</a>
</g>
</g>
<!-- Node5 -->
<g id="Node000005" class="node">
<title>Node5</title>
<g id="a_Node000005"><a xlink:href="a00141_ga289593e948b4328264103fb6fbd3a645.html#ga289593e948b4328264103fb6fbd3a645" target="_top" xlink:title="헬퍼 함수 및 지원 라이브러리 : B3YXVECTOR 클래스 타입으로 갱신.">
<polygon fill="white" stroke="#666666" points="244.25,-20 199.75,-20 199.75,0 244.25,0 244.25,-20"/>
<text xml:space="preserve" text-anchor="middle" x="222" y="-6.5" font-family="Helvetica,sans-Serif" font-size="10.00">ynSort</text>
</a>
</g>
</g>
<!-- Node1&#45;&gt;Node5 -->
<g id="edge5_Node000001_Node000005" class="edge">
<title>Node1&#45;&gt;Node5</title>
<g id="a_edge5_Node000001_Node000005"><a xlink:title=" ">
<path fill="none" stroke="#63b8ff" d="M102.87,-50.64C120.31,-43.68 141.06,-35.65 160,-29 169.23,-25.76 179.33,-22.5 188.62,-19.61"/>
<polygon fill="#63b8ff" stroke="#63b8ff" points="189.44,-23.02 197.97,-16.75 187.39,-16.33 189.44,-23.02"/>
</a>
</g>
</g>
<!-- Node2&#45;&gt;Node3 -->
<g id="edge2_Node000002_Node000003" class="edge">
<title>Node2&#45;&gt;Node3</title>
<g id="a_edge2_Node000002_Node000003"><a xlink:title=" ">
<path fill="none" stroke="#63b8ff" d="M284.4,-118.61C292.71,-117.07 300.96,-115.54 308.51,-114.14"/>
<polygon fill="#63b8ff" stroke="#63b8ff" points="309.01,-117.61 318.21,-112.34 307.74,-110.73 309.01,-117.61"/>
</a>
</g>
</g>
</g>
</svg>
</svg>

<style type='text/css'>
<![CDATA[
[data-mouse-over-selected='false'] { opacity: 0.7; }
[data-mouse-over-selected='true']  { opacity: 1.0; }
]]>
</style>
<script type="application/ecmascript"><![CDATA[
document.addEventListener('DOMContentLoaded', (event) => {
  highlightEdges();
  highlightAdjacentNodes();
});
]]></script>
</svg>
