<?xml version="1.0" encoding="UTF-8" standalone="no"?>
<!DOCTYPE svg PUBLIC "-//W3C//DTD SVG 1.1//EN"
 "http://www.w3.org/Graphics/SVG/1.1/DTD/svg11.dtd">
<!-- Generated by graphviz version 13.1.2 (20250808.2320)
 -->
<!-- Title: B3YenaGraphicsEngine9::_TnL_GP Pages: 1 -->
<svg width="416pt" height="140pt"
 viewBox="0.00 0.00 416.00 140.00" xmlns="http://www.w3.org/2000/svg" xmlns:xlink="http://www.w3.org/1999/xlink">
<g id="graph0" class="graph" transform="scale(1 1) rotate(0) translate(4 136)">
<title>B3YenaGraphicsEngine9::_TnL_GP</title>
<!-- Node1 -->
<g id="Node000001" class="node">
<title>Node1</title>
<g id="a_Node000001"><a xlink:title=" ">
<polygon fill="#999999" stroke="#666666" points="124,-82 0,-82 0,-50 124,-50 124,-82"/>
<text xml:space="preserve" text-anchor="start" x="8" y="-68.5" font-family="Helvetica,sans-Serif" font-size="10.00">B3YenaGraphicsEngine9</text>
<text xml:space="preserve" text-anchor="middle" x="62" y="-56.5" font-family="Helvetica,sans-Serif" font-size="10.00">::_TnL_GP</text>
</a>
</g>
</g>
<!-- Node2 -->
<g id="Node000002" class="node">
<title>Node2</title>
<g id="a_Node000002"><a xlink:href="a00184_a37ad70788b0e06df4015e6d89c15c10d.html#a37ad70788b0e06df4015e6d89c15c10d" target="_top" xlink:title=" ">
<polygon fill="white" stroke="#666666" points="284,-132 160,-132 160,-100 284,-100 284,-132"/>
<text xml:space="preserve" text-anchor="start" x="168" y="-118.5" font-family="Helvetica,sans-Serif" font-size="10.00">B3YenaGraphicsEngine9</text>
<text xml:space="preserve" text-anchor="middle" x="222" y="-106.5" font-family="Helvetica,sans-Serif" font-size="10.00">::_FaceCulling3</text>
</a>
</g>
</g>
<!-- Node1&#45;&gt;Node2 -->
<g id="edge1_Node000001_Node000002" class="edge">
<title>Node1&#45;&gt;Node2</title>
<g id="a_edge1_Node000001_Node000002"><a xlink:title=" ">
<path fill="none" stroke="#63b8ff" d="M114.74,-82.37C128.58,-86.75 143.69,-91.54 158.06,-96.08"/>
<polygon fill="#63b8ff" stroke="#63b8ff" points="156.85,-99.37 167.44,-99.05 158.96,-92.7 156.85,-99.37"/>
</a>
</g>
</g>
<!-- Node4 -->
<g id="Node000004" class="node">
<title>Node4</title>
<g id="a_Node000004"><a xlink:href="a00184_a461629d11d13176b8d3df7dddc8adaa4.html#a461629d11d13176b8d3df7dddc8adaa4" target="_top" xlink:title="동차 나누기( Homogeneous Divide)">
<polygon fill="white" stroke="#666666" points="284,-82 160,-82 160,-50 284,-50 284,-82"/>
<text xml:space="preserve" text-anchor="start" x="168" y="-68.5" font-family="Helvetica,sans-Serif" font-size="10.00">B3YenaGraphicsEngine9</text>
<text xml:space="preserve" text-anchor="middle" x="222" y="-56.5" font-family="Helvetica,sans-Serif" font-size="10.00">::_HomogeneousDivide</text>
</a>
</g>
</g>
<!-- Node1&#45;&gt;Node4 -->
<g id="edge3_Node000001_Node000004" class="edge">
<title>Node1&#45;&gt;Node4</title>
<g id="a_edge3_Node000001_Node000004"><a xlink:title=" ">
<path fill="none" stroke="#63b8ff" d="M124.09,-66C132,-66 140.16,-66 148.23,-66"/>
<polygon fill="#63b8ff" stroke="#63b8ff" points="148.04,-69.5 158.04,-66 148.04,-62.5 148.04,-69.5"/>
</a>
</g>
</g>
<!-- Node5 -->
<g id="Node000005" class="node">
<title>Node5</title>
<g id="a_Node000005"><a xlink:href="a00184_aff6a1a311a64553bdcbec30ff614e685.html#aff6a1a311a64553bdcbec30ff614e685" target="_top" xlink:title="뷰포트 멥핑 (Viewport)">
<polygon fill="white" stroke="#666666" points="284,-32 160,-32 160,0 284,0 284,-32"/>
<text xml:space="preserve" text-anchor="start" x="168" y="-18.5" font-family="Helvetica,sans-Serif" font-size="10.00">B3YenaGraphicsEngine9</text>
<text xml:space="preserve" text-anchor="middle" x="222" y="-6.5" font-family="Helvetica,sans-Serif" font-size="10.00">::_Viewport</text>
</a>
</g>
</g>
<!-- Node1&#45;&gt;Node5 -->
<g id="edge4_Node000001_Node000005" class="edge">
<title>Node1&#45;&gt;Node5</title>
<g id="a_edge4_Node000001_Node000005"><a xlink:title=" ">
<path fill="none" stroke="#63b8ff" d="M114.74,-49.63C128.58,-45.25 143.69,-40.46 158.06,-35.92"/>
<polygon fill="#63b8ff" stroke="#63b8ff" points="158.96,-39.3 167.44,-32.95 156.85,-32.63 158.96,-39.3"/>
</a>
</g>
</g>
<!-- Node3 -->
<g id="Node000003" class="node">
<title>Node3</title>
<g id="a_Node000003"><a xlink:href="a00141_ga89e31da65b4263dc188d888ae164223c.html#ga89e31da65b4263dc188d888ae164223c" target="_top" xlink:title=" ">
<polygon fill="white" stroke="#666666" points="408,-126 320,-126 320,-106 408,-106 408,-126"/>
<text xml:space="preserve" text-anchor="middle" x="364" y="-112.5" font-family="Helvetica,sans-Serif" font-size="10.00">B3YXVec2CCW</text>
</a>
</g>
</g>
<!-- Node2&#45;&gt;Node3 -->
<g id="edge2_Node000002_Node000003" class="edge">
<title>Node2&#45;&gt;Node3</title>
<g id="a_edge2_Node000002_Node000003"><a xlink:title=" ">
<path fill="none" stroke="#63b8ff" d="M284.41,-116C292.4,-116 300.55,-116 308.43,-116"/>
<polygon fill="#63b8ff" stroke="#63b8ff" points="308.2,-119.5 318.2,-116 308.2,-112.5 308.2,-119.5"/>
</a>
</g>
</g>
</g>
</svg>
