<?xml version="1.0" encoding="UTF-8" standalone="no"?>
<!DOCTYPE svg PUBLIC "-//W3C//DTD SVG 1.1//EN"
 "http://www.w3.org/Graphics/SVG/1.1/DTD/svg11.dtd">
<!-- Generated by graphviz version 13.1.2 (20250808.2320)
 -->
<!-- Title: ynLerp Pages: 1 -->
<svg width="693pt" height="274pt"
 viewBox="0.00 0.00 693.00 274.00" xmlns="http://www.w3.org/2000/svg" xmlns:xlink="http://www.w3.org/1999/xlink">
<g id="graph0" class="graph" transform="scale(1 1) rotate(0) translate(4 270.18)">
<title>ynLerp</title>
<!-- Node1 -->
<g id="Node000001" class="node">
<title>Node1</title>
<g id="a_Node000001"><a xlink:title="선형보간 (Linear Interpolation) 함수">
<polygon fill="#999999" stroke="#666666" points="685.25,-140 640,-140 640,-120 685.25,-120 685.25,-140"/>
<text xml:space="preserve" text-anchor="middle" x="662.62" y="-126.5" font-family="Helvetica,sans-Serif" font-size="10.00">ynLerp</text>
</a>
</g>
</g>
<!-- Node2 -->
<g id="Node000002" class="node">
<title>Node2</title>
<g id="a_Node000002"><a xlink:href="a00184_aba9159be985678d17c68343609158f55.html#aba9159be985678d17c68343609158f55" target="_top" xlink:title=" ">
<polygon fill="white" stroke="#666666" points="444,-259 320,-259 320,-227 444,-227 444,-259"/>
<text xml:space="preserve" text-anchor="start" x="328" y="-245.5" font-family="Helvetica,sans-Serif" font-size="10.00">B3YenaGraphicsEngine9</text>
<text xml:space="preserve" text-anchor="middle" x="382" y="-233.5" font-family="Helvetica,sans-Serif" font-size="10.00">::_Face</text>
</a>
</g>
</g>
<!-- Node1&#45;&gt;Node2 -->
<g id="edge1_Node000001_Node000002" class="edge">
<title>Node1&#45;&gt;Node2</title>
<g id="a_edge1_Node000001_Node000002"><a xlink:title=" ">
<path fill="none" stroke="#63b8ff" d="M657.68,-151.42C651.47,-178.22 636.58,-223.04 604,-243 556.4,-272.16 491.51,-268.17 444.37,-259.3"/>
<polygon fill="#63b8ff" stroke="#63b8ff" points="661.1,-152.19 659.71,-141.69 654.24,-150.76 661.1,-152.19"/>
</a>
</g>
</g>
<!-- Node5 -->
<g id="Node000005" class="node">
<title>Node5</title>
<g id="a_Node000005"><a xlink:href="a00184_a0a5e0617f78fc8258ed3681b40e54d2f.html#a0a5e0617f78fc8258ed3681b40e54d2f" target="_top" xlink:title=" ">
<polygon fill="white" stroke="#666666" points="604,-234 480,-234 480,-202 604,-202 604,-234"/>
<text xml:space="preserve" text-anchor="start" x="488" y="-220.5" font-family="Helvetica,sans-Serif" font-size="10.00">B3YenaGraphicsEngine9</text>
<text xml:space="preserve" text-anchor="middle" x="542" y="-208.5" font-family="Helvetica,sans-Serif" font-size="10.00">::_HLine</text>
</a>
</g>
</g>
<!-- Node1&#45;&gt;Node5 -->
<g id="edge4_Node000001_Node000005" class="edge">
<title>Node1&#45;&gt;Node5</title>
<g id="a_edge4_Node000001_Node000005"><a xlink:title=" ">
<path fill="none" stroke="#63b8ff" d="M645.72,-149C634.84,-161.2 619.62,-176.78 604,-188 597,-193.03 589.04,-197.62 581.22,-201.63"/>
<polygon fill="#63b8ff" stroke="#63b8ff" points="648.22,-151.46 652.13,-141.62 642.93,-146.88 648.22,-151.46"/>
</a>
</g>
</g>
<!-- Node6 -->
<g id="Node000006" class="node">
<title>Node6</title>
<g id="a_Node000006"><a xlink:href="a00184_ae6dcfe218b309e6c35e5ebfc8d2d25a7.html#ae6dcfe218b309e6c35e5ebfc8d2d25a7" target="_top" xlink:title="라인 그리기. (ver.User)">
<polygon fill="white" stroke="#666666" points="444,-190 320,-190 320,-158 444,-158 444,-190"/>
<text xml:space="preserve" text-anchor="start" x="328" y="-176.5" font-family="Helvetica,sans-Serif" font-size="10.00">B3YenaGraphicsEngine9</text>
<text xml:space="preserve" text-anchor="middle" x="382" y="-164.5" font-family="Helvetica,sans-Serif" font-size="10.00">::_Line</text>
</a>
</g>
</g>
<!-- Node1&#45;&gt;Node6 -->
<g id="edge7_Node000001_Node000006" class="edge">
<title>Node1&#45;&gt;Node6</title>
<g id="a_edge7_Node000001_Node000006"><a xlink:title=" ">
<path fill="none" stroke="#63b8ff" d="M631.52,-145.24C622.84,-149.03 613.22,-152.67 604,-155 551.17,-168.35 489.22,-172.75 444.38,-174.01"/>
<polygon fill="#63b8ff" stroke="#63b8ff" points="632.93,-148.44 640.54,-141.08 630,-142.09 632.93,-148.44"/>
</a>
</g>
</g>
<!-- Node7 -->
<g id="Node000007" class="node">
<title>Node7</title>
<g id="a_Node000007"><a xlink:href="a00184_a8b141b86844b5613fcae1b934bd049ca.html#a8b141b86844b5613fcae1b934bd049ca" target="_top" xlink:title="수직선 그리기">
<polygon fill="white" stroke="#666666" points="604,-146 480,-146 480,-114 604,-114 604,-146"/>
<text xml:space="preserve" text-anchor="start" x="488" y="-132.5" font-family="Helvetica,sans-Serif" font-size="10.00">B3YenaGraphicsEngine9</text>
<text xml:space="preserve" text-anchor="middle" x="542" y="-120.5" font-family="Helvetica,sans-Serif" font-size="10.00">::_VLine</text>
</a>
</g>
</g>
<!-- Node1&#45;&gt;Node7 -->
<g id="edge8_Node000001_Node000007" class="edge">
<title>Node1&#45;&gt;Node7</title>
<g id="a_edge8_Node000001_Node000007"><a xlink:title=" ">
<path fill="none" stroke="#63b8ff" d="M628.12,-130C620.63,-130 612.47,-130 604.25,-130"/>
<polygon fill="#63b8ff" stroke="#63b8ff" points="628.08,-133.5 638.08,-130 628.08,-126.5 628.08,-133.5"/>
</a>
</g>
</g>
<!-- Node8 -->
<g id="Node000008" class="node">
<title>Node8</title>
<g id="a_Node000008"><a xlink:href="a00141_gab2c73f58aab9838f1c03246a6c3d1055.html#gab2c73f58aab9838f1c03246a6c3d1055" target="_top" xlink:title=" ">
<polygon fill="white" stroke="#666666" points="572.5,-96 511.5,-96 511.5,-76 572.5,-76 572.5,-96"/>
<text xml:space="preserve" text-anchor="middle" x="542" y="-82.5" font-family="Helvetica,sans-Serif" font-size="10.00">ynFaceFill</text>
</a>
</g>
</g>
<!-- Node1&#45;&gt;Node8 -->
<g id="edge10_Node000001_Node000008" class="edge">
<title>Node1&#45;&gt;Node8</title>
<g id="a_edge10_Node000001_Node000008"><a xlink:title=" ">
<path fill="none" stroke="#63b8ff" d="M629.37,-115.28C621.17,-111.74 612.32,-108.09 604,-105 593.91,-101.25 582.71,-97.62 572.69,-94.55"/>
<polygon fill="#63b8ff" stroke="#63b8ff" points="627.74,-118.39 638.3,-119.21 630.56,-111.98 627.74,-118.39"/>
</a>
</g>
</g>
<!-- Node9 -->
<g id="Node000009" class="node">
<title>Node9</title>
<g id="a_Node000009"><a xlink:href="a00141_gab59de7dba0161c2522b91b007c788683.html#gab59de7dba0161c2522b91b007c788683" target="_top" xlink:title=" ">
<polygon fill="white" stroke="#666666" points="568,-58 516,-58 516,-38 568,-38 568,-58"/>
<text xml:space="preserve" text-anchor="middle" x="542" y="-44.5" font-family="Helvetica,sans-Serif" font-size="10.00">ynHLine</text>
</a>
</g>
</g>
<!-- Node1&#45;&gt;Node9 -->
<g id="edge11_Node000001_Node000009" class="edge">
<title>Node1&#45;&gt;Node9</title>
<g id="a_edge11_Node000001_Node000009"><a xlink:title=" ">
<path fill="none" stroke="#63b8ff" d="M648.36,-110.72C637.83,-96.75 621.92,-78.38 604,-67 593.23,-60.16 579.83,-55.63 568.33,-52.72"/>
<polygon fill="#63b8ff" stroke="#63b8ff" points="645.46,-112.68 654.15,-118.73 651.13,-108.58 645.46,-112.68"/>
</a>
</g>
</g>
<!-- Node10 -->
<g id="Node000010" class="node">
<title>Node10</title>
<g id="a_Node000010"><a xlink:href="a00141_ga0b334395c09fbc1b9841abcb1159adc9.html#ga0b334395c09fbc1b9841abcb1159adc9" target="_top" xlink:title=" ">
<polygon fill="white" stroke="#666666" points="564.25,-20 519.75,-20 519.75,0 564.25,0 564.25,-20"/>
<text xml:space="preserve" text-anchor="middle" x="542" y="-6.5" font-family="Helvetica,sans-Serif" font-size="10.00">ynLine</text>
</a>
</g>
</g>
<!-- Node1&#45;&gt;Node10 -->
<g id="edge12_Node000001_Node000010" class="edge">
<title>Node1&#45;&gt;Node10</title>
<g id="a_edge12_Node000001_Node000010"><a xlink:title=" ">
<path fill="none" stroke="#63b8ff" d="M654.96,-109.14C646.6,-86.26 630.13,-50 604,-29 592.76,-19.97 577.21,-15.21 564.62,-12.71"/>
<polygon fill="#63b8ff" stroke="#63b8ff" points="651.55,-109.98 658.1,-118.3 658.17,-107.7 651.55,-109.98"/>
</a>
</g>
</g>
<!-- Node3 -->
<g id="Node000003" class="node">
<title>Node3</title>
<g id="a_Node000003"><a xlink:href="a00184_aeebbaf1081457875a8f5923ba8569424.html#aeebbaf1081457875a8f5923ba8569424" target="_top" xlink:title="픽셀 파이프 라인 연산을 수행.">
<polygon fill="white" stroke="#666666" points="284,-259 160,-259 160,-227 284,-227 284,-259"/>
<text xml:space="preserve" text-anchor="start" x="168" y="-245.5" font-family="Helvetica,sans-Serif" font-size="10.00">B3YenaGraphicsEngine9</text>
<text xml:space="preserve" text-anchor="middle" x="222" y="-233.5" font-family="Helvetica,sans-Serif" font-size="10.00">::_PixelPipeline</text>
</a>
</g>
</g>
<!-- Node2&#45;&gt;Node3 -->
<g id="edge2_Node000002_Node000003" class="edge">
<title>Node2&#45;&gt;Node3</title>
<g id="a_edge2_Node000002_Node000003"><a xlink:title=" ">
<path fill="none" stroke="#63b8ff" d="M308.6,-243C300.53,-243 292.36,-243 284.45,-243"/>
<polygon fill="#63b8ff" stroke="#63b8ff" points="308.4,-246.5 318.4,-243 308.4,-239.5 308.4,-246.5"/>
</a>
</g>
</g>
<!-- Node4 -->
<g id="Node000004" class="node">
<title>Node4</title>
<g id="a_Node000004"><a xlink:href="a00184_a9124b197c0763305a85b3d27dc71ac87.html#a9124b197c0763305a85b3d27dc71ac87" target="_top" xlink:title=" ">
<polygon fill="white" stroke="#666666" points="124,-259 0,-259 0,-227 124,-227 124,-259"/>
<text xml:space="preserve" text-anchor="start" x="8" y="-245.5" font-family="Helvetica,sans-Serif" font-size="10.00">B3YenaGraphicsEngine9</text>
<text xml:space="preserve" text-anchor="middle" x="62" y="-233.5" font-family="Helvetica,sans-Serif" font-size="10.00">::Draw</text>
</a>
</g>
</g>
<!-- Node3&#45;&gt;Node4 -->
<g id="edge3_Node000003_Node000004" class="edge">
<title>Node3&#45;&gt;Node4</title>
<g id="a_edge3_Node000003_Node000004"><a xlink:title=" ">
<path fill="none" stroke="#63b8ff" d="M148.6,-243C140.53,-243 132.36,-243 124.45,-243"/>
<polygon fill="#63b8ff" stroke="#63b8ff" points="148.4,-246.5 158.4,-243 148.4,-239.5 148.4,-246.5"/>
</a>
</g>
</g>
<!-- Node5&#45;&gt;Node2 -->
<g id="edge5_Node000005_Node000002" class="edge">
<title>Node5&#45;&gt;Node2</title>
<g id="a_edge5_Node000005_Node000002"><a xlink:title=" ">
<path fill="none" stroke="#63b8ff" d="M468.6,-229.46C460.53,-230.73 452.36,-232.02 444.45,-233.28"/>
<polygon fill="#63b8ff" stroke="#63b8ff" points="469.09,-232.92 478.42,-227.9 467.99,-226.01 469.09,-232.92"/>
</a>
</g>
</g>
<!-- Node5&#45;&gt;Node6 -->
<g id="edge6_Node000005_Node000006" class="edge">
<title>Node5&#45;&gt;Node6</title>
<g id="a_edge6_Node000005_Node000006"><a xlink:title=" ">
<path fill="none" stroke="#63b8ff" d="M471.3,-198.59C461.57,-195.88 451.65,-193.12 442.15,-190.47"/>
<polygon fill="#63b8ff" stroke="#63b8ff" points="470.14,-201.9 480.71,-201.21 472.01,-195.16 470.14,-201.9"/>
</a>
</g>
</g>
<!-- Node7&#45;&gt;Node6 -->
<g id="edge9_Node000007_Node000006" class="edge">
<title>Node7&#45;&gt;Node6</title>
<g id="a_edge9_Node000007_Node000006"><a xlink:title=" ">
<path fill="none" stroke="#63b8ff" d="M471.3,-149.41C461.57,-152.12 451.65,-154.88 442.15,-157.53"/>
<polygon fill="#63b8ff" stroke="#63b8ff" points="472.01,-152.84 480.71,-146.79 470.14,-146.1 472.01,-152.84"/>
</a>
</g>
</g>
</g>
</svg>
