<?xml version="1.0" encoding="UTF-8" standalone="no"?>
<!DOCTYPE svg PUBLIC "-//W3C//DTD SVG 1.1//EN"
 "http://www.w3.org/Graphics/SVG/1.1/DTD/svg11.dtd">
<!-- Generated by graphviz version 13.1.2 (20250808.2320)
 -->
<!-- Title: Yena/ynMath.cpp Pages: 1 -->
<!--zoomable 308 -->

<svg id="main" version="1.1" xmlns="http://www.w3.org/2000/svg" xmlns:xlink="http://www.w3.org/1999/xlink" xml:space="preserve" onload="init(evt)">

<style type="text/css"><![CDATA[
.node, .edge {opacity: 0.7;}
.node.selected, .edge.selected {opacity: 1;}
.edge:hover path { stroke: red; }
.edge:hover polygon { stroke: red; fill: red; }
]]></style>

<defs>
  <circle id="rim" cx="0" cy="0" r="7"/>
  <circle id="rim2" cx="0" cy="0" r="3.5"/>
  <g id="zoomPlus">
    <use xlink:href="#rim" fill="#404040"><set attributeName="fill" to="#808080" begin="zoomplus.mouseover" end="zoomplus.mouseout"/></use>
    <path d="M-4,0h8M0,-4v8" fill="none" stroke="white" stroke-width="1.5" pointer-events="none"/>
  </g>
  <g id="zoomMin">
    <use xlink:href="#rim" fill="#404040"><set attributeName="fill" to="#808080" begin="zoomminus.mouseover" end="zoomminus.mouseout"/></use>
    <path d="M-4,0h8" fill="none" stroke="white" stroke-width="1.5" pointer-events="none"/>
  </g>
  <g id="arrowUp" transform="translate(30 24)">
    <use xlink:href="#rim"/>
    <path pointer-events="none" fill="none" stroke="white" stroke-width="1.5" d="M0,-3.0v7 M-2.5,-0.5L0,-3.0L2.5,-0.5"/>
  </g>
  <g id="arrowRight" transform="rotate(90) translate(36 -43)">
    <use xlink:href="#rim"/>
    <path pointer-events="none" fill="none" stroke="white" stroke-width="1.5" d="M0,-3.0v7 M-2.5,-0.5L0,-3.0L2.5,-0.5"/>
  </g>
  <g id="arrowDown" transform="rotate(180) translate(-30 -48)">
    <use xlink:href="#rim"/>
    <path pointer-events="none" fill="none" stroke="white" stroke-width="1.5" d="M0,-3.0v7 M-2.5,-0.5L0,-3.0L2.5,-0.5"/>
  </g>
  <g id="arrowLeft" transform="rotate(270) translate(-36 17)">
    <use xlink:href="#rim"/>
    <path pointer-events="none" fill="none" stroke="white" stroke-width="1.5" d="M0,-3.0v7 M-2.5,-0.5L0,-3.0L2.5,-0.5"/>
  </g>
  <g id="resetDef">
    <use xlink:href="#rim2" fill="#404040"><set attributeName="fill" to="#808080" begin="reset.mouseover" end="reset.mouseout"/></use>
  </g>
</defs>
<script type="application/ecmascript">
var viewWidth = 848;
var viewHeight = 308;
var sectionId = 'dynsection-0';
</script>
<script type="application/ecmascript" xlink:href="svg.min.js"/>
<svg id="graph" class="graph">
<g id="viewport">
<title>Yena/ynMath.cpp</title>
<!-- Node1 -->
<g id="Node000001" class="node">
<title>Node1</title>
<g id="a_Node000001"><a xlink:title="\u{2b50} Yena 수학 라이브러리 Yena Math Library for DirectX / OpenGL">
<polygon fill="#999999" stroke="#666666" points="209.36,-300 117.61,-300 117.61,-280 209.36,-280 209.36,-300"/>
<text xml:space="preserve" text-anchor="middle" x="163.49" y="-286.5" font-family="Helvetica,sans-Serif" font-size="10.00">Yena/ynMath.cpp</text>
</a>
</g>
</g>
<!-- Node2 -->
<g id="Node000002" class="node">
<title>Node2</title>
<g id="a_Node000002"><a xlink:href="a00068.html" target="_top" xlink:title="Yena SWR 기본 헤더 파일 (v1.x)">
<polygon fill="white" stroke="#666666" points="365.49,-244 319.49,-244 319.49,-224 365.49,-224 365.49,-244"/>
<text xml:space="preserve" text-anchor="middle" x="342.49" y="-230.5" font-family="Helvetica,sans-Serif" font-size="10.00">Yena.h</text>
</a>
</g>
</g>
<!-- Node1&#45;&gt;Node2 -->
<g id="edge1_Node000001_Node000002" class="edge">
<title>Node1&#45;&gt;Node2</title>
<g id="a_edge1_Node000001_Node000002"><a xlink:title=" ">
<path fill="none" stroke="#63b8ff" d="M194.67,-279.59C226.38,-270.03 275.41,-255.23 308.21,-245.34"/>
<polygon fill="#63b8ff" stroke="#63b8ff" points="309.06,-248.74 317.63,-242.5 307.04,-242.04 309.06,-248.74"/>
</a>
</g>
</g>
<!-- Node19 -->
<g id="Node000019" class="node">
<title>Node19</title>
<g id="a_Node000019"><a xlink:href="a00116.html" target="_top" xlink:title="\u{2b50} Yena 수학 라이브러리 Yena Math Library for DirectX / OpenGL">
<polygon fill="white" stroke="#666666" points="121.74,-132 65.24,-132 65.24,-112 121.74,-112 121.74,-132"/>
<text xml:space="preserve" text-anchor="middle" x="93.49" y="-118.5" font-family="Helvetica,sans-Serif" font-size="10.00">ynMath.h</text>
</a>
</g>
</g>
<!-- Node1&#45;&gt;Node19 -->
<g id="edge38_Node000001_Node000019" class="edge">
<title>Node1&#45;&gt;Node19</title>
<g id="a_edge38_Node000001_Node000019"><a xlink:title=" ">
<path fill="none" stroke="#63b8ff" d="M132.26,-279.61C93.98,-266.23 30.84,-237.62 3.49,-188 -10.64,-162.37 23.66,-144.28 53.9,-133.79"/>
<polygon fill="#63b8ff" stroke="#63b8ff" points="54.89,-137.15 63.33,-130.74 52.73,-130.49 54.89,-137.15"/>
</a>
</g>
</g>
<!-- Node3 -->
<g id="Node000003" class="node">
<title>Node3</title>
<g id="a_Node000003"><a xlink:title=" ">
<polygon fill="#e0e0e0" stroke="#999999" points="588.74,-20 526.24,-20 526.24,0 588.74,0 588.74,-20"/>
<text xml:space="preserve" text-anchor="middle" x="557.49" y="-6.5" font-family="Helvetica,sans-Serif" font-size="10.00">windows.h</text>
</a>
</g>
</g>
<!-- Node2&#45;&gt;Node3 -->
<g id="edge2_Node000002_Node000003" class="edge">
<title>Node2&#45;&gt;Node3</title>
<g id="a_edge2_Node000002_Node000003"><a xlink:title=" ">
<path fill="none" stroke="#63b8ff" d="M365.91,-232.6C458.16,-230.81 792.98,-221.97 824.49,-188 847.46,-163.23 841.51,-141.74 825.49,-112 782.42,-32.05 664.4,-14.77 600.29,-11.43"/>
<polygon fill="#63b8ff" stroke="#63b8ff" points="600.63,-7.94 590.49,-11.02 600.34,-14.94 600.63,-7.94"/>
</a>
</g>
</g>
<!-- Node4 -->
<g id="Node000004" class="node">
<title>Node4</title>
<g id="a_Node000004"><a xlink:title=" ">
<polygon fill="#e0e0e0" stroke="#999999" points="349.49,-132 303.49,-132 303.49,-112 349.49,-112 349.49,-132"/>
<text xml:space="preserve" text-anchor="middle" x="326.49" y="-118.5" font-family="Helvetica,sans-Serif" font-size="10.00">tchar.h</text>
</a>
</g>
</g>
<!-- Node2&#45;&gt;Node4 -->
<g id="edge3_Node000002_Node000004" class="edge">
<title>Node2&#45;&gt;Node4</title>
<g id="a_edge3_Node000002_Node000004"><a xlink:title=" ">
<path fill="none" stroke="#63b8ff" d="M341.12,-223.62C338.56,-206.01 332.97,-167.59 329.49,-143.65"/>
<polygon fill="#63b8ff" stroke="#63b8ff" points="332.97,-143.24 328.07,-133.85 326.04,-144.25 332.97,-143.24"/>
</a>
</g>
</g>
<!-- Node5 -->
<g id="Node000005" class="node">
<title>Node5</title>
<g id="a_Node000005"><a xlink:title=" ">
<polygon fill="#e0e0e0" stroke="#999999" points="413.49,-132 367.49,-132 367.49,-112 413.49,-112 413.49,-132"/>
<text xml:space="preserve" text-anchor="middle" x="390.49" y="-118.5" font-family="Helvetica,sans-Serif" font-size="10.00">math.h</text>
</a>
</g>
</g>
<!-- Node2&#45;&gt;Node5 -->
<g id="edge4_Node000002_Node000005" class="edge">
<title>Node2&#45;&gt;Node5</title>
<g id="a_edge4_Node000002_Node000005"><a xlink:title=" ">
<path fill="none" stroke="#63b8ff" d="M346.58,-223.62C354.37,-205.76 371.49,-166.53 381.9,-142.67"/>
<polygon fill="#63b8ff" stroke="#63b8ff" points="385.01,-144.31 385.8,-133.74 378.59,-141.51 385.01,-144.31"/>
</a>
</g>
</g>
<!-- Node6 -->
<g id="Node000006" class="node">
<title>Node6</title>
<g id="a_Node000006"><a xlink:title=" ">
<polygon fill="#e0e0e0" stroke="#999999" points="477.11,-132 431.86,-132 431.86,-112 477.11,-112 477.11,-132"/>
<text xml:space="preserve" text-anchor="middle" x="454.49" y="-118.5" font-family="Helvetica,sans-Serif" font-size="10.00">stdio.h</text>
</a>
</g>
</g>
<!-- Node2&#45;&gt;Node6 -->
<g id="edge5_Node000002_Node000006" class="edge">
<title>Node2&#45;&gt;Node6</title>
<g id="a_edge5_Node000002_Node000006"><a xlink:title=" ">
<path fill="none" stroke="#63b8ff" d="M352.04,-223.62C370.88,-205.11 413.1,-163.65 437.04,-140.13"/>
<polygon fill="#63b8ff" stroke="#63b8ff" points="439.2,-142.92 443.88,-133.42 434.3,-137.93 439.2,-142.92"/>
</a>
</g>
</g>
<!-- Node7 -->
<g id="Node000007" class="node">
<title>Node7</title>
<g id="a_Node000007"><a xlink:title=" ">
<polygon fill="#e0e0e0" stroke="#999999" points="602.49,-188 562.49,-188 562.49,-168 602.49,-168 602.49,-188"/>
<text xml:space="preserve" text-anchor="middle" x="582.49" y="-174.5" font-family="Helvetica,sans-Serif" font-size="10.00">string</text>
</a>
</g>
</g>
<!-- Node2&#45;&gt;Node7 -->
<g id="edge6_Node000002_Node000007" class="edge">
<title>Node2&#45;&gt;Node7</title>
<g id="a_edge6_Node000002_Node000007"><a xlink:title=" ">
<path fill="none" stroke="#63b8ff" d="M365.73,-228.27C403.97,-220.41 482.48,-203.94 548.49,-188 549.31,-187.8 550.14,-187.6 550.99,-187.39"/>
<polygon fill="#63b8ff" stroke="#63b8ff" points="551.74,-190.81 560.56,-184.95 550.01,-184.03 551.74,-190.81"/>
</a>
</g>
</g>
<!-- Node8 -->
<g id="Node000008" class="node">
<title>Node8</title>
<g id="a_Node000008"><a xlink:title=" ">
<polygon fill="#e0e0e0" stroke="#999999" points="628.99,-132 585.99,-132 585.99,-112 628.99,-112 628.99,-132"/>
<text xml:space="preserve" text-anchor="middle" x="607.49" y="-118.5" font-family="Helvetica,sans-Serif" font-size="10.00">vector</text>
</a>
</g>
</g>
<!-- Node2&#45;&gt;Node8 -->
<g id="edge7_Node000002_Node000008" class="edge">
<title>Node2&#45;&gt;Node8</title>
<g id="a_edge7_Node000002_Node000008"><a xlink:title=" ">
<path fill="none" stroke="#63b8ff" d="M365.78,-229.68C399.88,-224.22 464.82,-211.53 515.49,-188 542.72,-175.35 570.39,-154.49 588.17,-139.82"/>
<polygon fill="#63b8ff" stroke="#63b8ff" points="590.42,-142.5 595.8,-133.37 585.9,-137.15 590.42,-142.5"/>
</a>
</g>
</g>
<!-- Node9 -->
<g id="Node000009" class="node">
<title>Node9</title>
<g id="a_Node000009"><a xlink:title=" ">
<polygon fill="#e0e0e0" stroke="#999999" points="702.36,-132 646.61,-132 646.61,-112 702.36,-112 702.36,-132"/>
<text xml:space="preserve" text-anchor="middle" x="674.49" y="-118.5" font-family="Helvetica,sans-Serif" font-size="10.00">algorithm</text>
</a>
</g>
</g>
<!-- Node2&#45;&gt;Node9 -->
<g id="edge8_Node000002_Node000009" class="edge">
<title>Node2&#45;&gt;Node9</title>
<g id="a_edge8_Node000002_Node000009"><a xlink:title=" ">
<path fill="none" stroke="#63b8ff" d="M365.98,-233.85C414.7,-234.61 529.1,-231.24 611.49,-188 632.49,-176.98 650.63,-156.36 661.98,-141.29"/>
<polygon fill="#63b8ff" stroke="#63b8ff" points="664.53,-143.73 667.53,-133.57 658.85,-139.64 664.53,-143.73"/>
</a>
</g>
</g>
<!-- Node10 -->
<g id="Node000010" class="node">
<title>Node10</title>
<g id="a_Node000010"><a xlink:href="a00092.html" target="_top" xlink:title="Yena SWR 엔진 기본 정의 문서.">
<polygon fill="white" stroke="#666666" points="241.11,-76 177.86,-76 177.86,-56 241.11,-56 241.11,-76"/>
<text xml:space="preserve" text-anchor="middle" x="209.49" y="-62.5" font-family="Helvetica,sans-Serif" font-size="10.00">ynDefine.h</text>
</a>
</g>
</g>
<!-- Node2&#45;&gt;Node10 -->
<g id="edge9_Node000002_Node000010" class="edge">
<title>Node2&#45;&gt;Node10</title>
<g id="a_edge9_Node000002_Node000010"><a xlink:title=" ">
<path fill="none" stroke="#63b8ff" d="M319.38,-230.72C292.07,-226.78 247.13,-216.18 221.49,-188 196.59,-160.64 200.16,-114.03 204.88,-87.36"/>
<polygon fill="#63b8ff" stroke="#63b8ff" points="208.26,-88.31 206.81,-77.82 201.4,-86.93 208.26,-88.31"/>
</a>
</g>
</g>
<!-- Node12 -->
<g id="Node000012" class="node">
<title>Node12</title>
<g id="a_Node000012"><a xlink:href="a00098.html" target="_top" xlink:title="에러, 예외 및 로그 처리 헤더 파일">
<polygon fill="white" stroke="#666666" points="815.36,-188 759.61,-188 759.61,-168 815.36,-168 815.36,-188"/>
<text xml:space="preserve" text-anchor="middle" x="787.49" y="-174.5" font-family="Helvetica,sans-Serif" font-size="10.00">ynError.h</text>
</a>
</g>
</g>
<!-- Node2&#45;&gt;Node12 -->
<g id="edge12_Node000002_Node000012" class="edge">
<title>Node2&#45;&gt;Node12</title>
<g id="a_edge12_Node000002_Node000012"><a xlink:title=" ">
<path fill="none" stroke="#63b8ff" d="M365.7,-231.18C427.54,-226.15 601.29,-210.95 744.49,-188 745.69,-187.81 746.91,-187.6 748.15,-187.39"/>
<polygon fill="#63b8ff" stroke="#63b8ff" points="748.67,-190.85 757.85,-185.57 747.38,-183.97 748.67,-190.85"/>
</a>
</g>
</g>
<!-- Node14 -->
<g id="Node000014" class="node">
<title>Node14</title>
<g id="a_Node000014"><a xlink:href="a00110.html" target="_top" xlink:title="Yena SWR COM / GUID 헤더">
<polygon fill="white" stroke="#666666" points="506.61,-188 446.36,-188 446.36,-168 506.61,-168 506.61,-188"/>
<text xml:space="preserve" text-anchor="middle" x="476.49" y="-174.5" font-family="Helvetica,sans-Serif" font-size="10.00">ynGUID.h</text>
</a>
</g>
</g>
<!-- Node2&#45;&gt;Node14 -->
<g id="edge14_Node000002_Node000014" class="edge">
<title>Node2&#45;&gt;Node14</title>
<g id="a_edge14_Node000002_Node000014"><a xlink:title=" ">
<path fill="none" stroke="#63b8ff" d="M365.83,-223.59C387.03,-215.05 418.55,-202.35 442.54,-192.68"/>
<polygon fill="#63b8ff" stroke="#63b8ff" points="443.59,-196.03 451.56,-189.05 440.98,-189.54 443.59,-196.03"/>
</a>
</g>
</g>
<!-- Node16 -->
<g id="Node000016" class="node">
<title>Node16</title>
<g id="a_Node000016"><a xlink:href="a00122.html" target="_top" xlink:title="Yena SWR COM 기반 헤더 (v2.x)">
<polygon fill="white" stroke="#666666" points="730.99,-76 633.99,-76 633.99,-56 730.99,-56 730.99,-76"/>
<text xml:space="preserve" text-anchor="middle" x="682.49" y="-62.5" font-family="Helvetica,sans-Serif" font-size="10.00">ynUnknownbase.h</text>
</a>
</g>
</g>
<!-- Node2&#45;&gt;Node16 -->
<g id="edge22_Node000002_Node000016" class="edge">
<title>Node2&#45;&gt;Node16</title>
<g id="a_edge22_Node000002_Node000016"><a xlink:title=" ">
<path fill="none" stroke="#63b8ff" d="M365.82,-233.33C417.25,-233.24 543.32,-228.53 638.49,-188 676.11,-171.98 693.4,-168.67 711.49,-132 719.23,-116.3 709.53,-98.08 699.32,-84.93"/>
<polygon fill="#63b8ff" stroke="#63b8ff" points="702.15,-82.87 693.01,-77.51 696.82,-87.4 702.15,-82.87"/>
</a>
</g>
</g>
<!-- Node17 -->
<g id="Node000017" class="node">
<title>Node17</title>
<g id="a_Node000017"><a xlink:href="a00128.html" target="_top" xlink:title="Yena SW 엔진 자료형 정의 : DX9 (d3d9types.h) 대응">
<polygon fill="white" stroke="#666666" points="285.11,-132 215.86,-132 215.86,-112 285.11,-112 285.11,-132"/>
<text xml:space="preserve" text-anchor="middle" x="250.49" y="-118.5" font-family="Helvetica,sans-Serif" font-size="10.00">ynx9types.h</text>
</a>
</g>
</g>
<!-- Node2&#45;&gt;Node17 -->
<g id="edge24_Node000002_Node000017" class="edge">
<title>Node2&#45;&gt;Node17</title>
<g id="a_edge24_Node000002_Node000017"><a xlink:title=" ">
<path fill="none" stroke="#63b8ff" d="M334.64,-223.62C319.37,-205.36 285.39,-164.73 265.6,-141.07"/>
<polygon fill="#63b8ff" stroke="#63b8ff" points="268.38,-138.94 259.28,-133.52 263.01,-143.43 268.38,-138.94"/>
</a>
</g>
</g>
<!-- Node18 -->
<g id="Node000018" class="node">
<title>Node18</title>
<g id="a_Node000018"><a xlink:href="a00125.html" target="_top" xlink:title="Yena SWR 인터페이스 헤더 : DX9 (d3d9.h) 대응">
<polygon fill="white" stroke="#666666" points="276.11,-188 230.86,-188 230.86,-168 276.11,-168 276.11,-188"/>
<text xml:space="preserve" text-anchor="middle" x="253.49" y="-174.5" font-family="Helvetica,sans-Serif" font-size="10.00">ynx9.h</text>
</a>
</g>
</g>
<!-- Node2&#45;&gt;Node18 -->
<g id="edge26_Node000002_Node000018" class="edge">
<title>Node2&#45;&gt;Node18</title>
<g id="a_edge26_Node000002_Node000018"><a xlink:title=" ">
<path fill="none" stroke="#63b8ff" d="M326.98,-223.59C313.67,-215.51 294.21,-203.71 278.66,-194.27"/>
<polygon fill="#63b8ff" stroke="#63b8ff" points="280.77,-191.46 270.4,-189.26 277.14,-197.44 280.77,-191.46"/>
</a>
</g>
</g>
<!-- Node2&#45;&gt;Node19 -->
<g id="edge31_Node000002_Node000019" class="edge">
<title>Node2&#45;&gt;Node19</title>
<g id="a_edge31_Node000002_Node000019"><a xlink:title=" ">
<path fill="none" stroke="#63b8ff" d="M319.12,-231.4C267.04,-227.39 143.67,-215.18 113.49,-188 101,-176.76 96.22,-157.93 94.43,-143.42"/>
<polygon fill="#63b8ff" stroke="#63b8ff" points="97.93,-143.28 93.63,-133.59 90.95,-143.84 97.93,-143.28"/>
</a>
</g>
</g>
<!-- Node21 -->
<g id="Node000021" class="node">
<title>Node21</title>
<g id="a_Node000021"><a xlink:href="a00104.html" target="_top" xlink:title="그리드 클래스 헤더.">
<polygon fill="white" stroke="#666666" points="174.86,-188 122.11,-188 122.11,-168 174.86,-168 174.86,-188"/>
<text xml:space="preserve" text-anchor="middle" x="148.49" y="-174.5" font-family="Helvetica,sans-Serif" font-size="10.00">ynGrid.h</text>
</a>
</g>
</g>
<!-- Node2&#45;&gt;Node21 -->
<g id="edge32_Node000002_Node000021" class="edge">
<title>Node2&#45;&gt;Node21</title>
<g id="a_edge32_Node000002_Node000021"><a xlink:title=" ">
<path fill="none" stroke="#63b8ff" d="M319.32,-227.72C286.27,-219.29 225.68,-202.57 186.18,-191.09"/>
<polygon fill="#63b8ff" stroke="#63b8ff" points="187.18,-187.73 176.6,-188.28 185.21,-194.45 187.18,-187.73"/>
</a>
</g>
</g>
<!-- Node22 -->
<g id="Node000022" class="node">
<title>Node22</title>
<g id="a_Node000022"><a xlink:href="a00074.html" target="_top" xlink:title="공간축 클래스 헤더.">
<polygon fill="white" stroke="#666666" points="66.61,-188 12.36,-188 12.36,-168 66.61,-168 66.61,-188"/>
<text xml:space="preserve" text-anchor="middle" x="39.49" y="-174.5" font-family="Helvetica,sans-Serif" font-size="10.00">ynAxis.h</text>
</a>
</g>
</g>
<!-- Node2&#45;&gt;Node22 -->
<g id="edge35_Node000002_Node000022" class="edge">
<title>Node2&#45;&gt;Node22</title>
<g id="a_edge35_Node000002_Node000022"><a xlink:title=" ">
<path fill="none" stroke="#63b8ff" d="M319.01,-230.08C273.43,-223.57 170.74,-207.11 77.95,-189.23"/>
<polygon fill="#63b8ff" stroke="#63b8ff" points="78.66,-185.8 68.18,-187.33 77.33,-192.67 78.66,-185.8"/>
</a>
</g>
</g>
<!-- Node10&#45;&gt;Node3 -->
<g id="edge10_Node000010_Node000003" class="edge">
<title>Node10&#45;&gt;Node3</title>
<g id="a_edge10_Node000010_Node000003"><a xlink:title=" ">
<path fill="none" stroke="#63b8ff" d="M241.6,-60.02C304.56,-50.25 444.2,-28.58 514.82,-17.62"/>
<polygon fill="#63b8ff" stroke="#63b8ff" points="515.11,-21.12 524.46,-16.13 514.04,-14.2 515.11,-21.12"/>
</a>
</g>
</g>
<!-- Node11 -->
<g id="Node000011" class="node">
<title>Node11</title>
<g id="a_Node000011"><a xlink:title=" ">
<polygon fill="#e0e0e0" stroke="#999999" points="175.11,-20 123.86,-20 123.86,0 175.11,0 175.11,-20"/>
<text xml:space="preserve" text-anchor="middle" x="149.49" y="-6.5" font-family="Helvetica,sans-Serif" font-size="10.00">assert.h</text>
</a>
</g>
</g>
<!-- Node10&#45;&gt;Node11 -->
<g id="edge11_Node000010_Node000011" class="edge">
<title>Node10&#45;&gt;Node11</title>
<g id="a_edge11_Node000010_Node000011"><a xlink:title=" ">
<path fill="none" stroke="#63b8ff" d="M199.04,-55.59C190.52,-47.93 178.28,-36.91 168.09,-27.75"/>
<polygon fill="#63b8ff" stroke="#63b8ff" points="170.72,-25.4 160.94,-21.31 166.03,-30.6 170.72,-25.4"/>
</a>
</g>
</g>
<!-- Node13 -->
<g id="Node000013" class="node">
<title>Node13</title>
<g id="a_Node000013"><a xlink:title=" ">
<polygon fill="#e0e0e0" stroke="#999999" points="816.49,-132 758.49,-132 758.49,-112 816.49,-112 816.49,-132"/>
<text xml:space="preserve" text-anchor="middle" x="787.49" y="-118.5" font-family="Helvetica,sans-Serif" font-size="10.00">exception</text>
</a>
</g>
</g>
<!-- Node12&#45;&gt;Node13 -->
<g id="edge13_Node000012_Node000013" class="edge">
<title>Node12&#45;&gt;Node13</title>
<g id="a_edge13_Node000012_Node000013"><a xlink:title=" ">
<path fill="none" stroke="#63b8ff" d="M787.49,-167.59C787.49,-161.01 787.49,-151.96 787.49,-143.73"/>
<polygon fill="#63b8ff" stroke="#63b8ff" points="790.99,-143.81 787.49,-133.81 783.99,-143.81 790.99,-143.81"/>
</a>
</g>
</g>
<!-- Node14&#45;&gt;Node3 -->
<g id="edge15_Node000014_Node000003" class="edge">
<title>Node14&#45;&gt;Node3</title>
<g id="a_edge15_Node000014_Node000003"><a xlink:title=" ">
<path fill="none" stroke="#63b8ff" d="M496.85,-167.6C510.88,-160.02 528.69,-147.99 538.49,-132 557.58,-100.82 559.59,-56.93 558.86,-31.48"/>
<polygon fill="#63b8ff" stroke="#63b8ff" points="562.37,-31.64 558.4,-21.82 555.38,-31.98 562.37,-31.64"/>
</a>
</g>
</g>
<!-- Node14&#45;&gt;Node4 -->
<g id="edge16_Node000014_Node000004" class="edge">
<title>Node14&#45;&gt;Node4</title>
<g id="a_edge16_Node000014_Node000004"><a xlink:title=" ">
<path fill="none" stroke="#63b8ff" d="M450.36,-167.59C425.42,-158.62 387.72,-145.04 360.46,-135.23"/>
<polygon fill="#63b8ff" stroke="#63b8ff" points="361.87,-132.02 351.28,-131.92 359.5,-138.6 361.87,-132.02"/>
</a>
</g>
</g>
<!-- Node14&#45;&gt;Node5 -->
<g id="edge17_Node000014_Node000005" class="edge">
<title>Node14&#45;&gt;Node5</title>
<g id="a_edge17_Node000014_Node000005"><a xlink:title=" ">
<path fill="none" stroke="#63b8ff" d="M461.51,-167.59C448.76,-159.59 430.19,-147.93 415.24,-138.54"/>
<polygon fill="#63b8ff" stroke="#63b8ff" points="417.2,-135.64 406.87,-133.28 413.47,-141.57 417.2,-135.64"/>
</a>
</g>
</g>
<!-- Node14&#45;&gt;Node6 -->
<g id="edge18_Node000014_Node000006" class="edge">
<title>Node14&#45;&gt;Node6</title>
<g id="a_edge18_Node000014_Node000006"><a xlink:title=" ">
<path fill="none" stroke="#63b8ff" d="M472.65,-167.59C469.88,-160.78 466.02,-151.32 462.58,-142.86"/>
<polygon fill="#63b8ff" stroke="#63b8ff" points="465.86,-141.64 458.85,-133.7 459.38,-144.28 465.86,-141.64"/>
</a>
</g>
</g>
<!-- Node14&#45;&gt;Node8 -->
<g id="edge19_Node000014_Node000008" class="edge">
<title>Node14&#45;&gt;Node8</title>
<g id="a_edge19_Node000014_Node000008"><a xlink:title=" ">
<path fill="none" stroke="#63b8ff" d="M499.31,-167.59C520.32,-158.93 551.7,-145.99 575.27,-136.28"/>
<polygon fill="#63b8ff" stroke="#63b8ff" points="576.49,-139.56 584.4,-132.52 573.82,-133.09 576.49,-139.56"/>
</a>
</g>
</g>
<!-- Node14&#45;&gt;Node9 -->
<g id="edge21_Node000014_Node000009" class="edge">
<title>Node14&#45;&gt;Node9</title>
<g id="a_edge21_Node000014_Node000009"><a xlink:title=" ">
<path fill="none" stroke="#63b8ff" d="M506.99,-168.68C541.4,-159.3 597.46,-144.01 635.14,-133.73"/>
<polygon fill="#63b8ff" stroke="#63b8ff" points="636.01,-137.12 644.74,-131.11 634.17,-130.37 636.01,-137.12"/>
</a>
</g>
</g>
<!-- Node15 -->
<g id="Node000015" class="node">
<title>Node15</title>
<g id="a_Node000015"><a xlink:title=" ">
<polygon fill="#e0e0e0" stroke="#999999" points="529.86,-132 495.11,-132 495.11,-112 529.86,-112 529.86,-132"/>
<text xml:space="preserve" text-anchor="middle" x="512.49" y="-118.5" font-family="Helvetica,sans-Serif" font-size="10.00">map</text>
</a>
</g>
</g>
<!-- Node14&#45;&gt;Node15 -->
<g id="edge20_Node000014_Node000015" class="edge">
<title>Node14&#45;&gt;Node15</title>
<g id="a_edge20_Node000014_Node000015"><a xlink:title=" ">
<path fill="none" stroke="#63b8ff" d="M482.76,-167.59C487.51,-160.47 494.19,-150.45 500.01,-141.72"/>
<polygon fill="#63b8ff" stroke="#63b8ff" points="502.81,-143.82 505.45,-133.56 496.99,-139.94 502.81,-143.82"/>
</a>
</g>
</g>
<!-- Node16&#45;&gt;Node3 -->
<g id="edge23_Node000016_Node000003" class="edge">
<title>Node16&#45;&gt;Node3</title>
<g id="a_edge23_Node000016_Node000003"><a xlink:title=" ">
<path fill="none" stroke="#63b8ff" d="M660.71,-55.59C641.12,-47.13 612.06,-34.58 589.76,-24.94"/>
<polygon fill="#63b8ff" stroke="#63b8ff" points="591.39,-21.83 580.82,-21.08 588.61,-28.26 591.39,-21.83"/>
</a>
</g>
</g>
<!-- Node17&#45;&gt;Node3 -->
<g id="edge25_Node000017_Node000003" class="edge">
<title>Node17&#45;&gt;Node3</title>
<g id="a_edge25_Node000017_Node000003"><a xlink:title=" ">
<path fill="none" stroke="#63b8ff" d="M276.93,-111.53C331.67,-91.91 457.55,-46.81 520.39,-24.29"/>
<polygon fill="#63b8ff" stroke="#63b8ff" points="521.34,-27.67 529.58,-21 518.98,-21.08 521.34,-27.67"/>
</a>
</g>
</g>
<!-- Node18&#45;&gt;Node17 -->
<g id="edge27_Node000018_Node000017" class="edge">
<title>Node18&#45;&gt;Node17</title>
<g id="a_edge27_Node000018_Node000017"><a xlink:title=" ">
<path fill="none" stroke="#63b8ff" d="M252.96,-167.59C252.6,-161.01 252.1,-151.96 251.64,-143.73"/>
<polygon fill="#63b8ff" stroke="#63b8ff" points="255.14,-143.6 251.09,-133.81 248.15,-143.99 255.14,-143.6"/>
</a>
</g>
</g>
<!-- Node18&#45;&gt;Node19 -->
<g id="edge28_Node000018_Node000019" class="edge">
<title>Node18&#45;&gt;Node19</title>
<g id="a_edge28_Node000018_Node000019"><a xlink:title=" ">
<path fill="none" stroke="#63b8ff" d="M230.56,-169.26C204.94,-160.61 163,-146.46 132.26,-136.08"/>
<polygon fill="#63b8ff" stroke="#63b8ff" points="133.51,-132.81 122.92,-132.93 131.27,-139.45 133.51,-132.81"/>
</a>
</g>
</g>
<!-- Node19&#45;&gt;Node10 -->
<g id="edge29_Node000019_Node000010" class="edge">
<title>Node19&#45;&gt;Node10</title>
<g id="a_edge29_Node000019_Node000010"><a xlink:title=" ">
<path fill="none" stroke="#63b8ff" d="M113.69,-111.59C131.71,-103.21 158.35,-90.8 178.97,-81.21"/>
<polygon fill="#63b8ff" stroke="#63b8ff" points="180.16,-84.51 187.75,-77.12 177.21,-78.17 180.16,-84.51"/>
</a>
</g>
</g>
<!-- Node20 -->
<g id="Node000020" class="node">
<title>Node20</title>
<g id="a_Node000020"><a xlink:title=" ">
<polygon fill="#e0e0e0" stroke="#999999" points="120.99,-76 41.99,-76 41.99,-56 120.99,-56 120.99,-76"/>
<text xml:space="preserve" text-anchor="middle" x="81.49" y="-62.5" font-family="Helvetica,sans-Serif" font-size="10.00">DirectXmath.h</text>
</a>
</g>
</g>
<!-- Node19&#45;&gt;Node20 -->
<g id="edge30_Node000019_Node000020" class="edge">
<title>Node19&#45;&gt;Node20</title>
<g id="a_edge30_Node000019_Node000020"><a xlink:title=" ">
<path fill="none" stroke="#63b8ff" d="M91.4,-111.59C89.92,-104.93 87.87,-95.75 86.03,-87.44"/>
<polygon fill="#63b8ff" stroke="#63b8ff" points="89.47,-86.78 83.88,-77.78 82.63,-88.3 89.47,-86.78"/>
</a>
</g>
</g>
<!-- Node21&#45;&gt;Node2 -->
<g id="edge33_Node000021_Node000002" class="edge">
<title>Node21&#45;&gt;Node2</title>
<g id="a_edge33_Node000021_Node000002"><a xlink:title=" ">
<path fill="none" stroke="#63b8ff" d="M175.19,-185.18C209.89,-194.12 270.15,-210.79 308.17,-221.9"/>
<polygon fill="#63b8ff" stroke="#63b8ff" points="307.17,-225.25 317.75,-224.72 309.15,-218.54 307.17,-225.25"/>
</a>
</g>
</g>
<!-- Node21&#45;&gt;Node11 -->
<g id="edge34_Node000021_Node000011" class="edge">
<title>Node21&#45;&gt;Node11</title>
<g id="a_edge34_Node000021_Node000011"><a xlink:title=" ">
<path fill="none" stroke="#63b8ff" d="M148.54,-167.6C148.7,-141.46 149.15,-67.48 149.36,-31.36"/>
<polygon fill="#63b8ff" stroke="#63b8ff" points="152.86,-31.83 149.42,-21.81 145.86,-31.79 152.86,-31.83"/>
</a>
</g>
</g>
<!-- Node22&#45;&gt;Node2 -->
<g id="edge36_Node000022_Node000002" class="edge">
<title>Node22&#45;&gt;Node2</title>
<g id="a_edge36_Node000022_Node000002"><a xlink:title=" ">
<path fill="none" stroke="#63b8ff" d="M67.1,-183.4C74.51,-184.92 82.33,-186.6 89.49,-188 167.53,-203.26 259.2,-218.36 308.06,-226.61"/>
<polygon fill="#63b8ff" stroke="#63b8ff" points="307.3,-230.03 317.75,-228.25 308.47,-223.13 307.3,-230.03"/>
</a>
</g>
</g>
<!-- Node22&#45;&gt;Node11 -->
<g id="edge37_Node000022_Node000011" class="edge">
<title>Node22&#45;&gt;Node11</title>
<g id="a_edge37_Node000022_Node000011"><a xlink:title=" ">
<path fill="none" stroke="#63b8ff" d="M35.47,-167.8C26.69,-146.12 8.42,-91.04 32.49,-56 50.33,-30.02 85.42,-19.03 112.54,-14.39"/>
<polygon fill="#63b8ff" stroke="#63b8ff" points="112.72,-17.9 122.11,-12.98 111.7,-10.98 112.72,-17.9"/>
</a>
</g>
</g>
</g>
</svg>

<g id="navigator" transform="translate(0 0)" fill="#404254">
  <rect fill="#f2f5e9" fill-opacity="0.5" stroke="#606060" stroke-width=".5" x="0" y="0" width="60" height="60"/>
  <use id="zoomplus" xlink:href="#zoomPlus" x="17" y="9" onmousedown="handleZoom(evt,'in')"/>
  <use id="zoomminus" xlink:href="#zoomMin" x="42" y="9" onmousedown="handleZoom(evt,'out')"/>
  <use id="reset" xlink:href="#resetDef" x="30" y="36" onmousedown="handleReset()"/>
   <use id="arrowup" xlink:href="#arrowUp" x="0" y="0" onmousedown="handlePan(0,-1)"/>
  <use id="arrowright" xlink:href="#arrowRight" x="0" y="0" onmousedown="handlePan(1,0)"/>
  <use id="arrowdown" xlink:href="#arrowDown" x="0" y="0" onmousedown="handlePan(0,1)"/>
  <use id="arrowleft" xlink:href="#arrowLeft" x="0" y="0" onmousedown="handlePan(-1,0)"/>
</g>
<svg viewBox="0 0 15 15" width="100%" height="30px" preserveAspectRatio="xMaxYMin meet">
 <g id="arrow_out" transform="scale(0.3 0.3)">
  <a xlink:href="a00114_org.svg" target="_base">
   <rect id="button" ry="5" rx="5" y="6" x="6" height="38" width="38"
        fill="#f2f5e9" fill-opacity="0.5" stroke="#606060" stroke-width="1.0"/>
   <path id="arrow"
     d="M 11.500037,31.436501 C 11.940474,20.09759 22.043105,11.32322 32.158766,21.979434 L 37.068811,17.246167 C 37.068811,17.246167 37.088388,32 37.088388,32 L 22.160133,31.978069 C 22.160133,31.978069 26.997745,27.140456 26.997745,27.140456 C 18.528582,18.264221 13.291696,25.230495 11.500037,31.436501 z"
     style="fill:#404040;"/>
  </a>
 </g>
</svg>

<style type='text/css'>
<![CDATA[
[data-mouse-over-selected='false'] { opacity: 0.7; }
[data-mouse-over-selected='true']  { opacity: 1.0; }
]]>
</style>
<script type="application/ecmascript"><![CDATA[
document.addEventListener('DOMContentLoaded', (event) => {
  highlightEdges();
  highlightAdjacentNodes();
});
]]></script>
</svg>
