<?xml version="1.0" encoding="UTF-8" standalone="no"?>
<!DOCTYPE svg PUBLIC "-//W3C//DTD SVG 1.1//EN"
 "http://www.w3.org/Graphics/SVG/1.1/DTD/svg11.dtd">
<!-- Generated by graphviz version 13.1.2 (20250808.2320)
 -->
<!-- Title: Yena/ynUnknownbase.h Pages: 1 -->
<!--zoomable 196 -->

<svg id="main" version="1.1" xmlns="http://www.w3.org/2000/svg" xmlns:xlink="http://www.w3.org/1999/xlink" xml:space="preserve" onload="init(evt)">

<style type="text/css"><![CDATA[
.node, .edge {opacity: 0.7;}
.node.selected, .edge.selected {opacity: 1;}
.edge:hover path { stroke: red; }
.edge:hover polygon { stroke: red; fill: red; }
]]></style>

<defs>
  <circle id="rim" cx="0" cy="0" r="7"/>
  <circle id="rim2" cx="0" cy="0" r="3.5"/>
  <g id="zoomPlus">
    <use xlink:href="#rim" fill="#404040"><set attributeName="fill" to="#808080" begin="zoomplus.mouseover" end="zoomplus.mouseout"/></use>
    <path d="M-4,0h8M0,-4v8" fill="none" stroke="white" stroke-width="1.5" pointer-events="none"/>
  </g>
  <g id="zoomMin">
    <use xlink:href="#rim" fill="#404040"><set attributeName="fill" to="#808080" begin="zoomminus.mouseover" end="zoomminus.mouseout"/></use>
    <path d="M-4,0h8" fill="none" stroke="white" stroke-width="1.5" pointer-events="none"/>
  </g>
  <g id="arrowUp" transform="translate(30 24)">
    <use xlink:href="#rim"/>
    <path pointer-events="none" fill="none" stroke="white" stroke-width="1.5" d="M0,-3.0v7 M-2.5,-0.5L0,-3.0L2.5,-0.5"/>
  </g>
  <g id="arrowRight" transform="rotate(90) translate(36 -43)">
    <use xlink:href="#rim"/>
    <path pointer-events="none" fill="none" stroke="white" stroke-width="1.5" d="M0,-3.0v7 M-2.5,-0.5L0,-3.0L2.5,-0.5"/>
  </g>
  <g id="arrowDown" transform="rotate(180) translate(-30 -48)">
    <use xlink:href="#rim"/>
    <path pointer-events="none" fill="none" stroke="white" stroke-width="1.5" d="M0,-3.0v7 M-2.5,-0.5L0,-3.0L2.5,-0.5"/>
  </g>
  <g id="arrowLeft" transform="rotate(270) translate(-36 17)">
    <use xlink:href="#rim"/>
    <path pointer-events="none" fill="none" stroke="white" stroke-width="1.5" d="M0,-3.0v7 M-2.5,-0.5L0,-3.0L2.5,-0.5"/>
  </g>
  <g id="resetDef">
    <use xlink:href="#rim2" fill="#404040"><set attributeName="fill" to="#808080" begin="reset.mouseover" end="reset.mouseout"/></use>
  </g>
</defs>
<script type="application/ecmascript">
var viewWidth = 1069;
var viewHeight = 196;
var sectionId = 'dynsection-1';
</script>
<script type="application/ecmascript" xlink:href="svg.min.js"/>
<svg id="graph" class="graph">
<g id="viewport">
<title>Yena/ynUnknownbase.h</title>
<!-- Node1 -->
<g id="Node000001" class="node">
<title>Node1</title>
<g id="a_Node000001"><a xlink:title="Yena SWR COM 기반 헤더 (v2.x)">
<polygon fill="#999999" stroke="#666666" points="627.62,-188 505.88,-188 505.88,-168 627.62,-168 627.62,-188"/>
<text xml:space="preserve" text-anchor="middle" x="566.75" y="-174.5" font-family="Helvetica,sans-Serif" font-size="10.00">Yena/ynUnknownbase.h</text>
</a>
</g>
</g>
<!-- Node2 -->
<g id="Node000002" class="node">
<title>Node2</title>
<g id="a_Node000002"><a xlink:href="a00068.html" target="_top" xlink:title="Yena SWR 기본 헤더 파일 (v1.x)">
<polygon fill="white" stroke="#666666" points="602.12,-132 531.38,-132 531.38,-112 602.12,-112 602.12,-132"/>
<text xml:space="preserve" text-anchor="middle" x="566.75" y="-118.5" font-family="Helvetica,sans-Serif" font-size="10.00">Yena/Yena.h</text>
</a>
</g>
</g>
<!-- Node1&#45;&gt;Node2 -->
<g id="edge1_Node000001_Node000002" class="edge">
<title>Node1&#45;&gt;Node2</title>
<g id="a_edge1_Node000001_Node000002"><a xlink:title=" ">
<path fill="none" stroke="#63b8ff" d="M566.75,-156.13C566.75,-147.9 566.75,-138.85 566.75,-132.3"/>
<polygon fill="#63b8ff" stroke="#63b8ff" points="563.25,-156.08 566.75,-166.08 570.25,-156.08 563.25,-156.08"/>
</a>
</g>
</g>
<!-- Node3 -->
<g id="Node000003" class="node">
<title>Node3</title>
<g id="a_Node000003"><a xlink:href="a00053.html" target="_top" xlink:title="예제 렌더링 장치 운용 헤더">
<polygon fill="white" stroke="#666666" points="180.25,-76 107.25,-76 107.25,-56 180.25,-56 180.25,-76"/>
<text xml:space="preserve" text-anchor="middle" x="143.75" y="-62.5" font-family="Helvetica,sans-Serif" font-size="10.00">Src/Device.h</text>
</a>
</g>
</g>
<!-- Node2&#45;&gt;Node3 -->
<g id="edge2_Node000002_Node000003" class="edge">
<title>Node2&#45;&gt;Node3</title>
<g id="a_edge2_Node000002_Node000003"><a xlink:title=" ">
<path fill="none" stroke="#63b8ff" d="M519.6,-116.59C447.91,-109.62 307.3,-94.88 188.75,-76 186.07,-75.57 183.32,-75.1 180.54,-74.6"/>
<polygon fill="#63b8ff" stroke="#63b8ff" points="519.12,-120.06 529.41,-117.54 519.8,-113.1 519.12,-120.06"/>
</a>
</g>
</g>
<!-- Node7 -->
<g id="Node000007" class="node">
<title>Node7</title>
<g id="a_Node000007"><a xlink:href="a00065.html" target="_top" xlink:title="Yena SWR 기본 소스 파일 (v1.x)">
<polygon fill="white" stroke="#666666" points="279.38,-76 198.12,-76 198.12,-56 279.38,-56 279.38,-76"/>
<text xml:space="preserve" text-anchor="middle" x="238.75" y="-62.5" font-family="Helvetica,sans-Serif" font-size="10.00">Yena/Yena.cpp</text>
</a>
</g>
</g>
<!-- Node2&#45;&gt;Node7 -->
<g id="edge6_Node000002_Node000007" class="edge">
<title>Node2&#45;&gt;Node7</title>
<g id="a_edge6_Node000002_Node000007"><a xlink:title=" ">
<path fill="none" stroke="#63b8ff" d="M520.01,-113.3C455.7,-102.72 340.98,-83.83 279.81,-73.76"/>
<polygon fill="#63b8ff" stroke="#63b8ff" points="519.09,-116.7 529.53,-114.87 520.23,-109.79 519.09,-116.7"/>
</a>
</g>
</g>
<!-- Node8 -->
<g id="Node000008" class="node">
<title>Node8</title>
<g id="a_Node000008"><a xlink:href="a00071.html" target="_top" xlink:title="공간축 클래스 소스 파일.">
<polygon fill="white" stroke="#666666" points="403.5,-20 314,-20 314,0 403.5,0 403.5,-20"/>
<text xml:space="preserve" text-anchor="middle" x="358.75" y="-6.5" font-family="Helvetica,sans-Serif" font-size="10.00">Yena/ynAxis.cpp</text>
</a>
</g>
</g>
<!-- Node2&#45;&gt;Node8 -->
<g id="edge7_Node000002_Node000008" class="edge">
<title>Node2&#45;&gt;Node8</title>
<g id="a_edge7_Node000002_Node000008"><a xlink:title=" ">
<path fill="none" stroke="#63b8ff" d="M520.12,-119.09C457.37,-115.44 350.84,-105.02 326.75,-76 312.29,-58.58 333.99,-33.52 348.14,-20.18"/>
<polygon fill="#63b8ff" stroke="#63b8ff" points="519.61,-122.57 529.78,-119.62 519.99,-115.58 519.61,-122.57"/>
</a>
</g>
</g>
<!-- Node9 -->
<g id="Node000009" class="node">
<title>Node9</title>
<g id="a_Node000009"><a xlink:href="a00074.html" target="_top" xlink:title="공간축 클래스 헤더.">
<polygon fill="white" stroke="#666666" points="415.25,-76 336.25,-76 336.25,-56 415.25,-56 415.25,-76"/>
<text xml:space="preserve" text-anchor="middle" x="375.75" y="-62.5" font-family="Helvetica,sans-Serif" font-size="10.00">Yena/ynAxis.h</text>
</a>
</g>
</g>
<!-- Node2&#45;&gt;Node9 -->
<g id="edge8_Node000002_Node000009" class="edge">
<title>Node2&#45;&gt;Node9</title>
<g id="a_edge8_Node000002_Node000009"><a xlink:title=" ">
<path fill="none" stroke="#63b8ff" d="M520.11,-109.41C483.76,-99.58 434.61,-85.65 403.97,-76.47"/>
<polygon fill="#63b8ff" stroke="#63b8ff" points="518.92,-112.72 529.49,-111.93 520.74,-105.96 518.92,-112.72"/>
</a>
</g>
</g>
<!-- Node10 -->
<g id="Node000010" class="node">
<title>Node10</title>
<g id="a_Node000010"><a xlink:href="a00080.html" target="_top" xlink:title="Yena 그래픽스 엔진 소스 파일">
<polygon fill="white" stroke="#666666" points="554.25,-76 433.25,-76 433.25,-56 554.25,-56 554.25,-76"/>
<text xml:space="preserve" text-anchor="middle" x="493.75" y="-62.5" font-family="Helvetica,sans-Serif" font-size="10.00">Yena/ynB3Graphics.cpp</text>
</a>
</g>
</g>
<!-- Node2&#45;&gt;Node10 -->
<g id="edge11_Node000002_Node000010" class="edge">
<title>Node2&#45;&gt;Node10</title>
<g id="a_edge11_Node000002_Node000010"><a xlink:title=" ">
<path fill="none" stroke="#63b8ff" d="M545.06,-104.95C532.43,-95.61 516.95,-84.16 506.32,-76.3"/>
<polygon fill="#63b8ff" stroke="#63b8ff" points="542.7,-107.56 552.82,-110.69 546.86,-101.93 542.7,-107.56"/>
</a>
</g>
</g>
<!-- Node11 -->
<g id="Node000011" class="node">
<title>Node11</title>
<g id="a_Node000011"><a xlink:href="a00086.html" target="_top" xlink:title="정점 버퍼 운용 클래스 소스">
<polygon fill="white" stroke="#666666" points="707.38,-76 572.12,-76 572.12,-56 707.38,-56 707.38,-76"/>
<text xml:space="preserve" text-anchor="middle" x="639.75" y="-62.5" font-family="Helvetica,sans-Serif" font-size="10.00">Yena/ynB3VertexBuffer.cpp</text>
</a>
</g>
</g>
<!-- Node2&#45;&gt;Node11 -->
<g id="edge12_Node000002_Node000011" class="edge">
<title>Node2&#45;&gt;Node11</title>
<g id="a_edge12_Node000002_Node000011"><a xlink:title=" ">
<path fill="none" stroke="#63b8ff" d="M588.44,-104.95C601.07,-95.61 616.55,-84.16 627.18,-76.3"/>
<polygon fill="#63b8ff" stroke="#63b8ff" points="586.64,-101.93 580.68,-110.69 590.8,-107.56 586.64,-101.93"/>
</a>
</g>
</g>
<!-- Node12 -->
<g id="Node000012" class="node">
<title>Node12</title>
<g id="a_Node000012"><a xlink:href="a00095.html" target="_top" xlink:title="에러, 예외 및 로그 처리 소스 파일">
<polygon fill="white" stroke="#666666" points="816.25,-76 725.25,-76 725.25,-56 816.25,-56 816.25,-76"/>
<text xml:space="preserve" text-anchor="middle" x="770.75" y="-62.5" font-family="Helvetica,sans-Serif" font-size="10.00">Yena/ynError.cpp</text>
</a>
</g>
</g>
<!-- Node2&#45;&gt;Node12 -->
<g id="edge13_Node000002_Node000012" class="edge">
<title>Node2&#45;&gt;Node12</title>
<g id="a_edge13_Node000002_Node000012"><a xlink:title=" ">
<path fill="none" stroke="#63b8ff" d="M613.27,-108.69C650.21,-98.91 701.12,-85.43 734.94,-76.48"/>
<polygon fill="#63b8ff" stroke="#63b8ff" points="612.52,-105.26 603.75,-111.21 614.31,-112.03 612.52,-105.26"/>
</a>
</g>
</g>
<!-- Node13 -->
<g id="Node000013" class="node">
<title>Node13</title>
<g id="a_Node000013"><a xlink:href="a00101.html" target="_top" xlink:title="그리드 클래스 소스 파일.">
<polygon fill="white" stroke="#666666" points="921.75,-20 833.75,-20 833.75,0 921.75,0 921.75,-20"/>
<text xml:space="preserve" text-anchor="middle" x="877.75" y="-6.5" font-family="Helvetica,sans-Serif" font-size="10.00">Yena/ynGrid.cpp</text>
</a>
</g>
</g>
<!-- Node2&#45;&gt;Node13 -->
<g id="edge14_Node000002_Node000013" class="edge">
<title>Node2&#45;&gt;Node13</title>
<g id="a_edge14_Node000002_Node000013"><a xlink:title=" ">
<path fill="none" stroke="#63b8ff" d="M613.66,-116.85C678.27,-110.47 790.64,-96.76 825.75,-76 848.64,-62.46 865.49,-34.81 873.16,-20.32"/>
<polygon fill="#63b8ff" stroke="#63b8ff" points="613.69,-113.33 604.07,-117.78 614.36,-120.3 613.69,-113.33"/>
</a>
</g>
</g>
<!-- Node14 -->
<g id="Node000014" class="node">
<title>Node14</title>
<g id="a_Node000014"><a xlink:href="a00104.html" target="_top" xlink:title="그리드 클래스 헤더.">
<polygon fill="white" stroke="#666666" points="950.5,-76 873,-76 873,-56 950.5,-56 950.5,-76"/>
<text xml:space="preserve" text-anchor="middle" x="911.75" y="-62.5" font-family="Helvetica,sans-Serif" font-size="10.00">Yena/ynGrid.h</text>
</a>
</g>
</g>
<!-- Node2&#45;&gt;Node14 -->
<g id="edge15_Node000002_Node000014" class="edge">
<title>Node2&#45;&gt;Node14</title>
<g id="a_edge15_Node000002_Node000014"><a xlink:title=" ">
<path fill="none" stroke="#63b8ff" d="M613.65,-113C669.86,-104.19 766.55,-89.47 849.75,-76 857.12,-74.81 865.06,-73.48 872.77,-72.22"/>
<polygon fill="#63b8ff" stroke="#63b8ff" points="613.12,-109.54 603.79,-114.56 614.21,-116.46 613.12,-109.54"/>
</a>
</g>
</g>
<!-- Node15 -->
<g id="Node000015" class="node">
<title>Node15</title>
<g id="a_Node000015"><a xlink:href="a00113.html" target="_top" xlink:title="\u{2b50} Yena 수학 라이브러리 Yena Math Library for DirectX / OpenGL">
<polygon fill="white" stroke="#666666" points="1060.62,-76 968.88,-76 968.88,-56 1060.62,-56 1060.62,-76"/>
<text xml:space="preserve" text-anchor="middle" x="1014.75" y="-62.5" font-family="Helvetica,sans-Serif" font-size="10.00">Yena/ynMath.cpp</text>
</a>
</g>
</g>
<!-- Node2&#45;&gt;Node15 -->
<g id="edge18_Node000002_Node000015" class="edge">
<title>Node2&#45;&gt;Node15</title>
<g id="a_edge18_Node000002_Node000015"><a xlink:title=" ">
<path fill="none" stroke="#63b8ff" d="M613.79,-116.35C687.61,-108.9 835.14,-93.32 959.75,-76 962.63,-75.6 965.58,-75.17 968.56,-74.72"/>
<polygon fill="#63b8ff" stroke="#63b8ff" points="613.69,-112.85 604.09,-117.33 614.39,-119.81 613.69,-112.85"/>
</a>
</g>
</g>
<!-- Node4 -->
<g id="Node000004" class="node">
<title>Node4</title>
<g id="a_Node000004"><a xlink:href="a00050.html" target="_top" xlink:title="예제 렌더링 장치 운용 소스.">
<polygon fill="white" stroke="#666666" points="83.5,-20 0,-20 0,0 83.5,0 83.5,-20"/>
<text xml:space="preserve" text-anchor="middle" x="41.75" y="-6.5" font-family="Helvetica,sans-Serif" font-size="10.00">Src/Device.cpp</text>
</a>
</g>
</g>
<!-- Node3&#45;&gt;Node4 -->
<g id="edge3_Node000003_Node000004" class="edge">
<title>Node3&#45;&gt;Node4</title>
<g id="a_edge3_Node000003_Node000004"><a xlink:title=" ">
<path fill="none" stroke="#63b8ff" d="M115.82,-50.21C97.91,-40.73 75.18,-28.7 59.66,-20.48"/>
<polygon fill="#63b8ff" stroke="#63b8ff" points="114.17,-53.3 124.65,-54.89 117.45,-47.11 114.17,-53.3"/>
</a>
</g>
</g>
<!-- Node5 -->
<g id="Node000005" class="node">
<title>Node5</title>
<g id="a_Node000005"><a xlink:href="a00059.html" target="_top" xlink:title="\u{2b50} 예제 기본 렌더링/프레임웍 소스">
<polygon fill="white" stroke="#666666" points="185.88,-20 101.62,-20 101.62,0 185.88,0 185.88,-20"/>
<text xml:space="preserve" text-anchor="middle" x="143.75" y="-6.5" font-family="Helvetica,sans-Serif" font-size="10.00">Src/Render.cpp</text>
</a>
</g>
</g>
<!-- Node3&#45;&gt;Node5 -->
<g id="edge4_Node000003_Node000005" class="edge">
<title>Node3&#45;&gt;Node5</title>
<g id="a_edge4_Node000003_Node000005"><a xlink:title=" ">
<path fill="none" stroke="#63b8ff" d="M143.75,-44.13C143.75,-35.9 143.75,-26.85 143.75,-20.3"/>
<polygon fill="#63b8ff" stroke="#63b8ff" points="140.25,-44.08 143.75,-54.08 147.25,-44.08 140.25,-44.08"/>
</a>
</g>
</g>
<!-- Node6 -->
<g id="Node000006" class="node">
<title>Node6</title>
<g id="a_Node000006"><a xlink:href="a00056.html" target="_top" xlink:title="예제 애플리케이션 메인 / 윈도 프레임워크 소스">
<polygon fill="white" stroke="#666666" points="277.62,-20 203.88,-20 203.88,0 277.62,0 277.62,-20"/>
<text xml:space="preserve" text-anchor="middle" x="240.75" y="-6.5" font-family="Helvetica,sans-Serif" font-size="10.00">Src/main.cpp</text>
</a>
</g>
</g>
<!-- Node3&#45;&gt;Node6 -->
<g id="edge5_Node000003_Node000006" class="edge">
<title>Node3&#45;&gt;Node6</title>
<g id="a_edge5_Node000003_Node000006"><a xlink:title=" ">
<path fill="none" stroke="#63b8ff" d="M170.55,-50.08C187.55,-40.62 209.03,-28.66 223.72,-20.48"/>
<polygon fill="#63b8ff" stroke="#63b8ff" points="169,-46.94 161.97,-54.86 172.41,-53.05 169,-46.94"/>
</a>
</g>
</g>
<!-- Node9&#45;&gt;Node2 -->
<g id="edge9_Node000009_Node000002" class="edge">
<title>Node9&#45;&gt;Node2</title>
<g id="a_edge9_Node000009_Node000002"><a xlink:title=" ">
<path fill="none" stroke="#63b8ff" d="M425.37,-79.39C461.48,-89.19 508.96,-102.67 538.75,-111.59"/>
<polygon fill="#63b8ff" stroke="#63b8ff" points="426.59,-76.1 416.02,-76.87 424.77,-82.86 426.59,-76.1"/>
</a>
</g>
</g>
<!-- Node9&#45;&gt;Node8 -->
<g id="edge10_Node000009_Node000008" class="edge">
<title>Node9&#45;&gt;Node8</title>
<g id="a_edge10_Node000009_Node000008"><a xlink:title=" ">
<path fill="none" stroke="#63b8ff" d="M369.36,-44.71C366.72,-36.32 363.79,-27.01 361.68,-20.3"/>
<polygon fill="#63b8ff" stroke="#63b8ff" points="365.99,-45.66 372.33,-54.15 372.67,-43.56 365.99,-45.66"/>
</a>
</g>
</g>
<!-- Node14&#45;&gt;Node2 -->
<g id="edge16_Node000014_Node000002" class="edge">
<title>Node14&#45;&gt;Node2</title>
<g id="a_edge16_Node000014_Node000002"><a xlink:title=" ">
<path fill="none" stroke="#63b8ff" d="M861.31,-77.03C763.98,-92.71 657,-108.84 602.45,-116.49"/>
<polygon fill="#63b8ff" stroke="#63b8ff" points="861.7,-80.51 871.02,-75.46 860.59,-73.6 861.7,-80.51"/>
</a>
</g>
</g>
<!-- Node14&#45;&gt;Node13 -->
<g id="edge17_Node000014_Node000013" class="edge">
<title>Node14&#45;&gt;Node13</title>
<g id="a_edge17_Node000014_Node000013"><a xlink:title=" ">
<path fill="none" stroke="#63b8ff" d="M899.7,-45.87C894.24,-37.19 888.02,-27.32 883.6,-20.3"/>
<polygon fill="#63b8ff" stroke="#63b8ff" points="896.73,-47.72 905.02,-54.31 902.65,-43.99 896.73,-47.72"/>
</a>
</g>
</g>
</g>
</svg>

<g id="navigator" transform="translate(0 0)" fill="#404254">
  <rect fill="#f2f5e9" fill-opacity="0.5" stroke="#606060" stroke-width=".5" x="0" y="0" width="60" height="60"/>
  <use id="zoomplus" xlink:href="#zoomPlus" x="17" y="9" onmousedown="handleZoom(evt,'in')"/>
  <use id="zoomminus" xlink:href="#zoomMin" x="42" y="9" onmousedown="handleZoom(evt,'out')"/>
  <use id="reset" xlink:href="#resetDef" x="30" y="36" onmousedown="handleReset()"/>
   <use id="arrowup" xlink:href="#arrowUp" x="0" y="0" onmousedown="handlePan(0,-1)"/>
  <use id="arrowright" xlink:href="#arrowRight" x="0" y="0" onmousedown="handlePan(1,0)"/>
  <use id="arrowdown" xlink:href="#arrowDown" x="0" y="0" onmousedown="handlePan(0,1)"/>
  <use id="arrowleft" xlink:href="#arrowLeft" x="0" y="0" onmousedown="handlePan(-1,0)"/>
</g>
<svg viewBox="0 0 15 15" width="100%" height="30px" preserveAspectRatio="xMaxYMin meet">
 <g id="arrow_out" transform="scale(0.3 0.3)">
  <a xlink:href="a00124_org.svg" target="_base">
   <rect id="button" ry="5" rx="5" y="6" x="6" height="38" width="38"
        fill="#f2f5e9" fill-opacity="0.5" stroke="#606060" stroke-width="1.0"/>
   <path id="arrow"
     d="M 11.500037,31.436501 C 11.940474,20.09759 22.043105,11.32322 32.158766,21.979434 L 37.068811,17.246167 C 37.068811,17.246167 37.088388,32 37.088388,32 L 22.160133,31.978069 C 22.160133,31.978069 26.997745,27.140456 26.997745,27.140456 C 18.528582,18.264221 13.291696,25.230495 11.500037,31.436501 z"
     style="fill:#404040;"/>
  </a>
 </g>
</svg>

<style type='text/css'>
<![CDATA[
[data-mouse-over-selected='false'] { opacity: 0.7; }
[data-mouse-over-selected='true']  { opacity: 1.0; }
]]>
</style>
<script type="application/ecmascript"><![CDATA[
document.addEventListener('DOMContentLoaded', (event) => {
  highlightEdges();
  highlightAdjacentNodes();
});
]]></script>
</svg>
