<?xml version="1.0" encoding="UTF-8" standalone="no"?>
<!DOCTYPE svg PUBLIC "-//W3C//DTD SVG 1.1//EN"
 "http://www.w3.org/Graphics/SVG/1.1/DTD/svg11.dtd">
<!-- Generated by graphviz version 13.1.2 (20250808.2320)
 -->
<!-- Title: B3YXVec4Transform Pages: 1 -->
<svg width="605pt" height="116pt"
 viewBox="0.00 0.00 605.00 116.00" xmlns="http://www.w3.org/2000/svg" xmlns:xlink="http://www.w3.org/1999/xlink">
<g id="graph0" class="graph" transform="scale(1 1) rotate(0) translate(4 112)">
<title>B3YXVec4Transform</title>
<!-- Node1 -->
<g id="Node000001" class="node">
<title>Node1</title>
<g id="a_Node000001"><a xlink:title=" ">
<polygon fill="#999999" stroke="#666666" points="597.25,-58 489.75,-58 489.75,-38 597.25,-38 597.25,-58"/>
<text xml:space="preserve" text-anchor="middle" x="543.5" y="-44.5" font-family="Helvetica,sans-Serif" font-size="10.00">B3YXVec4Transform</text>
</a>
</g>
</g>
<!-- Node2 -->
<g id="Node000002" class="node">
<title>Node2</title>
<g id="a_Node000002"><a xlink:href="a00184_a340a88105c8835a68c96a7c73b4d8a39.html#a340a88105c8835a68c96a7c73b4d8a39" target="_top" xlink:title=" ">
<polygon fill="white" stroke="#666666" points="448.88,-108 324.88,-108 324.88,-76 448.88,-76 448.88,-108"/>
<text xml:space="preserve" text-anchor="start" x="332.88" y="-94.5" font-family="Helvetica,sans-Serif" font-size="10.00">B3YenaGraphicsEngine9</text>
<text xml:space="preserve" text-anchor="middle" x="386.88" y="-82.5" font-family="Helvetica,sans-Serif" font-size="10.00">::_TnL_VP</text>
</a>
</g>
</g>
<!-- Node1&#45;&gt;Node2 -->
<g id="edge1_Node000001_Node000002" class="edge">
<title>Node1&#45;&gt;Node2</title>
<g id="a_edge1_Node000001_Node000002"><a xlink:title=" ">
<path fill="none" stroke="#63b8ff" d="M494.91,-61.54C479.37,-65.96 461.93,-70.93 445.71,-75.54"/>
<polygon fill="#63b8ff" stroke="#63b8ff" points="495.74,-64.95 504.4,-58.84 493.82,-58.21 495.74,-64.95"/>
</a>
</g>
</g>
<!-- Node5 -->
<g id="Node000005" class="node">
<title>Node5</title>
<g id="a_Node000005"><a xlink:href="a00141_ga6f604711fa1e89302f99919907fb5c48.html#ga6f604711fa1e89302f99919907fb5c48" target="_top" xlink:title=" ">
<polygon fill="white" stroke="#666666" points="440.62,-58 333.12,-58 333.12,-38 440.62,-38 440.62,-58"/>
<text xml:space="preserve" text-anchor="middle" x="386.88" y="-44.5" font-family="Helvetica,sans-Serif" font-size="10.00">B3YXVec3Transform</text>
</a>
</g>
</g>
<!-- Node1&#45;&gt;Node5 -->
<g id="edge4_Node000001_Node000005" class="edge">
<title>Node1&#45;&gt;Node5</title>
<g id="a_edge4_Node000001_Node000005"><a xlink:title=" ">
<path fill="none" stroke="#63b8ff" d="M478.09,-48C465.72,-48 452.89,-48 440.92,-48"/>
<polygon fill="#63b8ff" stroke="#63b8ff" points="477.77,-51.5 487.77,-48 477.77,-44.5 477.77,-51.5"/>
</a>
</g>
</g>
<!-- Node6 -->
<g id="Node000006" class="node">
<title>Node6</title>
<g id="a_Node000006"><a xlink:href="a00141_gaab4b8a133234f6db34eefb2cd378860b.html#gaab4b8a133234f6db34eefb2cd378860b" target="_top" xlink:title=" ">
<polygon fill="white" stroke="#666666" points="453.75,-20 320,-20 320,0 453.75,0 453.75,-20"/>
<text xml:space="preserve" text-anchor="middle" x="386.88" y="-6.5" font-family="Helvetica,sans-Serif" font-size="10.00">B3YXVec3TransformCoord</text>
</a>
</g>
</g>
<!-- Node1&#45;&gt;Node6 -->
<g id="edge5_Node000001_Node000006" class="edge">
<title>Node1&#45;&gt;Node6</title>
<g id="a_edge5_Node000001_Node000006"><a xlink:title=" ">
<path fill="none" stroke="#63b8ff" d="M488.86,-34.82C469.73,-30.12 448.46,-24.89 430.4,-20.45"/>
<polygon fill="#63b8ff" stroke="#63b8ff" points="487.82,-38.17 498.37,-37.15 489.49,-31.37 487.82,-38.17"/>
</a>
</g>
</g>
<!-- Node3 -->
<g id="Node000003" class="node">
<title>Node3</title>
<g id="a_Node000003"><a xlink:href="a00184_a55b4c9d7359aa2cbfe5f1ad030bdc036.html#a55b4c9d7359aa2cbfe5f1ad030bdc036" target="_top" xlink:title="정점 파이프 라인 연산을 수행.">
<polygon fill="white" stroke="#666666" points="284,-108 160,-108 160,-76 284,-76 284,-108"/>
<text xml:space="preserve" text-anchor="start" x="168" y="-94.5" font-family="Helvetica,sans-Serif" font-size="10.00">B3YenaGraphicsEngine9</text>
<text xml:space="preserve" text-anchor="middle" x="222" y="-82.5" font-family="Helvetica,sans-Serif" font-size="10.00">::_VertexPipeline</text>
</a>
</g>
</g>
<!-- Node2&#45;&gt;Node3 -->
<g id="edge2_Node000002_Node000003" class="edge">
<title>Node2&#45;&gt;Node3</title>
<g id="a_edge2_Node000002_Node000003"><a xlink:title=" ">
<path fill="none" stroke="#63b8ff" d="M313.5,-92C303.8,-92 293.94,-92 284.45,-92"/>
<polygon fill="#63b8ff" stroke="#63b8ff" points="313.25,-95.5 323.25,-92 313.25,-88.5 313.25,-95.5"/>
</a>
</g>
</g>
<!-- Node4 -->
<g id="Node000004" class="node">
<title>Node4</title>
<g id="a_Node000004"><a xlink:href="a00184_a9124b197c0763305a85b3d27dc71ac87.html#a9124b197c0763305a85b3d27dc71ac87" target="_top" xlink:title=" ">
<polygon fill="white" stroke="#666666" points="124,-108 0,-108 0,-76 124,-76 124,-108"/>
<text xml:space="preserve" text-anchor="start" x="8" y="-94.5" font-family="Helvetica,sans-Serif" font-size="10.00">B3YenaGraphicsEngine9</text>
<text xml:space="preserve" text-anchor="middle" x="62" y="-82.5" font-family="Helvetica,sans-Serif" font-size="10.00">::Draw</text>
</a>
</g>
</g>
<!-- Node3&#45;&gt;Node4 -->
<g id="edge3_Node000003_Node000004" class="edge">
<title>Node3&#45;&gt;Node4</title>
<g id="a_edge3_Node000003_Node000004"><a xlink:title=" ">
<path fill="none" stroke="#63b8ff" d="M148.6,-92C140.53,-92 132.36,-92 124.45,-92"/>
<polygon fill="#63b8ff" stroke="#63b8ff" points="148.4,-95.5 158.4,-92 148.4,-88.5 148.4,-95.5"/>
</a>
</g>
</g>
<!-- Node7 -->
<g id="Node000007" class="node">
<title>Node7</title>
<g id="a_Node000007"><a xlink:href="a00164_a866b37d2e6db4423f0e1f6f321c4bff9.html#a866b37d2e6db4423f0e1f6f321c4bff9" target="_top" xlink:title="월드 좌표 공간에 정렬하여 축 선 보여주기.">
<polygon fill="white" stroke="#666666" points="280.62,-20 163.38,-20 163.38,0 280.62,0 280.62,-20"/>
<text xml:space="preserve" text-anchor="middle" x="222" y="-6.5" font-family="Helvetica,sans-Serif" font-size="10.00">YENA::ynAxis::Update</text>
</a>
</g>
</g>
<!-- Node6&#45;&gt;Node7 -->
<g id="edge6_Node000006_Node000007" class="edge">
<title>Node6&#45;&gt;Node7</title>
<g id="a_edge6_Node000006_Node000007"><a xlink:title=" ">
<path fill="none" stroke="#63b8ff" d="M308.15,-10C299.04,-10 289.86,-10 281.08,-10"/>
<polygon fill="#63b8ff" stroke="#63b8ff" points="308.11,-13.5 318.11,-10 308.11,-6.5 308.11,-13.5"/>
</a>
</g>
</g>
</g>
</svg>
