<?xml version="1.0" encoding="UTF-8" standalone="no"?>
<!DOCTYPE svg PUBLIC "-//W3C//DTD SVG 1.1//EN"
 "http://www.w3.org/Graphics/SVG/1.1/DTD/svg11.dtd">
<!-- Generated by graphviz version 13.1.2 (20250808.2320)
 -->
<!-- Title: Yena/ynGUID.cpp Pages: 1 -->
<svg width="449pt" height="140pt"
 viewBox="0.00 0.00 449.00 140.00" xmlns="http://www.w3.org/2000/svg" xmlns:xlink="http://www.w3.org/1999/xlink">

<svg id="main" version="1.1" xmlns="http://www.w3.org/2000/svg" xmlns:xlink="http://www.w3.org/1999/xlink" xml:space="preserve">

<style type="text/css"><![CDATA[
.node, .edge {opacity: 0.7;}
.node.selected, .edge.selected {opacity: 1;}
.edge:hover path { stroke: red; }
.edge:hover polygon { stroke: red; fill: red; }
]]></style>
<script type="application/ecmascript" xlink:href="svg.min.js"/>
<svg id="graph" class="graph">
<g id="graph0" class="graph" transform="scale(1 1) rotate(0) translate(4 136)">
<title>Yena/ynGUID.cpp</title>
<!-- Node1 -->
<g id="Node000001" class="node">
<title>Node1</title>
<g id="a_Node000001"><a xlink:title="Yena SWR COM / GUID 소스">
<polygon fill="#999999" stroke="#666666" points="179,-132 83.5,-132 83.5,-112 179,-112 179,-132"/>
<text xml:space="preserve" text-anchor="middle" x="131.25" y="-118.5" font-family="Helvetica,sans-Serif" font-size="10.00">Yena/ynGUID.cpp</text>
</a>
</g>
</g>
<!-- Node2 -->
<g id="Node000002" class="node">
<title>Node2</title>
<g id="a_Node000002"><a xlink:title=" ">
<polygon fill="#e0e0e0" stroke="#999999" points="62.5,-20 0,-20 0,0 62.5,0 62.5,-20"/>
<text xml:space="preserve" text-anchor="middle" x="31.25" y="-6.5" font-family="Helvetica,sans-Serif" font-size="10.00">windows.h</text>
</a>
</g>
</g>
<!-- Node1&#45;&gt;Node2 -->
<g id="edge1_Node000001_Node000002" class="edge">
<title>Node1&#45;&gt;Node2</title>
<g id="a_edge1_Node000001_Node000002"><a xlink:title=" ">
<path fill="none" stroke="#63b8ff" d="M122.72,-111.62C106.05,-93.27 68.86,-52.37 47.39,-28.75"/>
<polygon fill="#63b8ff" stroke="#63b8ff" points="50.09,-26.52 40.77,-21.47 44.91,-31.23 50.09,-26.52"/>
</a>
</g>
</g>
<!-- Node3 -->
<g id="Node000003" class="node">
<title>Node3</title>
<g id="a_Node000003"><a xlink:href="a00110.html" target="_top" xlink:title="Yena SWR COM / GUID 헤더">
<polygon fill="white" stroke="#666666" points="229.38,-76 169.12,-76 169.12,-56 229.38,-56 229.38,-76"/>
<text xml:space="preserve" text-anchor="middle" x="199.25" y="-62.5" font-family="Helvetica,sans-Serif" font-size="10.00">ynGUID.h</text>
</a>
</g>
</g>
<!-- Node1&#45;&gt;Node3 -->
<g id="edge2_Node000001_Node000003" class="edge">
<title>Node1&#45;&gt;Node3</title>
<g id="a_edge2_Node000001_Node000003"><a xlink:title=" ">
<path fill="none" stroke="#63b8ff" d="M143.09,-111.59C152.94,-103.77 167.18,-92.46 178.86,-83.19"/>
<polygon fill="#63b8ff" stroke="#63b8ff" points="180.7,-86.2 186.36,-77.24 176.35,-80.72 180.7,-86.2"/>
</a>
</g>
</g>
<!-- Node3&#45;&gt;Node2 -->
<g id="edge3_Node000003_Node000002" class="edge">
<title>Node3&#45;&gt;Node2</title>
<g id="a_edge3_Node000003_Node000002"><a xlink:title=" ">
<path fill="none" stroke="#63b8ff" d="M169.99,-55.59C142.69,-46.82 101.74,-33.66 71.4,-23.9"/>
<polygon fill="#63b8ff" stroke="#63b8ff" points="72.77,-20.67 62.18,-20.94 70.63,-27.33 72.77,-20.67"/>
</a>
</g>
</g>
<!-- Node4 -->
<g id="Node000004" class="node">
<title>Node4</title>
<g id="a_Node000004"><a xlink:title=" ">
<polygon fill="#e0e0e0" stroke="#999999" points="126.25,-20 80.25,-20 80.25,0 126.25,0 126.25,-20"/>
<text xml:space="preserve" text-anchor="middle" x="103.25" y="-6.5" font-family="Helvetica,sans-Serif" font-size="10.00">tchar.h</text>
</a>
</g>
</g>
<!-- Node3&#45;&gt;Node4 -->
<g id="edge4_Node000003_Node000004" class="edge">
<title>Node3&#45;&gt;Node4</title>
<g id="a_edge4_Node000003_Node000004"><a xlink:title=" ">
<path fill="none" stroke="#63b8ff" d="M182.53,-55.59C168.03,-47.44 146.78,-35.48 129.93,-26"/>
<polygon fill="#63b8ff" stroke="#63b8ff" points="131.85,-23.07 121.42,-21.22 128.42,-29.17 131.85,-23.07"/>
</a>
</g>
</g>
<!-- Node5 -->
<g id="Node000005" class="node">
<title>Node5</title>
<g id="a_Node000005"><a xlink:title=" ">
<polygon fill="#e0e0e0" stroke="#999999" points="190.25,-20 144.25,-20 144.25,0 190.25,0 190.25,-20"/>
<text xml:space="preserve" text-anchor="middle" x="167.25" y="-6.5" font-family="Helvetica,sans-Serif" font-size="10.00">math.h</text>
</a>
</g>
</g>
<!-- Node3&#45;&gt;Node5 -->
<g id="edge5_Node000003_Node000005" class="edge">
<title>Node3&#45;&gt;Node5</title>
<g id="a_edge5_Node000003_Node000005"><a xlink:title=" ">
<path fill="none" stroke="#63b8ff" d="M193.68,-55.59C189.5,-48.55 183.65,-38.67 178.51,-30"/>
<polygon fill="#63b8ff" stroke="#63b8ff" points="181.64,-28.42 173.53,-21.6 175.62,-31.99 181.64,-28.42"/>
</a>
</g>
</g>
<!-- Node6 -->
<g id="Node000006" class="node">
<title>Node6</title>
<g id="a_Node000006"><a xlink:title=" ">
<polygon fill="#e0e0e0" stroke="#999999" points="253.88,-20 208.62,-20 208.62,0 253.88,0 253.88,-20"/>
<text xml:space="preserve" text-anchor="middle" x="231.25" y="-6.5" font-family="Helvetica,sans-Serif" font-size="10.00">stdio.h</text>
</a>
</g>
</g>
<!-- Node3&#45;&gt;Node6 -->
<g id="edge6_Node000003_Node000006" class="edge">
<title>Node3&#45;&gt;Node6</title>
<g id="a_edge6_Node000003_Node000006"><a xlink:title=" ">
<path fill="none" stroke="#63b8ff" d="M204.82,-55.59C209,-48.55 214.85,-38.67 219.99,-30"/>
<polygon fill="#63b8ff" stroke="#63b8ff" points="222.88,-31.99 224.97,-21.6 216.86,-28.42 222.88,-31.99"/>
</a>
</g>
</g>
<!-- Node7 -->
<g id="Node000007" class="node">
<title>Node7</title>
<g id="a_Node000007"><a xlink:title=" ">
<polygon fill="#e0e0e0" stroke="#999999" points="314.75,-20 271.75,-20 271.75,0 314.75,0 314.75,-20"/>
<text xml:space="preserve" text-anchor="middle" x="293.25" y="-6.5" font-family="Helvetica,sans-Serif" font-size="10.00">vector</text>
</a>
</g>
</g>
<!-- Node3&#45;&gt;Node7 -->
<g id="edge7_Node000003_Node000007" class="edge">
<title>Node3&#45;&gt;Node7</title>
<g id="a_edge7_Node000003_Node000007"><a xlink:title=" ">
<path fill="none" stroke="#63b8ff" d="M215.62,-55.59C229.82,-47.44 250.63,-35.48 267.13,-26"/>
<polygon fill="#63b8ff" stroke="#63b8ff" points="268.51,-29.25 275.44,-21.23 265.02,-23.18 268.51,-29.25"/>
</a>
</g>
</g>
<!-- Node8 -->
<g id="Node000008" class="node">
<title>Node8</title>
<g id="a_Node000008"><a xlink:title=" ">
<polygon fill="#e0e0e0" stroke="#999999" points="367.62,-20 332.88,-20 332.88,0 367.62,0 367.62,-20"/>
<text xml:space="preserve" text-anchor="middle" x="350.25" y="-6.5" font-family="Helvetica,sans-Serif" font-size="10.00">map</text>
</a>
</g>
</g>
<!-- Node3&#45;&gt;Node8 -->
<g id="edge8_Node000003_Node000008" class="edge">
<title>Node3&#45;&gt;Node8</title>
<g id="a_edge8_Node000003_Node000008"><a xlink:title=" ">
<path fill="none" stroke="#63b8ff" d="M225.55,-55.59C252.58,-45.93 294.52,-30.93 322.18,-21.04"/>
<polygon fill="#63b8ff" stroke="#63b8ff" points="323.06,-24.44 331.3,-17.78 320.71,-17.85 323.06,-24.44"/>
</a>
</g>
</g>
<!-- Node9 -->
<g id="Node000009" class="node">
<title>Node9</title>
<g id="a_Node000009"><a xlink:title=" ">
<polygon fill="#e0e0e0" stroke="#999999" points="441.12,-20 385.38,-20 385.38,0 441.12,0 441.12,-20"/>
<text xml:space="preserve" text-anchor="middle" x="413.25" y="-6.5" font-family="Helvetica,sans-Serif" font-size="10.00">algorithm</text>
</a>
</g>
</g>
<!-- Node3&#45;&gt;Node9 -->
<g id="edge9_Node000003_Node000009" class="edge">
<title>Node3&#45;&gt;Node9</title>
<g id="a_edge9_Node000003_Node000009"><a xlink:title=" ">
<path fill="none" stroke="#63b8ff" d="M229.46,-57.38C267.26,-47.84 332.11,-31.48 373.8,-20.96"/>
<polygon fill="#63b8ff" stroke="#63b8ff" points="374.6,-24.36 383.43,-18.52 372.88,-17.58 374.6,-24.36"/>
</a>
</g>
</g>
</g>
</svg>
</svg>

<style type='text/css'>
<![CDATA[
[data-mouse-over-selected='false'] { opacity: 0.7; }
[data-mouse-over-selected='true']  { opacity: 1.0; }
]]>
</style>
<script type="application/ecmascript"><![CDATA[
document.addEventListener('DOMContentLoaded', (event) => {
  highlightEdges();
  highlightAdjacentNodes();
});
]]></script>
</svg>
