<?xml version="1.0" encoding="UTF-8" standalone="no"?>
<!DOCTYPE svg PUBLIC "-//W3C//DTD SVG 1.1//EN"
 "http://www.w3.org/Graphics/SVG/1.1/DTD/svg11.dtd">
<!-- Generated by graphviz version 13.1.2 (20250808.2320)
 -->
<!-- Title: Yena/ynGUID.h Pages: 1 -->
<svg width="1069pt" height="196pt"
 viewBox="0.00 0.00 1069.00 196.00" xmlns="http://www.w3.org/2000/svg" xmlns:xlink="http://www.w3.org/1999/xlink">
<g id="graph0" class="graph" transform="scale(1 1) rotate(0) translate(4 192)">
<title>Yena/ynGUID.h</title>
<!-- Node1 -->
<g id="Node000001" class="node">
<title>Node1</title>
<g id="a_Node000001"><a xlink:title="Yena SWR COM / GUID 헤더">
<polygon fill="#999999" stroke="#666666" points="659.25,-188 574.25,-188 574.25,-168 659.25,-168 659.25,-188"/>
<text xml:space="preserve" text-anchor="middle" x="616.75" y="-174.5" font-family="Helvetica,sans-Serif" font-size="10.00">Yena/ynGUID.h</text>
</a>
</g>
</g>
<!-- Node2 -->
<g id="Node000002" class="node">
<title>Node2</title>
<g id="a_Node000002"><a xlink:href="a00068.html" target="_top" xlink:title="Yena SWR 기본 헤더 파일 (v1.x)">
<polygon fill="white" stroke="#666666" points="602.12,-132 531.38,-132 531.38,-112 602.12,-112 602.12,-132"/>
<text xml:space="preserve" text-anchor="middle" x="566.75" y="-118.5" font-family="Helvetica,sans-Serif" font-size="10.00">Yena/Yena.h</text>
</a>
</g>
</g>
<!-- Node1&#45;&gt;Node2 -->
<g id="edge1_Node000001_Node000002" class="edge">
<title>Node1&#45;&gt;Node2</title>
<g id="a_edge1_Node000001_Node000002"><a xlink:title=" ">
<path fill="none" stroke="#63b8ff" d="M600.35,-159.29C592.01,-150.28 582.21,-139.7 575.36,-132.3"/>
<polygon fill="#63b8ff" stroke="#63b8ff" points="597.65,-161.52 607.01,-166.48 602.79,-156.77 597.65,-161.52"/>
</a>
</g>
</g>
<!-- Node16 -->
<g id="Node000016" class="node">
<title>Node16</title>
<g id="a_Node000016"><a xlink:href="a00107.html" target="_top" xlink:title="Yena SWR COM / GUID 소스">
<polygon fill="white" stroke="#666666" points="715.5,-132 620,-132 620,-112 715.5,-112 715.5,-132"/>
<text xml:space="preserve" text-anchor="middle" x="667.75" y="-118.5" font-family="Helvetica,sans-Serif" font-size="10.00">Yena/ynGUID.cpp</text>
</a>
</g>
</g>
<!-- Node1&#45;&gt;Node16 -->
<g id="edge19_Node000001_Node000016" class="edge">
<title>Node1&#45;&gt;Node16</title>
<g id="a_edge19_Node000001_Node000016"><a xlink:title=" ">
<path fill="none" stroke="#63b8ff" d="M633.48,-159.29C641.99,-150.28 651.98,-139.7 658.97,-132.3"/>
<polygon fill="#63b8ff" stroke="#63b8ff" points="630.99,-156.82 626.67,-166.49 636.08,-161.63 630.99,-156.82"/>
</a>
</g>
</g>
<!-- Node3 -->
<g id="Node000003" class="node">
<title>Node3</title>
<g id="a_Node000003"><a xlink:href="a00053.html" target="_top" xlink:title="예제 렌더링 장치 운용 헤더">
<polygon fill="white" stroke="#666666" points="180.25,-76 107.25,-76 107.25,-56 180.25,-56 180.25,-76"/>
<text xml:space="preserve" text-anchor="middle" x="143.75" y="-62.5" font-family="Helvetica,sans-Serif" font-size="10.00">Src/Device.h</text>
</a>
</g>
</g>
<!-- Node2&#45;&gt;Node3 -->
<g id="edge2_Node000002_Node000003" class="edge">
<title>Node2&#45;&gt;Node3</title>
<g id="a_edge2_Node000002_Node000003"><a xlink:title=" ">
<path fill="none" stroke="#63b8ff" d="M519.6,-116.59C447.91,-109.62 307.3,-94.88 188.75,-76 186.07,-75.57 183.32,-75.1 180.54,-74.6"/>
<polygon fill="#63b8ff" stroke="#63b8ff" points="519.12,-120.06 529.41,-117.54 519.8,-113.1 519.12,-120.06"/>
</a>
</g>
</g>
<!-- Node7 -->
<g id="Node000007" class="node">
<title>Node7</title>
<g id="a_Node000007"><a xlink:href="a00065.html" target="_top" xlink:title="Yena SWR 기본 소스 파일 (v1.x)">
<polygon fill="white" stroke="#666666" points="279.38,-76 198.12,-76 198.12,-56 279.38,-56 279.38,-76"/>
<text xml:space="preserve" text-anchor="middle" x="238.75" y="-62.5" font-family="Helvetica,sans-Serif" font-size="10.00">Yena/Yena.cpp</text>
</a>
</g>
</g>
<!-- Node2&#45;&gt;Node7 -->
<g id="edge6_Node000002_Node000007" class="edge">
<title>Node2&#45;&gt;Node7</title>
<g id="a_edge6_Node000002_Node000007"><a xlink:title=" ">
<path fill="none" stroke="#63b8ff" d="M520.01,-113.3C455.7,-102.72 340.98,-83.83 279.81,-73.76"/>
<polygon fill="#63b8ff" stroke="#63b8ff" points="519.09,-116.7 529.53,-114.87 520.23,-109.79 519.09,-116.7"/>
</a>
</g>
</g>
<!-- Node8 -->
<g id="Node000008" class="node">
<title>Node8</title>
<g id="a_Node000008"><a xlink:href="a00071.html" target="_top" xlink:title="공간축 클래스 소스 파일.">
<polygon fill="white" stroke="#666666" points="403.5,-20 314,-20 314,0 403.5,0 403.5,-20"/>
<text xml:space="preserve" text-anchor="middle" x="358.75" y="-6.5" font-family="Helvetica,sans-Serif" font-size="10.00">Yena/ynAxis.cpp</text>
</a>
</g>
</g>
<!-- Node2&#45;&gt;Node8 -->
<g id="edge7_Node000002_Node000008" class="edge">
<title>Node2&#45;&gt;Node8</title>
<g id="a_edge7_Node000002_Node000008"><a xlink:title=" ">
<path fill="none" stroke="#63b8ff" d="M520.12,-119.09C457.37,-115.44 350.84,-105.02 326.75,-76 312.29,-58.58 333.99,-33.52 348.14,-20.18"/>
<polygon fill="#63b8ff" stroke="#63b8ff" points="519.61,-122.57 529.78,-119.62 519.99,-115.58 519.61,-122.57"/>
</a>
</g>
</g>
<!-- Node9 -->
<g id="Node000009" class="node">
<title>Node9</title>
<g id="a_Node000009"><a xlink:href="a00074.html" target="_top" xlink:title="공간축 클래스 헤더.">
<polygon fill="white" stroke="#666666" points="415.25,-76 336.25,-76 336.25,-56 415.25,-56 415.25,-76"/>
<text xml:space="preserve" text-anchor="middle" x="375.75" y="-62.5" font-family="Helvetica,sans-Serif" font-size="10.00">Yena/ynAxis.h</text>
</a>
</g>
</g>
<!-- Node2&#45;&gt;Node9 -->
<g id="edge8_Node000002_Node000009" class="edge">
<title>Node2&#45;&gt;Node9</title>
<g id="a_edge8_Node000002_Node000009"><a xlink:title=" ">
<path fill="none" stroke="#63b8ff" d="M520.11,-109.41C483.76,-99.58 434.61,-85.65 403.97,-76.47"/>
<polygon fill="#63b8ff" stroke="#63b8ff" points="518.92,-112.72 529.49,-111.93 520.74,-105.96 518.92,-112.72"/>
</a>
</g>
</g>
<!-- Node10 -->
<g id="Node000010" class="node">
<title>Node10</title>
<g id="a_Node000010"><a xlink:href="a00080.html" target="_top" xlink:title="Yena 그래픽스 엔진 소스 파일">
<polygon fill="white" stroke="#666666" points="554.25,-76 433.25,-76 433.25,-56 554.25,-56 554.25,-76"/>
<text xml:space="preserve" text-anchor="middle" x="493.75" y="-62.5" font-family="Helvetica,sans-Serif" font-size="10.00">Yena/ynB3Graphics.cpp</text>
</a>
</g>
</g>
<!-- Node2&#45;&gt;Node10 -->
<g id="edge11_Node000002_Node000010" class="edge">
<title>Node2&#45;&gt;Node10</title>
<g id="a_edge11_Node000002_Node000010"><a xlink:title=" ">
<path fill="none" stroke="#63b8ff" d="M545.06,-104.95C532.43,-95.61 516.95,-84.16 506.32,-76.3"/>
<polygon fill="#63b8ff" stroke="#63b8ff" points="542.7,-107.56 552.82,-110.69 546.86,-101.93 542.7,-107.56"/>
</a>
</g>
</g>
<!-- Node11 -->
<g id="Node000011" class="node">
<title>Node11</title>
<g id="a_Node000011"><a xlink:href="a00086.html" target="_top" xlink:title="정점 버퍼 운용 클래스 소스">
<polygon fill="white" stroke="#666666" points="707.38,-76 572.12,-76 572.12,-56 707.38,-56 707.38,-76"/>
<text xml:space="preserve" text-anchor="middle" x="639.75" y="-62.5" font-family="Helvetica,sans-Serif" font-size="10.00">Yena/ynB3VertexBuffer.cpp</text>
</a>
</g>
</g>
<!-- Node2&#45;&gt;Node11 -->
<g id="edge12_Node000002_Node000011" class="edge">
<title>Node2&#45;&gt;Node11</title>
<g id="a_edge12_Node000002_Node000011"><a xlink:title=" ">
<path fill="none" stroke="#63b8ff" d="M588.44,-104.95C601.07,-95.61 616.55,-84.16 627.18,-76.3"/>
<polygon fill="#63b8ff" stroke="#63b8ff" points="586.64,-101.93 580.68,-110.69 590.8,-107.56 586.64,-101.93"/>
</a>
</g>
</g>
<!-- Node12 -->
<g id="Node000012" class="node">
<title>Node12</title>
<g id="a_Node000012"><a xlink:href="a00095.html" target="_top" xlink:title="에러, 예외 및 로그 처리 소스 파일">
<polygon fill="white" stroke="#666666" points="816.25,-76 725.25,-76 725.25,-56 816.25,-56 816.25,-76"/>
<text xml:space="preserve" text-anchor="middle" x="770.75" y="-62.5" font-family="Helvetica,sans-Serif" font-size="10.00">Yena/ynError.cpp</text>
</a>
</g>
</g>
<!-- Node2&#45;&gt;Node12 -->
<g id="edge13_Node000002_Node000012" class="edge">
<title>Node2&#45;&gt;Node12</title>
<g id="a_edge13_Node000002_Node000012"><a xlink:title=" ">
<path fill="none" stroke="#63b8ff" d="M613.27,-108.69C650.21,-98.91 701.12,-85.43 734.94,-76.48"/>
<polygon fill="#63b8ff" stroke="#63b8ff" points="612.52,-105.26 603.75,-111.21 614.31,-112.03 612.52,-105.26"/>
</a>
</g>
</g>
<!-- Node13 -->
<g id="Node000013" class="node">
<title>Node13</title>
<g id="a_Node000013"><a xlink:href="a00101.html" target="_top" xlink:title="그리드 클래스 소스 파일.">
<polygon fill="white" stroke="#666666" points="921.75,-20 833.75,-20 833.75,0 921.75,0 921.75,-20"/>
<text xml:space="preserve" text-anchor="middle" x="877.75" y="-6.5" font-family="Helvetica,sans-Serif" font-size="10.00">Yena/ynGrid.cpp</text>
</a>
</g>
</g>
<!-- Node2&#45;&gt;Node13 -->
<g id="edge14_Node000002_Node000013" class="edge">
<title>Node2&#45;&gt;Node13</title>
<g id="a_edge14_Node000002_Node000013"><a xlink:title=" ">
<path fill="none" stroke="#63b8ff" d="M613.55,-111.67C708.76,-96.46 745.3,-123.24 825.75,-76 848.68,-62.54 865.51,-34.85 873.17,-20.34"/>
<polygon fill="#63b8ff" stroke="#63b8ff" points="613.02,-108.21 603.76,-113.36 614.21,-115.11 613.02,-108.21"/>
</a>
</g>
</g>
<!-- Node14 -->
<g id="Node000014" class="node">
<title>Node14</title>
<g id="a_Node000014"><a xlink:href="a00104.html" target="_top" xlink:title="그리드 클래스 헤더.">
<polygon fill="white" stroke="#666666" points="950.5,-76 873,-76 873,-56 950.5,-56 950.5,-76"/>
<text xml:space="preserve" text-anchor="middle" x="911.75" y="-62.5" font-family="Helvetica,sans-Serif" font-size="10.00">Yena/ynGrid.h</text>
</a>
</g>
</g>
<!-- Node2&#45;&gt;Node14 -->
<g id="edge15_Node000002_Node000014" class="edge">
<title>Node2&#45;&gt;Node14</title>
<g id="a_edge15_Node000002_Node000014"><a xlink:title=" ">
<path fill="none" stroke="#63b8ff" d="M613.61,-109.95C713.67,-92.84 743.8,-92.68 849.75,-76 857.13,-74.84 865.07,-73.52 872.78,-72.27"/>
<polygon fill="#63b8ff" stroke="#63b8ff" points="613.14,-106.48 603.88,-111.63 614.33,-113.38 613.14,-106.48"/>
</a>
</g>
</g>
<!-- Node15 -->
<g id="Node000015" class="node">
<title>Node15</title>
<g id="a_Node000015"><a xlink:href="a00113.html" target="_top" xlink:title="\u{2b50} Yena 수학 라이브러리 Yena Math Library for DirectX / OpenGL">
<polygon fill="white" stroke="#666666" points="1060.62,-76 968.88,-76 968.88,-56 1060.62,-56 1060.62,-76"/>
<text xml:space="preserve" text-anchor="middle" x="1014.75" y="-62.5" font-family="Helvetica,sans-Serif" font-size="10.00">Yena/ynMath.cpp</text>
</a>
</g>
</g>
<!-- Node2&#45;&gt;Node15 -->
<g id="edge18_Node000002_Node000015" class="edge">
<title>Node2&#45;&gt;Node15</title>
<g id="a_edge18_Node000002_Node000015"><a xlink:title=" ">
<path fill="none" stroke="#63b8ff" d="M613.47,-111.72C766.83,-88.72 808.81,-96.12 959.75,-76 962.63,-75.62 965.59,-75.2 968.57,-74.76"/>
<polygon fill="#63b8ff" stroke="#63b8ff" points="613.09,-108.24 603.73,-113.2 614.15,-115.16 613.09,-108.24"/>
</a>
</g>
</g>
<!-- Node4 -->
<g id="Node000004" class="node">
<title>Node4</title>
<g id="a_Node000004"><a xlink:href="a00050.html" target="_top" xlink:title="예제 렌더링 장치 운용 소스.">
<polygon fill="white" stroke="#666666" points="83.5,-20 0,-20 0,0 83.5,0 83.5,-20"/>
<text xml:space="preserve" text-anchor="middle" x="41.75" y="-6.5" font-family="Helvetica,sans-Serif" font-size="10.00">Src/Device.cpp</text>
</a>
</g>
</g>
<!-- Node3&#45;&gt;Node4 -->
<g id="edge3_Node000003_Node000004" class="edge">
<title>Node3&#45;&gt;Node4</title>
<g id="a_edge3_Node000003_Node000004"><a xlink:title=" ">
<path fill="none" stroke="#63b8ff" d="M115.82,-50.21C97.91,-40.73 75.18,-28.7 59.66,-20.48"/>
<polygon fill="#63b8ff" stroke="#63b8ff" points="114.17,-53.3 124.65,-54.89 117.45,-47.11 114.17,-53.3"/>
</a>
</g>
</g>
<!-- Node5 -->
<g id="Node000005" class="node">
<title>Node5</title>
<g id="a_Node000005"><a xlink:href="a00059.html" target="_top" xlink:title="\u{2b50} 예제 기본 렌더링/프레임웍 소스">
<polygon fill="white" stroke="#666666" points="185.88,-20 101.62,-20 101.62,0 185.88,0 185.88,-20"/>
<text xml:space="preserve" text-anchor="middle" x="143.75" y="-6.5" font-family="Helvetica,sans-Serif" font-size="10.00">Src/Render.cpp</text>
</a>
</g>
</g>
<!-- Node3&#45;&gt;Node5 -->
<g id="edge4_Node000003_Node000005" class="edge">
<title>Node3&#45;&gt;Node5</title>
<g id="a_edge4_Node000003_Node000005"><a xlink:title=" ">
<path fill="none" stroke="#63b8ff" d="M143.75,-44.13C143.75,-35.9 143.75,-26.85 143.75,-20.3"/>
<polygon fill="#63b8ff" stroke="#63b8ff" points="140.25,-44.08 143.75,-54.08 147.25,-44.08 140.25,-44.08"/>
</a>
</g>
</g>
<!-- Node6 -->
<g id="Node000006" class="node">
<title>Node6</title>
<g id="a_Node000006"><a xlink:href="a00056.html" target="_top" xlink:title="예제 애플리케이션 메인 / 윈도 프레임워크 소스">
<polygon fill="white" stroke="#666666" points="277.62,-20 203.88,-20 203.88,0 277.62,0 277.62,-20"/>
<text xml:space="preserve" text-anchor="middle" x="240.75" y="-6.5" font-family="Helvetica,sans-Serif" font-size="10.00">Src/main.cpp</text>
</a>
</g>
</g>
<!-- Node3&#45;&gt;Node6 -->
<g id="edge5_Node000003_Node000006" class="edge">
<title>Node3&#45;&gt;Node6</title>
<g id="a_edge5_Node000003_Node000006"><a xlink:title=" ">
<path fill="none" stroke="#63b8ff" d="M170.55,-50.08C187.55,-40.62 209.03,-28.66 223.72,-20.48"/>
<polygon fill="#63b8ff" stroke="#63b8ff" points="169,-46.94 161.97,-54.86 172.41,-53.05 169,-46.94"/>
</a>
</g>
</g>
<!-- Node9&#45;&gt;Node2 -->
<g id="edge9_Node000009_Node000002" class="edge">
<title>Node9&#45;&gt;Node2</title>
<g id="a_edge9_Node000009_Node000002"><a xlink:title=" ">
<path fill="none" stroke="#63b8ff" d="M425.37,-79.39C461.48,-89.19 508.96,-102.67 538.75,-111.59"/>
<polygon fill="#63b8ff" stroke="#63b8ff" points="426.59,-76.1 416.02,-76.87 424.77,-82.86 426.59,-76.1"/>
</a>
</g>
</g>
<!-- Node9&#45;&gt;Node8 -->
<g id="edge10_Node000009_Node000008" class="edge">
<title>Node9&#45;&gt;Node8</title>
<g id="a_edge10_Node000009_Node000008"><a xlink:title=" ">
<path fill="none" stroke="#63b8ff" d="M369.36,-44.71C366.72,-36.32 363.79,-27.01 361.68,-20.3"/>
<polygon fill="#63b8ff" stroke="#63b8ff" points="365.99,-45.66 372.33,-54.15 372.67,-43.56 365.99,-45.66"/>
</a>
</g>
</g>
<!-- Node14&#45;&gt;Node2 -->
<g id="edge16_Node000014_Node000002" class="edge">
<title>Node14&#45;&gt;Node2</title>
<g id="a_edge16_Node000014_Node000002"><a xlink:title=" ">
<path fill="none" stroke="#63b8ff" d="M861.36,-76.98C755.76,-93.31 725.82,-93.47 619.75,-112 614.22,-112.97 608.32,-114.1 602.5,-115.23"/>
<polygon fill="#63b8ff" stroke="#63b8ff" points="861.68,-80.47 871.02,-75.47 860.6,-73.56 861.68,-80.47"/>
</a>
</g>
</g>
<!-- Node14&#45;&gt;Node13 -->
<g id="edge17_Node000014_Node000013" class="edge">
<title>Node14&#45;&gt;Node13</title>
<g id="a_edge17_Node000014_Node000013"><a xlink:title=" ">
<path fill="none" stroke="#63b8ff" d="M899.7,-45.87C894.24,-37.19 888.02,-27.32 883.6,-20.3"/>
<polygon fill="#63b8ff" stroke="#63b8ff" points="896.73,-47.72 905.02,-54.31 902.65,-43.99 896.73,-47.72"/>
</a>
</g>
</g>
</g>
</svg>
