<?xml version="1.0" encoding="UTF-8" standalone="no"?>
<!DOCTYPE svg PUBLIC "-//W3C//DTD SVG 1.1//EN"
 "http://www.w3.org/Graphics/SVG/1.1/DTD/svg11.dtd">
<!-- Generated by graphviz version 13.1.2 (20250808.2320)
 -->
<!-- Title: YENA::ynException::hr Pages: 1 -->
<svg width="272pt" height="96pt"
 viewBox="0.00 0.00 272.00 96.00" xmlns="http://www.w3.org/2000/svg" xmlns:xlink="http://www.w3.org/1999/xlink">
<g id="graph0" class="graph" transform="scale(1 1) rotate(0) translate(4 92)">
<title>YENA::ynException::hr</title>
<!-- Node1 -->
<g id="Node000001" class="node">
<title>Node1</title>
<g id="a_Node000001"><a xlink:title=" ">
<polygon fill="#999999" stroke="#666666" points="263.75,-51 145.75,-51 145.75,-31 263.75,-31 263.75,-51"/>
<text xml:space="preserve" text-anchor="middle" x="204.75" y="-37.5" font-family="Helvetica,sans-Serif" font-size="10.00">YENA::ynException::hr</text>
</a>
</g>
</g>
<!-- Node2 -->
<g id="Node000002" class="node">
<title>Node2</title>
<g id="a_Node000002"><a xlink:href="a00212_a0d61f2f509d4158775bc1a217d4127cb.html#a0d61f2f509d4158775bc1a217d4127cb" target="_top" xlink:title=" ">
<polygon fill="white" stroke="#666666" points="109.75,-88 0,-88 0,-56 109.75,-56 109.75,-88"/>
<text xml:space="preserve" text-anchor="start" x="8" y="-74.5" font-family="Helvetica,sans-Serif" font-size="10.00">YENA::ynException::</text>
<text xml:space="preserve" text-anchor="middle" x="54.88" y="-62.5" font-family="Helvetica,sans-Serif" font-size="10.00">ynException</text>
</a>
</g>
</g>
<!-- Node1&#45;&gt;Node2 -->
<g id="edge1_Node000001_Node000002" class="edge">
<title>Node1&#45;&gt;Node2</title>
<g id="a_edge1_Node000001_Node000002"><a xlink:title=" ">
<path fill="none" stroke="#63b8ff" d="M142.65,-53.81C131.89,-56.06 120.76,-58.4 110.2,-60.61"/>
<polygon fill="#63b8ff" stroke="#63b8ff" points="143.14,-57.28 152.2,-51.81 141.7,-50.43 143.14,-57.28"/>
</a>
</g>
</g>
<!-- Node3 -->
<g id="Node000003" class="node">
<title>Node3</title>
<g id="a_Node000003"><a xlink:href="a00146_a604d59734464ddefdbbf9f78ef728aea.html#a604d59734464ddefdbbf9f78ef728aea" target="_top" xlink:title=" ">
<polygon fill="white" stroke="#666666" points="100.38,-20 9.38,-20 9.38,0 100.38,0 100.38,-20"/>
<text xml:space="preserve" text-anchor="middle" x="54.88" y="-6.5" font-family="Helvetica,sans-Serif" font-size="10.00">YENA::ynErrorW</text>
</a>
</g>
</g>
<!-- Node1&#45;&gt;Node3 -->
<g id="edge2_Node000001_Node000003" class="edge">
<title>Node1&#45;&gt;Node3</title>
<g id="a_edge2_Node000001_Node000003"><a xlink:title=" ">
<path fill="none" stroke="#63b8ff" d="M142.55,-28.17C128.43,-25.21 113.68,-22.12 100.43,-19.34"/>
<polygon fill="#63b8ff" stroke="#63b8ff" points="141.7,-31.57 152.2,-30.19 143.14,-24.72 141.7,-31.57"/>
</a>
</g>
</g>
<!-- Node3&#45;&gt;Node3 -->
<g id="edge3_Node000003_Node000003" class="edge">
<title>Node3&#45;&gt;Node3</title>
<g id="a_edge3_Node000003_Node000003"><a xlink:title=" ">
<path fill="none" stroke="#63b8ff" d="M81.36,-31.44C77.95,-35.3 69.12,-38 54.88,-38 28.82,-38 20.88,-28.98 31.06,-20.34"/>
<polygon fill="#63b8ff" stroke="#63b8ff" points="84.79,-30.71 79.04,-21.81 77.98,-32.35 84.79,-30.71"/>
</a>
</g>
</g>
</g>
</svg>
