<?xml version="1.0" encoding="UTF-8" standalone="no"?>
<!DOCTYPE svg PUBLIC "-//W3C//DTD SVG 1.1//EN"
 "http://www.w3.org/Graphics/SVG/1.1/DTD/svg11.dtd">
<!-- Generated by graphviz version 13.1.2 (20250808.2320)
 -->
<!-- Title: ynIUnknown::QueryInterface Pages: 1 -->
<svg width="444pt" height="28pt"
 viewBox="0.00 0.00 444.00 28.00" xmlns="http://www.w3.org/2000/svg" xmlns:xlink="http://www.w3.org/1999/xlink">
<g id="graph0" class="graph" transform="scale(1 1) rotate(0) translate(4 24)">
<title>ynIUnknown::QueryInterface</title>
<!-- Node1 -->
<g id="Node000001" class="node">
<title>Node1</title>
<g id="a_Node000001"><a xlink:title="지정 ID 의 인터페이스 획득.">
<polygon fill="#999999" stroke="#666666" points="141.25,-20 0,-20 0,0 141.25,0 141.25,-20"/>
<text xml:space="preserve" text-anchor="middle" x="70.62" y="-6.5" font-family="Helvetica,sans-Serif" font-size="10.00">ynIUnknown::QueryInterface</text>
</a>
</g>
</g>
<!-- Node2 -->
<g id="Node000002" class="node">
<title>Node2</title>
<g id="a_Node000002"><a xlink:href="a00280_a721518b0e07c2955201ae1deabe7f407.html#a721518b0e07c2955201ae1deabe7f407" target="_top" xlink:title="참조 카운트 증가+1">
<polygon fill="white" stroke="#666666" points="287,-20 177.25,-20 177.25,0 287,0 287,-20"/>
<text xml:space="preserve" text-anchor="middle" x="232.12" y="-6.5" font-family="Helvetica,sans-Serif" font-size="10.00">ynIUnknown::AddRef</text>
</a>
</g>
</g>
<!-- Node1&#45;&gt;Node2 -->
<g id="edge1_Node000001_Node000002" class="edge">
<title>Node1&#45;&gt;Node2</title>
<g id="a_edge1_Node000001_Node000002"><a xlink:title=" ">
<path fill="none" stroke="#63b8ff" d="M141.58,-10C149.57,-10 157.69,-10 165.61,-10"/>
<polygon fill="#63b8ff" stroke="#63b8ff" points="165.53,-13.5 175.53,-10 165.53,-6.5 165.53,-13.5"/>
</a>
</g>
</g>
<!-- Node3 -->
<g id="Node000003" class="node">
<title>Node3</title>
<g id="a_Node000003"><a xlink:href="a00280_a4775b6f28ae9fb0ef8945d6aa82272d7.html#a4775b6f28ae9fb0ef8945d6aa82272d7" target="_top" xlink:title="참조 카운트 감소&#45;1, 0 이되면 객체 제거">
<polygon fill="white" stroke="#666666" points="435.75,-20 323,-20 323,0 435.75,0 435.75,-20"/>
<text xml:space="preserve" text-anchor="middle" x="379.38" y="-6.5" font-family="Helvetica,sans-Serif" font-size="10.00">ynIUnknown::Release</text>
</a>
</g>
</g>
<!-- Node2&#45;&gt;Node3 -->
<g id="edge2_Node000002_Node000003" class="edge">
<title>Node2&#45;&gt;Node3</title>
<g id="a_edge2_Node000002_Node000003"><a xlink:title=" ">
<path fill="none" stroke="#63b8ff" d="M287.21,-10C295.11,-10 303.31,-10 311.43,-10"/>
<polygon fill="#63b8ff" stroke="#63b8ff" points="311.28,-13.5 321.28,-10 311.28,-6.5 311.28,-13.5"/>
</a>
</g>
</g>
</g>
</svg>
