<?xml version="1.0" encoding="UTF-8" standalone="no"?>
<!DOCTYPE svg PUBLIC "-//W3C//DTD SVG 1.1//EN"
 "http://www.w3.org/Graphics/SVG/1.1/DTD/svg11.dtd">
<!-- Generated by graphviz version 13.1.2 (20250808.2320)
 -->
<!-- Title: YENA::ynGrid::GRIDINFO Pages: 1 -->
<svg width="142pt" height="159pt"
 viewBox="0.00 0.00 142.00 159.00" xmlns="http://www.w3.org/2000/svg" xmlns:xlink="http://www.w3.org/1999/xlink">
<g id="graph0" class="graph" transform="scale(1 1) rotate(0) translate(4 155)">
<title>YENA::ynGrid::GRIDINFO</title>
<!-- Node1 -->
<g id="Node000001" class="node">
<title>Node1</title>
<g id="a_Node000001"><a xlink:title=" ">
<polygon fill="#999999" stroke="#666666" points="133.75,-20 0,-20 0,0 133.75,0 133.75,-20"/>
<text xml:space="preserve" text-anchor="middle" x="66.88" y="-6.5" font-family="Helvetica,sans-Serif" font-size="10.00">YENA::ynGrid::GRIDINFO</text>
</a>
</g>
</g>
<!-- Node2 -->
<g id="Node000002" class="node">
<title>Node2</title>
<g id="a_Node000002"><a xlink:href="a00276.html" target="_top" xlink:title="컬러 클래스 : B3YCOLOR 확장 클래스">
<polygon fill="white" stroke="#666666" points="105.25,-94 28.5,-94 28.5,-74 105.25,-74 105.25,-94"/>
<text xml:space="preserve" text-anchor="middle" x="66.88" y="-80.5" font-family="Helvetica,sans-Serif" font-size="10.00">B3YXCOLOR</text>
</a>
</g>
</g>
<!-- Node2&#45;&gt;Node1 -->
<g id="edge1_Node000001_Node000002" class="edge">
<title>Node2&#45;&gt;Node1</title>
<g id="a_edge1_Node000001_Node000002"><a xlink:title=" ">
<path fill="none" stroke="#9a32cd" stroke-dasharray="5,2" d="M66.88,-62.18C66.88,-48.29 66.88,-30.71 66.88,-20.19"/>
<polygon fill="#9a32cd" stroke="#9a32cd" points="63.38,-62.07 66.88,-72.07 70.38,-62.07 63.38,-62.07"/>
</a>
</g>
<text xml:space="preserve" text-anchor="start" x="69.88" y="-43.5" font-family="Helvetica,sans-Serif" font-size="10.00" fill="grey">color</text>
</g>
<!-- Node3 -->
<g id="Node000003" class="node">
<title>Node3</title>
<g id="a_Node000003"><a xlink:href="a00272.html" target="_top" xlink:title=" ">
<polygon fill="white" stroke="#666666" points="101.88,-151 31.88,-151 31.88,-131 101.88,-131 101.88,-151"/>
<text xml:space="preserve" text-anchor="middle" x="66.88" y="-137.5" font-family="Helvetica,sans-Serif" font-size="10.00">B3YCOLOR</text>
</a>
</g>
</g>
<!-- Node3&#45;&gt;Node2 -->
<g id="edge2_Node000002_Node000003" class="edge">
<title>Node3&#45;&gt;Node2</title>
<g id="a_edge2_Node000002_Node000003"><a xlink:title=" ">
<path fill="none" stroke="#63b8ff" d="M66.88,-119.69C66.88,-110.97 66.88,-101.22 66.88,-94.28"/>
<polygon fill="#63b8ff" stroke="#63b8ff" points="63.38,-119.4 66.88,-129.4 70.38,-119.4 63.38,-119.4"/>
</a>
</g>
</g>
</g>
</svg>
