<?xml version="1.0" encoding="UTF-8" standalone="no"?>
<!DOCTYPE svg PUBLIC "-//W3C//DTD SVG 1.1//EN"
 "http://www.w3.org/Graphics/SVG/1.1/DTD/svg11.dtd">
<!-- Generated by graphviz version 13.1.2 (20250808.2320)
 -->
<!-- Title: YENA::ynGrid Pages: 1 -->
<!--zoomable 203 -->

<svg id="main" version="1.1" xmlns="http://www.w3.org/2000/svg" xmlns:xlink="http://www.w3.org/1999/xlink" xml:space="preserve" onload="init(evt)">

<style type="text/css"><![CDATA[
.node, .edge {opacity: 0.7;}
.node.selected, .edge.selected {opacity: 1;}
.edge:hover path { stroke: red; }
.edge:hover polygon { stroke: red; fill: red; }
]]></style>

<defs>
  <circle id="rim" cx="0" cy="0" r="7"/>
  <circle id="rim2" cx="0" cy="0" r="3.5"/>
  <g id="zoomPlus">
    <use xlink:href="#rim" fill="#404040"><set attributeName="fill" to="#808080" begin="zoomplus.mouseover" end="zoomplus.mouseout"/></use>
    <path d="M-4,0h8M0,-4v8" fill="none" stroke="white" stroke-width="1.5" pointer-events="none"/>
  </g>
  <g id="zoomMin">
    <use xlink:href="#rim" fill="#404040"><set attributeName="fill" to="#808080" begin="zoomminus.mouseover" end="zoomminus.mouseout"/></use>
    <path d="M-4,0h8" fill="none" stroke="white" stroke-width="1.5" pointer-events="none"/>
  </g>
  <g id="arrowUp" transform="translate(30 24)">
    <use xlink:href="#rim"/>
    <path pointer-events="none" fill="none" stroke="white" stroke-width="1.5" d="M0,-3.0v7 M-2.5,-0.5L0,-3.0L2.5,-0.5"/>
  </g>
  <g id="arrowRight" transform="rotate(90) translate(36 -43)">
    <use xlink:href="#rim"/>
    <path pointer-events="none" fill="none" stroke="white" stroke-width="1.5" d="M0,-3.0v7 M-2.5,-0.5L0,-3.0L2.5,-0.5"/>
  </g>
  <g id="arrowDown" transform="rotate(180) translate(-30 -48)">
    <use xlink:href="#rim"/>
    <path pointer-events="none" fill="none" stroke="white" stroke-width="1.5" d="M0,-3.0v7 M-2.5,-0.5L0,-3.0L2.5,-0.5"/>
  </g>
  <g id="arrowLeft" transform="rotate(270) translate(-36 17)">
    <use xlink:href="#rim"/>
    <path pointer-events="none" fill="none" stroke="white" stroke-width="1.5" d="M0,-3.0v7 M-2.5,-0.5L0,-3.0L2.5,-0.5"/>
  </g>
  <g id="resetDef">
    <use xlink:href="#rim2" fill="#404040"><set attributeName="fill" to="#808080" begin="reset.mouseover" end="reset.mouseout"/></use>
  </g>
</defs>
<script type="application/ecmascript">
var viewWidth = 625;
var viewHeight = 203;
var sectionId = 'dynsection-0';
</script>
<script type="application/ecmascript" xlink:href="svg.min.js"/>
<svg id="graph" class="graph">
<g id="viewport">
<title>YENA::ynGrid</title>
<!-- Node1 -->
<g id="Node000001" class="node">
<title>Node1</title>
<g id="a_Node000001"><a xlink:title="그리드 : 공간 격자 클래스">
<polygon fill="#999999" stroke="#666666" points="617.25,-102 539,-102 539,-82 617.25,-82 617.25,-102"/>
<text xml:space="preserve" text-anchor="middle" x="578.12" y="-88.5" font-family="Helvetica,sans-Serif" font-size="10.00">YENA::ynGrid</text>
</a>
</g>
</g>
<!-- Node2 -->
<g id="Node000002" class="node">
<title>Node2</title>
<g id="a_Node000002"><a xlink:href="a00296.html" target="_top" xlink:title="Yena 렌더링 디바이스 운용 인터페이스 : IDirect3DDevice9 대응">
<polygon fill="white" stroke="#666666" points="302.5,-185 225.75,-185 225.75,-165 302.5,-165 302.5,-185"/>
<text xml:space="preserve" text-anchor="middle" x="264.12" y="-171.5" font-family="Helvetica,sans-Serif" font-size="10.00">IYenaDevice9</text>
</a>
</g>
</g>
<!-- Node2&#45;&gt;Node1 -->
<g id="edge1_Node000001_Node000002" class="edge">
<title>Node2&#45;&gt;Node1</title>
<g id="a_edge1_Node000001_Node000002"><a xlink:title=" ">
<path fill="none" stroke="#9a32cd" stroke-dasharray="5,2" d="M314.08,-177.09C367.37,-177.49 453.94,-172.59 521,-142 540.95,-132.9 558.88,-114.21 568.86,-102.44"/>
<polygon fill="#9a32cd" stroke="#9a32cd" points="314.15,-173.59 304.09,-176.94 314.04,-180.59 314.15,-173.59"/>
</a>
</g>
<text xml:space="preserve" text-anchor="start" x="369.38" y="-182.61" font-family="Helvetica,sans-Serif" font-size="10.00" fill="grey">m_pDev</text>
</g>
<!-- Node3 -->
<g id="Node000003" class="node">
<title>Node3</title>
<g id="a_Node000003"><a xlink:href="a00280.html" target="_top" xlink:title="Yena SWR COM 최상위 인터페이스 &lt;간략&gt;">
<polygon fill="white" stroke="#666666" points="76.38,-165 5.62,-165 5.62,-145 76.38,-145 76.38,-165"/>
<text xml:space="preserve" text-anchor="middle" x="41" y="-151.5" font-family="Helvetica,sans-Serif" font-size="10.00">ynIUnknown</text>
</a>
</g>
</g>
<!-- Node3&#45;&gt;Node2 -->
<g id="edge2_Node000002_Node000003" class="edge">
<title>Node3&#45;&gt;Node2</title>
<g id="a_edge2_Node000002_Node000003"><a xlink:title=" ">
<path fill="none" stroke="#63b8ff" d="M87.79,-159.14C128.54,-162.83 187.42,-168.15 225.49,-171.6"/>
<polygon fill="#63b8ff" stroke="#63b8ff" points="88.33,-155.68 78.06,-158.26 87.7,-162.65 88.33,-155.68"/>
</a>
</g>
</g>
<!-- Node5 -->
<g id="Node000005" class="node">
<title>Node5</title>
<g id="a_Node000005"><a xlink:href="a00284.html" target="_top" xlink:title="렌더링 자원 기반 인터페이스 : IDirect3DResource9 대응">
<polygon fill="white" stroke="#666666" points="207.38,-142 119.38,-142 119.38,-122 207.38,-122 207.38,-142"/>
<text xml:space="preserve" text-anchor="middle" x="163.38" y="-128.5" font-family="Helvetica,sans-Serif" font-size="10.00">IYenaResource9</text>
</a>
</g>
</g>
<!-- Node3&#45;&gt;Node5 -->
<g id="edge5_Node000005_Node000003" class="edge">
<title>Node3&#45;&gt;Node5</title>
<g id="a_edge5_Node000005_Node000003"><a xlink:title=" ">
<path fill="none" stroke="#63b8ff" d="M88.02,-146.21C98.22,-144.26 108.99,-142.2 119.07,-140.27"/>
<polygon fill="#63b8ff" stroke="#63b8ff" points="87.47,-142.75 78.3,-148.06 88.78,-149.62 87.47,-142.75"/>
</a>
</g>
</g>
<!-- Node4 -->
<g id="Node000004" class="node">
<title>Node4</title>
<g id="a_Node000004"><a xlink:href="a00288.html" target="_top" xlink:title="정점 버퍼 운용 인터페이스 : IDirect3DVertexBuffer9 대응">
<polygon fill="white" stroke="#666666" points="437.38,-140 338.12,-140 338.12,-120 437.38,-120 437.38,-140"/>
<text xml:space="preserve" text-anchor="middle" x="387.75" y="-126.5" font-family="Helvetica,sans-Serif" font-size="10.00">IYenaVertexBuffer9</text>
</a>
</g>
</g>
<!-- Node4&#45;&gt;Node1 -->
<g id="edge3_Node000001_Node000004" class="edge">
<title>Node4&#45;&gt;Node1</title>
<g id="a_edge3_Node000001_Node000004"><a xlink:title=" ">
<path fill="none" stroke="#9a32cd" stroke-dasharray="5,2" d="M449.04,-123.71C471.77,-120.72 497.74,-116.56 521,-111 530.41,-108.75 540.47,-105.59 549.44,-102.5"/>
<polygon fill="#9a32cd" stroke="#9a32cd" points="448.82,-120.21 439.33,-124.94 449.69,-127.16 448.82,-120.21"/>
</a>
</g>
<text xml:space="preserve" text-anchor="start" x="480.88" y="-125.58" font-family="Helvetica,sans-Serif" font-size="10.00" fill="grey">m_pVB</text>
</g>
<!-- Node5&#45;&gt;Node4 -->
<g id="edge4_Node000004_Node000005" class="edge">
<title>Node5&#45;&gt;Node4</title>
<g id="a_edge4_Node000004_Node000005"><a xlink:title=" ">
<path fill="none" stroke="#63b8ff" d="M219.14,-131.51C255.42,-131.18 302.59,-130.76 337.65,-130.44"/>
<polygon fill="#63b8ff" stroke="#63b8ff" points="219.26,-128.01 209.29,-131.6 219.32,-135.01 219.26,-128.01"/>
</a>
</g>
</g>
<!-- Node6 -->
<g id="Node000006" class="node">
<title>Node6</title>
<g id="a_Node000006"><a xlink:href="a00220.html" target="_top" xlink:title=" ">
<polygon fill="white" stroke="#666666" points="455,-102 320.5,-102 320.5,-82 455,-82 455,-102"/>
<text xml:space="preserve" text-anchor="middle" x="387.75" y="-88.5" font-family="Helvetica,sans-Serif" font-size="10.00">YENA::ynGrid::VTX_GRID</text>
</a>
</g>
</g>
<!-- Node6&#45;&gt;Node1 -->
<g id="edge6_Node000001_Node000006" class="edge">
<title>Node6&#45;&gt;Node1</title>
<g id="a_edge6_Node000001_Node000006"><a xlink:title=" ">
<path fill="none" stroke="#9a32cd" stroke-dasharray="5,2" d="M466.68,-92C491.46,-92 517.79,-92 538.52,-92"/>
<polygon fill="#9a32cd" stroke="#9a32cd" points="466.94,-88.5 456.94,-92 466.94,-95.5 466.94,-88.5"/>
</a>
</g>
<text xml:space="preserve" text-anchor="start" x="476" y="-97.5" font-family="Helvetica,sans-Serif" font-size="10.00" fill="grey">m_pGrids</text>
</g>
<!-- Node7 -->
<g id="Node000007" class="node">
<title>Node7</title>
<g id="a_Node000007"><a xlink:href="a00248.html" target="_top" xlink:title="벡터 클래스 (3성분)">
<polygon fill="white" stroke="#666666" points="207.75,-102 119,-102 119,-82 207.75,-82 207.75,-102"/>
<text xml:space="preserve" text-anchor="middle" x="163.38" y="-88.5" font-family="Helvetica,sans-Serif" font-size="10.00">B3YXVECTOR3</text>
</a>
</g>
</g>
<!-- Node7&#45;&gt;Node6 -->
<g id="edge7_Node000006_Node000007" class="edge">
<title>Node7&#45;&gt;Node6</title>
<g id="a_edge7_Node000006_Node000007"><a xlink:title=" ">
<path fill="none" stroke="#9a32cd" stroke-dasharray="5,2" d="M219.35,-92C249.92,-92 288.17,-92 320.39,-92"/>
<polygon fill="#9a32cd" stroke="#9a32cd" points="219.56,-88.5 209.56,-92 219.56,-95.5 219.56,-88.5"/>
</a>
</g>
<text xml:space="preserve" text-anchor="start" x="252.88" y="-97.5" font-family="Helvetica,sans-Serif" font-size="10.00" fill="grey">vPos</text>
</g>
<!-- Node8 -->
<g id="Node000008" class="node">
<title>Node8</title>
<g id="a_Node000008"><a xlink:href="a00236.html" target="_top" xlink:title=" ">
<polygon fill="white" stroke="#666666" points="82,-102 0,-102 0,-82 82,-82 82,-102"/>
<text xml:space="preserve" text-anchor="middle" x="41" y="-88.5" font-family="Helvetica,sans-Serif" font-size="10.00">B3YVECTOR3</text>
</a>
</g>
</g>
<!-- Node8&#45;&gt;Node7 -->
<g id="edge8_Node000007_Node000008" class="edge">
<title>Node8&#45;&gt;Node7</title>
<g id="a_edge8_Node000007_Node000008"><a xlink:title=" ">
<path fill="none" stroke="#63b8ff" d="M93.85,-92C102.08,-92 110.53,-92 118.55,-92"/>
<polygon fill="#63b8ff" stroke="#63b8ff" points="93.93,-88.5 83.93,-92 93.93,-95.5 93.93,-88.5"/>
</a>
</g>
</g>
<!-- Node9 -->
<g id="Node000009" class="node">
<title>Node9</title>
<g id="a_Node000009"><a xlink:href="a00268.html" target="_top" xlink:title="\u{2b50} 행렬 클래스">
<polygon fill="white" stroke="#666666" points="427.25,-61 348.25,-61 348.25,-41 427.25,-41 427.25,-61"/>
<text xml:space="preserve" text-anchor="middle" x="387.75" y="-47.5" font-family="Helvetica,sans-Serif" font-size="10.00">B3YXMATRIX</text>
</a>
</g>
</g>
<!-- Node9&#45;&gt;Node1 -->
<g id="edge9_Node000001_Node000009" class="edge">
<title>Node9&#45;&gt;Node1</title>
<g id="a_edge9_Node000001_Node000009"><a xlink:title=" ">
<path fill="none" stroke="#9a32cd" stroke-dasharray="5,2" d="M439.1,-55.47C464.01,-58.38 494.38,-62.97 521,-70 532.13,-72.94 544.06,-77.41 554.04,-81.56"/>
<polygon fill="#9a32cd" stroke="#9a32cd" points="439.53,-52 429.21,-54.38 438.76,-58.95 439.53,-52"/>
</a>
</g>
<text xml:space="preserve" text-anchor="start" x="479" y="-75.5" font-family="Helvetica,sans-Serif" font-size="10.00" fill="grey">m_mTM</text>
</g>
<!-- Node10 -->
<g id="Node000010" class="node">
<title>Node10</title>
<g id="a_Node000010"><a xlink:href="a00256.html" target="_top" xlink:title="\u{2b50} 행렬 구조체">
<polygon fill="white" stroke="#666666" points="199.5,-61 127.25,-61 127.25,-41 199.5,-41 199.5,-61"/>
<text xml:space="preserve" text-anchor="middle" x="163.38" y="-47.5" font-family="Helvetica,sans-Serif" font-size="10.00">B3YMATRIX</text>
</a>
</g>
</g>
<!-- Node10&#45;&gt;Node9 -->
<g id="edge10_Node000009_Node000010" class="edge">
<title>Node10&#45;&gt;Node9</title>
<g id="a_edge10_Node000009_Node000010"><a xlink:title=" ">
<path fill="none" stroke="#63b8ff" d="M211.09,-51C251.7,-51 309.85,-51 347.94,-51"/>
<polygon fill="#63b8ff" stroke="#63b8ff" points="211.12,-47.5 201.12,-51 211.12,-54.5 211.12,-47.5"/>
</a>
</g>
</g>
<!-- Node11 -->
<g id="Node000011" class="node">
<title>Node11</title>
<g id="a_Node000011"><a xlink:href="a00224.html" target="_top" xlink:title=" ">
<polygon fill="white" stroke="#666666" points="454.62,-20 320.88,-20 320.88,0 454.62,0 454.62,-20"/>
<text xml:space="preserve" text-anchor="middle" x="387.75" y="-6.5" font-family="Helvetica,sans-Serif" font-size="10.00">YENA::ynGrid::GRIDINFO</text>
</a>
</g>
</g>
<!-- Node11&#45;&gt;Node1 -->
<g id="edge11_Node000001_Node000011" class="edge">
<title>Node11&#45;&gt;Node1</title>
<g id="a_edge11_Node000001_Node000011"><a xlink:title=" ">
<path fill="none" stroke="#9a32cd" stroke-dasharray="5,2" d="M466.03,-18.87C484.74,-23.01 504.18,-29.08 521,-38 541.55,-48.89 559.82,-69.52 569.6,-81.89"/>
<polygon fill="#9a32cd" stroke="#9a32cd" points="466.79,-15.45 456.29,-16.89 465.4,-22.31 466.79,-15.45"/>
</a>
</g>
<text xml:space="preserve" text-anchor="start" x="482" y="-43.5" font-family="Helvetica,sans-Serif" font-size="10.00" fill="grey">m_Info</text>
</g>
<!-- Node12 -->
<g id="Node000012" class="node">
<title>Node12</title>
<g id="a_Node000012"><a xlink:href="a00276.html" target="_top" xlink:title="컬러 클래스 : B3YCOLOR 확장 클래스">
<polygon fill="white" stroke="#666666" points="201.75,-20 125,-20 125,0 201.75,0 201.75,-20"/>
<text xml:space="preserve" text-anchor="middle" x="163.38" y="-6.5" font-family="Helvetica,sans-Serif" font-size="10.00">B3YXCOLOR</text>
</a>
</g>
</g>
<!-- Node12&#45;&gt;Node11 -->
<g id="edge12_Node000011_Node000012" class="edge">
<title>Node12&#45;&gt;Node11</title>
<g id="a_edge12_Node000011_Node000012"><a xlink:title=" ">
<path fill="none" stroke="#9a32cd" stroke-dasharray="5,2" d="M213.22,-10C244.69,-10 286.02,-10 320.45,-10"/>
<polygon fill="#9a32cd" stroke="#9a32cd" points="213.61,-6.5 203.61,-10 213.61,-13.5 213.61,-6.5"/>
</a>
</g>
<text xml:space="preserve" text-anchor="start" x="253.62" y="-15.5" font-family="Helvetica,sans-Serif" font-size="10.00" fill="grey">color</text>
</g>
<!-- Node13 -->
<g id="Node000013" class="node">
<title>Node13</title>
<g id="a_Node000013"><a xlink:href="a00272.html" target="_top" xlink:title=" ">
<polygon fill="white" stroke="#666666" points="76,-20 6,-20 6,0 76,0 76,-20"/>
<text xml:space="preserve" text-anchor="middle" x="41" y="-6.5" font-family="Helvetica,sans-Serif" font-size="10.00">B3YCOLOR</text>
</a>
</g>
</g>
<!-- Node13&#45;&gt;Node12 -->
<g id="edge13_Node000012_Node000013" class="edge">
<title>Node13&#45;&gt;Node12</title>
<g id="a_edge13_Node000012_Node000013"><a xlink:title=" ">
<path fill="none" stroke="#63b8ff" d="M87.9,-10C100.13,-10 113.2,-10 124.93,-10"/>
<polygon fill="#63b8ff" stroke="#63b8ff" points="88.01,-6.5 78.01,-10 88.01,-13.5 88.01,-6.5"/>
</a>
</g>
</g>
</g>
</svg>

<g id="navigator" transform="translate(0 0)" fill="#404254">
  <rect fill="#f2f5e9" fill-opacity="0.5" stroke="#606060" stroke-width=".5" x="0" y="0" width="60" height="60"/>
  <use id="zoomplus" xlink:href="#zoomPlus" x="17" y="9" onmousedown="handleZoom(evt,'in')"/>
  <use id="zoomminus" xlink:href="#zoomMin" x="42" y="9" onmousedown="handleZoom(evt,'out')"/>
  <use id="reset" xlink:href="#resetDef" x="30" y="36" onmousedown="handleReset()"/>
   <use id="arrowup" xlink:href="#arrowUp" x="0" y="0" onmousedown="handlePan(0,-1)"/>
  <use id="arrowright" xlink:href="#arrowRight" x="0" y="0" onmousedown="handlePan(1,0)"/>
  <use id="arrowdown" xlink:href="#arrowDown" x="0" y="0" onmousedown="handlePan(0,1)"/>
  <use id="arrowleft" xlink:href="#arrowLeft" x="0" y="0" onmousedown="handlePan(-1,0)"/>
</g>
<svg viewBox="0 0 15 15" width="100%" height="30px" preserveAspectRatio="xMaxYMin meet">
 <g id="arrow_out" transform="scale(0.3 0.3)">
  <a xlink:href="a00214_org.svg" target="_base">
   <rect id="button" ry="5" rx="5" y="6" x="6" height="38" width="38"
        fill="#f2f5e9" fill-opacity="0.5" stroke="#606060" stroke-width="1.0"/>
   <path id="arrow"
     d="M 11.500037,31.436501 C 11.940474,20.09759 22.043105,11.32322 32.158766,21.979434 L 37.068811,17.246167 C 37.068811,17.246167 37.088388,32 37.088388,32 L 22.160133,31.978069 C 22.160133,31.978069 26.997745,27.140456 26.997745,27.140456 C 18.528582,18.264221 13.291696,25.230495 11.500037,31.436501 z"
     style="fill:#404040;"/>
  </a>
 </g>
</svg>

<style type='text/css'>
<![CDATA[
[data-mouse-over-selected='false'] { opacity: 0.7; }
[data-mouse-over-selected='true']  { opacity: 1.0; }
]]>
</style>
<script type="application/ecmascript"><![CDATA[
document.addEventListener('DOMContentLoaded', (event) => {
  highlightEdges();
  highlightAdjacentNodes();
});
]]></script>
</svg>
