<?xml version="1.0" encoding="UTF-8" standalone="no"?>
<!DOCTYPE svg PUBLIC "-//W3C//DTD SVG 1.1//EN"
 "http://www.w3.org/Graphics/SVG/1.1/DTD/svg11.dtd">
<!-- Generated by graphviz version 13.1.2 (20250808.2320)
 -->
<!-- Title: B3YenaVertexBuffer9::_Create Pages: 1 -->
<svg width="301pt" height="90pt"
 viewBox="0.00 0.00 301.00 90.00" xmlns="http://www.w3.org/2000/svg" xmlns:xlink="http://www.w3.org/1999/xlink">
<g id="graph0" class="graph" transform="scale(1 1) rotate(0) translate(4 86)">
<title>B3YenaVertexBuffer9::_Create</title>
<!-- Node1 -->
<g id="Node000001" class="node">
<title>Node1</title>
<g id="a_Node000001"><a xlink:title=" ">
<polygon fill="#999999" stroke="#666666" points="293,-57 184.75,-57 184.75,-25 293,-25 293,-57"/>
<text xml:space="preserve" text-anchor="start" x="192.75" y="-43.5" font-family="Helvetica,sans-Serif" font-size="10.00">B3YenaVertexBuffer9</text>
<text xml:space="preserve" text-anchor="middle" x="238.88" y="-31.5" font-family="Helvetica,sans-Serif" font-size="10.00">::_Create</text>
</a>
</g>
</g>
<!-- Node2 -->
<g id="Node000002" class="node">
<title>Node2</title>
<g id="a_Node000002"><a xlink:href="a00208_a31586053ab39b0119e6603bc745bb367.html#a31586053ab39b0119e6603bc745bb367" target="_top" xlink:title=" ">
<polygon fill="white" stroke="#666666" points="128.5,-82 20.25,-82 20.25,-50 128.5,-50 128.5,-82"/>
<text xml:space="preserve" text-anchor="start" x="28.25" y="-68.5" font-family="Helvetica,sans-Serif" font-size="10.00">B3YenaVertexBuffer9</text>
<text xml:space="preserve" text-anchor="middle" x="74.38" y="-56.5" font-family="Helvetica,sans-Serif" font-size="10.00">::_Create</text>
</a>
</g>
</g>
<!-- Node1&#45;&gt;Node2 -->
<g id="edge1_Node000001_Node000002" class="edge">
<title>Node1&#45;&gt;Node2</title>
<g id="a_edge1_Node000001_Node000002"><a xlink:title=" ">
<path fill="none" stroke="#63b8ff" d="M173.56,-50.89C158.79,-53.17 143.24,-55.56 128.98,-57.75"/>
<polygon fill="#63b8ff" stroke="#63b8ff" points="173.82,-54.4 183.17,-49.42 172.75,-47.48 173.82,-54.4"/>
</a>
</g>
</g>
<!-- Node3 -->
<g id="Node000003" class="node">
<title>Node3</title>
<g id="a_Node000003"><a xlink:href="a00160_a931f7df6ef6aa1d8a315d8685b52ee2b.html#a931f7df6ef6aa1d8a315d8685b52ee2b" target="_top" xlink:title=" ">
<polygon fill="white" stroke="#666666" points="148.75,-32 0,-32 0,0 148.75,0 148.75,-32"/>
<text xml:space="preserve" text-anchor="start" x="8" y="-18.5" font-family="Helvetica,sans-Serif" font-size="10.00">B3YenaDevice9::CreateVertex</text>
<text xml:space="preserve" text-anchor="middle" x="74.38" y="-6.5" font-family="Helvetica,sans-Serif" font-size="10.00">Buffer</text>
</a>
</g>
</g>
<!-- Node1&#45;&gt;Node3 -->
<g id="edge2_Node000001_Node000003" class="edge">
<title>Node1&#45;&gt;Node3</title>
<g id="a_edge2_Node000001_Node000003"><a xlink:title=" ">
<path fill="none" stroke="#63b8ff" d="M173.5,-31.1C165.47,-29.86 157.21,-28.59 149.06,-27.34"/>
<polygon fill="#63b8ff" stroke="#63b8ff" points="172.75,-34.52 183.17,-32.58 173.82,-27.6 172.75,-34.52"/>
</a>
</g>
</g>
</g>
</svg>
