<?xml version="1.0" encoding="UTF-8" standalone="no"?>
<!DOCTYPE svg PUBLIC "-//W3C//DTD SVG 1.1//EN"
 "http://www.w3.org/Graphics/SVG/1.1/DTD/svg11.dtd">
<!-- Generated by graphviz version 13.1.2 (20250808.2320)
 -->
<!-- Title: B3YenaVertexBuffer9::_Create Pages: 1 -->
<svg width="405pt" height="40pt"
 viewBox="0.00 0.00 405.00 40.00" xmlns="http://www.w3.org/2000/svg" xmlns:xlink="http://www.w3.org/1999/xlink">
<g id="graph0" class="graph" transform="scale(1 1) rotate(0) translate(4 36)">
<title>B3YenaVertexBuffer9::_Create</title>
<!-- Node1 -->
<g id="Node000001" class="node">
<title>Node1</title>
<g id="a_Node000001"><a xlink:title=" ">
<polygon fill="#999999" stroke="#666666" points="108.25,-32 0,-32 0,0 108.25,0 108.25,-32"/>
<text xml:space="preserve" text-anchor="start" x="8" y="-18.5" font-family="Helvetica,sans-Serif" font-size="10.00">B3YenaVertexBuffer9</text>
<text xml:space="preserve" text-anchor="middle" x="54.12" y="-6.5" font-family="Helvetica,sans-Serif" font-size="10.00">::_Create</text>
</a>
</g>
</g>
<!-- Node2 -->
<g id="Node000002" class="node">
<title>Node2</title>
<g id="a_Node000002"><a xlink:href="a00208_aa537dc57b7fc42e0f74180099de0d133.html#aa537dc57b7fc42e0f74180099de0d133" target="_top" xlink:title=" ">
<polygon fill="white" stroke="#666666" points="252.5,-32 144.25,-32 144.25,0 252.5,0 252.5,-32"/>
<text xml:space="preserve" text-anchor="start" x="152.25" y="-18.5" font-family="Helvetica,sans-Serif" font-size="10.00">B3YenaVertexBuffer9</text>
<text xml:space="preserve" text-anchor="middle" x="198.38" y="-6.5" font-family="Helvetica,sans-Serif" font-size="10.00">::_Create</text>
</a>
</g>
</g>
<!-- Node1&#45;&gt;Node2 -->
<g id="edge1_Node000001_Node000002" class="edge">
<title>Node1&#45;&gt;Node2</title>
<g id="a_edge1_Node000001_Node000002"><a xlink:title=" ">
<path fill="none" stroke="#63b8ff" d="M108.5,-16C116.43,-16 124.67,-16 132.8,-16"/>
<polygon fill="#63b8ff" stroke="#63b8ff" points="132.66,-19.5 142.66,-16 132.66,-12.5 132.66,-19.5"/>
</a>
</g>
</g>
<!-- Node3 -->
<g id="Node000003" class="node">
<title>Node3</title>
<g id="a_Node000003"><a xlink:href="a00208_a914f867a8cfc0e2574b369384dc1e3ba.html#a914f867a8cfc0e2574b369384dc1e3ba" target="_top" xlink:title=" ">
<polygon fill="white" stroke="#666666" points="396.75,-32 288.5,-32 288.5,0 396.75,0 396.75,-32"/>
<text xml:space="preserve" text-anchor="start" x="296.5" y="-18.5" font-family="Helvetica,sans-Serif" font-size="10.00">B3YenaVertexBuffer9</text>
<text xml:space="preserve" text-anchor="middle" x="342.62" y="-6.5" font-family="Helvetica,sans-Serif" font-size="10.00">::_GetVtxCnt</text>
</a>
</g>
</g>
<!-- Node2&#45;&gt;Node3 -->
<g id="edge2_Node000002_Node000003" class="edge">
<title>Node2&#45;&gt;Node3</title>
<g id="a_edge2_Node000002_Node000003"><a xlink:title=" ">
<path fill="none" stroke="#63b8ff" d="M252.75,-16C260.68,-16 268.92,-16 277.05,-16"/>
<polygon fill="#63b8ff" stroke="#63b8ff" points="276.91,-19.5 286.91,-16 276.91,-12.5 276.91,-19.5"/>
</a>
</g>
</g>
</g>
</svg>
