<?xml version="1.0" encoding="UTF-8" standalone="no"?>
<!DOCTYPE svg PUBLIC "-//W3C//DTD SVG 1.1//EN"
 "http://www.w3.org/Graphics/SVG/1.1/DTD/svg11.dtd">
<!-- Generated by graphviz version 13.1.2 (20250808.2320)
 -->
<!-- Title: B3YXCOLOR::B3YXCOLOR Pages: 1 -->
<svg width="312pt" height="142pt"
 viewBox="0.00 0.00 312.00 142.00" xmlns="http://www.w3.org/2000/svg" xmlns:xlink="http://www.w3.org/1999/xlink">

<svg id="main" version="1.1" xmlns="http://www.w3.org/2000/svg" xmlns:xlink="http://www.w3.org/1999/xlink" xml:space="preserve">

<style type="text/css"><![CDATA[
.node, .edge {opacity: 0.7;}
.node.selected, .edge.selected {opacity: 1;}
.edge:hover path { stroke: red; }
.edge:hover polygon { stroke: red; fill: red; }
]]></style>
<script type="application/ecmascript" xlink:href="svg.min.js"/>
<svg id="graph" class="graph">
<g id="graph0" class="graph" transform="scale(1 1) rotate(0) translate(4 138)">
<title>B3YXCOLOR::B3YXCOLOR</title>
<!-- Node1 -->
<g id="Node000001" class="node">
<title>Node1</title>
<g id="a_Node000001"><a xlink:title=" ">
<polygon fill="#999999" stroke="#666666" points="303.5,-77 160,-77 160,-57 303.5,-57 303.5,-77"/>
<text xml:space="preserve" text-anchor="middle" x="231.75" y="-63.5" font-family="Helvetica,sans-Serif" font-size="10.00">B3YXCOLOR::B3YXCOLOR</text>
</a>
</g>
</g>
<!-- Node2 -->
<g id="Node000002" class="node">
<title>Node2</title>
<g id="a_Node000002"><a xlink:href="a00276_ad511e65a53386b04f1ddef6d6ffaaa7a.html#ad511e65a53386b04f1ddef6d6ffaaa7a" target="_top" xlink:title="색상 채널별 곱셈.">
<polygon fill="white" stroke="#666666" points="122.88,-134 1.12,-134 1.12,-114 122.88,-114 122.88,-134"/>
<text xml:space="preserve" text-anchor="middle" x="62" y="-120.5" font-family="Helvetica,sans-Serif" font-size="10.00">B3YXCOLOR::operator*</text>
</a>
</g>
</g>
<!-- Node1&#45;&gt;Node2 -->
<g id="edge1_Node000001_Node000002" class="edge">
<title>Node1&#45;&gt;Node2</title>
<g id="a_edge1_Node000001_Node000002"><a xlink:title=" ">
<path fill="none" stroke="#63b8ff" d="M191.67,-81.34C171.52,-88.62 146.52,-97.49 124,-105 115.37,-107.88 106.01,-110.86 97.28,-113.59"/>
<polygon fill="#63b8ff" stroke="#63b8ff" points="192.68,-84.69 200.89,-77.99 190.3,-78.11 192.68,-84.69"/>
</a>
</g>
</g>
<!-- Node3 -->
<g id="Node000003" class="node">
<title>Node3</title>
<g id="a_Node000003"><a xlink:href="a00276_a11b6ee176a653c90453a3c86093053b4.html#a11b6ee176a653c90453a3c86093053b4" target="_top" xlink:title="색상 스칼라 곱.:">
<polygon fill="white" stroke="#666666" points="122.88,-96 1.12,-96 1.12,-76 122.88,-76 122.88,-96"/>
<text xml:space="preserve" text-anchor="middle" x="62" y="-82.5" font-family="Helvetica,sans-Serif" font-size="10.00">B3YXCOLOR::operator*</text>
</a>
</g>
</g>
<!-- Node1&#45;&gt;Node3 -->
<g id="edge2_Node000001_Node000003" class="edge">
<title>Node1&#45;&gt;Node3</title>
<g id="a_edge2_Node000001_Node000003"><a xlink:title=" ">
<path fill="none" stroke="#63b8ff" d="M148.44,-76.32C139.91,-77.29 131.35,-78.26 123.13,-79.19"/>
<polygon fill="#63b8ff" stroke="#63b8ff" points="148.56,-79.83 158.1,-75.23 147.77,-72.88 148.56,-79.83"/>
</a>
</g>
</g>
<!-- Node4 -->
<g id="Node000004" class="node">
<title>Node4</title>
<g id="a_Node000004"><a xlink:href="a00276_a6e54e77736a85f59d4d8648a25413abb.html#a6e54e77736a85f59d4d8648a25413abb" target="_top" xlink:title="색상 혼합.">
<polygon fill="white" stroke="#666666" points="124,-58 0,-58 0,-38 124,-38 124,-58"/>
<text xml:space="preserve" text-anchor="middle" x="62" y="-44.5" font-family="Helvetica,sans-Serif" font-size="10.00">B3YXCOLOR::operator+</text>
</a>
</g>
</g>
<!-- Node1&#45;&gt;Node4 -->
<g id="edge3_Node000001_Node000004" class="edge">
<title>Node1&#45;&gt;Node4</title>
<g id="a_edge3_Node000001_Node000004"><a xlink:title=" ">
<path fill="none" stroke="#63b8ff" d="M148.29,-57.66C140.26,-56.75 132.21,-55.84 124.44,-54.96"/>
<polygon fill="#63b8ff" stroke="#63b8ff" points="147.77,-61.12 158.1,-58.77 148.56,-54.17 147.77,-61.12"/>
</a>
</g>
</g>
<!-- Node5 -->
<g id="Node000005" class="node">
<title>Node5</title>
<g id="a_Node000005"><a xlink:href="a00276_aab5fd5f0246eb37e12aff326df9bb20a.html#aab5fd5f0246eb37e12aff326df9bb20a" target="_top" xlink:title="색상 뺄셈.">
<polygon fill="white" stroke="#666666" points="122.5,-20 1.5,-20 1.5,0 122.5,0 122.5,-20"/>
<text xml:space="preserve" text-anchor="middle" x="62" y="-6.5" font-family="Helvetica,sans-Serif" font-size="10.00">B3YXCOLOR::operator&#45;</text>
</a>
</g>
</g>
<!-- Node1&#45;&gt;Node5 -->
<g id="edge4_Node000001_Node000005" class="edge">
<title>Node1&#45;&gt;Node5</title>
<g id="a_edge4_Node000001_Node000005"><a xlink:title=" ">
<path fill="none" stroke="#63b8ff" d="M191.67,-52.66C171.52,-45.38 146.52,-36.51 124,-29 115.37,-26.12 106.01,-23.14 97.28,-20.41"/>
<polygon fill="#63b8ff" stroke="#63b8ff" points="190.3,-55.89 200.89,-56.01 192.68,-49.31 190.3,-55.89"/>
</a>
</g>
</g>
</g>
</svg>
</svg>

<style type='text/css'>
<![CDATA[
[data-mouse-over-selected='false'] { opacity: 0.7; }
[data-mouse-over-selected='true']  { opacity: 1.0; }
]]>
</style>
<script type="application/ecmascript"><![CDATA[
document.addEventListener('DOMContentLoaded', (event) => {
  highlightEdges();
  highlightAdjacentNodes();
});
]]></script>
</svg>
