<?xml version="1.0" encoding="UTF-8" standalone="no"?>
<!DOCTYPE svg PUBLIC "-//W3C//DTD SVG 1.1//EN"
 "http://www.w3.org/Graphics/SVG/1.1/DTD/svg11.dtd">
<!-- Generated by graphviz version 13.1.2 (20250808.2320)
 -->
<!-- Title: YENA::ynGrid::Init Pages: 1 -->
<svg width="446pt" height="66pt"
 viewBox="0.00 0.00 446.00 66.00" xmlns="http://www.w3.org/2000/svg" xmlns:xlink="http://www.w3.org/1999/xlink">

<svg id="main" version="1.1" xmlns="http://www.w3.org/2000/svg" xmlns:xlink="http://www.w3.org/1999/xlink" xml:space="preserve">

<style type="text/css"><![CDATA[
.node, .edge {opacity: 0.7;}
.node.selected, .edge.selected {opacity: 1;}
.edge:hover path { stroke: red; }
.edge:hover polygon { stroke: red; fill: red; }
]]></style>
<script type="application/ecmascript" xlink:href="svg.min.js"/>
<svg id="graph" class="graph">
<g id="graph0" class="graph" transform="scale(1 1) rotate(0) translate(4 62)">
<title>YENA::ynGrid::Init</title>
<!-- Node1 -->
<g id="Node000001" class="node">
<title>Node1</title>
<g id="a_Node000001"><a xlink:title=" ">
<polygon fill="#999999" stroke="#666666" points="438.25,-39 340.5,-39 340.5,-19 438.25,-19 438.25,-39"/>
<text xml:space="preserve" text-anchor="middle" x="389.38" y="-25.5" font-family="Helvetica,sans-Serif" font-size="10.00">YENA::ynGrid::Init</text>
</a>
</g>
</g>
<!-- Node2 -->
<g id="Node000002" class="node">
<title>Node2</title>
<g id="a_Node000002"><a xlink:href="a00140_ga24c7dbebe357c67a5b80d1d84acd561c.html#ga24c7dbebe357c67a5b80d1d84acd561c" target="_top" xlink:title=" ">
<polygon fill="white" stroke="#666666" points="304.5,-58 197,-58 197,-38 304.5,-38 304.5,-58"/>
<text xml:space="preserve" text-anchor="middle" x="250.75" y="-44.5" font-family="Helvetica,sans-Serif" font-size="10.00">YENA::ynGridCreate</text>
</a>
</g>
</g>
<!-- Node1&#45;&gt;Node2 -->
<g id="edge1_Node000001_Node000002" class="edge">
<title>Node1&#45;&gt;Node2</title>
<g id="a_edge1_Node000001_Node000002"><a xlink:title=" ">
<path fill="none" stroke="#63b8ff" d="M328.92,-37.27C320.83,-38.39 312.56,-39.54 304.6,-40.65"/>
<polygon fill="#63b8ff" stroke="#63b8ff" points="329.28,-40.75 338.71,-35.91 328.32,-33.82 329.28,-40.75"/>
</a>
</g>
</g>
<!-- Node5 -->
<g id="Node000005" class="node">
<title>Node5</title>
<g id="a_Node000005"><a xlink:href="a00140_ga69eb43fe3ffc0c222ca937f013fb5652.html#ga69eb43fe3ffc0c222ca937f013fb5652" target="_top" xlink:title=" ">
<polygon fill="white" stroke="#666666" points="304.5,-20 197,-20 197,0 304.5,0 304.5,-20"/>
<text xml:space="preserve" text-anchor="middle" x="250.75" y="-6.5" font-family="Helvetica,sans-Serif" font-size="10.00">YENA::ynGridCreate</text>
</a>
</g>
</g>
<!-- Node1&#45;&gt;Node5 -->
<g id="edge4_Node000001_Node000005" class="edge">
<title>Node1&#45;&gt;Node5</title>
<g id="a_edge4_Node000001_Node000005"><a xlink:title=" ">
<path fill="none" stroke="#63b8ff" d="M328.92,-20.73C320.83,-19.61 312.56,-18.46 304.6,-17.35"/>
<polygon fill="#63b8ff" stroke="#63b8ff" points="328.32,-24.18 338.71,-22.09 329.28,-17.25 328.32,-24.18"/>
</a>
</g>
</g>
<!-- Node3 -->
<g id="Node000003" class="node">
<title>Node3</title>
<g id="a_Node000003"><a xlink:href="a00059_a57d51554e2556fddd2c6d059b69dc5cb.html#a57d51554e2556fddd2c6d059b69dc5cb" target="_top" xlink:title=" ">
<polygon fill="white" stroke="#666666" points="161,-58 90.25,-58 90.25,-38 161,-38 161,-58"/>
<text xml:space="preserve" text-anchor="middle" x="125.62" y="-44.5" font-family="Helvetica,sans-Serif" font-size="10.00">DataLoading</text>
</a>
</g>
</g>
<!-- Node2&#45;&gt;Node3 -->
<g id="edge2_Node000002_Node000003" class="edge">
<title>Node2&#45;&gt;Node3</title>
<g id="a_edge2_Node000002_Node000003"><a xlink:title=" ">
<path fill="none" stroke="#63b8ff" d="M185.5,-48C177.19,-48 168.95,-48 161.37,-48"/>
<polygon fill="#63b8ff" stroke="#63b8ff" points="185.31,-51.5 195.31,-48 185.31,-44.5 185.31,-51.5"/>
</a>
</g>
</g>
<!-- Node4 -->
<g id="Node000004" class="node">
<title>Node4</title>
<g id="a_Node000004"><a xlink:href="a00056_a1122673f59be78a3997ec7dd1c4688f9.html#a1122673f59be78a3997ec7dd1c4688f9" target="_top" xlink:title="애플리케이션 메인 함수.">
<polygon fill="white" stroke="#666666" points="54.25,-58 0,-58 0,-38 54.25,-38 54.25,-58"/>
<text xml:space="preserve" text-anchor="middle" x="27.12" y="-44.5" font-family="Helvetica,sans-Serif" font-size="10.00">WinMain</text>
</a>
</g>
</g>
<!-- Node3&#45;&gt;Node4 -->
<g id="edge3_Node000003_Node000004" class="edge">
<title>Node3&#45;&gt;Node4</title>
<g id="a_edge3_Node000003_Node000004"><a xlink:title=" ">
<path fill="none" stroke="#63b8ff" d="M78.44,-48C70.31,-48 62.1,-48 54.73,-48"/>
<polygon fill="#63b8ff" stroke="#63b8ff" points="78.27,-51.5 88.27,-48 78.27,-44.5 78.27,-51.5"/>
</a>
</g>
</g>
</g>
</svg>
</svg>

<style type='text/css'>
<![CDATA[
[data-mouse-over-selected='false'] { opacity: 0.7; }
[data-mouse-over-selected='true']  { opacity: 1.0; }
]]>
</style>
<script type="application/ecmascript"><![CDATA[
document.addEventListener('DOMContentLoaded', (event) => {
  highlightEdges();
  highlightAdjacentNodes();
});
]]></script>
</svg>
