<?xml version="1.0" encoding="UTF-8" standalone="no"?>
<!DOCTYPE svg PUBLIC "-//W3C//DTD SVG 1.1//EN"
 "http://www.w3.org/Graphics/SVG/1.1/DTD/svg11.dtd">
<!-- Generated by graphviz version 13.1.2 (20250808.2320)
 -->
<!-- Title: YENA::ynGrid::VTX_GRID Pages: 1 -->
<svg width="143pt" height="159pt"
 viewBox="0.00 0.00 143.00 159.00" xmlns="http://www.w3.org/2000/svg" xmlns:xlink="http://www.w3.org/1999/xlink">
<g id="graph0" class="graph" transform="scale(1 1) rotate(0) translate(4 155)">
<title>YENA::ynGrid::VTX_GRID</title>
<!-- Node1 -->
<g id="Node000001" class="node">
<title>Node1</title>
<g id="a_Node000001"><a xlink:title=" ">
<polygon fill="#999999" stroke="#666666" points="134.5,-20 0,-20 0,0 134.5,0 134.5,-20"/>
<text xml:space="preserve" text-anchor="middle" x="67.25" y="-6.5" font-family="Helvetica,sans-Serif" font-size="10.00">YENA::ynGrid::VTX_GRID</text>
</a>
</g>
</g>
<!-- Node2 -->
<g id="Node000002" class="node">
<title>Node2</title>
<g id="a_Node000002"><a xlink:href="a00248.html" target="_top" xlink:title="벡터 클래스 (3성분)">
<polygon fill="white" stroke="#666666" points="111.62,-94 22.88,-94 22.88,-74 111.62,-74 111.62,-94"/>
<text xml:space="preserve" text-anchor="middle" x="67.25" y="-80.5" font-family="Helvetica,sans-Serif" font-size="10.00">B3YXVECTOR3</text>
</a>
</g>
</g>
<!-- Node2&#45;&gt;Node1 -->
<g id="edge1_Node000001_Node000002" class="edge">
<title>Node2&#45;&gt;Node1</title>
<g id="a_edge1_Node000001_Node000002"><a xlink:title=" ">
<path fill="none" stroke="#9a32cd" stroke-dasharray="5,2" d="M67.25,-62.18C67.25,-48.29 67.25,-30.71 67.25,-20.19"/>
<polygon fill="#9a32cd" stroke="#9a32cd" points="63.75,-62.07 67.25,-72.07 70.75,-62.07 63.75,-62.07"/>
</a>
</g>
<text xml:space="preserve" text-anchor="start" x="70.25" y="-43.5" font-family="Helvetica,sans-Serif" font-size="10.00" fill="grey">vPos</text>
</g>
<!-- Node3 -->
<g id="Node000003" class="node">
<title>Node3</title>
<g id="a_Node000003"><a xlink:href="a00236.html" target="_top" xlink:title=" ">
<polygon fill="white" stroke="#666666" points="108.25,-151 26.25,-151 26.25,-131 108.25,-131 108.25,-151"/>
<text xml:space="preserve" text-anchor="middle" x="67.25" y="-137.5" font-family="Helvetica,sans-Serif" font-size="10.00">B3YVECTOR3</text>
</a>
</g>
</g>
<!-- Node3&#45;&gt;Node2 -->
<g id="edge2_Node000002_Node000003" class="edge">
<title>Node3&#45;&gt;Node2</title>
<g id="a_edge2_Node000002_Node000003"><a xlink:title=" ">
<path fill="none" stroke="#63b8ff" d="M67.25,-119.69C67.25,-110.97 67.25,-101.22 67.25,-94.28"/>
<polygon fill="#63b8ff" stroke="#63b8ff" points="63.75,-119.4 67.25,-129.4 70.75,-119.4 63.75,-119.4"/>
</a>
</g>
</g>
</g>
</svg>
