<?xml version="1.0" encoding="UTF-8" standalone="no"?>
<!DOCTYPE svg PUBLIC "-//W3C//DTD SVG 1.1//EN"
 "http://www.w3.org/Graphics/SVG/1.1/DTD/svg11.dtd">
<!-- Generated by graphviz version 13.1.2 (20250808.2320)
 -->
<!-- Title: ynIUnknown Pages: 1 -->
<svg width="482pt" height="294pt"
 viewBox="0.00 0.00 482.00 294.00" xmlns="http://www.w3.org/2000/svg" xmlns:xlink="http://www.w3.org/1999/xlink">

<svg id="main" version="1.1" xmlns="http://www.w3.org/2000/svg" xmlns:xlink="http://www.w3.org/1999/xlink" xml:space="preserve">

<style type="text/css"><![CDATA[
.node, .edge {opacity: 0.7;}
.node.selected, .edge.selected {opacity: 1;}
.edge:hover path { stroke: red; }
.edge:hover polygon { stroke: red; fill: red; }
]]></style>
<script type="application/ecmascript" xlink:href="svg.min.js"/>
<svg id="graph" class="graph">
<g id="graph0" class="graph" transform="scale(1 1) rotate(0) translate(4 290)">
<title>ynIUnknown</title>
<!-- Node1 -->
<g id="Node000001" class="node">
<title>Node1</title>
<g id="a_Node000001"><a xlink:title="Yena SWR COM 최상위 인터페이스 &lt;간략&gt;">
<polygon fill="#999999" stroke="#666666" points="70.75,-153 0,-153 0,-133 70.75,-133 70.75,-153"/>
<text xml:space="preserve" text-anchor="middle" x="35.38" y="-139.5" font-family="Helvetica,sans-Serif" font-size="10.00">ynIUnknown</text>
</a>
</g>
</g>
<!-- Node2 -->
<g id="Node000002" class="node">
<title>Node2</title>
<g id="a_Node000002"><a xlink:href="a00292.html" target="_top" xlink:title="Yena SWR 3D 운용 기반, 인터페이스 : IDirect3D9 대응">
<polygon fill="white" stroke="#666666" points="171.12,-286 130.38,-286 130.38,-266 171.12,-266 171.12,-286"/>
<text xml:space="preserve" text-anchor="middle" x="150.75" y="-272.5" font-family="Helvetica,sans-Serif" font-size="10.00">IYena</text>
</a>
</g>
</g>
<!-- Node1&#45;&gt;Node2 -->
<g id="edge1_Node000001_Node000002" class="edge">
<title>Node1&#45;&gt;Node2</title>
<g id="a_edge1_Node000001_Node000002"><a xlink:title=" ">
<path fill="none" stroke="#63b8ff" d="M44.6,-163.75C55.46,-188.82 76.78,-230.88 106.75,-257 113.39,-262.79 122.09,-267.08 129.91,-270.1"/>
<polygon fill="#63b8ff" stroke="#63b8ff" points="47.88,-162.53 40.81,-154.64 41.42,-165.22 47.88,-162.53"/>
</a>
</g>
</g>
<!-- Node4 -->
<g id="Node000004" class="node">
<title>Node4</title>
<g id="a_Node000004"><a xlink:href="a00300.html" target="_top" xlink:title=" ">
<polygon fill="white" stroke="#666666" points="191.75,-248 109.75,-248 109.75,-228 191.75,-228 191.75,-248"/>
<text xml:space="preserve" text-anchor="middle" x="150.75" y="-234.5" font-family="Helvetica,sans-Serif" font-size="10.00">IYenaDevice10</text>
</a>
</g>
</g>
<!-- Node1&#45;&gt;Node4 -->
<g id="edge3_Node000001_Node000004" class="edge">
<title>Node1&#45;&gt;Node4</title>
<g id="a_edge3_Node000001_Node000004"><a xlink:title=" ">
<path fill="none" stroke="#63b8ff" d="M50.52,-162.25C63.6,-179 84.36,-203.02 106.75,-219 111.27,-222.22 116.42,-225.08 121.55,-227.53"/>
<polygon fill="#63b8ff" stroke="#63b8ff" points="53.5,-160.4 44.66,-154.56 47.93,-164.63 53.5,-160.4"/>
</a>
</g>
</g>
<!-- Node5 -->
<g id="Node000005" class="node">
<title>Node5</title>
<g id="a_Node000005"><a xlink:href="a00304.html" target="_top" xlink:title=" ">
<polygon fill="white" stroke="#666666" points="191.38,-210 110.12,-210 110.12,-190 191.38,-190 191.38,-210"/>
<text xml:space="preserve" text-anchor="middle" x="150.75" y="-196.5" font-family="Helvetica,sans-Serif" font-size="10.00">IYenaDevice11</text>
</a>
</g>
</g>
<!-- Node1&#45;&gt;Node5 -->
<g id="edge4_Node000001_Node000005" class="edge">
<title>Node1&#45;&gt;Node5</title>
<g id="a_edge4_Node000001_Node000005"><a xlink:title=" ">
<path fill="none" stroke="#63b8ff" d="M64.7,-158.96C77.43,-165.96 92.72,-174.13 106.75,-181 112.76,-183.94 119.33,-186.95 125.49,-189.68"/>
<polygon fill="#63b8ff" stroke="#63b8ff" points="66.46,-155.93 56.01,-154.14 63.06,-162.05 66.46,-155.93"/>
</a>
</g>
</g>
<!-- Node6 -->
<g id="Node000006" class="node">
<title>Node6</title>
<g id="a_Node000006"><a xlink:href="a00308.html" target="_top" xlink:title=" ">
<polygon fill="white" stroke="#666666" points="191.75,-172 109.75,-172 109.75,-152 191.75,-152 191.75,-172"/>
<text xml:space="preserve" text-anchor="middle" x="150.75" y="-158.5" font-family="Helvetica,sans-Serif" font-size="10.00">IYenaDevice12</text>
</a>
</g>
</g>
<!-- Node1&#45;&gt;Node6 -->
<g id="edge5_Node000001_Node000006" class="edge">
<title>Node1&#45;&gt;Node6</title>
<g id="a_edge5_Node000001_Node000006"><a xlink:title=" ">
<path fill="none" stroke="#63b8ff" d="M82.14,-150.67C91.15,-152.18 100.55,-153.75 109.36,-155.23"/>
<polygon fill="#63b8ff" stroke="#63b8ff" points="82.94,-147.26 72.5,-149.05 81.78,-154.16 82.94,-147.26"/>
</a>
</g>
</g>
<!-- Node7 -->
<g id="Node000007" class="node">
<title>Node7</title>
<g id="a_Node000007"><a xlink:href="a00296.html" target="_top" xlink:title="Yena 렌더링 디바이스 운용 인터페이스 : IDirect3DDevice9 대응">
<polygon fill="white" stroke="#666666" points="189.12,-134 112.38,-134 112.38,-114 189.12,-114 189.12,-134"/>
<text xml:space="preserve" text-anchor="middle" x="150.75" y="-120.5" font-family="Helvetica,sans-Serif" font-size="10.00">IYenaDevice9</text>
</a>
</g>
</g>
<!-- Node1&#45;&gt;Node7 -->
<g id="edge6_Node000001_Node000007" class="edge">
<title>Node1&#45;&gt;Node7</title>
<g id="a_edge6_Node000001_Node000007"><a xlink:title=" ">
<path fill="none" stroke="#63b8ff" d="M82.36,-135.29C92.27,-133.63 102.63,-131.9 112.17,-130.3"/>
<polygon fill="#63b8ff" stroke="#63b8ff" points="81.78,-131.84 72.5,-136.95 82.94,-138.74 81.78,-131.84"/>
</a>
</g>
</g>
<!-- Node9 -->
<g id="Node000009" class="node">
<title>Node9</title>
<g id="a_Node000009"><a xlink:href="a00312.html" target="_top" xlink:title=" ">
<polygon fill="white" stroke="#666666" points="192.88,-96 108.62,-96 108.62,-76 192.88,-76 192.88,-96"/>
<text xml:space="preserve" text-anchor="middle" x="150.75" y="-82.5" font-family="Helvetica,sans-Serif" font-size="10.00">IYenaDeviceGL</text>
</a>
</g>
</g>
<!-- Node1&#45;&gt;Node9 -->
<g id="edge8_Node000001_Node000009" class="edge">
<title>Node1&#45;&gt;Node9</title>
<g id="a_edge8_Node000001_Node000009"><a xlink:title=" ">
<path fill="none" stroke="#63b8ff" d="M64.7,-127.04C77.43,-120.04 92.72,-111.87 106.75,-105 112.76,-102.06 119.33,-99.05 125.49,-96.32"/>
<polygon fill="#63b8ff" stroke="#63b8ff" points="63.06,-123.95 56.01,-131.86 66.46,-130.07 63.06,-123.95"/>
</a>
</g>
</g>
<!-- Node10 -->
<g id="Node000010" class="node">
<title>Node10</title>
<g id="a_Node000010"><a xlink:href="a00316.html" target="_top" xlink:title=" ">
<polygon fill="white" stroke="#666666" points="193.25,-58 108.25,-58 108.25,-38 193.25,-38 193.25,-58"/>
<text xml:space="preserve" text-anchor="middle" x="150.75" y="-44.5" font-family="Helvetica,sans-Serif" font-size="10.00">IYenaDeviceVK</text>
</a>
</g>
</g>
<!-- Node1&#45;&gt;Node10 -->
<g id="edge9_Node000001_Node000010" class="edge">
<title>Node1&#45;&gt;Node10</title>
<g id="a_edge9_Node000001_Node000010"><a xlink:title=" ">
<path fill="none" stroke="#63b8ff" d="M50.52,-123.75C63.6,-107 84.36,-82.98 106.75,-67 111.27,-63.78 116.42,-60.92 121.55,-58.47"/>
<polygon fill="#63b8ff" stroke="#63b8ff" points="47.93,-121.37 44.66,-131.44 53.5,-125.6 47.93,-121.37"/>
</a>
</g>
</g>
<!-- Node11 -->
<g id="Node000011" class="node">
<title>Node11</title>
<g id="a_Node000011"><a xlink:href="a00284.html" target="_top" xlink:title="렌더링 자원 기반 인터페이스 : IDirect3DResource9 대응">
<polygon fill="white" stroke="#666666" points="194.75,-20 106.75,-20 106.75,0 194.75,0 194.75,-20"/>
<text xml:space="preserve" text-anchor="middle" x="150.75" y="-6.5" font-family="Helvetica,sans-Serif" font-size="10.00">IYenaResource9</text>
</a>
</g>
</g>
<!-- Node1&#45;&gt;Node11 -->
<g id="edge10_Node000001_Node000011" class="edge">
<title>Node1&#45;&gt;Node11</title>
<g id="a_edge10_Node000001_Node000011"><a xlink:title=" ">
<path fill="none" stroke="#63b8ff" d="M44.6,-122.25C55.46,-97.18 76.78,-55.12 106.75,-29 110.56,-25.68 115.05,-22.85 119.67,-20.47"/>
<polygon fill="#63b8ff" stroke="#63b8ff" points="41.42,-120.78 40.81,-131.36 47.88,-123.47 41.42,-120.78"/>
</a>
</g>
</g>
<!-- Node3 -->
<g id="Node000003" class="node">
<title>Node3</title>
<g id="a_Node000003"><a xlink:href="a00156.html" target="_top" xlink:title="Yena 3D 운용 기반, 구현 클래스, IDirect3D9 대응">
<polygon fill="white" stroke="#666666" points="305.25,-286 255.5,-286 255.5,-266 305.25,-266 305.25,-286"/>
<text xml:space="preserve" text-anchor="middle" x="280.38" y="-272.5" font-family="Helvetica,sans-Serif" font-size="10.00">B3Yena</text>
</a>
</g>
</g>
<!-- Node2&#45;&gt;Node3 -->
<g id="edge2_Node000002_Node000003" class="edge">
<title>Node2&#45;&gt;Node3</title>
<g id="a_edge2_Node000002_Node000003"><a xlink:title=" ">
<path fill="none" stroke="#63b8ff" d="M182.92,-276C205.15,-276 234.62,-276 255.11,-276"/>
<polygon fill="#63b8ff" stroke="#63b8ff" points="182.93,-272.5 172.93,-276 182.93,-279.5 182.93,-272.5"/>
</a>
</g>
</g>
<!-- Node8 -->
<g id="Node000008" class="node">
<title>Node8</title>
<g id="a_Node000008"><a xlink:href="a00160.html" target="_top" xlink:title="Yena 렌더링 장치 Device 구현 클래스 : IDirect3DDevice9 대응">
<polygon fill="white" stroke="#666666" points="323.25,-134 237.5,-134 237.5,-114 323.25,-114 323.25,-134"/>
<text xml:space="preserve" text-anchor="middle" x="280.38" y="-120.5" font-family="Helvetica,sans-Serif" font-size="10.00">B3YenaDevice9</text>
</a>
</g>
</g>
<!-- Node7&#45;&gt;Node8 -->
<g id="edge7_Node000007_Node000008" class="edge">
<title>Node7&#45;&gt;Node8</title>
<g id="a_edge7_Node000007_Node000008"><a xlink:title=" ">
<path fill="none" stroke="#63b8ff" d="M200.6,-124C212.64,-124 225.43,-124 237.12,-124"/>
<polygon fill="#63b8ff" stroke="#63b8ff" points="200.87,-120.5 190.86,-124 200.86,-127.5 200.87,-120.5"/>
</a>
</g>
</g>
<!-- Node12 -->
<g id="Node000012" class="node">
<title>Node12</title>
<g id="a_Node000012"><a xlink:href="a00288.html" target="_top" xlink:title="정점 버퍼 운용 인터페이스 : IDirect3DVertexBuffer9 대응">
<polygon fill="white" stroke="#666666" points="330,-20 230.75,-20 230.75,0 330,0 330,-20"/>
<text xml:space="preserve" text-anchor="middle" x="280.38" y="-6.5" font-family="Helvetica,sans-Serif" font-size="10.00">IYenaVertexBuffer9</text>
</a>
</g>
</g>
<!-- Node11&#45;&gt;Node12 -->
<g id="edge11_Node000011_Node000012" class="edge">
<title>Node11&#45;&gt;Node12</title>
<g id="a_edge11_Node000011_Node000012"><a xlink:title=" ">
<path fill="none" stroke="#63b8ff" d="M206.46,-10C214.45,-10 222.64,-10 230.5,-10"/>
<polygon fill="#63b8ff" stroke="#63b8ff" points="206.47,-6.5 196.47,-10 206.47,-13.5 206.47,-6.5"/>
</a>
</g>
</g>
<!-- Node13 -->
<g id="Node000013" class="node">
<title>Node13</title>
<g id="a_Node000013"><a xlink:href="a00208.html" target="_top" xlink:title="정점 버퍼 구현 클래스 : IDirect3DVertexBuffer9 대응">
<polygon fill="white" stroke="#666666" points="474.25,-20 366,-20 366,0 474.25,0 474.25,-20"/>
<text xml:space="preserve" text-anchor="middle" x="420.12" y="-6.5" font-family="Helvetica,sans-Serif" font-size="10.00">B3YenaVertexBuffer9</text>
</a>
</g>
</g>
<!-- Node12&#45;&gt;Node13 -->
<g id="edge12_Node000012_Node000013" class="edge">
<title>Node12&#45;&gt;Node13</title>
<g id="a_edge12_Node000012_Node000013"><a xlink:title=" ">
<path fill="none" stroke="#63b8ff" d="M341.8,-10C349.74,-10 357.84,-10 365.65,-10"/>
<polygon fill="#63b8ff" stroke="#63b8ff" points="341.84,-6.5 331.84,-10 341.84,-13.5 341.84,-6.5"/>
</a>
</g>
</g>
</g>
</svg>
</svg>

<style type='text/css'>
<![CDATA[
[data-mouse-over-selected='false'] { opacity: 0.7; }
[data-mouse-over-selected='true']  { opacity: 1.0; }
]]>
</style>
<script type="application/ecmascript"><![CDATA[
document.addEventListener('DOMContentLoaded', (event) => {
  highlightEdges();
  highlightAdjacentNodes();
});
]]></script>
</svg>
