<?xml version="1.0" encoding="UTF-8" standalone="no"?>
<!DOCTYPE svg PUBLIC "-//W3C//DTD SVG 1.1//EN"
 "http://www.w3.org/Graphics/SVG/1.1/DTD/svg11.dtd">
<!-- Generated by graphviz version 13.1.2 (20250808.2320)
 -->
<!-- Title: IYena Pages: 1 -->
<svg width="79pt" height="140pt"
 viewBox="0.00 0.00 79.00 140.00" xmlns="http://www.w3.org/2000/svg" xmlns:xlink="http://www.w3.org/1999/xlink">
<g id="graph0" class="graph" transform="scale(1 1) rotate(0) translate(4 136)">
<title>IYena</title>
<!-- Node1 -->
<g id="Node000001" class="node">
<title>Node1</title>
<g id="a_Node000001"><a xlink:title="Yena SWR 3D 운용 기반, 인터페이스 : IDirect3D9 대응">
<polygon fill="#999999" stroke="#666666" points="55.75,-76 15,-76 15,-56 55.75,-56 55.75,-76"/>
<text xml:space="preserve" text-anchor="middle" x="35.38" y="-62.5" font-family="Helvetica,sans-Serif" font-size="10.00">IYena</text>
</a>
</g>
</g>
<!-- Node3 -->
<g id="Node000003" class="node">
<title>Node3</title>
<g id="a_Node000003"><a xlink:href="a00156.html" target="_top" xlink:title="Yena 3D 운용 기반, 구현 클래스, IDirect3D9 대응">
<polygon fill="white" stroke="#666666" points="60.25,-20 10.5,-20 10.5,0 60.25,0 60.25,-20"/>
<text xml:space="preserve" text-anchor="middle" x="35.38" y="-6.5" font-family="Helvetica,sans-Serif" font-size="10.00">B3Yena</text>
</a>
</g>
</g>
<!-- Node1&#45;&gt;Node3 -->
<g id="edge2_Node000001_Node000003" class="edge">
<title>Node1&#45;&gt;Node3</title>
<g id="a_edge2_Node000001_Node000003"><a xlink:title=" ">
<path fill="none" stroke="#63b8ff" d="M35.38,-44.13C35.38,-35.9 35.38,-26.85 35.38,-20.3"/>
<polygon fill="#63b8ff" stroke="#63b8ff" points="31.88,-44.08 35.38,-54.08 38.88,-44.08 31.88,-44.08"/>
</a>
</g>
</g>
<!-- Node2 -->
<g id="Node000002" class="node">
<title>Node2</title>
<g id="a_Node000002"><a xlink:href="a00280.html" target="_top" xlink:title="Yena SWR COM 최상위 인터페이스 &lt;간략&gt;">
<polygon fill="white" stroke="#666666" points="70.75,-132 0,-132 0,-112 70.75,-112 70.75,-132"/>
<text xml:space="preserve" text-anchor="middle" x="35.38" y="-118.5" font-family="Helvetica,sans-Serif" font-size="10.00">ynIUnknown</text>
</a>
</g>
</g>
<!-- Node2&#45;&gt;Node1 -->
<g id="edge1_Node000001_Node000002" class="edge">
<title>Node2&#45;&gt;Node1</title>
<g id="a_edge1_Node000001_Node000002"><a xlink:title=" ">
<path fill="none" stroke="#63b8ff" d="M35.38,-100.13C35.38,-91.9 35.38,-82.85 35.38,-76.3"/>
<polygon fill="#63b8ff" stroke="#63b8ff" points="31.88,-100.08 35.38,-110.08 38.88,-100.08 31.88,-100.08"/>
</a>
</g>
</g>
</g>
</svg>
