<?xml version="1.0" encoding="UTF-8" standalone="no"?>
<!DOCTYPE svg PUBLIC "-//W3C//DTD SVG 1.1//EN"
 "http://www.w3.org/Graphics/SVG/1.1/DTD/svg11.dtd">
<!-- Generated by graphviz version 12.2.0 (20241103.1931)
 -->
<!-- Title: B3YenaGraphicsEngine9::_VertexStreaming Pages: 1 -->
<svg width="276pt" height="178pt"
 viewBox="0.00 0.00 276.25 178.00" xmlns="http://www.w3.org/2000/svg" xmlns:xlink="http://www.w3.org/1999/xlink">
<g id="graph0" class="graph" transform="scale(1 1) rotate(0) translate(4 174)">
<title>B3YenaGraphicsEngine9::_VertexStreaming</title>
<!-- Node1 -->
<g id="Node000001" class="node">
<title>Node1</title>
<g id="a_Node000001"><a xlink:title=" ">
<polygon fill="#999999" stroke="#666666" points="124,-95 0,-95 0,-63 124,-63 124,-95"/>
<text text-anchor="start" x="8" y="-81.5" font-family="Helvetica,sans-Serif" font-size="10.00">B3YenaGraphicsEngine9</text>
<text text-anchor="middle" x="62" y="-69.5" font-family="Helvetica,sans-Serif" font-size="10.00">::_VertexStreaming</text>
</a>
</g>
</g>
<!-- Node2 -->
<g id="Node000002" class="node">
<title>Node2</title>
<g id="a_Node000002"><a xlink:href="class_b3_yena_vertex_buffer9_a45c22ed1a898dc2477cecafaee7faf1c.html#a45c22ed1a898dc2477cecafaee7faf1c" target="_top" xlink:title=" ">
<polygon fill="white" stroke="#666666" points="268.25,-170 160,-170 160,-138 268.25,-138 268.25,-170"/>
<text text-anchor="start" x="168" y="-156.5" font-family="Helvetica,sans-Serif" font-size="10.00">B3YenaVertexBuffer9</text>
<text text-anchor="middle" x="214.12" y="-144.5" font-family="Helvetica,sans-Serif" font-size="10.00">::_GetDiffuse</text>
</a>
</g>
</g>
<!-- Node1&#45;&gt;Node2 -->
<g id="edge1_Node000001_Node000002" class="edge">
<title>Node1&#45;&gt;Node2</title>
<g id="a_edge1_Node000001_Node000002"><a xlink:title=" ">
<path fill="none" stroke="#63b8ff" d="M93.87,-95.27C112.86,-105.19 137.74,-118.03 160,-129 162.39,-130.18 164.85,-131.38 167.33,-132.58"/>
<polygon fill="#63b8ff" stroke="#63b8ff" points="165.71,-135.68 176.24,-136.85 168.73,-129.37 165.71,-135.68"/>
</a>
</g>
</g>
<!-- Node3 -->
<g id="Node000003" class="node">
<title>Node3</title>
<g id="a_Node000003"><a xlink:href="class_b3_yena_vertex_buffer9_a44d8e8096b2847c77e3c24e34cd32ae6.html#a44d8e8096b2847c77e3c24e34cd32ae6" target="_top" xlink:title=" ">
<polygon fill="white" stroke="#666666" points="268.25,-120 160,-120 160,-88 268.25,-88 268.25,-120"/>
<text text-anchor="start" x="168" y="-106.5" font-family="Helvetica,sans-Serif" font-size="10.00">B3YenaVertexBuffer9</text>
<text text-anchor="middle" x="214.12" y="-94.5" font-family="Helvetica,sans-Serif" font-size="10.00">::_GetPos3</text>
</a>
</g>
</g>
<!-- Node1&#45;&gt;Node3 -->
<g id="edge2_Node000001_Node000003" class="edge">
<title>Node1&#45;&gt;Node3</title>
<g id="a_edge2_Node000001_Node000003"><a xlink:title=" ">
<path fill="none" stroke="#63b8ff" d="M124.49,-89.24C132.42,-90.56 140.55,-91.91 148.53,-93.24"/>
<polygon fill="#63b8ff" stroke="#63b8ff" points="147.72,-96.66 158.16,-94.85 148.87,-89.75 147.72,-96.66"/>
</a>
</g>
</g>
<!-- Node4 -->
<g id="Node000004" class="node">
<title>Node4</title>
<g id="a_Node000004"><a xlink:href="class_b3_yena_vertex_buffer9_a914f867a8cfc0e2574b369384dc1e3ba.html#a914f867a8cfc0e2574b369384dc1e3ba" target="_top" xlink:title=" ">
<polygon fill="white" stroke="#666666" points="268.25,-70 160,-70 160,-38 268.25,-38 268.25,-70"/>
<text text-anchor="start" x="168" y="-56.5" font-family="Helvetica,sans-Serif" font-size="10.00">B3YenaVertexBuffer9</text>
<text text-anchor="middle" x="214.12" y="-44.5" font-family="Helvetica,sans-Serif" font-size="10.00">::_GetVtxCnt</text>
</a>
</g>
</g>
<!-- Node1&#45;&gt;Node4 -->
<g id="edge3_Node000001_Node000004" class="edge">
<title>Node1&#45;&gt;Node4</title>
<g id="a_edge3_Node000001_Node000004"><a xlink:title=" ">
<path fill="none" stroke="#63b8ff" d="M124.49,-68.76C132.42,-67.44 140.55,-66.09 148.53,-64.76"/>
<polygon fill="#63b8ff" stroke="#63b8ff" points="148.87,-68.25 158.16,-63.15 147.72,-61.34 148.87,-68.25"/>
</a>
</g>
</g>
<!-- Node5 -->
<g id="Node000005" class="node">
<title>Node5</title>
<g id="a_Node000005"><a xlink:href="yn_unknownbase_8h_add774b1d082563a5fac60539282a8c26.html#add774b1d082563a5fac60539282a8c26" target="_top" xlink:title=" ">
<polygon fill="white" stroke="#666666" points="262.25,-20 166,-20 166,0 262.25,0 262.25,-20"/>
<text text-anchor="middle" x="214.12" y="-6.5" font-family="Helvetica,sans-Serif" font-size="10.00">ynGetClassObject</text>
</a>
</g>
</g>
<!-- Node1&#45;&gt;Node5 -->
<g id="edge4_Node000001_Node000005" class="edge">
<title>Node1&#45;&gt;Node5</title>
<g id="a_edge4_Node000001_Node000005"><a xlink:title=" ">
<path fill="none" stroke="#63b8ff" d="M92.23,-62.65C111.23,-52.34 136.71,-39.11 160,-29 163.57,-27.45 167.31,-25.93 171.08,-24.45"/>
<polygon fill="#63b8ff" stroke="#63b8ff" points="172.13,-27.8 180.26,-21 169.67,-21.24 172.13,-27.8"/>
</a>
</g>
</g>
</g>
</svg>
