<?xml version="1.0" encoding="UTF-8" standalone="no"?>
<!DOCTYPE svg PUBLIC "-//W3C//DTD SVG 1.1//EN"
 "http://www.w3.org/Graphics/SVG/1.1/DTD/svg11.dtd">
<!-- Generated by graphviz version 13.1.2 (20250808.2320)
 -->
<!-- Title: B3YenaDevice9::DrawPrimitive Pages: 1 -->
<!--zoomable 116 -->

<svg id="main" version="1.1" xmlns="http://www.w3.org/2000/svg" xmlns:xlink="http://www.w3.org/1999/xlink" xml:space="preserve" onload="init(evt)">

<style type="text/css"><![CDATA[
.node, .edge {opacity: 0.7;}
.node.selected, .edge.selected {opacity: 1;}
.edge:hover path { stroke: red; }
.edge:hover polygon { stroke: red; fill: red; }
]]></style>

<defs>
  <circle id="rim" cx="0" cy="0" r="7"/>
  <circle id="rim2" cx="0" cy="0" r="3.5"/>
  <g id="zoomPlus">
    <use xlink:href="#rim" fill="#404040"><set attributeName="fill" to="#808080" begin="zoomplus.mouseover" end="zoomplus.mouseout"/></use>
    <path d="M-4,0h8M0,-4v8" fill="none" stroke="white" stroke-width="1.5" pointer-events="none"/>
  </g>
  <g id="zoomMin">
    <use xlink:href="#rim" fill="#404040"><set attributeName="fill" to="#808080" begin="zoomminus.mouseover" end="zoomminus.mouseout"/></use>
    <path d="M-4,0h8" fill="none" stroke="white" stroke-width="1.5" pointer-events="none"/>
  </g>
  <g id="arrowUp" transform="translate(30 24)">
    <use xlink:href="#rim"/>
    <path pointer-events="none" fill="none" stroke="white" stroke-width="1.5" d="M0,-3.0v7 M-2.5,-0.5L0,-3.0L2.5,-0.5"/>
  </g>
  <g id="arrowRight" transform="rotate(90) translate(36 -43)">
    <use xlink:href="#rim"/>
    <path pointer-events="none" fill="none" stroke="white" stroke-width="1.5" d="M0,-3.0v7 M-2.5,-0.5L0,-3.0L2.5,-0.5"/>
  </g>
  <g id="arrowDown" transform="rotate(180) translate(-30 -48)">
    <use xlink:href="#rim"/>
    <path pointer-events="none" fill="none" stroke="white" stroke-width="1.5" d="M0,-3.0v7 M-2.5,-0.5L0,-3.0L2.5,-0.5"/>
  </g>
  <g id="arrowLeft" transform="rotate(270) translate(-36 17)">
    <use xlink:href="#rim"/>
    <path pointer-events="none" fill="none" stroke="white" stroke-width="1.5" d="M0,-3.0v7 M-2.5,-0.5L0,-3.0L2.5,-0.5"/>
  </g>
  <g id="resetDef">
    <use xlink:href="#rim2" fill="#404040"><set attributeName="fill" to="#808080" begin="reset.mouseover" end="reset.mouseout"/></use>
  </g>
</defs>
<script type="application/ecmascript">
var viewWidth = 668;
var viewHeight = 116;
var sectionId = 'dynsection-0';
</script>
<script type="application/ecmascript" xlink:href="svg.min.js"/>
<svg id="graph" class="graph">
<g id="viewport">
<title>B3YenaDevice9::DrawPrimitive</title>
<!-- Node1 -->
<g id="Node000001" class="node">
<title>Node1</title>
<g id="a_Node000001"><a xlink:title="\u{2b50} 기하 데이터를 렌더링합니다.">
<polygon fill="#999999" stroke="#666666" points="153.25,-58 0,-58 0,-38 153.25,-38 153.25,-58"/>
<text xml:space="preserve" text-anchor="middle" x="76.62" y="-44.5" font-family="Helvetica,sans-Serif" font-size="10.00">B3YenaDevice9::DrawPrimitive</text>
</a>
</g>
</g>
<!-- Node2 -->
<g id="Node000002" class="node">
<title>Node2</title>
<g id="a_Node000002"><a xlink:href="class_b3_yena_device9_a68a7883852efabbb0b11ff86fa098649.html#a68a7883852efabbb0b11ff86fa098649" target="_top" xlink:title="기하 파이프 라인.">
<polygon fill="white" stroke="#666666" points="340.25,-108 200.5,-108 200.5,-76 340.25,-76 340.25,-108"/>
<text xml:space="preserve" text-anchor="start" x="208.5" y="-94.5" font-family="Helvetica,sans-Serif" font-size="10.00">B3YenaDevice9::_Geometry</text>
<text xml:space="preserve" text-anchor="middle" x="270.38" y="-82.5" font-family="Helvetica,sans-Serif" font-size="10.00">PipeLine</text>
</a>
</g>
</g>
<!-- Node1&#45;&gt;Node2 -->
<g id="edge1_Node000001_Node000002" class="edge">
<title>Node1&#45;&gt;Node2</title>
<g id="a_edge1_Node000001_Node000002"><a xlink:title=" ">
<path fill="none" stroke="#63b8ff" d="M123.07,-58.43C142.86,-62.97 166.67,-68.43 189.27,-73.62"/>
<polygon fill="#63b8ff" stroke="#63b8ff" points="188.25,-76.97 198.78,-75.8 189.81,-70.15 188.25,-76.97"/>
</a>
</g>
</g>
<!-- Node3 -->
<g id="Node000003" class="node">
<title>Node3</title>
<g id="a_Node000003"><a xlink:href="class_b3_yena_device9_a94398088bd2e40ab0f5b46d442697d02.html#a94398088bd2e40ab0f5b46d442697d02" target="_top" xlink:title="픽셀 파이프 라인.">
<polygon fill="white" stroke="#666666" points="348.5,-58 192.25,-58 192.25,-38 348.5,-38 348.5,-58"/>
<text xml:space="preserve" text-anchor="middle" x="270.38" y="-44.5" font-family="Helvetica,sans-Serif" font-size="10.00">B3YenaDevice9::_PixelPipeLine</text>
</a>
</g>
</g>
<!-- Node1&#45;&gt;Node3 -->
<g id="edge2_Node000001_Node000003" class="edge">
<title>Node1&#45;&gt;Node3</title>
<g id="a_edge2_Node000001_Node000003"><a xlink:title=" ">
<path fill="none" stroke="#63b8ff" d="M153.69,-48C162.51,-48 171.56,-48 180.54,-48"/>
<polygon fill="#63b8ff" stroke="#63b8ff" points="180.32,-51.5 190.32,-48 180.32,-44.5 180.32,-51.5"/>
</a>
</g>
</g>
<!-- Node8 -->
<g id="Node000008" class="node">
<title>Node8</title>
<g id="a_Node000008"><a xlink:href="class_b3_yena_device9_a988a31da9005f378e19a846525fa7b13.html#a988a31da9005f378e19a846525fa7b13" target="_top" xlink:title="정점 파이프 라인.">
<polygon fill="white" stroke="#666666" points="351.5,-20 189.25,-20 189.25,0 351.5,0 351.5,-20"/>
<text xml:space="preserve" text-anchor="middle" x="270.38" y="-6.5" font-family="Helvetica,sans-Serif" font-size="10.00">B3YenaDevice9::_VertexPipeLine</text>
</a>
</g>
</g>
<!-- Node1&#45;&gt;Node8 -->
<g id="edge7_Node000001_Node000008" class="edge">
<title>Node1&#45;&gt;Node8</title>
<g id="a_edge7_Node000001_Node000008"><a xlink:title=" ">
<path fill="none" stroke="#63b8ff" d="M130.53,-37.52C153.69,-32.93 181.06,-27.5 205.36,-22.69"/>
<polygon fill="#63b8ff" stroke="#63b8ff" points="206.03,-26.12 215.16,-20.74 204.67,-19.26 206.03,-26.12"/>
</a>
</g>
</g>
<!-- Node4 -->
<g id="Node000004" class="node">
<title>Node4</title>
<g id="a_Node000004"><a xlink:href="class_b3_yena_device9_a5630d3b322a99e2b1d3a497ca5adf397.html#a5630d3b322a99e2b1d3a497ca5adf397" target="_top" xlink:title="\u{2b50} 삼각형 그리기 (ver.GDI) ★">
<polygon fill="white" stroke="#666666" points="532.88,-96 390.88,-96 390.88,-76 532.88,-76 532.88,-96"/>
<text xml:space="preserve" text-anchor="middle" x="461.88" y="-82.5" font-family="Helvetica,sans-Serif" font-size="10.00">B3YenaDevice9::_DrawFace</text>
</a>
</g>
</g>
<!-- Node3&#45;&gt;Node4 -->
<g id="edge3_Node000003_Node000004" class="edge">
<title>Node3&#45;&gt;Node4</title>
<g id="a_edge3_Node000003_Node000004"><a xlink:title=" ">
<path fill="none" stroke="#63b8ff" d="M323.66,-58.48C346.55,-63.07 373.6,-68.5 397.61,-73.31"/>
<polygon fill="#63b8ff" stroke="#63b8ff" points="396.79,-76.72 407.28,-75.25 398.16,-69.85 396.79,-76.72"/>
</a>
</g>
</g>
<!-- Node5 -->
<g id="Node000005" class="node">
<title>Node5</title>
<g id="a_Node000005"><a xlink:href="class_b3_yena_device9_aaef646d2e4b3307f1df6f4891160ff9d.html#aaef646d2e4b3307f1df6f4891160ff9d" target="_top" xlink:title="\u{2b50} 라인 그리기. (ver.GDI) ★">
<polygon fill="white" stroke="#666666" points="531,-58 392.75,-58 392.75,-38 531,-38 531,-58"/>
<text xml:space="preserve" text-anchor="middle" x="461.88" y="-44.5" font-family="Helvetica,sans-Serif" font-size="10.00">B3YenaDevice9::_DrawLine</text>
</a>
</g>
</g>
<!-- Node3&#45;&gt;Node5 -->
<g id="edge4_Node000003_Node000005" class="edge">
<title>Node3&#45;&gt;Node5</title>
<g id="a_edge4_Node000003_Node000005"><a xlink:title=" ">
<path fill="none" stroke="#63b8ff" d="M349,-48C359.58,-48 370.46,-48 381.08,-48"/>
<polygon fill="#63b8ff" stroke="#63b8ff" points="380.97,-51.5 390.97,-48 380.97,-44.5 380.97,-51.5"/>
</a>
</g>
</g>
<!-- Node6 -->
<g id="Node000006" class="node">
<title>Node6</title>
<g id="a_Node000006"><a xlink:href="class_b3_yena_device9_a3261af3210c5579ba3f5eab5fc1cb291.html#a3261af3210c5579ba3f5eab5fc1cb291" target="_top" xlink:title=" ">
<polygon fill="white" stroke="#666666" points="536.25,-20 387.5,-20 387.5,0 536.25,0 536.25,-20"/>
<text xml:space="preserve" text-anchor="middle" x="461.88" y="-6.5" font-family="Helvetica,sans-Serif" font-size="10.00">B3YenaDevice9::_FaceCulling</text>
</a>
</g>
</g>
<!-- Node3&#45;&gt;Node6 -->
<g id="edge5_Node000003_Node000006" class="edge">
<title>Node3&#45;&gt;Node6</title>
<g id="a_edge5_Node000003_Node000006"><a xlink:title=" ">
<path fill="none" stroke="#63b8ff" d="M323.66,-37.52C346.55,-32.93 373.6,-27.5 397.61,-22.69"/>
<polygon fill="#63b8ff" stroke="#63b8ff" points="398.16,-26.15 407.28,-20.75 396.79,-19.28 398.16,-26.15"/>
</a>
</g>
</g>
<!-- Node7 -->
<g id="Node000007" class="node">
<title>Node7</title>
<g id="a_Node000007"><a xlink:href="yn_math_8cpp_a89e31da65b4263dc188d888ae164223c.html#a89e31da65b4263dc188d888ae164223c" target="_top" xlink:title=" ">
<polygon fill="white" stroke="#666666" points="660.25,-20 572.25,-20 572.25,0 660.25,0 660.25,-20"/>
<text xml:space="preserve" text-anchor="middle" x="616.25" y="-6.5" font-family="Helvetica,sans-Serif" font-size="10.00">B3YXVec2CCW</text>
</a>
</g>
</g>
<!-- Node6&#45;&gt;Node7 -->
<g id="edge6_Node000006_Node000007" class="edge">
<title>Node6&#45;&gt;Node7</title>
<g id="a_edge6_Node000006_Node000007"><a xlink:title=" ">
<path fill="none" stroke="#63b8ff" d="M536.38,-10C544.57,-10 552.79,-10 560.67,-10"/>
<polygon fill="#63b8ff" stroke="#63b8ff" points="560.43,-13.5 570.43,-10 560.43,-6.5 560.43,-13.5"/>
</a>
</g>
</g>
</g>
</svg>

<g id="navigator" transform="translate(0 0)" fill="#404254">
  <rect fill="#f2f5e9" fill-opacity="0.5" stroke="#606060" stroke-width=".5" x="0" y="0" width="60" height="60"/>
  <use id="zoomplus" xlink:href="#zoomPlus" x="17" y="9" onmousedown="handleZoom(evt,'in')"/>
  <use id="zoomminus" xlink:href="#zoomMin" x="42" y="9" onmousedown="handleZoom(evt,'out')"/>
  <use id="reset" xlink:href="#resetDef" x="30" y="36" onmousedown="handleReset()"/>
   <use id="arrowup" xlink:href="#arrowUp" x="0" y="0" onmousedown="handlePan(0,-1)"/>
  <use id="arrowright" xlink:href="#arrowRight" x="0" y="0" onmousedown="handlePan(1,0)"/>
  <use id="arrowdown" xlink:href="#arrowDown" x="0" y="0" onmousedown="handlePan(0,1)"/>
  <use id="arrowleft" xlink:href="#arrowLeft" x="0" y="0" onmousedown="handlePan(-1,0)"/>
</g>
<svg viewBox="0 0 15 15" width="100%" height="30px" preserveAspectRatio="xMaxYMin meet">
 <g id="arrow_out" transform="scale(0.3 0.3)">
  <a xlink:href="class_b3_yena_device9_a079861db8c9bdeae66491f77af0c0c54_a079861db8c9bdeae66491f77af0c0c54_cgraph_org.svg" target="_base">
   <rect id="button" ry="5" rx="5" y="6" x="6" height="38" width="38"
        fill="#f2f5e9" fill-opacity="0.5" stroke="#606060" stroke-width="1.0"/>
   <path id="arrow"
     d="M 11.500037,31.436501 C 11.940474,20.09759 22.043105,11.32322 32.158766,21.979434 L 37.068811,17.246167 C 37.068811,17.246167 37.088388,32 37.088388,32 L 22.160133,31.978069 C 22.160133,31.978069 26.997745,27.140456 26.997745,27.140456 C 18.528582,18.264221 13.291696,25.230495 11.500037,31.436501 z"
     style="fill:#404040;"/>
  </a>
 </g>
</svg>

<style type='text/css'>
<![CDATA[
[data-mouse-over-selected='false'] { opacity: 0.7; }
[data-mouse-over-selected='true']  { opacity: 1.0; }
]]>
</style>
<script type="application/ecmascript"><![CDATA[
document.addEventListener('DOMContentLoaded', (event) => {
  highlightEdges();
  highlightAdjacentNodes();
});
]]></script>
</svg>
