<?xml version="1.0" encoding="UTF-8" standalone="no"?>
<!DOCTYPE svg PUBLIC "-//W3C//DTD SVG 1.1//EN"
 "http://www.w3.org/Graphics/SVG/1.1/DTD/svg11.dtd">
<!-- Generated by graphviz version 13.1.2 (20250808.2320)
 -->
<!-- Title: B3YenaDevice9::_DrawLine Pages: 1 -->
<svg width="528pt" height="66pt"
 viewBox="0.00 0.00 528.00 66.00" xmlns="http://www.w3.org/2000/svg" xmlns:xlink="http://www.w3.org/1999/xlink">
<g id="graph0" class="graph" transform="scale(1 1) rotate(0) translate(4 62)">
<title>B3YenaDevice9::_DrawLine</title>
<!-- Node1 -->
<g id="Node000001" class="node">
<title>Node1</title>
<g id="a_Node000001"><a xlink:title="\u{2b50} 라인 그리기. (ver.GDI) ★">
<polygon fill="#999999" stroke="#666666" points="519.75,-39 381.5,-39 381.5,-19 519.75,-19 519.75,-39"/>
<text xml:space="preserve" text-anchor="middle" x="450.62" y="-25.5" font-family="Helvetica,sans-Serif" font-size="10.00">B3YenaDevice9::_DrawLine</text>
</a>
</g>
</g>
<!-- Node2 -->
<g id="Node000002" class="node">
<title>Node2</title>
<g id="a_Node000002"><a xlink:href="class_b3_yena_device9_a6695b96e87ae660c177822ac9d0c22cb.html#a6695b96e87ae660c177822ac9d0c22cb" target="_top" xlink:title="\u{2b50} 라인 그리기 : 정점색 추가.(B3YXCOLOR 타입)(과제) ★★★">
<polygon fill="white" stroke="#666666" points="336.5,-58 198.25,-58 198.25,-38 336.5,-38 336.5,-58"/>
<text xml:space="preserve" text-anchor="middle" x="267.38" y="-44.5" font-family="Helvetica,sans-Serif" font-size="10.00">B3YenaDevice9::_DrawLine</text>
</a>
</g>
</g>
<!-- Node1&#45;&gt;Node2 -->
<g id="edge1_Node000001_Node000002" class="edge">
<title>Node1&#45;&gt;Node2</title>
<g id="a_edge1_Node000001_Node000002"><a xlink:title=" ">
<path fill="none" stroke="#63b8ff" d="M369.81,-37.37C358.86,-38.51 347.71,-39.68 336.99,-40.81"/>
<polygon fill="#63b8ff" stroke="#63b8ff" points="370.02,-40.86 379.6,-36.34 369.29,-33.9 370.02,-40.86"/>
</a>
</g>
</g>
<!-- Node3 -->
<g id="Node000003" class="node">
<title>Node3</title>
<g id="a_Node000003"><a xlink:href="class_b3_yena_device9_a94398088bd2e40ab0f5b46d442697d02.html#a94398088bd2e40ab0f5b46d442697d02" target="_top" xlink:title="픽셀 파이프 라인.">
<polygon fill="white" stroke="#666666" points="345.5,-20 189.25,-20 189.25,0 345.5,0 345.5,-20"/>
<text xml:space="preserve" text-anchor="middle" x="267.38" y="-6.5" font-family="Helvetica,sans-Serif" font-size="10.00">B3YenaDevice9::_PixelPipeLine</text>
</a>
</g>
</g>
<!-- Node1&#45;&gt;Node3 -->
<g id="edge2_Node000001_Node000003" class="edge">
<title>Node1&#45;&gt;Node3</title>
<g id="a_edge2_Node000001_Node000003"><a xlink:title=" ">
<path fill="none" stroke="#63b8ff" d="M369.89,-20.64C361.89,-19.8 353.78,-18.95 345.8,-18.12"/>
<polygon fill="#63b8ff" stroke="#63b8ff" points="369.29,-24.1 379.6,-21.66 370.02,-17.14 369.29,-24.1"/>
</a>
</g>
</g>
<!-- Node4 -->
<g id="Node000004" class="node">
<title>Node4</title>
<g id="a_Node000004"><a xlink:href="class_b3_yena_device9_a079861db8c9bdeae66491f77af0c0c54.html#a079861db8c9bdeae66491f77af0c0c54" target="_top" xlink:title="\u{2b50} 기하 데이터를 렌더링합니다.">
<polygon fill="white" stroke="#666666" points="153.25,-20 0,-20 0,0 153.25,0 153.25,-20"/>
<text xml:space="preserve" text-anchor="middle" x="76.62" y="-6.5" font-family="Helvetica,sans-Serif" font-size="10.00">B3YenaDevice9::DrawPrimitive</text>
</a>
</g>
</g>
<!-- Node3&#45;&gt;Node4 -->
<g id="edge3_Node000003_Node000004" class="edge">
<title>Node3&#45;&gt;Node4</title>
<g id="a_edge3_Node000003_Node000004"><a xlink:title=" ">
<path fill="none" stroke="#63b8ff" d="M177.29,-10C169.4,-10 161.46,-10 153.69,-10"/>
<polygon fill="#63b8ff" stroke="#63b8ff" points="177.27,-13.5 187.27,-10 177.27,-6.5 177.27,-13.5"/>
</a>
</g>
</g>
</g>
</svg>
