<?xml version="1.0" encoding="UTF-8" standalone="no"?>
<!DOCTYPE svg PUBLIC "-//W3C//DTD SVG 1.1//EN"
 "http://www.w3.org/Graphics/SVG/1.1/DTD/svg11.dtd">
<!-- Generated by graphviz version 12.2.0 (20241103.1931)
 -->
<!-- Title: B3YenaGraphicsEngine9::~B3YenaGraphicsEngine9 Pages: 1 -->
<svg width="464pt" height="90pt"
 viewBox="0.00 0.00 464.00 90.00" xmlns="http://www.w3.org/2000/svg" xmlns:xlink="http://www.w3.org/1999/xlink">
<g id="graph0" class="graph" transform="scale(1 1) rotate(0) translate(4 86)">
<title>B3YenaGraphicsEngine9::~B3YenaGraphicsEngine9</title>
<!-- Node1 -->
<g id="Node000001" class="node">
<title>Node1</title>
<g id="a_Node000001"><a xlink:title=" ">
<polygon fill="#999999" stroke="#666666" points="136,-57 0,-57 0,-25 136,-25 136,-57"/>
<text text-anchor="start" x="8" y="-43.5" font-family="Helvetica,sans-Serif" font-size="10.00">B3YenaGraphicsEngine9</text>
<text text-anchor="middle" x="68" y="-31.5" font-family="Helvetica,sans-Serif" font-size="10.00">::~B3YenaGraphicsEngine9</text>
</a>
</g>
</g>
<!-- Node2 -->
<g id="Node000002" class="node">
<title>Node2</title>
<g id="a_Node000002"><a xlink:href="class_b3_yena_graphics_engine9_a38d30c3b393edf9993a84aa23550a2b6.html#a38d30c3b393edf9993a84aa23550a2b6" target="_top" xlink:title="렌더링 엔진 자원 해제.">
<polygon fill="white" stroke="#666666" points="296,-57 172,-57 172,-25 296,-25 296,-57"/>
<text text-anchor="start" x="180" y="-43.5" font-family="Helvetica,sans-Serif" font-size="10.00">B3YenaGraphicsEngine9</text>
<text text-anchor="middle" x="234" y="-31.5" font-family="Helvetica,sans-Serif" font-size="10.00">::Release</text>
</a>
</g>
</g>
<!-- Node1&#45;&gt;Node2 -->
<g id="edge1_Node000001_Node000002" class="edge">
<title>Node1&#45;&gt;Node2</title>
<g id="a_edge1_Node000001_Node000002"><a xlink:title=" ">
<path fill="none" stroke="#63b8ff" d="M136.18,-41C144.17,-41 152.37,-41 160.43,-41"/>
<polygon fill="#63b8ff" stroke="#63b8ff" points="160.21,-44.5 170.21,-41 160.21,-37.5 160.21,-44.5"/>
</a>
</g>
</g>
<!-- Node3 -->
<g id="Node000003" class="node">
<title>Node3</title>
<g id="a_Node000003"><a xlink:href="class_b3_yena_graphics_engine9_a30e0415de83050142afe8431644fc774.html#a30e0415de83050142afe8431644fc774" target="_top" xlink:title="렌더타겟 제거.">
<polygon fill="white" stroke="#666666" points="456,-82 332,-82 332,-50 456,-50 456,-82"/>
<text text-anchor="start" x="340" y="-68.5" font-family="Helvetica,sans-Serif" font-size="10.00">B3YenaGraphicsEngine9</text>
<text text-anchor="middle" x="394" y="-56.5" font-family="Helvetica,sans-Serif" font-size="10.00">::_RenderTargetRelease</text>
</a>
</g>
</g>
<!-- Node2&#45;&gt;Node3 -->
<g id="edge2_Node000002_Node000003" class="edge">
<title>Node2&#45;&gt;Node3</title>
<g id="a_edge2_Node000002_Node000003"><a xlink:title=" ">
<path fill="none" stroke="#63b8ff" d="M296.09,-50.67C304,-51.92 312.16,-53.21 320.23,-54.49"/>
<polygon fill="#63b8ff" stroke="#63b8ff" points="319.64,-57.94 330.06,-56.04 320.73,-51.02 319.64,-57.94"/>
</a>
</g>
</g>
<!-- Node4 -->
<g id="Node000004" class="node">
<title>Node4</title>
<g id="a_Node000004"><a xlink:href="class_b3_yena_graphics_engine9_a901ebdd8057833a48ea72580ffd0ff9a.html#a901ebdd8057833a48ea72580ffd0ff9a" target="_top" xlink:title="각 렌더링 파이프라인에서 생성된 단계별 임시버퍼 제거.">
<polygon fill="white" stroke="#666666" points="456,-32 332,-32 332,0 456,0 456,-32"/>
<text text-anchor="start" x="340" y="-18.5" font-family="Helvetica,sans-Serif" font-size="10.00">B3YenaGraphicsEngine9</text>
<text text-anchor="middle" x="394" y="-6.5" font-family="Helvetica,sans-Serif" font-size="10.00">::_TempBufferRelease</text>
</a>
</g>
</g>
<!-- Node2&#45;&gt;Node4 -->
<g id="edge3_Node000002_Node000004" class="edge">
<title>Node2&#45;&gt;Node4</title>
<g id="a_edge3_Node000002_Node000004"><a xlink:title=" ">
<path fill="none" stroke="#63b8ff" d="M296.09,-31.33C304,-30.08 312.16,-28.79 320.23,-27.51"/>
<polygon fill="#63b8ff" stroke="#63b8ff" points="320.73,-30.98 330.06,-25.96 319.64,-24.06 320.73,-30.98"/>
</a>
</g>
</g>
</g>
</svg>
