<?xml version="1.0" encoding="UTF-8" standalone="no"?>
<!DOCTYPE svg PUBLIC "-//W3C//DTD SVG 1.1//EN"
 "http://www.w3.org/Graphics/SVG/1.1/DTD/svg11.dtd">
<!-- Generated by graphviz version 13.1.2 (20250808.2320)
 -->
<!-- Title: B3YenaDevice9 Pages: 1 -->
<svg width="827pt" height="386pt"
 viewBox="0.00 0.00 827.00 386.00" xmlns="http://www.w3.org/2000/svg" xmlns:xlink="http://www.w3.org/1999/xlink">
<g id="graph0" class="graph" transform="scale(1 1) rotate(0) translate(4 382)">
<title>B3YenaDevice9</title>
<!-- Node1 -->
<g id="Node000001" class="node">
<title>Node1</title>
<g id="a_Node000001"><a xlink:title="\u{2b50} Yena 렌더링 장치 Device 구현 클래스 : IDirect3DDevice9 대응">
<polygon fill="#999999" stroke="#666666" points="354.12,-278 268.38,-278 268.38,-258 354.12,-258 354.12,-278"/>
<text xml:space="preserve" text-anchor="middle" x="311.25" y="-264.5" font-family="Helvetica,sans-Serif" font-size="10.00">B3YenaDevice9</text>
</a>
</g>
</g>
<!-- Node4 -->
<g id="Node000004" class="node">
<title>Node4</title>
<g id="a_Node000004"><a xlink:href="class_b3_yena_graphics_engine9.html" target="_top" xlink:title="\u{2b50} Yena 그래픽스 엔진 클래스">
<polygon fill="white" stroke="#666666" points="818.5,-201 694.5,-201 694.5,-181 818.5,-181 818.5,-201"/>
<text xml:space="preserve" text-anchor="middle" x="756.5" y="-187.5" font-family="Helvetica,sans-Serif" font-size="10.00">B3YenaGraphicsEngine9</text>
</a>
</g>
</g>
<!-- Node1&#45;&gt;Node4 -->
<g id="edge5_Node000004_Node000001" class="edge">
<title>Node1&#45;&gt;Node4</title>
<g id="a_edge5_Node000004_Node000001"><a xlink:title=" ">
<path fill="none" stroke="#9a32cd" stroke-dasharray="5,2" d="M362.76,-280.89C424.35,-294.33 530.99,-310.21 618,-285 672.44,-269.23 724.12,-222.51 745.35,-201.47"/>
<polygon fill="#9a32cd" stroke="#9a32cd" points="363.8,-277.53 353.28,-278.75 362.26,-284.36 363.8,-277.53"/>
</a>
</g>
<text xml:space="preserve" text-anchor="start" x="537.62" y="-303.83" font-family="Helvetica,sans-Serif" font-size="10.00" fill="grey">m_pDev</text>
</g>
<!-- Node2 -->
<g id="Node000002" class="node">
<title>Node2</title>
<g id="a_Node000002"><a xlink:href="class_i_yena_device9.html" target="_top" xlink:title="\u{2b50} Yena 렌더링 디바이스 운용 인터페이스 : IDirect3DDevice9 대응">
<polygon fill="white" stroke="#666666" points="190.12,-278 113.38,-278 113.38,-258 190.12,-258 190.12,-278"/>
<text xml:space="preserve" text-anchor="middle" x="151.75" y="-264.5" font-family="Helvetica,sans-Serif" font-size="10.00">IYenaDevice9</text>
</a>
</g>
</g>
<!-- Node2&#45;&gt;Node1 -->
<g id="edge1_Node000001_Node000002" class="edge">
<title>Node2&#45;&gt;Node1</title>
<g id="a_edge1_Node000001_Node000002"><a xlink:title=" ">
<path fill="none" stroke="#63b8ff" d="M201.88,-268C223.12,-268 247.73,-268 268.12,-268"/>
<polygon fill="#63b8ff" stroke="#63b8ff" points="201.99,-264.5 191.99,-268 201.99,-271.5 201.99,-264.5"/>
</a>
</g>
</g>
<!-- Node3 -->
<g id="Node000003" class="node">
<title>Node3</title>
<g id="a_Node000003"><a xlink:href="classyn_i_unknown.html" target="_top" xlink:title="Yena SWR COM 최상위 인터페이스 &lt;간략&gt;">
<polygon fill="white" stroke="#666666" points="70.75,-257 0,-257 0,-237 70.75,-237 70.75,-257"/>
<text xml:space="preserve" text-anchor="middle" x="35.38" y="-243.5" font-family="Helvetica,sans-Serif" font-size="10.00">ynIUnknown</text>
</a>
</g>
</g>
<!-- Node3&#45;&gt;Node2 -->
<g id="edge2_Node000002_Node000003" class="edge">
<title>Node3&#45;&gt;Node2</title>
<g id="a_edge2_Node000002_Node000003"><a xlink:title=" ">
<path fill="none" stroke="#63b8ff" d="M82.26,-255.42C92.48,-257.3 103.2,-259.27 113.05,-261.08"/>
<polygon fill="#63b8ff" stroke="#63b8ff" points="82.96,-251.99 72.49,-253.63 81.69,-258.88 82.96,-251.99"/>
</a>
</g>
</g>
<!-- Node8 -->
<g id="Node000008" class="node">
<title>Node8</title>
<g id="a_Node000008"><a xlink:href="class_i_yena_resource9.html" target="_top" xlink:title="렌더링 자원 기반 인터페이스 : IDirect3DResource9 대응">
<polygon fill="white" stroke="#666666" points="195.75,-237 107.75,-237 107.75,-217 195.75,-217 195.75,-237"/>
<text xml:space="preserve" text-anchor="middle" x="151.75" y="-223.5" font-family="Helvetica,sans-Serif" font-size="10.00">IYenaResource9</text>
</a>
</g>
</g>
<!-- Node3&#45;&gt;Node8 -->
<g id="edge9_Node000008_Node000003" class="edge">
<title>Node3&#45;&gt;Node8</title>
<g id="a_edge9_Node000008_Node000003"><a xlink:title=" ">
<path fill="none" stroke="#63b8ff" d="M82.08,-239.01C90.4,-237.55 99.07,-236.04 107.33,-234.59"/>
<polygon fill="#63b8ff" stroke="#63b8ff" points="81.74,-235.51 72.49,-240.68 82.95,-242.41 81.74,-235.51"/>
</a>
</g>
</g>
<!-- Node4&#45;&gt;Node1 -->
<g id="edge3_Node000001_Node000004" class="edge">
<title>Node4&#45;&gt;Node1</title>
<g id="a_edge3_Node000001_Node000004"><a xlink:title=" ">
<path fill="none" stroke="#9a32cd" stroke-dasharray="5,2" d="M726.53,-206.44C711.86,-213.77 693.57,-222.18 676.5,-228 564.79,-266.06 423.72,-269.96 354.49,-269.23"/>
<polygon fill="#9a32cd" stroke="#9a32cd" points="727.85,-209.69 735.16,-202.03 724.67,-203.46 727.85,-209.69"/>
</a>
</g>
<text xml:space="preserve" text-anchor="start" x="527.12" y="-268.86" font-family="Helvetica,sans-Serif" font-size="10.00" fill="grey">m_pGraphics</text>
</g>
<!-- Node5 -->
<g id="Node000005" class="node">
<title>Node5</title>
<g id="a_Node000005"><a xlink:href="class_b3_yena_core.html" target="_top" xlink:title=" ">
<polygon fill="white" stroke="#666666" points="591.38,-378 520.62,-378 520.62,-358 591.38,-358 591.38,-378"/>
<text xml:space="preserve" text-anchor="middle" x="556" y="-364.5" font-family="Helvetica,sans-Serif" font-size="10.00">B3YenaCore</text>
</a>
</g>
</g>
<!-- Node5&#45;&gt;Node4 -->
<g id="edge4_Node000004_Node000005" class="edge">
<title>Node5&#45;&gt;Node4</title>
<g id="a_edge4_Node000004_Node000005"><a xlink:title=" ">
<path fill="none" stroke="#63b8ff" d="M603,-364.36C627,-360.46 655.61,-352.44 676.5,-336 722.91,-299.48 745.78,-227.84 752.95,-201.25"/>
<polygon fill="#63b8ff" stroke="#63b8ff" points="602.56,-360.89 593.15,-365.76 603.54,-367.82 602.56,-360.89"/>
</a>
</g>
</g>
<!-- Node6 -->
<g id="Node000006" class="node">
<title>Node6</title>
<g id="a_Node000006"><a xlink:href="struct_b3_yena_graphics_engine9_1_1_i_n_p_u_t___s_t_r_e_a_m.html" target="_top" xlink:title=" ">
<polygon fill="white" stroke="#666666" points="618,-232 494,-232 494,-200 618,-200 618,-232"/>
<text xml:space="preserve" text-anchor="start" x="502" y="-218.5" font-family="Helvetica,sans-Serif" font-size="10.00">B3YenaGraphicsEngine9</text>
<text xml:space="preserve" text-anchor="middle" x="556" y="-206.5" font-family="Helvetica,sans-Serif" font-size="10.00">::INPUT_STREAM</text>
</a>
</g>
</g>
<!-- Node6&#45;&gt;Node4 -->
<g id="edge6_Node000004_Node000006" class="edge">
<title>Node6&#45;&gt;Node4</title>
<g id="a_edge6_Node000004_Node000006"><a xlink:title=" ">
<path fill="none" stroke="#9a32cd" stroke-dasharray="5,2" d="M629.64,-206.85C650.77,-204.19 673.63,-201.31 694,-198.75"/>
<polygon fill="#9a32cd" stroke="#9a32cd" points="629.43,-203.35 619.95,-208.07 630.31,-210.29 629.43,-203.35"/>
</a>
</g>
<text xml:space="preserve" text-anchor="start" x="639" y="-211.24" font-family="Helvetica,sans-Serif" font-size="10.00" fill="grey">m_input</text>
</g>
<!-- Node7 -->
<g id="Node000007" class="node">
<title>Node7</title>
<g id="a_Node000007"><a xlink:href="class_i_yena_vertex_buffer9.html" target="_top" xlink:title="정점 버퍼 운용 인터페이스 : IDirect3DVertexBuffer9 대응">
<polygon fill="white" stroke="#666666" points="360.88,-234 261.62,-234 261.62,-214 360.88,-214 360.88,-234"/>
<text xml:space="preserve" text-anchor="middle" x="311.25" y="-220.5" font-family="Helvetica,sans-Serif" font-size="10.00">IYenaVertexBuffer9</text>
</a>
</g>
</g>
<!-- Node7&#45;&gt;Node6 -->
<g id="edge7_Node000006_Node000007" class="edge">
<title>Node7&#45;&gt;Node6</title>
<g id="a_edge7_Node000006_Node000007"><a xlink:title=" ">
<path fill="none" stroke="#9a32cd" stroke-dasharray="5,2" d="M372.5,-222.01C409.49,-220.8 456.73,-219.24 493.88,-218.01"/>
<polygon fill="#9a32cd" stroke="#9a32cd" points="372.77,-218.5 362.89,-222.33 373,-225.5 372.77,-218.5"/>
</a>
</g>
<text xml:space="preserve" text-anchor="start" x="432.5" y="-226.22" font-family="Helvetica,sans-Serif" font-size="10.00" fill="grey">pVB</text>
</g>
<!-- Node8&#45;&gt;Node7 -->
<g id="edge8_Node000007_Node000008" class="edge">
<title>Node8&#45;&gt;Node7</title>
<g id="a_edge8_Node000007_Node000008"><a xlink:title=" ">
<path fill="none" stroke="#63b8ff" d="M207.69,-225.95C225.17,-225.62 244.37,-225.25 261.39,-224.93"/>
<polygon fill="#63b8ff" stroke="#63b8ff" points="207.65,-222.45 197.72,-226.14 207.78,-229.45 207.65,-222.45"/>
</a>
</g>
</g>
<!-- Node9 -->
<g id="Node000009" class="node">
<title>Node9</title>
<g id="a_Node000009"><a xlink:href="struct_b3_yena_graphics_engine9_1_1_s_t_r_e_a_m___d_b_g.html" target="_top" xlink:title=" ">
<polygon fill="white" stroke="#666666" points="618,-182 494,-182 494,-150 618,-150 618,-182"/>
<text xml:space="preserve" text-anchor="start" x="502" y="-168.5" font-family="Helvetica,sans-Serif" font-size="10.00">B3YenaGraphicsEngine9</text>
<text xml:space="preserve" text-anchor="middle" x="556" y="-156.5" font-family="Helvetica,sans-Serif" font-size="10.00">::STREAM_DBG</text>
</a>
</g>
</g>
<!-- Node9&#45;&gt;Node4 -->
<g id="edge10_Node000004_Node000009" class="edge">
<title>Node9&#45;&gt;Node4</title>
<g id="a_edge10_Node000004_Node000009"><a xlink:title=" ">
<path fill="none" stroke="#9a32cd" stroke-dasharray="5,2" d="M629.59,-173.4C645.08,-175.12 661.35,-177.03 676.5,-179 682.28,-179.75 688.29,-180.58 694.29,-181.44"/>
<polygon fill="#9a32cd" stroke="#9a32cd" points="630.29,-169.95 619.97,-172.35 629.53,-176.91 630.29,-169.95"/>
</a>
</g>
<text xml:space="preserve" text-anchor="start" x="641.25" y="-184.5" font-family="Helvetica,sans-Serif" font-size="10.00" fill="grey">m_stm</text>
</g>
<!-- Node10 -->
<g id="Node000010" class="node">
<title>Node10</title>
<g id="a_Node000010"><a xlink:href="struct_b3_yena_graphics_engine9_1_1_t_r_a_n_s_f_o_r_m.html" target="_top" xlink:title=" ">
<polygon fill="white" stroke="#666666" points="618,-132 494,-132 494,-100 618,-100 618,-132"/>
<text xml:space="preserve" text-anchor="start" x="502" y="-118.5" font-family="Helvetica,sans-Serif" font-size="10.00">B3YenaGraphicsEngine9</text>
<text xml:space="preserve" text-anchor="middle" x="556" y="-106.5" font-family="Helvetica,sans-Serif" font-size="10.00">::TRANSFORM</text>
</a>
</g>
</g>
<!-- Node10&#45;&gt;Node4 -->
<g id="edge11_Node000004_Node000010" class="edge">
<title>Node10&#45;&gt;Node4</title>
<g id="a_edge11_Node000004_Node000010"><a xlink:title=" ">
<path fill="none" stroke="#9a32cd" stroke-dasharray="5,2" d="M629.23,-135.65C644.98,-140.52 661.43,-146.06 676.5,-152 697.7,-160.36 720.99,-172.2 736.75,-180.64"/>
<polygon fill="#9a32cd" stroke="#9a32cd" points="630.49,-132.38 619.91,-132.83 628.47,-139.08 630.49,-132.38"/>
</a>
</g>
<text xml:space="preserve" text-anchor="start" x="641.25" y="-157.5" font-family="Helvetica,sans-Serif" font-size="10.00" fill="grey">m_tms</text>
</g>
<!-- Node11 -->
<g id="Node000011" class="node">
<title>Node11</title>
<g id="a_Node000011"><a xlink:href="class_b3_y_x_m_a_t_r_i_x.html" target="_top" xlink:title="\u{2b50} 행렬 클래스">
<polygon fill="white" stroke="#666666" points="350.75,-126 271.75,-126 271.75,-106 350.75,-106 350.75,-126"/>
<text xml:space="preserve" text-anchor="middle" x="311.25" y="-112.5" font-family="Helvetica,sans-Serif" font-size="10.00">B3YXMATRIX</text>
</a>
</g>
</g>
<!-- Node11&#45;&gt;Node10 -->
<g id="edge12_Node000010_Node000011" class="edge">
<title>Node11&#45;&gt;Node10</title>
<g id="a_edge12_Node000010_Node000011"><a xlink:title=" ">
<path fill="none" stroke="#9a32cd" stroke-dasharray="5,2" d="M362.31,-116C400.42,-116 453.06,-116 493.69,-116"/>
<polygon fill="#9a32cd" stroke="#9a32cd" points="362.5,-112.5 352.5,-116 362.5,-119.5 362.5,-112.5"/>
</a>
</g>
<text xml:space="preserve" text-anchor="start" x="427.62" y="-121.5" font-family="Helvetica,sans-Serif" font-size="10.00" fill="grey">mTFM</text>
</g>
<!-- Node12 -->
<g id="Node000012" class="node">
<title>Node12</title>
<g id="a_Node000012"><a xlink:href="struct_b3_y_m_a_t_r_i_x.html" target="_top" xlink:title="\u{2b50} 행렬 구조체">
<polygon fill="white" stroke="#666666" points="187.88,-126 115.62,-126 115.62,-106 187.88,-106 187.88,-126"/>
<text xml:space="preserve" text-anchor="middle" x="151.75" y="-112.5" font-family="Helvetica,sans-Serif" font-size="10.00">B3YMATRIX</text>
</a>
</g>
</g>
<!-- Node12&#45;&gt;Node11 -->
<g id="edge13_Node000011_Node000012" class="edge">
<title>Node12&#45;&gt;Node11</title>
<g id="a_edge13_Node000011_Node000012"><a xlink:title=" ">
<path fill="none" stroke="#63b8ff" d="M199.31,-116C222.26,-116 249.63,-116 271.43,-116"/>
<polygon fill="#63b8ff" stroke="#63b8ff" points="199.61,-112.5 189.61,-116 199.61,-119.5 199.61,-112.5"/>
</a>
</g>
</g>
<!-- Node13 -->
<g id="Node000013" class="node">
<title>Node13</title>
<g id="a_Node000013"><a xlink:href="struct_b3_yena_graphics_engine9_1_1_p_i_p_e_l_i_n_e___s_t_a_t_e.html" target="_top" xlink:title=" ">
<polygon fill="white" stroke="#666666" points="618,-82 494,-82 494,-50 618,-50 618,-82"/>
<text xml:space="preserve" text-anchor="start" x="502" y="-68.5" font-family="Helvetica,sans-Serif" font-size="10.00">B3YenaGraphicsEngine9</text>
<text xml:space="preserve" text-anchor="middle" x="556" y="-56.5" font-family="Helvetica,sans-Serif" font-size="10.00">::PIPELINE_STATE</text>
</a>
</g>
</g>
<!-- Node13&#45;&gt;Node4 -->
<g id="edge14_Node000004_Node000013" class="edge">
<title>Node13&#45;&gt;Node4</title>
<g id="a_edge14_Node000004_Node000013"><a xlink:title=" ">
<path fill="none" stroke="#9a32cd" stroke-dasharray="5,2" d="M607.78,-86.75C611.24,-88.18 614.67,-89.61 618,-91 644.08,-101.92 652.87,-100.47 676.5,-116 705.26,-134.91 733.06,-164.84 746.72,-180.56"/>
<polygon fill="#9a32cd" stroke="#9a32cd" points="609.37,-83.62 598.79,-83.03 606.7,-90.09 609.37,-83.62"/>
</a>
</g>
<text xml:space="preserve" text-anchor="start" x="641.62" y="-121.5" font-family="Helvetica,sans-Serif" font-size="10.00" fill="grey">m_pso</text>
</g>
<!-- Node14 -->
<g id="Node000014" class="node">
<title>Node14</title>
<g id="a_Node000014"><a xlink:href="struct_b3_yena_graphics_engine9_1_1_o_u_t_p_u_t___m_e_r_g_e.html" target="_top" xlink:title=" ">
<polygon fill="white" stroke="#666666" points="618,-32 494,-32 494,0 618,0 618,-32"/>
<text xml:space="preserve" text-anchor="start" x="502" y="-18.5" font-family="Helvetica,sans-Serif" font-size="10.00">B3YenaGraphicsEngine9</text>
<text xml:space="preserve" text-anchor="middle" x="556" y="-6.5" font-family="Helvetica,sans-Serif" font-size="10.00">::OUTPUT_MERGE</text>
</a>
</g>
</g>
<!-- Node14&#45;&gt;Node4 -->
<g id="edge15_Node000004_Node000014" class="edge">
<title>Node14&#45;&gt;Node4</title>
<g id="a_edge15_Node000004_Node000014"><a xlink:title=" ">
<path fill="none" stroke="#9a32cd" stroke-dasharray="5,2" d="M615.04,-36.99C636.09,-46.59 658.98,-59.55 676.5,-76 711.28,-108.67 739.32,-159.16 750.39,-180.7"/>
<polygon fill="#9a32cd" stroke="#9a32cd" points="616.52,-33.82 605.95,-33.02 613.71,-40.23 616.52,-33.82"/>
</a>
</g>
<text xml:space="preserve" text-anchor="start" x="642.75" y="-81.5" font-family="Helvetica,sans-Serif" font-size="10.00" fill="grey">m_om</text>
</g>
<!-- Node15 -->
<g id="Node000015" class="node">
<title>Node15</title>
<g id="a_Node000015"><a xlink:href="struct_b3_y_p_r_e_s_e_n_t___p_a_r_a_m_e_t_e_r_s.html" target="_top" xlink:title="스왑체인 정보기술 구조체 : D3DPRESENT_PARAMETERS 대응">
<polygon fill="white" stroke="#666666" points="389.75,-26 232.75,-26 232.75,-6 389.75,-6 389.75,-26"/>
<text xml:space="preserve" text-anchor="middle" x="311.25" y="-12.5" font-family="Helvetica,sans-Serif" font-size="10.00">B3YPRESENT_PARAMETERS</text>
</a>
</g>
</g>
<!-- Node15&#45;&gt;Node14 -->
<g id="edge16_Node000014_Node000015" class="edge">
<title>Node15&#45;&gt;Node14</title>
<g id="a_edge16_Node000014_Node000015"><a xlink:title=" ">
<path fill="none" stroke="#9a32cd" stroke-dasharray="5,2" d="M401.24,-16C432,-16 465.74,-16 493.77,-16"/>
<polygon fill="#9a32cd" stroke="#9a32cd" points="401.57,-12.5 391.57,-16 401.57,-19.5 401.57,-12.5"/>
</a>
</g>
<text xml:space="preserve" text-anchor="start" x="410.75" y="-21.5" font-family="Helvetica,sans-Serif" font-size="10.00" fill="grey">PresentParam</text>
</g>
</g>
</svg>
