<?xml version="1.0" encoding="UTF-8" standalone="no"?>
<!DOCTYPE svg PUBLIC "-//W3C//DTD SVG 1.1//EN"
 "http://www.w3.org/Graphics/SVG/1.1/DTD/svg11.dtd">
<!-- Generated by graphviz version 13.1.2 (20250808.2320)
 -->
<!-- Title: B3YenaGraphicsEngine9::_GeometryPipeline Pages: 1 -->
<svg width="576pt" height="90pt"
 viewBox="0.00 0.00 576.00 90.00" xmlns="http://www.w3.org/2000/svg" xmlns:xlink="http://www.w3.org/1999/xlink">
<g id="graph0" class="graph" transform="scale(1 1) rotate(0) translate(4 86)">
<title>B3YenaGraphicsEngine9::_GeometryPipeline</title>
<!-- Node1 -->
<g id="Node000001" class="node">
<title>Node1</title>
<g id="a_Node000001"><a xlink:title="\u{2b50} 기하 파이프라인 연산을 수행.">
<polygon fill="#999999" stroke="#666666" points="124,-57 0,-57 0,-25 124,-25 124,-57"/>
<text xml:space="preserve" text-anchor="start" x="8" y="-43.5" font-family="Helvetica,sans-Serif" font-size="10.00">B3YenaGraphicsEngine9</text>
<text xml:space="preserve" text-anchor="middle" x="62" y="-31.5" font-family="Helvetica,sans-Serif" font-size="10.00">::_GeometryPipeline</text>
</a>
</g>
</g>
<!-- Node2 -->
<g id="Node000002" class="node">
<title>Node2</title>
<g id="a_Node000002"><a xlink:href="class_b3_yena_graphics_engine9_a6299cce5b5e70bfddf67d6ffa138d505.html#a6299cce5b5e70bfddf67d6ffa138d505" target="_top" xlink:title=" ">
<polygon fill="white" stroke="#666666" points="284,-57 160,-57 160,-25 284,-25 284,-57"/>
<text xml:space="preserve" text-anchor="start" x="168" y="-43.5" font-family="Helvetica,sans-Serif" font-size="10.00">B3YenaGraphicsEngine9</text>
<text xml:space="preserve" text-anchor="middle" x="222" y="-31.5" font-family="Helvetica,sans-Serif" font-size="10.00">::_TnL_GP</text>
</a>
</g>
</g>
<!-- Node1&#45;&gt;Node2 -->
<g id="edge1_Node000001_Node000002" class="edge">
<title>Node1&#45;&gt;Node2</title>
<g id="a_edge1_Node000001_Node000002"><a xlink:title=" ">
<path fill="none" stroke="#63b8ff" d="M124.09,-41C132,-41 140.16,-41 148.23,-41"/>
<polygon fill="#63b8ff" stroke="#63b8ff" points="148.04,-44.5 158.04,-41 148.04,-37.5 148.04,-44.5"/>
</a>
</g>
</g>
<!-- Node3 -->
<g id="Node000003" class="node">
<title>Node3</title>
<g id="a_Node000003"><a xlink:href="class_b3_yena_graphics_engine9_a37ad70788b0e06df4015e6d89c15c10d.html#a37ad70788b0e06df4015e6d89c15c10d" target="_top" xlink:title=" ">
<polygon fill="white" stroke="#666666" points="444,-82 320,-82 320,-50 444,-50 444,-82"/>
<text xml:space="preserve" text-anchor="start" x="328" y="-68.5" font-family="Helvetica,sans-Serif" font-size="10.00">B3YenaGraphicsEngine9</text>
<text xml:space="preserve" text-anchor="middle" x="382" y="-56.5" font-family="Helvetica,sans-Serif" font-size="10.00">::_FaceCulling3</text>
</a>
</g>
</g>
<!-- Node2&#45;&gt;Node3 -->
<g id="edge2_Node000002_Node000003" class="edge">
<title>Node2&#45;&gt;Node3</title>
<g id="a_edge2_Node000002_Node000003"><a xlink:title=" ">
<path fill="none" stroke="#63b8ff" d="M284.09,-50.67C292,-51.92 300.16,-53.21 308.23,-54.49"/>
<polygon fill="#63b8ff" stroke="#63b8ff" points="307.64,-57.94 318.06,-56.04 308.73,-51.02 307.64,-57.94"/>
</a>
</g>
</g>
<!-- Node5 -->
<g id="Node000005" class="node">
<title>Node5</title>
<g id="a_Node000005"><a xlink:href="class_b3_yena_graphics_engine9_aff6a1a311a64553bdcbec30ff614e685.html#aff6a1a311a64553bdcbec30ff614e685" target="_top" xlink:title="\u{2b50} 뷰포트 멥핑 (Viewport)">
<polygon fill="white" stroke="#666666" points="444,-32 320,-32 320,0 444,0 444,-32"/>
<text xml:space="preserve" text-anchor="start" x="328" y="-18.5" font-family="Helvetica,sans-Serif" font-size="10.00">B3YenaGraphicsEngine9</text>
<text xml:space="preserve" text-anchor="middle" x="382" y="-6.5" font-family="Helvetica,sans-Serif" font-size="10.00">::_Viewport</text>
</a>
</g>
</g>
<!-- Node2&#45;&gt;Node5 -->
<g id="edge4_Node000002_Node000005" class="edge">
<title>Node2&#45;&gt;Node5</title>
<g id="a_edge4_Node000002_Node000005"><a xlink:title=" ">
<path fill="none" stroke="#63b8ff" d="M284.09,-31.33C292,-30.08 300.16,-28.79 308.23,-27.51"/>
<polygon fill="#63b8ff" stroke="#63b8ff" points="308.73,-30.98 318.06,-25.96 307.64,-24.06 308.73,-30.98"/>
</a>
</g>
</g>
<!-- Node4 -->
<g id="Node000004" class="node">
<title>Node4</title>
<g id="a_Node000004"><a xlink:href="group___yena-_math_ga89e31da65b4263dc188d888ae164223c.html#ga89e31da65b4263dc188d888ae164223c" target="_top" xlink:title=" ">
<polygon fill="white" stroke="#666666" points="568,-76 480,-76 480,-56 568,-56 568,-76"/>
<text xml:space="preserve" text-anchor="middle" x="524" y="-62.5" font-family="Helvetica,sans-Serif" font-size="10.00">B3YXVec2CCW</text>
</a>
</g>
</g>
<!-- Node3&#45;&gt;Node4 -->
<g id="edge3_Node000003_Node000004" class="edge">
<title>Node3&#45;&gt;Node4</title>
<g id="a_edge3_Node000003_Node000004"><a xlink:title=" ">
<path fill="none" stroke="#63b8ff" d="M444.41,-66C452.4,-66 460.55,-66 468.43,-66"/>
<polygon fill="#63b8ff" stroke="#63b8ff" points="468.2,-69.5 478.2,-66 468.2,-62.5 468.2,-69.5"/>
</a>
</g>
</g>
</g>
</svg>
