<?xml version="1.0" encoding="UTF-8" standalone="no"?>
<!DOCTYPE svg PUBLIC "-//W3C//DTD SVG 1.1//EN"
 "http://www.w3.org/Graphics/SVG/1.1/DTD/svg11.dtd">
<!-- Generated by graphviz version 13.1.2 (20250808.2320)
 -->
<!-- Title: B3YenaVertexBuffer9::QueryInterface Pages: 1 -->
<svg width="261pt" height="78pt"
 viewBox="0.00 0.00 261.00 78.00" xmlns="http://www.w3.org/2000/svg" xmlns:xlink="http://www.w3.org/1999/xlink">
<g id="graph0" class="graph" transform="scale(1 1) rotate(0) translate(4 74)">
<title>B3YenaVertexBuffer9::QueryInterface</title>
<!-- Node1 -->
<g id="Node000001" class="node">
<title>Node1</title>
<g id="a_Node000001"><a xlink:title=" ">
<polygon fill="#999999" stroke="#666666" points="108.25,-48 0,-48 0,-16 108.25,-16 108.25,-48"/>
<text xml:space="preserve" text-anchor="start" x="8" y="-34.5" font-family="Helvetica,sans-Serif" font-size="10.00">B3YenaVertexBuffer9</text>
<text xml:space="preserve" text-anchor="middle" x="54.12" y="-22.5" font-family="Helvetica,sans-Serif" font-size="10.00">::QueryInterface</text>
</a>
</g>
</g>
<!-- Node2 -->
<g id="Node000002" class="node">
<title>Node2</title>
<g id="a_Node000002"><a xlink:href="class_b3_yena_vertex_buffer9_a0649a5d29ac1dec96d8b5b559f619114.html#a0649a5d29ac1dec96d8b5b559f619114" target="_top" xlink:title=" ">
<polygon fill="white" stroke="#666666" points="252.5,-70 144.25,-70 144.25,-38 252.5,-38 252.5,-70"/>
<text xml:space="preserve" text-anchor="start" x="152.25" y="-56.5" font-family="Helvetica,sans-Serif" font-size="10.00">B3YenaVertexBuffer9</text>
<text xml:space="preserve" text-anchor="middle" x="198.38" y="-44.5" font-family="Helvetica,sans-Serif" font-size="10.00">::AddRef</text>
</a>
</g>
</g>
<!-- Node1&#45;&gt;Node2 -->
<g id="edge1_Node000001_Node000002" class="edge">
<title>Node1&#45;&gt;Node2</title>
<g id="a_edge1_Node000001_Node000002"><a xlink:title=" ">
<path fill="none" stroke="#63b8ff" d="M108.5,-40.25C116.43,-41.48 124.67,-42.76 132.8,-44.01"/>
<polygon fill="#63b8ff" stroke="#63b8ff" points="132.26,-47.47 142.68,-45.54 133.33,-40.55 132.26,-47.47"/>
</a>
</g>
</g>
<!-- Node3 -->
<g id="Node000003" class="node">
<title>Node3</title>
<g id="a_Node000003"><a xlink:href="group___yena-_c_o_m_ga9e2aa2b3bba79319041923d1db833f2a.html#ga9e2aa2b3bba79319041923d1db833f2a" target="_top" xlink:title=" ">
<polygon fill="white" stroke="#666666" points="234.88,-20 161.88,-20 161.88,0 234.88,0 234.88,-20"/>
<text xml:space="preserve" text-anchor="middle" x="198.38" y="-6.5" font-family="Helvetica,sans-Serif" font-size="10.00">ynIsEqualIID</text>
</a>
</g>
</g>
<!-- Node1&#45;&gt;Node3 -->
<g id="edge2_Node000001_Node000003" class="edge">
<title>Node1&#45;&gt;Node3</title>
<g id="a_edge2_Node000001_Node000003"><a xlink:title=" ">
<path fill="none" stroke="#63b8ff" d="M108.5,-23.75C122.16,-21.63 136.75,-19.38 150.08,-17.31"/>
<polygon fill="#63b8ff" stroke="#63b8ff" points="150.57,-20.78 159.91,-15.79 149.5,-13.86 150.57,-20.78"/>
</a>
</g>
</g>
</g>
</svg>
