<?xml version="1.0" encoding="UTF-8" standalone="no"?>
<!DOCTYPE svg PUBLIC "-//W3C//DTD SVG 1.1//EN"
 "http://www.w3.org/Graphics/SVG/1.1/DTD/svg11.dtd">
<!-- Generated by graphviz version 13.1.2 (20250808.2320)
 -->
<!-- Title: IYenaDevice9 Pages: 1 -->
<svg width="94pt" height="140pt"
 viewBox="0.00 0.00 94.00 140.00" xmlns="http://www.w3.org/2000/svg" xmlns:xlink="http://www.w3.org/1999/xlink">
<g id="graph0" class="graph" transform="scale(1 1) rotate(0) translate(4 136)">
<title>IYenaDevice9</title>
<!-- Node1 -->
<g id="Node000001" class="node">
<title>Node1</title>
<g id="a_Node000001"><a xlink:title="\u{2b50} Yena 렌더링 디바이스 운용 인터페이스 : IDirect3DDevice9 대응">
<polygon fill="#999999" stroke="#666666" points="81.25,-76 4.5,-76 4.5,-56 81.25,-56 81.25,-76"/>
<text xml:space="preserve" text-anchor="middle" x="42.88" y="-62.5" font-family="Helvetica,sans-Serif" font-size="10.00">IYenaDevice9</text>
</a>
</g>
</g>
<!-- Node3 -->
<g id="Node000003" class="node">
<title>Node3</title>
<g id="a_Node000003"><a xlink:href="class_b3_yena_device9.html" target="_top" xlink:title="\u{2b50} Yena 렌더링 장치 Device 구현 클래스 : IDirect3DDevice9 대응">
<polygon fill="white" stroke="#666666" points="85.75,-20 0,-20 0,0 85.75,0 85.75,-20"/>
<text xml:space="preserve" text-anchor="middle" x="42.88" y="-6.5" font-family="Helvetica,sans-Serif" font-size="10.00">B3YenaDevice9</text>
</a>
</g>
</g>
<!-- Node1&#45;&gt;Node3 -->
<g id="edge2_Node000001_Node000003" class="edge">
<title>Node1&#45;&gt;Node3</title>
<g id="a_edge2_Node000001_Node000003"><a xlink:title=" ">
<path fill="none" stroke="#63b8ff" d="M42.88,-44.13C42.88,-35.9 42.88,-26.85 42.88,-20.3"/>
<polygon fill="#63b8ff" stroke="#63b8ff" points="39.38,-44.08 42.88,-54.08 46.38,-44.08 39.38,-44.08"/>
</a>
</g>
</g>
<!-- Node2 -->
<g id="Node000002" class="node">
<title>Node2</title>
<g id="a_Node000002"><a xlink:href="classyn_i_unknown.html" target="_top" xlink:title="Yena SWR COM 최상위 인터페이스 &lt;간략&gt;">
<polygon fill="white" stroke="#666666" points="78.25,-132 7.5,-132 7.5,-112 78.25,-112 78.25,-132"/>
<text xml:space="preserve" text-anchor="middle" x="42.88" y="-118.5" font-family="Helvetica,sans-Serif" font-size="10.00">ynIUnknown</text>
</a>
</g>
</g>
<!-- Node2&#45;&gt;Node1 -->
<g id="edge1_Node000001_Node000002" class="edge">
<title>Node2&#45;&gt;Node1</title>
<g id="a_edge1_Node000001_Node000002"><a xlink:title=" ">
<path fill="none" stroke="#63b8ff" d="M42.88,-100.13C42.88,-91.9 42.88,-82.85 42.88,-76.3"/>
<polygon fill="#63b8ff" stroke="#63b8ff" points="39.38,-100.08 42.88,-110.08 46.38,-100.08 39.38,-100.08"/>
</a>
</g>
</g>
</g>
</svg>
