<?xml version="1.0" encoding="UTF-8" standalone="no"?>
<!DOCTYPE svg PUBLIC "-//W3C//DTD SVG 1.1//EN"
 "http://www.w3.org/Graphics/SVG/1.1/DTD/svg11.dtd">
<!-- Generated by graphviz version 13.1.2 (20250808.2320)
 -->
<!-- Title: YENA::ynException::ynException Pages: 1 -->
<svg width="272pt" height="78pt"
 viewBox="0.00 0.00 272.00 78.00" xmlns="http://www.w3.org/2000/svg" xmlns:xlink="http://www.w3.org/1999/xlink">
<g id="graph0" class="graph" transform="scale(1 1) rotate(0) translate(4 74)">
<title>YENA::ynException::ynException</title>
<!-- Node1 -->
<g id="Node000001" class="node">
<title>Node1</title>
<g id="a_Node000001"><a xlink:title=" ">
<polygon fill="#999999" stroke="#666666" points="109.75,-48 0,-48 0,-16 109.75,-16 109.75,-48"/>
<text xml:space="preserve" text-anchor="start" x="8" y="-34.5" font-family="Helvetica,sans-Serif" font-size="10.00">YENA::ynException::</text>
<text xml:space="preserve" text-anchor="middle" x="54.88" y="-22.5" font-family="Helvetica,sans-Serif" font-size="10.00">ynException</text>
</a>
</g>
</g>
<!-- Node2 -->
<g id="Node000002" class="node">
<title>Node2</title>
<g id="a_Node000002"><a xlink:href="class_y_e_n_a_1_1yn_exception_acbb6d02a5fff881613bbc78410dc73ea.html#acbb6d02a5fff881613bbc78410dc73ea" target="_top" xlink:title=" ">
<polygon fill="white" stroke="#666666" points="259.62,-70 149.88,-70 149.88,-38 259.62,-38 259.62,-70"/>
<text xml:space="preserve" text-anchor="start" x="157.88" y="-56.5" font-family="Helvetica,sans-Serif" font-size="10.00">YENA::ynException::</text>
<text xml:space="preserve" text-anchor="middle" x="204.75" y="-44.5" font-family="Helvetica,sans-Serif" font-size="10.00">getHRMessage</text>
</a>
</g>
</g>
<!-- Node1&#45;&gt;Node2 -->
<g id="edge1_Node000001_Node000002" class="edge">
<title>Node1&#45;&gt;Node2</title>
<g id="a_edge1_Node000001_Node000002"><a xlink:title=" ">
<path fill="none" stroke="#63b8ff" d="M110.1,-40.07C119.24,-41.43 128.82,-42.85 138.21,-44.25"/>
<polygon fill="#63b8ff" stroke="#63b8ff" points="137.63,-47.7 148.04,-45.71 138.66,-40.78 137.63,-47.7"/>
</a>
</g>
</g>
<!-- Node3 -->
<g id="Node000003" class="node">
<title>Node3</title>
<g id="a_Node000003"><a xlink:href="class_y_e_n_a_1_1yn_exception_a817e1e5e0cbd7f2cad2817507ea44290.html#a817e1e5e0cbd7f2cad2817507ea44290" target="_top" xlink:title=" ">
<polygon fill="white" stroke="#666666" points="263.75,-20 145.75,-20 145.75,0 263.75,0 263.75,-20"/>
<text xml:space="preserve" text-anchor="middle" x="204.75" y="-6.5" font-family="Helvetica,sans-Serif" font-size="10.00">YENA::ynException::hr</text>
</a>
</g>
</g>
<!-- Node1&#45;&gt;Node3 -->
<g id="edge2_Node000001_Node000003" class="edge">
<title>Node1&#45;&gt;Node3</title>
<g id="a_edge2_Node000001_Node000003"><a xlink:title=" ">
<path fill="none" stroke="#63b8ff" d="M110.1,-23.93C117.89,-22.77 125.99,-21.57 134.02,-20.37"/>
<polygon fill="#63b8ff" stroke="#63b8ff" points="134.43,-23.85 143.8,-18.92 133.4,-16.93 134.43,-23.85"/>
</a>
</g>
</g>
</g>
</svg>
