<?xml version="1.0" encoding="UTF-8" standalone="no"?>
<!DOCTYPE svg PUBLIC "-//W3C//DTD SVG 1.1//EN"
 "http://www.w3.org/Graphics/SVG/1.1/DTD/svg11.dtd">
<!-- Generated by graphviz version 13.1.2 (20250808.2320)
 -->
<!-- Title: B3YenaDevice9::CreateVertexBuffer Pages: 1 -->
<svg width="445pt" height="106pt"
 viewBox="0.00 0.00 445.00 106.00" xmlns="http://www.w3.org/2000/svg" xmlns:xlink="http://www.w3.org/1999/xlink">
<g id="graph0" class="graph" transform="scale(1 1) rotate(0) translate(4 102)">
<title>B3YenaDevice9::CreateVertexBuffer</title>
<!-- Node1 -->
<g id="Node000001" class="node">
<title>Node1</title>
<g id="a_Node000001"><a xlink:title=" ">
<polygon fill="#999999" stroke="#666666" points="148.75,-73 0,-73 0,-41 148.75,-41 148.75,-73"/>
<text xml:space="preserve" text-anchor="start" x="8" y="-59.5" font-family="Helvetica,sans-Serif" font-size="10.00">B3YenaDevice9::CreateVertex</text>
<text xml:space="preserve" text-anchor="middle" x="74.38" y="-47.5" font-family="Helvetica,sans-Serif" font-size="10.00">Buffer</text>
</a>
</g>
</g>
<!-- Node2 -->
<g id="Node000002" class="node">
<title>Node2</title>
<g id="a_Node000002"><a xlink:href="class_b3_yena_vertex_buffer9_aa537dc57b7fc42e0f74180099de0d133.html#aa537dc57b7fc42e0f74180099de0d133" target="_top" xlink:title=" ">
<polygon fill="white" stroke="#666666" points="293,-98 184.75,-98 184.75,-66 293,-66 293,-98"/>
<text xml:space="preserve" text-anchor="start" x="192.75" y="-84.5" font-family="Helvetica,sans-Serif" font-size="10.00">B3YenaVertexBuffer9</text>
<text xml:space="preserve" text-anchor="middle" x="238.88" y="-72.5" font-family="Helvetica,sans-Serif" font-size="10.00">::_Create</text>
</a>
</g>
</g>
<!-- Node1&#45;&gt;Node2 -->
<g id="edge1_Node000001_Node000002" class="edge">
<title>Node1&#45;&gt;Node2</title>
<g id="a_edge1_Node000001_Node000002"><a xlink:title=" ">
<path fill="none" stroke="#63b8ff" d="M149.02,-68.33C157.03,-69.56 165.14,-70.81 173.04,-72.02"/>
<polygon fill="#63b8ff" stroke="#63b8ff" points="172.5,-75.48 182.92,-73.54 173.57,-68.57 172.5,-75.48"/>
</a>
</g>
</g>
<!-- Node3 -->
<g id="Node000003" class="node">
<title>Node3</title>
<g id="a_Node000003"><a xlink:href="class_b3_yena_vertex_buffer9_a9271775c74dfb8077732d782b270f728.html#a9271775c74dfb8077732d782b270f728" target="_top" xlink:title=" ">
<polygon fill="white" stroke="#666666" points="293,-48 184.75,-48 184.75,-16 293,-16 293,-48"/>
<text xml:space="preserve" text-anchor="start" x="192.75" y="-34.5" font-family="Helvetica,sans-Serif" font-size="10.00">B3YenaVertexBuffer9</text>
<text xml:space="preserve" text-anchor="middle" x="238.88" y="-22.5" font-family="Helvetica,sans-Serif" font-size="10.00">::QueryInterface</text>
</a>
</g>
</g>
<!-- Node1&#45;&gt;Node3 -->
<g id="edge2_Node000001_Node000003" class="edge">
<title>Node1&#45;&gt;Node3</title>
<g id="a_edge2_Node000001_Node000003"><a xlink:title=" ">
<path fill="none" stroke="#63b8ff" d="M149.02,-45.67C157.03,-44.44 165.14,-43.19 173.04,-41.98"/>
<polygon fill="#63b8ff" stroke="#63b8ff" points="173.57,-45.43 182.92,-40.46 172.5,-38.52 173.57,-45.43"/>
</a>
</g>
</g>
<!-- Node4 -->
<g id="Node000004" class="node">
<title>Node4</title>
<g id="a_Node000004"><a xlink:href="class_b3_yena_vertex_buffer9_a0649a5d29ac1dec96d8b5b559f619114.html#a0649a5d29ac1dec96d8b5b559f619114" target="_top" xlink:title=" ">
<polygon fill="white" stroke="#666666" points="437.25,-70 329,-70 329,-38 437.25,-38 437.25,-70"/>
<text xml:space="preserve" text-anchor="start" x="337" y="-56.5" font-family="Helvetica,sans-Serif" font-size="10.00">B3YenaVertexBuffer9</text>
<text xml:space="preserve" text-anchor="middle" x="383.12" y="-44.5" font-family="Helvetica,sans-Serif" font-size="10.00">::AddRef</text>
</a>
</g>
</g>
<!-- Node3&#45;&gt;Node4 -->
<g id="edge3_Node000003_Node000004" class="edge">
<title>Node3&#45;&gt;Node4</title>
<g id="a_edge3_Node000003_Node000004"><a xlink:title=" ">
<path fill="none" stroke="#63b8ff" d="M293.25,-40.25C301.18,-41.48 309.42,-42.76 317.55,-44.01"/>
<polygon fill="#63b8ff" stroke="#63b8ff" points="317.01,-47.47 327.43,-45.54 318.08,-40.55 317.01,-47.47"/>
</a>
</g>
</g>
<!-- Node5 -->
<g id="Node000005" class="node">
<title>Node5</title>
<g id="a_Node000005"><a xlink:href="group___yena-_c_o_m_ga9e2aa2b3bba79319041923d1db833f2a.html#ga9e2aa2b3bba79319041923d1db833f2a" target="_top" xlink:title=" ">
<polygon fill="white" stroke="#666666" points="419.62,-20 346.62,-20 346.62,0 419.62,0 419.62,-20"/>
<text xml:space="preserve" text-anchor="middle" x="383.12" y="-6.5" font-family="Helvetica,sans-Serif" font-size="10.00">ynIsEqualIID</text>
</a>
</g>
</g>
<!-- Node3&#45;&gt;Node5 -->
<g id="edge4_Node000003_Node000005" class="edge">
<title>Node3&#45;&gt;Node5</title>
<g id="a_edge4_Node000003_Node000005"><a xlink:title=" ">
<path fill="none" stroke="#63b8ff" d="M293.25,-23.75C306.91,-21.63 321.5,-19.38 334.83,-17.31"/>
<polygon fill="#63b8ff" stroke="#63b8ff" points="335.32,-20.78 344.66,-15.79 334.25,-13.86 335.32,-20.78"/>
</a>
</g>
</g>
</g>
</svg>
