<?xml version="1.0" encoding="UTF-8" standalone="no"?>
<!DOCTYPE svg PUBLIC "-//W3C//DTD SVG 1.1//EN"
 "http://www.w3.org/Graphics/SVG/1.1/DTD/svg11.dtd">
<!-- Generated by graphviz version 13.1.2 (20250808.2320)
 -->
<!-- Title: B3YenaGraphicsEngine9::_PixelPipeline Pages: 1 -->
<svg width="292pt" height="190pt"
 viewBox="0.00 0.00 292.00 190.00" xmlns="http://www.w3.org/2000/svg" xmlns:xlink="http://www.w3.org/1999/xlink">
<g id="graph0" class="graph" transform="scale(1 1) rotate(0) translate(4 186)">
<title>B3YenaGraphicsEngine9::_PixelPipeline</title>
<!-- Node1 -->
<g id="Node000001" class="node">
<title>Node1</title>
<g id="a_Node000001"><a xlink:title="\u{2b50} 픽셀 파이프 라인 연산을 수행.">
<polygon fill="#999999" stroke="#666666" points="124,-107 0,-107 0,-75 124,-75 124,-107"/>
<text xml:space="preserve" text-anchor="start" x="8" y="-93.5" font-family="Helvetica,sans-Serif" font-size="10.00">B3YenaGraphicsEngine9</text>
<text xml:space="preserve" text-anchor="middle" x="62" y="-81.5" font-family="Helvetica,sans-Serif" font-size="10.00">::_PixelPipeline</text>
</a>
</g>
</g>
<!-- Node2 -->
<g id="Node000002" class="node">
<title>Node2</title>
<g id="a_Node000002"><a xlink:href="class_b3_yena_graphics_engine9_aba9159be985678d17c68343609158f55.html#aba9159be985678d17c68343609158f55" target="_top" xlink:title=" ">
<polygon fill="white" stroke="#666666" points="284,-182 160,-182 160,-150 284,-150 284,-182"/>
<text xml:space="preserve" text-anchor="start" x="168" y="-168.5" font-family="Helvetica,sans-Serif" font-size="10.00">B3YenaGraphicsEngine9</text>
<text xml:space="preserve" text-anchor="middle" x="222" y="-156.5" font-family="Helvetica,sans-Serif" font-size="10.00">::_Face</text>
</a>
</g>
</g>
<!-- Node1&#45;&gt;Node2 -->
<g id="edge1_Node000001_Node000002" class="edge">
<title>Node1&#45;&gt;Node2</title>
<g id="a_edge1_Node000001_Node000002"><a xlink:title=" ">
<path fill="none" stroke="#63b8ff" d="M93.25,-107.45C112.21,-117.55 137.29,-130.52 160,-141 162.92,-142.35 165.94,-143.7 168.99,-145.05"/>
<polygon fill="#63b8ff" stroke="#63b8ff" points="167.49,-148.21 178.06,-148.94 170.25,-141.78 167.49,-148.21"/>
</a>
</g>
</g>
<!-- Node3 -->
<g id="Node000003" class="node">
<title>Node3</title>
<g id="a_Node000003"><a xlink:href="class_b3_yena_graphics_engine9_add21b57496df3fb1abfc1ef771cee8dd.html#add21b57496df3fb1abfc1ef771cee8dd" target="_top" xlink:title="라인 그리기. (ver.GDI)">
<polygon fill="white" stroke="#666666" points="284,-132 160,-132 160,-100 284,-100 284,-132"/>
<text xml:space="preserve" text-anchor="start" x="168" y="-118.5" font-family="Helvetica,sans-Serif" font-size="10.00">B3YenaGraphicsEngine9</text>
<text xml:space="preserve" text-anchor="middle" x="222" y="-106.5" font-family="Helvetica,sans-Serif" font-size="10.00">::_Line</text>
</a>
</g>
</g>
<!-- Node1&#45;&gt;Node3 -->
<g id="edge2_Node000001_Node000003" class="edge">
<title>Node1&#45;&gt;Node3</title>
<g id="a_edge2_Node000001_Node000003"><a xlink:title=" ">
<path fill="none" stroke="#63b8ff" d="M124.09,-100.67C132,-101.92 140.16,-103.21 148.23,-104.49"/>
<polygon fill="#63b8ff" stroke="#63b8ff" points="147.64,-107.94 158.06,-106.04 148.73,-101.02 147.64,-107.94"/>
</a>
</g>
</g>
<!-- Node4 -->
<g id="Node000004" class="node">
<title>Node4</title>
<g id="a_Node000004"><a xlink:href="class_b3_yena_graphics_engine9_aaf37ac20943fc1a9048efba6fe8816ad.html#aaf37ac20943fc1a9048efba6fe8816ad" target="_top" xlink:title=" ">
<polygon fill="white" stroke="#666666" points="284,-82 160,-82 160,-50 284,-50 284,-82"/>
<text xml:space="preserve" text-anchor="start" x="168" y="-68.5" font-family="Helvetica,sans-Serif" font-size="10.00">B3YenaGraphicsEngine9</text>
<text xml:space="preserve" text-anchor="middle" x="222" y="-56.5" font-family="Helvetica,sans-Serif" font-size="10.00">::_PixelPipeline1</text>
</a>
</g>
</g>
<!-- Node1&#45;&gt;Node4 -->
<g id="edge3_Node000001_Node000004" class="edge">
<title>Node1&#45;&gt;Node4</title>
<g id="a_edge3_Node000001_Node000004"><a xlink:title=" ">
<path fill="none" stroke="#63b8ff" d="M124.09,-81.33C132,-80.08 140.16,-78.79 148.23,-77.51"/>
<polygon fill="#63b8ff" stroke="#63b8ff" points="148.73,-80.98 158.06,-75.96 147.64,-74.06 148.73,-80.98"/>
</a>
</g>
</g>
<!-- Node5 -->
<g id="Node000005" class="node">
<title>Node5</title>
<g id="a_Node000005"><a xlink:href="class_b3_yena_graphics_engine9_a67628bee44574ab6101a56fba79bd053.html#a67628bee44574ab6101a56fba79bd053" target="_top" xlink:title=" ">
<polygon fill="white" stroke="#666666" points="284,-32 160,-32 160,0 284,0 284,-32"/>
<text xml:space="preserve" text-anchor="start" x="168" y="-18.5" font-family="Helvetica,sans-Serif" font-size="10.00">B3YenaGraphicsEngine9</text>
<text xml:space="preserve" text-anchor="middle" x="222" y="-6.5" font-family="Helvetica,sans-Serif" font-size="10.00">::_PixelPipeline2</text>
</a>
</g>
</g>
<!-- Node1&#45;&gt;Node5 -->
<g id="edge4_Node000001_Node000005" class="edge">
<title>Node1&#45;&gt;Node5</title>
<g id="a_edge4_Node000001_Node000005"><a xlink:title=" ">
<path fill="none" stroke="#63b8ff" d="M93.25,-74.55C112.21,-64.45 137.29,-51.48 160,-41 162.92,-39.65 165.94,-38.3 168.99,-36.95"/>
<polygon fill="#63b8ff" stroke="#63b8ff" points="170.25,-40.22 178.06,-33.06 167.49,-33.79 170.25,-40.22"/>
</a>
</g>
</g>
</g>
</svg>
