<?xml version="1.0" encoding="UTF-8" standalone="no"?>
<!DOCTYPE svg PUBLIC "-//W3C//DTD SVG 1.1//EN"
 "http://www.w3.org/Graphics/SVG/1.1/DTD/svg11.dtd">
<!-- Generated by graphviz version 13.1.2 (20250808.2320)
 -->
<!-- Title: B3YenaVertexBuffer9 Pages: 1 -->
<svg width="274pt" height="216pt"
 viewBox="0.00 0.00 274.00 216.00" xmlns="http://www.w3.org/2000/svg" xmlns:xlink="http://www.w3.org/1999/xlink">
<g id="graph0" class="graph" transform="scale(1 1) rotate(0) translate(4 212)">
<title>B3YenaVertexBuffer9</title>
<!-- Node1 -->
<g id="Node000001" class="node">
<title>Node1</title>
<g id="a_Node000001"><a xlink:title="\u{2b50} 정점 버퍼 구현 클래스 : IDirect3DVertexBuffer9 대응">
<polygon fill="#999999" stroke="#666666" points="209.75,-20 101.5,-20 101.5,0 209.75,0 209.75,-20"/>
<text xml:space="preserve" text-anchor="middle" x="155.62" y="-6.5" font-family="Helvetica,sans-Serif" font-size="10.00">B3YenaVertexBuffer9</text>
</a>
</g>
</g>
<!-- Node2 -->
<g id="Node000002" class="node">
<title>Node2</title>
<g id="a_Node000002"><a xlink:href="class_i_yena_vertex_buffer9.html" target="_top" xlink:title="정점 버퍼 운용 인터페이스 : IDirect3DVertexBuffer9 대응">
<polygon fill="white" stroke="#666666" points="99.25,-94 0,-94 0,-74 99.25,-74 99.25,-94"/>
<text xml:space="preserve" text-anchor="middle" x="49.62" y="-80.5" font-family="Helvetica,sans-Serif" font-size="10.00">IYenaVertexBuffer9</text>
</a>
</g>
</g>
<!-- Node2&#45;&gt;Node1 -->
<g id="edge1_Node000001_Node000002" class="edge">
<title>Node2&#45;&gt;Node1</title>
<g id="a_edge1_Node000001_Node000002"><a xlink:title=" ">
<path fill="none" stroke="#63b8ff" d="M72.98,-67.13C94.04,-52.83 124.3,-32.27 141.76,-20.42"/>
<polygon fill="#63b8ff" stroke="#63b8ff" points="71.04,-64.22 64.73,-72.74 74.97,-70.01 71.04,-64.22"/>
</a>
</g>
</g>
<!-- Node3 -->
<g id="Node000003" class="node">
<title>Node3</title>
<g id="a_Node000003"><a xlink:href="class_i_yena_resource9.html" target="_top" xlink:title="&lt; Yena SWR 자료형 정의 : D3D9 대응 (d3d9types.h)">
<polygon fill="white" stroke="#666666" points="93.62,-151 5.62,-151 5.62,-131 93.62,-131 93.62,-151"/>
<text xml:space="preserve" text-anchor="middle" x="49.62" y="-137.5" font-family="Helvetica,sans-Serif" font-size="10.00">IYenaResource9</text>
</a>
</g>
</g>
<!-- Node3&#45;&gt;Node2 -->
<g id="edge2_Node000002_Node000003" class="edge">
<title>Node3&#45;&gt;Node2</title>
<g id="a_edge2_Node000002_Node000003"><a xlink:title=" ">
<path fill="none" stroke="#63b8ff" d="M49.62,-119.69C49.62,-110.97 49.62,-101.22 49.62,-94.28"/>
<polygon fill="#63b8ff" stroke="#63b8ff" points="46.13,-119.4 49.63,-129.4 53.13,-119.4 46.13,-119.4"/>
</a>
</g>
</g>
<!-- Node4 -->
<g id="Node000004" class="node">
<title>Node4</title>
<g id="a_Node000004"><a xlink:href="classyn_i_unknown.html" target="_top" xlink:title="Yena SWR COM 최상위 인터페이스 &lt;간략&gt;">
<polygon fill="white" stroke="#666666" points="85,-208 14.25,-208 14.25,-188 85,-188 85,-208"/>
<text xml:space="preserve" text-anchor="middle" x="49.62" y="-194.5" font-family="Helvetica,sans-Serif" font-size="10.00">ynIUnknown</text>
</a>
</g>
</g>
<!-- Node4&#45;&gt;Node3 -->
<g id="edge3_Node000003_Node000004" class="edge">
<title>Node4&#45;&gt;Node3</title>
<g id="a_edge3_Node000003_Node000004"><a xlink:title=" ">
<path fill="none" stroke="#63b8ff" d="M49.62,-176.69C49.62,-167.97 49.62,-158.22 49.62,-151.28"/>
<polygon fill="#63b8ff" stroke="#63b8ff" points="46.13,-176.4 49.63,-186.4 53.13,-176.4 46.13,-176.4"/>
</a>
</g>
</g>
<!-- Node5 -->
<g id="Node000005" class="node">
<title>Node5</title>
<g id="a_Node000005"><a xlink:href="struct_b3_y_v_e_r_t_e_x_b_u_f_f_e_r___d_e_s_c.html" target="_top" xlink:title="정점 버퍼 정보 기술, D3DVERTEXBUFFER_DESC 대응">
<polygon fill="white" stroke="#666666" points="266,-94 117.25,-94 117.25,-74 266,-74 266,-94"/>
<text xml:space="preserve" text-anchor="middle" x="191.62" y="-80.5" font-family="Helvetica,sans-Serif" font-size="10.00">B3YVERTEXBUFFER_DESC</text>
</a>
</g>
</g>
<!-- Node5&#45;&gt;Node1 -->
<g id="edge4_Node000001_Node000005" class="edge">
<title>Node5&#45;&gt;Node1</title>
<g id="a_edge4_Node000001_Node000005"><a xlink:title=" ">
<path fill="none" stroke="#9a32cd" stroke-dasharray="5,2" d="M181.85,-63.44C174.81,-49.37 165.64,-31.03 160.22,-20.19"/>
<polygon fill="#9a32cd" stroke="#9a32cd" points="178.64,-64.85 186.24,-72.23 184.9,-61.72 178.64,-64.85"/>
</a>
</g>
<text xml:space="preserve" text-anchor="start" x="180.91" y="-43.5" font-family="Helvetica,sans-Serif" font-size="10.00" fill="grey">m_Desc</text>
</g>
</g>
</svg>
