<?xml version="1.0" encoding="UTF-8" standalone="no"?>
<!DOCTYPE svg PUBLIC "-//W3C//DTD SVG 1.1//EN"
 "http://www.w3.org/Graphics/SVG/1.1/DTD/svg11.dtd">
<!-- Generated by graphviz version 13.1.2 (20250808.2320)
 -->
<!-- Title: B3YenaDevice9::DrawPrimitive Pages: 1 -->
<svg width="668pt" height="116pt"
 viewBox="0.00 0.00 668.00 116.00" xmlns="http://www.w3.org/2000/svg" xmlns:xlink="http://www.w3.org/1999/xlink">
<g id="graph0" class="graph" transform="scale(1 1) rotate(0) translate(4 112)">
<title>B3YenaDevice9::DrawPrimitive</title>
<!-- Node1 -->
<g id="Node000001" class="node">
<title>Node1</title>
<g id="a_Node000001"><a xlink:title="\u{2b50} 기하 데이터를 렌더링합니다.">
<polygon fill="#999999" stroke="#666666" points="153.25,-58 0,-58 0,-38 153.25,-38 153.25,-58"/>
<text xml:space="preserve" text-anchor="middle" x="76.62" y="-44.5" font-family="Helvetica,sans-Serif" font-size="10.00">B3YenaDevice9::DrawPrimitive</text>
</a>
</g>
</g>
<!-- Node2 -->
<g id="Node000002" class="node">
<title>Node2</title>
<g id="a_Node000002"><a xlink:href="class_b3_yena_device9_a68a7883852efabbb0b11ff86fa098649.html#a68a7883852efabbb0b11ff86fa098649" target="_top" xlink:title="기하 파이프 라인.">
<polygon fill="white" stroke="#666666" points="340.25,-108 200.5,-108 200.5,-76 340.25,-76 340.25,-108"/>
<text xml:space="preserve" text-anchor="start" x="208.5" y="-94.5" font-family="Helvetica,sans-Serif" font-size="10.00">B3YenaDevice9::_Geometry</text>
<text xml:space="preserve" text-anchor="middle" x="270.38" y="-82.5" font-family="Helvetica,sans-Serif" font-size="10.00">PipeLine</text>
</a>
</g>
</g>
<!-- Node1&#45;&gt;Node2 -->
<g id="edge1_Node000001_Node000002" class="edge">
<title>Node1&#45;&gt;Node2</title>
<g id="a_edge1_Node000001_Node000002"><a xlink:title=" ">
<path fill="none" stroke="#63b8ff" d="M123.07,-58.43C142.86,-62.97 166.67,-68.43 189.27,-73.62"/>
<polygon fill="#63b8ff" stroke="#63b8ff" points="188.25,-76.97 198.78,-75.8 189.81,-70.15 188.25,-76.97"/>
</a>
</g>
</g>
<!-- Node3 -->
<g id="Node000003" class="node">
<title>Node3</title>
<g id="a_Node000003"><a xlink:href="class_b3_yena_device9_a94398088bd2e40ab0f5b46d442697d02.html#a94398088bd2e40ab0f5b46d442697d02" target="_top" xlink:title="픽셀 파이프 라인.">
<polygon fill="white" stroke="#666666" points="348.5,-58 192.25,-58 192.25,-38 348.5,-38 348.5,-58"/>
<text xml:space="preserve" text-anchor="middle" x="270.38" y="-44.5" font-family="Helvetica,sans-Serif" font-size="10.00">B3YenaDevice9::_PixelPipeLine</text>
</a>
</g>
</g>
<!-- Node1&#45;&gt;Node3 -->
<g id="edge2_Node000001_Node000003" class="edge">
<title>Node1&#45;&gt;Node3</title>
<g id="a_edge2_Node000001_Node000003"><a xlink:title=" ">
<path fill="none" stroke="#63b8ff" d="M153.69,-48C162.51,-48 171.56,-48 180.54,-48"/>
<polygon fill="#63b8ff" stroke="#63b8ff" points="180.32,-51.5 190.32,-48 180.32,-44.5 180.32,-51.5"/>
</a>
</g>
</g>
<!-- Node8 -->
<g id="Node000008" class="node">
<title>Node8</title>
<g id="a_Node000008"><a xlink:href="class_b3_yena_device9_a988a31da9005f378e19a846525fa7b13.html#a988a31da9005f378e19a846525fa7b13" target="_top" xlink:title="정점 파이프 라인.">
<polygon fill="white" stroke="#666666" points="351.5,-20 189.25,-20 189.25,0 351.5,0 351.5,-20"/>
<text xml:space="preserve" text-anchor="middle" x="270.38" y="-6.5" font-family="Helvetica,sans-Serif" font-size="10.00">B3YenaDevice9::_VertexPipeLine</text>
</a>
</g>
</g>
<!-- Node1&#45;&gt;Node8 -->
<g id="edge7_Node000001_Node000008" class="edge">
<title>Node1&#45;&gt;Node8</title>
<g id="a_edge7_Node000001_Node000008"><a xlink:title=" ">
<path fill="none" stroke="#63b8ff" d="M130.53,-37.52C153.69,-32.93 181.06,-27.5 205.36,-22.69"/>
<polygon fill="#63b8ff" stroke="#63b8ff" points="206.03,-26.12 215.16,-20.74 204.67,-19.26 206.03,-26.12"/>
</a>
</g>
</g>
<!-- Node4 -->
<g id="Node000004" class="node">
<title>Node4</title>
<g id="a_Node000004"><a xlink:href="class_b3_yena_device9_a5630d3b322a99e2b1d3a497ca5adf397.html#a5630d3b322a99e2b1d3a497ca5adf397" target="_top" xlink:title="\u{2b50} 삼각형 그리기 (ver.GDI) ★">
<polygon fill="white" stroke="#666666" points="532.88,-96 390.88,-96 390.88,-76 532.88,-76 532.88,-96"/>
<text xml:space="preserve" text-anchor="middle" x="461.88" y="-82.5" font-family="Helvetica,sans-Serif" font-size="10.00">B3YenaDevice9::_DrawFace</text>
</a>
</g>
</g>
<!-- Node3&#45;&gt;Node4 -->
<g id="edge3_Node000003_Node000004" class="edge">
<title>Node3&#45;&gt;Node4</title>
<g id="a_edge3_Node000003_Node000004"><a xlink:title=" ">
<path fill="none" stroke="#63b8ff" d="M323.66,-58.48C346.55,-63.07 373.6,-68.5 397.61,-73.31"/>
<polygon fill="#63b8ff" stroke="#63b8ff" points="396.79,-76.72 407.28,-75.25 398.16,-69.85 396.79,-76.72"/>
</a>
</g>
</g>
<!-- Node5 -->
<g id="Node000005" class="node">
<title>Node5</title>
<g id="a_Node000005"><a xlink:href="class_b3_yena_device9_aaef646d2e4b3307f1df6f4891160ff9d.html#aaef646d2e4b3307f1df6f4891160ff9d" target="_top" xlink:title="\u{2b50} 라인 그리기. (ver.GDI) ★">
<polygon fill="white" stroke="#666666" points="531,-58 392.75,-58 392.75,-38 531,-38 531,-58"/>
<text xml:space="preserve" text-anchor="middle" x="461.88" y="-44.5" font-family="Helvetica,sans-Serif" font-size="10.00">B3YenaDevice9::_DrawLine</text>
</a>
</g>
</g>
<!-- Node3&#45;&gt;Node5 -->
<g id="edge4_Node000003_Node000005" class="edge">
<title>Node3&#45;&gt;Node5</title>
<g id="a_edge4_Node000003_Node000005"><a xlink:title=" ">
<path fill="none" stroke="#63b8ff" d="M349,-48C359.58,-48 370.46,-48 381.08,-48"/>
<polygon fill="#63b8ff" stroke="#63b8ff" points="380.97,-51.5 390.97,-48 380.97,-44.5 380.97,-51.5"/>
</a>
</g>
</g>
<!-- Node6 -->
<g id="Node000006" class="node">
<title>Node6</title>
<g id="a_Node000006"><a xlink:href="class_b3_yena_device9_a3261af3210c5579ba3f5eab5fc1cb291.html#a3261af3210c5579ba3f5eab5fc1cb291" target="_top" xlink:title=" ">
<polygon fill="white" stroke="#666666" points="536.25,-20 387.5,-20 387.5,0 536.25,0 536.25,-20"/>
<text xml:space="preserve" text-anchor="middle" x="461.88" y="-6.5" font-family="Helvetica,sans-Serif" font-size="10.00">B3YenaDevice9::_FaceCulling</text>
</a>
</g>
</g>
<!-- Node3&#45;&gt;Node6 -->
<g id="edge5_Node000003_Node000006" class="edge">
<title>Node3&#45;&gt;Node6</title>
<g id="a_edge5_Node000003_Node000006"><a xlink:title=" ">
<path fill="none" stroke="#63b8ff" d="M323.66,-37.52C346.55,-32.93 373.6,-27.5 397.61,-22.69"/>
<polygon fill="#63b8ff" stroke="#63b8ff" points="398.16,-26.15 407.28,-20.75 396.79,-19.28 398.16,-26.15"/>
</a>
</g>
</g>
<!-- Node7 -->
<g id="Node000007" class="node">
<title>Node7</title>
<g id="a_Node000007"><a xlink:href="yn_math_8cpp_a89e31da65b4263dc188d888ae164223c.html#a89e31da65b4263dc188d888ae164223c" target="_top" xlink:title=" ">
<polygon fill="white" stroke="#666666" points="660.25,-20 572.25,-20 572.25,0 660.25,0 660.25,-20"/>
<text xml:space="preserve" text-anchor="middle" x="616.25" y="-6.5" font-family="Helvetica,sans-Serif" font-size="10.00">B3YXVec2CCW</text>
</a>
</g>
</g>
<!-- Node6&#45;&gt;Node7 -->
<g id="edge6_Node000006_Node000007" class="edge">
<title>Node6&#45;&gt;Node7</title>
<g id="a_edge6_Node000006_Node000007"><a xlink:title=" ">
<path fill="none" stroke="#63b8ff" d="M536.38,-10C544.57,-10 552.79,-10 560.67,-10"/>
<polygon fill="#63b8ff" stroke="#63b8ff" points="560.43,-13.5 570.43,-10 560.43,-6.5 560.43,-13.5"/>
</a>
</g>
</g>
</g>
</svg>
