<?xml version="1.0" encoding="UTF-8" standalone="no"?>
<!DOCTYPE svg PUBLIC "-//W3C//DTD SVG 1.1//EN"
 "http://www.w3.org/Graphics/SVG/1.1/DTD/svg11.dtd">
<!-- Generated by graphviz version 13.1.2 (20250808.2320)
 -->
<!-- Title: B3YenaGraphicsEngine9 Pages: 1 -->
<!--zoomable 315 -->

<svg id="main" version="1.1" xmlns="http://www.w3.org/2000/svg" xmlns:xlink="http://www.w3.org/1999/xlink" xml:space="preserve" onload="init(evt)">

<style type="text/css"><![CDATA[
.node, .edge {opacity: 0.7;}
.node.selected, .edge.selected {opacity: 1;}
.edge:hover path { stroke: red; }
.edge:hover polygon { stroke: red; fill: red; }
]]></style>

<defs>
  <circle id="rim" cx="0" cy="0" r="7"/>
  <circle id="rim2" cx="0" cy="0" r="3.5"/>
  <g id="zoomPlus">
    <use xlink:href="#rim" fill="#404040"><set attributeName="fill" to="#808080" begin="zoomplus.mouseover" end="zoomplus.mouseout"/></use>
    <path d="M-4,0h8M0,-4v8" fill="none" stroke="white" stroke-width="1.5" pointer-events="none"/>
  </g>
  <g id="zoomMin">
    <use xlink:href="#rim" fill="#404040"><set attributeName="fill" to="#808080" begin="zoomminus.mouseover" end="zoomminus.mouseout"/></use>
    <path d="M-4,0h8" fill="none" stroke="white" stroke-width="1.5" pointer-events="none"/>
  </g>
  <g id="arrowUp" transform="translate(30 24)">
    <use xlink:href="#rim"/>
    <path pointer-events="none" fill="none" stroke="white" stroke-width="1.5" d="M0,-3.0v7 M-2.5,-0.5L0,-3.0L2.5,-0.5"/>
  </g>
  <g id="arrowRight" transform="rotate(90) translate(36 -43)">
    <use xlink:href="#rim"/>
    <path pointer-events="none" fill="none" stroke="white" stroke-width="1.5" d="M0,-3.0v7 M-2.5,-0.5L0,-3.0L2.5,-0.5"/>
  </g>
  <g id="arrowDown" transform="rotate(180) translate(-30 -48)">
    <use xlink:href="#rim"/>
    <path pointer-events="none" fill="none" stroke="white" stroke-width="1.5" d="M0,-3.0v7 M-2.5,-0.5L0,-3.0L2.5,-0.5"/>
  </g>
  <g id="arrowLeft" transform="rotate(270) translate(-36 17)">
    <use xlink:href="#rim"/>
    <path pointer-events="none" fill="none" stroke="white" stroke-width="1.5" d="M0,-3.0v7 M-2.5,-0.5L0,-3.0L2.5,-0.5"/>
  </g>
  <g id="resetDef">
    <use xlink:href="#rim2" fill="#404040"><set attributeName="fill" to="#808080" begin="reset.mouseover" end="reset.mouseout"/></use>
  </g>
</defs>
<script type="application/ecmascript">
var viewWidth = 1088;
var viewHeight = 315;
var sectionId = 'dynsection-1';
</script>
<script type="application/ecmascript" xlink:href="svg.min.js"/>
<svg id="graph" class="graph">
<g id="viewport">
<title>B3YenaGraphicsEngine9</title>
<!-- Node1 -->
<g id="Node000001" class="node">
<title>Node1</title>
<g id="a_Node000001"><a xlink:title="\u{2b50} Yena 그래픽스 엔진 클래스">
<polygon fill="#999999" stroke="#666666" points="894.25,-176 770.25,-176 770.25,-156 894.25,-156 894.25,-176"/>
<text xml:space="preserve" text-anchor="middle" x="832.25" y="-162.5" font-family="Helvetica,sans-Serif" font-size="10.00">B3YenaGraphicsEngine9</text>
</a>
</g>
</g>
<!-- Node3 -->
<g id="Node000003" class="node">
<title>Node3</title>
<g id="a_Node000003"><a xlink:href="class_b3_yena_device9.html" target="_top" xlink:title="\u{2b50} Yena 렌더링 장치 Device 구현 클래스 : IDirect3DDevice9 대응">
<polygon fill="white" stroke="#666666" points="1079.75,-217 994,-217 994,-197 1079.75,-197 1079.75,-217"/>
<text xml:space="preserve" text-anchor="middle" x="1036.88" y="-203.5" font-family="Helvetica,sans-Serif" font-size="10.00">B3YenaDevice9</text>
</a>
</g>
</g>
<!-- Node1&#45;&gt;Node3 -->
<g id="edge5_Node000003_Node000001" class="edge">
<title>Node1&#45;&gt;Node3</title>
<g id="a_edge5_Node000003_Node000001"><a xlink:title=" ">
<path fill="none" stroke="#9a32cd" stroke-dasharray="5,2" d="M885.6,-179.06C894.47,-181.14 903.61,-183.19 912.25,-185 939.24,-190.64 969.75,-196.08 993.7,-200.14"/>
<polygon fill="#9a32cd" stroke="#9a32cd" points="886.57,-175.69 876.03,-176.78 884.95,-182.5 886.57,-175.69"/>
</a>
</g>
<text xml:space="preserve" text-anchor="start" x="915.25" y="-202.05" font-family="Helvetica,sans-Serif" font-size="10.00" fill="grey">m_pGraphics</text>
</g>
<!-- Node2 -->
<g id="Node000002" class="node">
<title>Node2</title>
<g id="a_Node000002"><a xlink:href="class_b3_yena_core.html" target="_top" xlink:title=" ">
<polygon fill="white" stroke="#666666" points="667.12,-220 596.38,-220 596.38,-200 667.12,-200 667.12,-220"/>
<text xml:space="preserve" text-anchor="middle" x="631.75" y="-206.5" font-family="Helvetica,sans-Serif" font-size="10.00">B3YenaCore</text>
</a>
</g>
</g>
<!-- Node2&#45;&gt;Node1 -->
<g id="edge1_Node000001_Node000002" class="edge">
<title>Node2&#45;&gt;Node1</title>
<g id="a_edge1_Node000001_Node000002"><a xlink:title=" ">
<path fill="none" stroke="#63b8ff" d="M678.62,-202.55C700.94,-198.67 728.09,-193.58 752.25,-188 766.82,-184.64 782.72,-180.33 796.42,-176.42"/>
<polygon fill="#63b8ff" stroke="#63b8ff" points="678.19,-199.07 668.92,-204.2 679.37,-205.97 678.19,-199.07"/>
</a>
</g>
</g>
<!-- Node3&#45;&gt;Node1 -->
<g id="edge2_Node000001_Node000003" class="edge">
<title>Node3&#45;&gt;Node1</title>
<g id="a_edge2_Node000001_Node000003"><a xlink:title=" ">
<path fill="none" stroke="#9a32cd" stroke-dasharray="5,2" d="M1016.29,-189.64C1005.27,-181.04 990.79,-171.54 976,-167 950.06,-159.03 920.19,-157.7 894.5,-158.78"/>
<polygon fill="#9a32cd" stroke="#9a32cd" points="1013.89,-192.2 1023.83,-195.86 1018.34,-186.8 1013.89,-192.2"/>
</a>
</g>
<text xml:space="preserve" text-anchor="start" x="925.75" y="-172.5" font-family="Helvetica,sans-Serif" font-size="10.00" fill="grey">m_pDev</text>
</g>
<!-- Node4 -->
<g id="Node000004" class="node">
<title>Node4</title>
<g id="a_Node000004"><a xlink:href="class_i_yena_device9.html" target="_top" xlink:title="\u{2b50} Yena 렌더링 디바이스 운용 인터페이스 : IDirect3DDevice9 대응">
<polygon fill="white" stroke="#666666" points="290.5,-307 213.75,-307 213.75,-287 290.5,-287 290.5,-307"/>
<text xml:space="preserve" text-anchor="middle" x="252.12" y="-293.5" font-family="Helvetica,sans-Serif" font-size="10.00">IYenaDevice9</text>
</a>
</g>
</g>
<!-- Node4&#45;&gt;Node3 -->
<g id="edge3_Node000003_Node000004" class="edge">
<title>Node4&#45;&gt;Node3</title>
<g id="a_edge3_Node000003_Node000004"><a xlink:title=" ">
<path fill="none" stroke="#63b8ff" d="M302.05,-297.3C354.96,-297.59 441.77,-298 516.62,-298 516.62,-298 516.62,-298 833.25,-298 911.15,-298 992.27,-241.34 1023.03,-217.44"/>
<polygon fill="#63b8ff" stroke="#63b8ff" points="302.18,-293.8 292.16,-297.24 302.14,-300.8 302.18,-293.8"/>
</a>
</g>
</g>
<!-- Node5 -->
<g id="Node000005" class="node">
<title>Node5</title>
<g id="a_Node000005"><a xlink:href="classyn_i_unknown.html" target="_top" xlink:title="Yena SWR COM 최상위 인터페이스 &lt;간략&gt;">
<polygon fill="white" stroke="#666666" points="70.75,-288 0,-288 0,-268 70.75,-268 70.75,-288"/>
<text xml:space="preserve" text-anchor="middle" x="35.38" y="-274.5" font-family="Helvetica,sans-Serif" font-size="10.00">ynIUnknown</text>
</a>
</g>
</g>
<!-- Node5&#45;&gt;Node4 -->
<g id="edge4_Node000004_Node000005" class="edge">
<title>Node5&#45;&gt;Node4</title>
<g id="a_edge4_Node000004_Node000005"><a xlink:title=" ">
<path fill="none" stroke="#63b8ff" d="M82.46,-282.42C84.59,-282.62 86.69,-282.81 88.75,-283 131.44,-286.88 180.47,-291.07 213.39,-293.84"/>
<polygon fill="#63b8ff" stroke="#63b8ff" points="82.81,-278.94 72.53,-281.49 82.16,-285.91 82.81,-278.94"/>
</a>
</g>
</g>
<!-- Node8 -->
<g id="Node000008" class="node">
<title>Node8</title>
<g id="a_Node000008"><a xlink:href="class_i_yena_resource9.html" target="_top" xlink:title="렌더링 자원 기반 인터페이스 : IDirect3DResource9 대응">
<polygon fill="white" stroke="#666666" points="195.75,-269 107.75,-269 107.75,-249 195.75,-249 195.75,-269"/>
<text xml:space="preserve" text-anchor="middle" x="151.75" y="-255.5" font-family="Helvetica,sans-Serif" font-size="10.00">IYenaResource9</text>
</a>
</g>
</g>
<!-- Node5&#45;&gt;Node8 -->
<g id="edge9_Node000008_Node000005" class="edge">
<title>Node5&#45;&gt;Node8</title>
<g id="a_edge9_Node000008_Node000005"><a xlink:title=" ">
<path fill="none" stroke="#63b8ff" d="M82.08,-270.41C90.4,-269.02 99.07,-267.58 107.33,-266.21"/>
<polygon fill="#63b8ff" stroke="#63b8ff" points="81.79,-266.91 72.49,-272 82.93,-273.81 81.79,-266.91"/>
</a>
</g>
</g>
<!-- Node6 -->
<g id="Node000006" class="node">
<title>Node6</title>
<g id="a_Node000006"><a xlink:href="struct_b3_yena_graphics_engine9_1_1_i_n_p_u_t___s_t_r_e_a_m.html" target="_top" xlink:title=" ">
<polygon fill="white" stroke="#666666" points="693.75,-270 569.75,-270 569.75,-238 693.75,-238 693.75,-270"/>
<text xml:space="preserve" text-anchor="start" x="577.75" y="-256.5" font-family="Helvetica,sans-Serif" font-size="10.00">B3YenaGraphicsEngine9</text>
<text xml:space="preserve" text-anchor="middle" x="631.75" y="-244.5" font-family="Helvetica,sans-Serif" font-size="10.00">::INPUT_STREAM</text>
</a>
</g>
</g>
<!-- Node6&#45;&gt;Node1 -->
<g id="edge6_Node000001_Node000006" class="edge">
<title>Node6&#45;&gt;Node1</title>
<g id="a_edge6_Node000001_Node000006"><a xlink:title=" ">
<path fill="none" stroke="#9a32cd" stroke-dasharray="5,2" d="M686.77,-233.45C707.43,-225.29 731.09,-215.58 752.25,-206 772.98,-196.61 796.14,-184.71 812,-176.34"/>
<polygon fill="#9a32cd" stroke="#9a32cd" points="685.72,-230.1 677.68,-237.01 688.27,-236.62 685.72,-230.1"/>
</a>
</g>
<text xml:space="preserve" text-anchor="start" x="714.75" y="-228.29" font-family="Helvetica,sans-Serif" font-size="10.00" fill="grey">m_input</text>
</g>
<!-- Node7 -->
<g id="Node000007" class="node">
<title>Node7</title>
<g id="a_Node000007"><a xlink:href="class_i_yena_vertex_buffer9.html" target="_top" xlink:title="정점 버퍼 운용 인터페이스 : IDirect3DVertexBuffer9 대응">
<polygon fill="white" stroke="#666666" points="436.62,-266 337.38,-266 337.38,-246 436.62,-246 436.62,-266"/>
<text xml:space="preserve" text-anchor="middle" x="387" y="-252.5" font-family="Helvetica,sans-Serif" font-size="10.00">IYenaVertexBuffer9</text>
</a>
</g>
</g>
<!-- Node7&#45;&gt;Node6 -->
<g id="edge7_Node000006_Node000007" class="edge">
<title>Node7&#45;&gt;Node6</title>
<g id="a_edge7_Node000006_Node000007"><a xlink:title=" ">
<path fill="none" stroke="#9a32cd" stroke-dasharray="5,2" d="M448.25,-255.5C485.24,-255.2 532.48,-254.81 569.63,-254.5"/>
<polygon fill="#9a32cd" stroke="#9a32cd" points="448.61,-252 438.64,-255.58 448.67,-259 448.61,-252"/>
</a>
</g>
<text xml:space="preserve" text-anchor="start" x="508.25" y="-260.68" font-family="Helvetica,sans-Serif" font-size="10.00" fill="grey">pVB</text>
</g>
<!-- Node8&#45;&gt;Node7 -->
<g id="edge8_Node000007_Node000008" class="edge">
<title>Node8&#45;&gt;Node7</title>
<g id="a_edge8_Node000007_Node000008"><a xlink:title=" ">
<path fill="none" stroke="#63b8ff" d="M207.57,-258.29C246.89,-257.79 299.4,-257.11 337.26,-256.63"/>
<polygon fill="#63b8ff" stroke="#63b8ff" points="207.54,-254.79 197.59,-258.42 207.63,-261.79 207.54,-254.79"/>
</a>
</g>
</g>
<!-- Node9 -->
<g id="Node000009" class="node">
<title>Node9</title>
<g id="a_Node000009"><a xlink:href="struct_b3_yena_graphics_engine9_1_1_s_t_r_e_a_m___d_b_g.html" target="_top" xlink:title=" ">
<polygon fill="white" stroke="#666666" points="693.75,-182 569.75,-182 569.75,-150 693.75,-150 693.75,-182"/>
<text xml:space="preserve" text-anchor="start" x="577.75" y="-168.5" font-family="Helvetica,sans-Serif" font-size="10.00">B3YenaGraphicsEngine9</text>
<text xml:space="preserve" text-anchor="middle" x="631.75" y="-156.5" font-family="Helvetica,sans-Serif" font-size="10.00">::STREAM_DBG</text>
</a>
</g>
</g>
<!-- Node9&#45;&gt;Node1 -->
<g id="edge10_Node000001_Node000009" class="edge">
<title>Node9&#45;&gt;Node1</title>
<g id="a_edge10_Node000001_Node000009"><a xlink:title=" ">
<path fill="none" stroke="#9a32cd" stroke-dasharray="5,2" d="M705.69,-166C726.73,-166 749.48,-166 769.75,-166"/>
<polygon fill="#9a32cd" stroke="#9a32cd" points="705.71,-162.5 695.71,-166 705.71,-169.5 705.71,-162.5"/>
</a>
</g>
<text xml:space="preserve" text-anchor="start" x="717" y="-171.5" font-family="Helvetica,sans-Serif" font-size="10.00" fill="grey">m_stm</text>
</g>
<!-- Node10 -->
<g id="Node000010" class="node">
<title>Node10</title>
<g id="a_Node000010"><a xlink:href="struct_b3_yena_graphics_engine9_1_1_t_r_a_n_s_f_o_r_m.html" target="_top" xlink:title=" ">
<polygon fill="white" stroke="#666666" points="693.75,-132 569.75,-132 569.75,-100 693.75,-100 693.75,-132"/>
<text xml:space="preserve" text-anchor="start" x="577.75" y="-118.5" font-family="Helvetica,sans-Serif" font-size="10.00">B3YenaGraphicsEngine9</text>
<text xml:space="preserve" text-anchor="middle" x="631.75" y="-106.5" font-family="Helvetica,sans-Serif" font-size="10.00">::TRANSFORM</text>
</a>
</g>
</g>
<!-- Node10&#45;&gt;Node1 -->
<g id="edge11_Node000001_Node000010" class="edge">
<title>Node10&#45;&gt;Node1</title>
<g id="a_edge11_Node000001_Node000010"><a xlink:title=" ">
<path fill="none" stroke="#9a32cd" stroke-dasharray="5,2" d="M705.14,-132.45C720.71,-136.13 737.05,-140.11 752.25,-144 766.32,-147.61 781.72,-151.83 795.15,-155.61"/>
<polygon fill="#9a32cd" stroke="#9a32cd" points="705.98,-129.05 695.44,-130.18 704.38,-135.87 705.98,-129.05"/>
</a>
</g>
<text xml:space="preserve" text-anchor="start" x="717" y="-149.5" font-family="Helvetica,sans-Serif" font-size="10.00" fill="grey">m_tms</text>
</g>
<!-- Node11 -->
<g id="Node000011" class="node">
<title>Node11</title>
<g id="a_Node000011"><a xlink:href="class_b3_y_x_m_a_t_r_i_x.html" target="_top" xlink:title="\u{2b50} 행렬 클래스">
<polygon fill="white" stroke="#666666" points="426.5,-126 347.5,-126 347.5,-106 426.5,-106 426.5,-126"/>
<text xml:space="preserve" text-anchor="middle" x="387" y="-112.5" font-family="Helvetica,sans-Serif" font-size="10.00">B3YXMATRIX</text>
</a>
</g>
</g>
<!-- Node11&#45;&gt;Node10 -->
<g id="edge12_Node000010_Node000011" class="edge">
<title>Node11&#45;&gt;Node10</title>
<g id="a_edge12_Node000010_Node000011"><a xlink:title=" ">
<path fill="none" stroke="#9a32cd" stroke-dasharray="5,2" d="M438.06,-116C476.17,-116 528.81,-116 569.44,-116"/>
<polygon fill="#9a32cd" stroke="#9a32cd" points="438.25,-112.5 428.25,-116 438.25,-119.5 438.25,-112.5"/>
</a>
</g>
<text xml:space="preserve" text-anchor="start" x="503.38" y="-121.5" font-family="Helvetica,sans-Serif" font-size="10.00" fill="grey">mTFM</text>
</g>
<!-- Node12 -->
<g id="Node000012" class="node">
<title>Node12</title>
<g id="a_Node000012"><a xlink:href="struct_b3_y_m_a_t_r_i_x.html" target="_top" xlink:title="\u{2b50} 행렬 구조체">
<polygon fill="white" stroke="#666666" points="187.88,-126 115.62,-126 115.62,-106 187.88,-106 187.88,-126"/>
<text xml:space="preserve" text-anchor="middle" x="151.75" y="-112.5" font-family="Helvetica,sans-Serif" font-size="10.00">B3YMATRIX</text>
</a>
</g>
</g>
<!-- Node12&#45;&gt;Node11 -->
<g id="edge13_Node000011_Node000012" class="edge">
<title>Node12&#45;&gt;Node11</title>
<g id="a_edge13_Node000011_Node000012"><a xlink:title=" ">
<path fill="none" stroke="#63b8ff" d="M199.54,-116C242.87,-116 306.53,-116 347.12,-116"/>
<polygon fill="#63b8ff" stroke="#63b8ff" points="199.69,-112.5 189.69,-116 199.69,-119.5 199.69,-112.5"/>
</a>
</g>
</g>
<!-- Node13 -->
<g id="Node000013" class="node">
<title>Node13</title>
<g id="a_Node000013"><a xlink:href="struct_b3_yena_graphics_engine9_1_1_p_i_p_e_l_i_n_e___s_t_a_t_e.html" target="_top" xlink:title=" ">
<polygon fill="white" stroke="#666666" points="693.75,-82 569.75,-82 569.75,-50 693.75,-50 693.75,-82"/>
<text xml:space="preserve" text-anchor="start" x="577.75" y="-68.5" font-family="Helvetica,sans-Serif" font-size="10.00">B3YenaGraphicsEngine9</text>
<text xml:space="preserve" text-anchor="middle" x="631.75" y="-56.5" font-family="Helvetica,sans-Serif" font-size="10.00">::PIPELINE_STATE</text>
</a>
</g>
</g>
<!-- Node13&#45;&gt;Node1 -->
<g id="edge14_Node000001_Node000013" class="edge">
<title>Node13&#45;&gt;Node1</title>
<g id="a_edge14_Node000001_Node000013"><a xlink:title=" ">
<path fill="none" stroke="#9a32cd" stroke-dasharray="5,2" d="M693.74,-86.36C712.88,-93.57 733.82,-102.32 752.25,-112 776.81,-124.9 802.95,-143.95 818.15,-155.63"/>
<polygon fill="#9a32cd" stroke="#9a32cd" points="695.03,-83.1 684.43,-82.93 692.61,-89.67 695.03,-83.1"/>
</a>
</g>
<text xml:space="preserve" text-anchor="start" x="717.38" y="-117.5" font-family="Helvetica,sans-Serif" font-size="10.00" fill="grey">m_pso</text>
</g>
<!-- Node14 -->
<g id="Node000014" class="node">
<title>Node14</title>
<g id="a_Node000014"><a xlink:href="struct_b3_yena_graphics_engine9_1_1_o_u_t_p_u_t___m_e_r_g_e.html" target="_top" xlink:title=" ">
<polygon fill="white" stroke="#666666" points="693.75,-32 569.75,-32 569.75,0 693.75,0 693.75,-32"/>
<text xml:space="preserve" text-anchor="start" x="577.75" y="-18.5" font-family="Helvetica,sans-Serif" font-size="10.00">B3YenaGraphicsEngine9</text>
<text xml:space="preserve" text-anchor="middle" x="631.75" y="-6.5" font-family="Helvetica,sans-Serif" font-size="10.00">::OUTPUT_MERGE</text>
</a>
</g>
</g>
<!-- Node14&#45;&gt;Node1 -->
<g id="edge15_Node000001_Node000014" class="edge">
<title>Node14&#45;&gt;Node1</title>
<g id="a_edge15_Node000001_Node000014"><a xlink:title=" ">
<path fill="none" stroke="#9a32cd" stroke-dasharray="5,2" d="M684.77,-36.91C687.82,-38.27 690.84,-39.63 693.75,-41 720.4,-53.48 729.36,-53.51 752.25,-72 783.75,-97.46 812.01,-136.9 824.49,-155.55"/>
<polygon fill="#9a32cd" stroke="#9a32cd" points="686.29,-33.76 675.72,-33 683.51,-40.18 686.29,-33.76"/>
</a>
</g>
<text xml:space="preserve" text-anchor="start" x="718.5" y="-77.5" font-family="Helvetica,sans-Serif" font-size="10.00" fill="grey">m_om</text>
</g>
<!-- Node15 -->
<g id="Node000015" class="node">
<title>Node15</title>
<g id="a_Node000015"><a xlink:href="struct_b3_y_p_r_e_s_e_n_t___p_a_r_a_m_e_t_e_r_s.html" target="_top" xlink:title="스왑체인 정보기술 구조체 : D3DPRESENT_PARAMETERS 대응">
<polygon fill="white" stroke="#666666" points="465.5,-26 308.5,-26 308.5,-6 465.5,-6 465.5,-26"/>
<text xml:space="preserve" text-anchor="middle" x="387" y="-12.5" font-family="Helvetica,sans-Serif" font-size="10.00">B3YPRESENT_PARAMETERS</text>
</a>
</g>
</g>
<!-- Node15&#45;&gt;Node14 -->
<g id="edge16_Node000014_Node000015" class="edge">
<title>Node15&#45;&gt;Node14</title>
<g id="a_edge16_Node000014_Node000015"><a xlink:title=" ">
<path fill="none" stroke="#9a32cd" stroke-dasharray="5,2" d="M476.99,-16C507.75,-16 541.49,-16 569.52,-16"/>
<polygon fill="#9a32cd" stroke="#9a32cd" points="477.32,-12.5 467.32,-16 477.32,-19.5 477.32,-12.5"/>
</a>
</g>
<text xml:space="preserve" text-anchor="start" x="486.5" y="-21.5" font-family="Helvetica,sans-Serif" font-size="10.00" fill="grey">PresentParam</text>
</g>
</g>
</svg>

<g id="navigator" transform="translate(0 0)" fill="#404254">
  <rect fill="#f2f5e9" fill-opacity="0.5" stroke="#606060" stroke-width=".5" x="0" y="0" width="60" height="60"/>
  <use id="zoomplus" xlink:href="#zoomPlus" x="17" y="9" onmousedown="handleZoom(evt,'in')"/>
  <use id="zoomminus" xlink:href="#zoomMin" x="42" y="9" onmousedown="handleZoom(evt,'out')"/>
  <use id="reset" xlink:href="#resetDef" x="30" y="36" onmousedown="handleReset()"/>
   <use id="arrowup" xlink:href="#arrowUp" x="0" y="0" onmousedown="handlePan(0,-1)"/>
  <use id="arrowright" xlink:href="#arrowRight" x="0" y="0" onmousedown="handlePan(1,0)"/>
  <use id="arrowdown" xlink:href="#arrowDown" x="0" y="0" onmousedown="handlePan(0,1)"/>
  <use id="arrowleft" xlink:href="#arrowLeft" x="0" y="0" onmousedown="handlePan(-1,0)"/>
</g>
<svg viewBox="0 0 15 15" width="100%" height="30px" preserveAspectRatio="xMaxYMin meet">
 <g id="arrow_out" transform="scale(0.3 0.3)">
  <a xlink:href="class_b3_yena_graphics_engine9__coll__graph_org.svg" target="_base">
   <rect id="button" ry="5" rx="5" y="6" x="6" height="38" width="38"
        fill="#f2f5e9" fill-opacity="0.5" stroke="#606060" stroke-width="1.0"/>
   <path id="arrow"
     d="M 11.500037,31.436501 C 11.940474,20.09759 22.043105,11.32322 32.158766,21.979434 L 37.068811,17.246167 C 37.068811,17.246167 37.088388,32 37.088388,32 L 22.160133,31.978069 C 22.160133,31.978069 26.997745,27.140456 26.997745,27.140456 C 18.528582,18.264221 13.291696,25.230495 11.500037,31.436501 z"
     style="fill:#404040;"/>
  </a>
 </g>
</svg>

<style type='text/css'>
<![CDATA[
[data-mouse-over-selected='false'] { opacity: 0.7; }
[data-mouse-over-selected='true']  { opacity: 1.0; }
]]>
</style>
<script type="application/ecmascript"><![CDATA[
document.addEventListener('DOMContentLoaded', (event) => {
  highlightEdges();
  highlightAdjacentNodes();
});
]]></script>
</svg>
