<?xml version="1.0" encoding="UTF-8" standalone="no"?>
<!DOCTYPE svg PUBLIC "-//W3C//DTD SVG 1.1//EN"
 "http://www.w3.org/Graphics/SVG/1.1/DTD/svg11.dtd">
<!-- Generated by graphviz version 13.1.2 (20250808.2320)
 -->
<!-- Title: B3YenaDevice9 Pages: 1 -->
<svg width="346pt" height="235pt"
 viewBox="0.00 0.00 346.00 235.00" xmlns="http://www.w3.org/2000/svg" xmlns:xlink="http://www.w3.org/1999/xlink">
<g id="graph0" class="graph" transform="scale(1 1) rotate(0) translate(4 231)">
<title>B3YenaDevice9</title>
<!-- Node1 -->
<g id="Node000001" class="node">
<title>Node1</title>
<g id="a_Node000001"><a xlink:title="\u{2b50} Yena 렌더링 장치 Device 구현 클래스 : IDirect3DDevice9 대응">
<polygon fill="#999999" stroke="#666666" points="156.25,-20 70.5,-20 70.5,0 156.25,0 156.25,-20"/>
<text xml:space="preserve" text-anchor="middle" x="113.38" y="-6.5" font-family="Helvetica,sans-Serif" font-size="10.00">B3YenaDevice9</text>
</a>
</g>
</g>
<!-- Node2 -->
<g id="Node000002" class="node">
<title>Node2</title>
<g id="a_Node000002"><a xlink:href="class_i_yena_device9.html" target="_top" xlink:title="\u{2b50} Yena 렌더링 디바이스 운용 인터페이스 : IDirect3DDevice9 대응">
<polygon fill="white" stroke="#666666" points="76.75,-132 0,-132 0,-112 76.75,-112 76.75,-132"/>
<text xml:space="preserve" text-anchor="middle" x="38.38" y="-118.5" font-family="Helvetica,sans-Serif" font-size="10.00">IYenaDevice9</text>
</a>
</g>
</g>
<!-- Node2&#45;&gt;Node1 -->
<g id="edge1_Node000001_Node000002" class="edge">
<title>Node2&#45;&gt;Node1</title>
<g id="a_edge1_Node000001_Node000002"><a xlink:title=" ">
<path fill="none" stroke="#63b8ff" d="M43.19,-100.85C45.76,-92.21 49.43,-82.24 54.38,-74 67.48,-52.16 89.2,-31.54 102.31,-20.16"/>
<polygon fill="#63b8ff" stroke="#63b8ff" points="39.84,-99.82 40.66,-110.39 46.61,-101.62 39.84,-99.82"/>
</a>
</g>
</g>
<!-- Node3 -->
<g id="Node000003" class="node">
<title>Node3</title>
<g id="a_Node000003"><a xlink:href="classyn_i_unknown.html" target="_top" xlink:title="Yena SWR COM 최상위 인터페이스 &lt;간략&gt;">
<polygon fill="white" stroke="#666666" points="86.75,-227 16,-227 16,-207 86.75,-207 86.75,-227"/>
<text xml:space="preserve" text-anchor="middle" x="51.38" y="-213.5" font-family="Helvetica,sans-Serif" font-size="10.00">ynIUnknown</text>
</a>
</g>
</g>
<!-- Node3&#45;&gt;Node2 -->
<g id="edge2_Node000002_Node000003" class="edge">
<title>Node3&#45;&gt;Node2</title>
<g id="a_edge2_Node000002_Node000003"><a xlink:title=" ">
<path fill="none" stroke="#63b8ff" d="M48.5,-195.4C45.76,-175.81 41.76,-147.2 39.7,-132.5"/>
<polygon fill="#63b8ff" stroke="#63b8ff" points="45.02,-195.82 49.87,-205.24 51.95,-194.86 45.02,-195.82"/>
</a>
</g>
</g>
<!-- Node6 -->
<g id="Node000006" class="node">
<title>Node6</title>
<g id="a_Node000006"><a xlink:href="class_i_yena_resource9.html" target="_top" xlink:title="&lt; Yena SWR 자료형 정의 : D3D9 대응 (d3d9types.h)">
<polygon fill="white" stroke="#666666" points="156.38,-170 68.38,-170 68.38,-150 156.38,-150 156.38,-170"/>
<text xml:space="preserve" text-anchor="middle" x="112.38" y="-156.5" font-family="Helvetica,sans-Serif" font-size="10.00">IYenaResource9</text>
</a>
</g>
</g>
<!-- Node3&#45;&gt;Node6 -->
<g id="edge6_Node000006_Node000003" class="edge">
<title>Node3&#45;&gt;Node6</title>
<g id="a_edge6_Node000006_Node000003"><a xlink:title=" ">
<path fill="none" stroke="#63b8ff" d="M70.26,-198.97C80.8,-189.47 93.5,-178.02 102.18,-170.19"/>
<polygon fill="#63b8ff" stroke="#63b8ff" points="67.93,-196.36 62.85,-205.66 72.62,-201.56 67.93,-196.36"/>
</a>
</g>
</g>
<!-- Node4 -->
<g id="Node000004" class="node">
<title>Node4</title>
<g id="a_Node000004"><a xlink:href="struct_b3_y_p_r_e_s_e_n_t___p_a_r_a_m_e_t_e_r_s.html" target="_top" xlink:title="스왑체인 정보기술 구조체 : D3DPRESENT_PARAMETERS 대응">
<polygon fill="white" stroke="#666666" points="337.88,-94 180.88,-94 180.88,-74 337.88,-74 337.88,-94"/>
<text xml:space="preserve" text-anchor="middle" x="259.38" y="-80.5" font-family="Helvetica,sans-Serif" font-size="10.00">B3YPRESENT_PARAMETERS</text>
</a>
</g>
</g>
<!-- Node4&#45;&gt;Node1 -->
<g id="edge3_Node000001_Node000004" class="edge">
<title>Node4&#45;&gt;Node1</title>
<g id="a_edge3_Node000001_Node000004"><a xlink:title=" ">
<path fill="none" stroke="#9a32cd" stroke-dasharray="5,2" d="M230.31,-68.67C201.25,-54.34 157.39,-32.71 132.47,-20.42"/>
<polygon fill="#9a32cd" stroke="#9a32cd" points="228.41,-71.63 238.93,-72.92 231.51,-65.36 228.41,-71.63"/>
</a>
</g>
<text xml:space="preserve" text-anchor="start" x="206.75" y="-43.5" font-family="Helvetica,sans-Serif" font-size="10.00" fill="grey">m_PresentParam</text>
</g>
<!-- Node5 -->
<g id="Node000005" class="node">
<title>Node5</title>
<g id="a_Node000005"><a xlink:href="class_i_yena_vertex_buffer9.html" target="_top" xlink:title="정점 버퍼 운용 인터페이스 : IDirect3DVertexBuffer9 대응">
<polygon fill="white" stroke="#666666" points="163,-94 63.75,-94 63.75,-74 163,-74 163,-94"/>
<text xml:space="preserve" text-anchor="middle" x="113.38" y="-80.5" font-family="Helvetica,sans-Serif" font-size="10.00">IYenaVertexBuffer9</text>
</a>
</g>
</g>
<!-- Node5&#45;&gt;Node1 -->
<g id="edge4_Node000001_Node000005" class="edge">
<title>Node5&#45;&gt;Node1</title>
<g id="a_edge4_Node000001_Node000005"><a xlink:title=" ">
<path fill="none" stroke="#9a32cd" stroke-dasharray="5,2" d="M113.38,-62.18C113.38,-48.29 113.38,-30.71 113.38,-20.19"/>
<polygon fill="#9a32cd" stroke="#9a32cd" points="109.88,-62.07 113.38,-72.07 116.88,-62.07 109.88,-62.07"/>
</a>
</g>
<text xml:space="preserve" text-anchor="start" x="116.38" y="-43.5" font-family="Helvetica,sans-Serif" font-size="10.00" fill="grey">m_pVB</text>
</g>
<!-- Node6&#45;&gt;Node5 -->
<g id="edge5_Node000005_Node000006" class="edge">
<title>Node6&#45;&gt;Node5</title>
<g id="a_edge5_Node000005_Node000006"><a xlink:title=" ">
<path fill="none" stroke="#63b8ff" d="M112.66,-138.23C112.85,-123.69 113.1,-104.99 113.25,-94.06"/>
<polygon fill="#63b8ff" stroke="#63b8ff" points="109.16,-138.07 112.52,-148.11 116.16,-138.16 109.16,-138.07"/>
</a>
</g>
</g>
</g>
</svg>
