<?xml version="1.0" encoding="UTF-8" standalone="no"?>
<!DOCTYPE svg PUBLIC "-//W3C//DTD SVG 1.1//EN"
 "http://www.w3.org/Graphics/SVG/1.1/DTD/svg11.dtd">
<!-- Generated by graphviz version 13.1.2 (20250808.2320)
 -->
<!-- Title: B3Yena::CreateDevice Pages: 1 -->
<svg width="477pt" height="97pt"
 viewBox="0.00 0.00 477.00 97.00" xmlns="http://www.w3.org/2000/svg" xmlns:xlink="http://www.w3.org/1999/xlink">
<g id="graph0" class="graph" transform="scale(1 1) rotate(0) translate(4 93)">
<title>B3Yena::CreateDevice</title>
<!-- Node1 -->
<g id="Node000001" class="node">
<title>Node1</title>
<g id="a_Node000001"><a xlink:title="Yena SWR 렌더링 디바이스 개체 생성 : D3D9 대응">
<polygon fill="#999999" stroke="#666666" points="115.75,-61 0,-61 0,-41 115.75,-41 115.75,-61"/>
<text xml:space="preserve" text-anchor="middle" x="57.88" y="-47.5" font-family="Helvetica,sans-Serif" font-size="10.00">B3Yena::CreateDevice</text>
</a>
</g>
</g>
<!-- Node2 -->
<g id="Node000002" class="node">
<title>Node2</title>
<g id="a_Node000002"><a xlink:href="class_b3_yena_device9_a7041b60c0ace95f1d43573a13097dc31.html#a7041b60c0ace95f1d43573a13097dc31" target="_top" xlink:title=" ">
<polygon fill="white" stroke="#666666" points="307.62,-89 152.12,-89 152.12,-57 307.62,-57 307.62,-89"/>
<text xml:space="preserve" text-anchor="start" x="160.12" y="-75.5" font-family="Helvetica,sans-Serif" font-size="10.00">B3YenaDevice9::_RenderTarget</text>
<text xml:space="preserve" text-anchor="middle" x="229.88" y="-63.5" font-family="Helvetica,sans-Serif" font-size="10.00">Create</text>
</a>
</g>
</g>
<!-- Node1&#45;&gt;Node2 -->
<g id="edge1_Node000001_Node000002" class="edge">
<title>Node1&#45;&gt;Node2</title>
<g id="a_edge1_Node000001_Node000002"><a xlink:title=" ">
<path fill="none" stroke="#63b8ff" d="M115.96,-58.39C123.85,-59.41 132.1,-60.48 140.4,-61.55"/>
<polygon fill="#63b8ff" stroke="#63b8ff" points="139.84,-65.01 150.21,-62.82 140.74,-58.06 139.84,-65.01"/>
</a>
</g>
</g>
<!-- Node3 -->
<g id="Node000003" class="node">
<title>Node3</title>
<g id="a_Node000003"><a xlink:href="class_b3_yena_device9_a3448d8c5c0b5227fc04e5280e55bb37d.html#a3448d8c5c0b5227fc04e5280e55bb37d" target="_top" xlink:title=" ">
<polygon fill="white" stroke="#666666" points="308,-39 151.75,-39 151.75,-19 308,-19 308,-39"/>
<text xml:space="preserve" text-anchor="middle" x="229.88" y="-25.5" font-family="Helvetica,sans-Serif" font-size="10.00">B3YenaDevice9::QueryInterface</text>
</a>
</g>
</g>
<!-- Node1&#45;&gt;Node3 -->
<g id="edge2_Node000001_Node000003" class="edge">
<title>Node1&#45;&gt;Node3</title>
<g id="a_edge2_Node000001_Node000003"><a xlink:title=" ">
<path fill="none" stroke="#63b8ff" d="M115.96,-43.61C123.78,-42.6 131.96,-41.54 140.19,-40.48"/>
<polygon fill="#63b8ff" stroke="#63b8ff" points="140.44,-43.97 149.9,-39.22 139.54,-37.03 140.44,-43.97"/>
</a>
</g>
</g>
<!-- Node4 -->
<g id="Node000004" class="node">
<title>Node4</title>
<g id="a_Node000004"><a xlink:href="class_b3_yena_device9_aca6b4939afea95dbfb5dab21406d0000.html#aca6b4939afea95dbfb5dab21406d0000" target="_top" xlink:title=" ">
<polygon fill="white" stroke="#666666" points="468.75,-58 344,-58 344,-38 468.75,-38 468.75,-58"/>
<text xml:space="preserve" text-anchor="middle" x="406.38" y="-44.5" font-family="Helvetica,sans-Serif" font-size="10.00">B3YenaDevice9::AddRef</text>
</a>
</g>
</g>
<!-- Node3&#45;&gt;Node4 -->
<g id="edge3_Node000003_Node000004" class="edge">
<title>Node3&#45;&gt;Node4</title>
<g id="a_edge3_Node000003_Node000004"><a xlink:title=" ">
<path fill="none" stroke="#63b8ff" d="M308.43,-37.44C316.32,-38.3 324.32,-39.17 332.16,-40.03"/>
<polygon fill="#63b8ff" stroke="#63b8ff" points="331.68,-43.5 342,-41.1 332.44,-36.54 331.68,-43.5"/>
</a>
</g>
</g>
<!-- Node5 -->
<g id="Node000005" class="node">
<title>Node5</title>
<g id="a_Node000005"><a xlink:href="group___yena-_c_o_m_ga9e2aa2b3bba79319041923d1db833f2a.html#ga9e2aa2b3bba79319041923d1db833f2a" target="_top" xlink:title=" ">
<polygon fill="white" stroke="#666666" points="442.88,-20 369.88,-20 369.88,0 442.88,0 442.88,-20"/>
<text xml:space="preserve" text-anchor="middle" x="406.38" y="-6.5" font-family="Helvetica,sans-Serif" font-size="10.00">ynIsEqualIID</text>
</a>
</g>
</g>
<!-- Node3&#45;&gt;Node5 -->
<g id="edge4_Node000003_Node000005" class="edge">
<title>Node3&#45;&gt;Node5</title>
<g id="a_edge4_Node000003_Node000005"><a xlink:title=" ">
<path fill="none" stroke="#63b8ff" d="M308.43,-20.56C325.4,-18.71 342.87,-16.81 358.22,-15.13"/>
<polygon fill="#63b8ff" stroke="#63b8ff" points="358.44,-18.63 368,-14.07 357.68,-11.67 358.44,-18.63"/>
</a>
</g>
</g>
</g>
</svg>
