<?xml version="1.0" encoding="UTF-8" standalone="no"?>
<!DOCTYPE svg PUBLIC "-//W3C//DTD SVG 1.1//EN"
 "http://www.w3.org/Graphics/SVG/1.1/DTD/svg11.dtd">
<!-- Generated by graphviz version 13.1.2 (20250808.2320)
 -->
<!-- Title: B3YenaGraphicsEngine9::_Line Pages: 1 -->
<svg width="373pt" height="62pt"
 viewBox="0.00 0.00 373.00 62.00" xmlns="http://www.w3.org/2000/svg" xmlns:xlink="http://www.w3.org/1999/xlink">
<g id="graph0" class="graph" transform="scale(1 1) rotate(0) translate(4 58)">
<title>B3YenaGraphicsEngine9::_Line</title>
<!-- Node1 -->
<g id="Node000001" class="node">
<title>Node1</title>
<g id="a_Node000001"><a xlink:title=" ">
<polygon fill="#999999" stroke="#666666" points="124,-32 0,-32 0,0 124,0 124,-32"/>
<text xml:space="preserve" text-anchor="start" x="8" y="-18.5" font-family="Helvetica,sans-Serif" font-size="10.00">B3YenaGraphicsEngine9</text>
<text xml:space="preserve" text-anchor="middle" x="62" y="-6.5" font-family="Helvetica,sans-Serif" font-size="10.00">::_Line</text>
</a>
</g>
</g>
<!-- Node2 -->
<g id="Node000002" class="node">
<title>Node2</title>
<g id="a_Node000002"><a xlink:href="class_b3_yena_graphics_engine9_a0a5e0617f78fc8258ed3681b40e54d2f.html#a0a5e0617f78fc8258ed3681b40e54d2f" target="_top" xlink:title=" ">
<polygon fill="white" stroke="#666666" points="284,-54 160,-54 160,-22 284,-22 284,-54"/>
<text xml:space="preserve" text-anchor="start" x="168" y="-40.5" font-family="Helvetica,sans-Serif" font-size="10.00">B3YenaGraphicsEngine9</text>
<text xml:space="preserve" text-anchor="middle" x="222" y="-28.5" font-family="Helvetica,sans-Serif" font-size="10.00">::_HLine</text>
</a>
</g>
</g>
<!-- Node1&#45;&gt;Node2 -->
<g id="edge1_Node000001_Node000002" class="edge">
<title>Node1&#45;&gt;Node2</title>
<g id="a_edge1_Node000001_Node000002"><a xlink:title=" ">
<path fill="none" stroke="#63b8ff" d="M124.09,-24.51C132,-25.61 140.16,-26.74 148.23,-27.87"/>
<polygon fill="#63b8ff" stroke="#63b8ff" points="147.67,-31.32 158.06,-29.24 148.63,-24.39 147.67,-31.32"/>
</a>
</g>
</g>
<!-- Node3 -->
<g id="Node000003" class="node">
<title>Node3</title>
<g id="a_Node000003"><a xlink:href="group___yena-_math_ga692ccf4262a41b1452e10da737cb17a4.html#ga692ccf4262a41b1452e10da737cb17a4" target="_top" xlink:title="선형보간 (Linear Interpolation) 함수">
<polygon fill="white" stroke="#666666" points="365.25,-26 320,-26 320,-6 365.25,-6 365.25,-26"/>
<text xml:space="preserve" text-anchor="middle" x="342.62" y="-12.5" font-family="Helvetica,sans-Serif" font-size="10.00">ynLerp</text>
</a>
</g>
</g>
<!-- Node1&#45;&gt;Node3 -->
<g id="edge3_Node000001_Node000003" class="edge">
<title>Node1&#45;&gt;Node3</title>
<g id="a_edge3_Node000001_Node000003"><a xlink:title=" ">
<path fill="none" stroke="#63b8ff" d="M124.31,-13.82C136.15,-13.48 148.46,-13.18 160,-13 215.1,-12.15 228.91,-11.57 284,-13 291.94,-13.21 300.49,-13.57 308.51,-13.98"/>
<polygon fill="#63b8ff" stroke="#63b8ff" points="308.06,-17.46 318.23,-14.51 308.44,-10.47 308.06,-17.46"/>
</a>
</g>
</g>
<!-- Node2&#45;&gt;Node3 -->
<g id="edge2_Node000002_Node000003" class="edge">
<title>Node2&#45;&gt;Node3</title>
<g id="a_edge2_Node000002_Node000003"><a xlink:title=" ">
<path fill="none" stroke="#63b8ff" d="M284.4,-26.61C292.71,-25.07 300.96,-23.54 308.51,-22.14"/>
<polygon fill="#63b8ff" stroke="#63b8ff" points="309.01,-25.61 318.21,-20.34 307.74,-18.73 309.01,-25.61"/>
</a>
</g>
</g>
</g>
</svg>
