<?xml version="1.0" encoding="UTF-8" standalone="no"?>
<!DOCTYPE svg PUBLIC "-//W3C//DTD SVG 1.1//EN"
 "http://www.w3.org/Graphics/SVG/1.1/DTD/svg11.dtd">
<!-- Generated by graphviz version 13.1.2 (20250808.2320)
 -->
<!-- Title: Yena SWR Engine Pages: 1 -->
<svg width="277pt" height="230pt"
 viewBox="0.00 0.00 277.00 230.00" xmlns="http://www.w3.org/2000/svg" xmlns:xlink="http://www.w3.org/1999/xlink">

<svg id="main" version="1.1" xmlns="http://www.w3.org/2000/svg" xmlns:xlink="http://www.w3.org/1999/xlink" xml:space="preserve">

<style type="text/css"><![CDATA[
.node, .edge {opacity: 0.7;}
.node.selected, .edge.selected {opacity: 1;}
.edge:hover path { stroke: red; }
.edge:hover polygon { stroke: red; fill: red; }
]]></style>
<script type="application/ecmascript" xlink:href="svg.min.js"/>
<svg id="graph" class="graph">
<g id="graph0" class="graph" transform="scale(1 1) rotate(0) translate(4 226)">
<title>Yena SWR Engine</title>
<!-- Node2 -->
<g id="Node000002" class="node">
<title>Node2</title>
<g id="a_Node000002"><a xlink:href="group___project.html" target="_top" xlink:title=" ">
<polygon fill="white" stroke="#666666" points="258.88,-222 143.88,-222 143.88,-202 258.88,-202 258.88,-222"/>
<text xml:space="preserve" text-anchor="middle" x="201.38" y="-208.5" font-family="Helvetica,sans-Serif" font-size="10.00">01. Yena SWR 개요</text>
</a>
</g>
</g>
<!-- Node3 -->
<g id="Node000003" class="node">
<title>Node3</title>
<g id="a_Node000003"><a xlink:href="group___yena-_c_o_m.html" target="_top" xlink:title=" ">
<polygon fill="white" stroke="#666666" points="241.25,-184 161.5,-184 161.5,-164 241.25,-164 241.25,-184"/>
<text xml:space="preserve" text-anchor="middle" x="201.38" y="-170.5" font-family="Helvetica,sans-Serif" font-size="10.00">02. Yena COM</text>
</a>
</g>
</g>
<!-- Node4 -->
<g id="Node000004" class="node">
<title>Node4</title>
<g id="a_Node000004"><a xlink:href="group___yena-_class.html" target="_top" xlink:title=" ">
<polygon fill="white" stroke="#666666" points="252.88,-146 149.88,-146 149.88,-114 252.88,-114 252.88,-146"/>
<text xml:space="preserve" text-anchor="start" x="157.88" y="-132.5" font-family="Helvetica,sans-Serif" font-size="10.00">03. Yena B3 구현</text>
<text xml:space="preserve" text-anchor="middle" x="201.38" y="-120.5" font-family="Helvetica,sans-Serif" font-size="10.00"> 클래스</text>
</a>
</g>
</g>
<!-- Node6 -->
<g id="Node000006" class="node">
<title>Node6</title>
<g id="a_Node000006"><a xlink:href="group___yena-_helpers.html" target="_top" xlink:title=" ">
<polygon fill="white" stroke="#666666" points="245.38,-96 157.38,-96 157.38,-76 245.38,-76 245.38,-96"/>
<text xml:space="preserve" text-anchor="middle" x="201.38" y="-82.5" font-family="Helvetica,sans-Serif" font-size="10.00">05. Yena 헬퍼</text>
</a>
</g>
</g>
<!-- Node5 -->
<g id="Node000005" class="node">
<title>Node5</title>
<g id="a_Node000005"><a xlink:href="group___yena-_interfaces.html" target="_top" xlink:title=" ">
<polygon fill="white" stroke="#666666" points="269,-58 133.75,-58 133.75,-38 269,-38 269,-58"/>
<text xml:space="preserve" text-anchor="middle" x="201.38" y="-44.5" font-family="Helvetica,sans-Serif" font-size="10.00">04. Yena 인터페이스</text>
</a>
</g>
</g>
<!-- Node7 -->
<g id="Node000007" class="node">
<title>Node7</title>
<g id="a_Node000007"><a xlink:href="group___yena-_math.html" target="_top" xlink:title=" ">
<polygon fill="white" stroke="#666666" points="262.62,-20 140.12,-20 140.12,0 262.62,0 262.62,-20"/>
<text xml:space="preserve" text-anchor="middle" x="201.38" y="-6.5" font-family="Helvetica,sans-Serif" font-size="10.00">06. Yena 헬퍼:수학</text>
</a>
</g>
</g>
<!-- Node1 -->
<g id="Node000001" class="node">
<title>Node1</title>
<g id="a_Node000001"><a xlink:title=" ">
<polygon fill="#999999" stroke="#666666" points="97.75,-118 0,-118 0,-98 97.75,-98 97.75,-118"/>
<text xml:space="preserve" text-anchor="middle" x="48.88" y="-104.5" font-family="Helvetica,sans-Serif" font-size="10.00">Yena SWR Engine</text>
</a>
</g>
</g>
<!-- Node1&#45;&gt;Node2 -->
<g id="edge1" class="edge">
<title>Node1&#45;&gt;Node2</title>
<path fill="none" stroke="black" d="M64.11,-127.42C79.28,-146.77 105.04,-175.99 133.75,-193 139.54,-196.43 145.99,-199.27 152.53,-201.62"/>
<polygon fill="black" stroke="black" points="66.93,-125.36 58.09,-119.52 61.36,-129.6 66.93,-125.36"/>
</g>
<!-- Node1&#45;&gt;Node3 -->
<g id="edge2" class="edge">
<title>Node1&#45;&gt;Node3</title>
<path fill="none" stroke="black" d="M75.04,-124.14C91.31,-134.06 113.2,-146.45 133.75,-155 142.41,-158.6 151.98,-161.78 161.1,-164.44"/>
<polygon fill="black" stroke="black" points="77.33,-121.45 66.99,-119.15 73.64,-127.39 77.33,-121.45"/>
</g>
<!-- Node1&#45;&gt;Node4 -->
<g id="edge3" class="edge">
<title>Node1&#45;&gt;Node4</title>
<path fill="none" stroke="black" d="M108.94,-116.63C122.32,-118.59 136.41,-120.65 149.42,-122.55"/>
<polygon fill="black" stroke="black" points="109.81,-113.22 99.41,-115.24 108.79,-120.15 109.81,-113.22"/>
</g>
<!-- Node1&#45;&gt;Node6 -->
<g id="edge5" class="edge">
<title>Node1&#45;&gt;Node6</title>
<path fill="none" stroke="black" d="M108.85,-99.38C124.94,-97.03 142.08,-94.52 157.12,-92.32"/>
<polygon fill="black" stroke="black" points="108.79,-95.85 99.41,-100.76 109.81,-102.78 108.79,-95.85"/>
</g>
<!-- Node1&#45;&gt;Node5 -->
<g id="edge4" class="edge">
<title>Node1&#45;&gt;Node5</title>
<path fill="none" stroke="black" d="M78.55,-92.42C94.49,-84.15 114.88,-74.24 133.75,-67 141.95,-63.86 150.89,-60.96 159.48,-58.43"/>
<polygon fill="black" stroke="black" points="77.32,-89.1 70.11,-96.86 80.59,-95.3 77.32,-89.1"/>
</g>
<!-- Node1&#45;&gt;Node7 -->
<g id="edge6" class="edge">
<title>Node1&#45;&gt;Node7</title>
<path fill="none" stroke="black" d="M65.14,-89.13C80.63,-71.18 106.2,-44.65 133.75,-29 139.71,-25.61 146.32,-22.79 152.99,-20.45"/>
<polygon fill="black" stroke="black" points="62.73,-86.56 58.98,-96.47 68.09,-91.07 62.73,-86.56"/>
</g>
</g>
</svg>
</svg>

<style type='text/css'>
<![CDATA[
[data-mouse-over-selected='false'] { opacity: 0.7; }
[data-mouse-over-selected='true']  { opacity: 1.0; }
]]>
</style>
<script type="application/ecmascript"><![CDATA[
document.addEventListener('DOMContentLoaded', (event) => {
  highlightEdges();
  highlightAdjacentNodes();
});
]]></script>
</svg>
