<?xml version="1.0" encoding="UTF-8" standalone="no"?>
<!DOCTYPE svg PUBLIC "-//W3C//DTD SVG 1.1//EN"
 "http://www.w3.org/Graphics/SVG/1.1/DTD/svg11.dtd">
<!-- Generated by graphviz version 13.1.2 (20250808.2320)
 -->
<!-- Title: ynFaceFill Pages: 1 -->
<svg width="168pt" height="142pt"
 viewBox="0.00 0.00 168.00 142.00" xmlns="http://www.w3.org/2000/svg" xmlns:xlink="http://www.w3.org/1999/xlink">

<svg id="main" version="1.1" xmlns="http://www.w3.org/2000/svg" xmlns:xlink="http://www.w3.org/1999/xlink" xml:space="preserve">

<style type="text/css"><![CDATA[
.node, .edge {opacity: 0.7;}
.node.selected, .edge.selected {opacity: 1;}
.edge:hover path { stroke: red; }
.edge:hover polygon { stroke: red; fill: red; }
]]></style>
<script type="application/ecmascript" xlink:href="svg.min.js"/>
<svg id="graph" class="graph">
<g id="graph0" class="graph" transform="scale(1 1) rotate(0) translate(4 138)">
<title>ynFaceFill</title>
<!-- Node1 -->
<g id="Node000001" class="node">
<title>Node1</title>
<g id="a_Node000001"><a xlink:title=" ">
<polygon fill="#999999" stroke="#666666" points="61,-77 0,-77 0,-57 61,-57 61,-77"/>
<text xml:space="preserve" text-anchor="middle" x="30.5" y="-63.5" font-family="Helvetica,sans-Serif" font-size="10.00">ynFaceFill</text>
</a>
</g>
</g>
<!-- Node2 -->
<g id="Node000002" class="node">
<title>Node2</title>
<g id="a_Node000002"><a xlink:href="group___yena-_math_gaa053b6d79d980b8b486f18f9fe027106.html#gaa053b6d79d980b8b486f18f9fe027106" target="_top" xlink:title="두 점 사이의 기울기 구하기">
<polygon fill="white" stroke="#666666" points="160.25,-134 97,-134 97,-114 160.25,-114 160.25,-134"/>
<text xml:space="preserve" text-anchor="middle" x="128.62" y="-120.5" font-family="Helvetica,sans-Serif" font-size="10.00">ynGradient</text>
</a>
</g>
</g>
<!-- Node1&#45;&gt;Node2 -->
<g id="edge1_Node000001_Node000002" class="edge">
<title>Node1&#45;&gt;Node2</title>
<g id="a_edge1_Node000001_Node000002"><a xlink:title=" ">
<path fill="none" stroke="#63b8ff" d="M49.13,-77.45C63.49,-85.97 84.02,-98.14 100.47,-107.9"/>
<polygon fill="#63b8ff" stroke="#63b8ff" points="98.42,-110.75 108.8,-112.84 101.99,-104.73 98.42,-110.75"/>
</a>
</g>
</g>
<!-- Node3 -->
<g id="Node000003" class="node">
<title>Node3</title>
<g id="a_Node000003"><a xlink:href="group___yena-_math_gaba6c36b1a763b8b3ae65962c788202db.html#gaba6c36b1a763b8b3ae65962c788202db" target="_top" xlink:title="수평선 그리기">
<polygon fill="white" stroke="#666666" points="154.62,-96 102.62,-96 102.62,-76 154.62,-76 154.62,-96"/>
<text xml:space="preserve" text-anchor="middle" x="128.62" y="-82.5" font-family="Helvetica,sans-Serif" font-size="10.00">ynHLine</text>
</a>
</g>
</g>
<!-- Node1&#45;&gt;Node3 -->
<g id="edge2_Node000001_Node000003" class="edge">
<title>Node1&#45;&gt;Node3</title>
<g id="a_edge2_Node000001_Node000003"><a xlink:title=" ">
<path fill="none" stroke="#63b8ff" d="M61.39,-72.91C70.82,-74.77 81.34,-76.85 91.17,-78.79"/>
<polygon fill="#63b8ff" stroke="#63b8ff" points="90.32,-82.19 100.8,-80.7 91.67,-75.33 90.32,-82.19"/>
</a>
</g>
</g>
<!-- Node4 -->
<g id="Node000004" class="node">
<title>Node4</title>
<g id="a_Node000004"><a xlink:href="group___yena-_math_ga692ccf4262a41b1452e10da737cb17a4.html#ga692ccf4262a41b1452e10da737cb17a4" target="_top" xlink:title="선형보간 (Linear Interpolation) 함수">
<polygon fill="white" stroke="#666666" points="151.25,-58 106,-58 106,-38 151.25,-38 151.25,-58"/>
<text xml:space="preserve" text-anchor="middle" x="128.62" y="-44.5" font-family="Helvetica,sans-Serif" font-size="10.00">ynLerp</text>
</a>
</g>
</g>
<!-- Node1&#45;&gt;Node4 -->
<g id="edge3_Node000001_Node000004" class="edge">
<title>Node1&#45;&gt;Node4</title>
<g id="a_edge3_Node000001_Node000004"><a xlink:title=" ">
<path fill="none" stroke="#63b8ff" d="M61.39,-61.09C71.91,-59.01 83.8,-56.66 94.57,-54.53"/>
<polygon fill="#63b8ff" stroke="#63b8ff" points="95.08,-58 104.21,-52.63 93.72,-51.13 95.08,-58"/>
</a>
</g>
</g>
<!-- Node5 -->
<g id="Node000005" class="node">
<title>Node5</title>
<g id="a_Node000005"><a xlink:href="group___yena-_math_ga289593e948b4328264103fb6fbd3a645.html#ga289593e948b4328264103fb6fbd3a645" target="_top" xlink:title="헬퍼 함수 및 지원 라이브러리 : B3YXVECTOR 클래스 타입으로 갱신.">
<polygon fill="white" stroke="#666666" points="150.88,-20 106.38,-20 106.38,0 150.88,0 150.88,-20"/>
<text xml:space="preserve" text-anchor="middle" x="128.62" y="-6.5" font-family="Helvetica,sans-Serif" font-size="10.00">ynSort</text>
</a>
</g>
</g>
<!-- Node1&#45;&gt;Node5 -->
<g id="edge4_Node000001_Node000005" class="edge">
<title>Node1&#45;&gt;Node5</title>
<g id="a_edge4_Node000001_Node000005"><a xlink:title=" ">
<path fill="none" stroke="#63b8ff" d="M49.13,-56.55C63.49,-48.03 84.02,-35.86 100.47,-26.1"/>
<polygon fill="#63b8ff" stroke="#63b8ff" points="101.99,-29.27 108.8,-21.16 98.42,-23.25 101.99,-29.27"/>
</a>
</g>
</g>
</g>
</svg>
</svg>

<style type='text/css'>
<![CDATA[
[data-mouse-over-selected='false'] { opacity: 0.7; }
[data-mouse-over-selected='true']  { opacity: 1.0; }
]]>
</style>
<script type="application/ecmascript"><![CDATA[
document.addEventListener('DOMContentLoaded', (event) => {
  highlightEdges();
  highlightAdjacentNodes();
});
]]></script>
</svg>
