<?xml version="1.0" encoding="UTF-8" standalone="no"?>
<!DOCTYPE svg PUBLIC "-//W3C//DTD SVG 1.1//EN"
 "http://www.w3.org/Graphics/SVG/1.1/DTD/svg11.dtd">
<!-- Generated by graphviz version 13.1.2 (20250808.2320)
 -->
<!-- Title: YenaCreate9 Pages: 1 -->
<svg width="361pt" height="66pt"
 viewBox="0.00 0.00 361.00 66.00" xmlns="http://www.w3.org/2000/svg" xmlns:xlink="http://www.w3.org/1999/xlink">
<g id="graph0" class="graph" transform="scale(1 1) rotate(0) translate(4 62)">
<title>YenaCreate9</title>
<!-- Node1 -->
<g id="Node000001" class="node">
<title>Node1</title>
<g id="a_Node000001"><a xlink:title=" ">
<polygon fill="#999999" stroke="#666666" points="72.25,-39 0,-39 0,-19 72.25,-19 72.25,-39"/>
<text xml:space="preserve" text-anchor="middle" x="36.12" y="-25.5" font-family="Helvetica,sans-Serif" font-size="10.00">YenaCreate9</text>
</a>
</g>
</g>
<!-- Node2 -->
<g id="Node000002" class="node">
<title>Node2</title>
<g id="a_Node000002"><a xlink:href="class_b3_yena_adf8a3574135e4d16506bc86ee677c7b7.html#adf8a3574135e4d16506bc86ee677c7b7" target="_top" xlink:title=" ">
<polygon fill="white" stroke="#666666" points="228.5,-39 108.25,-39 108.25,-19 228.5,-19 228.5,-39"/>
<text xml:space="preserve" text-anchor="middle" x="168.38" y="-25.5" font-family="Helvetica,sans-Serif" font-size="10.00">B3Yena::QueryInterface</text>
</a>
</g>
</g>
<!-- Node1&#45;&gt;Node2 -->
<g id="edge1_Node000001_Node000002" class="edge">
<title>Node1&#45;&gt;Node2</title>
<g id="a_edge1_Node000001_Node000002"><a xlink:title=" ">
<path fill="none" stroke="#63b8ff" d="M72.72,-29C80.17,-29 88.29,-29 96.52,-29"/>
<polygon fill="#63b8ff" stroke="#63b8ff" points="96.26,-32.5 106.26,-29 96.26,-25.5 96.26,-32.5"/>
</a>
</g>
</g>
<!-- Node3 -->
<g id="Node000003" class="node">
<title>Node3</title>
<g id="a_Node000003"><a xlink:href="class_b3_yena_af4a43b4057eea79e48143c6da0de48ce.html#af4a43b4057eea79e48143c6da0de48ce" target="_top" xlink:title=" ">
<polygon fill="white" stroke="#666666" points="353.25,-58 264.5,-58 264.5,-38 353.25,-38 353.25,-58"/>
<text xml:space="preserve" text-anchor="middle" x="308.88" y="-44.5" font-family="Helvetica,sans-Serif" font-size="10.00">B3Yena::AddRef</text>
</a>
</g>
</g>
<!-- Node2&#45;&gt;Node3 -->
<g id="edge2_Node000002_Node000003" class="edge">
<title>Node2&#45;&gt;Node3</title>
<g id="a_edge2_Node000002_Node000003"><a xlink:title=" ">
<path fill="none" stroke="#63b8ff" d="M228.92,-37.17C236.9,-38.26 245.05,-39.38 252.95,-40.46"/>
<polygon fill="#63b8ff" stroke="#63b8ff" points="252.4,-43.92 262.78,-41.81 253.35,-36.99 252.4,-43.92"/>
</a>
</g>
</g>
<!-- Node4 -->
<g id="Node000004" class="node">
<title>Node4</title>
<g id="a_Node000004"><a xlink:href="group___yena-_c_o_m_ga9e2aa2b3bba79319041923d1db833f2a.html#ga9e2aa2b3bba79319041923d1db833f2a" target="_top" xlink:title=" ">
<polygon fill="white" stroke="#666666" points="345.38,-20 272.38,-20 272.38,0 345.38,0 345.38,-20"/>
<text xml:space="preserve" text-anchor="middle" x="308.88" y="-6.5" font-family="Helvetica,sans-Serif" font-size="10.00">ynIsEqualIID</text>
</a>
</g>
</g>
<!-- Node2&#45;&gt;Node4 -->
<g id="edge3_Node000002_Node000004" class="edge">
<title>Node2&#45;&gt;Node4</title>
<g id="a_edge3_Node000002_Node000004"><a xlink:title=" ">
<path fill="none" stroke="#63b8ff" d="M228.92,-20.83C239.57,-19.37 250.54,-17.87 260.78,-16.46"/>
<polygon fill="#63b8ff" stroke="#63b8ff" points="261.05,-19.96 270.48,-15.13 260.1,-13.02 261.05,-19.96"/>
</a>
</g>
</g>
</g>
</svg>
