<?xml version="1.0" encoding="UTF-8" standalone="no"?>
<!DOCTYPE svg PUBLIC "-//W3C//DTD SVG 1.1//EN"
 "http://www.w3.org/Graphics/SVG/1.1/DTD/svg11.dtd">
<!-- Generated by graphviz version 13.1.2 (20250808.2320)
 -->
<!-- Title: B3YXVECTOR2::B3YXVECTOR2 Pages: 1 -->
<svg width="348pt" height="66pt"
 viewBox="0.00 0.00 348.00 66.00" xmlns="http://www.w3.org/2000/svg" xmlns:xlink="http://www.w3.org/1999/xlink">
<g id="graph0" class="graph" transform="scale(1 1) rotate(0) translate(4 62)">
<title>B3YXVECTOR2::B3YXVECTOR2</title>
<!-- Node1 -->
<g id="Node000001" class="node">
<title>Node1</title>
<g id="a_Node000001"><a xlink:title=" ">
<polygon fill="#999999" stroke="#666666" points="339.5,-39 172,-39 172,-19 339.5,-19 339.5,-39"/>
<text xml:space="preserve" text-anchor="middle" x="255.75" y="-25.5" font-family="Helvetica,sans-Serif" font-size="10.00">B3YXVECTOR2::B3YXVECTOR2</text>
</a>
</g>
</g>
<!-- Node2 -->
<g id="Node000002" class="node">
<title>Node2</title>
<g id="a_Node000002"><a xlink:href="group___yena-_math_gab7c169f8074f26e005a241eb8152f106.html#gab7c169f8074f26e005a241eb8152f106" target="_top" xlink:title=" ">
<polygon fill="white" stroke="#666666" points="136,-58 0,-58 0,-38 136,-38 136,-58"/>
<text xml:space="preserve" text-anchor="middle" x="68" y="-44.5" font-family="Helvetica,sans-Serif" font-size="10.00">B3YXVECTOR2::operator+</text>
</a>
</g>
</g>
<!-- Node1&#45;&gt;Node2 -->
<g id="edge1_Node000001_Node000002" class="edge">
<title>Node1&#45;&gt;Node2</title>
<g id="a_edge1_Node000001_Node000002"><a xlink:title=" ">
<path fill="none" stroke="#63b8ff" d="M160.29,-38.66C152.24,-39.49 144.21,-40.31 136.43,-41.1"/>
<polygon fill="#63b8ff" stroke="#63b8ff" points="160.56,-42.15 170.15,-37.65 159.84,-35.19 160.56,-42.15"/>
</a>
</g>
</g>
<!-- Node3 -->
<g id="Node000003" class="node">
<title>Node3</title>
<g id="a_Node000003"><a xlink:href="group___yena-_math_ga9636f362a2b90fd277e64bb521bc1ac2.html#ga9636f362a2b90fd277e64bb521bc1ac2" target="_top" xlink:title=" ">
<polygon fill="white" stroke="#666666" points="134.5,-20 1.5,-20 1.5,0 134.5,0 134.5,-20"/>
<text xml:space="preserve" text-anchor="middle" x="68" y="-6.5" font-family="Helvetica,sans-Serif" font-size="10.00">B3YXVECTOR2::operator&#45;</text>
</a>
</g>
</g>
<!-- Node1&#45;&gt;Node3 -->
<g id="edge2_Node000001_Node000003" class="edge">
<title>Node1&#45;&gt;Node3</title>
<g id="a_edge2_Node000001_Node000003"><a xlink:title=" ">
<path fill="none" stroke="#63b8ff" d="M160.31,-19.34C151.67,-18.46 143.05,-17.57 134.75,-16.73"/>
<polygon fill="#63b8ff" stroke="#63b8ff" points="159.84,-22.81 170.15,-20.35 160.56,-15.85 159.84,-22.81"/>
</a>
</g>
</g>
</g>
</svg>
