<?xml version="1.0" encoding="UTF-8" standalone="no"?>
<!DOCTYPE svg PUBLIC "-//W3C//DTD SVG 1.1//EN"
 "http://www.w3.org/Graphics/SVG/1.1/DTD/svg11.dtd">
<!-- Generated by graphviz version 13.1.2 (20250808.2320)
 -->
<!-- Title: ynIsEqualIID Pages: 1 -->
<svg width="648pt" height="116pt"
 viewBox="0.00 0.00 648.00 116.00" xmlns="http://www.w3.org/2000/svg" xmlns:xlink="http://www.w3.org/1999/xlink">
<g id="graph0" class="graph" transform="scale(1 1) rotate(0) translate(4 112)">
<title>ynIsEqualIID</title>
<!-- Node1 -->
<g id="Node000001" class="node">
<title>Node1</title>
<g id="a_Node000001"><a xlink:title=" ">
<polygon fill="#999999" stroke="#666666" points="639.5,-70 566.5,-70 566.5,-50 639.5,-50 639.5,-70"/>
<text xml:space="preserve" text-anchor="middle" x="603" y="-56.5" font-family="Helvetica,sans-Serif" font-size="10.00">ynIsEqualIID</text>
</a>
</g>
</g>
<!-- Node2 -->
<g id="Node000002" class="node">
<title>Node2</title>
<g id="a_Node000002"><a xlink:href="class_b3_yena_adf8a3574135e4d16506bc86ee677c7b7.html#adf8a3574135e4d16506bc86ee677c7b7" target="_top" xlink:title=" ">
<polygon fill="white" stroke="#666666" points="512.5,-108 392.25,-108 392.25,-88 512.5,-88 512.5,-108"/>
<text xml:space="preserve" text-anchor="middle" x="452.38" y="-94.5" font-family="Helvetica,sans-Serif" font-size="10.00">B3Yena::QueryInterface</text>
</a>
</g>
</g>
<!-- Node1&#45;&gt;Node2 -->
<g id="edge1_Node000001_Node000002" class="edge">
<title>Node1&#45;&gt;Node2</title>
<g id="a_edge1_Node000001_Node000002"><a xlink:title=" ">
<path fill="none" stroke="#63b8ff" d="M555.09,-72.6C546.9,-74.76 538.46,-76.96 530.5,-79 519.41,-81.84 507.41,-84.83 496.24,-87.59"/>
<polygon fill="#63b8ff" stroke="#63b8ff" points="555.79,-76.03 564.56,-70.08 554,-69.26 555.79,-76.03"/>
</a>
</g>
</g>
<!-- Node6 -->
<g id="Node000006" class="node">
<title>Node6</title>
<g id="a_Node000006"><a xlink:href="class_b3_yena_device9_a3448d8c5c0b5227fc04e5280e55bb37d.html#a3448d8c5c0b5227fc04e5280e55bb37d" target="_top" xlink:title=" ">
<polygon fill="white" stroke="#666666" points="530.5,-70 374.25,-70 374.25,-50 530.5,-50 530.5,-70"/>
<text xml:space="preserve" text-anchor="middle" x="452.38" y="-56.5" font-family="Helvetica,sans-Serif" font-size="10.00">B3YenaDevice9::QueryInterface</text>
</a>
</g>
</g>
<!-- Node1&#45;&gt;Node6 -->
<g id="edge5_Node000001_Node000006" class="edge">
<title>Node1&#45;&gt;Node6</title>
<g id="a_edge5_Node000001_Node000006"><a xlink:title=" ">
<path fill="none" stroke="#63b8ff" d="M554.75,-60C547.07,-60 538.93,-60 530.75,-60"/>
<polygon fill="#63b8ff" stroke="#63b8ff" points="554.51,-63.5 564.51,-60 554.51,-56.5 554.51,-63.5"/>
</a>
</g>
</g>
<!-- Node8 -->
<g id="Node000008" class="node">
<title>Node8</title>
<g id="a_Node000008"><a xlink:href="class_b3_yena_vertex_buffer9_a9271775c74dfb8077732d782b270f728.html#a9271775c74dfb8077732d782b270f728" target="_top" xlink:title=" ">
<polygon fill="white" stroke="#666666" points="506.5,-32 398.25,-32 398.25,0 506.5,0 506.5,-32"/>
<text xml:space="preserve" text-anchor="start" x="406.25" y="-18.5" font-family="Helvetica,sans-Serif" font-size="10.00">B3YenaVertexBuffer9</text>
<text xml:space="preserve" text-anchor="middle" x="452.38" y="-6.5" font-family="Helvetica,sans-Serif" font-size="10.00">::QueryInterface</text>
</a>
</g>
</g>
<!-- Node1&#45;&gt;Node8 -->
<g id="edge7_Node000001_Node000008" class="edge">
<title>Node1&#45;&gt;Node8</title>
<g id="a_edge7_Node000001_Node000008"><a xlink:title=" ">
<path fill="none" stroke="#63b8ff" d="M555.88,-46.35C540.39,-41.76 522.97,-36.6 506.95,-31.86"/>
<polygon fill="#63b8ff" stroke="#63b8ff" points="554.74,-49.66 565.33,-49.14 556.73,-42.95 554.74,-49.66"/>
</a>
</g>
</g>
<!-- Node3 -->
<g id="Node000003" class="node">
<title>Node3</title>
<g id="a_Node000003"><a xlink:href="group___yena-_interfaces_gaadd8f307a7460a88e7c4c254bcbe6719.html#gaadd8f307a7460a88e7c4c254bcbe6719" target="_top" xlink:title=" ">
<polygon fill="white" stroke="#666666" points="300,-108 227.75,-108 227.75,-88 300,-88 300,-108"/>
<text xml:space="preserve" text-anchor="middle" x="263.88" y="-94.5" font-family="Helvetica,sans-Serif" font-size="10.00">YenaCreate9</text>
</a>
</g>
</g>
<!-- Node2&#45;&gt;Node3 -->
<g id="edge2_Node000002_Node000003" class="edge">
<title>Node2&#45;&gt;Node3</title>
<g id="a_edge2_Node000002_Node000003"><a xlink:title=" ">
<path fill="none" stroke="#63b8ff" d="M380.68,-98C353.2,-98 322.95,-98 300.25,-98"/>
<polygon fill="#63b8ff" stroke="#63b8ff" points="380.34,-101.5 390.34,-98 380.34,-94.5 380.34,-101.5"/>
</a>
</g>
</g>
<!-- Node4 -->
<g id="Node000004" class="node">
<title>Node4</title>
<g id="a_Node000004"><a xlink:href="_device_8cpp_acca400f5f8053c4279231fc354f439f2.html#acca400f5f8053c4279231fc354f439f2" target="_top" xlink:title=" ">
<polygon fill="white" stroke="#666666" points="153.5,-108 90.25,-108 90.25,-88 153.5,-88 153.5,-108"/>
<text xml:space="preserve" text-anchor="middle" x="121.88" y="-94.5" font-family="Helvetica,sans-Serif" font-size="10.00">YenaSetup</text>
</a>
</g>
</g>
<!-- Node3&#45;&gt;Node4 -->
<g id="edge3_Node000003_Node000004" class="edge">
<title>Node3&#45;&gt;Node4</title>
<g id="a_edge3_Node000003_Node000004"><a xlink:title=" ">
<path fill="none" stroke="#63b8ff" d="M216.21,-98C195.71,-98 172.2,-98 153.9,-98"/>
<polygon fill="#63b8ff" stroke="#63b8ff" points="216.03,-101.5 226.03,-98 216.03,-94.5 216.03,-101.5"/>
</a>
</g>
</g>
<!-- Node5 -->
<g id="Node000005" class="node">
<title>Node5</title>
<g id="a_Node000005"><a xlink:href="main_8cpp_a1122673f59be78a3997ec7dd1c4688f9.html#a1122673f59be78a3997ec7dd1c4688f9" target="_top" xlink:title="애플리케이션 메인 함수.">
<polygon fill="white" stroke="#666666" points="54.25,-108 0,-108 0,-88 54.25,-88 54.25,-108"/>
<text xml:space="preserve" text-anchor="middle" x="27.12" y="-94.5" font-family="Helvetica,sans-Serif" font-size="10.00">WinMain</text>
</a>
</g>
</g>
<!-- Node4&#45;&gt;Node5 -->
<g id="edge4_Node000004_Node000005" class="edge">
<title>Node4&#45;&gt;Node5</title>
<g id="a_edge4_Node000004_Node000005"><a xlink:title=" ">
<path fill="none" stroke="#63b8ff" d="M78.62,-98C70.42,-98 62.04,-98 54.53,-98"/>
<polygon fill="#63b8ff" stroke="#63b8ff" points="78.48,-101.5 88.48,-98 78.48,-94.5 78.48,-101.5"/>
</a>
</g>
</g>
<!-- Node7 -->
<g id="Node000007" class="node">
<title>Node7</title>
<g id="a_Node000007"><a xlink:href="class_b3_yena_aabee24d21c10bcb9b80af7a0a0cba13c.html#aabee24d21c10bcb9b80af7a0a0cba13c" target="_top" xlink:title="Yena SWR 렌더링 디바이스 개체 생성 : D3D9 대응">
<polygon fill="white" stroke="#666666" points="321.75,-70 206,-70 206,-50 321.75,-50 321.75,-70"/>
<text xml:space="preserve" text-anchor="middle" x="263.88" y="-56.5" font-family="Helvetica,sans-Serif" font-size="10.00">B3Yena::CreateDevice</text>
</a>
</g>
</g>
<!-- Node6&#45;&gt;Node7 -->
<g id="edge6_Node000006_Node000007" class="edge">
<title>Node6&#45;&gt;Node7</title>
<g id="a_edge6_Node000006_Node000007"><a xlink:title=" ">
<path fill="none" stroke="#63b8ff" d="M362.46,-60C348.77,-60 334.96,-60 322.2,-60"/>
<polygon fill="#63b8ff" stroke="#63b8ff" points="362.39,-63.5 372.39,-60 362.39,-56.5 362.39,-63.5"/>
</a>
</g>
</g>
<!-- Node9 -->
<g id="Node000009" class="node">
<title>Node9</title>
<g id="a_Node000009"><a xlink:href="class_b3_yena_device9_a931f7df6ef6aa1d8a315d8685b52ee2b.html#a931f7df6ef6aa1d8a315d8685b52ee2b" target="_top" xlink:title=" ">
<polygon fill="white" stroke="#666666" points="338.25,-32 189.5,-32 189.5,0 338.25,0 338.25,-32"/>
<text xml:space="preserve" text-anchor="start" x="197.5" y="-18.5" font-family="Helvetica,sans-Serif" font-size="10.00">B3YenaDevice9::CreateVertex</text>
<text xml:space="preserve" text-anchor="middle" x="263.88" y="-6.5" font-family="Helvetica,sans-Serif" font-size="10.00">Buffer</text>
</a>
</g>
</g>
<!-- Node8&#45;&gt;Node9 -->
<g id="edge8_Node000008_Node000009" class="edge">
<title>Node8&#45;&gt;Node9</title>
<g id="a_edge8_Node000008_Node000009"><a xlink:title=" ">
<path fill="none" stroke="#63b8ff" d="M386.82,-16C371.23,-16 354.45,-16 338.48,-16"/>
<polygon fill="#63b8ff" stroke="#63b8ff" points="386.42,-19.5 396.42,-16 386.42,-12.5 386.42,-19.5"/>
</a>
</g>
</g>
</g>
</svg>
