<?xml version="1.0" encoding="UTF-8" standalone="no"?>
<!DOCTYPE svg PUBLIC "-//W3C//DTD SVG 1.1//EN"
 "http://www.w3.org/Graphics/SVG/1.1/DTD/svg11.dtd">
<!-- Generated by graphviz version 13.1.2 (20250808.2320)
 -->
<!-- Title: B3YXVec2CCW Pages: 1 -->
<svg width="736pt" height="90pt"
 viewBox="0.00 0.00 736.00 90.00" xmlns="http://www.w3.org/2000/svg" xmlns:xlink="http://www.w3.org/1999/xlink">
<g id="graph0" class="graph" transform="scale(1 1) rotate(0) translate(4 86)">
<title>B3YXVec2CCW</title>
<!-- Node1 -->
<g id="Node000001" class="node">
<title>Node1</title>
<g id="a_Node000001"><a xlink:title=" ">
<polygon fill="#999999" stroke="#666666" points="728,-51 640,-51 640,-31 728,-31 728,-51"/>
<text xml:space="preserve" text-anchor="middle" x="684" y="-37.5" font-family="Helvetica,sans-Serif" font-size="10.00">B3YXVec2CCW</text>
</a>
</g>
</g>
<!-- Node2 -->
<g id="Node000002" class="node">
<title>Node2</title>
<g id="a_Node000002"><a xlink:href="class_b3_yena_graphics_engine9_a53eb0a07792b25e7040003b9495714a3.html#a53eb0a07792b25e7040003b9495714a3" target="_top" xlink:title=" ">
<polygon fill="white" stroke="#666666" points="604,-82 480,-82 480,-50 604,-50 604,-82"/>
<text xml:space="preserve" text-anchor="start" x="488" y="-68.5" font-family="Helvetica,sans-Serif" font-size="10.00">B3YenaGraphicsEngine9</text>
<text xml:space="preserve" text-anchor="middle" x="542" y="-56.5" font-family="Helvetica,sans-Serif" font-size="10.00">::_FaceCulling2</text>
</a>
</g>
</g>
<!-- Node1&#45;&gt;Node2 -->
<g id="edge1_Node000001_Node000002" class="edge">
<title>Node1&#45;&gt;Node2</title>
<g id="a_edge1_Node000001_Node000002"><a xlink:title=" ">
<path fill="none" stroke="#63b8ff" d="M628.76,-50.69C620.74,-52.12 612.43,-53.6 604.28,-55.06"/>
<polygon fill="#63b8ff" stroke="#63b8ff" points="629.13,-54.17 638.36,-48.97 627.9,-47.28 629.13,-54.17"/>
</a>
</g>
</g>
<!-- Node3 -->
<g id="Node000003" class="node">
<title>Node3</title>
<g id="a_Node000003"><a xlink:href="class_b3_yena_graphics_engine9_a37ad70788b0e06df4015e6d89c15c10d.html#a37ad70788b0e06df4015e6d89c15c10d" target="_top" xlink:title=" ">
<polygon fill="white" stroke="#666666" points="604,-32 480,-32 480,0 604,0 604,-32"/>
<text xml:space="preserve" text-anchor="start" x="488" y="-18.5" font-family="Helvetica,sans-Serif" font-size="10.00">B3YenaGraphicsEngine9</text>
<text xml:space="preserve" text-anchor="middle" x="542" y="-6.5" font-family="Helvetica,sans-Serif" font-size="10.00">::_FaceCulling3</text>
</a>
</g>
</g>
<!-- Node1&#45;&gt;Node3 -->
<g id="edge2_Node000001_Node000003" class="edge">
<title>Node1&#45;&gt;Node3</title>
<g id="a_edge2_Node000001_Node000003"><a xlink:title=" ">
<path fill="none" stroke="#63b8ff" d="M628.76,-31.31C620.74,-29.88 612.43,-28.4 604.28,-26.94"/>
<polygon fill="#63b8ff" stroke="#63b8ff" points="627.9,-34.72 638.36,-33.03 629.13,-27.83 627.9,-34.72"/>
</a>
</g>
</g>
<!-- Node4 -->
<g id="Node000004" class="node">
<title>Node4</title>
<g id="a_Node000004"><a xlink:href="class_b3_yena_graphics_engine9_a6299cce5b5e70bfddf67d6ffa138d505.html#a6299cce5b5e70bfddf67d6ffa138d505" target="_top" xlink:title=" ">
<polygon fill="white" stroke="#666666" points="444,-32 320,-32 320,0 444,0 444,-32"/>
<text xml:space="preserve" text-anchor="start" x="328" y="-18.5" font-family="Helvetica,sans-Serif" font-size="10.00">B3YenaGraphicsEngine9</text>
<text xml:space="preserve" text-anchor="middle" x="382" y="-6.5" font-family="Helvetica,sans-Serif" font-size="10.00">::_TnL_GP</text>
</a>
</g>
</g>
<!-- Node3&#45;&gt;Node4 -->
<g id="edge3_Node000003_Node000004" class="edge">
<title>Node3&#45;&gt;Node4</title>
<g id="a_edge3_Node000003_Node000004"><a xlink:title=" ">
<path fill="none" stroke="#63b8ff" d="M468.6,-16C460.53,-16 452.36,-16 444.45,-16"/>
<polygon fill="#63b8ff" stroke="#63b8ff" points="468.4,-19.5 478.4,-16 468.4,-12.5 468.4,-19.5"/>
</a>
</g>
</g>
<!-- Node5 -->
<g id="Node000005" class="node">
<title>Node5</title>
<g id="a_Node000005"><a xlink:href="class_b3_yena_graphics_engine9_a256a127eaa2aa8bd182f038090cb514e.html#a256a127eaa2aa8bd182f038090cb514e" target="_top" xlink:title="\u{2b50} 기하 파이프라인 연산을 수행.">
<polygon fill="white" stroke="#666666" points="284,-32 160,-32 160,0 284,0 284,-32"/>
<text xml:space="preserve" text-anchor="start" x="168" y="-18.5" font-family="Helvetica,sans-Serif" font-size="10.00">B3YenaGraphicsEngine9</text>
<text xml:space="preserve" text-anchor="middle" x="222" y="-6.5" font-family="Helvetica,sans-Serif" font-size="10.00">::_GeometryPipeline</text>
</a>
</g>
</g>
<!-- Node4&#45;&gt;Node5 -->
<g id="edge4_Node000004_Node000005" class="edge">
<title>Node4&#45;&gt;Node5</title>
<g id="a_edge4_Node000004_Node000005"><a xlink:title=" ">
<path fill="none" stroke="#63b8ff" d="M308.6,-16C300.53,-16 292.36,-16 284.45,-16"/>
<polygon fill="#63b8ff" stroke="#63b8ff" points="308.4,-19.5 318.4,-16 308.4,-12.5 308.4,-19.5"/>
</a>
</g>
</g>
<!-- Node6 -->
<g id="Node000006" class="node">
<title>Node6</title>
<g id="a_Node000006"><a xlink:href="class_b3_yena_graphics_engine9_a9124b197c0763305a85b3d27dc71ac87.html#a9124b197c0763305a85b3d27dc71ac87" target="_top" xlink:title="\bstar 그래픽 엔진, 렌더링 시작.">
<polygon fill="white" stroke="#666666" points="124,-32 0,-32 0,0 124,0 124,-32"/>
<text xml:space="preserve" text-anchor="start" x="8" y="-18.5" font-family="Helvetica,sans-Serif" font-size="10.00">B3YenaGraphicsEngine9</text>
<text xml:space="preserve" text-anchor="middle" x="62" y="-6.5" font-family="Helvetica,sans-Serif" font-size="10.00">::Draw</text>
</a>
</g>
</g>
<!-- Node5&#45;&gt;Node6 -->
<g id="edge5_Node000005_Node000006" class="edge">
<title>Node5&#45;&gt;Node6</title>
<g id="a_edge5_Node000005_Node000006"><a xlink:title=" ">
<path fill="none" stroke="#63b8ff" d="M148.6,-16C140.53,-16 132.36,-16 124.45,-16"/>
<polygon fill="#63b8ff" stroke="#63b8ff" points="148.4,-19.5 158.4,-16 148.4,-12.5 148.4,-19.5"/>
</a>
</g>
</g>
</g>
</svg>
