<?xml version="1.0" encoding="UTF-8" standalone="no"?>
<!DOCTYPE svg PUBLIC "-//W3C//DTD SVG 1.1//EN"
 "http://www.w3.org/Graphics/SVG/1.1/DTD/svg11.dtd">
<!-- Generated by graphviz version 13.1.2 (20250808.2320)
 -->
<!-- Title: WinMain Pages: 1 -->
<svg width="592pt" height="427pt"
 viewBox="0.00 0.00 592.00 427.00" xmlns="http://www.w3.org/2000/svg" xmlns:xlink="http://www.w3.org/1999/xlink">
<g id="graph0" class="graph" transform="scale(1 1) rotate(0) translate(4 423)">
<title>WinMain</title>
<!-- Node1 -->
<g id="Node000001" class="node">
<title>Node1</title>
<g id="a_Node000001"><a xlink:title="애플리케이션 메인 함수.">
<polygon fill="#999999" stroke="#666666" points="54.25,-258 0,-258 0,-238 54.25,-238 54.25,-258"/>
<text xml:space="preserve" text-anchor="middle" x="27.12" y="-244.5" font-family="Helvetica,sans-Serif" font-size="10.00">WinMain</text>
</a>
</g>
</g>
<!-- Node2 -->
<g id="Node000002" class="node">
<title>Node2</title>
<g id="a_Node000002"><a xlink:href="_render_8cpp_a57d51554e2556fddd2c6d059b69dc5cb.html#a57d51554e2556fddd2c6d059b69dc5cb" target="_top" xlink:title=" ">
<polygon fill="white" stroke="#666666" points="166.25,-409 95.5,-409 95.5,-389 166.25,-389 166.25,-409"/>
<text xml:space="preserve" text-anchor="middle" x="130.88" y="-395.5" font-family="Helvetica,sans-Serif" font-size="10.00">DataLoading</text>
</a>
</g>
</g>
<!-- Node1&#45;&gt;Node2 -->
<g id="edge1_Node000001_Node000002" class="edge">
<title>Node1&#45;&gt;Node2</title>
<g id="a_edge1_Node000001_Node000002"><a xlink:title=" ">
<path fill="none" stroke="#63b8ff" d="M31.37,-258.22C38.86,-280.62 59.16,-334.95 90.25,-371 93.68,-374.98 97.8,-378.69 102.06,-382.02"/>
<polygon fill="#63b8ff" stroke="#63b8ff" points="100,-384.84 110.18,-387.78 104.05,-379.13 100,-384.84"/>
</a>
</g>
</g>
<!-- Node4 -->
<g id="Node000004" class="node">
<title>Node4</title>
<g id="a_Node000004"><a xlink:href="_render_8cpp_a1fd03c204025be83f24bbe60ce3b6055.html#a1fd03c204025be83f24bbe60ce3b6055" target="_top" xlink:title=" ">
<polygon fill="white" stroke="#666666" points="167.38,-362 94.38,-362 94.38,-342 167.38,-342 167.38,-362"/>
<text xml:space="preserve" text-anchor="middle" x="130.88" y="-348.5" font-family="Helvetica,sans-Serif" font-size="10.00">DataRelease</text>
</a>
</g>
</g>
<!-- Node1&#45;&gt;Node4 -->
<g id="edge3_Node000001_Node000004" class="edge">
<title>Node1&#45;&gt;Node4</title>
<g id="a_edge3_Node000001_Node000004"><a xlink:title=" ">
<path fill="none" stroke="#63b8ff" d="M37.65,-258.44C49.7,-271.59 71.2,-294.77 90.25,-314 96.71,-320.52 103.91,-327.51 110.38,-333.69"/>
<polygon fill="#63b8ff" stroke="#63b8ff" points="107.86,-336.12 117.53,-340.46 112.68,-331.04 107.86,-336.12"/>
</a>
</g>
</g>
<!-- Node6 -->
<g id="Node000006" class="node">
<title>Node6</title>
<g id="a_Node000006"><a xlink:href="main_8cpp_ac2106f07f578d8091d9948c889e60d44.html#ac2106f07f578d8091d9948c889e60d44" target="_top" xlink:title=" ">
<polygon fill="white" stroke="#666666" points="163.25,-305 98.5,-305 98.5,-285 163.25,-285 163.25,-305"/>
<text xml:space="preserve" text-anchor="middle" x="130.88" y="-291.5" font-family="Helvetica,sans-Serif" font-size="10.00">InitWindow</text>
</a>
</g>
</g>
<!-- Node1&#45;&gt;Node6 -->
<g id="edge5_Node000001_Node000006" class="edge">
<title>Node1&#45;&gt;Node6</title>
<g id="a_edge5_Node000001_Node000006"><a xlink:title=" ">
<path fill="none" stroke="#63b8ff" d="M50.71,-258.43C64.41,-264.76 82.12,-272.94 97.32,-279.96"/>
<polygon fill="#63b8ff" stroke="#63b8ff" points="95.44,-282.95 105.98,-283.96 98.37,-276.59 95.44,-282.95"/>
</a>
</g>
</g>
<!-- Node10 -->
<g id="Node000010" class="node">
<title>Node10</title>
<g id="a_Node000010"><a xlink:href="main_8cpp_ab9fdb11deae0525b065d73d356b9ad1c.html#ab9fdb11deae0525b065d73d356b9ad1c" target="_top" xlink:title=" ">
<polygon fill="white" stroke="#666666" points="171.5,-258 90.25,-258 90.25,-238 171.5,-238 171.5,-258"/>
<text xml:space="preserve" text-anchor="middle" x="130.88" y="-244.5" font-family="Helvetica,sans-Serif" font-size="10.00">MessagePump</text>
</a>
</g>
</g>
<!-- Node1&#45;&gt;Node10 -->
<g id="edge9_Node000001_Node000010" class="edge">
<title>Node1&#45;&gt;Node10</title>
<g id="a_edge9_Node000001_Node000010"><a xlink:title=" ">
<path fill="none" stroke="#63b8ff" d="M54.59,-248C62.04,-248 70.41,-248 78.78,-248"/>
<polygon fill="#63b8ff" stroke="#63b8ff" points="78.6,-251.5 88.6,-248 78.6,-244.5 78.6,-251.5"/>
</a>
</g>
</g>
<!-- Node11 -->
<g id="Node000011" class="node">
<title>Node11</title>
<g id="a_Node000011"><a xlink:href="_render_8cpp_a6d72e579f5eb095a38091a15d586f1a9.html#a6d72e579f5eb095a38091a15d586f1a9" target="_top" xlink:title="장면 그리기">
<polygon fill="white" stroke="#666666" points="168.5,-210 93.25,-210 93.25,-190 168.5,-190 168.5,-210"/>
<text xml:space="preserve" text-anchor="middle" x="130.88" y="-196.5" font-family="Helvetica,sans-Serif" font-size="10.00">SceneRender</text>
</a>
</g>
</g>
<!-- Node1&#45;&gt;Node11 -->
<g id="edge10_Node000001_Node000011" class="edge">
<title>Node1&#45;&gt;Node11</title>
<g id="a_edge10_Node000001_Node000011"><a xlink:title=" ">
<path fill="none" stroke="#63b8ff" d="M50.2,-237.58C64.07,-231.04 82.19,-222.49 97.65,-215.2"/>
<polygon fill="#63b8ff" stroke="#63b8ff" points="98.92,-218.47 106.47,-211.04 95.93,-212.14 98.92,-218.47"/>
</a>
</g>
</g>
<!-- Node21 -->
<g id="Node000021" class="node">
<title>Node21</title>
<g id="a_Node000021"><a xlink:href="_device_8cpp_afc209451cd1079d8919b834c908f19ef.html#afc209451cd1079d8919b834c908f19ef" target="_top" xlink:title="예나 SWR 엔진 제거 : 종료시 1회 호출">
<polygon fill="white" stroke="#666666" points="167.75,-172 94,-172 94,-152 167.75,-152 167.75,-172"/>
<text xml:space="preserve" text-anchor="middle" x="130.88" y="-158.5" font-family="Helvetica,sans-Serif" font-size="10.00">YenaRelease</text>
</a>
</g>
</g>
<!-- Node1&#45;&gt;Node21 -->
<g id="edge22_Node000001_Node000021" class="edge">
<title>Node1&#45;&gt;Node21</title>
<g id="a_edge22_Node000001_Node000021"><a xlink:title=" ">
<path fill="none" stroke="#63b8ff" d="M35.58,-237.8C46.36,-223.6 67.52,-197.75 90.25,-181 91.59,-180.01 93,-179.05 94.44,-178.12"/>
<polygon fill="#63b8ff" stroke="#63b8ff" points="96.05,-181.23 103.01,-173.25 92.59,-175.15 96.05,-181.23"/>
</a>
</g>
</g>
<!-- Node22 -->
<g id="Node000022" class="node">
<title>Node22</title>
<g id="a_Node000022"><a xlink:href="_device_8cpp_acca400f5f8053c4279231fc354f439f2.html#acca400f5f8053c4279231fc354f439f2" target="_top" xlink:title=" ">
<polygon fill="white" stroke="#666666" points="162.5,-77 99.25,-77 99.25,-57 162.5,-57 162.5,-77"/>
<text xml:space="preserve" text-anchor="middle" x="130.88" y="-63.5" font-family="Helvetica,sans-Serif" font-size="10.00">YenaSetup</text>
</a>
</g>
</g>
<!-- Node1&#45;&gt;Node22 -->
<g id="edge23_Node000001_Node000022" class="edge">
<title>Node1&#45;&gt;Node22</title>
<g id="a_edge23_Node000001_Node000022"><a xlink:title=" ">
<path fill="none" stroke="#63b8ff" d="M33.89,-237.75C50.19,-208.75 96.85,-125.75 118.54,-87.17"/>
<polygon fill="#63b8ff" stroke="#63b8ff" points="121.59,-88.89 123.43,-78.46 115.48,-85.46 121.59,-88.89"/>
</a>
</g>
</g>
<!-- Node3 -->
<g id="Node000003" class="node">
<title>Node3</title>
<g id="a_Node000003"><a xlink:href="_render_8cpp_a52c38ded8a84ee0b98b47359e5966b4d.html#a52c38ded8a84ee0b98b47359e5966b4d" target="_top" xlink:title=" ">
<polygon fill="white" stroke="#666666" points="275.25,-419 223.25,-419 223.25,-399 275.25,-399 275.25,-419"/>
<text xml:space="preserve" text-anchor="middle" x="249.25" y="-405.5" font-family="Helvetica,sans-Serif" font-size="10.00">ObjLoad</text>
</a>
</g>
</g>
<!-- Node2&#45;&gt;Node3 -->
<g id="edge2_Node000002_Node000003" class="edge">
<title>Node2&#45;&gt;Node3</title>
<g id="a_edge2_Node000002_Node000003"><a xlink:title=" ">
<path fill="none" stroke="#63b8ff" d="M166.48,-401.97C180.75,-403.2 197.3,-404.62 211.77,-405.87"/>
<polygon fill="#63b8ff" stroke="#63b8ff" points="211.07,-409.32 221.33,-406.69 211.67,-402.34 211.07,-409.32"/>
</a>
</g>
</g>
<!-- Node5 -->
<g id="Node000005" class="node">
<title>Node5</title>
<g id="a_Node000005"><a xlink:href="_render_8cpp_ad2a85bf3afb47a1077c80371f7cc7f86.html#ad2a85bf3afb47a1077c80371f7cc7f86" target="_top" xlink:title="오브젝트 : 제거">
<polygon fill="white" stroke="#666666" points="282.75,-381 215.75,-381 215.75,-361 282.75,-361 282.75,-381"/>
<text xml:space="preserve" text-anchor="middle" x="249.25" y="-367.5" font-family="Helvetica,sans-Serif" font-size="10.00">ObjRelease</text>
</a>
</g>
</g>
<!-- Node4&#45;&gt;Node5 -->
<g id="edge4_Node000004_Node000005" class="edge">
<title>Node4&#45;&gt;Node5</title>
<g id="a_edge4_Node000004_Node000005"><a xlink:title=" ">
<path fill="none" stroke="#63b8ff" d="M167.74,-357.86C179.28,-359.74 192.2,-361.85 204.25,-363.82"/>
<polygon fill="#63b8ff" stroke="#63b8ff" points="203.55,-367.25 213.98,-365.4 204.67,-360.34 203.55,-367.25"/>
</a>
</g>
</g>
<!-- Node7 -->
<g id="Node000007" class="node">
<title>Node7</title>
<g id="a_Node000007"><a xlink:href="main_8cpp_a8a4c0ca15f926a2f75bc9c8e9201ca91.html#a8a4c0ca15f926a2f75bc9c8e9201ca91" target="_top" xlink:title=" ">
<polygon fill="white" stroke="#666666" points="276.75,-343 221.75,-343 221.75,-323 276.75,-323 276.75,-343"/>
<text xml:space="preserve" text-anchor="middle" x="249.25" y="-329.5" font-family="Helvetica,sans-Serif" font-size="10.00">MsgProc</text>
</a>
</g>
</g>
<!-- Node6&#45;&gt;Node7 -->
<g id="edge6_Node000006_Node000007" class="edge">
<title>Node6&#45;&gt;Node7</title>
<g id="a_edge6_Node000006_Node000007"><a xlink:title=" ">
<path fill="none" stroke="#63b8ff" d="M163.67,-305.38C178.3,-310.16 195.74,-315.85 210.97,-320.83"/>
<polygon fill="#63b8ff" stroke="#63b8ff" points="209.57,-324.05 220.17,-323.83 211.75,-317.4 209.57,-324.05"/>
</a>
</g>
</g>
<!-- Node8 -->
<g id="Node000008" class="node">
<title>Node8</title>
<g id="a_Node000008"><a xlink:href="main_8cpp_a5b47edfe2b8081af0e701fc23ea47543.html#a5b47edfe2b8081af0e701fc23ea47543" target="_top" xlink:title=" ">
<polygon fill="white" stroke="#666666" points="290.25,-305 208.25,-305 208.25,-285 290.25,-285 290.25,-305"/>
<text xml:space="preserve" text-anchor="middle" x="249.25" y="-291.5" font-family="Helvetica,sans-Serif" font-size="10.00">ResizeWindow</text>
</a>
</g>
</g>
<!-- Node6&#45;&gt;Node8 -->
<g id="edge7_Node000006_Node000008" class="edge">
<title>Node6&#45;&gt;Node8</title>
<g id="a_edge7_Node000006_Node000008"><a xlink:title=" ">
<path fill="none" stroke="#63b8ff" d="M163.67,-295C173.86,-295 185.42,-295 196.65,-295"/>
<polygon fill="#63b8ff" stroke="#63b8ff" points="196.65,-298.5 206.65,-295 196.65,-291.5 196.65,-298.5"/>
</a>
</g>
</g>
<!-- Node9 -->
<g id="Node000009" class="node">
<title>Node9</title>
<g id="a_Node000009"><a xlink:href="main_8cpp_a8380605dd55834edf34db4fea057f078.html#a8380605dd55834edf34db4fea057f078" target="_top" xlink:title=" ">
<polygon fill="white" stroke="#666666" points="427,-305 347.25,-305 347.25,-285 427,-285 427,-305"/>
<text xml:space="preserve" text-anchor="middle" x="387.12" y="-291.5" font-family="Helvetica,sans-Serif" font-size="10.00">MoveToCenter</text>
</a>
</g>
</g>
<!-- Node8&#45;&gt;Node9 -->
<g id="edge8_Node000008_Node000009" class="edge">
<title>Node8&#45;&gt;Node9</title>
<g id="a_edge8_Node000008_Node000009"><a xlink:title=" ">
<path fill="none" stroke="#63b8ff" d="M290.65,-295C304.86,-295 321.01,-295 335.93,-295"/>
<polygon fill="#63b8ff" stroke="#63b8ff" points="335.54,-298.5 345.54,-295 335.54,-291.5 335.54,-298.5"/>
</a>
</g>
</g>
<!-- Node12 -->
<g id="Node000012" class="node">
<title>Node12</title>
<g id="a_Node000012"><a xlink:href="_device_8cpp_a76c4195d88ec690c4da612bbd6d55f31.html#a76c4195d88ec690c4da612bbd6d55f31" target="_top" xlink:title="엔진 타이머 : 프레임 시간 획득.">
<polygon fill="white" stroke="#666666" points="291,-267 207.5,-267 207.5,-247 291,-247 291,-267"/>
<text xml:space="preserve" text-anchor="middle" x="249.25" y="-253.5" font-family="Helvetica,sans-Serif" font-size="10.00">GetEngineTime</text>
</a>
</g>
</g>
<!-- Node11&#45;&gt;Node12 -->
<g id="edge11_Node000011_Node000012" class="edge">
<title>Node11&#45;&gt;Node12</title>
<g id="a_edge11_Node000011_Node000012"><a xlink:title=" ">
<path fill="none" stroke="#63b8ff" d="M152.34,-210.49C167.51,-218.21 188.72,-228.91 207.5,-238 210.08,-239.25 212.76,-240.53 215.46,-241.81"/>
<polygon fill="#63b8ff" stroke="#63b8ff" points="213.87,-244.93 224.41,-246.02 216.85,-238.6 213.87,-244.93"/>
</a>
</g>
</g>
<!-- Node13 -->
<g id="Node000013" class="node">
<title>Node13</title>
<g id="a_Node000013"><a xlink:href="_render_8cpp_adfe3d7c4f90c898edb95bb1c90d45388.html#adfe3d7c4f90c898edb95bb1c90d45388" target="_top" xlink:title="오브젝트 그리기">
<polygon fill="white" stroke="#666666" points="276.38,-229 222.12,-229 222.12,-209 276.38,-209 276.38,-229"/>
<text xml:space="preserve" text-anchor="middle" x="249.25" y="-215.5" font-family="Helvetica,sans-Serif" font-size="10.00">ObjDraw</text>
</a>
</g>
</g>
<!-- Node11&#45;&gt;Node13 -->
<g id="edge12_Node000011_Node000013" class="edge">
<title>Node11&#45;&gt;Node13</title>
<g id="a_edge12_Node000011_Node000013"><a xlink:title=" ">
<path fill="none" stroke="#63b8ff" d="M168.7,-206.01C182.09,-208.2 197.23,-210.67 210.69,-212.87"/>
<polygon fill="#63b8ff" stroke="#63b8ff" points="210.06,-216.31 220.49,-214.47 211.19,-209.4 210.06,-216.31"/>
</a>
</g>
</g>
<!-- Node14 -->
<g id="Node000014" class="node">
<title>Node14</title>
<g id="a_Node000014"><a xlink:href="_render_8cpp_a71264aa9be3cdedfc23d807cca7e27e6.html#a71264aa9be3cdedfc23d807cca7e27e6" target="_top" xlink:title="오브젝트 : 상태 갱신">
<polygon fill="white" stroke="#666666" points="280.5,-191 218,-191 218,-171 280.5,-171 280.5,-191"/>
<text xml:space="preserve" text-anchor="middle" x="249.25" y="-177.5" font-family="Helvetica,sans-Serif" font-size="10.00">ObjUpdate</text>
</a>
</g>
</g>
<!-- Node11&#45;&gt;Node14 -->
<g id="edge13_Node000011_Node000014" class="edge">
<title>Node11&#45;&gt;Node14</title>
<g id="a_edge13_Node000011_Node000014"><a xlink:title=" ">
<path fill="none" stroke="#63b8ff" d="M168.7,-193.99C180.61,-192.04 193.9,-189.87 206.16,-187.87"/>
<polygon fill="#63b8ff" stroke="#63b8ff" points="206.72,-191.33 216.03,-186.26 205.59,-184.42 206.72,-191.33"/>
</a>
</g>
</g>
<!-- Node17 -->
<g id="Node000017" class="node">
<title>Node17</title>
<g id="a_Node000017"><a xlink:href="_device_8cpp_a8b5e6c31a2a6e19c38a0df9083df6f15.html#a8b5e6c31a2a6e19c38a0df9083df6f15" target="_top" xlink:title=" ">
<polygon fill="white" stroke="#666666" points="274.5,-153 224,-153 224,-133 274.5,-133 274.5,-153"/>
<text xml:space="preserve" text-anchor="middle" x="249.25" y="-139.5" font-family="Helvetica,sans-Serif" font-size="10.00">PutFPS</text>
</a>
</g>
</g>
<!-- Node11&#45;&gt;Node17 -->
<g id="edge16_Node000011_Node000017" class="edge">
<title>Node11&#45;&gt;Node17</title>
<g id="a_edge16_Node000011_Node000017"><a xlink:title=" ">
<path fill="none" stroke="#63b8ff" d="M153.75,-189.7C159.54,-186.92 165.78,-183.88 171.5,-181 187.66,-172.87 191.3,-170.05 207.5,-162 209.92,-160.8 212.43,-159.58 214.96,-158.36"/>
<polygon fill="#63b8ff" stroke="#63b8ff" points="216.4,-161.55 223.94,-154.1 213.41,-155.22 216.4,-161.55"/>
</a>
</g>
</g>
<!-- Node19 -->
<g id="Node000019" class="node">
<title>Node19</title>
<g id="a_Node000019"><a xlink:href="_render_8cpp_af4dd0814523522c2ef17aa2ec8079afc.html#af4dd0814523522c2ef17aa2ec8079afc" target="_top" xlink:title="도움말 출력">
<polygon fill="white" stroke="#666666" points="277.88,-115 220.62,-115 220.62,-95 277.88,-95 277.88,-115"/>
<text xml:space="preserve" text-anchor="middle" x="249.25" y="-101.5" font-family="Helvetica,sans-Serif" font-size="10.00">ShowInfo</text>
</a>
</g>
</g>
<!-- Node11&#45;&gt;Node19 -->
<g id="edge19_Node000011_Node000019" class="edge">
<title>Node11&#45;&gt;Node19</title>
<g id="a_edge19_Node000011_Node000019"><a xlink:title=" ">
<path fill="none" stroke="#63b8ff" d="M158.74,-189.67C163.28,-187.23 167.74,-184.35 171.5,-181 193.88,-161.08 185.01,-143.8 207.5,-124 208.55,-123.07 209.66,-122.18 210.81,-121.32"/>
<polygon fill="#63b8ff" stroke="#63b8ff" points="212.29,-124.53 218.91,-116.26 208.58,-118.59 212.29,-124.53"/>
</a>
</g>
</g>
<!-- Node20 -->
<g id="Node000020" class="node">
<title>Node20</title>
<g id="a_Node000020"><a xlink:href="_render_8cpp_ac207065b1fb62c07f89a12f7b4192a20.html#ac207065b1fb62c07f89a12f7b4192a20" target="_top" xlink:title="엔진 및 시스템 상태 갱신.">
<polygon fill="white" stroke="#666666" points="289.88,-77 208.62,-77 208.62,-57 289.88,-57 289.88,-77"/>
<text xml:space="preserve" text-anchor="middle" x="249.25" y="-63.5" font-family="Helvetica,sans-Serif" font-size="10.00">SystemUpdate</text>
</a>
</g>
</g>
<!-- Node11&#45;&gt;Node20 -->
<g id="edge21_Node000011_Node000020" class="edge">
<title>Node11&#45;&gt;Node20</title>
<g id="a_edge21_Node000011_Node000020"><a xlink:title=" ">
<path fill="none" stroke="#63b8ff" d="M160.54,-189.57C164.58,-187.21 168.4,-184.37 171.5,-181 202.04,-147.75 176.78,-119.09 207.5,-86 208.2,-85.25 208.93,-84.53 209.69,-83.83"/>
<polygon fill="#63b8ff" stroke="#63b8ff" points="211.45,-86.87 217.54,-78.2 207.37,-81.18 211.45,-86.87"/>
</a>
</g>
</g>
<!-- Node15 -->
<g id="Node000015" class="node">
<title>Node15</title>
<g id="a_Node000015"><a xlink:href="group___yena-_math_ga3828aa23962df7cb6bd24519416b70f3.html#ga3828aa23962df7cb6bd24519416b70f3" target="_top" xlink:title="\u{2b50} Z 축 기준 회전행렬 생성함수 (ver.YN) 단 회전량은 라디안.">
<polygon fill="white" stroke="#666666" points="442.75,-191 331.5,-191 331.5,-171 442.75,-171 442.75,-191"/>
<text xml:space="preserve" text-anchor="middle" x="387.12" y="-177.5" font-family="Helvetica,sans-Serif" font-size="10.00">B3YXMatrixRotationZ</text>
</a>
</g>
</g>
<!-- Node14&#45;&gt;Node15 -->
<g id="edge14_Node000014_Node000015" class="edge">
<title>Node14&#45;&gt;Node15</title>
<g id="a_edge14_Node000014_Node000015"><a xlink:title=" ">
<path fill="none" stroke="#63b8ff" d="M280.74,-181C292.36,-181 306.09,-181 319.75,-181"/>
<polygon fill="#63b8ff" stroke="#63b8ff" points="319.64,-184.5 329.64,-181 319.64,-177.5 319.64,-184.5"/>
</a>
</g>
</g>
<!-- Node16 -->
<g id="Node000016" class="node">
<title>Node16</title>
<g id="a_Node000016"><a xlink:href="group___yena-_math_ga02a75a42a0bae280a3396ecdb1c124e7.html#ga02a75a42a0bae280a3396ecdb1c124e7" target="_top" xlink:title="행렬 단위화(초기화) 함수">
<polygon fill="white" stroke="#666666" points="584,-191 483.25,-191 483.25,-171 584,-171 584,-191"/>
<text xml:space="preserve" text-anchor="middle" x="533.62" y="-177.5" font-family="Helvetica,sans-Serif" font-size="10.00">B3YXMatrixIdentity</text>
</a>
</g>
</g>
<!-- Node15&#45;&gt;Node16 -->
<g id="edge15_Node000015_Node000016" class="edge">
<title>Node15&#45;&gt;Node16</title>
<g id="a_edge15_Node000015_Node000016"><a xlink:title=" ">
<path fill="none" stroke="#63b8ff" d="M443.17,-181C452.47,-181 462.17,-181 471.61,-181"/>
<polygon fill="#63b8ff" stroke="#63b8ff" points="471.44,-184.5 481.44,-181 471.44,-177.5 471.44,-184.5"/>
</a>
</g>
</g>
<!-- Node18 -->
<g id="Node000018" class="node">
<title>Node18</title>
<g id="a_Node000018"><a xlink:href="_device_8cpp_a2034272a68b183b7651f0195b1d55182.html#a2034272a68b183b7651f0195b1d55182" target="_top" xlink:title=" ">
<polygon fill="white" stroke="#666666" points="416.12,-125 358.12,-125 358.12,-105 416.12,-105 416.12,-125"/>
<text xml:space="preserve" text-anchor="middle" x="387.12" y="-111.5" font-family="Helvetica,sans-Serif" font-size="10.00">DrawText</text>
</a>
</g>
</g>
<!-- Node17&#45;&gt;Node18 -->
<g id="edge17_Node000017_Node000018" class="edge">
<title>Node17&#45;&gt;Node18</title>
<g id="a_edge17_Node000017_Node000018"><a xlink:title=" ">
<path fill="none" stroke="#63b8ff" d="M274.86,-137.93C294.88,-133.8 323.51,-127.9 346.72,-123.12"/>
<polygon fill="#63b8ff" stroke="#63b8ff" points="347.38,-126.56 356.46,-121.11 345.96,-119.7 347.38,-126.56"/>
</a>
</g>
</g>
<!-- Node18&#45;&gt;Node18 -->
<g id="edge18_Node000018_Node000018" class="edge">
<title>Node18&#45;&gt;Node18</title>
<g id="a_edge18_Node000018_Node000018"><a xlink:title=" ">
<path fill="none" stroke="#63b8ff" d="M365.22,-125.34C355.86,-133.98 363.16,-143 387.12,-143 400.23,-143 408.35,-140.3 411.49,-136.44"/>
<polygon fill="#63b8ff" stroke="#63b8ff" points="414.94,-135.82 409.36,-126.82 408.11,-137.34 414.94,-135.82"/>
</a>
</g>
</g>
<!-- Node19&#45;&gt;Node18 -->
<g id="edge20_Node000019_Node000018" class="edge">
<title>Node19&#45;&gt;Node18</title>
<g id="a_edge20_Node000019_Node000018"><a xlink:title=" ">
<path fill="none" stroke="#63b8ff" d="M278.07,-107.05C297.82,-108.5 324.6,-110.47 346.57,-112.09"/>
<polygon fill="#63b8ff" stroke="#63b8ff" points="346.13,-115.57 356.36,-112.81 346.65,-108.58 346.13,-115.57"/>
</a>
</g>
</g>
<!-- Node23 -->
<g id="Node000023" class="node">
<title>Node23</title>
<g id="a_Node000023"><a xlink:href="group___yena-_interfaces_gaadd8f307a7460a88e7c4c254bcbe6719.html#gaadd8f307a7460a88e7c4c254bcbe6719" target="_top" xlink:title=" ">
<polygon fill="white" stroke="#666666" points="285.38,-39 213.12,-39 213.12,-19 285.38,-19 285.38,-39"/>
<text xml:space="preserve" text-anchor="middle" x="249.25" y="-25.5" font-family="Helvetica,sans-Serif" font-size="10.00">YenaCreate9</text>
</a>
</g>
</g>
<!-- Node22&#45;&gt;Node23 -->
<g id="edge24_Node000022_Node000023" class="edge">
<title>Node22&#45;&gt;Node23</title>
<g id="a_edge24_Node000022_Node000023"><a xlink:title=" ">
<path fill="none" stroke="#63b8ff" d="M162.76,-56.92C175.96,-52.61 191.58,-47.5 205.84,-42.85"/>
<polygon fill="#63b8ff" stroke="#63b8ff" points="206.55,-46.3 214.97,-39.87 204.38,-39.64 206.55,-46.3"/>
</a>
</g>
</g>
<!-- Node24 -->
<g id="Node000024" class="node">
<title>Node24</title>
<g id="a_Node000024"><a xlink:href="class_b3_yena_adf8a3574135e4d16506bc86ee677c7b7.html#adf8a3574135e4d16506bc86ee677c7b7" target="_top" xlink:title=" ">
<polygon fill="white" stroke="#666666" points="447.25,-39 327,-39 327,-19 447.25,-19 447.25,-39"/>
<text xml:space="preserve" text-anchor="middle" x="387.12" y="-25.5" font-family="Helvetica,sans-Serif" font-size="10.00">B3Yena::QueryInterface</text>
</a>
</g>
</g>
<!-- Node23&#45;&gt;Node24 -->
<g id="edge25_Node000023_Node000024" class="edge">
<title>Node23&#45;&gt;Node24</title>
<g id="a_edge25_Node000023_Node000024"><a xlink:title=" ">
<path fill="none" stroke="#63b8ff" d="M285.59,-29C294.83,-29 305.13,-29 315.5,-29"/>
<polygon fill="#63b8ff" stroke="#63b8ff" points="315.24,-32.5 325.24,-29 315.24,-25.5 315.24,-32.5"/>
</a>
</g>
</g>
<!-- Node25 -->
<g id="Node000025" class="node">
<title>Node25</title>
<g id="a_Node000025"><a xlink:href="class_b3_yena_af4a43b4057eea79e48143c6da0de48ce.html#af4a43b4057eea79e48143c6da0de48ce" target="_top" xlink:title=" ">
<polygon fill="white" stroke="#666666" points="578,-58 489.25,-58 489.25,-38 578,-38 578,-58"/>
<text xml:space="preserve" text-anchor="middle" x="533.62" y="-44.5" font-family="Helvetica,sans-Serif" font-size="10.00">B3Yena::AddRef</text>
</a>
</g>
</g>
<!-- Node24&#45;&gt;Node25 -->
<g id="edge26_Node000024_Node000025" class="edge">
<title>Node24&#45;&gt;Node25</title>
<g id="a_edge26_Node000024_Node000025"><a xlink:title=" ">
<path fill="none" stroke="#63b8ff" d="M447.73,-36.84C457.68,-38.15 467.96,-39.5 477.78,-40.79"/>
<polygon fill="#63b8ff" stroke="#63b8ff" points="477.18,-44.24 487.55,-42.07 478.09,-37.3 477.18,-44.24"/>
</a>
</g>
</g>
<!-- Node26 -->
<g id="Node000026" class="node">
<title>Node26</title>
<g id="a_Node000026"><a xlink:href="group___yena-_c_o_m_ga9e2aa2b3bba79319041923d1db833f2a.html#ga9e2aa2b3bba79319041923d1db833f2a" target="_top" xlink:title=" ">
<polygon fill="white" stroke="#666666" points="570.12,-20 497.12,-20 497.12,0 570.12,0 570.12,-20"/>
<text xml:space="preserve" text-anchor="middle" x="533.62" y="-6.5" font-family="Helvetica,sans-Serif" font-size="10.00">ynIsEqualIID</text>
</a>
</g>
</g>
<!-- Node24&#45;&gt;Node26 -->
<g id="edge27_Node000024_Node000026" class="edge">
<title>Node24&#45;&gt;Node26</title>
<g id="a_edge27_Node000024_Node000026"><a xlink:title=" ">
<path fill="none" stroke="#63b8ff" d="M447.73,-21.16C460.34,-19.5 473.48,-17.78 485.55,-16.19"/>
<polygon fill="#63b8ff" stroke="#63b8ff" points="485.78,-19.69 495.23,-14.92 484.86,-12.75 485.78,-19.69"/>
</a>
</g>
</g>
</g>
</svg>
