<?xml version="1.0" encoding="UTF-8" standalone="no"?>
<!DOCTYPE svg PUBLIC "-//W3C//DTD SVG 1.1//EN"
 "http://www.w3.org/Graphics/SVG/1.1/DTD/svg11.dtd">
<!-- Generated by graphviz version 13.1.2 (20250808.2320)
 -->
<!-- Title: Src/main.cpp Pages: 1 -->
<svg width="948pt" height="364pt"
 viewBox="0.00 0.00 948.00 364.00" xmlns="http://www.w3.org/2000/svg" xmlns:xlink="http://www.w3.org/1999/xlink">
<g id="graph0" class="graph" transform="scale(1 1) rotate(0) translate(4 360)">
<title>Src/main.cpp</title>
<!-- Node1 -->
<g id="Node000001" class="node">
<title>Node1</title>
<g id="a_Node000001"><a xlink:title="예제 애플리케이션 메인 / 윈도 프레임워크 소스">
<polygon fill="#999999" stroke="#666666" points="799.38,-356 725.62,-356 725.62,-336 799.38,-336 799.38,-356"/>
<text xml:space="preserve" text-anchor="middle" x="762.5" y="-342.5" font-family="Helvetica,sans-Serif" font-size="10.00">Src/main.cpp</text>
</a>
</g>
</g>
<!-- Node2 -->
<g id="Node000002" class="node">
<title>Node2</title>
<g id="a_Node000002"><a xlink:title=" ">
<polygon fill="#e0e0e0" stroke="#999999" points="435.75,-20 373.25,-20 373.25,0 435.75,0 435.75,-20"/>
<text xml:space="preserve" text-anchor="middle" x="404.5" y="-6.5" font-family="Helvetica,sans-Serif" font-size="10.00">windows.h</text>
</a>
</g>
</g>
<!-- Node1&#45;&gt;Node2 -->
<g id="edge1_Node000001_Node000002" class="edge">
<title>Node1&#45;&gt;Node2</title>
<g id="a_edge1_Node000001_Node000002"><a xlink:title=" ">
<path fill="none" stroke="#63b8ff" d="M779.31,-335.57C806.34,-319.02 856.5,-281.97 856.5,-235 856.5,-235 856.5,-235 856.5,-121 856.5,-37.25 559.8,-17 447.17,-12.33"/>
<polygon fill="#63b8ff" stroke="#63b8ff" points="447.57,-8.85 437.44,-11.95 447.29,-15.84 447.57,-8.85"/>
</a>
</g>
</g>
<!-- Node3 -->
<g id="Node000003" class="node">
<title>Node3</title>
<g id="a_Node000003"><a xlink:title=" ">
<polygon fill="#e0e0e0" stroke="#999999" points="199.5,-132 153.5,-132 153.5,-112 199.5,-112 199.5,-132"/>
<text xml:space="preserve" text-anchor="middle" x="176.5" y="-118.5" font-family="Helvetica,sans-Serif" font-size="10.00">tchar.h</text>
</a>
</g>
</g>
<!-- Node1&#45;&gt;Node3 -->
<g id="edge2_Node000001_Node000003" class="edge">
<title>Node1&#45;&gt;Node3</title>
<g id="a_edge2_Node000001_Node000003"><a xlink:title=" ">
<path fill="none" stroke="#63b8ff" d="M725.46,-342.18C633.62,-333.59 391.22,-300.97 230.5,-188 212.92,-175.64 197.78,-156.15 188.05,-141.73"/>
<polygon fill="#63b8ff" stroke="#63b8ff" points="191.14,-140.07 182.77,-133.58 185.26,-143.87 191.14,-140.07"/>
</a>
</g>
</g>
<!-- Node4 -->
<g id="Node000004" class="node">
<title>Node4</title>
<g id="a_Node000004"><a xlink:href="_device_8h.html" target="_top" xlink:title="예제 렌더링 장치 운용 헤더">
<polygon fill="white" stroke="#666666" points="603,-300 548,-300 548,-280 603,-280 603,-300"/>
<text xml:space="preserve" text-anchor="middle" x="575.5" y="-286.5" font-family="Helvetica,sans-Serif" font-size="10.00">Device.h</text>
</a>
</g>
</g>
<!-- Node1&#45;&gt;Node4 -->
<g id="edge3_Node000001_Node000004" class="edge">
<title>Node1&#45;&gt;Node4</title>
<g id="a_edge3_Node000001_Node000004"><a xlink:title=" ">
<path fill="none" stroke="#63b8ff" d="M729.93,-335.59C697.77,-326.31 648.6,-312.11 614.41,-302.23"/>
<polygon fill="#63b8ff" stroke="#63b8ff" points="615.47,-298.9 604.89,-299.49 613.52,-305.62 615.47,-298.9"/>
</a>
</g>
</g>
<!-- Node22 -->
<g id="Node000022" class="node">
<title>Node22</title>
<g id="a_Node000022"><a xlink:href="_render_8h.html" target="_top" xlink:title="예제 기본 렌더링/프레임웍 헤더">
<polygon fill="white" stroke="#666666" points="940.38,-300 884.62,-300 884.62,-280 940.38,-280 940.38,-300"/>
<text xml:space="preserve" text-anchor="middle" x="912.5" y="-286.5" font-family="Helvetica,sans-Serif" font-size="10.00">Render.h</text>
</a>
</g>
</g>
<!-- Node1&#45;&gt;Node22 -->
<g id="edge35_Node000001_Node000022" class="edge">
<title>Node1&#45;&gt;Node22</title>
<g id="a_edge35_Node000001_Node000022"><a xlink:title=" ">
<path fill="none" stroke="#63b8ff" d="M788.63,-335.59C812.68,-326.94 848.6,-314 875.58,-304.29"/>
<polygon fill="#63b8ff" stroke="#63b8ff" points="876.52,-307.67 884.74,-300.99 874.15,-301.09 876.52,-307.67"/>
</a>
</g>
</g>
<!-- Node5 -->
<g id="Node000005" class="node">
<title>Node5</title>
<g id="a_Node000005"><a xlink:href="_yena_8h.html" target="_top" xlink:title="\u{2b50} Yena SWR 기본 헤더 파일 (v1.x)">
<polygon fill="white" stroke="#666666" points="504.5,-244 458.5,-244 458.5,-224 504.5,-224 504.5,-244"/>
<text xml:space="preserve" text-anchor="middle" x="481.5" y="-230.5" font-family="Helvetica,sans-Serif" font-size="10.00">Yena.h</text>
</a>
</g>
</g>
<!-- Node4&#45;&gt;Node5 -->
<g id="edge4_Node000004_Node000005" class="edge">
<title>Node4&#45;&gt;Node5</title>
<g id="a_edge4_Node000004_Node000005"><a xlink:title=" ">
<path fill="none" stroke="#63b8ff" d="M559.13,-279.59C544.93,-271.44 524.12,-259.48 507.62,-250"/>
<polygon fill="#63b8ff" stroke="#63b8ff" points="509.73,-247.18 499.31,-245.23 506.24,-253.25 509.73,-247.18"/>
</a>
</g>
</g>
<!-- Node5&#45;&gt;Node2 -->
<g id="edge5_Node000005_Node000002" class="edge">
<title>Node5&#45;&gt;Node2</title>
<g id="a_edge5_Node000005_Node000002"><a xlink:title=" ">
<path fill="none" stroke="#63b8ff" d="M458.16,-231.91C412.79,-229.12 310.14,-219.56 230.5,-188 188.1,-171.2 166.24,-172.1 144.5,-132 97.81,-45.89 276.46,-20.67 361.66,-13.61"/>
<polygon fill="#63b8ff" stroke="#63b8ff" points="361.82,-17.1 371.52,-12.84 361.28,-10.13 361.82,-17.1"/>
</a>
</g>
</g>
<!-- Node5&#45;&gt;Node3 -->
<g id="edge6_Node000005_Node000003" class="edge">
<title>Node5&#45;&gt;Node3</title>
<g id="a_edge6_Node000005_Node000003"><a xlink:title=" ">
<path fill="none" stroke="#63b8ff" d="M458.31,-231.12C418.3,-227.23 334.39,-216.17 269.5,-188 241.34,-175.78 213,-154.35 195.14,-139.45"/>
<polygon fill="#63b8ff" stroke="#63b8ff" points="197.84,-137.15 187.96,-133.32 193.29,-142.48 197.84,-137.15"/>
</a>
</g>
</g>
<!-- Node6 -->
<g id="Node000006" class="node">
<title>Node6</title>
<g id="a_Node000006"><a xlink:title=" ">
<polygon fill="#e0e0e0" stroke="#999999" points="552.5,-132 506.5,-132 506.5,-112 552.5,-112 552.5,-132"/>
<text xml:space="preserve" text-anchor="middle" x="529.5" y="-118.5" font-family="Helvetica,sans-Serif" font-size="10.00">math.h</text>
</a>
</g>
</g>
<!-- Node5&#45;&gt;Node6 -->
<g id="edge7_Node000005_Node000006" class="edge">
<title>Node5&#45;&gt;Node6</title>
<g id="a_edge7_Node000005_Node000006"><a xlink:title=" ">
<path fill="none" stroke="#63b8ff" d="M488.56,-223.8C495.03,-215.01 504.48,-201.19 510.5,-188 517.09,-173.57 522.01,-156.3 525.19,-143.19"/>
<polygon fill="#63b8ff" stroke="#63b8ff" points="528.57,-144.13 527.37,-133.6 521.74,-142.58 528.57,-144.13"/>
</a>
</g>
</g>
<!-- Node7 -->
<g id="Node000007" class="node">
<title>Node7</title>
<g id="a_Node000007"><a xlink:title=" ">
<polygon fill="#e0e0e0" stroke="#999999" points="263.12,-132 217.88,-132 217.88,-112 263.12,-112 263.12,-132"/>
<text xml:space="preserve" text-anchor="middle" x="240.5" y="-118.5" font-family="Helvetica,sans-Serif" font-size="10.00">stdio.h</text>
</a>
</g>
</g>
<!-- Node5&#45;&gt;Node7 -->
<g id="edge8_Node000005_Node000007" class="edge">
<title>Node5&#45;&gt;Node7</title>
<g id="a_edge8_Node000005_Node000007"><a xlink:title=" ">
<path fill="none" stroke="#63b8ff" d="M458.3,-231.77C421.65,-228.9 349.23,-219.39 297.5,-188 278.32,-176.36 262.1,-156.15 251.93,-141.35"/>
<polygon fill="#63b8ff" stroke="#63b8ff" points="255.13,-139.84 246.72,-133.4 249.27,-143.68 255.13,-139.84"/>
</a>
</g>
</g>
<!-- Node8 -->
<g id="Node000008" class="node">
<title>Node8</title>
<g id="a_Node000008"><a xlink:title=" ">
<polygon fill="#e0e0e0" stroke="#999999" points="501.5,-188 461.5,-188 461.5,-168 501.5,-168 501.5,-188"/>
<text xml:space="preserve" text-anchor="middle" x="481.5" y="-174.5" font-family="Helvetica,sans-Serif" font-size="10.00">string</text>
</a>
</g>
</g>
<!-- Node5&#45;&gt;Node8 -->
<g id="edge9_Node000005_Node000008" class="edge">
<title>Node5&#45;&gt;Node8</title>
<g id="a_edge9_Node000005_Node000008"><a xlink:title=" ">
<path fill="none" stroke="#63b8ff" d="M481.5,-223.59C481.5,-217.01 481.5,-207.96 481.5,-199.73"/>
<polygon fill="#63b8ff" stroke="#63b8ff" points="485,-199.81 481.5,-189.81 478,-199.81 485,-199.81"/>
</a>
</g>
</g>
<!-- Node9 -->
<g id="Node000009" class="node">
<title>Node9</title>
<g id="a_Node000009"><a xlink:title=" ">
<polygon fill="#e0e0e0" stroke="#999999" points="415,-132 372,-132 372,-112 415,-112 415,-132"/>
<text xml:space="preserve" text-anchor="middle" x="393.5" y="-118.5" font-family="Helvetica,sans-Serif" font-size="10.00">vector</text>
</a>
</g>
</g>
<!-- Node5&#45;&gt;Node9 -->
<g id="edge10_Node000005_Node000009" class="edge">
<title>Node5&#45;&gt;Node9</title>
<g id="a_edge10_Node000005_Node000009"><a xlink:title=" ">
<path fill="none" stroke="#63b8ff" d="M474,-223.62C459.38,-205.36 426.89,-164.73 407.95,-141.07"/>
<polygon fill="#63b8ff" stroke="#63b8ff" points="410.91,-139.16 401.93,-133.54 405.44,-143.53 410.91,-139.16"/>
</a>
</g>
</g>
<!-- Node10 -->
<g id="Node000010" class="node">
<title>Node10</title>
<g id="a_Node000010"><a xlink:title=" ">
<polygon fill="#e0e0e0" stroke="#999999" points="488.38,-132 432.62,-132 432.62,-112 488.38,-112 488.38,-132"/>
<text xml:space="preserve" text-anchor="middle" x="460.5" y="-118.5" font-family="Helvetica,sans-Serif" font-size="10.00">algorithm</text>
</a>
</g>
</g>
<!-- Node5&#45;&gt;Node10 -->
<g id="edge11_Node000005_Node000010" class="edge">
<title>Node5&#45;&gt;Node10</title>
<g id="a_edge11_Node000005_Node000010"><a xlink:title=" ">
<path fill="none" stroke="#63b8ff" d="M473.28,-223.8C466.21,-215.23 456.54,-201.73 452.5,-188 448.22,-173.45 450.57,-156.42 453.8,-143.44"/>
<polygon fill="#63b8ff" stroke="#63b8ff" points="457.15,-144.48 456.57,-133.91 450.42,-142.54 457.15,-144.48"/>
</a>
</g>
</g>
<!-- Node11 -->
<g id="Node000011" class="node">
<title>Node11</title>
<g id="a_Node000011"><a xlink:href="yn_define_8h.html" target="_top" xlink:title="Yena SW 엔진 기본 정의 문서.">
<polygon fill="white" stroke="#666666" points="762.12,-76 698.88,-76 698.88,-56 762.12,-56 762.12,-76"/>
<text xml:space="preserve" text-anchor="middle" x="730.5" y="-62.5" font-family="Helvetica,sans-Serif" font-size="10.00">ynDefine.h</text>
</a>
</g>
</g>
<!-- Node5&#45;&gt;Node11 -->
<g id="edge12_Node000005_Node000011" class="edge">
<title>Node5&#45;&gt;Node11</title>
<g id="a_edge12_Node000005_Node000011"><a xlink:title=" ">
<path fill="none" stroke="#63b8ff" d="M504.76,-232.79C568.55,-231.71 744.29,-225.36 785.5,-188 810.95,-164.93 815.86,-142.2 799.5,-112 792.3,-98.7 779.27,-88.71 766.47,-81.57"/>
<polygon fill="#63b8ff" stroke="#63b8ff" points="768.21,-78.53 757.71,-77.12 765.04,-84.77 768.21,-78.53"/>
</a>
</g>
</g>
<!-- Node13 -->
<g id="Node000013" class="node">
<title>Node13</title>
<g id="a_Node000013"><a xlink:href="yn_error_8h.html" target="_top" xlink:title="에러, 예외 및 로그 처리 헤더 파일">
<polygon fill="white" stroke="#666666" points="776.38,-188 720.62,-188 720.62,-168 776.38,-168 776.38,-188"/>
<text xml:space="preserve" text-anchor="middle" x="748.5" y="-174.5" font-family="Helvetica,sans-Serif" font-size="10.00">ynError.h</text>
</a>
</g>
</g>
<!-- Node5&#45;&gt;Node13 -->
<g id="edge15_Node000005_Node000013" class="edge">
<title>Node5&#45;&gt;Node13</title>
<g id="a_edge15_Node000005_Node000013"><a xlink:title=" ">
<path fill="none" stroke="#63b8ff" d="M504.73,-228.3C550.54,-219.04 653,-198.31 709.41,-186.91"/>
<polygon fill="#63b8ff" stroke="#63b8ff" points="709.78,-190.4 718.89,-184.99 708.4,-183.54 709.78,-190.4"/>
</a>
</g>
</g>
<!-- Node15 -->
<g id="Node000015" class="node">
<title>Node15</title>
<g id="a_Node000015"><a xlink:href="yn_g_u_i_d_8h.html" target="_top" xlink:title="Yena SWR COM / GUID 헤더">
<polygon fill="white" stroke="#666666" points="366.62,-188 306.38,-188 306.38,-168 366.62,-168 366.62,-188"/>
<text xml:space="preserve" text-anchor="middle" x="336.5" y="-174.5" font-family="Helvetica,sans-Serif" font-size="10.00">ynGUID.h</text>
</a>
</g>
</g>
<!-- Node5&#45;&gt;Node15 -->
<g id="edge17_Node000005_Node000015" class="edge">
<title>Node5&#45;&gt;Node15</title>
<g id="a_edge17_Node000005_Node000015"><a xlink:title=" ">
<path fill="none" stroke="#63b8ff" d="M458.2,-224.32C434.98,-215.68 399.02,-202.28 372.2,-192.29"/>
<polygon fill="#63b8ff" stroke="#63b8ff" points="373.7,-189.12 363.11,-188.91 371.26,-195.68 373.7,-189.12"/>
</a>
</g>
</g>
<!-- Node17 -->
<g id="Node000017" class="node">
<title>Node17</title>
<g id="a_Node000017"><a xlink:href="yn_unknownbase_8h.html" target="_top" xlink:title="Yena SWR COM 기반 헤더 (v2.x)">
<polygon fill="white" stroke="#666666" points="97,-76 0,-76 0,-56 97,-56 97,-76"/>
<text xml:space="preserve" text-anchor="middle" x="48.5" y="-62.5" font-family="Helvetica,sans-Serif" font-size="10.00">ynUnknownbase.h</text>
</a>
</g>
</g>
<!-- Node5&#45;&gt;Node17 -->
<g id="edge25_Node000005_Node000017" class="edge">
<title>Node5&#45;&gt;Node17</title>
<g id="a_edge25_Node000005_Node000017"><a xlink:title=" ">
<path fill="none" stroke="#63b8ff" d="M458.23,-232.94C386.16,-232.32 168.08,-227.2 111.5,-188 76.89,-164.02 59.97,-115 52.86,-87.27"/>
<polygon fill="#63b8ff" stroke="#63b8ff" points="56.3,-86.61 50.6,-77.67 49.48,-88.21 56.3,-86.61"/>
</a>
</g>
</g>
<!-- Node18 -->
<g id="Node000018" class="node">
<title>Node18</title>
<g id="a_Node000018"><a xlink:href="ynx9types_8h.html" target="_top" xlink:title="\u{2b50} Yena SW 엔진 자료형 정의 : DX9 (d3d9types.h) 대응">
<polygon fill="white" stroke="#666666" points="640.12,-132 570.88,-132 570.88,-112 640.12,-112 640.12,-132"/>
<text xml:space="preserve" text-anchor="middle" x="605.5" y="-118.5" font-family="Helvetica,sans-Serif" font-size="10.00">ynx9types.h</text>
</a>
</g>
</g>
<!-- Node5&#45;&gt;Node18 -->
<g id="edge27_Node000005_Node000018" class="edge">
<title>Node5&#45;&gt;Node18</title>
<g id="a_edge27_Node000005_Node000018"><a xlink:title=" ">
<path fill="none" stroke="#63b8ff" d="M492.07,-223.62C513.03,-205.03 560.09,-163.28 586.54,-139.82"/>
<polygon fill="#63b8ff" stroke="#63b8ff" points="588.66,-142.61 593.82,-133.36 584.02,-137.38 588.66,-142.61"/>
</a>
</g>
</g>
<!-- Node19 -->
<g id="Node000019" class="node">
<title>Node19</title>
<g id="a_Node000019"><a xlink:href="ynx9_8h.html" target="_top" xlink:title="\u{2b50} Yena SWR 인터페이스 헤더 : DX9 (d3d9.h) 대응">
<polygon fill="white" stroke="#666666" points="641.12,-188 595.88,-188 595.88,-168 641.12,-168 641.12,-188"/>
<text xml:space="preserve" text-anchor="middle" x="618.5" y="-174.5" font-family="Helvetica,sans-Serif" font-size="10.00">ynx9.h</text>
</a>
</g>
</g>
<!-- Node5&#45;&gt;Node19 -->
<g id="edge29_Node000005_Node000019" class="edge">
<title>Node5&#45;&gt;Node19</title>
<g id="a_edge29_Node000005_Node000019"><a xlink:title=" ">
<path fill="none" stroke="#63b8ff" d="M504.74,-223.84C526.82,-215.14 560.25,-201.96 585.17,-192.14"/>
<polygon fill="#63b8ff" stroke="#63b8ff" points="586.18,-195.5 594.19,-188.58 583.61,-188.99 586.18,-195.5"/>
</a>
</g>
</g>
<!-- Node20 -->
<g id="Node000020" class="node">
<title>Node20</title>
<g id="a_Node000020"><a xlink:href="yn_math_8h.html" target="_top" xlink:title="\u{2b50} Yena 수학 라이브러리 Yena Math Library for DirectX / OpenGL">
<polygon fill="white" stroke="#666666" points="714.75,-132 658.25,-132 658.25,-112 714.75,-112 714.75,-132"/>
<text xml:space="preserve" text-anchor="middle" x="686.5" y="-118.5" font-family="Helvetica,sans-Serif" font-size="10.00">ynMath.h</text>
</a>
</g>
</g>
<!-- Node5&#45;&gt;Node20 -->
<g id="edge34_Node000005_Node000020" class="edge">
<title>Node5&#45;&gt;Node20</title>
<g id="a_edge34_Node000005_Node000020"><a xlink:title=" ">
<path fill="none" stroke="#63b8ff" d="M504.78,-232.42C539.9,-230.4 606.93,-222 650.5,-188 665.27,-176.48 674.86,-157.12 680.4,-142.52"/>
<polygon fill="#63b8ff" stroke="#63b8ff" points="683.56,-144.09 683.51,-133.5 676.94,-141.82 683.56,-144.09"/>
</a>
</g>
</g>
<!-- Node11&#45;&gt;Node2 -->
<g id="edge13_Node000011_Node000002" class="edge">
<title>Node11&#45;&gt;Node2</title>
<g id="a_edge13_Node000011_Node000002"><a xlink:title=" ">
<path fill="none" stroke="#63b8ff" d="M698.66,-57.64C695.91,-57.06 693.16,-56.51 690.5,-56 604.54,-39.58 503.21,-24.68 447.18,-16.83"/>
<polygon fill="#63b8ff" stroke="#63b8ff" points="447.82,-13.38 437.43,-15.47 446.85,-20.32 447.82,-13.38"/>
</a>
</g>
</g>
<!-- Node12 -->
<g id="Node000012" class="node">
<title>Node12</title>
<g id="a_Node000012"><a xlink:title=" ">
<polygon fill="#e0e0e0" stroke="#999999" points="756.12,-20 704.88,-20 704.88,0 756.12,0 756.12,-20"/>
<text xml:space="preserve" text-anchor="middle" x="730.5" y="-6.5" font-family="Helvetica,sans-Serif" font-size="10.00">assert.h</text>
</a>
</g>
</g>
<!-- Node11&#45;&gt;Node12 -->
<g id="edge14_Node000011_Node000012" class="edge">
<title>Node11&#45;&gt;Node12</title>
<g id="a_edge14_Node000011_Node000012"><a xlink:title=" ">
<path fill="none" stroke="#63b8ff" d="M730.5,-55.59C730.5,-49.01 730.5,-39.96 730.5,-31.73"/>
<polygon fill="#63b8ff" stroke="#63b8ff" points="734,-31.81 730.5,-21.81 727,-31.81 734,-31.81"/>
</a>
</g>
</g>
<!-- Node14 -->
<g id="Node000014" class="node">
<title>Node14</title>
<g id="a_Node000014"><a xlink:title=" ">
<polygon fill="#e0e0e0" stroke="#999999" points="790.5,-132 732.5,-132 732.5,-112 790.5,-112 790.5,-132"/>
<text xml:space="preserve" text-anchor="middle" x="761.5" y="-118.5" font-family="Helvetica,sans-Serif" font-size="10.00">exception</text>
</a>
</g>
</g>
<!-- Node13&#45;&gt;Node14 -->
<g id="edge16_Node000013_Node000014" class="edge">
<title>Node13&#45;&gt;Node14</title>
<g id="a_edge16_Node000013_Node000014"><a xlink:title=" ">
<path fill="none" stroke="#63b8ff" d="M750.76,-167.59C752.37,-160.93 754.58,-151.75 756.58,-143.44"/>
<polygon fill="#63b8ff" stroke="#63b8ff" points="759.97,-144.31 758.91,-133.77 753.16,-142.67 759.97,-144.31"/>
</a>
</g>
</g>
<!-- Node15&#45;&gt;Node2 -->
<g id="edge18_Node000015_Node000002" class="edge">
<title>Node15&#45;&gt;Node2</title>
<g id="a_edge18_Node000015_Node000002"><a xlink:title=" ">
<path fill="none" stroke="#63b8ff" d="M328.18,-167.76C317.9,-155.16 302.67,-131.91 310.5,-112 324.69,-75.92 358.52,-45.08 381.48,-27.29"/>
<polygon fill="#63b8ff" stroke="#63b8ff" points="383.45,-30.19 389.35,-21.39 379.25,-24.58 383.45,-30.19"/>
</a>
</g>
</g>
<!-- Node15&#45;&gt;Node3 -->
<g id="edge19_Node000015_Node000003" class="edge">
<title>Node15&#45;&gt;Node3</title>
<g id="a_edge19_Node000015_Node000003"><a xlink:title=" ">
<path fill="none" stroke="#63b8ff" d="M308.63,-167.59C281.32,-158.38 239.65,-144.31 210.43,-134.45"/>
<polygon fill="#63b8ff" stroke="#63b8ff" points="211.92,-131.26 201.33,-131.38 209.68,-137.89 211.92,-131.26"/>
</a>
</g>
</g>
<!-- Node15&#45;&gt;Node6 -->
<g id="edge20_Node000015_Node000006" class="edge">
<title>Node15&#45;&gt;Node6</title>
<g id="a_edge20_Node000015_Node000006"><a xlink:title=" ">
<path fill="none" stroke="#63b8ff" d="M367.07,-168.47C397.24,-160.05 444.99,-146.72 495.03,-132.69"/>
<polygon fill="#63b8ff" stroke="#63b8ff" points="495.94,-136.07 504.63,-130 494.05,-129.33 495.94,-136.07"/>
</a>
</g>
</g>
<!-- Node15&#45;&gt;Node7 -->
<g id="edge21_Node000015_Node000007" class="edge">
<title>Node15&#45;&gt;Node7</title>
<g id="a_edge21_Node000015_Node000007"><a xlink:title=" ">
<path fill="none" stroke="#63b8ff" d="M319.78,-167.59C305.28,-159.44 284.03,-147.48 267.18,-138"/>
<polygon fill="#63b8ff" stroke="#63b8ff" points="269.1,-135.07 258.67,-133.22 265.67,-141.17 269.1,-135.07"/>
</a>
</g>
</g>
<!-- Node15&#45;&gt;Node9 -->
<g id="edge22_Node000015_Node000009" class="edge">
<title>Node15&#45;&gt;Node9</title>
<g id="a_edge22_Node000015_Node000009"><a xlink:title=" ">
<path fill="none" stroke="#63b8ff" d="M346.43,-167.59C354.44,-160.01 365.92,-149.13 375.53,-140.02"/>
<polygon fill="#63b8ff" stroke="#63b8ff" points="377.73,-142.76 382.59,-133.34 372.92,-137.68 377.73,-142.76"/>
</a>
</g>
</g>
<!-- Node15&#45;&gt;Node10 -->
<g id="edge24_Node000015_Node000010" class="edge">
<title>Node15&#45;&gt;Node10</title>
<g id="a_edge24_Node000015_Node000010"><a xlink:title=" ">
<path fill="none" stroke="#63b8ff" d="M358.1,-167.59C377.45,-159.17 406.1,-146.69 428.18,-137.07"/>
<polygon fill="#63b8ff" stroke="#63b8ff" points="429.57,-140.29 437.34,-133.08 426.78,-133.87 429.57,-140.29"/>
</a>
</g>
</g>
<!-- Node16 -->
<g id="Node000016" class="node">
<title>Node16</title>
<g id="a_Node000016"><a xlink:title=" ">
<polygon fill="#e0e0e0" stroke="#999999" points="353.88,-132 319.12,-132 319.12,-112 353.88,-112 353.88,-132"/>
<text xml:space="preserve" text-anchor="middle" x="336.5" y="-118.5" font-family="Helvetica,sans-Serif" font-size="10.00">map</text>
</a>
</g>
</g>
<!-- Node15&#45;&gt;Node16 -->
<g id="edge23_Node000015_Node000016" class="edge">
<title>Node15&#45;&gt;Node16</title>
<g id="a_edge23_Node000015_Node000016"><a xlink:title=" ">
<path fill="none" stroke="#63b8ff" d="M336.5,-167.59C336.5,-161.01 336.5,-151.96 336.5,-143.73"/>
<polygon fill="#63b8ff" stroke="#63b8ff" points="340,-143.81 336.5,-133.81 333,-143.81 340,-143.81"/>
</a>
</g>
</g>
<!-- Node17&#45;&gt;Node2 -->
<g id="edge26_Node000017_Node000002" class="edge">
<title>Node17&#45;&gt;Node2</title>
<g id="a_edge26_Node000017_Node000002"><a xlink:title=" ">
<path fill="none" stroke="#63b8ff" d="M97.25,-57.6C167.31,-46.98 295.33,-27.56 361.84,-17.47"/>
<polygon fill="#63b8ff" stroke="#63b8ff" points="362.27,-20.95 371.63,-15.99 361.22,-14.02 362.27,-20.95"/>
</a>
</g>
</g>
<!-- Node18&#45;&gt;Node2 -->
<g id="edge28_Node000018_Node000002" class="edge">
<title>Node18&#45;&gt;Node2</title>
<g id="a_edge28_Node000018_Node000002"><a xlink:title=" ">
<path fill="none" stroke="#63b8ff" d="M588.36,-111.62C553.43,-92.5 473.74,-48.89 431.67,-25.87"/>
<polygon fill="#63b8ff" stroke="#63b8ff" points="433.37,-22.81 422.92,-21.08 430.01,-28.95 433.37,-22.81"/>
</a>
</g>
</g>
<!-- Node19&#45;&gt;Node18 -->
<g id="edge30_Node000019_Node000018" class="edge">
<title>Node19&#45;&gt;Node18</title>
<g id="a_edge30_Node000019_Node000018"><a xlink:title=" ">
<path fill="none" stroke="#63b8ff" d="M616.24,-167.59C614.63,-160.93 612.42,-151.75 610.42,-143.44"/>
<polygon fill="#63b8ff" stroke="#63b8ff" points="613.84,-142.67 608.09,-133.77 607.03,-144.31 613.84,-142.67"/>
</a>
</g>
</g>
<!-- Node19&#45;&gt;Node20 -->
<g id="edge31_Node000019_Node000020" class="edge">
<title>Node19&#45;&gt;Node20</title>
<g id="a_edge31_Node000019_Node000020"><a xlink:title=" ">
<path fill="none" stroke="#63b8ff" d="M630.34,-167.59C640.19,-159.77 654.43,-148.46 666.11,-139.19"/>
<polygon fill="#63b8ff" stroke="#63b8ff" points="667.95,-142.2 673.61,-133.24 663.6,-136.72 667.95,-142.2"/>
</a>
</g>
</g>
<!-- Node20&#45;&gt;Node11 -->
<g id="edge32_Node000020_Node000011" class="edge">
<title>Node20&#45;&gt;Node11</title>
<g id="a_edge32_Node000020_Node000011"><a xlink:title=" ">
<path fill="none" stroke="#63b8ff" d="M694.16,-111.59C700.09,-104.32 708.49,-94.02 715.71,-85.15"/>
<polygon fill="#63b8ff" stroke="#63b8ff" points="718.36,-87.43 721.97,-77.47 712.94,-83.01 718.36,-87.43"/>
</a>
</g>
</g>
<!-- Node21 -->
<g id="Node000021" class="node">
<title>Node21</title>
<g id="a_Node000021"><a xlink:title=" ">
<polygon fill="#e0e0e0" stroke="#999999" points="681,-76 602,-76 602,-56 681,-56 681,-76"/>
<text xml:space="preserve" text-anchor="middle" x="641.5" y="-62.5" font-family="Helvetica,sans-Serif" font-size="10.00">DirectXmath.h</text>
</a>
</g>
</g>
<!-- Node20&#45;&gt;Node21 -->
<g id="edge33_Node000020_Node000021" class="edge">
<title>Node20&#45;&gt;Node21</title>
<g id="a_edge33_Node000020_Node000021"><a xlink:title=" ">
<path fill="none" stroke="#63b8ff" d="M678.66,-111.59C672.53,-104.24 663.83,-93.8 656.39,-84.87"/>
<polygon fill="#63b8ff" stroke="#63b8ff" points="659.31,-82.9 650.22,-77.46 653.93,-87.38 659.31,-82.9"/>
</a>
</g>
</g>
</g>
</svg>
