<?xml version="1.0" encoding="UTF-8" standalone="no"?>
<!DOCTYPE svg PUBLIC "-//W3C//DTD SVG 1.1//EN"
 "http://www.w3.org/Graphics/SVG/1.1/DTD/svg11.dtd">
<!-- Generated by graphviz version 13.1.2 (20250808.2320)
 -->
<!-- Title: Src/main.cpp Pages: 1 -->
<!--zoomable 308 -->

<svg id="main" version="1.1" xmlns="http://www.w3.org/2000/svg" xmlns:xlink="http://www.w3.org/1999/xlink" xml:space="preserve" onload="init(evt)">

<style type="text/css"><![CDATA[
.node, .edge {opacity: 0.7;}
.node.selected, .edge.selected {opacity: 1;}
.edge:hover path { stroke: red; }
.edge:hover polygon { stroke: red; fill: red; }
]]></style>

<defs>
  <circle id="rim" cx="0" cy="0" r="7"/>
  <circle id="rim2" cx="0" cy="0" r="3.5"/>
  <g id="zoomPlus">
    <use xlink:href="#rim" fill="#404040"><set attributeName="fill" to="#808080" begin="zoomplus.mouseover" end="zoomplus.mouseout"/></use>
    <path d="M-4,0h8M0,-4v8" fill="none" stroke="white" stroke-width="1.5" pointer-events="none"/>
  </g>
  <g id="zoomMin">
    <use xlink:href="#rim" fill="#404040"><set attributeName="fill" to="#808080" begin="zoomminus.mouseover" end="zoomminus.mouseout"/></use>
    <path d="M-4,0h8" fill="none" stroke="white" stroke-width="1.5" pointer-events="none"/>
  </g>
  <g id="arrowUp" transform="translate(30 24)">
    <use xlink:href="#rim"/>
    <path pointer-events="none" fill="none" stroke="white" stroke-width="1.5" d="M0,-3.0v7 M-2.5,-0.5L0,-3.0L2.5,-0.5"/>
  </g>
  <g id="arrowRight" transform="rotate(90) translate(36 -43)">
    <use xlink:href="#rim"/>
    <path pointer-events="none" fill="none" stroke="white" stroke-width="1.5" d="M0,-3.0v7 M-2.5,-0.5L0,-3.0L2.5,-0.5"/>
  </g>
  <g id="arrowDown" transform="rotate(180) translate(-30 -48)">
    <use xlink:href="#rim"/>
    <path pointer-events="none" fill="none" stroke="white" stroke-width="1.5" d="M0,-3.0v7 M-2.5,-0.5L0,-3.0L2.5,-0.5"/>
  </g>
  <g id="arrowLeft" transform="rotate(270) translate(-36 17)">
    <use xlink:href="#rim"/>
    <path pointer-events="none" fill="none" stroke="white" stroke-width="1.5" d="M0,-3.0v7 M-2.5,-0.5L0,-3.0L2.5,-0.5"/>
  </g>
  <g id="resetDef">
    <use xlink:href="#rim2" fill="#404040"><set attributeName="fill" to="#808080" begin="reset.mouseover" end="reset.mouseout"/></use>
  </g>
</defs>
<script type="application/ecmascript">
var viewWidth = 953;
var viewHeight = 308;
var sectionId = 'dynsection-0';
</script>
<script type="application/ecmascript" xlink:href="svg.min.js"/>
<svg id="graph" class="graph">
<g id="viewport">
<title>Src/main.cpp</title>
<!-- Node1 -->
<g id="Node000001" class="node">
<title>Node1</title>
<g id="a_Node000001"><a xlink:title="예제 애플리케이션 메인 / 윈도 프레임워크 소스">
<polygon fill="#999999" stroke="#666666" points="785.88,-300 712.12,-300 712.12,-280 785.88,-280 785.88,-300"/>
<text xml:space="preserve" text-anchor="middle" x="749" y="-286.5" font-family="Helvetica,sans-Serif" font-size="10.00">Src/main.cpp</text>
</a>
</g>
</g>
<!-- Node2 -->
<g id="Node000002" class="node">
<title>Node2</title>
<g id="a_Node000002"><a xlink:title=" ">
<polygon fill="#e0e0e0" stroke="#999999" points="682.25,-20 619.75,-20 619.75,0 682.25,0 682.25,-20"/>
<text xml:space="preserve" text-anchor="middle" x="651" y="-6.5" font-family="Helvetica,sans-Serif" font-size="10.00">windows.h</text>
</a>
</g>
</g>
<!-- Node1&#45;&gt;Node2 -->
<g id="edge1_Node000001_Node000002" class="edge">
<title>Node1&#45;&gt;Node2</title>
<g id="a_edge1_Node000001_Node000002"><a xlink:title=" ">
<path fill="none" stroke="#63b8ff" d="M770.86,-279.56C803.45,-263.84 861,-229.01 861,-179 861,-179 861,-179 861,-121 861,-46.18 755.11,-22.15 693.72,-14.51"/>
<polygon fill="#63b8ff" stroke="#63b8ff" points="694.27,-11.05 683.94,-13.4 693.48,-18.01 694.27,-11.05"/>
</a>
</g>
</g>
<!-- Node3 -->
<g id="Node000003" class="node">
<title>Node3</title>
<g id="a_Node000003"><a xlink:title=" ">
<polygon fill="#e0e0e0" stroke="#999999" points="46,-76 0,-76 0,-56 46,-56 46,-76"/>
<text xml:space="preserve" text-anchor="middle" x="23" y="-62.5" font-family="Helvetica,sans-Serif" font-size="10.00">tchar.h</text>
</a>
</g>
</g>
<!-- Node1&#45;&gt;Node3 -->
<g id="edge2_Node000001_Node000003" class="edge">
<title>Node1&#45;&gt;Node3</title>
<g id="a_edge2_Node000001_Node000003"><a xlink:title=" ">
<path fill="none" stroke="#63b8ff" d="M711.76,-283.65C661.1,-276.11 567.74,-261.35 489,-244 301.59,-202.7 231.07,-239.34 72,-132 54.82,-120.41 41.25,-100.77 32.78,-86.11"/>
<polygon fill="#63b8ff" stroke="#63b8ff" points="35.91,-84.52 28.06,-77.41 29.76,-87.87 35.91,-84.52"/>
</a>
</g>
</g>
<!-- Node4 -->
<g id="Node000004" class="node">
<title>Node4</title>
<g id="a_Node000004"><a xlink:href="_device_8h.html" target="_top" xlink:title="예제 렌더링 장치 운용 헤더">
<polygon fill="white" stroke="#666666" points="552.5,-244 497.5,-244 497.5,-224 552.5,-224 552.5,-244"/>
<text xml:space="preserve" text-anchor="middle" x="525" y="-230.5" font-family="Helvetica,sans-Serif" font-size="10.00">Device.h</text>
</a>
</g>
</g>
<!-- Node1&#45;&gt;Node4 -->
<g id="edge3_Node000001_Node000004" class="edge">
<title>Node1&#45;&gt;Node4</title>
<g id="a_edge3_Node000001_Node000004"><a xlink:title=" ">
<path fill="none" stroke="#63b8ff" d="M711.76,-280.02C670.82,-270.15 605.36,-254.37 563.81,-244.36"/>
<polygon fill="#63b8ff" stroke="#63b8ff" points="564.78,-240.99 554.24,-242.05 563.14,-247.79 564.78,-240.99"/>
</a>
</g>
</g>
<!-- Node21 -->
<g id="Node000021" class="node">
<title>Node21</title>
<g id="a_Node000021"><a xlink:href="_render_8h.html" target="_top" xlink:title="예제 기본 렌더링/프레임웍 헤더">
<polygon fill="white" stroke="#666666" points="944.88,-244 889.12,-244 889.12,-224 944.88,-224 944.88,-244"/>
<text xml:space="preserve" text-anchor="middle" x="917" y="-230.5" font-family="Helvetica,sans-Serif" font-size="10.00">Render.h</text>
</a>
</g>
</g>
<!-- Node1&#45;&gt;Node21 -->
<g id="edge32_Node000001_Node000021" class="edge">
<title>Node1&#45;&gt;Node21</title>
<g id="a_edge32_Node000001_Node000021"><a xlink:title=" ">
<path fill="none" stroke="#63b8ff" d="M778.26,-279.59C805.89,-270.71 847.52,-257.33 877.97,-247.55"/>
<polygon fill="#63b8ff" stroke="#63b8ff" points="878.74,-250.97 887.19,-244.58 876.6,-244.31 878.74,-250.97"/>
</a>
</g>
</g>
<!-- Node5 -->
<g id="Node000005" class="node">
<title>Node5</title>
<g id="a_Node000005"><a xlink:href="_yena_8h.html" target="_top" xlink:title="\u{2b50} Yena SWR 기본 헤더 파일 (v1.x)">
<polygon fill="white" stroke="#666666" points="436,-188 390,-188 390,-168 436,-168 436,-188"/>
<text xml:space="preserve" text-anchor="middle" x="413" y="-174.5" font-family="Helvetica,sans-Serif" font-size="10.00">Yena.h</text>
</a>
</g>
</g>
<!-- Node4&#45;&gt;Node5 -->
<g id="edge4_Node000004_Node000005" class="edge">
<title>Node4&#45;&gt;Node5</title>
<g id="a_edge4_Node000004_Node000005"><a xlink:title=" ">
<path fill="none" stroke="#63b8ff" d="M505.49,-223.59C488.25,-215.28 462.84,-203.03 443.01,-193.47"/>
<polygon fill="#63b8ff" stroke="#63b8ff" points="444.55,-190.33 434.02,-189.14 441.51,-196.63 444.55,-190.33"/>
</a>
</g>
</g>
<!-- Node5&#45;&gt;Node2 -->
<g id="edge5_Node000005_Node000002" class="edge">
<title>Node5&#45;&gt;Node2</title>
<g id="a_edge5_Node000005_Node000002"><a xlink:title=" ">
<path fill="none" stroke="#63b8ff" d="M436.3,-176.09C516.76,-172.7 779.39,-159.61 804,-132 823.01,-110.67 798.29,-74.46 778,-56 754.69,-34.79 720.73,-23.44 693.79,-17.44"/>
<polygon fill="#63b8ff" stroke="#63b8ff" points="694.71,-14.06 684.21,-15.49 693.31,-20.92 694.71,-14.06"/>
</a>
</g>
</g>
<!-- Node5&#45;&gt;Node3 -->
<g id="edge6_Node000005_Node000003" class="edge">
<title>Node5&#45;&gt;Node3</title>
<g id="a_edge6_Node000005_Node000003"><a xlink:title=" ">
<path fill="none" stroke="#63b8ff" d="M389.55,-177.35C337.25,-177.33 207.95,-172.78 110,-132 82.98,-120.75 56.73,-99.24 40.26,-84.05"/>
<polygon fill="#63b8ff" stroke="#63b8ff" points="42.93,-81.76 33.27,-77.41 38.11,-86.83 42.93,-81.76"/>
</a>
</g>
</g>
<!-- Node6 -->
<g id="Node000006" class="node">
<title>Node6</title>
<g id="a_Node000006"><a xlink:title=" ">
<polygon fill="#e0e0e0" stroke="#999999" points="110,-76 64,-76 64,-56 110,-56 110,-76"/>
<text xml:space="preserve" text-anchor="middle" x="87" y="-62.5" font-family="Helvetica,sans-Serif" font-size="10.00">math.h</text>
</a>
</g>
</g>
<!-- Node5&#45;&gt;Node6 -->
<g id="edge7_Node000005_Node000006" class="edge">
<title>Node5&#45;&gt;Node6</title>
<g id="a_edge7_Node000005_Node000006"><a xlink:title=" ">
<path fill="none" stroke="#63b8ff" d="M389.82,-175.49C331.06,-171.32 177.89,-158.16 135,-132 117.44,-121.29 104.25,-101.53 96.18,-86.59"/>
<polygon fill="#63b8ff" stroke="#63b8ff" points="99.33,-85.06 91.71,-77.7 93.07,-88.2 99.33,-85.06"/>
</a>
</g>
</g>
<!-- Node7 -->
<g id="Node000007" class="node">
<title>Node7</title>
<g id="a_Node000007"><a xlink:title=" ">
<polygon fill="#e0e0e0" stroke="#999999" points="173.62,-76 128.38,-76 128.38,-56 173.62,-56 173.62,-76"/>
<text xml:space="preserve" text-anchor="middle" x="151" y="-62.5" font-family="Helvetica,sans-Serif" font-size="10.00">stdio.h</text>
</a>
</g>
</g>
<!-- Node5&#45;&gt;Node7 -->
<g id="edge8_Node000005_Node000007" class="edge">
<title>Node5&#45;&gt;Node7</title>
<g id="a_edge8_Node000005_Node000007"><a xlink:title=" ">
<path fill="none" stroke="#63b8ff" d="M389.57,-176.74C330.35,-175.55 177.19,-168.88 146,-132 135.61,-119.71 138.3,-101.02 142.75,-86.83"/>
<polygon fill="#63b8ff" stroke="#63b8ff" points="145.97,-88.23 146.13,-77.63 139.4,-85.81 145.97,-88.23"/>
</a>
</g>
</g>
<!-- Node8 -->
<g id="Node000008" class="node">
<title>Node8</title>
<g id="a_Node000008"><a xlink:title=" ">
<polygon fill="#e0e0e0" stroke="#999999" points="273,-132 233,-132 233,-112 273,-112 273,-132"/>
<text xml:space="preserve" text-anchor="middle" x="253" y="-118.5" font-family="Helvetica,sans-Serif" font-size="10.00">string</text>
</a>
</g>
</g>
<!-- Node5&#45;&gt;Node8 -->
<g id="edge9_Node000005_Node000008" class="edge">
<title>Node5&#45;&gt;Node8</title>
<g id="a_edge9_Node000005_Node000008"><a xlink:title=" ">
<path fill="none" stroke="#63b8ff" d="M389.73,-169.15C361.79,-159.72 314.82,-143.86 283.87,-133.42"/>
<polygon fill="#63b8ff" stroke="#63b8ff" points="285.28,-130.2 274.69,-130.32 283.04,-136.83 285.28,-130.2"/>
</a>
</g>
</g>
<!-- Node9 -->
<g id="Node000009" class="node">
<title>Node9</title>
<g id="a_Node000009"><a xlink:title=" ">
<polygon fill="#e0e0e0" stroke="#999999" points="325.5,-76 282.5,-76 282.5,-56 325.5,-56 325.5,-76"/>
<text xml:space="preserve" text-anchor="middle" x="304" y="-62.5" font-family="Helvetica,sans-Serif" font-size="10.00">vector</text>
</a>
</g>
</g>
<!-- Node5&#45;&gt;Node9 -->
<g id="edge10_Node000005_Node000009" class="edge">
<title>Node5&#45;&gt;Node9</title>
<g id="a_edge10_Node000005_Node000009"><a xlink:title=" ">
<path fill="none" stroke="#63b8ff" d="M389.58,-171.72C368.29,-165.7 337.61,-153.74 320,-132 309.92,-119.55 306.06,-101.67 304.64,-87.81"/>
<polygon fill="#63b8ff" stroke="#63b8ff" points="308.14,-87.75 304.01,-78 301.15,-88.2 308.14,-87.75"/>
</a>
</g>
</g>
<!-- Node10 -->
<g id="Node000010" class="node">
<title>Node10</title>
<g id="a_Node000010"><a xlink:title=" ">
<polygon fill="#e0e0e0" stroke="#999999" points="419.88,-76 364.12,-76 364.12,-56 419.88,-56 419.88,-76"/>
<text xml:space="preserve" text-anchor="middle" x="392" y="-62.5" font-family="Helvetica,sans-Serif" font-size="10.00">algorithm</text>
</a>
</g>
</g>
<!-- Node5&#45;&gt;Node10 -->
<g id="edge11_Node000005_Node000010" class="edge">
<title>Node5&#45;&gt;Node10</title>
<g id="a_edge11_Node000005_Node000010"><a xlink:title=" ">
<path fill="none" stroke="#63b8ff" d="M411.21,-167.62C407.85,-150.01 400.51,-111.59 395.94,-87.65"/>
<polygon fill="#63b8ff" stroke="#63b8ff" points="399.38,-87.01 394.07,-77.84 392.51,-88.32 399.38,-87.01"/>
</a>
</g>
</g>
<!-- Node11 -->
<g id="Node000011" class="node">
<title>Node11</title>
<g id="a_Node000011"><a xlink:href="yn_define_8h.html" target="_top" xlink:title="Yena SW 엔진 기본 정의 문서.">
<polygon fill="white" stroke="#666666" points="504.62,-132 441.38,-132 441.38,-112 504.62,-112 504.62,-132"/>
<text xml:space="preserve" text-anchor="middle" x="473" y="-118.5" font-family="Helvetica,sans-Serif" font-size="10.00">ynDefine.h</text>
</a>
</g>
</g>
<!-- Node5&#45;&gt;Node11 -->
<g id="edge12_Node000005_Node000011" class="edge">
<title>Node5&#45;&gt;Node11</title>
<g id="a_edge12_Node000005_Node000011"><a xlink:title=" ">
<path fill="none" stroke="#63b8ff" d="M423.45,-167.59C431.97,-159.93 444.21,-148.91 454.39,-139.75"/>
<polygon fill="#63b8ff" stroke="#63b8ff" points="456.45,-142.6 461.54,-133.31 451.77,-137.4 456.45,-142.6"/>
</a>
</g>
</g>
<!-- Node13 -->
<g id="Node000013" class="node">
<title>Node13</title>
<g id="a_Node000013"><a xlink:href="yn_error_8h.html" target="_top" xlink:title="에러, 예외 및 로그 처리 헤더 파일">
<polygon fill="white" stroke="#666666" points="692.88,-132 637.12,-132 637.12,-112 692.88,-112 692.88,-132"/>
<text xml:space="preserve" text-anchor="middle" x="665" y="-118.5" font-family="Helvetica,sans-Serif" font-size="10.00">ynError.h</text>
</a>
</g>
</g>
<!-- Node5&#45;&gt;Node13 -->
<g id="edge15_Node000005_Node000013" class="edge">
<title>Node5&#45;&gt;Node13</title>
<g id="a_edge15_Node000005_Node000013"><a xlink:title=" ">
<path fill="none" stroke="#63b8ff" d="M436.4,-172.44C474.25,-165 551.49,-149.53 625.79,-132.68"/>
<polygon fill="#63b8ff" stroke="#63b8ff" points="626.28,-136.16 635.25,-130.52 624.72,-129.33 626.28,-136.16"/>
</a>
</g>
</g>
<!-- Node15 -->
<g id="Node000015" class="node">
<title>Node15</title>
<g id="a_Node000015"><a xlink:href="yn_g_u_i_d_8h.html" target="_top" xlink:title="Yena SWR COM / GUID 헤더">
<polygon fill="white" stroke="#666666" points="215.12,-132 154.88,-132 154.88,-112 215.12,-112 215.12,-132"/>
<text xml:space="preserve" text-anchor="middle" x="185" y="-118.5" font-family="Helvetica,sans-Serif" font-size="10.00">ynGUID.h</text>
</a>
</g>
</g>
<!-- Node5&#45;&gt;Node15 -->
<g id="edge17_Node000005_Node000015" class="edge">
<title>Node5&#45;&gt;Node15</title>
<g id="a_edge17_Node000005_Node000015"><a xlink:title=" ">
<path fill="none" stroke="#63b8ff" d="M389.88,-171.53C351.52,-162.44 274.2,-144.13 226.29,-132.78"/>
<polygon fill="#63b8ff" stroke="#63b8ff" points="227.38,-129.44 216.84,-130.54 225.77,-136.25 227.38,-129.44"/>
</a>
</g>
</g>
<!-- Node17 -->
<g id="Node000017" class="node">
<title>Node17</title>
<g id="a_Node000017"><a xlink:href="yn_unknownbase_8h.html" target="_top" xlink:title="Yena SWR COM 기반 헤더 (v2.x)">
<polygon fill="white" stroke="#666666" points="619.5,-132 522.5,-132 522.5,-112 619.5,-112 619.5,-132"/>
<text xml:space="preserve" text-anchor="middle" x="571" y="-118.5" font-family="Helvetica,sans-Serif" font-size="10.00">ynUnknownbase.h</text>
</a>
</g>
</g>
<!-- Node5&#45;&gt;Node17 -->
<g id="edge25_Node000005_Node000017" class="edge">
<title>Node5&#45;&gt;Node17</title>
<g id="a_edge25_Node000005_Node000017"><a xlink:title=" ">
<path fill="none" stroke="#63b8ff" d="M436.31,-169.03C461.7,-160.36 502.68,-146.35 532.78,-136.06"/>
<polygon fill="#63b8ff" stroke="#63b8ff" points="533.57,-139.49 541.9,-132.95 531.3,-132.87 533.57,-139.49"/>
</a>
</g>
</g>
<!-- Node18 -->
<g id="Node000018" class="node">
<title>Node18</title>
<g id="a_Node000018"><a xlink:href="ynx9types_8h.html" target="_top" xlink:title="\u{2b50} Yena SW 엔진 자료형 정의 : DX9 (d3d9types.h) 대응">
<polygon fill="white" stroke="#666666" points="768.62,-76 699.38,-76 699.38,-56 768.62,-56 768.62,-76"/>
<text xml:space="preserve" text-anchor="middle" x="734" y="-62.5" font-family="Helvetica,sans-Serif" font-size="10.00">ynx9types.h</text>
</a>
</g>
</g>
<!-- Node5&#45;&gt;Node18 -->
<g id="edge27_Node000005_Node000018" class="edge">
<title>Node5&#45;&gt;Node18</title>
<g id="a_edge27_Node000005_Node000018"><a xlink:title=" ">
<path fill="none" stroke="#63b8ff" d="M436.5,-176.09C497.62,-173.29 659.76,-163.05 702,-132 716.57,-121.29 724.87,-102.11 729.34,-87.35"/>
<polygon fill="#63b8ff" stroke="#63b8ff" points="732.71,-88.3 731.87,-77.74 725.94,-86.52 732.71,-88.3"/>
</a>
</g>
</g>
<!-- Node19 -->
<g id="Node000019" class="node">
<title>Node19</title>
<g id="a_Node000019"><a xlink:href="ynx9_8h.html" target="_top" xlink:title="\u{2b50} Yena SWR 인터페이스 헤더 : DX9 (d3d9.h) 대응">
<polygon fill="white" stroke="#666666" points="794.62,-132 749.38,-132 749.38,-112 794.62,-112 794.62,-132"/>
<text xml:space="preserve" text-anchor="middle" x="772" y="-118.5" font-family="Helvetica,sans-Serif" font-size="10.00">ynx9.h</text>
</a>
</g>
</g>
<!-- Node5&#45;&gt;Node19 -->
<g id="edge29_Node000005_Node000019" class="edge">
<title>Node5&#45;&gt;Node19</title>
<g id="a_edge29_Node000005_Node000019"><a xlink:title=" ">
<path fill="none" stroke="#63b8ff" d="M436.17,-174.57C489.28,-168.81 623.84,-153.23 735,-132 735.99,-131.81 737,-131.61 738.02,-131.4"/>
<polygon fill="#63b8ff" stroke="#63b8ff" points="738.5,-134.88 747.51,-129.3 736.99,-128.05 738.5,-134.88"/>
</a>
</g>
</g>
<!-- Node20 -->
<g id="Node000020" class="node">
<title>Node20</title>
<g id="a_Node000020"><a xlink:href="yn_math_8h.html" target="_top" xlink:title="Yena Math Library for DirectX / OpenGL Yens SW Renderer v2.x.">
<polygon fill="white" stroke="#666666" points="385.25,-132 328.75,-132 328.75,-112 385.25,-112 385.25,-132"/>
<text xml:space="preserve" text-anchor="middle" x="357" y="-118.5" font-family="Helvetica,sans-Serif" font-size="10.00">ynMath.h</text>
</a>
</g>
</g>
<!-- Node5&#45;&gt;Node20 -->
<g id="edge31_Node000005_Node000020" class="edge">
<title>Node5&#45;&gt;Node20</title>
<g id="a_edge31_Node000005_Node000020"><a xlink:title=" ">
<path fill="none" stroke="#63b8ff" d="M403.25,-167.59C395.38,-160.01 384.1,-149.13 374.65,-140.02"/>
<polygon fill="#63b8ff" stroke="#63b8ff" points="377.36,-137.77 367.73,-133.35 372.5,-142.81 377.36,-137.77"/>
</a>
</g>
</g>
<!-- Node11&#45;&gt;Node2 -->
<g id="edge13_Node000011_Node000002" class="edge">
<title>Node11&#45;&gt;Node2</title>
<g id="a_edge13_Node000011_Node000002"><a xlink:title=" ">
<path fill="none" stroke="#63b8ff" d="M473.04,-111.62C473.61,-97.56 476.8,-71.07 492,-56 522.79,-25.47 572.65,-15.31 608.32,-12.1"/>
<polygon fill="#63b8ff" stroke="#63b8ff" points="608.14,-15.62 617.86,-11.4 607.63,-8.64 608.14,-15.62"/>
</a>
</g>
</g>
<!-- Node12 -->
<g id="Node000012" class="node">
<title>Node12</title>
<g id="a_Node000012"><a xlink:title=" ">
<polygon fill="#e0e0e0" stroke="#999999" points="552.62,-76 501.38,-76 501.38,-56 552.62,-56 552.62,-76"/>
<text xml:space="preserve" text-anchor="middle" x="527" y="-62.5" font-family="Helvetica,sans-Serif" font-size="10.00">assert.h</text>
</a>
</g>
</g>
<!-- Node11&#45;&gt;Node12 -->
<g id="edge14_Node000011_Node000012" class="edge">
<title>Node11&#45;&gt;Node12</title>
<g id="a_edge14_Node000011_Node000012"><a xlink:title=" ">
<path fill="none" stroke="#63b8ff" d="M482.41,-111.59C489.92,-104.08 500.65,-93.35 509.7,-84.3"/>
<polygon fill="#63b8ff" stroke="#63b8ff" points="512.04,-86.91 516.63,-77.37 507.09,-81.96 512.04,-86.91"/>
</a>
</g>
</g>
<!-- Node14 -->
<g id="Node000014" class="node">
<title>Node14</title>
<g id="a_Node000014"><a xlink:title=" ">
<polygon fill="#e0e0e0" stroke="#999999" points="681,-76 623,-76 623,-56 681,-56 681,-76"/>
<text xml:space="preserve" text-anchor="middle" x="652" y="-62.5" font-family="Helvetica,sans-Serif" font-size="10.00">exception</text>
</a>
</g>
</g>
<!-- Node13&#45;&gt;Node14 -->
<g id="edge16_Node000013_Node000014" class="edge">
<title>Node13&#45;&gt;Node14</title>
<g id="a_edge16_Node000013_Node000014"><a xlink:title=" ">
<path fill="none" stroke="#63b8ff" d="M662.74,-111.59C661.13,-104.93 658.92,-95.75 656.92,-87.44"/>
<polygon fill="#63b8ff" stroke="#63b8ff" points="660.34,-86.67 654.59,-77.77 653.53,-88.31 660.34,-86.67"/>
</a>
</g>
</g>
<!-- Node15&#45;&gt;Node2 -->
<g id="edge18_Node000015_Node000002" class="edge">
<title>Node15&#45;&gt;Node2</title>
<g id="a_edge18_Node000015_Node000002"><a xlink:title=" ">
<path fill="none" stroke="#63b8ff" d="M194.26,-111.52C209.26,-96.82 240.51,-68.88 273,-56 333.15,-32.16 522.4,-18.47 608.09,-13.34"/>
<polygon fill="#63b8ff" stroke="#63b8ff" points="608.18,-16.84 617.96,-12.76 607.77,-9.85 608.18,-16.84"/>
</a>
</g>
</g>
<!-- Node15&#45;&gt;Node3 -->
<g id="edge19_Node000015_Node000003" class="edge">
<title>Node15&#45;&gt;Node3</title>
<g id="a_edge19_Node000015_Node000003"><a xlink:title=" ">
<path fill="none" stroke="#63b8ff" d="M156.78,-111.59C129.05,-102.35 86.7,-88.23 57.1,-78.37"/>
<polygon fill="#63b8ff" stroke="#63b8ff" points="58.46,-75.13 47.87,-75.29 56.25,-81.77 58.46,-75.13"/>
</a>
</g>
</g>
<!-- Node15&#45;&gt;Node6 -->
<g id="edge20_Node000015_Node000006" class="edge">
<title>Node15&#45;&gt;Node6</title>
<g id="a_edge20_Node000015_Node000006"><a xlink:title=" ">
<path fill="none" stroke="#63b8ff" d="M167.93,-111.59C153.12,-103.44 131.43,-91.48 114.23,-82"/>
<polygon fill="#63b8ff" stroke="#63b8ff" points="115.98,-78.97 105.53,-77.21 112.6,-85.1 115.98,-78.97"/>
</a>
</g>
</g>
<!-- Node15&#45;&gt;Node7 -->
<g id="edge21_Node000015_Node000007" class="edge">
<title>Node15&#45;&gt;Node7</title>
<g id="a_edge21_Node000015_Node000007"><a xlink:title=" ">
<path fill="none" stroke="#63b8ff" d="M179.08,-111.59C174.64,-104.55 168.42,-94.67 162.96,-86"/>
<polygon fill="#63b8ff" stroke="#63b8ff" points="165.95,-84.18 157.66,-77.58 160.03,-87.91 165.95,-84.18"/>
</a>
</g>
</g>
<!-- Node15&#45;&gt;Node9 -->
<g id="edge22_Node000015_Node000009" class="edge">
<title>Node15&#45;&gt;Node9</title>
<g id="a_edge22_Node000015_Node000009"><a xlink:title=" ">
<path fill="none" stroke="#63b8ff" d="M205.73,-111.59C224.21,-103.21 251.54,-90.8 272.69,-81.21"/>
<polygon fill="#63b8ff" stroke="#63b8ff" points="274.07,-84.42 281.73,-77.1 271.18,-78.05 274.07,-84.42"/>
</a>
</g>
</g>
<!-- Node15&#45;&gt;Node10 -->
<g id="edge24_Node000015_Node000010" class="edge">
<title>Node15&#45;&gt;Node10</title>
<g id="a_edge24_Node000015_Node000010"><a xlink:title=" ">
<path fill="none" stroke="#63b8ff" d="M215.54,-113.03C251.96,-103.53 312.89,-87.64 352.76,-77.24"/>
<polygon fill="#63b8ff" stroke="#63b8ff" points="353.4,-80.69 362.2,-74.77 351.64,-73.91 353.4,-80.69"/>
</a>
</g>
</g>
<!-- Node16 -->
<g id="Node000016" class="node">
<title>Node16</title>
<g id="a_Node000016"><a xlink:title=" ">
<polygon fill="#e0e0e0" stroke="#999999" points="226.38,-76 191.62,-76 191.62,-56 226.38,-56 226.38,-76"/>
<text xml:space="preserve" text-anchor="middle" x="209" y="-62.5" font-family="Helvetica,sans-Serif" font-size="10.00">map</text>
</a>
</g>
</g>
<!-- Node15&#45;&gt;Node16 -->
<g id="edge23_Node000015_Node000016" class="edge">
<title>Node15&#45;&gt;Node16</title>
<g id="a_edge23_Node000015_Node000016"><a xlink:title=" ">
<path fill="none" stroke="#63b8ff" d="M189.18,-111.59C192.24,-104.7 196.51,-95.1 200.3,-86.57"/>
<polygon fill="#63b8ff" stroke="#63b8ff" points="203.39,-88.24 204.25,-77.68 196.99,-85.4 203.39,-88.24"/>
</a>
</g>
</g>
<!-- Node17&#45;&gt;Node2 -->
<g id="edge26_Node000017_Node000002" class="edge">
<title>Node17&#45;&gt;Node2</title>
<g id="a_edge26_Node000017_Node000002"><a xlink:title=" ">
<path fill="none" stroke="#63b8ff" d="M576.83,-111.54C584.83,-98.69 599.85,-75.15 614,-56 620.74,-46.88 628.67,-37.11 635.46,-29.02"/>
<polygon fill="#63b8ff" stroke="#63b8ff" points="637.98,-31.47 641.79,-21.58 632.64,-26.93 637.98,-31.47"/>
</a>
</g>
</g>
<!-- Node18&#45;&gt;Node2 -->
<g id="edge28_Node000018_Node000002" class="edge">
<title>Node18&#45;&gt;Node2</title>
<g id="a_edge28_Node000018_Node000002"><a xlink:title=" ">
<path fill="none" stroke="#63b8ff" d="M719.54,-55.59C707.24,-47.59 689.32,-35.93 674.89,-26.54"/>
<polygon fill="#63b8ff" stroke="#63b8ff" points="677.13,-23.82 666.84,-21.3 673.31,-29.69 677.13,-23.82"/>
</a>
</g>
</g>
<!-- Node19&#45;&gt;Node18 -->
<g id="edge30_Node000019_Node000018" class="edge">
<title>Node19&#45;&gt;Node18</title>
<g id="a_edge30_Node000019_Node000018"><a xlink:title=" ">
<path fill="none" stroke="#63b8ff" d="M765.38,-111.59C760.31,-104.39 753.16,-94.23 746.97,-85.43"/>
<polygon fill="#63b8ff" stroke="#63b8ff" points="750.03,-83.7 741.41,-77.54 744.31,-87.73 750.03,-83.7"/>
</a>
</g>
</g>
</g>
</svg>

<g id="navigator" transform="translate(0 0)" fill="#404254">
  <rect fill="#f2f5e9" fill-opacity="0.5" stroke="#606060" stroke-width=".5" x="0" y="0" width="60" height="60"/>
  <use id="zoomplus" xlink:href="#zoomPlus" x="17" y="9" onmousedown="handleZoom(evt,'in')"/>
  <use id="zoomminus" xlink:href="#zoomMin" x="42" y="9" onmousedown="handleZoom(evt,'out')"/>
  <use id="reset" xlink:href="#resetDef" x="30" y="36" onmousedown="handleReset()"/>
   <use id="arrowup" xlink:href="#arrowUp" x="0" y="0" onmousedown="handlePan(0,-1)"/>
  <use id="arrowright" xlink:href="#arrowRight" x="0" y="0" onmousedown="handlePan(1,0)"/>
  <use id="arrowdown" xlink:href="#arrowDown" x="0" y="0" onmousedown="handlePan(0,1)"/>
  <use id="arrowleft" xlink:href="#arrowLeft" x="0" y="0" onmousedown="handlePan(-1,0)"/>
</g>
<svg viewBox="0 0 15 15" width="100%" height="30px" preserveAspectRatio="xMaxYMin meet">
 <g id="arrow_out" transform="scale(0.3 0.3)">
  <a xlink:href="main_8cpp__incl_org.svg" target="_base">
   <rect id="button" ry="5" rx="5" y="6" x="6" height="38" width="38"
        fill="#f2f5e9" fill-opacity="0.5" stroke="#606060" stroke-width="1.0"/>
   <path id="arrow"
     d="M 11.500037,31.436501 C 11.940474,20.09759 22.043105,11.32322 32.158766,21.979434 L 37.068811,17.246167 C 37.068811,17.246167 37.088388,32 37.088388,32 L 22.160133,31.978069 C 22.160133,31.978069 26.997745,27.140456 26.997745,27.140456 C 18.528582,18.264221 13.291696,25.230495 11.500037,31.436501 z"
     style="fill:#404040;"/>
  </a>
 </g>
</svg>

<style type='text/css'>
<![CDATA[
[data-mouse-over-selected='false'] { opacity: 0.7; }
[data-mouse-over-selected='true']  { opacity: 1.0; }
]]>
</style>
<script type="application/ecmascript"><![CDATA[
document.addEventListener('DOMContentLoaded', (event) => {
  highlightEdges();
  highlightAdjacentNodes();
});
]]></script>
</svg>
