<?xml version="1.0" encoding="UTF-8" standalone="no"?>
<!DOCTYPE svg PUBLIC "-//W3C//DTD SVG 1.1//EN"
 "http://www.w3.org/Graphics/SVG/1.1/DTD/svg11.dtd">
<!-- Generated by graphviz version 13.1.2 (20250808.2320)
 -->
<!-- Title: WinMain Pages: 1 -->
<!--zoomable 351 -->

<svg id="main" version="1.1" xmlns="http://www.w3.org/2000/svg" xmlns:xlink="http://www.w3.org/1999/xlink" xml:space="preserve" onload="init(evt)">

<style type="text/css"><![CDATA[
.node, .edge {opacity: 0.7;}
.node.selected, .edge.selected {opacity: 1;}
.edge:hover path { stroke: red; }
.edge:hover polygon { stroke: red; fill: red; }
]]></style>

<defs>
  <circle id="rim" cx="0" cy="0" r="7"/>
  <circle id="rim2" cx="0" cy="0" r="3.5"/>
  <g id="zoomPlus">
    <use xlink:href="#rim" fill="#404040"><set attributeName="fill" to="#808080" begin="zoomplus.mouseover" end="zoomplus.mouseout"/></use>
    <path d="M-4,0h8M0,-4v8" fill="none" stroke="white" stroke-width="1.5" pointer-events="none"/>
  </g>
  <g id="zoomMin">
    <use xlink:href="#rim" fill="#404040"><set attributeName="fill" to="#808080" begin="zoomminus.mouseover" end="zoomminus.mouseout"/></use>
    <path d="M-4,0h8" fill="none" stroke="white" stroke-width="1.5" pointer-events="none"/>
  </g>
  <g id="arrowUp" transform="translate(30 24)">
    <use xlink:href="#rim"/>
    <path pointer-events="none" fill="none" stroke="white" stroke-width="1.5" d="M0,-3.0v7 M-2.5,-0.5L0,-3.0L2.5,-0.5"/>
  </g>
  <g id="arrowRight" transform="rotate(90) translate(36 -43)">
    <use xlink:href="#rim"/>
    <path pointer-events="none" fill="none" stroke="white" stroke-width="1.5" d="M0,-3.0v7 M-2.5,-0.5L0,-3.0L2.5,-0.5"/>
  </g>
  <g id="arrowDown" transform="rotate(180) translate(-30 -48)">
    <use xlink:href="#rim"/>
    <path pointer-events="none" fill="none" stroke="white" stroke-width="1.5" d="M0,-3.0v7 M-2.5,-0.5L0,-3.0L2.5,-0.5"/>
  </g>
  <g id="arrowLeft" transform="rotate(270) translate(-36 17)">
    <use xlink:href="#rim"/>
    <path pointer-events="none" fill="none" stroke="white" stroke-width="1.5" d="M0,-3.0v7 M-2.5,-0.5L0,-3.0L2.5,-0.5"/>
  </g>
  <g id="resetDef">
    <use xlink:href="#rim2" fill="#404040"><set attributeName="fill" to="#808080" begin="reset.mouseover" end="reset.mouseout"/></use>
  </g>
</defs>
<script type="application/ecmascript">
var viewWidth = 579;
var viewHeight = 351;
var sectionId = 'dynsection-0';
</script>
<script type="application/ecmascript" xlink:href="svg.min.js"/>
<svg id="graph" class="graph">
<g id="viewport">
<title>WinMain</title>
<!-- Node1 -->
<g id="Node000001" class="node">
<title>Node1</title>
<g id="a_Node000001"><a xlink:title="애플리케이션 메인 함수.">
<polygon fill="#999999" stroke="#666666" points="54.25,-191 0,-191 0,-171 54.25,-171 54.25,-191"/>
<text xml:space="preserve" text-anchor="middle" x="27.12" y="-177.5" font-family="Helvetica,sans-Serif" font-size="10.00">WinMain</text>
</a>
</g>
</g>
<!-- Node2 -->
<g id="Node000002" class="node">
<title>Node2</title>
<g id="a_Node000002"><a xlink:href="_render_8cpp_a57d51554e2556fddd2c6d059b69dc5cb.html#a57d51554e2556fddd2c6d059b69dc5cb" target="_top" xlink:title=" ">
<polygon fill="white" stroke="#666666" points="166.25,-333 95.5,-333 95.5,-313 166.25,-313 166.25,-333"/>
<text xml:space="preserve" text-anchor="middle" x="130.88" y="-319.5" font-family="Helvetica,sans-Serif" font-size="10.00">DataLoading</text>
</a>
</g>
</g>
<!-- Node1&#45;&gt;Node2 -->
<g id="edge1_Node000001_Node000002" class="edge">
<title>Node1&#45;&gt;Node2</title>
<g id="a_edge1_Node000001_Node000002"><a xlink:title=" ">
<path fill="none" stroke="#63b8ff" d="M31.92,-191.41C40.07,-212.71 60.88,-262 90.25,-295 93.75,-298.93 97.89,-302.61 102.17,-305.92"/>
<polygon fill="#63b8ff" stroke="#63b8ff" points="100.11,-308.75 110.29,-311.68 104.16,-303.04 100.11,-308.75"/>
</a>
</g>
</g>
<!-- Node4 -->
<g id="Node000004" class="node">
<title>Node4</title>
<g id="a_Node000004"><a xlink:href="_render_8cpp_a1fd03c204025be83f24bbe60ce3b6055.html#a1fd03c204025be83f24bbe60ce3b6055" target="_top" xlink:title=" ">
<polygon fill="white" stroke="#666666" points="167.38,-286 94.38,-286 94.38,-266 167.38,-266 167.38,-286"/>
<text xml:space="preserve" text-anchor="middle" x="130.88" y="-272.5" font-family="Helvetica,sans-Serif" font-size="10.00">DataRelease</text>
</a>
</g>
</g>
<!-- Node1&#45;&gt;Node4 -->
<g id="edge3_Node000001_Node000004" class="edge">
<title>Node1&#45;&gt;Node4</title>
<g id="a_edge3_Node000001_Node000004"><a xlink:title=" ">
<path fill="none" stroke="#63b8ff" d="M39.01,-191.17C56.06,-207.08 89.29,-238.1 110.49,-257.9"/>
<polygon fill="#63b8ff" stroke="#63b8ff" points="107.95,-260.32 117.65,-264.59 112.73,-255.2 107.95,-260.32"/>
</a>
</g>
</g>
<!-- Node6 -->
<g id="Node000006" class="node">
<title>Node6</title>
<g id="a_Node000006"><a xlink:href="main_8cpp_ac2106f07f578d8091d9948c889e60d44.html#ac2106f07f578d8091d9948c889e60d44" target="_top" xlink:title=" ">
<polygon fill="white" stroke="#666666" points="163.25,-229 98.5,-229 98.5,-209 163.25,-209 163.25,-229"/>
<text xml:space="preserve" text-anchor="middle" x="130.88" y="-215.5" font-family="Helvetica,sans-Serif" font-size="10.00">InitWindow</text>
</a>
</g>
</g>
<!-- Node1&#45;&gt;Node6 -->
<g id="edge5_Node000001_Node000006" class="edge">
<title>Node1&#45;&gt;Node6</title>
<g id="a_edge5_Node000001_Node000006"><a xlink:title=" ">
<path fill="none" stroke="#63b8ff" d="M54.59,-190.88C65.89,-195.1 79.29,-200.11 91.63,-204.72"/>
<polygon fill="#63b8ff" stroke="#63b8ff" points="90.11,-207.88 100.7,-208.1 92.56,-201.33 90.11,-207.88"/>
</a>
</g>
</g>
<!-- Node10 -->
<g id="Node000010" class="node">
<title>Node10</title>
<g id="a_Node000010"><a xlink:href="main_8cpp_ab9fdb11deae0525b065d73d356b9ad1c.html#ab9fdb11deae0525b065d73d356b9ad1c" target="_top" xlink:title=" ">
<polygon fill="white" stroke="#666666" points="171.5,-191 90.25,-191 90.25,-171 171.5,-171 171.5,-191"/>
<text xml:space="preserve" text-anchor="middle" x="130.88" y="-177.5" font-family="Helvetica,sans-Serif" font-size="10.00">MessagePump</text>
</a>
</g>
</g>
<!-- Node1&#45;&gt;Node10 -->
<g id="edge9_Node000001_Node000010" class="edge">
<title>Node1&#45;&gt;Node10</title>
<g id="a_edge9_Node000001_Node000010"><a xlink:title=" ">
<path fill="none" stroke="#63b8ff" d="M54.59,-181C62.04,-181 70.41,-181 78.78,-181"/>
<polygon fill="#63b8ff" stroke="#63b8ff" points="78.6,-184.5 88.6,-181 78.6,-177.5 78.6,-184.5"/>
</a>
</g>
</g>
<!-- Node11 -->
<g id="Node000011" class="node">
<title>Node11</title>
<g id="a_Node000011"><a xlink:href="_render_8cpp_a6d72e579f5eb095a38091a15d586f1a9.html#a6d72e579f5eb095a38091a15d586f1a9" target="_top" xlink:title="장면 그리기">
<polygon fill="white" stroke="#666666" points="168.5,-153 93.25,-153 93.25,-133 168.5,-133 168.5,-153"/>
<text xml:space="preserve" text-anchor="middle" x="130.88" y="-139.5" font-family="Helvetica,sans-Serif" font-size="10.00">SceneRender</text>
</a>
</g>
</g>
<!-- Node1&#45;&gt;Node11 -->
<g id="edge10_Node000001_Node000011" class="edge">
<title>Node1&#45;&gt;Node11</title>
<g id="a_edge10_Node000001_Node000011"><a xlink:title=" ">
<path fill="none" stroke="#63b8ff" d="M54.59,-171.12C65.89,-166.9 79.29,-161.89 91.63,-157.28"/>
<polygon fill="#63b8ff" stroke="#63b8ff" points="92.56,-160.67 100.7,-153.9 90.11,-154.12 92.56,-160.67"/>
</a>
</g>
</g>
<!-- Node17 -->
<g id="Node000017" class="node">
<title>Node17</title>
<g id="a_Node000017"><a xlink:href="_device_8cpp_afc209451cd1079d8919b834c908f19ef.html#afc209451cd1079d8919b834c908f19ef" target="_top" xlink:title="예나 SWR 엔진 제거 : 종료시 1회 호출">
<polygon fill="white" stroke="#666666" points="167.75,-115 94,-115 94,-95 167.75,-95 167.75,-115"/>
<text xml:space="preserve" text-anchor="middle" x="130.88" y="-101.5" font-family="Helvetica,sans-Serif" font-size="10.00">YenaRelease</text>
</a>
</g>
</g>
<!-- Node1&#45;&gt;Node17 -->
<g id="edge18_Node000001_Node000017" class="edge">
<title>Node1&#45;&gt;Node17</title>
<g id="a_edge18_Node000001_Node000017"><a xlink:title=" ">
<path fill="none" stroke="#63b8ff" d="M37.47,-170.74C49.01,-158.5 69.64,-137.94 90.25,-124 91.86,-122.91 93.54,-121.85 95.26,-120.83"/>
<polygon fill="#63b8ff" stroke="#63b8ff" points="96.9,-123.92 104.03,-116.08 93.57,-117.76 96.9,-123.92"/>
</a>
</g>
</g>
<!-- Node18 -->
<g id="Node000018" class="node">
<title>Node18</title>
<g id="a_Node000018"><a xlink:href="_device_8cpp_acca400f5f8053c4279231fc354f439f2.html#acca400f5f8053c4279231fc354f439f2" target="_top" xlink:title=" ">
<polygon fill="white" stroke="#666666" points="162.5,-58 99.25,-58 99.25,-38 162.5,-38 162.5,-58"/>
<text xml:space="preserve" text-anchor="middle" x="130.88" y="-44.5" font-family="Helvetica,sans-Serif" font-size="10.00">YenaSetup</text>
</a>
</g>
</g>
<!-- Node1&#45;&gt;Node18 -->
<g id="edge19_Node000001_Node000018" class="edge">
<title>Node1&#45;&gt;Node18</title>
<g id="a_edge19_Node000001_Node000018"><a xlink:title=" ">
<path fill="none" stroke="#63b8ff" d="M33.78,-170.77C43.94,-152.78 66.46,-114.66 90.25,-86 96.03,-79.04 102.96,-72.02 109.41,-65.94"/>
<polygon fill="#63b8ff" stroke="#63b8ff" points="111.6,-68.68 116.62,-59.35 106.88,-63.51 111.6,-68.68"/>
</a>
</g>
</g>
<!-- Node3 -->
<g id="Node000003" class="node">
<title>Node3</title>
<g id="a_Node000003"><a xlink:href="_render_8cpp_a52c38ded8a84ee0b98b47359e5966b4d.html#a52c38ded8a84ee0b98b47359e5966b4d" target="_top" xlink:title=" ">
<polygon fill="white" stroke="#666666" points="274.5,-343 222.5,-343 222.5,-323 274.5,-323 274.5,-343"/>
<text xml:space="preserve" text-anchor="middle" x="248.5" y="-329.5" font-family="Helvetica,sans-Serif" font-size="10.00">ObjLoad</text>
</a>
</g>
</g>
<!-- Node2&#45;&gt;Node3 -->
<g id="edge2_Node000002_Node000003" class="edge">
<title>Node2&#45;&gt;Node3</title>
<g id="a_edge2_Node000002_Node000003"><a xlink:title=" ">
<path fill="none" stroke="#63b8ff" d="M166.57,-326C180.49,-327.2 196.56,-328.59 210.7,-329.82"/>
<polygon fill="#63b8ff" stroke="#63b8ff" points="210.25,-333.29 220.51,-330.67 210.85,-326.32 210.25,-333.29"/>
</a>
</g>
</g>
<!-- Node5 -->
<g id="Node000005" class="node">
<title>Node5</title>
<g id="a_Node000005"><a xlink:href="_render_8cpp_ad2a85bf3afb47a1077c80371f7cc7f86.html#ad2a85bf3afb47a1077c80371f7cc7f86" target="_top" xlink:title="오브젝트 : 제거">
<polygon fill="white" stroke="#666666" points="282,-305 215,-305 215,-285 282,-285 282,-305"/>
<text xml:space="preserve" text-anchor="middle" x="248.5" y="-291.5" font-family="Helvetica,sans-Serif" font-size="10.00">ObjRelease</text>
</a>
</g>
</g>
<!-- Node4&#45;&gt;Node5 -->
<g id="edge4_Node000004_Node000005" class="edge">
<title>Node4&#45;&gt;Node5</title>
<g id="a_edge4_Node000004_Node000005"><a xlink:title=" ">
<path fill="none" stroke="#63b8ff" d="M167.83,-281.91C179.18,-283.77 191.85,-285.86 203.69,-287.8"/>
<polygon fill="#63b8ff" stroke="#63b8ff" points="202.79,-291.2 213.22,-289.37 203.92,-284.29 202.79,-291.2"/>
</a>
</g>
</g>
<!-- Node7 -->
<g id="Node000007" class="node">
<title>Node7</title>
<g id="a_Node000007"><a xlink:href="main_8cpp_a8a4c0ca15f926a2f75bc9c8e9201ca91.html#a8a4c0ca15f926a2f75bc9c8e9201ca91" target="_top" xlink:title=" ">
<polygon fill="white" stroke="#666666" points="276,-267 221,-267 221,-247 276,-247 276,-267"/>
<text xml:space="preserve" text-anchor="middle" x="248.5" y="-253.5" font-family="Helvetica,sans-Serif" font-size="10.00">MsgProc</text>
</a>
</g>
</g>
<!-- Node6&#45;&gt;Node7 -->
<g id="edge6_Node000006_Node000007" class="edge">
<title>Node6&#45;&gt;Node7</title>
<g id="a_edge6_Node000006_Node000007"><a xlink:title=" ">
<path fill="none" stroke="#63b8ff" d="M163.47,-229.38C177.89,-234.12 195.07,-239.77 210.13,-244.72"/>
<polygon fill="#63b8ff" stroke="#63b8ff" points="208.62,-247.9 219.21,-247.7 210.8,-241.25 208.62,-247.9"/>
</a>
</g>
</g>
<!-- Node8 -->
<g id="Node000008" class="node">
<title>Node8</title>
<g id="a_Node000008"><a xlink:href="main_8cpp_a5b47edfe2b8081af0e701fc23ea47543.html#a5b47edfe2b8081af0e701fc23ea47543" target="_top" xlink:title=" ">
<polygon fill="white" stroke="#666666" points="289.5,-229 207.5,-229 207.5,-209 289.5,-209 289.5,-229"/>
<text xml:space="preserve" text-anchor="middle" x="248.5" y="-215.5" font-family="Helvetica,sans-Serif" font-size="10.00">ResizeWindow</text>
</a>
</g>
</g>
<!-- Node6&#45;&gt;Node8 -->
<g id="edge7_Node000006_Node000008" class="edge">
<title>Node6&#45;&gt;Node8</title>
<g id="a_edge7_Node000006_Node000008"><a xlink:title=" ">
<path fill="none" stroke="#63b8ff" d="M163.47,-219C173.49,-219 184.85,-219 195.91,-219"/>
<polygon fill="#63b8ff" stroke="#63b8ff" points="195.73,-222.5 205.73,-219 195.73,-215.5 195.73,-222.5"/>
</a>
</g>
</g>
<!-- Node9 -->
<g id="Node000009" class="node">
<title>Node9</title>
<g id="a_Node000009"><a xlink:href="main_8cpp_a8380605dd55834edf34db4fea057f078.html#a8380605dd55834edf34db4fea057f078" target="_top" xlink:title=" ">
<polygon fill="white" stroke="#666666" points="425.5,-229 345.75,-229 345.75,-209 425.5,-209 425.5,-229"/>
<text xml:space="preserve" text-anchor="middle" x="385.62" y="-215.5" font-family="Helvetica,sans-Serif" font-size="10.00">MoveToCenter</text>
</a>
</g>
</g>
<!-- Node8&#45;&gt;Node9 -->
<g id="edge8_Node000008_Node000009" class="edge">
<title>Node8&#45;&gt;Node9</title>
<g id="a_edge8_Node000008_Node000009"><a xlink:title=" ">
<path fill="none" stroke="#63b8ff" d="M289.68,-219C303.55,-219 319.28,-219 333.88,-219"/>
<polygon fill="#63b8ff" stroke="#63b8ff" points="333.79,-222.5 343.79,-219 333.79,-215.5 333.79,-222.5"/>
</a>
</g>
</g>
<!-- Node12 -->
<g id="Node000012" class="node">
<title>Node12</title>
<g id="a_Node000012"><a xlink:href="_render_8cpp_adfe3d7c4f90c898edb95bb1c90d45388.html#adfe3d7c4f90c898edb95bb1c90d45388" target="_top" xlink:title="오브젝트 그리기">
<polygon fill="white" stroke="#666666" points="275.62,-191 221.38,-191 221.38,-171 275.62,-171 275.62,-191"/>
<text xml:space="preserve" text-anchor="middle" x="248.5" y="-177.5" font-family="Helvetica,sans-Serif" font-size="10.00">ObjDraw</text>
</a>
</g>
</g>
<!-- Node11&#45;&gt;Node12 -->
<g id="edge11_Node000011_Node000012" class="edge">
<title>Node11&#45;&gt;Node12</title>
<g id="a_edge11_Node000011_Node000012"><a xlink:title=" ">
<path fill="none" stroke="#63b8ff" d="M163.78,-153.48C178.3,-158.26 195.57,-163.93 210.65,-168.89"/>
<polygon fill="#63b8ff" stroke="#63b8ff" points="209.13,-172.08 219.73,-171.87 211.32,-165.43 209.13,-172.08"/>
</a>
</g>
</g>
<!-- Node13 -->
<g id="Node000013" class="node">
<title>Node13</title>
<g id="a_Node000013"><a xlink:href="_device_8cpp_a8b5e6c31a2a6e19c38a0df9083df6f15.html#a8b5e6c31a2a6e19c38a0df9083df6f15" target="_top" xlink:title=" ">
<polygon fill="white" stroke="#666666" points="273.75,-153 223.25,-153 223.25,-133 273.75,-133 273.75,-153"/>
<text xml:space="preserve" text-anchor="middle" x="248.5" y="-139.5" font-family="Helvetica,sans-Serif" font-size="10.00">PutFPS</text>
</a>
</g>
</g>
<!-- Node11&#45;&gt;Node13 -->
<g id="edge12_Node000011_Node000013" class="edge">
<title>Node11&#45;&gt;Node13</title>
<g id="a_edge12_Node000011_Node000013"><a xlink:title=" ">
<path fill="none" stroke="#63b8ff" d="M168.78,-143C182.48,-143 197.99,-143 211.6,-143"/>
<polygon fill="#63b8ff" stroke="#63b8ff" points="211.46,-146.5 221.46,-143 211.46,-139.5 211.46,-146.5"/>
</a>
</g>
</g>
<!-- Node15 -->
<g id="Node000015" class="node">
<title>Node15</title>
<g id="a_Node000015"><a xlink:href="_render_8cpp_af4dd0814523522c2ef17aa2ec8079afc.html#af4dd0814523522c2ef17aa2ec8079afc" target="_top" xlink:title="도움말 출력">
<polygon fill="white" stroke="#666666" points="277.12,-115 219.88,-115 219.88,-95 277.12,-95 277.12,-115"/>
<text xml:space="preserve" text-anchor="middle" x="248.5" y="-101.5" font-family="Helvetica,sans-Serif" font-size="10.00">ShowInfo</text>
</a>
</g>
</g>
<!-- Node11&#45;&gt;Node15 -->
<g id="edge15_Node000011_Node000015" class="edge">
<title>Node11&#45;&gt;Node15</title>
<g id="a_edge15_Node000011_Node000015"><a xlink:title=" ">
<path fill="none" stroke="#63b8ff" d="M163.78,-132.52C177.73,-127.93 194.23,-122.51 208.87,-117.7"/>
<polygon fill="#63b8ff" stroke="#63b8ff" points="209.79,-121.08 218.2,-114.63 207.61,-114.43 209.79,-121.08"/>
</a>
</g>
</g>
<!-- Node16 -->
<g id="Node000016" class="node">
<title>Node16</title>
<g id="a_Node000016"><a xlink:href="_render_8cpp_ac207065b1fb62c07f89a12f7b4192a20.html#ac207065b1fb62c07f89a12f7b4192a20" target="_top" xlink:title="엔진 및 시스템 상태 갱신.">
<polygon fill="white" stroke="#666666" points="289.12,-77 207.88,-77 207.88,-57 289.12,-57 289.12,-77"/>
<text xml:space="preserve" text-anchor="middle" x="248.5" y="-63.5" font-family="Helvetica,sans-Serif" font-size="10.00">SystemUpdate</text>
</a>
</g>
</g>
<!-- Node11&#45;&gt;Node16 -->
<g id="edge17_Node000011_Node000016" class="edge">
<title>Node11&#45;&gt;Node16</title>
<g id="a_edge17_Node000011_Node000016"><a xlink:title=" ">
<path fill="none" stroke="#63b8ff" d="M156.98,-132.68C161.98,-130.15 167.06,-127.24 171.5,-124 190.3,-110.3 188.67,-99.67 207.5,-86 209.04,-84.88 210.66,-83.8 212.32,-82.77"/>
<polygon fill="#63b8ff" stroke="#63b8ff" points="213.79,-85.95 220.83,-78.03 210.39,-79.83 213.79,-85.95"/>
</a>
</g>
</g>
<!-- Node14 -->
<g id="Node000014" class="node">
<title>Node14</title>
<g id="a_Node000014"><a xlink:href="_device_8cpp_a2034272a68b183b7651f0195b1d55182.html#a2034272a68b183b7651f0195b1d55182" target="_top" xlink:title=" ">
<polygon fill="white" stroke="#666666" points="414.62,-134 356.62,-134 356.62,-114 414.62,-114 414.62,-134"/>
<text xml:space="preserve" text-anchor="middle" x="385.62" y="-120.5" font-family="Helvetica,sans-Serif" font-size="10.00">DrawText</text>
</a>
</g>
</g>
<!-- Node13&#45;&gt;Node14 -->
<g id="edge13_Node000013_Node000014" class="edge">
<title>Node13&#45;&gt;Node14</title>
<g id="a_edge13_Node000013_Node000014"><a xlink:title=" ">
<path fill="none" stroke="#63b8ff" d="M273.97,-139.56C293.88,-136.76 322.36,-132.76 345.43,-129.51"/>
<polygon fill="#63b8ff" stroke="#63b8ff" points="345.69,-133.01 355.1,-128.15 344.71,-126.08 345.69,-133.01"/>
</a>
</g>
</g>
<!-- Node14&#45;&gt;Node14 -->
<g id="edge14_Node000014_Node000014" class="edge">
<title>Node14&#45;&gt;Node14</title>
<g id="a_edge14_Node000014_Node000014"><a xlink:title=" ">
<path fill="none" stroke="#63b8ff" d="M363.84,-134.34C354.53,-142.98 361.79,-152 385.62,-152 398.66,-152 406.74,-149.3 409.86,-145.44"/>
<polygon fill="#63b8ff" stroke="#63b8ff" points="413.31,-144.83 407.74,-135.82 406.47,-146.34 413.31,-144.83"/>
</a>
</g>
</g>
<!-- Node15&#45;&gt;Node14 -->
<g id="edge16_Node000015_Node000014" class="edge">
<title>Node15&#45;&gt;Node14</title>
<g id="a_edge16_Node000015_Node000014"><a xlink:title=" ">
<path fill="none" stroke="#63b8ff" d="M277.5,-108.94C297.02,-111.68 323.36,-115.39 345.03,-118.43"/>
<polygon fill="#63b8ff" stroke="#63b8ff" points="344.31,-121.87 354.7,-119.79 345.28,-114.93 344.31,-121.87"/>
</a>
</g>
</g>
<!-- Node19 -->
<g id="Node000019" class="node">
<title>Node19</title>
<g id="a_Node000019"><a xlink:href="group___yena-_interfaces_gaadd8f307a7460a88e7c4c254bcbe6719.html#gaadd8f307a7460a88e7c4c254bcbe6719" target="_top" xlink:title=" ">
<polygon fill="white" stroke="#666666" points="284.62,-39 212.38,-39 212.38,-19 284.62,-19 284.62,-39"/>
<text xml:space="preserve" text-anchor="middle" x="248.5" y="-25.5" font-family="Helvetica,sans-Serif" font-size="10.00">YenaCreate9</text>
</a>
</g>
</g>
<!-- Node18&#45;&gt;Node19 -->
<g id="edge20_Node000018_Node000019" class="edge">
<title>Node18&#45;&gt;Node19</title>
<g id="a_edge20_Node000018_Node000019"><a xlink:title=" ">
<path fill="none" stroke="#63b8ff" d="M162.86,-42.91C174.55,-40.99 188.13,-38.76 200.94,-36.65"/>
<polygon fill="#63b8ff" stroke="#63b8ff" points="201.13,-40.17 210.43,-35.09 200,-33.26 201.13,-40.17"/>
</a>
</g>
</g>
<!-- Node20 -->
<g id="Node000020" class="node">
<title>Node20</title>
<g id="a_Node000020"><a xlink:href="class_b3_yena_adf8a3574135e4d16506bc86ee677c7b7.html#adf8a3574135e4d16506bc86ee677c7b7" target="_top" xlink:title=" ">
<polygon fill="white" stroke="#666666" points="445.75,-39 325.5,-39 325.5,-19 445.75,-19 445.75,-39"/>
<text xml:space="preserve" text-anchor="middle" x="385.62" y="-25.5" font-family="Helvetica,sans-Serif" font-size="10.00">B3Yena::QueryInterface</text>
</a>
</g>
</g>
<!-- Node19&#45;&gt;Node20 -->
<g id="edge21_Node000019_Node000020" class="edge">
<title>Node19&#45;&gt;Node20</title>
<g id="a_edge21_Node000019_Node000020"><a xlink:title=" ">
<path fill="none" stroke="#63b8ff" d="M285,-29C293.92,-29 303.81,-29 313.8,-29"/>
<polygon fill="#63b8ff" stroke="#63b8ff" points="313.55,-32.5 323.55,-29 313.55,-25.5 313.55,-32.5"/>
</a>
</g>
</g>
<!-- Node21 -->
<g id="Node000021" class="node">
<title>Node21</title>
<g id="a_Node000021"><a xlink:href="class_b3_yena_af4a43b4057eea79e48143c6da0de48ce.html#af4a43b4057eea79e48143c6da0de48ce" target="_top" xlink:title=" ">
<polygon fill="white" stroke="#666666" points="570.5,-58 481.75,-58 481.75,-38 570.5,-38 570.5,-58"/>
<text xml:space="preserve" text-anchor="middle" x="526.12" y="-44.5" font-family="Helvetica,sans-Serif" font-size="10.00">B3Yena::AddRef</text>
</a>
</g>
</g>
<!-- Node20&#45;&gt;Node21 -->
<g id="edge22_Node000020_Node000021" class="edge">
<title>Node20&#45;&gt;Node21</title>
<g id="a_edge22_Node000020_Node000021"><a xlink:title=" ">
<path fill="none" stroke="#63b8ff" d="M446.17,-37.17C454.15,-38.26 462.3,-39.38 470.2,-40.46"/>
<polygon fill="#63b8ff" stroke="#63b8ff" points="469.65,-43.92 480.03,-41.81 470.6,-36.99 469.65,-43.92"/>
</a>
</g>
</g>
<!-- Node22 -->
<g id="Node000022" class="node">
<title>Node22</title>
<g id="a_Node000022"><a xlink:href="group___yena-_c_o_m_ga9e2aa2b3bba79319041923d1db833f2a.html#ga9e2aa2b3bba79319041923d1db833f2a" target="_top" xlink:title=" ">
<polygon fill="white" stroke="#666666" points="562.62,-20 489.62,-20 489.62,0 562.62,0 562.62,-20"/>
<text xml:space="preserve" text-anchor="middle" x="526.12" y="-6.5" font-family="Helvetica,sans-Serif" font-size="10.00">ynIsEqualIID</text>
</a>
</g>
</g>
<!-- Node20&#45;&gt;Node22 -->
<g id="edge23_Node000020_Node000022" class="edge">
<title>Node20&#45;&gt;Node22</title>
<g id="a_edge23_Node000020_Node000022"><a xlink:title=" ">
<path fill="none" stroke="#63b8ff" d="M446.17,-20.83C456.82,-19.37 467.79,-17.87 478.03,-16.46"/>
<polygon fill="#63b8ff" stroke="#63b8ff" points="478.3,-19.96 487.73,-15.13 477.35,-13.02 478.3,-19.96"/>
</a>
</g>
</g>
</g>
</svg>

<g id="navigator" transform="translate(0 0)" fill="#404254">
  <rect fill="#f2f5e9" fill-opacity="0.5" stroke="#606060" stroke-width=".5" x="0" y="0" width="60" height="60"/>
  <use id="zoomplus" xlink:href="#zoomPlus" x="17" y="9" onmousedown="handleZoom(evt,'in')"/>
  <use id="zoomminus" xlink:href="#zoomMin" x="42" y="9" onmousedown="handleZoom(evt,'out')"/>
  <use id="reset" xlink:href="#resetDef" x="30" y="36" onmousedown="handleReset()"/>
   <use id="arrowup" xlink:href="#arrowUp" x="0" y="0" onmousedown="handlePan(0,-1)"/>
  <use id="arrowright" xlink:href="#arrowRight" x="0" y="0" onmousedown="handlePan(1,0)"/>
  <use id="arrowdown" xlink:href="#arrowDown" x="0" y="0" onmousedown="handlePan(0,1)"/>
  <use id="arrowleft" xlink:href="#arrowLeft" x="0" y="0" onmousedown="handlePan(-1,0)"/>
</g>
<svg viewBox="0 0 15 15" width="100%" height="30px" preserveAspectRatio="xMaxYMin meet">
 <g id="arrow_out" transform="scale(0.3 0.3)">
  <a xlink:href="main_8cpp_a1122673f59be78a3997ec7dd1c4688f9_a1122673f59be78a3997ec7dd1c4688f9_cgraph_org.svg" target="_base">
   <rect id="button" ry="5" rx="5" y="6" x="6" height="38" width="38"
        fill="#f2f5e9" fill-opacity="0.5" stroke="#606060" stroke-width="1.0"/>
   <path id="arrow"
     d="M 11.500037,31.436501 C 11.940474,20.09759 22.043105,11.32322 32.158766,21.979434 L 37.068811,17.246167 C 37.068811,17.246167 37.088388,32 37.088388,32 L 22.160133,31.978069 C 22.160133,31.978069 26.997745,27.140456 26.997745,27.140456 C 18.528582,18.264221 13.291696,25.230495 11.500037,31.436501 z"
     style="fill:#404040;"/>
  </a>
 </g>
</svg>

<style type='text/css'>
<![CDATA[
[data-mouse-over-selected='false'] { opacity: 0.7; }
[data-mouse-over-selected='true']  { opacity: 1.0; }
]]>
</style>
<script type="application/ecmascript"><![CDATA[
document.addEventListener('DOMContentLoaded', (event) => {
  highlightEdges();
  highlightAdjacentNodes();
});
]]></script>
</svg>
