<?xml version="1.0" encoding="UTF-8" standalone="no"?>
<!DOCTYPE svg PUBLIC "-//W3C//DTD SVG 1.1//EN"
 "http://www.w3.org/Graphics/SVG/1.1/DTD/svg11.dtd">
<!-- Generated by graphviz version 12.2.0 (20241103.1931)
 -->
<!-- Title: YENA::ynErrorW Pages: 1 -->
<svg width="253pt" height="46pt"
 viewBox="0.00 0.00 253.00 46.00" xmlns="http://www.w3.org/2000/svg" xmlns:xlink="http://www.w3.org/1999/xlink">
<g id="graph0" class="graph" transform="scale(1 1) rotate(0) translate(4 42)">
<title>YENA::ynErrorW</title>
<!-- Node1 -->
<g id="Node000001" class="node">
<title>Node1</title>
<g id="a_Node000001"><a xlink:title=" ">
<polygon fill="#999999" stroke="#666666" points="91,-20 0,-20 0,0 91,0 91,-20"/>
<text text-anchor="middle" x="45.5" y="-6.5" font-family="Helvetica,sans-Serif" font-size="10.00">YENA::ynErrorW</text>
</a>
</g>
</g>
<!-- Node1&#45;&gt;Node1 -->
<g id="edge2_Node000001_Node000001" class="edge">
<title>Node1&#45;&gt;Node1</title>
<g id="a_edge2_Node000001_Node000001"><a xlink:title=" ">
<path fill="none" stroke="#63b8ff" d="M23.18,-20.34C13.64,-28.98 21.08,-38 45.5,-38 58.86,-38 67.13,-35.3 70.33,-31.44"/>
<polygon fill="#63b8ff" stroke="#63b8ff" points="73.78,-30.8 68.16,-21.81 66.95,-32.34 73.78,-30.8"/>
</a>
</g>
</g>
<!-- Node2 -->
<g id="Node000002" class="node">
<title>Node2</title>
<g id="a_Node000002"><a xlink:href="class_y_e_n_a_1_1yn_exception_a817e1e5e0cbd7f2cad2817507ea44290.html#a817e1e5e0cbd7f2cad2817507ea44290" target="_top" xlink:title=" ">
<polygon fill="white" stroke="#666666" points="245,-20 127,-20 127,0 245,0 245,-20"/>
<text text-anchor="middle" x="186" y="-6.5" font-family="Helvetica,sans-Serif" font-size="10.00">YENA::ynException::hr</text>
</a>
</g>
</g>
<!-- Node1&#45;&gt;Node2 -->
<g id="edge1_Node000001_Node000002" class="edge">
<title>Node1&#45;&gt;Node2</title>
<g id="a_edge1_Node000001_Node000002"><a xlink:title=" ">
<path fill="none" stroke="#63b8ff" d="M91.47,-10C99.09,-10 107.16,-10 115.25,-10"/>
<polygon fill="#63b8ff" stroke="#63b8ff" points="115.12,-13.5 125.12,-10 115.12,-6.5 115.12,-13.5"/>
</a>
</g>
</g>
</g>
</svg>
