<?xml version="1.0" encoding="UTF-8" standalone="no"?>
<!DOCTYPE svg PUBLIC "-//W3C//DTD SVG 1.1//EN"
 "http://www.w3.org/Graphics/SVG/1.1/DTD/svg11.dtd">
<!-- Generated by graphviz version 13.1.2 (20250808.2320)
 -->
<!-- Title: VS_OUTPUT Pages: 1 -->
<svg width="192pt" height="159pt"
 viewBox="0.00 0.00 192.00 159.00" xmlns="http://www.w3.org/2000/svg" xmlns:xlink="http://www.w3.org/1999/xlink">

<svg id="main" version="1.1" xmlns="http://www.w3.org/2000/svg" xmlns:xlink="http://www.w3.org/1999/xlink" xml:space="preserve">

<style type="text/css"><![CDATA[
.node, .edge {opacity: 0.7;}
.node.selected, .edge.selected {opacity: 1;}
.edge:hover path { stroke: red; }
.edge:hover polygon { stroke: red; fill: red; }
]]></style>
<script type="application/ecmascript" xlink:href="svg.min.js"/>
<svg id="graph" class="graph">
<g id="graph0" class="graph" transform="scale(1 1) rotate(0) translate(4 155)">
<title>VS_OUTPUT</title>
<!-- Node1 -->
<g id="Node000001" class="node">
<title>Node1</title>
<g id="a_Node000001"><a xlink:title="정점 파이프라인(VP, Vertex Pipeline) 출력 구조체.">
<polygon fill="#999999" stroke="#666666" points="132.38,-20 56.38,-20 56.38,0 132.38,0 132.38,-20"/>
<text xml:space="preserve" text-anchor="middle" x="94.38" y="-6.5" font-family="Helvetica,sans-Serif" font-size="10.00">VS_OUTPUT</text>
</a>
</g>
</g>
<!-- Node2 -->
<g id="Node000002" class="node">
<title>Node2</title>
<g id="a_Node000002"><a xlink:href="class_b3_y_x_v_e_c_t_o_r4.html" target="_top" xlink:title="벡터 클래스 (4성분)">
<polygon fill="white" stroke="#666666" points="88.75,-94 0,-94 0,-74 88.75,-74 88.75,-94"/>
<text xml:space="preserve" text-anchor="middle" x="44.38" y="-80.5" font-family="Helvetica,sans-Serif" font-size="10.00">B3YXVECTOR4</text>
</a>
</g>
</g>
<!-- Node2&#45;&gt;Node1 -->
<g id="edge1_Node000001_Node000002" class="edge">
<title>Node2&#45;&gt;Node1</title>
<g id="a_edge1_Node000001_Node000002"><a xlink:title=" ">
<path fill="none" stroke="#9a32cd" stroke-dasharray="5,2" d="M57.38,-64.27C67.22,-50.1 80.31,-31.25 87.99,-20.19"/>
<polygon fill="#9a32cd" stroke="#9a32cd" points="54.6,-62.13 51.77,-72.34 60.35,-66.13 54.6,-62.13"/>
</a>
</g>
<text xml:space="preserve" text-anchor="start" x="78.32" y="-43.5" font-family="Helvetica,sans-Serif" font-size="10.00" fill="grey">pos</text>
</g>
<!-- Node3 -->
<g id="Node000003" class="node">
<title>Node3</title>
<g id="a_Node000003"><a xlink:href="struct_b3_y_v_e_c_t_o_r4.html" target="_top" xlink:title=" ">
<polygon fill="white" stroke="#666666" points="85.38,-151 3.38,-151 3.38,-131 85.38,-131 85.38,-151"/>
<text xml:space="preserve" text-anchor="middle" x="44.38" y="-137.5" font-family="Helvetica,sans-Serif" font-size="10.00">B3YVECTOR4</text>
</a>
</g>
</g>
<!-- Node3&#45;&gt;Node2 -->
<g id="edge2_Node000002_Node000003" class="edge">
<title>Node3&#45;&gt;Node2</title>
<g id="a_edge2_Node000002_Node000003"><a xlink:title=" ">
<path fill="none" stroke="#63b8ff" d="M44.38,-119.69C44.38,-110.97 44.38,-101.22 44.38,-94.28"/>
<polygon fill="#63b8ff" stroke="#63b8ff" points="40.88,-119.4 44.38,-129.4 47.88,-119.4 40.88,-119.4"/>
</a>
</g>
</g>
<!-- Node4 -->
<g id="Node000004" class="node">
<title>Node4</title>
<g id="a_Node000004"><a xlink:href="class_b3_y_x_c_o_l_o_r.html" target="_top" xlink:title="컬러 클래스 : B3YCOLOR 확장 클래스">
<polygon fill="white" stroke="#666666" points="183.75,-94 107,-94 107,-74 183.75,-74 183.75,-94"/>
<text xml:space="preserve" text-anchor="middle" x="145.38" y="-80.5" font-family="Helvetica,sans-Serif" font-size="10.00">B3YXCOLOR</text>
</a>
</g>
</g>
<!-- Node4&#45;&gt;Node1 -->
<g id="edge3_Node000001_Node000004" class="edge">
<title>Node4&#45;&gt;Node1</title>
<g id="a_edge3_Node000001_Node000004"><a xlink:title=" ">
<path fill="none" stroke="#9a32cd" stroke-dasharray="5,2" d="M132.11,-64.27C122.07,-50.1 108.72,-31.25 100.88,-20.19"/>
<polygon fill="#9a32cd" stroke="#9a32cd" points="129.2,-66.21 137.83,-72.35 134.91,-62.17 129.2,-66.21"/>
</a>
</g>
<text xml:space="preserve" text-anchor="start" x="128.94" y="-43.5" font-family="Helvetica,sans-Serif" font-size="10.00" fill="grey">diff</text>
</g>
<!-- Node5 -->
<g id="Node000005" class="node">
<title>Node5</title>
<g id="a_Node000005"><a xlink:href="struct_b3_y_c_o_l_o_r.html" target="_top" xlink:title=" ">
<polygon fill="white" stroke="#666666" points="180.38,-151 110.38,-151 110.38,-131 180.38,-131 180.38,-151"/>
<text xml:space="preserve" text-anchor="middle" x="145.38" y="-137.5" font-family="Helvetica,sans-Serif" font-size="10.00">B3YCOLOR</text>
</a>
</g>
</g>
<!-- Node5&#45;&gt;Node4 -->
<g id="edge4_Node000004_Node000005" class="edge">
<title>Node5&#45;&gt;Node4</title>
<g id="a_edge4_Node000004_Node000005"><a xlink:title=" ">
<path fill="none" stroke="#63b8ff" d="M145.38,-119.69C145.38,-110.97 145.38,-101.22 145.38,-94.28"/>
<polygon fill="#63b8ff" stroke="#63b8ff" points="141.88,-119.4 145.38,-129.4 148.88,-119.4 141.88,-119.4"/>
</a>
</g>
</g>
</g>
</svg>
</svg>

<style type='text/css'>
<![CDATA[
[data-mouse-over-selected='false'] { opacity: 0.7; }
[data-mouse-over-selected='true']  { opacity: 1.0; }
]]>
</style>
<script type="application/ecmascript"><![CDATA[
document.addEventListener('DOMContentLoaded', (event) => {
  highlightEdges();
  highlightAdjacentNodes();
});
]]></script>
</svg>
