<?xml version="1.0" encoding="UTF-8" standalone="no"?>
<!DOCTYPE svg PUBLIC "-//W3C//DTD SVG 1.1//EN"
 "http://www.w3.org/Graphics/SVG/1.1/DTD/svg11.dtd">
<!-- Generated by graphviz version 13.1.2 (20250808.2320)
 -->
<!-- Title: B3YenaGraphicsEngine9::TRANSFORM Pages: 1 -->
<svg width="132pt" height="171pt"
 viewBox="0.00 0.00 132.00 171.00" xmlns="http://www.w3.org/2000/svg" xmlns:xlink="http://www.w3.org/1999/xlink">
<g id="graph0" class="graph" transform="scale(1 1) rotate(0) translate(4 167)">
<title>B3YenaGraphicsEngine9::TRANSFORM</title>
<!-- Node1 -->
<g id="Node000001" class="node">
<title>Node1</title>
<g id="a_Node000001"><a xlink:title=" ">
<polygon fill="#999999" stroke="#666666" points="124,-32 0,-32 0,0 124,0 124,-32"/>
<text xml:space="preserve" text-anchor="start" x="8" y="-18.5" font-family="Helvetica,sans-Serif" font-size="10.00">B3YenaGraphicsEngine9</text>
<text xml:space="preserve" text-anchor="middle" x="62" y="-6.5" font-family="Helvetica,sans-Serif" font-size="10.00">::TRANSFORM</text>
</a>
</g>
</g>
<!-- Node2 -->
<g id="Node000002" class="node">
<title>Node2</title>
<g id="a_Node000002"><a xlink:href="class_b3_y_x_m_a_t_r_i_x.html" target="_top" xlink:title="\u{2b50} 행렬 클래스">
<polygon fill="white" stroke="#666666" points="101.5,-106 22.5,-106 22.5,-86 101.5,-86 101.5,-106"/>
<text xml:space="preserve" text-anchor="middle" x="62" y="-92.5" font-family="Helvetica,sans-Serif" font-size="10.00">B3YXMATRIX</text>
</a>
</g>
</g>
<!-- Node2&#45;&gt;Node1 -->
<g id="edge1_Node000001_Node000002" class="edge">
<title>Node2&#45;&gt;Node1</title>
<g id="a_edge1_Node000001_Node000002"><a xlink:title=" ">
<path fill="none" stroke="#9a32cd" stroke-dasharray="5,2" d="M62,-74.51C62,-61.32 62,-44.47 62,-32.42"/>
<polygon fill="#9a32cd" stroke="#9a32cd" points="58.5,-74.23 62,-84.23 65.5,-74.23 58.5,-74.23"/>
</a>
</g>
<text xml:space="preserve" text-anchor="start" x="65" y="-55.5" font-family="Helvetica,sans-Serif" font-size="10.00" fill="grey">mTFM</text>
</g>
<!-- Node3 -->
<g id="Node000003" class="node">
<title>Node3</title>
<g id="a_Node000003"><a xlink:href="struct_b3_y_m_a_t_r_i_x.html" target="_top" xlink:title="\u{2b50} 행렬 구조체">
<polygon fill="white" stroke="#666666" points="98.12,-163 25.88,-163 25.88,-143 98.12,-143 98.12,-163"/>
<text xml:space="preserve" text-anchor="middle" x="62" y="-149.5" font-family="Helvetica,sans-Serif" font-size="10.00">B3YMATRIX</text>
</a>
</g>
</g>
<!-- Node3&#45;&gt;Node2 -->
<g id="edge2_Node000002_Node000003" class="edge">
<title>Node3&#45;&gt;Node2</title>
<g id="a_edge2_Node000002_Node000003"><a xlink:title=" ">
<path fill="none" stroke="#63b8ff" d="M62,-131.69C62,-122.97 62,-113.22 62,-106.28"/>
<polygon fill="#63b8ff" stroke="#63b8ff" points="58.5,-131.4 62,-141.4 65.5,-131.4 58.5,-131.4"/>
</a>
</g>
</g>
</g>
</svg>
