<?xml version="1.0" encoding="UTF-8" standalone="no"?>
<!DOCTYPE svg PUBLIC "-//W3C//DTD SVG 1.1//EN"
 "http://www.w3.org/Graphics/SVG/1.1/DTD/svg11.dtd">
<!-- Generated by graphviz version 13.1.2 (20250808.2320)
 -->
<!-- Title: Yena/ynB3Class.h Pages: 1 -->
<svg width="381pt" height="84pt"
 viewBox="0.00 0.00 381.00 84.00" xmlns="http://www.w3.org/2000/svg" xmlns:xlink="http://www.w3.org/1999/xlink">
<g id="graph0" class="graph" transform="scale(1 1) rotate(0) translate(4 80)">
<title>Yena/ynB3Class.h</title>
<!-- Node1 -->
<g id="Node000001" class="node">
<title>Node1</title>
<g id="a_Node000001"><a xlink:title="B3Yena 클래스 선행 선언 헤더.">
<polygon fill="#999999" stroke="#666666" points="208.12,-76 111.12,-76 111.12,-56 208.12,-56 208.12,-76"/>
<text xml:space="preserve" text-anchor="middle" x="159.62" y="-62.5" font-family="Helvetica,sans-Serif" font-size="10.00">Yena/ynB3Class.h</text>
</a>
</g>
</g>
<!-- Node2 -->
<g id="Node000002" class="node">
<title>Node2</title>
<g id="a_Node000002"><a xlink:href="_yena_8cpp.html" target="_top" xlink:title="\u{2b50} Yena SWR 기본 소스 파일 (v1.x)">
<polygon fill="white" stroke="#666666" points="81.25,-20 0,-20 0,0 81.25,0 81.25,-20"/>
<text xml:space="preserve" text-anchor="middle" x="40.62" y="-6.5" font-family="Helvetica,sans-Serif" font-size="10.00">Yena/Yena.cpp</text>
</a>
</g>
</g>
<!-- Node1&#45;&gt;Node2 -->
<g id="edge1_Node000001_Node000002" class="edge">
<title>Node1&#45;&gt;Node2</title>
<g id="a_edge1_Node000001_Node000002"><a xlink:title=" ">
<path fill="none" stroke="#63b8ff" d="M128.5,-50.88C107.39,-41.3 80.05,-28.89 61.51,-20.48"/>
<polygon fill="#63b8ff" stroke="#63b8ff" points="126.97,-54.02 137.52,-54.97 129.86,-47.65 126.97,-54.02"/>
</a>
</g>
</g>
<!-- Node3 -->
<g id="Node000003" class="node">
<title>Node3</title>
<g id="a_Node000003"><a xlink:href="yn_b3_graphics_8cpp.html" target="_top" xlink:title="Yena 그래픽스 엔진 소스 파일">
<polygon fill="white" stroke="#666666" points="220.12,-20 99.12,-20 99.12,0 220.12,0 220.12,-20"/>
<text xml:space="preserve" text-anchor="middle" x="159.62" y="-6.5" font-family="Helvetica,sans-Serif" font-size="10.00">Yena/ynB3Graphics.cpp</text>
</a>
</g>
</g>
<!-- Node1&#45;&gt;Node3 -->
<g id="edge2_Node000001_Node000003" class="edge">
<title>Node1&#45;&gt;Node3</title>
<g id="a_edge2_Node000001_Node000003"><a xlink:title=" ">
<path fill="none" stroke="#63b8ff" d="M159.62,-44.13C159.62,-35.9 159.62,-26.85 159.62,-20.3"/>
<polygon fill="#63b8ff" stroke="#63b8ff" points="156.13,-44.08 159.63,-54.08 163.13,-44.08 156.13,-44.08"/>
</a>
</g>
</g>
<!-- Node4 -->
<g id="Node000004" class="node">
<title>Node4</title>
<g id="a_Node000004"><a xlink:href="yn_b3_vertex_buffer_8cpp.html" target="_top" xlink:title="정점 버퍼 운용 클래스 소스">
<polygon fill="white" stroke="#666666" points="373.25,-20 238,-20 238,0 373.25,0 373.25,-20"/>
<text xml:space="preserve" text-anchor="middle" x="305.62" y="-6.5" font-family="Helvetica,sans-Serif" font-size="10.00">Yena/ynB3VertexBuffer.cpp</text>
</a>
</g>
</g>
<!-- Node1&#45;&gt;Node4 -->
<g id="edge3_Node000001_Node000004" class="edge">
<title>Node1&#45;&gt;Node4</title>
<g id="a_edge3_Node000001_Node000004"><a xlink:title=" ">
<path fill="none" stroke="#63b8ff" d="M195.69,-51.66C221.86,-41.98 256.63,-29.12 280,-20.48"/>
<polygon fill="#63b8ff" stroke="#63b8ff" points="194.64,-48.32 186.48,-55.07 197.07,-54.88 194.64,-48.32"/>
</a>
</g>
</g>
</g>
</svg>
