<?xml version="1.0" encoding="UTF-8" standalone="no"?>
<!DOCTYPE svg PUBLIC "-//W3C//DTD SVG 1.1//EN"
 "http://www.w3.org/Graphics/SVG/1.1/DTD/svg11.dtd">
<!-- Generated by graphviz version 13.1.2 (20250808.2320)
 -->
<!-- Title: Yena/ynError.cpp Pages: 1 -->
<svg width="780pt" height="308pt"
 viewBox="0.00 0.00 780.00 308.00" xmlns="http://www.w3.org/2000/svg" xmlns:xlink="http://www.w3.org/1999/xlink">
<g id="graph0" class="graph" transform="scale(1 1) rotate(0) translate(4 304)">
<title>Yena/ynError.cpp</title>
<!-- Node1 -->
<g id="Node000001" class="node">
<title>Node1</title>
<g id="a_Node000001"><a xlink:title="에러, 예외 및 로그 처리 소스 파일">
<polygon fill="#999999" stroke="#666666" points="503.12,-300 412.12,-300 412.12,-280 503.12,-280 503.12,-300"/>
<text xml:space="preserve" text-anchor="middle" x="457.62" y="-286.5" font-family="Helvetica,sans-Serif" font-size="10.00">Yena/ynError.cpp</text>
</a>
</g>
</g>
<!-- Node2 -->
<g id="Node000002" class="node">
<title>Node2</title>
<g id="a_Node000002"><a xlink:href="_yena_8h.html" target="_top" xlink:title="\u{2b50} Yena SWR 기본 헤더 파일 (v1.x)">
<polygon fill="white" stroke="#666666" points="455.62,-244 409.62,-244 409.62,-224 455.62,-224 455.62,-244"/>
<text xml:space="preserve" text-anchor="middle" x="432.62" y="-230.5" font-family="Helvetica,sans-Serif" font-size="10.00">Yena.h</text>
</a>
</g>
</g>
<!-- Node1&#45;&gt;Node2 -->
<g id="edge1_Node000001_Node000002" class="edge">
<title>Node1&#45;&gt;Node2</title>
<g id="a_edge1_Node000001_Node000002"><a xlink:title=" ">
<path fill="none" stroke="#63b8ff" d="M453.27,-279.59C450.08,-272.7 445.64,-263.1 441.69,-254.57"/>
<polygon fill="#63b8ff" stroke="#63b8ff" points="444.94,-253.28 437.57,-245.67 438.59,-256.22 444.94,-253.28"/>
</a>
</g>
</g>
<!-- Node12 -->
<g id="Node000012" class="node">
<title>Node12</title>
<g id="a_Node000012"><a xlink:href="yn_error_8h.html" target="_top" xlink:title="에러, 예외 및 로그 처리 헤더 파일">
<polygon fill="white" stroke="#666666" points="769.5,-188 713.75,-188 713.75,-168 769.5,-168 769.5,-188"/>
<text xml:space="preserve" text-anchor="middle" x="741.62" y="-174.5" font-family="Helvetica,sans-Serif" font-size="10.00">ynError.h</text>
</a>
</g>
</g>
<!-- Node1&#45;&gt;Node12 -->
<g id="edge32_Node000001_Node000012" class="edge">
<title>Node1&#45;&gt;Node12</title>
<g id="a_edge32_Node000001_Node000012"><a xlink:title=" ">
<path fill="none" stroke="#63b8ff" d="M481.84,-279.62C532.25,-260.1 648.6,-215.03 706.95,-192.43"/>
<polygon fill="#63b8ff" stroke="#63b8ff" points="708,-195.78 716.06,-188.9 705.47,-189.25 708,-195.78"/>
</a>
</g>
</g>
<!-- Node3 -->
<g id="Node000003" class="node">
<title>Node3</title>
<g id="a_Node000003"><a xlink:title=" ">
<polygon fill="#e0e0e0" stroke="#999999" points="296.88,-20 234.38,-20 234.38,0 296.88,0 296.88,-20"/>
<text xml:space="preserve" text-anchor="middle" x="265.62" y="-6.5" font-family="Helvetica,sans-Serif" font-size="10.00">windows.h</text>
</a>
</g>
</g>
<!-- Node2&#45;&gt;Node3 -->
<g id="edge2_Node000002_Node000003" class="edge">
<title>Node2&#45;&gt;Node3</title>
<g id="a_edge2_Node000002_Node000003"><a xlink:title=" ">
<path fill="none" stroke="#63b8ff" d="M455.83,-230.78C504.5,-225.69 615.16,-211.76 643.62,-188 670.72,-165.38 688.32,-139.84 666.62,-112 622.5,-55.39 402.68,-25.6 308.53,-15.26"/>
<polygon fill="#63b8ff" stroke="#63b8ff" points="308.99,-11.79 298.67,-14.21 308.24,-18.75 308.99,-11.79"/>
</a>
</g>
</g>
<!-- Node4 -->
<g id="Node000004" class="node">
<title>Node4</title>
<g id="a_Node000004"><a xlink:title=" ">
<polygon fill="#e0e0e0" stroke="#999999" points="305.62,-132 259.62,-132 259.62,-112 305.62,-112 305.62,-132"/>
<text xml:space="preserve" text-anchor="middle" x="282.62" y="-118.5" font-family="Helvetica,sans-Serif" font-size="10.00">tchar.h</text>
</a>
</g>
</g>
<!-- Node2&#45;&gt;Node4 -->
<g id="edge3_Node000002_Node000004" class="edge">
<title>Node2&#45;&gt;Node4</title>
<g id="a_edge3_Node000002_Node000004"><a xlink:title=" ">
<path fill="none" stroke="#63b8ff" d="M419.84,-223.62C394.15,-204.79 336.06,-162.18 304.32,-138.91"/>
<polygon fill="#63b8ff" stroke="#63b8ff" points="306.74,-136.34 296.6,-133.25 302.6,-141.99 306.74,-136.34"/>
</a>
</g>
</g>
<!-- Node5 -->
<g id="Node000005" class="node">
<title>Node5</title>
<g id="a_Node000005"><a xlink:title=" ">
<polygon fill="#e0e0e0" stroke="#999999" points="369.62,-132 323.62,-132 323.62,-112 369.62,-112 369.62,-132"/>
<text xml:space="preserve" text-anchor="middle" x="346.62" y="-118.5" font-family="Helvetica,sans-Serif" font-size="10.00">math.h</text>
</a>
</g>
</g>
<!-- Node2&#45;&gt;Node5 -->
<g id="edge4_Node000002_Node000005" class="edge">
<title>Node2&#45;&gt;Node5</title>
<g id="a_edge4_Node000002_Node000005"><a xlink:title=" ">
<path fill="none" stroke="#63b8ff" d="M424.01,-223.55C415.93,-214.59 403.64,-200.64 393.62,-188 381.61,-172.84 368.8,-155 359.6,-141.85"/>
<polygon fill="#63b8ff" stroke="#63b8ff" points="362.51,-139.91 353.93,-133.69 356.76,-143.9 362.51,-139.91"/>
</a>
</g>
</g>
<!-- Node6 -->
<g id="Node000006" class="node">
<title>Node6</title>
<g id="a_Node000006"><a xlink:title=" ">
<polygon fill="#e0e0e0" stroke="#999999" points="523.25,-132 478,-132 478,-112 523.25,-112 523.25,-132"/>
<text xml:space="preserve" text-anchor="middle" x="500.62" y="-118.5" font-family="Helvetica,sans-Serif" font-size="10.00">stdio.h</text>
</a>
</g>
</g>
<!-- Node2&#45;&gt;Node6 -->
<g id="edge5_Node000002_Node000006" class="edge">
<title>Node2&#45;&gt;Node6</title>
<g id="a_edge5_Node000002_Node000006"><a xlink:title=" ">
<path fill="none" stroke="#63b8ff" d="M442.19,-223.66C450.7,-214.99 463.08,-201.43 471.62,-188 480.67,-173.79 488.3,-156.29 493.46,-143.03"/>
<polygon fill="#63b8ff" stroke="#63b8ff" points="496.74,-144.27 496.95,-133.68 490.18,-141.82 496.74,-144.27"/>
</a>
</g>
</g>
<!-- Node7 -->
<g id="Node000007" class="node">
<title>Node7</title>
<g id="a_Node000007"><a xlink:title=" ">
<polygon fill="#e0e0e0" stroke="#999999" points="634.62,-188 594.62,-188 594.62,-168 634.62,-168 634.62,-188"/>
<text xml:space="preserve" text-anchor="middle" x="614.62" y="-174.5" font-family="Helvetica,sans-Serif" font-size="10.00">string</text>
</a>
</g>
</g>
<!-- Node2&#45;&gt;Node7 -->
<g id="edge6_Node000002_Node000007" class="edge">
<title>Node2&#45;&gt;Node7</title>
<g id="a_edge6_Node000002_Node000007"><a xlink:title=" ">
<path fill="none" stroke="#63b8ff" d="M456.05,-226.05C488.53,-216.41 547.34,-198.96 583.49,-188.24"/>
<polygon fill="#63b8ff" stroke="#63b8ff" points="584.33,-191.64 592.92,-185.44 582.34,-184.93 584.33,-191.64"/>
</a>
</g>
</g>
<!-- Node8 -->
<g id="Node000008" class="node">
<title>Node8</title>
<g id="a_Node000008"><a xlink:title=" ">
<polygon fill="#e0e0e0" stroke="#999999" points="584.12,-132 541.12,-132 541.12,-112 584.12,-112 584.12,-132"/>
<text xml:space="preserve" text-anchor="middle" x="562.62" y="-118.5" font-family="Helvetica,sans-Serif" font-size="10.00">vector</text>
</a>
</g>
</g>
<!-- Node2&#45;&gt;Node8 -->
<g id="edge7_Node000002_Node000008" class="edge">
<title>Node2&#45;&gt;Node8</title>
<g id="a_edge7_Node000002_Node000008"><a xlink:title=" ">
<path fill="none" stroke="#63b8ff" d="M445.28,-223.61C457.18,-214.68 475.38,-200.76 490.62,-188 509.66,-172.06 530.64,-152.93 545.02,-139.56"/>
<polygon fill="#63b8ff" stroke="#63b8ff" points="547.02,-142.48 551.94,-133.1 542.24,-137.37 547.02,-142.48"/>
</a>
</g>
</g>
<!-- Node9 -->
<g id="Node000009" class="node">
<title>Node9</title>
<g id="a_Node000009"><a xlink:title=" ">
<polygon fill="#e0e0e0" stroke="#999999" points="657.5,-132 601.75,-132 601.75,-112 657.5,-112 657.5,-132"/>
<text xml:space="preserve" text-anchor="middle" x="629.62" y="-118.5" font-family="Helvetica,sans-Serif" font-size="10.00">algorithm</text>
</a>
</g>
</g>
<!-- Node2&#45;&gt;Node9 -->
<g id="edge8_Node000002_Node000009" class="edge">
<title>Node2&#45;&gt;Node9</title>
<g id="a_edge8_Node000002_Node000009"><a xlink:title=" ">
<path fill="none" stroke="#63b8ff" d="M450.17,-223.63C467.01,-214.6 493.13,-200.51 515.62,-188 546.01,-171.1 580.69,-151.25 603.74,-137.97"/>
<polygon fill="#63b8ff" stroke="#63b8ff" points="605.23,-141.15 612.14,-133.12 601.73,-135.09 605.23,-141.15"/>
</a>
</g>
</g>
<!-- Node10 -->
<g id="Node000010" class="node">
<title>Node10</title>
<g id="a_Node000010"><a xlink:href="yn_define_8h.html" target="_top" xlink:title="Yena SW 엔진 기본 정의 문서.">
<polygon fill="white" stroke="#666666" points="63.25,-76 0,-76 0,-56 63.25,-56 63.25,-76"/>
<text xml:space="preserve" text-anchor="middle" x="31.62" y="-62.5" font-family="Helvetica,sans-Serif" font-size="10.00">ynDefine.h</text>
</a>
</g>
</g>
<!-- Node2&#45;&gt;Node10 -->
<g id="edge9_Node000002_Node000010" class="edge">
<title>Node2&#45;&gt;Node10</title>
<g id="a_edge9_Node000002_Node000010"><a xlink:title=" ">
<path fill="none" stroke="#63b8ff" d="M409.35,-232.24C341.73,-229.68 146.71,-219.65 92.62,-188 56.19,-166.68 40.86,-115.8 34.95,-87.27"/>
<polygon fill="#63b8ff" stroke="#63b8ff" points="38.45,-86.93 33.19,-77.73 31.57,-88.2 38.45,-86.93"/>
</a>
</g>
</g>
<!-- Node2&#45;&gt;Node12 -->
<g id="edge12_Node000002_Node000012" class="edge">
<title>Node2&#45;&gt;Node12</title>
<g id="a_edge12_Node000002_Node000012"><a xlink:title=" ">
<path fill="none" stroke="#63b8ff" d="M455.9,-229.43C502.35,-222.23 609.82,-205.18 699.62,-188 700.62,-187.81 701.62,-187.61 702.64,-187.42"/>
<polygon fill="#63b8ff" stroke="#63b8ff" points="703.06,-190.9 712.16,-185.48 701.67,-184.04 703.06,-190.9"/>
</a>
</g>
</g>
<!-- Node14 -->
<g id="Node000014" class="node">
<title>Node14</title>
<g id="a_Node000014"><a xlink:href="yn_g_u_i_d_8h.html" target="_top" xlink:title="Yena SWR COM / GUID 헤더">
<polygon fill="white" stroke="#666666" points="462.75,-188 402.5,-188 402.5,-168 462.75,-168 462.75,-188"/>
<text xml:space="preserve" text-anchor="middle" x="432.62" y="-174.5" font-family="Helvetica,sans-Serif" font-size="10.00">ynGUID.h</text>
</a>
</g>
</g>
<!-- Node2&#45;&gt;Node14 -->
<g id="edge14_Node000002_Node000014" class="edge">
<title>Node2&#45;&gt;Node14</title>
<g id="a_edge14_Node000002_Node000014"><a xlink:title=" ">
<path fill="none" stroke="#63b8ff" d="M432.62,-223.59C432.62,-217.01 432.62,-207.96 432.62,-199.73"/>
<polygon fill="#63b8ff" stroke="#63b8ff" points="436.13,-199.81 432.63,-189.81 429.13,-199.81 436.13,-199.81"/>
</a>
</g>
</g>
<!-- Node16 -->
<g id="Node000016" class="node">
<title>Node16</title>
<g id="a_Node000016"><a xlink:href="yn_unknownbase_8h.html" target="_top" xlink:title="Yena SWR COM 기반 헤더 (v2.x)">
<polygon fill="white" stroke="#666666" points="314.12,-76 217.12,-76 217.12,-56 314.12,-56 314.12,-76"/>
<text xml:space="preserve" text-anchor="middle" x="265.62" y="-62.5" font-family="Helvetica,sans-Serif" font-size="10.00">ynUnknownbase.h</text>
</a>
</g>
</g>
<!-- Node2&#45;&gt;Node16 -->
<g id="edge22_Node000002_Node000016" class="edge">
<title>Node2&#45;&gt;Node16</title>
<g id="a_edge22_Node000002_Node000016"><a xlink:title=" ">
<path fill="none" stroke="#63b8ff" d="M409.22,-228.29C368.07,-218.58 283.97,-192.02 250.62,-132 242.8,-117.92 247.91,-99.96 254.2,-86.48"/>
<polygon fill="#63b8ff" stroke="#63b8ff" points="257.24,-88.22 258.8,-77.75 251.04,-84.96 257.24,-88.22"/>
</a>
</g>
</g>
<!-- Node17 -->
<g id="Node000017" class="node">
<title>Node17</title>
<g id="a_Node000017"><a xlink:href="ynx9types_8h.html" target="_top" xlink:title="\u{2b50} Yena SW 엔진 자료형 정의 : DX9 (d3d9types.h) 대응">
<polygon fill="white" stroke="#666666" points="203.25,-132 134,-132 134,-112 203.25,-112 203.25,-132"/>
<text xml:space="preserve" text-anchor="middle" x="168.62" y="-118.5" font-family="Helvetica,sans-Serif" font-size="10.00">ynx9types.h</text>
</a>
</g>
</g>
<!-- Node2&#45;&gt;Node17 -->
<g id="edge24_Node000002_Node000017" class="edge">
<title>Node2&#45;&gt;Node17</title>
<g id="a_edge24_Node000002_Node000017"><a xlink:title=" ">
<path fill="none" stroke="#63b8ff" d="M409.32,-233.31C367.6,-232.81 278.8,-226.83 217.62,-188 200.13,-176.9 186.6,-157.19 178.24,-142.38"/>
<polygon fill="#63b8ff" stroke="#63b8ff" points="181.34,-140.76 173.57,-133.56 175.16,-144.04 181.34,-140.76"/>
</a>
</g>
</g>
<!-- Node18 -->
<g id="Node000018" class="node">
<title>Node18</title>
<g id="a_Node000018"><a xlink:href="ynx9_8h.html" target="_top" xlink:title="\u{2b50} Yena SWR 인터페이스 헤더 : DX9 (d3d9.h) 대응">
<polygon fill="white" stroke="#666666" points="165.25,-188 120,-188 120,-168 165.25,-168 165.25,-188"/>
<text xml:space="preserve" text-anchor="middle" x="142.62" y="-174.5" font-family="Helvetica,sans-Serif" font-size="10.00">ynx9.h</text>
</a>
</g>
</g>
<!-- Node2&#45;&gt;Node18 -->
<g id="edge26_Node000002_Node000018" class="edge">
<title>Node2&#45;&gt;Node18</title>
<g id="a_edge26_Node000002_Node000018"><a xlink:title=" ">
<path fill="none" stroke="#63b8ff" d="M409.16,-229.33C364.37,-222.21 263.67,-205.68 179.62,-188 178.63,-187.79 177.63,-187.58 176.62,-187.35"/>
<polygon fill="#63b8ff" stroke="#63b8ff" points="177.67,-184.01 167.14,-185.18 176.11,-190.83 177.67,-184.01"/>
</a>
</g>
</g>
<!-- Node19 -->
<g id="Node000019" class="node">
<title>Node19</title>
<g id="a_Node000019"><a xlink:href="yn_math_8h.html" target="_top" xlink:title="\u{2b50} Yena 수학 라이브러리 Yena Math Library for DirectX / OpenGL">
<polygon fill="white" stroke="#666666" points="115.88,-132 59.38,-132 59.38,-112 115.88,-112 115.88,-132"/>
<text xml:space="preserve" text-anchor="middle" x="87.62" y="-118.5" font-family="Helvetica,sans-Serif" font-size="10.00">ynMath.h</text>
</a>
</g>
</g>
<!-- Node2&#45;&gt;Node19 -->
<g id="edge31_Node000002_Node000019" class="edge">
<title>Node2&#45;&gt;Node19</title>
<g id="a_edge31_Node000002_Node000019"><a xlink:title=" ">
<path fill="none" stroke="#63b8ff" d="M409.15,-232.79C342.91,-231.72 156.42,-225.4 110.62,-188 97.3,-177.12 91.68,-157.96 89.33,-143.25"/>
<polygon fill="#63b8ff" stroke="#63b8ff" points="92.85,-143.25 88.19,-133.73 85.9,-144.07 92.85,-143.25"/>
</a>
</g>
</g>
<!-- Node10&#45;&gt;Node3 -->
<g id="edge10_Node000010_Node000003" class="edge">
<title>Node10&#45;&gt;Node3</title>
<g id="a_edge10_Node000010_Node000003"><a xlink:title=" ">
<path fill="none" stroke="#63b8ff" d="M63.67,-57.6C104.98,-48.07 176.95,-31.46 222.88,-20.86"/>
<polygon fill="#63b8ff" stroke="#63b8ff" points="223.53,-24.31 232.49,-18.65 221.96,-17.48 223.53,-24.31"/>
</a>
</g>
</g>
<!-- Node11 -->
<g id="Node000011" class="node">
<title>Node11</title>
<g id="a_Node000011"><a xlink:title=" ">
<polygon fill="#e0e0e0" stroke="#999999" points="57.25,-20 6,-20 6,0 57.25,0 57.25,-20"/>
<text xml:space="preserve" text-anchor="middle" x="31.62" y="-6.5" font-family="Helvetica,sans-Serif" font-size="10.00">assert.h</text>
</a>
</g>
</g>
<!-- Node10&#45;&gt;Node11 -->
<g id="edge11_Node000010_Node000011" class="edge">
<title>Node10&#45;&gt;Node11</title>
<g id="a_edge11_Node000010_Node000011"><a xlink:title=" ">
<path fill="none" stroke="#63b8ff" d="M31.62,-55.59C31.62,-49.01 31.62,-39.96 31.62,-31.73"/>
<polygon fill="#63b8ff" stroke="#63b8ff" points="35.13,-31.81 31.63,-21.81 28.13,-31.81 35.13,-31.81"/>
</a>
</g>
</g>
<!-- Node13 -->
<g id="Node000013" class="node">
<title>Node13</title>
<g id="a_Node000013"><a xlink:title=" ">
<polygon fill="#e0e0e0" stroke="#999999" points="771.62,-132 713.62,-132 713.62,-112 771.62,-112 771.62,-132"/>
<text xml:space="preserve" text-anchor="middle" x="742.62" y="-118.5" font-family="Helvetica,sans-Serif" font-size="10.00">exception</text>
</a>
</g>
</g>
<!-- Node12&#45;&gt;Node13 -->
<g id="edge13_Node000012_Node000013" class="edge">
<title>Node12&#45;&gt;Node13</title>
<g id="a_edge13_Node000012_Node000013"><a xlink:title=" ">
<path fill="none" stroke="#63b8ff" d="M741.8,-167.59C741.92,-161.01 742.09,-151.96 742.24,-143.73"/>
<polygon fill="#63b8ff" stroke="#63b8ff" points="745.74,-143.87 742.42,-133.81 738.74,-143.75 745.74,-143.87"/>
</a>
</g>
</g>
<!-- Node14&#45;&gt;Node3 -->
<g id="edge15_Node000014_Node000003" class="edge">
<title>Node14&#45;&gt;Node3</title>
<g id="a_edge15_Node000014_Node000003"><a xlink:title=" ">
<path fill="none" stroke="#63b8ff" d="M425.2,-167.51C415.02,-154.65 396.02,-131.08 378.62,-112 354.91,-85.99 348.93,-79.39 322.62,-56 311.26,-45.89 297.94,-35.32 287.04,-26.96"/>
<polygon fill="#63b8ff" stroke="#63b8ff" points="289.48,-24.42 279.4,-21.17 285.26,-30 289.48,-24.42"/>
</a>
</g>
</g>
<!-- Node14&#45;&gt;Node4 -->
<g id="edge16_Node000014_Node000004" class="edge">
<title>Node14&#45;&gt;Node4</title>
<g id="a_edge16_Node000014_Node000004"><a xlink:title=" ">
<path fill="none" stroke="#63b8ff" d="M406.5,-167.59C381.56,-158.62 343.86,-145.04 316.6,-135.23"/>
<polygon fill="#63b8ff" stroke="#63b8ff" points="318.01,-132.02 307.41,-131.92 315.64,-138.6 318.01,-132.02"/>
</a>
</g>
</g>
<!-- Node14&#45;&gt;Node5 -->
<g id="edge17_Node000014_Node000005" class="edge">
<title>Node14&#45;&gt;Node5</title>
<g id="a_edge17_Node000014_Node000005"><a xlink:title=" ">
<path fill="none" stroke="#63b8ff" d="M417.64,-167.59C404.9,-159.59 386.33,-147.93 371.38,-138.54"/>
<polygon fill="#63b8ff" stroke="#63b8ff" points="373.33,-135.64 363,-133.28 369.61,-141.57 373.33,-135.64"/>
</a>
</g>
</g>
<!-- Node14&#45;&gt;Node6 -->
<g id="edge18_Node000014_Node000006" class="edge">
<title>Node14&#45;&gt;Node6</title>
<g id="a_edge18_Node000014_Node000006"><a xlink:title=" ">
<path fill="none" stroke="#63b8ff" d="M444.47,-167.59C454.32,-159.77 468.56,-148.46 480.23,-139.19"/>
<polygon fill="#63b8ff" stroke="#63b8ff" points="482.08,-142.2 487.73,-133.24 477.72,-136.72 482.08,-142.2"/>
</a>
</g>
</g>
<!-- Node14&#45;&gt;Node8 -->
<g id="edge19_Node000014_Node000008" class="edge">
<title>Node14&#45;&gt;Node8</title>
<g id="a_edge19_Node000014_Node000008"><a xlink:title=" ">
<path fill="none" stroke="#63b8ff" d="M455.27,-167.59C475.99,-158.99 506.89,-146.15 530.23,-136.46"/>
<polygon fill="#63b8ff" stroke="#63b8ff" points="531.38,-139.77 539.28,-132.7 528.7,-133.3 531.38,-139.77"/>
</a>
</g>
</g>
<!-- Node14&#45;&gt;Node9 -->
<g id="edge21_Node000014_Node000009" class="edge">
<title>Node14&#45;&gt;Node9</title>
<g id="a_edge21_Node000014_Node000009"><a xlink:title=" ">
<path fill="none" stroke="#63b8ff" d="M462.97,-168.68C497.21,-159.3 552.98,-144.01 590.47,-133.73"/>
<polygon fill="#63b8ff" stroke="#63b8ff" points="591.3,-137.14 600.02,-131.12 589.45,-130.38 591.3,-137.14"/>
</a>
</g>
</g>
<!-- Node15 -->
<g id="Node000015" class="node">
<title>Node15</title>
<g id="a_Node000015"><a xlink:title=" ">
<polygon fill="#e0e0e0" stroke="#999999" points="460,-132 425.25,-132 425.25,-112 460,-112 460,-132"/>
<text xml:space="preserve" text-anchor="middle" x="442.62" y="-118.5" font-family="Helvetica,sans-Serif" font-size="10.00">map</text>
</a>
</g>
</g>
<!-- Node14&#45;&gt;Node15 -->
<g id="edge20_Node000014_Node000015" class="edge">
<title>Node14&#45;&gt;Node15</title>
<g id="a_edge20_Node000014_Node000015"><a xlink:title=" ">
<path fill="none" stroke="#63b8ff" d="M434.37,-167.59C435.6,-160.93 437.3,-151.75 438.84,-143.44"/>
<polygon fill="#63b8ff" stroke="#63b8ff" points="442.25,-144.26 440.63,-133.79 435.37,-142.98 442.25,-144.26"/>
</a>
</g>
</g>
<!-- Node16&#45;&gt;Node3 -->
<g id="edge23_Node000016_Node000003" class="edge">
<title>Node16&#45;&gt;Node3</title>
<g id="a_edge23_Node000016_Node000003"><a xlink:title=" ">
<path fill="none" stroke="#63b8ff" d="M265.62,-55.59C265.62,-49.01 265.62,-39.96 265.62,-31.73"/>
<polygon fill="#63b8ff" stroke="#63b8ff" points="269.13,-31.81 265.63,-21.81 262.13,-31.81 269.13,-31.81"/>
</a>
</g>
</g>
<!-- Node17&#45;&gt;Node3 -->
<g id="edge25_Node000017_Node000003" class="edge">
<title>Node17&#45;&gt;Node3</title>
<g id="a_edge25_Node000017_Node000003"><a xlink:title=" ">
<path fill="none" stroke="#63b8ff" d="M172.74,-111.9C179.01,-98.66 191.9,-73.72 207.62,-56 217.44,-44.94 230.27,-34.66 241.37,-26.73"/>
<polygon fill="#63b8ff" stroke="#63b8ff" points="243.06,-29.81 249.31,-21.26 239.09,-24.05 243.06,-29.81"/>
</a>
</g>
</g>
<!-- Node18&#45;&gt;Node17 -->
<g id="edge27_Node000018_Node000017" class="edge">
<title>Node18&#45;&gt;Node17</title>
<g id="a_edge27_Node000018_Node000017"><a xlink:title=" ">
<path fill="none" stroke="#63b8ff" d="M147.15,-167.59C150.47,-160.7 155.09,-151.1 159.2,-142.57"/>
<polygon fill="#63b8ff" stroke="#63b8ff" points="162.31,-144.19 163.49,-133.66 156,-141.15 162.31,-144.19"/>
</a>
</g>
</g>
<!-- Node18&#45;&gt;Node19 -->
<g id="edge28_Node000018_Node000019" class="edge">
<title>Node18&#45;&gt;Node19</title>
<g id="a_edge28_Node000018_Node000019"><a xlink:title=" ">
<path fill="none" stroke="#63b8ff" d="M133.04,-167.59C125.39,-160.08 114.47,-149.35 105.25,-140.3"/>
<polygon fill="#63b8ff" stroke="#63b8ff" points="107.76,-137.87 98.18,-133.36 102.86,-142.86 107.76,-137.87"/>
</a>
</g>
</g>
<!-- Node19&#45;&gt;Node10 -->
<g id="edge29_Node000019_Node000010" class="edge">
<title>Node19&#45;&gt;Node10</title>
<g id="a_edge29_Node000019_Node000010"><a xlink:title=" ">
<path fill="none" stroke="#63b8ff" d="M77.87,-111.59C70,-104.01 58.73,-93.13 49.28,-84.02"/>
<polygon fill="#63b8ff" stroke="#63b8ff" points="51.99,-81.77 42.36,-77.35 47.13,-86.81 51.99,-81.77"/>
</a>
</g>
</g>
<!-- Node20 -->
<g id="Node000020" class="node">
<title>Node20</title>
<g id="a_Node000020"><a xlink:title=" ">
<polygon fill="#e0e0e0" stroke="#999999" points="160.12,-76 81.12,-76 81.12,-56 160.12,-56 160.12,-76"/>
<text xml:space="preserve" text-anchor="middle" x="120.62" y="-62.5" font-family="Helvetica,sans-Serif" font-size="10.00">DirectXmath.h</text>
</a>
</g>
</g>
<!-- Node19&#45;&gt;Node20 -->
<g id="edge30_Node000019_Node000020" class="edge">
<title>Node19&#45;&gt;Node20</title>
<g id="a_edge30_Node000019_Node000020"><a xlink:title=" ">
<path fill="none" stroke="#63b8ff" d="M93.37,-111.59C97.68,-104.55 103.72,-94.67 109.01,-86"/>
<polygon fill="#63b8ff" stroke="#63b8ff" points="111.93,-87.95 114.15,-77.59 105.95,-84.3 111.93,-87.95"/>
</a>
</g>
</g>
</g>
</svg>
