<?xml version="1.0" encoding="UTF-8" standalone="no"?>
<!DOCTYPE svg PUBLIC "-//W3C//DTD SVG 1.1//EN"
 "http://www.w3.org/Graphics/SVG/1.1/DTD/svg11.dtd">
<!-- Generated by graphviz version 13.1.2 (20250808.2320)
 -->
<!-- Title: Yena/ynError.cpp Pages: 1 -->
<!--zoomable 252 -->

<svg id="main" version="1.1" xmlns="http://www.w3.org/2000/svg" xmlns:xlink="http://www.w3.org/1999/xlink" xml:space="preserve" onload="init(evt)">

<style type="text/css"><![CDATA[
.node, .edge {opacity: 0.7;}
.node.selected, .edge.selected {opacity: 1;}
.edge:hover path { stroke: red; }
.edge:hover polygon { stroke: red; fill: red; }
]]></style>

<defs>
  <circle id="rim" cx="0" cy="0" r="7"/>
  <circle id="rim2" cx="0" cy="0" r="3.5"/>
  <g id="zoomPlus">
    <use xlink:href="#rim" fill="#404040"><set attributeName="fill" to="#808080" begin="zoomplus.mouseover" end="zoomplus.mouseout"/></use>
    <path d="M-4,0h8M0,-4v8" fill="none" stroke="white" stroke-width="1.5" pointer-events="none"/>
  </g>
  <g id="zoomMin">
    <use xlink:href="#rim" fill="#404040"><set attributeName="fill" to="#808080" begin="zoomminus.mouseover" end="zoomminus.mouseout"/></use>
    <path d="M-4,0h8" fill="none" stroke="white" stroke-width="1.5" pointer-events="none"/>
  </g>
  <g id="arrowUp" transform="translate(30 24)">
    <use xlink:href="#rim"/>
    <path pointer-events="none" fill="none" stroke="white" stroke-width="1.5" d="M0,-3.0v7 M-2.5,-0.5L0,-3.0L2.5,-0.5"/>
  </g>
  <g id="arrowRight" transform="rotate(90) translate(36 -43)">
    <use xlink:href="#rim"/>
    <path pointer-events="none" fill="none" stroke="white" stroke-width="1.5" d="M0,-3.0v7 M-2.5,-0.5L0,-3.0L2.5,-0.5"/>
  </g>
  <g id="arrowDown" transform="rotate(180) translate(-30 -48)">
    <use xlink:href="#rim"/>
    <path pointer-events="none" fill="none" stroke="white" stroke-width="1.5" d="M0,-3.0v7 M-2.5,-0.5L0,-3.0L2.5,-0.5"/>
  </g>
  <g id="arrowLeft" transform="rotate(270) translate(-36 17)">
    <use xlink:href="#rim"/>
    <path pointer-events="none" fill="none" stroke="white" stroke-width="1.5" d="M0,-3.0v7 M-2.5,-0.5L0,-3.0L2.5,-0.5"/>
  </g>
  <g id="resetDef">
    <use xlink:href="#rim2" fill="#404040"><set attributeName="fill" to="#808080" begin="reset.mouseover" end="reset.mouseout"/></use>
  </g>
</defs>
<script type="application/ecmascript">
var viewWidth = 788;
var viewHeight = 252;
var sectionId = 'dynsection-0';
</script>
<script type="application/ecmascript" xlink:href="svg.min.js"/>
<svg id="graph" class="graph">
<g id="viewport">
<title>Yena/ynError.cpp</title>
<!-- Node1 -->
<g id="Node000001" class="node">
<title>Node1</title>
<g id="a_Node000001"><a xlink:title="에러, 예외 및 로그 처리 소스 파일">
<polygon fill="#999999" stroke="#666666" points="499.12,-244 408.12,-244 408.12,-224 499.12,-224 499.12,-244"/>
<text xml:space="preserve" text-anchor="middle" x="453.62" y="-230.5" font-family="Helvetica,sans-Serif" font-size="10.00">Yena/ynError.cpp</text>
</a>
</g>
</g>
<!-- Node2 -->
<g id="Node000002" class="node">
<title>Node2</title>
<g id="a_Node000002"><a xlink:href="_yena_8h.html" target="_top" xlink:title="\u{2b50} Yena SWR 기본 헤더 파일 (v1.x)">
<polygon fill="white" stroke="#666666" points="451.62,-188 405.62,-188 405.62,-168 451.62,-168 451.62,-188"/>
<text xml:space="preserve" text-anchor="middle" x="428.62" y="-174.5" font-family="Helvetica,sans-Serif" font-size="10.00">Yena.h</text>
</a>
</g>
</g>
<!-- Node1&#45;&gt;Node2 -->
<g id="edge1_Node000001_Node000002" class="edge">
<title>Node1&#45;&gt;Node2</title>
<g id="a_edge1_Node000001_Node000002"><a xlink:title=" ">
<path fill="none" stroke="#63b8ff" d="M449.27,-223.59C446.08,-216.7 441.64,-207.1 437.69,-198.57"/>
<polygon fill="#63b8ff" stroke="#63b8ff" points="440.94,-197.28 433.57,-189.67 434.59,-200.22 440.94,-197.28"/>
</a>
</g>
</g>
<!-- Node12 -->
<g id="Node000012" class="node">
<title>Node12</title>
<g id="a_Node000012"><a xlink:href="yn_error_8h.html" target="_top" xlink:title="에러, 예외 및 로그 처리 헤더 파일">
<polygon fill="white" stroke="#666666" points="778.5,-132 722.75,-132 722.75,-112 778.5,-112 778.5,-132"/>
<text xml:space="preserve" text-anchor="middle" x="750.62" y="-118.5" font-family="Helvetica,sans-Serif" font-size="10.00">ynError.h</text>
</a>
</g>
</g>
<!-- Node1&#45;&gt;Node12 -->
<g id="edge29_Node000001_Node000012" class="edge">
<title>Node1&#45;&gt;Node12</title>
<g id="a_edge29_Node000001_Node000012"><a xlink:title=" ">
<path fill="none" stroke="#63b8ff" d="M479.2,-223.53C532.06,-203.95 653.44,-158.99 714.36,-136.43"/>
<polygon fill="#63b8ff" stroke="#63b8ff" points="715.42,-139.77 723.58,-133.02 712.99,-133.21 715.42,-139.77"/>
</a>
</g>
</g>
<!-- Node3 -->
<g id="Node000003" class="node">
<title>Node3</title>
<g id="a_Node000003"><a xlink:title=" ">
<polygon fill="#e0e0e0" stroke="#999999" points="195.88,-20 133.38,-20 133.38,0 195.88,0 195.88,-20"/>
<text xml:space="preserve" text-anchor="middle" x="164.62" y="-6.5" font-family="Helvetica,sans-Serif" font-size="10.00">windows.h</text>
</a>
</g>
</g>
<!-- Node2&#45;&gt;Node3 -->
<g id="edge2_Node000002_Node000003" class="edge">
<title>Node2&#45;&gt;Node3</title>
<g id="a_edge2_Node000002_Node000003"><a xlink:title=" ">
<path fill="none" stroke="#63b8ff" d="M405.2,-177.37C339.21,-177.88 154.16,-175.33 116.62,-132 90.01,-101.27 124.51,-53.97 147.37,-28.57"/>
<polygon fill="#63b8ff" stroke="#63b8ff" points="149.82,-31.07 154.1,-21.38 144.71,-26.29 149.82,-31.07"/>
</a>
</g>
</g>
<!-- Node4 -->
<g id="Node000004" class="node">
<title>Node4</title>
<g id="a_Node000004"><a xlink:title=" ">
<polygon fill="#e0e0e0" stroke="#999999" points="346.62,-76 300.62,-76 300.62,-56 346.62,-56 346.62,-76"/>
<text xml:space="preserve" text-anchor="middle" x="323.62" y="-62.5" font-family="Helvetica,sans-Serif" font-size="10.00">tchar.h</text>
</a>
</g>
</g>
<!-- Node2&#45;&gt;Node4 -->
<g id="edge3_Node000002_Node000004" class="edge">
<title>Node2&#45;&gt;Node4</title>
<g id="a_edge3_Node000002_Node000004"><a xlink:title=" ">
<path fill="none" stroke="#63b8ff" d="M418.32,-167.57C408.64,-158.61 393.87,-144.68 381.62,-132 366.75,-116.59 350.58,-98.34 339.1,-85.1"/>
<polygon fill="#63b8ff" stroke="#63b8ff" points="341.83,-82.9 332.65,-77.61 336.52,-87.47 341.83,-82.9"/>
</a>
</g>
</g>
<!-- Node5 -->
<g id="Node000005" class="node">
<title>Node5</title>
<g id="a_Node000005"><a xlink:title=" ">
<polygon fill="#e0e0e0" stroke="#999999" points="410.62,-76 364.62,-76 364.62,-56 410.62,-56 410.62,-76"/>
<text xml:space="preserve" text-anchor="middle" x="387.62" y="-62.5" font-family="Helvetica,sans-Serif" font-size="10.00">math.h</text>
</a>
</g>
</g>
<!-- Node2&#45;&gt;Node5 -->
<g id="edge4_Node000002_Node000005" class="edge">
<title>Node2&#45;&gt;Node5</title>
<g id="a_edge4_Node000002_Node000005"><a xlink:title=" ">
<path fill="none" stroke="#63b8ff" d="M417.01,-167.67C407.69,-159.41 395.27,-146.44 389.62,-132 384.08,-117.81 383.83,-100.53 384.82,-87.35"/>
<polygon fill="#63b8ff" stroke="#63b8ff" points="388.27,-88.04 385.87,-77.72 381.31,-87.28 388.27,-88.04"/>
</a>
</g>
</g>
<!-- Node6 -->
<g id="Node000006" class="node">
<title>Node6</title>
<g id="a_Node000006"><a xlink:title=" ">
<polygon fill="#e0e0e0" stroke="#999999" points="565.25,-76 520,-76 520,-56 565.25,-56 565.25,-76"/>
<text xml:space="preserve" text-anchor="middle" x="542.62" y="-62.5" font-family="Helvetica,sans-Serif" font-size="10.00">stdio.h</text>
</a>
</g>
</g>
<!-- Node2&#45;&gt;Node6 -->
<g id="edge5_Node000002_Node000006" class="edge">
<title>Node2&#45;&gt;Node6</title>
<g id="a_edge5_Node000002_Node000006"><a xlink:title=" ">
<path fill="none" stroke="#63b8ff" d="M451.97,-174.35C494.44,-168.98 581.63,-155.34 599.62,-132 613.33,-114.23 591.58,-95.04 571.11,-82.15"/>
<polygon fill="#63b8ff" stroke="#63b8ff" points="573.02,-79.22 562.63,-77.14 569.46,-85.24 573.02,-79.22"/>
</a>
</g>
</g>
<!-- Node7 -->
<g id="Node000007" class="node">
<title>Node7</title>
<g id="a_Node000007"><a xlink:title=" ">
<polygon fill="#e0e0e0" stroke="#999999" points="516.62,-132 476.62,-132 476.62,-112 516.62,-112 516.62,-132"/>
<text xml:space="preserve" text-anchor="middle" x="496.62" y="-118.5" font-family="Helvetica,sans-Serif" font-size="10.00">string</text>
</a>
</g>
</g>
<!-- Node2&#45;&gt;Node7 -->
<g id="edge6_Node000002_Node000007" class="edge">
<title>Node2&#45;&gt;Node7</title>
<g id="a_edge6_Node000002_Node000007"><a xlink:title=" ">
<path fill="none" stroke="#63b8ff" d="M440.47,-167.59C450.32,-159.77 464.56,-148.46 476.23,-139.19"/>
<polygon fill="#63b8ff" stroke="#63b8ff" points="478.08,-142.2 483.73,-133.24 473.72,-136.72 478.08,-142.2"/>
</a>
</g>
</g>
<!-- Node8 -->
<g id="Node000008" class="node">
<title>Node8</title>
<g id="a_Node000008"><a xlink:title=" ">
<polygon fill="#e0e0e0" stroke="#999999" points="628.12,-76 585.12,-76 585.12,-56 628.12,-56 628.12,-76"/>
<text xml:space="preserve" text-anchor="middle" x="606.62" y="-62.5" font-family="Helvetica,sans-Serif" font-size="10.00">vector</text>
</a>
</g>
</g>
<!-- Node2&#45;&gt;Node8 -->
<g id="edge7_Node000002_Node000008" class="edge">
<title>Node2&#45;&gt;Node8</title>
<g id="a_edge7_Node000002_Node000008"><a xlink:title=" ">
<path fill="none" stroke="#63b8ff" d="M451.99,-174.91C497.52,-170.3 595.48,-157.57 615.62,-132 625.65,-119.28 621.76,-100.63 616.32,-86.57"/>
<polygon fill="#63b8ff" stroke="#63b8ff" points="619.53,-85.18 612.28,-77.45 613.13,-88.01 619.53,-85.18"/>
</a>
</g>
</g>
<!-- Node9 -->
<g id="Node000009" class="node">
<title>Node9</title>
<g id="a_Node000009"><a xlink:title=" ">
<polygon fill="#e0e0e0" stroke="#999999" points="702.5,-76 646.75,-76 646.75,-56 702.5,-56 702.5,-76"/>
<text xml:space="preserve" text-anchor="middle" x="674.62" y="-62.5" font-family="Helvetica,sans-Serif" font-size="10.00">algorithm</text>
</a>
</g>
</g>
<!-- Node2&#45;&gt;Node9 -->
<g id="edge8_Node000002_Node000009" class="edge">
<title>Node2&#45;&gt;Node9</title>
<g id="a_edge8_Node000002_Node000009"><a xlink:title=" ">
<path fill="none" stroke="#63b8ff" d="M451.98,-177.4C492.41,-176.97 576.48,-171 632.62,-132 648.65,-120.87 660,-101.46 666.83,-86.74"/>
<polygon fill="#63b8ff" stroke="#63b8ff" points="670.04,-88.15 670.75,-77.58 663.6,-85.4 670.04,-88.15"/>
</a>
</g>
</g>
<!-- Node10 -->
<g id="Node000010" class="node">
<title>Node10</title>
<g id="a_Node000010"><a xlink:href="yn_define_8h.html" target="_top" xlink:title="Yena SW 엔진 기본 정의 문서.">
<polygon fill="white" stroke="#666666" points="304.25,-132 241,-132 241,-112 304.25,-112 304.25,-132"/>
<text xml:space="preserve" text-anchor="middle" x="272.62" y="-118.5" font-family="Helvetica,sans-Serif" font-size="10.00">ynDefine.h</text>
</a>
</g>
</g>
<!-- Node2&#45;&gt;Node10 -->
<g id="edge9_Node000002_Node000010" class="edge">
<title>Node2&#45;&gt;Node10</title>
<g id="a_edge9_Node000002_Node000010"><a xlink:title=" ">
<path fill="none" stroke="#63b8ff" d="M405.27,-168.92C380.25,-160.25 340.15,-146.37 310.58,-136.14"/>
<polygon fill="#63b8ff" stroke="#63b8ff" points="311.84,-132.87 301.25,-132.91 309.55,-139.49 311.84,-132.87"/>
</a>
</g>
</g>
<!-- Node2&#45;&gt;Node12 -->
<g id="edge12_Node000002_Node000012" class="edge">
<title>Node2&#45;&gt;Node12</title>
<g id="a_edge12_Node000002_Node000012"><a xlink:title=" ">
<path fill="none" stroke="#63b8ff" d="M451.93,-173.67C500.03,-166.71 613.78,-149.77 708.62,-132 709.62,-131.81 710.63,-131.62 711.64,-131.43"/>
<polygon fill="#63b8ff" stroke="#63b8ff" points="712.06,-134.91 721.17,-129.5 710.67,-128.05 712.06,-134.91"/>
</a>
</g>
</g>
<!-- Node14 -->
<g id="Node000014" class="node">
<title>Node14</title>
<g id="a_Node000014"><a xlink:href="yn_g_u_i_d_8h.html" target="_top" xlink:title="Yena SWR COM / GUID 헤더">
<polygon fill="white" stroke="#666666" points="458.75,-132 398.5,-132 398.5,-112 458.75,-112 458.75,-132"/>
<text xml:space="preserve" text-anchor="middle" x="428.62" y="-118.5" font-family="Helvetica,sans-Serif" font-size="10.00">ynGUID.h</text>
</a>
</g>
</g>
<!-- Node2&#45;&gt;Node14 -->
<g id="edge14_Node000002_Node000014" class="edge">
<title>Node2&#45;&gt;Node14</title>
<g id="a_edge14_Node000002_Node000014"><a xlink:title=" ">
<path fill="none" stroke="#63b8ff" d="M428.62,-167.59C428.62,-161.01 428.62,-151.96 428.62,-143.73"/>
<polygon fill="#63b8ff" stroke="#63b8ff" points="432.13,-143.81 428.63,-133.81 425.13,-143.81 432.13,-143.81"/>
</a>
</g>
</g>
<!-- Node16 -->
<g id="Node000016" class="node">
<title>Node16</title>
<g id="a_Node000016"><a xlink:href="yn_unknownbase_8h.html" target="_top" xlink:title="Yena SWR COM 기반 헤더 (v2.x)">
<polygon fill="white" stroke="#666666" points="223.12,-132 126.12,-132 126.12,-112 223.12,-112 223.12,-132"/>
<text xml:space="preserve" text-anchor="middle" x="174.62" y="-118.5" font-family="Helvetica,sans-Serif" font-size="10.00">ynUnknownbase.h</text>
</a>
</g>
</g>
<!-- Node2&#45;&gt;Node16 -->
<g id="edge22_Node000002_Node000016" class="edge">
<title>Node2&#45;&gt;Node16</title>
<g id="a_edge22_Node000002_Node000016"><a xlink:title=" ">
<path fill="none" stroke="#63b8ff" d="M405.18,-172.02C365.74,-163.63 285.07,-146.48 230.4,-134.86"/>
<polygon fill="#63b8ff" stroke="#63b8ff" points="231.15,-131.44 220.64,-132.78 229.69,-138.29 231.15,-131.44"/>
</a>
</g>
</g>
<!-- Node17 -->
<g id="Node000017" class="node">
<title>Node17</title>
<g id="a_Node000017"><a xlink:href="ynx9types_8h.html" target="_top" xlink:title="\u{2b50} Yena SW 엔진 자료형 정의 : DX9 (d3d9types.h) 대응">
<polygon fill="white" stroke="#666666" points="69.25,-76 0,-76 0,-56 69.25,-56 69.25,-76"/>
<text xml:space="preserve" text-anchor="middle" x="34.62" y="-62.5" font-family="Helvetica,sans-Serif" font-size="10.00">ynx9types.h</text>
</a>
</g>
</g>
<!-- Node2&#45;&gt;Node17 -->
<g id="edge24_Node000002_Node000017" class="edge">
<title>Node2&#45;&gt;Node17</title>
<g id="a_edge24_Node000002_Node000017"><a xlink:title=" ">
<path fill="none" stroke="#63b8ff" d="M405.13,-176.24C321.36,-173.28 40.88,-161.26 14.62,-132 3.08,-119.13 11.29,-99.71 20.43,-85.45"/>
<polygon fill="#63b8ff" stroke="#63b8ff" points="23.21,-87.57 26.11,-77.38 17.49,-83.54 23.21,-87.57"/>
</a>
</g>
</g>
<!-- Node18 -->
<g id="Node000018" class="node">
<title>Node18</title>
<g id="a_Node000018"><a xlink:href="ynx9_8h.html" target="_top" xlink:title="\u{2b50} Yena SWR 인터페이스 헤더 : DX9 (d3d9.h) 대응">
<polygon fill="white" stroke="#666666" points="69.25,-132 24,-132 24,-112 69.25,-112 69.25,-132"/>
<text xml:space="preserve" text-anchor="middle" x="46.62" y="-118.5" font-family="Helvetica,sans-Serif" font-size="10.00">ynx9.h</text>
</a>
</g>
</g>
<!-- Node2&#45;&gt;Node18 -->
<g id="edge26_Node000002_Node000018" class="edge">
<title>Node2&#45;&gt;Node18</title>
<g id="a_edge26_Node000002_Node000018"><a xlink:title=" ">
<path fill="none" stroke="#63b8ff" d="M405.48,-174.86C349.75,-169.52 203.87,-154.4 83.62,-132 82.63,-131.81 81.62,-131.62 80.6,-131.42"/>
<polygon fill="#63b8ff" stroke="#63b8ff" points="81.63,-128.06 71.11,-129.33 80.13,-134.89 81.63,-128.06"/>
</a>
</g>
</g>
<!-- Node19 -->
<g id="Node000019" class="node">
<title>Node19</title>
<g id="a_Node000019"><a xlink:href="yn_math_8h.html" target="_top" xlink:title="Yena Math Library for DirectX / OpenGL Yens SW Renderer v2.x.">
<polygon fill="white" stroke="#666666" points="590.88,-132 534.38,-132 534.38,-112 590.88,-112 590.88,-132"/>
<text xml:space="preserve" text-anchor="middle" x="562.62" y="-118.5" font-family="Helvetica,sans-Serif" font-size="10.00">ynMath.h</text>
</a>
</g>
</g>
<!-- Node2&#45;&gt;Node19 -->
<g id="edge28_Node000002_Node000019" class="edge">
<title>Node2&#45;&gt;Node19</title>
<g id="a_edge28_Node000002_Node000019"><a xlink:title=" ">
<path fill="none" stroke="#63b8ff" d="M451.97,-167.59C473.16,-159.05 504.69,-146.35 528.68,-136.68"/>
<polygon fill="#63b8ff" stroke="#63b8ff" points="529.73,-140.03 537.7,-133.05 527.11,-133.54 529.73,-140.03"/>
</a>
</g>
</g>
<!-- Node10&#45;&gt;Node3 -->
<g id="edge10_Node000010_Node000003" class="edge">
<title>Node10&#45;&gt;Node3</title>
<g id="a_edge10_Node000010_Node000003"><a xlink:title=" ">
<path fill="none" stroke="#63b8ff" d="M272.17,-111.52C271.05,-97.8 267.15,-72.27 253.62,-56 241.55,-41.47 223.6,-31.16 206.98,-24.1"/>
<polygon fill="#63b8ff" stroke="#63b8ff" points="208.32,-20.86 197.73,-20.47 205.77,-27.38 208.32,-20.86"/>
</a>
</g>
</g>
<!-- Node11 -->
<g id="Node000011" class="node">
<title>Node11</title>
<g id="a_Node000011"><a xlink:title=" ">
<polygon fill="#e0e0e0" stroke="#999999" points="244.25,-76 193,-76 193,-56 244.25,-56 244.25,-76"/>
<text xml:space="preserve" text-anchor="middle" x="218.62" y="-62.5" font-family="Helvetica,sans-Serif" font-size="10.00">assert.h</text>
</a>
</g>
</g>
<!-- Node10&#45;&gt;Node11 -->
<g id="edge11_Node000010_Node000011" class="edge">
<title>Node10&#45;&gt;Node11</title>
<g id="a_edge11_Node000010_Node000011"><a xlink:title=" ">
<path fill="none" stroke="#63b8ff" d="M263.22,-111.59C255.71,-104.08 244.98,-93.35 235.93,-84.3"/>
<polygon fill="#63b8ff" stroke="#63b8ff" points="238.54,-81.96 228.99,-77.37 233.59,-86.91 238.54,-81.96"/>
</a>
</g>
</g>
<!-- Node13 -->
<g id="Node000013" class="node">
<title>Node13</title>
<g id="a_Node000013"><a xlink:title=" ">
<polygon fill="#e0e0e0" stroke="#999999" points="779.62,-76 721.62,-76 721.62,-56 779.62,-56 779.62,-76"/>
<text xml:space="preserve" text-anchor="middle" x="750.62" y="-62.5" font-family="Helvetica,sans-Serif" font-size="10.00">exception</text>
</a>
</g>
</g>
<!-- Node12&#45;&gt;Node13 -->
<g id="edge13_Node000012_Node000013" class="edge">
<title>Node12&#45;&gt;Node13</title>
<g id="a_edge13_Node000012_Node000013"><a xlink:title=" ">
<path fill="none" stroke="#63b8ff" d="M750.62,-111.59C750.62,-105.01 750.62,-95.96 750.62,-87.73"/>
<polygon fill="#63b8ff" stroke="#63b8ff" points="754.13,-87.81 750.63,-77.81 747.13,-87.81 754.13,-87.81"/>
</a>
</g>
</g>
<!-- Node14&#45;&gt;Node3 -->
<g id="edge15_Node000014_Node000003" class="edge">
<title>Node14&#45;&gt;Node3</title>
<g id="a_edge15_Node000014_Node000003"><a xlink:title=" ">
<path fill="none" stroke="#63b8ff" d="M442.55,-111.65C460.43,-98.53 487.37,-74.22 471.62,-56 437.96,-17.04 283.35,-11.17 207.22,-10.7"/>
<polygon fill="#63b8ff" stroke="#63b8ff" points="207.67,-7.2 197.66,-10.67 207.65,-14.2 207.67,-7.2"/>
</a>
</g>
</g>
<!-- Node14&#45;&gt;Node4 -->
<g id="edge16_Node000014_Node000004" class="edge">
<title>Node14&#45;&gt;Node4</title>
<g id="a_edge16_Node000014_Node000004"><a xlink:title=" ">
<path fill="none" stroke="#63b8ff" d="M410.34,-111.59C394.32,-103.36 370.79,-91.26 352.28,-81.74"/>
<polygon fill="#63b8ff" stroke="#63b8ff" points="353.9,-78.63 343.4,-77.17 350.7,-84.86 353.9,-78.63"/>
</a>
</g>
</g>
<!-- Node14&#45;&gt;Node5 -->
<g id="edge17_Node000014_Node000005" class="edge">
<title>Node14&#45;&gt;Node5</title>
<g id="a_edge17_Node000014_Node000005"><a xlink:title=" ">
<path fill="none" stroke="#63b8ff" d="M421.48,-111.59C416.02,-104.39 408.3,-94.23 401.62,-85.43"/>
<polygon fill="#63b8ff" stroke="#63b8ff" points="404.43,-83.35 395.6,-77.5 398.86,-87.58 404.43,-83.35"/>
</a>
</g>
</g>
<!-- Node14&#45;&gt;Node6 -->
<g id="edge18_Node000014_Node000006" class="edge">
<title>Node14&#45;&gt;Node6</title>
<g id="a_edge18_Node000014_Node000006"><a xlink:title=" ">
<path fill="none" stroke="#63b8ff" d="M448.48,-111.59C466.11,-103.24 492.13,-90.92 512.35,-81.34"/>
<polygon fill="#63b8ff" stroke="#63b8ff" points="513.71,-84.57 521.24,-77.13 510.71,-78.25 513.71,-84.57"/>
</a>
</g>
</g>
<!-- Node14&#45;&gt;Node8 -->
<g id="edge19_Node000014_Node000008" class="edge">
<title>Node14&#45;&gt;Node8</title>
<g id="a_edge19_Node000014_Node000008"><a xlink:title=" ">
<path fill="none" stroke="#63b8ff" d="M459.22,-111.72C491.23,-102.01 541.29,-86.82 574.03,-76.89"/>
<polygon fill="#63b8ff" stroke="#63b8ff" points="574.82,-80.3 583.38,-74.05 572.79,-73.61 574.82,-80.3"/>
</a>
</g>
</g>
<!-- Node14&#45;&gt;Node9 -->
<g id="edge21_Node000014_Node000009" class="edge">
<title>Node14&#45;&gt;Node9</title>
<g id="a_edge21_Node000014_Node000009"><a xlink:title=" ">
<path fill="none" stroke="#63b8ff" d="M458.85,-113.97C461.81,-113.3 464.78,-112.63 467.62,-112 539.65,-96.07 560.47,-93.35 635.42,-76.45"/>
<polygon fill="#63b8ff" stroke="#63b8ff" points="635.91,-79.93 644.89,-74.3 634.36,-73.1 635.91,-79.93"/>
</a>
</g>
</g>
<!-- Node15 -->
<g id="Node000015" class="node">
<title>Node15</title>
<g id="a_Node000015"><a xlink:title=" ">
<polygon fill="#e0e0e0" stroke="#999999" points="463,-76 428.25,-76 428.25,-56 463,-56 463,-76"/>
<text xml:space="preserve" text-anchor="middle" x="445.62" y="-62.5" font-family="Helvetica,sans-Serif" font-size="10.00">map</text>
</a>
</g>
</g>
<!-- Node14&#45;&gt;Node15 -->
<g id="edge20_Node000014_Node000015" class="edge">
<title>Node14&#45;&gt;Node15</title>
<g id="a_edge20_Node000014_Node000015"><a xlink:title=" ">
<path fill="none" stroke="#63b8ff" d="M431.59,-111.59C433.71,-104.86 436.64,-95.53 439.28,-87.15"/>
<polygon fill="#63b8ff" stroke="#63b8ff" points="442.58,-88.33 442.24,-77.74 435.9,-86.23 442.58,-88.33"/>
</a>
</g>
</g>
<!-- Node16&#45;&gt;Node3 -->
<g id="edge23_Node000016_Node000003" class="edge">
<title>Node16&#45;&gt;Node3</title>
<g id="a_edge23_Node000016_Node000003"><a xlink:title=" ">
<path fill="none" stroke="#63b8ff" d="M173.77,-111.62C172.17,-94.01 168.68,-55.59 166.5,-31.65"/>
<polygon fill="#63b8ff" stroke="#63b8ff" points="170,-31.5 165.61,-21.86 163.03,-32.14 170,-31.5"/>
</a>
</g>
</g>
<!-- Node17&#45;&gt;Node3 -->
<g id="edge25_Node000017_Node000003" class="edge">
<title>Node17&#45;&gt;Node3</title>
<g id="a_edge25_Node000017_Node000003"><a xlink:title=" ">
<path fill="none" stroke="#63b8ff" d="M57.27,-55.59C77.74,-47.09 108.14,-34.46 131.37,-24.81"/>
<polygon fill="#63b8ff" stroke="#63b8ff" points="132.51,-28.13 140.41,-21.06 129.83,-21.66 132.51,-28.13"/>
</a>
</g>
</g>
<!-- Node18&#45;&gt;Node17 -->
<g id="edge27_Node000018_Node000017" class="edge">
<title>Node18&#45;&gt;Node17</title>
<g id="a_edge27_Node000018_Node000017"><a xlink:title=" ">
<path fill="none" stroke="#63b8ff" d="M44.53,-111.59C43.05,-104.93 41.01,-95.75 39.17,-87.44"/>
<polygon fill="#63b8ff" stroke="#63b8ff" points="42.61,-86.78 37.02,-77.78 35.77,-88.3 42.61,-86.78"/>
</a>
</g>
</g>
</g>
</svg>

<g id="navigator" transform="translate(0 0)" fill="#404254">
  <rect fill="#f2f5e9" fill-opacity="0.5" stroke="#606060" stroke-width=".5" x="0" y="0" width="60" height="60"/>
  <use id="zoomplus" xlink:href="#zoomPlus" x="17" y="9" onmousedown="handleZoom(evt,'in')"/>
  <use id="zoomminus" xlink:href="#zoomMin" x="42" y="9" onmousedown="handleZoom(evt,'out')"/>
  <use id="reset" xlink:href="#resetDef" x="30" y="36" onmousedown="handleReset()"/>
   <use id="arrowup" xlink:href="#arrowUp" x="0" y="0" onmousedown="handlePan(0,-1)"/>
  <use id="arrowright" xlink:href="#arrowRight" x="0" y="0" onmousedown="handlePan(1,0)"/>
  <use id="arrowdown" xlink:href="#arrowDown" x="0" y="0" onmousedown="handlePan(0,1)"/>
  <use id="arrowleft" xlink:href="#arrowLeft" x="0" y="0" onmousedown="handlePan(-1,0)"/>
</g>
<svg viewBox="0 0 15 15" width="100%" height="30px" preserveAspectRatio="xMaxYMin meet">
 <g id="arrow_out" transform="scale(0.3 0.3)">
  <a xlink:href="yn_error_8cpp__incl_org.svg" target="_base">
   <rect id="button" ry="5" rx="5" y="6" x="6" height="38" width="38"
        fill="#f2f5e9" fill-opacity="0.5" stroke="#606060" stroke-width="1.0"/>
   <path id="arrow"
     d="M 11.500037,31.436501 C 11.940474,20.09759 22.043105,11.32322 32.158766,21.979434 L 37.068811,17.246167 C 37.068811,17.246167 37.088388,32 37.088388,32 L 22.160133,31.978069 C 22.160133,31.978069 26.997745,27.140456 26.997745,27.140456 C 18.528582,18.264221 13.291696,25.230495 11.500037,31.436501 z"
     style="fill:#404040;"/>
  </a>
 </g>
</svg>

<style type='text/css'>
<![CDATA[
[data-mouse-over-selected='false'] { opacity: 0.7; }
[data-mouse-over-selected='true']  { opacity: 1.0; }
]]>
</style>
<script type="application/ecmascript"><![CDATA[
document.addEventListener('DOMContentLoaded', (event) => {
  highlightEdges();
  highlightAdjacentNodes();
});
]]></script>
</svg>
