<?xml version="1.0" encoding="UTF-8" standalone="no"?>
<!DOCTYPE svg PUBLIC "-//W3C//DTD SVG 1.1//EN"
 "http://www.w3.org/Graphics/SVG/1.1/DTD/svg11.dtd">
<!-- Generated by graphviz version 13.1.2 (20250808.2320)
 -->
<!-- Title: Yena/ynMath.cpp Pages: 1 -->
<svg width="530pt" height="196pt"
 viewBox="0.00 0.00 530.00 196.00" xmlns="http://www.w3.org/2000/svg" xmlns:xlink="http://www.w3.org/1999/xlink">
<g id="graph0" class="graph" transform="scale(1 1) rotate(0) translate(4 192)">
<title>Yena/ynMath.cpp</title>
<!-- Node1 -->
<g id="Node000001" class="node">
<title>Node1</title>
<g id="a_Node000001"><a xlink:title="\u{2b50} Yena 수학 라이브러리 Yena Math Library for DirectX / OpenGL">
<polygon fill="#999999" stroke="#666666" points="280.25,-188 188.5,-188 188.5,-168 280.25,-168 280.25,-188"/>
<text xml:space="preserve" text-anchor="middle" x="234.38" y="-174.5" font-family="Helvetica,sans-Serif" font-size="10.00">Yena/ynMath.cpp</text>
</a>
</g>
</g>
<!-- Node2 -->
<g id="Node000002" class="node">
<title>Node2</title>
<g id="a_Node000002"><a xlink:title=" ">
<polygon fill="#e0e0e0" stroke="#999999" points="64.75,-132 0,-132 0,-112 64.75,-112 64.75,-132"/>
<text xml:space="preserve" text-anchor="middle" x="32.38" y="-118.5" font-family="Helvetica,sans-Serif" font-size="10.00">Windows.h</text>
</a>
</g>
</g>
<!-- Node1&#45;&gt;Node2 -->
<g id="edge1_Node000001_Node000002" class="edge">
<title>Node1&#45;&gt;Node2</title>
<g id="a_edge1_Node000001_Node000002"><a xlink:title=" ">
<path fill="none" stroke="#63b8ff" d="M199.19,-167.59C164.97,-158.45 112.91,-144.53 76.06,-134.68"/>
<polygon fill="#63b8ff" stroke="#63b8ff" points="77.18,-131.35 66.61,-132.15 75.37,-138.12 77.18,-131.35"/>
</a>
</g>
</g>
<!-- Node3 -->
<g id="Node000003" class="node">
<title>Node3</title>
<g id="a_Node000003"><a xlink:title=" ">
<polygon fill="#e0e0e0" stroke="#999999" points="128,-132 82.75,-132 82.75,-112 128,-112 128,-132"/>
<text xml:space="preserve" text-anchor="middle" x="105.38" y="-118.5" font-family="Helvetica,sans-Serif" font-size="10.00">stdio.h</text>
</a>
</g>
</g>
<!-- Node1&#45;&gt;Node3 -->
<g id="edge2_Node000001_Node000003" class="edge">
<title>Node1&#45;&gt;Node3</title>
<g id="a_edge2_Node000001_Node000003"><a xlink:title=" ">
<path fill="none" stroke="#63b8ff" d="M211.9,-167.59C191.59,-159.09 161.42,-146.46 138.37,-136.81"/>
<polygon fill="#63b8ff" stroke="#63b8ff" points="139.99,-133.7 129.42,-133.06 137.29,-140.15 139.99,-133.7"/>
</a>
</g>
</g>
<!-- Node4 -->
<g id="Node000004" class="node">
<title>Node4</title>
<g id="a_Node000004"><a xlink:title=" ">
<polygon fill="#e0e0e0" stroke="#999999" points="193.12,-132 145.62,-132 145.62,-112 193.12,-112 193.12,-132"/>
<text xml:space="preserve" text-anchor="middle" x="169.38" y="-118.5" font-family="Helvetica,sans-Serif" font-size="10.00">stdlib.h</text>
</a>
</g>
</g>
<!-- Node1&#45;&gt;Node4 -->
<g id="edge3_Node000001_Node000004" class="edge">
<title>Node1&#45;&gt;Node4</title>
<g id="a_edge3_Node000001_Node000004"><a xlink:title=" ">
<path fill="none" stroke="#63b8ff" d="M223.05,-167.59C213.73,-159.85 200.3,-148.69 189.2,-139.47"/>
<polygon fill="#63b8ff" stroke="#63b8ff" points="191.66,-136.96 181.73,-133.27 187.19,-142.35 191.66,-136.96"/>
</a>
</g>
</g>
<!-- Node5 -->
<g id="Node000005" class="node">
<title>Node5</title>
<g id="a_Node000005"><a xlink:title=" ">
<polygon fill="#e0e0e0" stroke="#999999" points="257.38,-132 211.38,-132 211.38,-112 257.38,-112 257.38,-132"/>
<text xml:space="preserve" text-anchor="middle" x="234.38" y="-118.5" font-family="Helvetica,sans-Serif" font-size="10.00">math.h</text>
</a>
</g>
</g>
<!-- Node1&#45;&gt;Node5 -->
<g id="edge4_Node000001_Node000005" class="edge">
<title>Node1&#45;&gt;Node5</title>
<g id="a_edge4_Node000001_Node000005"><a xlink:title=" ">
<path fill="none" stroke="#63b8ff" d="M234.38,-167.59C234.38,-161.01 234.38,-151.96 234.38,-143.73"/>
<polygon fill="#63b8ff" stroke="#63b8ff" points="237.88,-143.81 234.38,-133.81 230.88,-143.81 237.88,-143.81"/>
</a>
</g>
</g>
<!-- Node6 -->
<g id="Node000006" class="node">
<title>Node6</title>
<g id="a_Node000006"><a xlink:title=" ">
<polygon fill="#e0e0e0" stroke="#999999" points="318.88,-132 275.88,-132 275.88,-112 318.88,-112 318.88,-132"/>
<text xml:space="preserve" text-anchor="middle" x="297.38" y="-118.5" font-family="Helvetica,sans-Serif" font-size="10.00">vector</text>
</a>
</g>
</g>
<!-- Node1&#45;&gt;Node6 -->
<g id="edge5_Node000001_Node000006" class="edge">
<title>Node1&#45;&gt;Node6</title>
<g id="a_edge5_Node000001_Node000006"><a xlink:title=" ">
<path fill="none" stroke="#63b8ff" d="M245.35,-167.59C254.29,-159.93 267.15,-148.91 277.84,-139.75"/>
<polygon fill="#63b8ff" stroke="#63b8ff" points="280.06,-142.45 285.38,-133.28 275.51,-137.13 280.06,-142.45"/>
</a>
</g>
</g>
<!-- Node7 -->
<g id="Node000007" class="node">
<title>Node7</title>
<g id="a_Node000007"><a xlink:title=" ">
<polygon fill="#e0e0e0" stroke="#999999" points="392.25,-132 336.5,-132 336.5,-112 392.25,-112 392.25,-132"/>
<text xml:space="preserve" text-anchor="middle" x="364.38" y="-118.5" font-family="Helvetica,sans-Serif" font-size="10.00">algorithm</text>
</a>
</g>
</g>
<!-- Node1&#45;&gt;Node7 -->
<g id="edge6_Node000001_Node000007" class="edge">
<title>Node1&#45;&gt;Node7</title>
<g id="a_edge6_Node000001_Node000007"><a xlink:title=" ">
<path fill="none" stroke="#63b8ff" d="M257.02,-167.59C277.49,-159.09 307.89,-146.46 331.12,-136.81"/>
<polygon fill="#63b8ff" stroke="#63b8ff" points="332.26,-140.13 340.16,-133.06 329.58,-133.66 332.26,-140.13"/>
</a>
</g>
</g>
<!-- Node8 -->
<g id="Node000008" class="node">
<title>Node8</title>
<g id="a_Node000008"><a xlink:href="yn_math_8h.html" target="_top" xlink:title="\u{2b50} Yena 수학 라이브러리 Yena Math Library for DirectX / OpenGL">
<polygon fill="white" stroke="#666666" points="466.62,-132 410.12,-132 410.12,-112 466.62,-112 466.62,-132"/>
<text xml:space="preserve" text-anchor="middle" x="438.38" y="-118.5" font-family="Helvetica,sans-Serif" font-size="10.00">ynMath.h</text>
</a>
</g>
</g>
<!-- Node1&#45;&gt;Node8 -->
<g id="edge7_Node000001_Node000008" class="edge">
<title>Node1&#45;&gt;Node8</title>
<g id="a_edge7_Node000001_Node000008"><a xlink:title=" ">
<path fill="none" stroke="#63b8ff" d="M269.91,-167.59C305.91,-158.06 361.48,-143.35 398.85,-133.46"/>
<polygon fill="#63b8ff" stroke="#63b8ff" points="399.59,-136.89 408.36,-130.95 397.8,-130.12 399.59,-136.89"/>
</a>
</g>
</g>
<!-- Node9 -->
<g id="Node000009" class="node">
<title>Node9</title>
<g id="a_Node000009"><a xlink:href="yn_define_8h.html" target="_top" xlink:title="Yena SW 엔진 기본 정의 문서.">
<polygon fill="white" stroke="#666666" points="425,-76 361.75,-76 361.75,-56 425,-56 425,-76"/>
<text xml:space="preserve" text-anchor="middle" x="393.38" y="-62.5" font-family="Helvetica,sans-Serif" font-size="10.00">ynDefine.h</text>
</a>
</g>
</g>
<!-- Node8&#45;&gt;Node9 -->
<g id="edge8_Node000008_Node000009" class="edge">
<title>Node8&#45;&gt;Node9</title>
<g id="a_edge8_Node000008_Node000009"><a xlink:title=" ">
<path fill="none" stroke="#63b8ff" d="M430.54,-111.59C424.41,-104.24 415.7,-93.8 408.26,-84.87"/>
<polygon fill="#63b8ff" stroke="#63b8ff" points="411.18,-82.9 402.09,-77.46 405.81,-87.38 411.18,-82.9"/>
</a>
</g>
</g>
<!-- Node12 -->
<g id="Node000012" class="node">
<title>Node12</title>
<g id="a_Node000012"><a xlink:title=" ">
<polygon fill="#e0e0e0" stroke="#999999" points="521.88,-76 442.88,-76 442.88,-56 521.88,-56 521.88,-76"/>
<text xml:space="preserve" text-anchor="middle" x="482.38" y="-62.5" font-family="Helvetica,sans-Serif" font-size="10.00">DirectXmath.h</text>
</a>
</g>
</g>
<!-- Node8&#45;&gt;Node12 -->
<g id="edge11_Node000008_Node000012" class="edge">
<title>Node8&#45;&gt;Node12</title>
<g id="a_edge11_Node000008_Node000012"><a xlink:title=" ">
<path fill="none" stroke="#63b8ff" d="M446.04,-111.59C451.97,-104.32 460.36,-94.02 467.59,-85.15"/>
<polygon fill="#63b8ff" stroke="#63b8ff" points="470.24,-87.43 473.84,-77.47 464.81,-83.01 470.24,-87.43"/>
</a>
</g>
</g>
<!-- Node10 -->
<g id="Node000010" class="node">
<title>Node10</title>
<g id="a_Node000010"><a xlink:title=" ">
<polygon fill="#e0e0e0" stroke="#999999" points="387.62,-20 325.12,-20 325.12,0 387.62,0 387.62,-20"/>
<text xml:space="preserve" text-anchor="middle" x="356.38" y="-6.5" font-family="Helvetica,sans-Serif" font-size="10.00">windows.h</text>
</a>
</g>
</g>
<!-- Node9&#45;&gt;Node10 -->
<g id="edge9_Node000009_Node000010" class="edge">
<title>Node9&#45;&gt;Node10</title>
<g id="a_edge9_Node000009_Node000010"><a xlink:title=" ">
<path fill="none" stroke="#63b8ff" d="M386.93,-55.59C382.05,-48.47 375.18,-38.45 369.2,-29.72"/>
<polygon fill="#63b8ff" stroke="#63b8ff" points="372.14,-27.82 363.6,-21.55 366.37,-31.77 372.14,-27.82"/>
</a>
</g>
</g>
<!-- Node11 -->
<g id="Node000011" class="node">
<title>Node11</title>
<g id="a_Node000011"><a xlink:title=" ">
<polygon fill="#e0e0e0" stroke="#999999" points="457,-20 405.75,-20 405.75,0 457,0 457,-20"/>
<text xml:space="preserve" text-anchor="middle" x="431.38" y="-6.5" font-family="Helvetica,sans-Serif" font-size="10.00">assert.h</text>
</a>
</g>
</g>
<!-- Node9&#45;&gt;Node11 -->
<g id="edge10_Node000009_Node000011" class="edge">
<title>Node9&#45;&gt;Node11</title>
<g id="a_edge10_Node000009_Node000011"><a xlink:title=" ">
<path fill="none" stroke="#63b8ff" d="M399.99,-55.59C405.06,-48.39 412.21,-38.23 418.4,-29.43"/>
<polygon fill="#63b8ff" stroke="#63b8ff" points="421.07,-31.73 423.96,-21.54 415.34,-27.7 421.07,-31.73"/>
</a>
</g>
</g>
</g>
</svg>
