<?xml version="1.0" encoding="UTF-8" standalone="no"?>
<!DOCTYPE svg PUBLIC "-//W3C//DTD SVG 1.1//EN"
 "http://www.w3.org/Graphics/SVG/1.1/DTD/svg11.dtd">
<!-- Generated by graphviz version 12.2.0 (20241103.1931)
 -->
<!-- Title: ynLerp Pages: 1 -->
<svg width="693pt" height="226pt"
 viewBox="0.00 0.00 693.25 226.00" xmlns="http://www.w3.org/2000/svg" xmlns:xlink="http://www.w3.org/1999/xlink">
<g id="graph0" class="graph" transform="scale(1 1) rotate(0) translate(4 222)">
<title>ynLerp</title>
<!-- Node1 -->
<g id="Node000001" class="node">
<title>Node1</title>
<g id="a_Node000001"><a xlink:title="선형보간 (Linear Interpolation) 함수">
<polygon fill="#999999" stroke="#666666" points="685.25,-115 640,-115 640,-95 685.25,-95 685.25,-115"/>
<text text-anchor="middle" x="662.62" y="-101.5" font-family="Helvetica,sans-Serif" font-size="10.00">ynLerp</text>
</a>
</g>
</g>
<!-- Node2 -->
<g id="Node000002" class="node">
<title>Node2</title>
<g id="a_Node000002"><a xlink:href="class_b3_yena_graphics_engine9_aba9159be985678d17c68343609158f55.html#aba9159be985678d17c68343609158f55" target="_top" xlink:title=" ">
<polygon fill="white" stroke="#666666" points="444,-218 320,-218 320,-186 444,-186 444,-218"/>
<text text-anchor="start" x="328" y="-204.5" font-family="Helvetica,sans-Serif" font-size="10.00">B3YenaGraphicsEngine9</text>
<text text-anchor="middle" x="382" y="-192.5" font-family="Helvetica,sans-Serif" font-size="10.00">::_Face</text>
</a>
</g>
</g>
<!-- Node1&#45;&gt;Node2 -->
<g id="edge1_Node000001_Node000002" class="edge">
<title>Node1&#45;&gt;Node2</title>
<g id="a_edge1_Node000001_Node000002"><a xlink:title=" ">
<path fill="none" stroke="#63b8ff" d="M654.45,-125.94C645.99,-147.01 629.75,-178.4 604,-193 555.57,-220.47 491.1,-219.71 444.3,-213.88"/>
<polygon fill="#63b8ff" stroke="#63b8ff" points="657.71,-127.22 657.92,-116.62 651.15,-124.78 657.71,-127.22"/>
</a>
</g>
</g>
<!-- Node5 -->
<g id="Node000005" class="node">
<title>Node5</title>
<g id="a_Node000005"><a xlink:href="class_b3_yena_graphics_engine9_a0a5e0617f78fc8258ed3681b40e54d2f.html#a0a5e0617f78fc8258ed3681b40e54d2f" target="_top" xlink:title=" ">
<polygon fill="white" stroke="#666666" points="604,-184 480,-184 480,-152 604,-152 604,-184"/>
<text text-anchor="start" x="488" y="-170.5" font-family="Helvetica,sans-Serif" font-size="10.00">B3YenaGraphicsEngine9</text>
<text text-anchor="middle" x="542" y="-158.5" font-family="Helvetica,sans-Serif" font-size="10.00">::_HLine</text>
</a>
</g>
</g>
<!-- Node1&#45;&gt;Node5 -->
<g id="edge4_Node000001_Node000005" class="edge">
<title>Node1&#45;&gt;Node5</title>
<g id="a_edge4_Node000001_Node000005"><a xlink:title=" ">
<path fill="none" stroke="#63b8ff" d="M634.39,-121.07C624.85,-126.57 614.02,-132.68 604,-138 595.45,-142.54 586.13,-147.25 577.39,-151.56"/>
<polygon fill="#63b8ff" stroke="#63b8ff" points="635.94,-124.21 642.82,-116.16 632.42,-118.16 635.94,-124.21"/>
</a>
</g>
</g>
<!-- Node6 -->
<g id="Node000006" class="node">
<title>Node6</title>
<g id="a_Node000006"><a xlink:href="class_b3_yena_graphics_engine9_ae6dcfe218b309e6c35e5ebfc8d2d25a7.html#ae6dcfe218b309e6c35e5ebfc8d2d25a7" target="_top" xlink:title=" ">
<polygon fill="white" stroke="#666666" points="444,-159 320,-159 320,-127 444,-127 444,-159"/>
<text text-anchor="start" x="328" y="-145.5" font-family="Helvetica,sans-Serif" font-size="10.00">B3YenaGraphicsEngine9</text>
<text text-anchor="middle" x="382" y="-133.5" font-family="Helvetica,sans-Serif" font-size="10.00">::_Line</text>
</a>
</g>
</g>
<!-- Node1&#45;&gt;Node6 -->
<g id="edge7_Node000001_Node000006" class="edge">
<title>Node1&#45;&gt;Node6</title>
<g id="a_edge7_Node000001_Node000006"><a xlink:title=" ">
<path fill="none" stroke="#63b8ff" d="M628.54,-109.51C583.24,-115.69 501.06,-126.9 444.33,-134.64"/>
<polygon fill="#63b8ff" stroke="#63b8ff" points="628.83,-113.01 638.26,-108.19 627.88,-106.07 628.83,-113.01"/>
</a>
</g>
</g>
<!-- Node7 -->
<g id="Node000007" class="node">
<title>Node7</title>
<g id="a_Node000007"><a xlink:href="yn_math_8cpp_ab2c73f58aab9838f1c03246a6c3d1055.html#ab2c73f58aab9838f1c03246a6c3d1055" target="_top" xlink:title=" ">
<polygon fill="white" stroke="#666666" points="572.5,-96 511.5,-96 511.5,-76 572.5,-76 572.5,-96"/>
<text text-anchor="middle" x="542" y="-82.5" font-family="Helvetica,sans-Serif" font-size="10.00">ynFaceFill</text>
</a>
</g>
</g>
<!-- Node1&#45;&gt;Node7 -->
<g id="edge8_Node000001_Node000007" class="edge">
<title>Node1&#45;&gt;Node7</title>
<g id="a_edge8_Node000001_Node000007"><a xlink:title=" ">
<path fill="none" stroke="#63b8ff" d="M628.25,-99.65C610.88,-96.87 589.81,-93.5 572.97,-90.8"/>
<polygon fill="#63b8ff" stroke="#63b8ff" points="627.67,-103.11 638.1,-101.23 628.78,-96.19 627.67,-103.11"/>
</a>
</g>
</g>
<!-- Node8 -->
<g id="Node000008" class="node">
<title>Node8</title>
<g id="a_Node000008"><a xlink:href="yn_math_8cpp_ab59de7dba0161c2522b91b007c788683.html#ab59de7dba0161c2522b91b007c788683" target="_top" xlink:title=" ">
<polygon fill="white" stroke="#666666" points="568,-58 516,-58 516,-38 568,-38 568,-58"/>
<text text-anchor="middle" x="542" y="-44.5" font-family="Helvetica,sans-Serif" font-size="10.00">ynHLine</text>
</a>
</g>
</g>
<!-- Node1&#45;&gt;Node8 -->
<g id="edge9_Node000001_Node000008" class="edge">
<title>Node1&#45;&gt;Node8</title>
<g id="a_edge9_Node000001_Node000008"><a xlink:title=" ">
<path fill="none" stroke="#63b8ff" d="M639.41,-88.23C629.05,-80.98 616.31,-72.83 604,-67 592.67,-61.63 579.46,-57.3 568.23,-54.14"/>
<polygon fill="#63b8ff" stroke="#63b8ff" points="637.14,-90.91 647.3,-93.92 641.24,-85.23 637.14,-90.91"/>
</a>
</g>
</g>
<!-- Node9 -->
<g id="Node000009" class="node">
<title>Node9</title>
<g id="a_Node000009"><a xlink:href="yn_math_8cpp_a0b334395c09fbc1b9841abcb1159adc9.html#a0b334395c09fbc1b9841abcb1159adc9" target="_top" xlink:title=" ">
<polygon fill="white" stroke="#666666" points="564.25,-20 519.75,-20 519.75,0 564.25,0 564.25,-20"/>
<text text-anchor="middle" x="542" y="-6.5" font-family="Helvetica,sans-Serif" font-size="10.00">ynLine</text>
</a>
</g>
</g>
<!-- Node1&#45;&gt;Node9 -->
<g id="edge10_Node000001_Node000009" class="edge">
<title>Node1&#45;&gt;Node9</title>
<g id="a_edge10_Node000001_Node000009"><a xlink:title=" ">
<path fill="none" stroke="#63b8ff" d="M651.09,-84.85C641.13,-67.66 624.65,-43.5 604,-29 592.29,-20.78 576.89,-16.02 564.5,-13.32"/>
<polygon fill="#63b8ff" stroke="#63b8ff" points="647.8,-86.12 655.7,-93.18 653.92,-82.73 647.8,-86.12"/>
</a>
</g>
</g>
<!-- Node3 -->
<g id="Node000003" class="node">
<title>Node3</title>
<g id="a_Node000003"><a xlink:href="class_b3_yena_graphics_engine9_aeebbaf1081457875a8f5923ba8569424.html#aeebbaf1081457875a8f5923ba8569424" target="_top" xlink:title="픽셀 파이프 라인 연산을 수행. \u{2b50}">
<polygon fill="white" stroke="#666666" points="284,-218 160,-218 160,-186 284,-186 284,-218"/>
<text text-anchor="start" x="168" y="-204.5" font-family="Helvetica,sans-Serif" font-size="10.00">B3YenaGraphicsEngine9</text>
<text text-anchor="middle" x="222" y="-192.5" font-family="Helvetica,sans-Serif" font-size="10.00">::_PixelPipeline</text>
</a>
</g>
</g>
<!-- Node2&#45;&gt;Node3 -->
<g id="edge2_Node000002_Node000003" class="edge">
<title>Node2&#45;&gt;Node3</title>
<g id="a_edge2_Node000002_Node000003"><a xlink:title=" ">
<path fill="none" stroke="#63b8ff" d="M308.6,-202C300.53,-202 292.36,-202 284.45,-202"/>
<polygon fill="#63b8ff" stroke="#63b8ff" points="308.4,-205.5 318.4,-202 308.4,-198.5 308.4,-205.5"/>
</a>
</g>
</g>
<!-- Node4 -->
<g id="Node000004" class="node">
<title>Node4</title>
<g id="a_Node000004"><a xlink:href="class_b3_yena_graphics_engine9_a9124b197c0763305a85b3d27dc71ac87.html#a9124b197c0763305a85b3d27dc71ac87" target="_top" xlink:title="그래픽 엔진, 렌더링 시작. \u{2b50}">
<polygon fill="white" stroke="#666666" points="124,-218 0,-218 0,-186 124,-186 124,-218"/>
<text text-anchor="start" x="8" y="-204.5" font-family="Helvetica,sans-Serif" font-size="10.00">B3YenaGraphicsEngine9</text>
<text text-anchor="middle" x="62" y="-192.5" font-family="Helvetica,sans-Serif" font-size="10.00">::Draw</text>
</a>
</g>
</g>
<!-- Node3&#45;&gt;Node4 -->
<g id="edge3_Node000003_Node000004" class="edge">
<title>Node3&#45;&gt;Node4</title>
<g id="a_edge3_Node000003_Node000004"><a xlink:title=" ">
<path fill="none" stroke="#63b8ff" d="M148.6,-202C140.53,-202 132.36,-202 124.45,-202"/>
<polygon fill="#63b8ff" stroke="#63b8ff" points="148.4,-205.5 158.4,-202 148.4,-198.5 148.4,-205.5"/>
</a>
</g>
</g>
<!-- Node5&#45;&gt;Node2 -->
<g id="edge5_Node000005_Node000002" class="edge">
<title>Node5&#45;&gt;Node2</title>
<g id="a_edge5_Node000005_Node000002"><a xlink:title=" ">
<path fill="none" stroke="#63b8ff" d="M468.88,-183.52C460.71,-185.28 452.45,-187.05 444.45,-188.78"/>
<polygon fill="#63b8ff" stroke="#63b8ff" points="469.39,-186.99 478.43,-181.46 467.92,-180.15 469.39,-186.99"/>
</a>
</g>
</g>
<!-- Node5&#45;&gt;Node6 -->
<g id="edge6_Node000005_Node000006" class="edge">
<title>Node5&#45;&gt;Node6</title>
<g id="a_edge6_Node000005_Node000006"><a xlink:title=" ">
<path fill="none" stroke="#63b8ff" d="M468.6,-156.54C460.53,-155.27 452.36,-153.98 444.45,-152.72"/>
<polygon fill="#63b8ff" stroke="#63b8ff" points="467.99,-159.99 478.42,-158.1 469.09,-153.08 467.99,-159.99"/>
</a>
</g>
</g>
</g>
</svg>
