<?xml version="1.0" encoding="UTF-8" standalone="no"?>
<!DOCTYPE svg PUBLIC "-//W3C//DTD SVG 1.1//EN"
 "http://www.w3.org/Graphics/SVG/1.1/DTD/svg11.dtd">
<!-- Generated by graphviz version 12.2.0 (20241103.1931)
 -->
<!-- Title: B3YXVec4Transform Pages: 1 -->
<svg width="596pt" height="40pt"
 viewBox="0.00 0.00 595.50 40.00" xmlns="http://www.w3.org/2000/svg" xmlns:xlink="http://www.w3.org/1999/xlink">
<g id="graph0" class="graph" transform="scale(1 1) rotate(0) translate(4 36)">
<title>B3YXVec4Transform</title>
<!-- Node1 -->
<g id="Node000001" class="node">
<title>Node1</title>
<g id="a_Node000001"><a xlink:title="벡터&#45;행렬 곱 함수. Out = v * M; \u{2b50}">
<polygon fill="#999999" stroke="#666666" points="587.5,-26 480,-26 480,-6 587.5,-6 587.5,-26"/>
<text text-anchor="middle" x="533.75" y="-12.5" font-family="Helvetica,sans-Serif" font-size="10.00">B3YXVec4Transform</text>
</a>
</g>
</g>
<!-- Node2 -->
<g id="Node000002" class="node">
<title>Node2</title>
<g id="a_Node000002"><a xlink:href="class_b3_yena_graphics_engine9_a340a88105c8835a68c96a7c73b4d8a39.html#a340a88105c8835a68c96a7c73b4d8a39" target="_top" xlink:title=" ">
<polygon fill="white" stroke="#666666" points="444,-32 320,-32 320,0 444,0 444,-32"/>
<text text-anchor="start" x="328" y="-18.5" font-family="Helvetica,sans-Serif" font-size="10.00">B3YenaGraphicsEngine9</text>
<text text-anchor="middle" x="382" y="-6.5" font-family="Helvetica,sans-Serif" font-size="10.00">::_TnL_VP</text>
</a>
</g>
</g>
<!-- Node1&#45;&gt;Node2 -->
<g id="edge1_Node000001_Node000002" class="edge">
<title>Node1&#45;&gt;Node2</title>
<g id="a_edge1_Node000001_Node000002"><a xlink:title=" ">
<path fill="none" stroke="#63b8ff" d="M468.17,-16C460.31,-16 452.29,-16 444.48,-16"/>
<polygon fill="#63b8ff" stroke="#63b8ff" points="468.02,-19.5 478.02,-16 468.02,-12.5 468.02,-19.5"/>
</a>
</g>
</g>
<!-- Node3 -->
<g id="Node000003" class="node">
<title>Node3</title>
<g id="a_Node000003"><a xlink:href="class_b3_yena_graphics_engine9_a55b4c9d7359aa2cbfe5f1ad030bdc036.html#a55b4c9d7359aa2cbfe5f1ad030bdc036" target="_top" xlink:title="정점 파이프 라인 연산을 수행. \u{2b50}">
<polygon fill="white" stroke="#666666" points="284,-32 160,-32 160,0 284,0 284,-32"/>
<text text-anchor="start" x="168" y="-18.5" font-family="Helvetica,sans-Serif" font-size="10.00">B3YenaGraphicsEngine9</text>
<text text-anchor="middle" x="222" y="-6.5" font-family="Helvetica,sans-Serif" font-size="10.00">::_VertexPipeline</text>
</a>
</g>
</g>
<!-- Node2&#45;&gt;Node3 -->
<g id="edge2_Node000002_Node000003" class="edge">
<title>Node2&#45;&gt;Node3</title>
<g id="a_edge2_Node000002_Node000003"><a xlink:title=" ">
<path fill="none" stroke="#63b8ff" d="M308.6,-16C300.53,-16 292.36,-16 284.45,-16"/>
<polygon fill="#63b8ff" stroke="#63b8ff" points="308.4,-19.5 318.4,-16 308.4,-12.5 308.4,-19.5"/>
</a>
</g>
</g>
<!-- Node4 -->
<g id="Node000004" class="node">
<title>Node4</title>
<g id="a_Node000004"><a xlink:href="class_b3_yena_graphics_engine9_a9124b197c0763305a85b3d27dc71ac87.html#a9124b197c0763305a85b3d27dc71ac87" target="_top" xlink:title="그래픽 엔진, 렌더링 시작. \u{2b50}">
<polygon fill="white" stroke="#666666" points="124,-32 0,-32 0,0 124,0 124,-32"/>
<text text-anchor="start" x="8" y="-18.5" font-family="Helvetica,sans-Serif" font-size="10.00">B3YenaGraphicsEngine9</text>
<text text-anchor="middle" x="62" y="-6.5" font-family="Helvetica,sans-Serif" font-size="10.00">::Draw</text>
</a>
</g>
</g>
<!-- Node3&#45;&gt;Node4 -->
<g id="edge3_Node000003_Node000004" class="edge">
<title>Node3&#45;&gt;Node4</title>
<g id="a_edge3_Node000003_Node000004"><a xlink:title=" ">
<path fill="none" stroke="#63b8ff" d="M148.6,-16C140.53,-16 132.36,-16 124.45,-16"/>
<polygon fill="#63b8ff" stroke="#63b8ff" points="148.4,-19.5 158.4,-16 148.4,-12.5 148.4,-19.5"/>
</a>
</g>
</g>
</g>
</svg>
