<?xml version="1.0" encoding="UTF-8" standalone="no"?>
<!DOCTYPE svg PUBLIC "-//W3C//DTD SVG 1.1//EN"
 "http://www.w3.org/Graphics/SVG/1.1/DTD/svg11.dtd">
<!-- Generated by graphviz version 13.1.2 (20250808.2320)
 -->
<!-- Title: Yena/ynMath.cpp Pages: 1 -->
<svg width="475pt" height="84pt"
 viewBox="0.00 0.00 475.00 84.00" xmlns="http://www.w3.org/2000/svg" xmlns:xlink="http://www.w3.org/1999/xlink">
<g id="graph0" class="graph" transform="scale(1 1) rotate(0) translate(4 80)">
<title>Yena/ynMath.cpp</title>
<!-- Node1 -->
<g id="Node000001" class="node">
<title>Node1</title>
<g id="a_Node000001"><a xlink:title="Yena Math Library for DirectX / OpenGL Yens SW Renderer v2.x.">
<polygon fill="#999999" stroke="#666666" points="280.25,-76 188.5,-76 188.5,-56 280.25,-56 280.25,-76"/>
<text xml:space="preserve" text-anchor="middle" x="234.38" y="-62.5" font-family="Helvetica,sans-Serif" font-size="10.00">Yena/ynMath.cpp</text>
</a>
</g>
</g>
<!-- Node2 -->
<g id="Node000002" class="node">
<title>Node2</title>
<g id="a_Node000002"><a xlink:title=" ">
<polygon fill="#e0e0e0" stroke="#999999" points="64.75,-20 0,-20 0,0 64.75,0 64.75,-20"/>
<text xml:space="preserve" text-anchor="middle" x="32.38" y="-6.5" font-family="Helvetica,sans-Serif" font-size="10.00">Windows.h</text>
</a>
</g>
</g>
<!-- Node1&#45;&gt;Node2 -->
<g id="edge1_Node000001_Node000002" class="edge">
<title>Node1&#45;&gt;Node2</title>
<g id="a_edge1_Node000001_Node000002"><a xlink:title=" ">
<path fill="none" stroke="#63b8ff" d="M199.19,-55.59C164.97,-46.45 112.91,-32.53 76.06,-22.68"/>
<polygon fill="#63b8ff" stroke="#63b8ff" points="77.18,-19.35 66.61,-20.15 75.37,-26.12 77.18,-19.35"/>
</a>
</g>
</g>
<!-- Node3 -->
<g id="Node000003" class="node">
<title>Node3</title>
<g id="a_Node000003"><a xlink:title=" ">
<polygon fill="#e0e0e0" stroke="#999999" points="128,-20 82.75,-20 82.75,0 128,0 128,-20"/>
<text xml:space="preserve" text-anchor="middle" x="105.38" y="-6.5" font-family="Helvetica,sans-Serif" font-size="10.00">stdio.h</text>
</a>
</g>
</g>
<!-- Node1&#45;&gt;Node3 -->
<g id="edge2_Node000001_Node000003" class="edge">
<title>Node1&#45;&gt;Node3</title>
<g id="a_edge2_Node000001_Node000003"><a xlink:title=" ">
<path fill="none" stroke="#63b8ff" d="M211.9,-55.59C191.59,-47.09 161.42,-34.46 138.37,-24.81"/>
<polygon fill="#63b8ff" stroke="#63b8ff" points="139.99,-21.7 129.42,-21.06 137.29,-28.15 139.99,-21.7"/>
</a>
</g>
</g>
<!-- Node4 -->
<g id="Node000004" class="node">
<title>Node4</title>
<g id="a_Node000004"><a xlink:title=" ">
<polygon fill="#e0e0e0" stroke="#999999" points="193.12,-20 145.62,-20 145.62,0 193.12,0 193.12,-20"/>
<text xml:space="preserve" text-anchor="middle" x="169.38" y="-6.5" font-family="Helvetica,sans-Serif" font-size="10.00">stdlib.h</text>
</a>
</g>
</g>
<!-- Node1&#45;&gt;Node4 -->
<g id="edge3_Node000001_Node000004" class="edge">
<title>Node1&#45;&gt;Node4</title>
<g id="a_edge3_Node000001_Node000004"><a xlink:title=" ">
<path fill="none" stroke="#63b8ff" d="M223.05,-55.59C213.73,-47.85 200.3,-36.69 189.2,-27.47"/>
<polygon fill="#63b8ff" stroke="#63b8ff" points="191.66,-24.96 181.73,-21.27 187.19,-30.35 191.66,-24.96"/>
</a>
</g>
</g>
<!-- Node5 -->
<g id="Node000005" class="node">
<title>Node5</title>
<g id="a_Node000005"><a xlink:title=" ">
<polygon fill="#e0e0e0" stroke="#999999" points="257.38,-20 211.38,-20 211.38,0 257.38,0 257.38,-20"/>
<text xml:space="preserve" text-anchor="middle" x="234.38" y="-6.5" font-family="Helvetica,sans-Serif" font-size="10.00">math.h</text>
</a>
</g>
</g>
<!-- Node1&#45;&gt;Node5 -->
<g id="edge4_Node000001_Node000005" class="edge">
<title>Node1&#45;&gt;Node5</title>
<g id="a_edge4_Node000001_Node000005"><a xlink:title=" ">
<path fill="none" stroke="#63b8ff" d="M234.38,-55.59C234.38,-49.01 234.38,-39.96 234.38,-31.73"/>
<polygon fill="#63b8ff" stroke="#63b8ff" points="237.88,-31.81 234.38,-21.81 230.88,-31.81 237.88,-31.81"/>
</a>
</g>
</g>
<!-- Node6 -->
<g id="Node000006" class="node">
<title>Node6</title>
<g id="a_Node000006"><a xlink:title=" ">
<polygon fill="#e0e0e0" stroke="#999999" points="318.88,-20 275.88,-20 275.88,0 318.88,0 318.88,-20"/>
<text xml:space="preserve" text-anchor="middle" x="297.38" y="-6.5" font-family="Helvetica,sans-Serif" font-size="10.00">vector</text>
</a>
</g>
</g>
<!-- Node1&#45;&gt;Node6 -->
<g id="edge5_Node000001_Node000006" class="edge">
<title>Node1&#45;&gt;Node6</title>
<g id="a_edge5_Node000001_Node000006"><a xlink:title=" ">
<path fill="none" stroke="#63b8ff" d="M245.35,-55.59C254.29,-47.93 267.15,-36.91 277.84,-27.75"/>
<polygon fill="#63b8ff" stroke="#63b8ff" points="280.06,-30.45 285.38,-21.28 275.51,-25.13 280.06,-30.45"/>
</a>
</g>
</g>
<!-- Node7 -->
<g id="Node000007" class="node">
<title>Node7</title>
<g id="a_Node000007"><a xlink:title=" ">
<polygon fill="#e0e0e0" stroke="#999999" points="392.25,-20 336.5,-20 336.5,0 392.25,0 392.25,-20"/>
<text xml:space="preserve" text-anchor="middle" x="364.38" y="-6.5" font-family="Helvetica,sans-Serif" font-size="10.00">algorithm</text>
</a>
</g>
</g>
<!-- Node1&#45;&gt;Node7 -->
<g id="edge6_Node000001_Node000007" class="edge">
<title>Node1&#45;&gt;Node7</title>
<g id="a_edge6_Node000001_Node000007"><a xlink:title=" ">
<path fill="none" stroke="#63b8ff" d="M257.02,-55.59C277.49,-47.09 307.89,-34.46 331.12,-24.81"/>
<polygon fill="#63b8ff" stroke="#63b8ff" points="332.26,-28.13 340.16,-21.06 329.58,-21.66 332.26,-28.13"/>
</a>
</g>
</g>
<!-- Node8 -->
<g id="Node000008" class="node">
<title>Node8</title>
<g id="a_Node000008"><a xlink:href="yn_math_8h.html" target="_top" xlink:title="Yena Math Library for DirectX / OpenGL Yens SW Renderer v2.x.">
<polygon fill="white" stroke="#666666" points="466.62,-20 410.12,-20 410.12,0 466.62,0 466.62,-20"/>
<text xml:space="preserve" text-anchor="middle" x="438.38" y="-6.5" font-family="Helvetica,sans-Serif" font-size="10.00">ynMath.h</text>
</a>
</g>
</g>
<!-- Node1&#45;&gt;Node8 -->
<g id="edge7_Node000001_Node000008" class="edge">
<title>Node1&#45;&gt;Node8</title>
<g id="a_edge7_Node000001_Node000008"><a xlink:title=" ">
<path fill="none" stroke="#63b8ff" d="M269.91,-55.59C305.91,-46.06 361.48,-31.35 398.85,-21.46"/>
<polygon fill="#63b8ff" stroke="#63b8ff" points="399.59,-24.89 408.36,-18.95 397.8,-18.12 399.59,-24.89"/>
</a>
</g>
</g>
</g>
</svg>
