<?xml version="1.0" encoding="UTF-8" standalone="no"?>
<!DOCTYPE svg PUBLIC "-//W3C//DTD SVG 1.1//EN"
 "http://www.w3.org/Graphics/SVG/1.1/DTD/svg11.dtd">
<!-- Generated by graphviz version 12.2.0 (20241103.1931)
 -->
<!-- Title: B3YXMatrixIdentity Pages: 1 -->
<!--zoomable 154 -->

<svg id="main" version="1.1" xmlns="http://www.w3.org/2000/svg" xmlns:xlink="http://www.w3.org/1999/xlink" xml:space="preserve" onload="init(evt)">

<style type="text/css"><![CDATA[
.node, .edge {opacity: 0.7;}
.node.selected, .edge.selected {opacity: 1;}
.edge:hover path { stroke: red; }
.edge:hover polygon { stroke: red; fill: red; }
]]></style>

<defs>
  <circle id="rim" cx="0" cy="0" r="7"/>
  <circle id="rim2" cx="0" cy="0" r="3.5"/>
  <g id="zoomPlus">
    <use xlink:href="#rim" fill="#404040"><set attributeName="fill" to="#808080" begin="zoomplus.mouseover" end="zoomplus.mouseout"/></use>
    <path d="M-4,0h8M0,-4v8" fill="none" stroke="white" stroke-width="1.5" pointer-events="none"/>
  </g>
  <g id="zoomMin">
    <use xlink:href="#rim" fill="#404040"><set attributeName="fill" to="#808080" begin="zoomminus.mouseover" end="zoomminus.mouseout"/></use>
    <path d="M-4,0h8" fill="none" stroke="white" stroke-width="1.5" pointer-events="none"/>
  </g>
  <g id="arrowUp" transform="translate(30 24)">
    <use xlink:href="#rim"/>
    <path pointer-events="none" fill="none" stroke="white" stroke-width="1.5" d="M0,-3.0v7 M-2.5,-0.5L0,-3.0L2.5,-0.5"/>
  </g>
  <g id="arrowRight" transform="rotate(90) translate(36 -43)">
    <use xlink:href="#rim"/>
    <path pointer-events="none" fill="none" stroke="white" stroke-width="1.5" d="M0,-3.0v7 M-2.5,-0.5L0,-3.0L2.5,-0.5"/>
  </g>
  <g id="arrowDown" transform="rotate(180) translate(-30 -48)">
    <use xlink:href="#rim"/>
    <path pointer-events="none" fill="none" stroke="white" stroke-width="1.5" d="M0,-3.0v7 M-2.5,-0.5L0,-3.0L2.5,-0.5"/>
  </g>
  <g id="arrowLeft" transform="rotate(270) translate(-36 17)">
    <use xlink:href="#rim"/>
    <path pointer-events="none" fill="none" stroke="white" stroke-width="1.5" d="M0,-3.0v7 M-2.5,-0.5L0,-3.0L2.5,-0.5"/>
  </g>
  <g id="resetDef">
    <use xlink:href="#rim2" fill="#404040"><set attributeName="fill" to="#808080" begin="reset.mouseover" end="reset.mouseout"/></use>
  </g>
</defs>
<script type="application/ecmascript">
var viewWidth = 636;
var viewHeight = 154;
var sectionId = 'dynsection-0';
</script>
<script type="application/ecmascript" xlink:href="svg.min.js"/>
<svg id="graph" class="graph">
<g id="viewport">
<title>B3YXMatrixIdentity</title>
<!-- Node1 -->
<g id="Node000001" class="node">
<title>Node1</title>
<g id="a_Node000001"><a xlink:title="행렬 단위화(초기화) 함수">
<polygon fill="#999999" stroke="#666666" points="628.25,-89 527.5,-89 527.5,-69 628.25,-69 628.25,-89"/>
<text text-anchor="middle" x="577.88" y="-75.5" font-family="Helvetica,sans-Serif" font-size="10.00">B3YXMatrixIdentity</text>
</a>
</g>
</g>
<!-- Node2 -->
<g id="Node000002" class="node">
<title>Node2</title>
<g id="a_Node000002"><a xlink:href="yn_math_8cpp_ad6d8d9ec90c4ebdef634fc0a5a3a4c92.html#ad6d8d9ec90c4ebdef634fc0a5a3a4c92" target="_top" xlink:title="X 축 회전 행렬 계산 \u{2b50}">
<polygon fill="white" stroke="#666666" points="485.5,-146 373.5,-146 373.5,-126 485.5,-126 485.5,-146"/>
<text text-anchor="middle" x="429.5" y="-132.5" font-family="Helvetica,sans-Serif" font-size="10.00">B3YXMatrixRotationX</text>
</a>
</g>
</g>
<!-- Node1&#45;&gt;Node2 -->
<g id="edge1_Node000001_Node000002" class="edge">
<title>Node1&#45;&gt;Node2</title>
<g id="a_edge1_Node000001_Node000002"><a xlink:title=" ">
<path fill="none" stroke="#63b8ff" d="M545.06,-94.22C529.16,-101.56 509.51,-110.21 491.5,-117 483.51,-120.01 474.8,-122.93 466.54,-125.54"/>
<polygon fill="#63b8ff" stroke="#63b8ff" points="546.46,-97.43 554.04,-90.03 543.5,-91.09 546.46,-97.43"/>
</a>
</g>
</g>
<!-- Node3 -->
<g id="Node000003" class="node">
<title>Node3</title>
<g id="a_Node000003"><a xlink:href="yn_math_8cpp_ad8e630c14218a38be5a8afaa29be1f95.html#ad8e630c14218a38be5a8afaa29be1f95" target="_top" xlink:title="Y 축 회전 행렬 계산 \u{2b50}">
<polygon fill="white" stroke="#666666" points="485.5,-108 373.5,-108 373.5,-88 485.5,-88 485.5,-108"/>
<text text-anchor="middle" x="429.5" y="-94.5" font-family="Helvetica,sans-Serif" font-size="10.00">B3YXMatrixRotationY</text>
</a>
</g>
</g>
<!-- Node1&#45;&gt;Node3 -->
<g id="edge2_Node000001_Node000003" class="edge">
<title>Node1&#45;&gt;Node3</title>
<g id="a_edge2_Node000001_Node000003"><a xlink:title=" ">
<path fill="none" stroke="#63b8ff" d="M516.14,-86.88C506.09,-88.19 495.71,-89.54 485.79,-90.82"/>
<polygon fill="#63b8ff" stroke="#63b8ff" points="516.35,-90.39 525.82,-85.63 515.45,-83.44 516.35,-90.39"/>
</a>
</g>
</g>
<!-- Node4 -->
<g id="Node000004" class="node">
<title>Node4</title>
<g id="a_Node000004"><a xlink:href="yn_math_8cpp_a3828aa23962df7cb6bd24519416b70f3.html#a3828aa23962df7cb6bd24519416b70f3" target="_top" xlink:title="Z 축 회전 행렬 계산 \u{2b50}">
<polygon fill="white" stroke="#666666" points="485.12,-70 373.88,-70 373.88,-50 485.12,-50 485.12,-70"/>
<text text-anchor="middle" x="429.5" y="-56.5" font-family="Helvetica,sans-Serif" font-size="10.00">B3YXMatrixRotationZ</text>
</a>
</g>
</g>
<!-- Node1&#45;&gt;Node4 -->
<g id="edge3_Node000001_Node000004" class="edge">
<title>Node1&#45;&gt;Node4</title>
<g id="a_edge3_Node000001_Node000004"><a xlink:title=" ">
<path fill="none" stroke="#63b8ff" d="M516.07,-71.11C505.95,-69.79 495.51,-68.44 485.54,-67.14"/>
<polygon fill="#63b8ff" stroke="#63b8ff" points="515.45,-74.56 525.82,-72.37 516.35,-67.61 515.45,-74.56"/>
</a>
</g>
</g>
<!-- Node8 -->
<g id="Node000008" class="node">
<title>Node8</title>
<g id="a_Node000008"><a xlink:href="class_b3_yena_graphics_engine9_a3cfed60c7f686d4370953cda9b781ac9.html#a3cfed60c7f686d4370953cda9b781ac9" target="_top" xlink:title="렌더링 엔진 리셋.">
<polygon fill="white" stroke="#666666" points="491.5,-32 367.5,-32 367.5,0 491.5,0 491.5,-32"/>
<text text-anchor="start" x="375.5" y="-18.5" font-family="Helvetica,sans-Serif" font-size="10.00">B3YenaGraphicsEngine9</text>
<text text-anchor="middle" x="429.5" y="-6.5" font-family="Helvetica,sans-Serif" font-size="10.00">::Reset</text>
</a>
</g>
</g>
<!-- Node1&#45;&gt;Node8 -->
<g id="edge7_Node000001_Node000008" class="edge">
<title>Node1&#45;&gt;Node8</title>
<g id="a_edge7_Node000001_Node000008"><a xlink:title=" ">
<path fill="none" stroke="#63b8ff" d="M543.81,-64.01C528.02,-56.92 508.83,-48.41 491.5,-41 484.87,-38.17 477.81,-35.21 470.93,-32.37"/>
<polygon fill="#63b8ff" stroke="#63b8ff" points="542.19,-67.12 552.75,-68.03 545.07,-60.73 542.19,-67.12"/>
</a>
</g>
</g>
<!-- Node5 -->
<g id="Node000005" class="node">
<title>Node5</title>
<g id="a_Node000005"><a xlink:href="_render_8cpp_a71264aa9be3cdedfc23d807cca7e27e6.html#a71264aa9be3cdedfc23d807cca7e27e6" target="_top" xlink:title="오브젝트 : 상태 갱신">
<polygon fill="white" stroke="#666666" points="297.75,-70 235.25,-70 235.25,-50 297.75,-50 297.75,-70"/>
<text text-anchor="middle" x="266.5" y="-56.5" font-family="Helvetica,sans-Serif" font-size="10.00">ObjUpdate</text>
</a>
</g>
</g>
<!-- Node4&#45;&gt;Node5 -->
<g id="edge4_Node000004_Node000005" class="edge">
<title>Node4&#45;&gt;Node5</title>
<g id="a_edge4_Node000004_Node000005"><a xlink:title=" ">
<path fill="none" stroke="#63b8ff" d="M362.06,-60C339.76,-60 315.97,-60 297.83,-60"/>
<polygon fill="#63b8ff" stroke="#63b8ff" points="362.03,-63.5 372.03,-60 362.03,-56.5 362.03,-63.5"/>
</a>
</g>
</g>
<!-- Node6 -->
<g id="Node000006" class="node">
<title>Node6</title>
<g id="a_Node000006"><a xlink:href="_render_8cpp_a6d72e579f5eb095a38091a15d586f1a9.html#a6d72e579f5eb095a38091a15d586f1a9" target="_top" xlink:title="장면 그리기">
<polygon fill="white" stroke="#666666" points="165.5,-70 90.25,-70 90.25,-50 165.5,-50 165.5,-70"/>
<text text-anchor="middle" x="127.88" y="-56.5" font-family="Helvetica,sans-Serif" font-size="10.00">SceneRender</text>
</a>
</g>
</g>
<!-- Node5&#45;&gt;Node6 -->
<g id="edge5_Node000005_Node000006" class="edge">
<title>Node5&#45;&gt;Node6</title>
<g id="a_edge5_Node000005_Node000006"><a xlink:title=" ">
<path fill="none" stroke="#63b8ff" d="M223.55,-60C205.18,-60 183.79,-60 166,-60"/>
<polygon fill="#63b8ff" stroke="#63b8ff" points="223.33,-63.5 233.33,-60 223.33,-56.5 223.33,-63.5"/>
</a>
</g>
</g>
<!-- Node7 -->
<g id="Node000007" class="node">
<title>Node7</title>
<g id="a_Node000007"><a xlink:href="main_8cpp_a1122673f59be78a3997ec7dd1c4688f9.html#a1122673f59be78a3997ec7dd1c4688f9" target="_top" xlink:title="애플리케이션 메인 함수.">
<polygon fill="white" stroke="#666666" points="54.25,-70 0,-70 0,-50 54.25,-50 54.25,-70"/>
<text text-anchor="middle" x="27.12" y="-56.5" font-family="Helvetica,sans-Serif" font-size="10.00">WinMain</text>
</a>
</g>
</g>
<!-- Node6&#45;&gt;Node7 -->
<g id="edge6_Node000006_Node000007" class="edge">
<title>Node6&#45;&gt;Node7</title>
<g id="a_edge6_Node000006_Node000007"><a xlink:title=" ">
<path fill="none" stroke="#63b8ff" d="M78.36,-60C70.17,-60 61.95,-60 54.6,-60"/>
<polygon fill="#63b8ff" stroke="#63b8ff" points="78.31,-63.5 88.31,-60 78.31,-56.5 78.31,-63.5"/>
</a>
</g>
</g>
<!-- Node9 -->
<g id="Node000009" class="node">
<title>Node9</title>
<g id="a_Node000009"><a xlink:href="class_b3_yena_graphics_engine9_a025e569d2c23ac9db2af408d47cfc292.html#a025e569d2c23ac9db2af408d47cfc292" target="_top" xlink:title=" ">
<polygon fill="white" stroke="#666666" points="331.5,-32 201.5,-32 201.5,0 331.5,0 331.5,-32"/>
<text text-anchor="start" x="209.5" y="-18.5" font-family="Helvetica,sans-Serif" font-size="10.00">B3YenaGraphicsEngine9</text>
<text text-anchor="middle" x="266.5" y="-6.5" font-family="Helvetica,sans-Serif" font-size="10.00">::B3YenaGraphicsEngine9</text>
</a>
</g>
</g>
<!-- Node8&#45;&gt;Node9 -->
<g id="edge8_Node000008_Node000009" class="edge">
<title>Node8&#45;&gt;Node9</title>
<g id="a_edge8_Node000008_Node000009"><a xlink:title=" ">
<path fill="none" stroke="#63b8ff" d="M355.93,-16C347.91,-16 339.78,-16 331.87,-16"/>
<polygon fill="#63b8ff" stroke="#63b8ff" points="355.66,-19.5 365.66,-16 355.66,-12.5 355.66,-19.5"/>
</a>
</g>
</g>
</g>
</svg>

<g id="navigator" transform="translate(0 0)" fill="#404254">
  <rect fill="#f2f5e9" fill-opacity="0.5" stroke="#606060" stroke-width=".5" x="0" y="0" width="60" height="60"/>
  <use id="zoomplus" xlink:href="#zoomPlus" x="17" y="9" onmousedown="handleZoom(evt,'in')"/>
  <use id="zoomminus" xlink:href="#zoomMin" x="42" y="9" onmousedown="handleZoom(evt,'out')"/>
  <use id="reset" xlink:href="#resetDef" x="30" y="36" onmousedown="handleReset()"/>
   <use id="arrowup" xlink:href="#arrowUp" x="0" y="0" onmousedown="handlePan(0,-1)"/>
  <use id="arrowright" xlink:href="#arrowRight" x="0" y="0" onmousedown="handlePan(1,0)"/>
  <use id="arrowdown" xlink:href="#arrowDown" x="0" y="0" onmousedown="handlePan(0,1)"/>
  <use id="arrowleft" xlink:href="#arrowLeft" x="0" y="0" onmousedown="handlePan(-1,0)"/>
</g>
<svg viewBox="0 0 15 15" width="100%" height="30px" preserveAspectRatio="xMaxYMin meet">
 <g id="arrow_out" transform="scale(0.3 0.3)">
  <a xlink:href="yn_math_8h_a02a75a42a0bae280a3396ecdb1c124e7_a02a75a42a0bae280a3396ecdb1c124e7_icgraph_org.svg" target="_base">
   <rect id="button" ry="5" rx="5" y="6" x="6" height="38" width="38"
        fill="#f2f5e9" fill-opacity="0.5" stroke="#606060" stroke-width="1.0"/>
   <path id="arrow"
     d="M 11.500037,31.436501 C 11.940474,20.09759 22.043105,11.32322 32.158766,21.979434 L 37.068811,17.246167 C 37.068811,17.246167 37.088388,32 37.088388,32 L 22.160133,31.978069 C 22.160133,31.978069 26.997745,27.140456 26.997745,27.140456 C 18.528582,18.264221 13.291696,25.230495 11.500037,31.436501 z"
     style="fill:#404040;"/>
  </a>
 </g>
</svg>

<style type='text/css'>
<![CDATA[
[data-mouse-over-selected='false'] { opacity: 0.7; }
[data-mouse-over-selected='true']  { opacity: 1.0; }
]]>
</style>
<script type="application/ecmascript"><![CDATA[
document.addEventListener('DOMContentLoaded', (event) => {
  highlightEdges();
  highlightAdjacentNodes();
});
]]></script>
</svg>
