<?xml version="1.0" encoding="UTF-8" standalone="no"?>
<!DOCTYPE svg PUBLIC "-//W3C//DTD SVG 1.1//EN"
 "http://www.w3.org/Graphics/SVG/1.1/DTD/svg11.dtd">
<!-- Generated by graphviz version 13.1.2 (20250808.2320)
 -->
<!-- Title: Yena/ynx9types.h Pages: 1 -->
<svg width="688pt" height="252pt"
 viewBox="0.00 0.00 688.00 252.00" xmlns="http://www.w3.org/2000/svg" xmlns:xlink="http://www.w3.org/1999/xlink">
<g id="graph0" class="graph" transform="scale(1 1) rotate(0) translate(4 248)">
<title>Yena/ynx9types.h</title>
<!-- Node1 -->
<g id="Node000001" class="node">
<title>Node1</title>
<g id="a_Node000001"><a xlink:title="\u{2b50} Yena SW 엔진 자료형 정의 : DX9 (d3d9types.h) 대응">
<polygon fill="#999999" stroke="#666666" points="404.75,-244 310.75,-244 310.75,-224 404.75,-224 404.75,-244"/>
<text xml:space="preserve" text-anchor="middle" x="357.75" y="-230.5" font-family="Helvetica,sans-Serif" font-size="10.00">Yena/ynx9types.h</text>
</a>
</g>
</g>
<!-- Node2 -->
<g id="Node000002" class="node">
<title>Node2</title>
<g id="a_Node000002"><a xlink:href="_yena_8h.html" target="_top" xlink:title="\u{2b50} Yena SWR 기본 헤더 파일 (v1.x)">
<polygon fill="white" stroke="#666666" points="393.12,-132 322.38,-132 322.38,-112 393.12,-112 393.12,-132"/>
<text xml:space="preserve" text-anchor="middle" x="357.75" y="-118.5" font-family="Helvetica,sans-Serif" font-size="10.00">Yena/Yena.h</text>
</a>
</g>
</g>
<!-- Node1&#45;&gt;Node2 -->
<g id="edge1_Node000001_Node000002" class="edge">
<title>Node1&#45;&gt;Node2</title>
<g id="a_edge1_Node000001_Node000002"><a xlink:title=" ">
<path fill="none" stroke="#63b8ff" d="M351.22,-212.99C349.01,-205.27 346.84,-196.31 345.75,-188 343.13,-167.97 349.78,-144.76 354.2,-132.21"/>
<polygon fill="#63b8ff" stroke="#63b8ff" points="347.82,-213.86 354.11,-222.39 354.51,-211.8 347.82,-213.86"/>
</a>
</g>
</g>
<!-- Node11 -->
<g id="Node000011" class="node">
<title>Node11</title>
<g id="a_Node000011"><a xlink:href="ynx9_8h.html" target="_top" xlink:title="\u{2b50} Yena SWR 인터페이스 헤더 : DX9 (d3d9.h) 대응">
<polygon fill="white" stroke="#666666" points="424.75,-188 354.75,-188 354.75,-168 424.75,-168 424.75,-188"/>
<text xml:space="preserve" text-anchor="middle" x="389.75" y="-174.5" font-family="Helvetica,sans-Serif" font-size="10.00">Yena/ynx9.h</text>
</a>
</g>
</g>
<!-- Node1&#45;&gt;Node11 -->
<g id="edge10_Node000001_Node000011" class="edge">
<title>Node1&#45;&gt;Node11</title>
<g id="a_edge10_Node000001_Node000011"><a xlink:title=" ">
<path fill="none" stroke="#63b8ff" d="M369.09,-213.87C374.23,-205.19 380.08,-195.32 384.24,-188.3"/>
<polygon fill="#63b8ff" stroke="#63b8ff" points="366.18,-211.9 364.1,-222.29 372.2,-215.47 366.18,-211.9"/>
</a>
</g>
</g>
<!-- Node3 -->
<g id="Node000003" class="node">
<title>Node3</title>
<g id="a_Node000003"><a xlink:href="_device_8h.html" target="_top" xlink:title="예제 렌더링 장치 운용 헤더">
<polygon fill="white" stroke="#666666" points="180.25,-76 107.25,-76 107.25,-56 180.25,-56 180.25,-76"/>
<text xml:space="preserve" text-anchor="middle" x="143.75" y="-62.5" font-family="Helvetica,sans-Serif" font-size="10.00">Src/Device.h</text>
</a>
</g>
</g>
<!-- Node2&#45;&gt;Node3 -->
<g id="edge2_Node000002_Node000003" class="edge">
<title>Node2&#45;&gt;Node3</title>
<g id="a_edge2_Node000002_Node000003"><a xlink:title=" ">
<path fill="none" stroke="#63b8ff" d="M310.81,-109.16C271.59,-99.26 216.44,-85.34 180.4,-76.25"/>
<polygon fill="#63b8ff" stroke="#63b8ff" points="309.91,-112.54 320.46,-111.59 311.62,-105.75 309.91,-112.54"/>
</a>
</g>
</g>
<!-- Node7 -->
<g id="Node000007" class="node">
<title>Node7</title>
<g id="a_Node000007"><a xlink:href="_yena_8cpp.html" target="_top" xlink:title="\u{2b50} Yena SWR 기본 소스 파일 (v1.x)">
<polygon fill="white" stroke="#666666" points="279.38,-76 198.12,-76 198.12,-56 279.38,-56 279.38,-76"/>
<text xml:space="preserve" text-anchor="middle" x="238.75" y="-62.5" font-family="Helvetica,sans-Serif" font-size="10.00">Yena/Yena.cpp</text>
</a>
</g>
</g>
<!-- Node2&#45;&gt;Node7 -->
<g id="edge6_Node000002_Node000007" class="edge">
<title>Node2&#45;&gt;Node7</title>
<g id="a_edge6_Node000002_Node000007"><a xlink:title=" ">
<path fill="none" stroke="#63b8ff" d="M326.63,-106.88C305.52,-97.3 278.18,-84.89 259.64,-76.48"/>
<polygon fill="#63b8ff" stroke="#63b8ff" points="325.09,-110.02 335.64,-110.97 327.98,-103.65 325.09,-110.02"/>
</a>
</g>
</g>
<!-- Node8 -->
<g id="Node000008" class="node">
<title>Node8</title>
<g id="a_Node000008"><a xlink:href="yn_b3_graphics_8cpp.html" target="_top" xlink:title="Yena 그래픽스 엔진 소스 파일">
<polygon fill="white" stroke="#666666" points="418.25,-76 297.25,-76 297.25,-56 418.25,-56 418.25,-76"/>
<text xml:space="preserve" text-anchor="middle" x="357.75" y="-62.5" font-family="Helvetica,sans-Serif" font-size="10.00">Yena/ynB3Graphics.cpp</text>
</a>
</g>
</g>
<!-- Node2&#45;&gt;Node8 -->
<g id="edge7_Node000002_Node000008" class="edge">
<title>Node2&#45;&gt;Node8</title>
<g id="a_edge7_Node000002_Node000008"><a xlink:title=" ">
<path fill="none" stroke="#63b8ff" d="M357.75,-100.13C357.75,-91.9 357.75,-82.85 357.75,-76.3"/>
<polygon fill="#63b8ff" stroke="#63b8ff" points="354.25,-100.08 357.75,-110.08 361.25,-100.08 354.25,-100.08"/>
</a>
</g>
</g>
<!-- Node9 -->
<g id="Node000009" class="node">
<title>Node9</title>
<g id="a_Node000009"><a xlink:href="yn_b3_vertex_buffer_8cpp.html" target="_top" xlink:title="정점 버퍼 운용 클래스 소스">
<polygon fill="white" stroke="#666666" points="571.38,-76 436.12,-76 436.12,-56 571.38,-56 571.38,-76"/>
<text xml:space="preserve" text-anchor="middle" x="503.75" y="-62.5" font-family="Helvetica,sans-Serif" font-size="10.00">Yena/ynB3VertexBuffer.cpp</text>
</a>
</g>
</g>
<!-- Node2&#45;&gt;Node9 -->
<g id="edge8_Node000002_Node000009" class="edge">
<title>Node2&#45;&gt;Node9</title>
<g id="a_edge8_Node000002_Node000009"><a xlink:title=" ">
<path fill="none" stroke="#63b8ff" d="M393.81,-107.66C419.98,-97.98 454.75,-85.12 478.12,-76.48"/>
<polygon fill="#63b8ff" stroke="#63b8ff" points="392.77,-104.32 384.6,-111.07 395.19,-110.88 392.77,-104.32"/>
</a>
</g>
</g>
<!-- Node10 -->
<g id="Node000010" class="node">
<title>Node10</title>
<g id="a_Node000010"><a xlink:href="yn_error_8cpp.html" target="_top" xlink:title="에러, 예외 및 로그 처리 소스 파일">
<polygon fill="white" stroke="#666666" points="680.25,-76 589.25,-76 589.25,-56 680.25,-56 680.25,-76"/>
<text xml:space="preserve" text-anchor="middle" x="634.75" y="-62.5" font-family="Helvetica,sans-Serif" font-size="10.00">Yena/ynError.cpp</text>
</a>
</g>
</g>
<!-- Node2&#45;&gt;Node10 -->
<g id="edge9_Node000002_Node000010" class="edge">
<title>Node2&#45;&gt;Node10</title>
<g id="a_edge9_Node000002_Node000010"><a xlink:title=" ">
<path fill="none" stroke="#63b8ff" d="M404.52,-111.88C455.97,-101.85 538.13,-85.84 589.12,-75.89"/>
<polygon fill="#63b8ff" stroke="#63b8ff" points="404.03,-108.41 394.88,-113.76 405.37,-115.28 404.03,-108.41"/>
</a>
</g>
</g>
<!-- Node4 -->
<g id="Node000004" class="node">
<title>Node4</title>
<g id="a_Node000004"><a xlink:href="_device_8cpp.html" target="_top" xlink:title="예제 렌더링 장치 운용 소스.">
<polygon fill="white" stroke="#666666" points="83.5,-20 0,-20 0,0 83.5,0 83.5,-20"/>
<text xml:space="preserve" text-anchor="middle" x="41.75" y="-6.5" font-family="Helvetica,sans-Serif" font-size="10.00">Src/Device.cpp</text>
</a>
</g>
</g>
<!-- Node3&#45;&gt;Node4 -->
<g id="edge3_Node000003_Node000004" class="edge">
<title>Node3&#45;&gt;Node4</title>
<g id="a_edge3_Node000003_Node000004"><a xlink:title=" ">
<path fill="none" stroke="#63b8ff" d="M115.82,-50.21C97.91,-40.73 75.18,-28.7 59.66,-20.48"/>
<polygon fill="#63b8ff" stroke="#63b8ff" points="114.17,-53.3 124.65,-54.89 117.45,-47.11 114.17,-53.3"/>
</a>
</g>
</g>
<!-- Node5 -->
<g id="Node000005" class="node">
<title>Node5</title>
<g id="a_Node000005"><a xlink:href="_render_8cpp.html" target="_top" xlink:title="예제 기본 렌더링/프레임웍 소스">
<polygon fill="white" stroke="#666666" points="185.88,-20 101.62,-20 101.62,0 185.88,0 185.88,-20"/>
<text xml:space="preserve" text-anchor="middle" x="143.75" y="-6.5" font-family="Helvetica,sans-Serif" font-size="10.00">Src/Render.cpp</text>
</a>
</g>
</g>
<!-- Node3&#45;&gt;Node5 -->
<g id="edge4_Node000003_Node000005" class="edge">
<title>Node3&#45;&gt;Node5</title>
<g id="a_edge4_Node000003_Node000005"><a xlink:title=" ">
<path fill="none" stroke="#63b8ff" d="M143.75,-44.13C143.75,-35.9 143.75,-26.85 143.75,-20.3"/>
<polygon fill="#63b8ff" stroke="#63b8ff" points="140.25,-44.08 143.75,-54.08 147.25,-44.08 140.25,-44.08"/>
</a>
</g>
</g>
<!-- Node6 -->
<g id="Node000006" class="node">
<title>Node6</title>
<g id="a_Node000006"><a xlink:href="main_8cpp.html" target="_top" xlink:title="예제 애플리케이션 메인 / 윈도 프레임워크 소스">
<polygon fill="white" stroke="#666666" points="277.62,-20 203.88,-20 203.88,0 277.62,0 277.62,-20"/>
<text xml:space="preserve" text-anchor="middle" x="240.75" y="-6.5" font-family="Helvetica,sans-Serif" font-size="10.00">Src/main.cpp</text>
</a>
</g>
</g>
<!-- Node3&#45;&gt;Node6 -->
<g id="edge5_Node000003_Node000006" class="edge">
<title>Node3&#45;&gt;Node6</title>
<g id="a_edge5_Node000003_Node000006"><a xlink:title=" ">
<path fill="none" stroke="#63b8ff" d="M170.55,-50.08C187.55,-40.62 209.03,-28.66 223.72,-20.48"/>
<polygon fill="#63b8ff" stroke="#63b8ff" points="169,-46.94 161.97,-54.86 172.41,-53.05 169,-46.94"/>
</a>
</g>
</g>
<!-- Node11&#45;&gt;Node2 -->
<g id="edge11_Node000011_Node000002" class="edge">
<title>Node11&#45;&gt;Node2</title>
<g id="a_edge11_Node000011_Node000002"><a xlink:title=" ">
<path fill="none" stroke="#63b8ff" d="M378.41,-157.87C373.27,-149.19 367.42,-139.32 363.26,-132.3"/>
<polygon fill="#63b8ff" stroke="#63b8ff" points="375.3,-159.47 383.4,-166.29 381.32,-155.9 375.3,-159.47"/>
</a>
</g>
</g>
</g>
</svg>
